<?xml version="1.0" encoding="utf-8"?>
<!-- Generator: Adobe Illustrator 18.0.0, SVG Export Plug-In . SVG Version: 6.00 Build 0)  -->
<svg version="1.2" baseProfile="tiny" id="City_1_" xmlns="http://www.w3.org/2000/svg" xmlns:xlink="http://www.w3.org/1999/xlink"
	 x="0px" y="0px" viewBox="0 0 26 26" xml:space="preserve">
<path fill="#FFFFFF" d="M13,24.5C13,24.5,13,24.5,13,24.5l0-0.8c0,0,0,0,0,0L13,24.5z"/>
<path fill="#FFFFFF" d="M4,16.7h1v-8h4v3h3v5h2v-4l2-8l2,8h4v4h0.3c0.5-1.1,0.7-2.4,0.7-3.7c0-2.7-1-5.2-2.9-7.2
	c-1.9-1.9-4.4-3-7.1-3c-4.8,0-8.9,3.3-9.9,7.8H4V16.7z"/>
</svg>
