<?xml version="1.0" encoding="utf-8"?>
<!-- Generator: Adobe Illustrator 18.0.0, SVG Export Plug-In . SVG Version: 6.00 Build 0)  -->
<svg version="1.2" baseProfile="tiny" xmlns="http://www.w3.org/2000/svg" xmlns:xlink="http://www.w3.org/1999/xlink" x="0px"
	 y="0px" viewBox="0 0 28 28" xml:space="preserve">
<g id="Border">
	<g id="Ellipse_2_10_">
		<g>
			
				<ellipse transform="matrix(5.410720e-003 -1 1 5.410720e-003 -7.550490e-002 27.9242)" fill-rule="evenodd" fill="#FFFFFF" cx="14" cy="14" rx="11.5" ry="11.5"/>
		</g>
		<g>
			
				<ellipse transform="matrix(5.410720e-003 -1 1 5.410720e-003 -7.550490e-002 27.9242)" fill="none" stroke="#003AD0" stroke-width="2.7339" stroke-miterlimit="100" cx="14" cy="14" rx="11.5" ry="11.5"/>
		</g>
	</g>
</g>
<g id="City_1_">
	<path fill="#003AD0" d="M23,17.7v-4h-4l-2-8l-2,8v4h-2v-5h-3v-3H6v8H5v-6H3v7h0.8l3.2,4c0,0,2,1.9,7,2c4.6,0,8-2,8-2l3-5H23z"/>
</g>
</svg>
