<?xml version="1.0" encoding="utf-8"?>
<!-- Generator: Adobe Illustrator 18.0.0, SVG Export Plug-In . SVG Version: 6.00 Build 0)  -->
<svg version="1.2" baseProfile="tiny" xmlns="http://www.w3.org/2000/svg" xmlns:xlink="http://www.w3.org/1999/xlink" x="0px"
	 y="0px" viewBox="0 0 28 28" xml:space="preserve">
<g id="Border">
	<g id="Ellipse_2_10_">
		<g>
			
				<ellipse transform="matrix(5.410720e-003 -1 1 5.410720e-003 -7.550490e-002 27.9242)" fill-rule="evenodd" fill="#FFFFFF" cx="14" cy="14" rx="11.5" ry="11.5"/>
		</g>
		<g>
			
				<ellipse transform="matrix(5.410720e-003 -1 1 5.410720e-003 -7.550490e-002 27.9242)" fill="none" stroke="#003AD0" stroke-width="2.7339" stroke-miterlimit="100" cx="14" cy="14" rx="11.5" ry="11.5"/>
		</g>
	</g>
</g>
<g id="Castle_1_">
	<path fill-rule="evenodd" fill="#003AD0" d="M17.6,6.9v2.3h-2.4V6.9h-2.4v2.3h-2.4V6.9H8v5.9l1.2,1.1v11l2.4,0.1v-3.8
		c0,0-0.1-4.3,2.4-4.3c2.5,0,2.4,4.3,2.4,4.3l0,0.5l0,3.3h2.5V13.9l1.2-1.1V6.9H17.6z"/>
</g>
</svg>
