<?xml version="1.0" encoding="utf-8"?>
<!-- Generator: Adobe Illustrator 18.0.0, SVG Export Plug-In . SVG Version: 6.00 Build 0)  -->
<svg version="1.2" baseProfile="tiny" xmlns="http://www.w3.org/2000/svg" xmlns:xlink="http://www.w3.org/1999/xlink" x="0px"
	 y="0px" viewBox="0 0 28 28" xml:space="preserve">
<g id="Border">
	<g id="Ellipse_2_10_">
		<g>
			
				<ellipse transform="matrix(5.410720e-003 -1 1 5.410720e-003 -7.550490e-002 27.9242)" fill-rule="evenodd" fill="#FFFFFF" cx="14" cy="14" rx="11.5" ry="11.5"/>
		</g>
		<g>
			
				<ellipse transform="matrix(5.410720e-003 -1 1 5.410720e-003 -7.550490e-002 27.9242)" fill="none" stroke="#003AD0" stroke-width="2.7339" stroke-miterlimit="100" cx="14" cy="14" rx="11.5" ry="11.5"/>
		</g>
	</g>
</g>
<g id="Loch_Lake_1_">
	<g id="Shape_6">
		<path fill-rule="evenodd" fill="#003AD0" d="M14.6,10.3c-3.9-2.8-8.4,1.7-11,4.4c-1.6,1.6-1.4,2.1-0.5,4.3c0.8,1.9,2,3.7,3.7,4.8
			c4.2,2.7,11.4,2.1,15.1-1.5c-1,0-11.7-1.6-10.5-2.6c1.9-1.5,5.5-1.4,7.8-1.4c1.3,0,2.6-0.1,3.9,0c1.5,0,1.2-1.9,2.1-2
			C19,17,18.8,13.3,14.6,10.3z"/>
	</g>
</g>
</svg>
