<?xml version="1.0" encoding="utf-8"?>
<!-- Generator: Adobe Illustrator 18.0.0, SVG Export Plug-In . SVG Version: 6.00 Build 0)  -->
<svg version="1.2" baseProfile="tiny" id="Loch_Lake_1_"
	 xmlns="http://www.w3.org/2000/svg" xmlns:xlink="http://www.w3.org/1999/xlink" x="0px" y="0px" viewBox="0 0 26 26"
	 xml:space="preserve">
<path fill="#FFFFFF" d="M18.2,17.4c-2.2,0.1-5.9-0.1-7.8,1.4c-0.9,0.8,5.2,1.9,8.5,2.3c1.3-1,2.4-2.3,3.2-3.8c0,0,0,0-0.1,0
	C20.8,17.3,19.5,17.3,18.2,17.4z"/>
<path fill="#FFFFFF" d="M13.6,9.3c3.8,2.7,4.3,6.1,9.2,6.1c0.2-0.8,0.3-1.6,0.3-2.4c0-2.7-1-5.2-2.9-7.2c-1.9-1.9-4.4-3-7.1-3
	C7.5,2.9,2.9,7.4,2.9,12.9c0,0.2,0,0.3,0,0.5C5.5,10.7,9.8,6.6,13.6,9.3z"/>
</svg>
