<?xml version="1.0" encoding="utf-8"?>
<!-- Generator: Adobe Illustrator 18.0.0, SVG Export Plug-In . SVG Version: 6.00 Build 0)  -->
<svg version="1.2" baseProfile="tiny" xmlns="http://www.w3.org/2000/svg" xmlns:xlink="http://www.w3.org/1999/xlink" x="0px"
	 y="0px" viewBox="0 0 28 28" xml:space="preserve">
<g id="Border">
	<g id="Ellipse_2_10_">
		<g>
			
				<ellipse transform="matrix(5.410720e-003 -1 1 5.410720e-003 -7.550490e-002 27.9242)" fill-rule="evenodd" fill="#FFFFFF" cx="14" cy="14" rx="11.5" ry="11.5"/>
		</g>
		<g>
			
				<ellipse transform="matrix(5.410720e-003 -1 1 5.410720e-003 -7.550490e-002 27.9242)" fill="none" stroke="#003AD0" stroke-width="2.7339" stroke-miterlimit="100" cx="14" cy="14" rx="11.5" ry="11.5"/>
		</g>
	</g>
</g>
<g id="Mountain_1_">
	<g id="Shape_8">
		<path fill-rule="evenodd" fill="#003AD0" d="M20.8,16.6c-1.9,2.5-3.2,0.6-4.4-1.2c-1.7-2.5-4-7.5-7.4-4.1
			c-2.2,2.2-3.2,3.7-6.1,7.2c2.3,4.3,7.5,7.4,12.5,6.9c7-0.6,9.9-6.9,9.7-13.3C23.8,12.5,21.5,15.6,20.8,16.6z"/>
	</g>
</g>
</svg>
