<?xml version="1.0" encoding="utf-8"?>
<!-- Generator: Adobe Illustrator 18.1.1, SVG Export Plug-In . SVG Version: 6.00 Build 0)  -->
<svg version="1.2" baseProfile="tiny" xmlns="http://www.w3.org/2000/svg" xmlns:xlink="http://www.w3.org/1999/xlink" x="0px"
	 y="0px" width="538px" height="365px" viewBox="0 0 538 365" xml:space="preserve">
<g id="Rectangle_1_1_">
	<rect x="0" y="-0.5" fill="#97C0D3" width="538" height="365.5"/>
</g>
<g id="Unit_2">
	<g>
		<path fill="#CFFB8B" d="M62.4,128.5c-0.2,0.2-0.3,0.3-0.5,0.5c0.4,0.3,0.9,0.4,1.7,0.3c0.3-0.2,0.6-0.3,0.9-0.5
			c0.1-0.3,0.1-0.6,0.2-0.9c-0.4-0.2-0.8-0.3-1.2-0.5C63.1,127.8,62.8,128.2,62.4,128.5z"/>
		<path fill="#CFFB8B" d="M207.1,19v0.2c0.2,0.1,0.3,0.2,0.5,0.3c0.8-0.8,1.1-1.9,1-3.6c-0.2-0.1-0.5-0.2-0.7-0.3
			C207.7,16.7,207.4,17.8,207.1,19z"/>
		<path fill="#CFFB8B" d="M59,135c0.1-0.2,0.2-0.5,0.3-0.7H59c-0.1,0.2-0.2,0.3-0.3,0.5C58.8,134.9,58.9,134.9,59,135z"/>
		<path fill="#CFFB8B" d="M59.5,108.8c-0.3,0.9-0.6,1.7-0.3,2.9c0.3,0.2,0.6,0.3,0.9,0.5h0.2c0.2-0.2,0.5-0.3,0.7-0.5
			c-0.2-0.9-0.3-1.8-0.5-2.7C60.1,108.9,59.8,108.8,59.5,108.8z"/>
		<path fill="#CFFB8B" d="M54.6,139.2c0.6,0.2,1.1,0.3,1.7,0.5c0.1-0.2,0.2-0.5,0.3-0.7v-0.2c-0.6-0.1-1.2-0.1-1.9-0.2
			C54.7,138.9,54.6,139.1,54.6,139.2z"/>
		<path fill="#CFFB8B" d="M209.7,2.1c0.7-0.7,1-1.7,1.4-2.6h-1.3c-0.2,0.8-0.4,1.6-0.4,2.5C209.4,2,209.6,2,209.7,2.1z"/>
		<path fill="#CFFB8B" d="M218-0.5h-5.9c-0.9,1.7-2.3,3.3-1.9,4.8v0.3c0.9-0.6,1.7-1.1,2.6-1.7c0.1,0.1,0.2,0.2,0.3,0.3
			c-0.8,1.7-3.5,5-2,7.5c0.8,0.9,1.6,1.7,2.4,2.6c-1.5,3.5-3,6.9-4.4,10.4v8.9c-0.7,2.4-4.2,3.1-3.2,6.8c0.4,0.5,0.8,1,1.2,1.5
			c3.5,0.8,8-1.7,8.7-4.8c-0.9-1.1-1.7-1.9-2.9-2.7v-0.3c1.4-1.7,3-3,3.6-5.6c0.9-4-0.1-8.6,1.5-11.8c1-1.8,3.4-2.3,4.4-4.3
			C221.7,7.1,217.8,4.6,218-0.5z"/>
		<path fill="#CFFB8B" d="M221.8,238.6h0.2c-0.3-0.6,0.1-0.2-0.5-0.5C221.5,238.2,221.6,238.4,221.8,238.6z"/>
		<path fill="#CFFB8B" d="M64.6,116.2c-0.9-0.4-2.7-0.3-4.1-0.3c-0.9,1.1-3.1,2-4.8,2.2c-0.1,0.2-0.2,0.3-0.3,0.5
			c0.3,0.3,0.3,0.4,0.7,0.7c1,0.3,3.2-0.2,4.6,0c1.2,1.9,2.2,3.9,3.4,5.6h0.7C64.6,121.8,65.6,119,64.6,116.2z"/>
		<path fill="#CFFB8B" d="M223.5,15.6c-1,1-1.9,1.9-2.9,2.9c-1.4,3.1,1.2,12,2.7,13.1c1.7,1.2,5.2,0.8,6.8,0
			c0.3-1.9-0.5-3.2-1.2-4.6c0.3-0.5,0.6-0.9,0.9-1.4c-0.7-0.7-1.4-1.5-2-2.2C226.6,19.1,229.8,16,223.5,15.6z"/>
		<path fill="#CFFB8B" d="M189.9,41.3h2.4c0.5-0.3,0.2-0.1,0.5-0.5v-0.2c-0.8-0.2-1.6-0.3-2.4-0.5c-0.2,0.3-0.5,0.6-0.7,0.9
			C189.8,41.1,189.9,41.2,189.9,41.3z"/>
		<path fill="#CFFB8B" d="M199.8,10.6c1.7-0.9,1.6-4.2,2.4-6c1-1.7,1.9-3.5,2.9-5.2h-5.7c0,0.1-0.1,0.2-0.1,0.2v0.2
			c0.9,0.4,1.9,0.2,3.2,0.2c0.1,0.1,0.1,0.2,0.2,0.3v0.3c-4.5,1.4-6.5,1.4-6.3,7.5c-0.1,0.1-0.1,0.1-0.2,0.2h-0.2
			c-0.5-1.9-1-3.7-1.5-5.6c-1-0.2-9.9,4.2-10.6,5.1c-0.7,1-2.5,8.9-2.2,9.9c0.3,0.5,0.1,0.4,0.9,0.5c2.2-1.6,3.7-4.6,5.3-6.8
			c0.8,0.1,1.6,0.1,2.4,0.2c-0.3,1.9-1.9,2.1-2.4,3.9c1,1.1,2.6,1.7,2.2,3.7c-0.7,0.8-1.4,1.6-2,2.4c0.1,1.4,0.5,1.6,1.2,2.2
			c2.5-0.4,8-4,8.7-6.3c0.4-1.4-0.8-5-1.4-6.3v-1C197.6,10.6,198.6,11.3,199.8,10.6z M184.6,10.4V9.9c0.3,0.3,0.1,0,0.3,0.5H184.6z"
			/>
		<path fill="#CFFB8B" d="M111.8,59.5l0.2,0.3c0.7,0.1,1.4,0.1,2,0.2c0.1-0.3,0.1-0.6,0.2-0.9c-0.2-0.3-0.5-0.7-0.7-1
			c-0.4-0.2-0.6-0.3-1.4-0.3C112,58.4,111.9,58.9,111.8,59.5z"/>
		<path fill="#CFFB8B" d="M44.2,225.6c0.1,0.1,0.2,0.2,0.3,0.3c0.1-0.2,0.2-0.5,0.3-0.7h-0.3C44.4,225.4,44.3,225.5,44.2,225.6z"/>
		<path fill="#CFFB8B" d="M74.7,169.6h0.2c0.4-1-0.2-1.1-0.2-2c-1.1-0.8-3.5-1.2-4.9-1.5C69.6,167.2,73.3,169.2,74.7,169.6z"/>
		<path fill="#CFFB8B" d="M79.4,171.1c-0.3-0.1-0.6-0.1-0.9-0.2h-0.2c-0.1,0.3-0.1,0.7-0.2,1h1C79.3,171.7,79.4,171.4,79.4,171.1z"
			/>
		<path fill="#CFFB8B" d="M74.7,158v-0.7c-0.4-0.1-0.8-0.1-1.2-0.2c-0.1,0.6-0.1,0.4,0.2,0.9H74.7z"/>
		<path fill="#CFFB8B" d="M357.1,297.7c-1.5,1.5-3.6,2.8-6.3,3.1c-0.1,0.3-0.2,0.6-0.3,0.9c1.7,2.4,5,5.1,8.3,5.8
			c2,0.5,5.3-3.3,5.4-5.5C365.3,298.9,360,297.6,357.1,297.7z"/>
		<path fill="#CFFB8B" d="M369,295c-0.3,0.3-0.6,0.7-0.9,1c0.1,0.2,0.1,0.3,0.2,0.5c0.3,0.1,0.6,0.2,0.9,0.3h0.9
			C369.9,296,369.6,295.3,369,295z"/>
		<path fill="#CFFB8B" d="M77.2,170.4c0.1-0.4,0.2-0.8,0.3-1.2c-0.3-0.1-0.6-0.1-0.9-0.2c-0.2,0.4-0.3,0.8-0.5,1.2
			c0.1,0.2,0.2,0.3,0.3,0.5h0.7V170.4z"/>
		<path fill="#CFFB8B" d="M253.6,93.2c-5.6,4.8-11.4,11.8-13.1,20.3v0.2c7.7,1.9,15.2-8.3,15.8-14c-0.6-0.3-1.1-0.6-1.7-0.9
			c-0.6-1.4,0.1-3.5,0.2-5.5C254.4,93.4,254,93.3,253.6,93.2z"/>
		<path fill="#CFFB8B" d="M60.5,147.6v0.2c0.2-0.1,0.5-0.2,0.7-0.3c-0.2-0.1-0.3-0.1-0.5-0.2C60.7,147.4,60.6,147.5,60.5,147.6z"/>
		<path fill="#CFFB8B" d="M56.1,252.9h0.2c0.2-0.5,0.3-0.1,0-0.5C56.2,252.5,56.2,252.7,56.1,252.9z"/>
		<path fill="#CFFB8B" d="M214.8,99c0.2-0.8-0.5-2.5-0.9-3.4c-1.7-0.3-2.6,0.6-4.3,0.9c0.3-1,0.7-2,1-3.1c0.7-3.6-2-6.5-0.9-9
			c0.1-0.2,0.1-0.3,0.2-0.5c3.9,0.4,4.5,4.4,4.9,8.3c-0.5,0.4-0.9,0.8-1.4,1.2c0.2,1.9,1.4,2.5,2,3.9c0.2,0.1,0.3,0.1,0.5,0.2h0.2
			c0.2-2.8,0.5-5.6,0.7-8.3c0-10.1-4.3-13.1-12.9-9c-0.2-0.1-0.3-0.1-0.5-0.2c-0.4-0.6-0.6-0.9-0.7-1.9c1.8-2.2,5.6-3,6.8-5.8
			c1.3-4.3-7.2-10.7-9.9-12.1c0.1-1.5,0.2-3,0.3-4.4c-0.6-0.9-1.3-0.5-2.7-0.3c-0.4-2.7,1.3-5.8-0.3-8.3c-1.8-2.7-3.6-0.6-6.8-1.4
			c-1.6-0.7-3.3-1.5-4.9-2.2c-5.3-1.2-10.1,5.5-16.3,5.6c-0.9-0.7-1.3-1.5-2.7-1.7c0,3.6-1.2,5.2-2.2,7.5c-1.7,1.1-5.8,0.5-7.3-0.5
			v-0.7c2.3-3.1,7.1-6.7,10.9-8.2c-0.1-0.3-0.1-0.6-0.2-0.9c-1.2-1.9-5.3-2.1-7.3-3.2c-3.3-1.8-2.3-4.3-7.7-5.3h-0.2
			c-0.1,0.2-0.1,0.3-0.2,0.5c0.6,1,1.5,1.9,1.7,3.2c-2,0.6-4,1.1-6,1.7c-0.7,1.1-0.6,2.9-1.2,4.1c0.4,2.6,2.5,3.4,2.7,6.5
			c-0.2,0.2-0.3,0.3-0.5,0.5h-0.3c-0.7-0.7-4.6-5.2-4.8-6c-0.3-1.4,0-3.1-0.3-4.3c-0.1-0.1-0.2-0.1-0.3-0.2
			c-1.4,0.9-2.7,1.8-4.1,2.7c-0.9,0.3-1.3-0.6-2.4,0c-0.5,0.3-0.9,1.2-1,1.9c0.6,0.9,1.2,0.9,1.4,2.2c-0.5,0.7-0.6,1.2-1.7,1.4
			c-0.1-0.1-0.1-0.1-0.2-0.2c0.1-0.5,0.2-0.9,0.3-1.4c-1.1-0.4-2.3-0.8-3.4-1.2c0.2-1,0.6-1.1,0.3-2c-0.3-0.1-0.7-0.1-1-0.2
			c-0.9,0.7-0.9,1.7-1.5,2.7c-1.7,2.6-5,1.5-8.5,1.4c-1,1.9-1.1,5.1-1,7.2c-1.1-0.1-2.2-0.3-3.1,0.2c-0.7,0.8,0.2,1.2-1.2,1.7
			c0.4,1.8,1.6,2,2.4,3.2c-0.8,0.8-1.8,0.3-2.7,0.9c0.1,0.8,0.1,0.9,0.5,1.4c0.3,0.5,0.5,0.6,1,0.9c1.3-0.1,1.3-0.6,2.4-0.5
			c0.2,0.4,0.3,0.6,0.3,1.4c-0.6,0.2-1.1,0.5-1.7,0.7c0.2,0.8,0.4,1,0.9,1.5c-0.4,0.2-5.1,0.2-6.3,0.5c0.9,1.8,2.9,2.3,4.1,3.7
			c-1.1,0.7-2.4-0.8-3.9-1c-0.1,0.1-0.1,0.2-0.2,0.3c0.2,0.1,0.5,0.2,0.7,0.3c0.1,0.2,0.2,0.3,0.3,0.5h-5.3
			c-1.3,0.3-3.2,2.8-4.1,3.7c-0.3,0.3-0.1,0-0.3,0.5c2.1,4.4,5,4,10.6,3.7v0.9c0.2,0.1,0.5,0.2,0.7,0.3c0.5-0.4,0.8-0.6,1-1.4
			c0.1-0.1,0.2-0.1,0.3-0.2c0.6,0.5,1.2,1,1.9,1.5c0.7-0.6,1.5-1.2,2.2-1.9h0.9c0.1,0.1,0.1,0.2,0.2,0.3c-0.2,0.5-0.3,0.9-0.5,1.4
			c0.1,0.1,0.1,0.2,0.2,0.3c1.7-0.9,3.4-1.7,5.1-2.6c0.4,0.4,0.7,0.8,0.3,1.5c-0.8,1.3-3.2,4.7-4.4,5.6c0.1,1,0.3,1,0.7,1.5
			c-1.4,1.7-5.9,3-8.2,2.6c-1.4,3.4-4.2,3.8-6.8,6c1.1,1.9,3.5,3.1,5.8,3.7c0.1,0.1,0.1,0.2,0.2,0.3c-0.1,0.2-0.1,0.3-0.2,0.5
			c-1.1,0.1-2.2,0.1-3.2,0.2c-0.1,0.3-0.2,0.6-0.3,0.9c0.7,0.9,1.7,1.6,2.9,2c0.1,0.2,0.1,0.3,0.2,0.5c-0.5,0.4-1.5,0.5-2.4,0.5
			c-1-1.1-1.9-2.3-2.9-3.4h-5.1c-2.4-0.5-4.7-1.4-7.7-1.4c-0.7,1.4-0.9,3.9-2,4.9c-1.5,0.4-2.5,0.3-3.7-0.3
			c-0.3-1.3-0.3-2.2,0.2-3.4h-1.4c-0.2-0.8-0.5-1.6-0.7-2.4c-0.9-0.2-1.7-0.3-2.6-0.5c-0.6,0.6-1,1.2-1.9,1.5
			c-2.7-1.8-11.3-3.3-15.2-1.4c-0.1,0.1-0.1,0.2-0.2,0.3v0.2c0.5,0.4,0.8,0.6,1.7,0.7c0.1,0.1,0.1,0.2,0.2,0.3
			c-0.5,0.8-1.9,0.9-2.4,1.7c-0.3,1-0.7,2-1,3.1c-0.6-0.1-1.1-0.2-1.7-0.3c-0.2-0.1-0.3-0.2-0.5-0.3v-0.2c0.6-0.3,1.2-0.6,1.9-0.9
			c0.1-0.3,0.2-0.7,0.3-1c-1.3-0.6-2.3-1-3.1-2.2h-0.7c-0.9,0.6-1.9,1.4-2.4,2.4c-0.4,1.4,0.2,2.9-0.5,4.6c0.2,0.1,0.5,0.2,0.7,0.3
			c0.6-0.8,1.2-1.6,1.9-2.4c0.2-0.1,0.3-0.2,0.5-0.3c1.4,0.2,1.7,0.7,2.6,1.4c-0.1,1-0.3,1.7-0.7,2.4c0.5,0.9,1.2,1.1,1,2.2
			c-0.6,0.1-1.2,0.2-1.9,0.3c-0.1,0.1-0.2,0.2-0.3,0.3c0.1,0.9,0.2,1.4,0.9,1.9c0.3,0.1,0.6,0.1,0.9,0.2c0.9-0.8,1.7-1.6,2.6-2.4
			c1.3,1.8-1.2,2.5-1.5,3.6c-0.4,1.2,1.2,2.1,1.2,3.7c0.7,0.3,1.5,0.7,2.2,1c-0.1,0.2-0.1,0.3-0.2,0.5c-0.6,0.9-2,0.3-3.1,0
			c-0.1,0.1-0.2,0.1-0.3,0.2c-0.4,1.7-0.7,3.2,0,4.6c5,0.8,5.5-3.2,11.6-1c0.1,0.5,0.2,1,0.3,1.5c-0.5,0.5-1,0.7-1.4,1.4
			c-0.5,1.3,0.7,1.7,1.4,2.4c-2,2-8.9,1.4-11.9,2.2c-1.1,5.2,0.8,7.5,4.6,8.3c0.2,0.3,0.5,0.6,0.7,0.9c-2.4,0.4-6.3-1.3-9-0.2
			c-0.5,0.3-0.3,0-0.5,0.7c0.7,0.5,1.4,1,2,1.5c-0.1,0.3-0.2,0.7-0.3,1c-2.6-0.7-3.8-1.8-6.5-0.3c-0.1,0.2-0.1,0.5-0.2,0.7
			c1,1.2,2.4,2.5,4.3,2.7v0.9v1.5c-0.9,0.5-2.4,0.5-3.4,0.9c-0.3,0.5-0.3,0.7-0.2,1.4c2.1,0.5,5,1.9,7.5,1.2c0.7-0.4,0.7-0.6,1-1.4
			c0.8,0.3,0.9,0.7,1.5,1.2c0.7-0.6,0.7-1,2.2-1c0.1,0.4,0.2,0.8,0.3,1.2c-1.7,1-2.8,1.5-3.6,3.4c0.1,0.4,0.1,0.8,0.2,1.2
			c0.8,0,1-0.8,2-0.5c0.8,0.2,1.7,1.1,2.9,0.7c1-0.7,2.2-3.4,2.9-4.4h0.7c0.1,0.1,0.2,0.2,0.3,0.3c-0.2,0.9-0.3,1.7-0.5,2.6h1
			c0.7-0.5,0.3-1.3,0.3-2.2c0.2-0.1,0.3-0.2,0.5-0.3c0.3,0.6,0.6,1.2,0.9,1.9c-0.5,2.2-2.2,3.4-1.9,6.1c0.2,0.1,0.5,0.1,0.7,0.2h0.2
			c0.2-0.7,0.5-1.4,0.7-2c0.3-0.3,0.2-0.2,0.9-0.3c0.1,0.9,0.2,1.8,0.3,2.7c3.9,1.6,16-2,19.9-2.4c0.1,0.1,0.1,0.2,0.2,0.3
			c-0.5,0.7-1,1.8-1,2.6c0.6,0.8,1,0.4,2,0.2c0.1,0.1,0.1,0.1,0.2,0.2c-0.4,1.4-0.9,1.9-0.9,3.9c-0.1,0.1-0.2,0.1-0.3,0.2
			c-1.1-0.4-4-1-4.9-0.9c-0.6,0.5-0.4,0.3-0.3,1.2c-0.5,0.3-1,0.6-1.5,0.9c-1.4-0.5-2.8-1-4.3-1.5c-0.1,0.1-0.2,0.1-0.3,0.2
			c-1.1,5.2-4.3,7.4-6.1,11.6c0.8,0.6,2.5,0.2,3.6,0.7c0.1,0.2,0.1,0.5,0.2,0.7c-0.9,1.1-1.8,2.2-2.7,3.2c-1.1,2.5-0.9,5.4-3.2,6.6
			h-2.4c-2.3,3.7-7.3,7.3-10.9,9.7c-0.1,0.2-0.1,0.3-0.2,0.5v0.2c2.2,0.2,4.1-1.4,7.1-1.4c0.1-0.6,0.2-1.1,0.3-1.7
			c1.9-0.5,3.7-0.2,4.6-1.5c0.1-0.6-0.1-0.7-0.5-1.2c0.1-0.2,0.2-0.3,0.3-0.5h0.9c1.3,1.8,2.2,2.5,4.1,3.7c-0.3,0.9-0.8,1.1-1.2,2
			c-2.3,0.2-4.9-0.1-7,0.7c-2.8,4.9-2.2,6.2-9,7.3c-0.1,0.3-0.2,0.6-0.3,0.9l0.2,0.3c1.1,0.2,2.2,0.5,3.2,0.7c0.9,1.8,0,4.2-0.2,6.1
			c1,0.3,2,0.6,3.1,0.9c0.1,0.3,0.1,0.6,0.2,0.9c-2.7,0.7-8.1,2.2-9.2-0.9c-1.9,0.3-2.9,1.6-5.3,1.9c-0.1-1,0.2-1.7,0.5-2.7v-0.2
			c-0.2-0.1-0.5-0.1-0.7-0.2c-2,1-4,1.9-6,2.9c-0.4,1-0.2,2.4-0.7,3.4c-0.2-0.1-0.3-0.1-0.5-0.2c-0.3-0.3-0.4-0.8-0.5-1.4h-0.9
			c-0.9,1.2-0.9,3-0.9,5.3c0.9,0.4,2.6,0,3.1-1.2c1.1-0.2,1.5,0.4,2.6,0.7v-0.9c0.8-0.4,10.7-0.4,11.1,0.2c0.1-0.3,0.1-0.6,0.2-0.9
			c1.1-0.5,4.5-1.3,5.6-0.9c0.2,0.1,0.3,0.2,0.5,0.3v0.7c-2.9,2.1-16.5,7.9-17.4,10.2c1.4,0.7,1.7,0.6,1.5,2.6
			c-0.7,0.3-1.4,0.6-2,0.9h-0.7c0.2-0.3,0.5-0.6,0.7-0.9c-0.2-0.3-0.3-0.7-0.5-1c-1,0.5-2,0.9-3.1,1.4c-0.1,0.1-0.1,0.2-0.2,0.3v0.5
			c0.4,0.1,0.8,0.2,1.2,0.3c-0.1,0.6-0.2,1.1-0.3,1.7c0.6,0.3,0.7,0.2,1.7,0.2c0.1,0.9,0.1,1.8,0.2,2.7c0.1,0.1,0.1,0.1,0.2,0.2
			c1.2-0.9,2.5-1.8,3.7-2.7c1.7,0.4,1.5,2.2,1.4,4.1c4.5,2.3,15-5,19.9-5.8c0.1,0.1,0.2,0.1,0.3,0.2v0.2c-2.5,1.4-5,2.8-7.5,4.3
			c0.2,0.5,0.5,1,0.7,1.5c-2.3,0.3-4.3,0.6-6.3,1.7c-0.6,0.7,0,0.9,0.3,1.7c-1.1,1-1.9,1.7-3.9,1.7c-0.1,0.1-0.1,0.1-0.2,0.2
			c0.2,0.5,0.5,1,0.7,1.5c-0.1,0.3-0.1,0.7-0.2,1c-0.9,0.2-1.7,0.3-2.6,0.5c-0.2,0.3-0.3,0.6-0.5,0.9c1.7,0.8,5.3-1.7,7.3-2
			c1.5-0.3,1.8,0.6,3.6,0.7c0.1-0.5,0.2-1,0.3-1.5c3.2-0.7,8.4-1.4,10.2-3.6c-0.4-0.6-0.7-0.5-0.9-1.4c0.1-0.1,0.1-0.1,0.2-0.2
			c0.1-0.1,0.2-0.1,0.3-0.2c1.1,0.6,2.1,1.1,2.7,2.2v1.2c-3.9,0.5-7.5,5.3-11.7,6.5c-0.1,0.2-0.1,0.3-0.2,0.5c3.5-0.3,5.7-2.6,9-3.2
			v0.2c-2.1,3.5-6.9,4.2-9.5,7.2c0.1,0.3,0.2,0.7,0.3,1c0.3,0.5,0,0.3,0.7,0.5c1.4-1,2.7-1.9,4.1-2.9c1.2-0.7,1.7,0.8,3.2,0.5
			c1.9-1,3.9-2,5.8-3.1h0.2c0.2,1.1-0.2,1.4-0.3,2.6c0.8,0.6,1.6,1.2,2.4,1.9c0.6-0.5,1.2-0.9,1.9-1.4c0.8-0.3,1.3,0.2,2.2,0.3
			c1.1-0.8,3.3-2.5,3.2-3.7c1.1-0.7,5.5,0.5,7.8,0.5c0.5-0.8,0.8-1.6,0.9-2.9c1.9-0.8,3.2,1.1,4.9,1.5c0.6-1,1.1-2,1.7-3.1
			c1.6,0.3,3.6,0.6,5.6,0.3c0.8-1.4,1.1-3.2,2.4-4.1c2.7-1.8,4.7-1.8,5.4-5.6c-0.1-0.2-0.1-0.3-0.2-0.5c-0.5-0.5-0.9-0.9-1.4-1.4
			c1-0.5,2-1,3.1-1.5c0.2-0.5,0.3-0.6,0.2-1.2c0.6-0.1,1.1-0.2,1.7-0.3c0.1,0.1,0.1,0.1,0.2,0.2c-0.4,1.6-1.6,2.9-2.7,3.7v0.9
			c0.2,0.1,0.5,0.2,0.7,0.3c1.7,0.6,5.6-0.5,7-1.2c0.7-0.4,1-1.6,1.2-2.4c0.9-0.5,2.3-0.7,3.7-0.7c0.1-0.1,0.1-0.2,0.2-0.3
			c-0.4-0.5-0.8-1-1.2-1.5c0.9-1.1,1.9-1.3,2.4-2.9c0.1-0.1,0.2-0.1,0.3-0.2c0.4,0.4,0.4,0.3,0.5,1.2c4.3,0.1,7.9-2.1,8.3-5.8
			c-0.4-0.5-0.9-0.5-1.7-0.7c-0.1-0.1-0.1-0.2-0.2-0.3c0.4-0.7,0.8-1.4,1.2-2c0.6,0.3,1.1,0.7,1.7,1c0.7-0.5,1.5-1,2.2-1.5
			c1.9-0.8,12.2-3.9,13.6-2.4l-0.7,0.7c0.5,1.1,2.1,0.5,3.2,0.2c0.5-1.6,1-3.2,1.5-4.8c0.3-0.1,0.6-0.1,0.9-0.2c1,1.9,0.9,3,0.3,5.3
			c2.8-0.9,3.2-5,5.3-6.6c0.2-0.1,0.5-0.2,0.7-0.3c-0.1,1.1-0.5,1.5-1.2,2v0.5c1.2-0.1,2.5-0.2,3.7-0.3c1,0.7,2,1.5,3.1,2.2
			c1.4,0.4,5.2-1,6.8-1.5c0.2,0.5,0.3,1,0.5,1.5c0.2-0.1,0.5-0.1,0.7-0.2c0.4-1.5,1.1-2.3,1-3.9c-1.8-1.1-3.4-1.6-4.3-3.6
			c-0.1-0.6-0.1-1.1-0.2-1.7c0.9-0.4,2-0.1,3.1-0.3c1.1-5.5,4.1-6.2,5.4-10.1c0.9-2.5-1.5-4.8-0.9-7.5c0.9-3.7,5.5-13.7,7.7-16.5
			c-0.4-1.7-1.3-3.3-1.7-5.3c-1.6-7.6,0.5-11.6-5.3-15.3v-0.7c0.1-0.1,0.2-0.1,0.3-0.2c0.3,0.3,0.7,0.6,1,0.9
			c0.4-0.5,0.6-1.9,0.9-2.4c1,0.3,1.3,0.9,2.4,0.3c0.5-0.3,0.6-0.5,0.9-1c-0.7-0.8-1.9-1.1-2.7-1.7c0.7-2.4,1.4-4.8,2-7.2
			c-0.4-2.6-3.6-4-4.6-6.5c-1.4-3.5-1.1-9.4-2-12.9c-1.1-0.5-2.2-0.9-3.2-1.4c-0.8-1.2-0.8-5.3-0.2-6.8v-0.3
			c2.3,0.8,4.5,1.6,6.8,2.4c0.6-0.3,1.2-0.6,1.9-0.9v-0.5c-0.7-0.9-1.4-1.8-2-2.7v-0.5c0.5-0.8,1.7-0.5,2.7-0.3c0.3,1.1,0,1.7,1.2,2
			c5.8-3.2,5.4-5.1,7-12.3c2.1-1.3,4.5-0.4,6.6,0C212.5,102.6,214.1,100.8,214.8,99z M77.9,122.6c-0.1,0.1-0.1,0.2-0.2,0.3
			c-0.3-0.3-0.2-0.2-0.3-0.9h0.5V122.6z M84.4,138.4c0.7-1.1,0.9-2.3,1.7-3.2c0.2,0.1,0.3,0.1,0.5,0.2c2.6,1.7-0.4,7.4-2.7,7.7h-0.2
			c-0.1-0.1-0.1-0.2-0.2-0.3c0.7-1.4,2.2-2.9,3.1-4.4v-0.9c-0.2-0.1-0.3-0.2-0.5-0.3c-1,1.6-1.9,2.7-2.7,4.6h-0.2
			c-0.5-0.3-1-0.7-1.5-1C82.6,139.9,83.5,139.1,84.4,138.4z M82.3,146.2c-0.4,0.6-0.7,1-1.4,1.4c-0.5,0.2-0.8,0.1-1.2-0.2
			c-0.4-0.3-0.3-0.2-0.5-0.7v-0.2c1-0.4,1.4,0,2.4-0.9c0.2,0.1,0.5,0.1,0.7,0.2V146.2z M83.2,146.6v-1c0.6-0.9,1.7-0.8,2.7-1.2
			c3.5,0.1,3,2,3.7,5.3C86.8,149.7,84.1,148.5,83.2,146.6z M87.6,133.5c0.1-0.2,0.2-0.5,0.3-0.7c0.2,0.1,0.5,0.1,0.7,0.2
			c0.1,0.3,0.1,0.7,0.2,1c-0.3,0.1-0.6,0.1-0.9,0.2h-0.2C87.7,133.9,87.7,133.7,87.6,133.5z M89.3,136.5c-0.4,0.2-0.8,0.3-1.2,0.5
			c0-1.7,0.3-2.1,1-2.9h0.5c0.1,0.1,0.2,0.2,0.3,0.3C89.8,135.2,89.5,135.8,89.3,136.5z M88.3,116.9c-1.1-1.6,0.1-3.8-1.5-4.6
			c0.1-0.2,0.1-0.5,0.2-0.7h0.9c0.6,0.6,1.1,1.1,1.7,1.7c-0.2,0.8-0.3,1.6-0.5,2.4c1.5,0.9,2.4,1.6,2.7,3.7v0.2
			c-0.3,0.1-0.6,0.1-0.9,0.2c-0.7-0.7-0.2-1-0.7-1.7C89.5,117.7,88.9,117.3,88.3,116.9z M94.4,153.6h-0.7c-0.8-2-1.8-2.2-3.1-3.6
			c1.4,0.3,2.8,0.7,4.3,1h0.3C95,151.9,94.7,152.7,94.4,153.6z M86.1,257c-0.5,0.3-0.9,0.7-1.4,1c-0.2-0.1-0.3-0.2-0.5-0.3
			c0.2-0.9,0.4-1,0.9-1.5c0.3,0.1,0.7,0.2,1,0.3V257z M83.4,198.2c-0.1-0.1-0.1-0.1-0.2-0.2c0.5-1.9,1.9-2.2,3.2-3.2h1
			c0.1,0.1,0.1,0.2,0.2,0.3C86.8,196.8,85.7,198.1,83.4,198.2z M92.9,196.2c-1.6,1-3.7,1-4.9,2.4h-0.7v-0.7c1-0.6,4.3-2.3,5.1-3.1
			c0.2,0.1,0.3,0.2,0.5,0.3V196.2z M97.1,195.8c-0.7,0.3-2.6,0.6-3.2,0.3h-0.3c0.5-2.9,1.2-6,2.9-8c0.8,0.6-0.6,4.3-0.7,6.3
			c0.6,0.3,0.8,0.3,1.5,0h0.2C97.4,194.9,97.3,195.4,97.1,195.8z M97.8,192.9c-0.6-1.4-0.1-5.5,0.3-7.5c1.6,1.1,1,4.6,0.3,6.3
			c0.1,0.2,0.2,0.5,0.3,0.7c0.9-0.2,1.5-0.5,2.4-0.3c0.2,0.2,0.5,0.3,0.7,0.5C101.2,193.9,99.2,193.3,97.8,192.9z M103.6,193.4
			c-0.5-0.3-0.4-0.1-0.5-0.9c0.3,0.1,0.7,0.1,1,0.2c0.2,0.1,0.3,0.2,0.5,0.3C104.2,193.5,104.2,193.6,103.6,193.4z M120.8,176
			c-0.1,0.1-0.2,0.1-0.3,0.2c-0.3-0.1-0.6-0.2-0.9-0.3c-0.2-0.2-0.3-0.5-0.5-0.7c0.3-0.5,0.7-1,1-1.5h0.9
			C120.8,174.6,120.7,175,120.8,176z M116.4,179.6c-0.3,0.5-0.4,0.6-0.9,0.9h-1c0.2-1.2,0.8-1.6,2-1.7
			C116.5,179.1,116.4,179.3,116.4,179.6z M117.1,103.6c0.2-0.9,0.6-1.2,1.4-1.5c0.3-0.1,0.6-0.1,0.9-0.2v0.9c-0.6,0.6-0.8,0.9-2,1
			C117.2,103.8,117.1,103.7,117.1,103.6z M120.5,237.2c-0.8,0.5-1.2,0.5-2.4,0.3c-0.1-0.2-0.2-0.3-0.3-0.5c0.5-0.5,1.5-0.6,2-1h0.9
			c0.1,0.2,0.1,0.3,0.2,0.5C120.7,236.8,120.6,237,120.5,237.2z M118.1,179.3c-0.1-0.2-0.2-0.3-0.3-0.5c1.5-0.9,2.7-1.1,3.6-2.7
			c0.2,0.1,0.3,0.2,0.5,0.3C121.7,178.8,120.6,179.8,118.1,179.3z M121.5,172.1c-0.5-0.5-0.6-0.6-0.7-1.5c0.6,0.1,1.1,0.1,1.7,0.2
			h0.3C122.6,171.6,122.3,171.9,121.5,172.1z M126.3,93.1c-1.1-0.5-2.2-0.9-3.2-1.4c0.1-0.2,0.1-0.5,0.2-0.7h1.4
			c0.6,0.6,1.1,1.2,1.7,1.9V93.1z M140.6,45.5c0.2,0.1,0.5,0.2,0.7,0.3v0.7h-0.7V45.5z M127.8,108.4c0.2-0.2,0.3-0.3,0.5-0.5
			c0.6,0.1,1.1,0.1,1.7,0.2h0.3v0.7c-0.5,0.1-1,0.2-1.5,0.3c0.2,0.5,0.3,1,0.5,1.5c0.4-0.1,0.3-0.1,0.9-0.3c0.1,0.1,0.1,0.2,0.2,0.3
			c-0.3,0.1-0.6,0.2-0.9,0.3c0.3,0.7,0.3,1.1,0.2,1.9c-0.3,0.1-0.7,0.2-1,0.3C128.4,111.6,128.1,110,127.8,108.4z M129.8,142
			c-0.1,0.1-0.2,0.1-0.3,0.2c-0.3-0.4-0.3-0.4-0.2-1c0.2,0.1,0.3,0.2,0.5,0.3V142z M129.8,138.7v0.3h-0.7v-1.5
			c0.2-0.2,0.3-0.5,0.5-0.7c0.2,0.1,0.5,0.2,0.7,0.3C130.2,137.7,130,138.2,129.8,138.7z M133.9,145.9c-0.1,0.2-0.1,0.3-0.2,0.5
			h-2.2c-0.4-1.2-0.8-2.4-1.2-3.6c0.3-0.2,0.7-0.5,1-0.7v-1c0.8,0.4,1.8,2.4,1,3.2c0.3,0.8,0.5,0.7,1.5,0.7c0.1,0.1,0.1,0.1,0.2,0.2
			C134,145.4,134,145.7,133.9,145.9z M136,143.7c-0.6,0.2-1.1,0.3-1.7,0.5c0.1-0.6,0.2-1.1,0.3-1.7c0.3,0.1,0.7,0.2,1,0.3
			c0.2,0.1,0.3,0.2,0.5,0.3C136.1,143.3,136,143.5,136,143.7z M131.7,89.8h-0.2c-0.1-0.1-0.1-0.2-0.2-0.3c1.8-1.1,3.5-2.3,5.3-3.4
			c1,0.1,1.9,0.2,2.9,0.3c0.1,0.2,0.1,0.3,0.2,0.5c-0.5,0.5-1,0.9-1.5,1.4c-0.6-0.3-1.2-0.6-1.9-0.9
			C135.1,88.5,133.6,89.5,131.7,89.8z M136.5,90.4c-0.1-0.3-0.1-0.6-0.2-0.9c0.2,0.1,0.3,0.1,0.5,0.2c0.2,0.1,0.3,0.2,0.5,0.3
			C137,90.3,137.1,90.2,136.5,90.4z M141.2,92.7c-0.2,0.1-0.3,0.2-0.5,0.3c-0.8-0.6-1.6-1.2-2.4-1.9c-0.1-0.2-0.2-0.3-0.3-0.5
			c0.3-0.1,0.6-0.2,0.9-0.3c0.2-0.3,0.2-1.2,0.3-1.9h0.7c0.5,1.4,0.9,2.7,1.4,4.1V92.7z M141.7,52c-0.3,0.5-0.1,0.2-0.5,0.5
			c-0.1-0.1-0.2-0.1-0.3-0.2c0.1-1,0.1-1.9,0.2-2.9c-0.6-1.1-1.9-1.3-3.2-1.7c-0.2-0.9-0.3-1.5,0-2.2c1,0.6,3.4,2.4,3.9,3.4V52z
			 M147.5,53.4c-0.5,0.3-0.9,0.6-1.4,0.9c0.4,0.9,0.9,0.8,1.4,1.5v1.5c-0.5,0.3-1,0.4-1.9,0.3c-0.1-0.1-0.1-0.1-0.2-0.2
			c0.1-0.6,0.1-1.1,0.2-1.7c-0.6,0.1-1.1,0.1-1.7,0.2c0.4-1.3,2.1-2.6,3.2-3.2c0.1,0.1,0.2,0.1,0.3,0.2V53.4z M156.2,42
			c-0.1,0.1-0.1,0.2-0.2,0.3c-0.9,0-1.2-0.1-1.7-0.5c-0.2-0.1-0.3-0.1-0.5-0.2c0.1-0.4,0.1-0.8,0.2-1.2c1,0.3,1.5,0.8,2.2,1.4V42z
			 M182.9,211.1c-0.2-0.1-0.5-0.2-0.7-0.3c0.1-0.1,0.1-0.2,0.2-0.3h0.5V211.1z M187.9,87.1c-0.3,0.3-0.7,0.7-1,1
			c-3,0.6-7,0.2-8.2-1.7v-1.2c0.9-0.8,1.8-1.6,2.7-2.4c0.3,0.5,0.7,0.9,1,1.4c0.7-0.1,1.5-0.2,2.2-0.3c0.3-0.2,0.3-0.2,0.5-0.5
			c-0.1-0.9-0.1-1.7-0.2-2.6c-1.1-0.5-2.3-0.6-2.9-1.7c-0.2-1-0.3-2-0.5-3.1c0.2-0.2,5.1,1.2,7.8-0.9h0.5c0.4,0.6,0.7,0.6,0.9,1.5
			c-1.4,1.7-2.7,3.4-4.1,5.1C186.7,83.4,187.9,84.7,187.9,87.1z M192.3,112.3c-0.3,0.1-0.6,0.1-0.9,0.2c-0.2-0.1-0.3-0.1-0.5-0.2v-1
			c0.3,0.1,0.7,0.2,1,0.3c0.2,0.1,0.3,0.2,0.5,0.3C192.4,112.1,192.4,112.2,192.3,112.3z M204.6,102.3c0.2-0.3,0.3-0.7,0.5-1h0.3
			c0.1,0.1,0.1,0.2,0.2,0.3C205.2,102,205.3,102.1,204.6,102.3z"/>
		<path fill="#CFFB8B" d="M460.4,189.2c-5.1-11-22.2-13.4-38.6-13.1c-2.9,3.1-3.1,12.9-10.9,8.5c-0.7-0.9-1.4-1.8-2-2.7
			c-0.8-0.5-1.6-0.9-2.4-1.4c-0.1-0.9-0.2-1.7-0.3-2.6c0.7-1,1.5-1.9,2.2-2.9c2.2-1.8,5.5-3,6.6-5.8c1.1-2.7-0.1-7-0.7-9.2
			c-1.8-7.1-3.6-12.1-8.9-15.7c-2.1-1.1-4.2-2.2-6.3-3.2c-1.9-2.2-3.9-4.4-5.8-6.6c-0.1-0.2-0.1-0.3-0.2-0.5c0.3-0.1,0.7-0.1,1-0.2
			c0.1-0.6,0.1-0.7-0.2-1.2v-0.2h0.2c3.5,1.9,8.8,9.4,14.3,8c0.6-3.9-2.9-7-4.6-9.4c-3.7-5.1-7.4-9.4-7.3-18.4
			c1.3-0.6,2.6-1.2,3.9-1.9c-0.3-0.7-6.6-4.1-8-6.1c-2.2-4.7-4.4-9.3-6.6-14c-3.5-4.8-10.5-5-16.3-7.5c-1.5-0.9-3-1.8-4.4-2.7
			c-0.7,0.3-0.7,0.3-1,1h-0.7c-0.7-4.5-2.7-8.5-4.3-12.3c-3.4-8.5-7-17.2-9.4-26.2c-1.3-5.1,0.4-12.5-1.5-17
			c-0.8-1.8-2.3-2.8-3.4-4.3c-0.5,0.1-1,0.2-1.5,0.3c-1.4-1.6-3.3-2.5-4.6-4.1c-3.1-3.9-6.4-8.8-8-14c-1.8-0.6-3.5-1.1-5.3-1.7
			c-1.8-0.9-3.5-1.9-5.3-2.8h-17c-0.8,0.9-1.7,1.7-2.7,2.1c-0.8,0.4-6-0.9-10.3-2.1h-45.8c1.1,0.8,2.1,1.7,2.9,2.6
			c-0.1,0.1-0.1,0.2-0.2,0.3c-2.9-0.5-8.6-1-10.3-3h-14.9c-0.2,1.8-0.3,3.7-0.5,5.5c1.1,1.2,3.1,3.2,4.8,3.6c-0.3-1.4-0.7-2.7-1-4.1
			c0.4-0.5,0.6-0.8,1.4-1c-0.7,4.3,3.8,7.8,5.3,11.4c0.3,0.1,0.7,0.2,1,0.3V8.4c-1.6-1.3-3.3-3.7-5.1-4.6c-0.2-0.2-0.3-0.5-0.5-0.7
			c0.1-0.1,0.2-0.1,0.3-0.2c1.5,0.2,1.8,0.9,2.9,1.4c0.2-0.5,0.5-0.9,0.7-1.4c1.1,1.3,0.8,2.7,2.2,3.7h0.9c0.5-1.2,0.9-2.4,1.4-3.6
			c0.6-0.1,1.1-0.2,1.7-0.3c0.6,1.2,0.5,6.8-0.2,8.5c-0.4,0.4-0.3,0.3-0.9,0.2c-0.2,0.4-0.5,0.8-0.7,1.2v0.9
			c0.7,0.1,0.6,0.1,1.2-0.2c0.6,0.8,0.2,2.4,0.2,3.6c2.1,1.4,5.8,3.5,7,5.8c-0.1,0.6-0.1,1.2-0.2,1.9c0.9,1.4,1.8,2.7,2.7,4.1
			c-0.9,5.4-3.3,2.9-4.9,6c-1,3.2-1.9,6.4-2.9,9.5c-2.6,5.9-8.7,9.5-5.1,18.7c-0.3,0.6-0.4,0.8-1,1.2c-1.8-1.4-1.5-4.5-2.7-6.3
			c-0.5,0.1-1,0.1-1.5,0.2c-4.3,6.1,4.8,12.6,6.6,16.4c0.1,1.5,0.1,3,0.2,4.4c0.4,0.7,1.1,1,1.9,1.2h0.2c1.3-5.5-6.2-11.7,2.2-13.1
			c3.5,2.1,10.7,11.1,15.3,10.4c0.4-2.1,1-4.4,1-7c-1.2-1.2-2.9-1.5-3.2-3.6c0.5-0.7,0.9-1.7,1.7-2c0.6,2.1,1.7,2.5,3.2,3.6
			c0.9-0.4,1.8-0.8,2.7-1.2h0.2c0.7,2.6,0.7,4.8,3.6,5.1c0.1-0.1,0.2-0.1,0.3-0.2c0.3-1.1,0.6-2.2,0.9-3.2v-0.3h0.2
			c0.7,0.9,0.4,2.7,0.5,3.9c3.3-0.1,4.6-1.5,6.8-2.4c0.4-0.7,0.8-3,0.9-4.1c0.8,0.2,1.1,0.6,1.5,1.2c1.6-0.1,7.1-0.8,7.7-2
			c0.1-1.1,0.1-2.3,0.2-3.4c0.1-0.2,0.2-0.3,0.3-0.5c0.6,0.6,0.6,1.5,0.5,2.7c1-0.1,1.3-0.5,2-0.3c0.3,0.3,0.1,0,0.3,0.5
			c-0.9,1.1-1.7,2.3-2.6,3.4V68c1-0.6,1.9-1.1,2.9-1.7h0.2c1.5,5.7-2.6,7.3-3.9,10.6c-1.1,3.9-2.3,7.7-3.4,11.6c1.8,2,4,2.5,5.4,4.9
			c2,3.6,2.6,10.8,6.1,12.8c2.1,1.2,2.6-1.5,2.6-3.2c0.1-0.1,0.1-0.1,0.2-0.2h0.5c0.1,0.2,0.2,0.5,0.3,0.7c1,2.4-1.2,5.1-2.4,6
			c0.1,1.6,1.3,4.3,2.4,5.1c1.5,0.4,5.2-7.3,5.4-9.4c0.1-0.1,0.2-0.2,0.3-0.3c0.3,0.1,0.6,0.1,0.9,0.2c0.2,1.6,0.4,2.2,1,3.4
			c0.4,0.1,0.8,0.1,1.2,0.2c1-1.1,1.5-2.1,2.7-3.1c0.2,0.1,0.5,0.1,0.7,0.2c0.9,0.9,1.6,4.1,1.5,5.8c-1.9,1.1-3.9,2.7-2.9,5.3
			c0.5,0.3,1,0.4,1.9,0.3c0.1,0.2,0.1,0.3,0.2,0.5c-2.5,3.6-3,3-7.5,4.6c-0.5,3,0,7,0.7,9.5c0.8,0.5,2.6,0.6,3.9,0.7v0.7
			c-5.2,4.9-8.4,8.7-3.4,16.4v0.9c-0.6-0.2-1.2-0.3-1.9-0.5c-1.1,0.7-2.2,1.4-3.2,2c-0.6,0.7-1,0.8-1.2,2c1,1.3,4.3,3.8,3.4,6.1
			c-0.1,0.2-0.2,0.3-0.3,0.5c-2.5-1.3-4.9-3.6-5.8-6.5c-1.5-0.2-3.5,1.4-4.9,2c-2.6,1.1-7.9,1-10.9,0.2H272c0.2,0.8,0.3,0.7,0.7,1.2
			c-0.8,0.9-7.9,4.4-9.5,3.7h-0.3c0.9-1.2,1.8-2.5,2.7-3.7c-1.2-1.1-3.6,0-5.1,0.2c-0.9-2.1-1.8-4.2-2.7-6.3
			c-2.2-1.3-7.6-0.3-9.7,0.5c0.1,1.9,0.1,3.9,0.2,5.8c-0.2,0.3-0.2,0.3-0.5,0.5c-0.9-0.5-1.7-1-2.6-1.5h-1v1.4
			c0.5,0.8,2.7,2.4,3.7,2.6c0.4,0.7,0.6,1.4,0.7,2.6c2.8,1.5,4.8,2.1,8.2,3.4h0.3c-0.5,1.1-1.4,1.2-1.9,2c0.1,1.5,0.1,3.1,0.2,4.6
			c-2.4,2.5-15.2,8.7-13.4,13.1v0.3c1.7-0.3,3.1-2.2,5.4-1.5c0.8,0.6,1.6,1.1,2.4,1.7c0.2-0.1,0.3-0.1,0.5-0.2
			c0.5-0.8,0.6-3.1,0.9-4.3c4.3-2.9,10-4.4,12.1,1.5c-0.2,1-0.3,0.8-0.7,1.5c-0.2,1.4,2,3.3,2.6,4.8c0.9,0.1,1.2,0,1.7,0.5
			c-2.3,2.7-5.8,6.8-0.9,9.5c-1.7,7.1-2.3,12.2-7.1,15.8c-1.6,1-3.3,1.9-4.9,2.9c-1.2,1.4-2.4,2.7-3.6,4.1c-2.6,0.3-5.1,0.7-7.7,1
			c-1.9,1.1-2.2,4-4.1,5.1c-0.8,0.5-1.1,0-2.2-0.2c-2.4,1.9-2,0.5-4.6-0.2c-0.5,0.3-0.9,0.6-1.4,0.9c-0.1,0.9-0.2,1.7-0.3,2.6
			c-2.5,1.4-5.4,1.8-7.1,3.9c-0.1,0.6-0.1,1.1-0.2,1.7c3.3,0.7,5.5-0.6,6.8,2.6c-0.9,1.8-1.8,3.9-3.9,4.4c-0.1,0.2-0.1,0.3-0.2,0.5
			c0.6,0.5,1.2,1,1.9,1.5c5.9-1,9.4,2.6,15.5,2.9c1.7-2.8,0.9-4.6,5.6-4.6c1.2-0.1,2.4-0.1,3.6-0.2c1.3-0.6,1.5-2,3.1-2.4
			c-0.2,1.2,0,1.6,0.5,2.4l-0.7,0.7c0.2,1.8,1.4,2.7,2.9,3.2c2.1-0.8,3.7,0,5.8,0.3c0.5-0.5,0.4-0.8,1.4-1c-0.1,0.3-0.1,0.6-0.2,0.9
			c-1.2,1.7-6.1,2.3-8.7,2.6c0.1,2.2,3.9,5.9,6,3.6c-0.1-1.5,3.8-0.8,5.4-0.7c0.1-0.5,0.2-1,0.3-1.5c0.5-0.7,3.6-1.3,4.4-1.5
			c0.1,0.1,0.1,0.1,0.2,0.2c0.7,1.5,1.5,3,2.2,4.4c2.8,4.7,8.5,7.7,16,7.7c1.5,0,3.3,0.1,4.3-0.5c1-0.8,1.1-2.7,1.9-3.7
			c1.7-1.4,3.4-2.8,5.1-4.3c2.2,0.4,3.7,0.7,5.8-0.2c0.2,0.1,0.3,0.2,0.5,0.3c0,7-5.3,9.4-7.7,14.3c-0.1,1.2-0.2,2.5-0.3,3.7
			c-8.3,1.9-16.6-0.7-24.2-1.7c-3.6,0.5-7.2,1-10.7,1.5c-1.8,0.3-3.5,0.6-5.3,0.9c-1.5,1.1-1.9,8.1-2.7,10.2c-3,0.7-5.7-0.3-8.7-0.3
			c-0.3,4.3-0.7,8.5-1,12.8c-3.6,3.1-6.6,7.3-10.4,10.1c-0.7,0.5-5.7,2.4-5.8,2.6c-1.1,1.8-0.8,5.1-2.2,7.2
			c-2.9,4.3-7.5,6.3-10.6,11.1c-0.9-0.5-1.7-0.9-2.6-1.4c-1.9,1.1-5.9,3-7,4.9c-0.9,1.2,0,3.5,0.3,4.4c2.1,1.1,3.3,0.9,5.6,0.2
			c0.6-1.2-0.1-1.8-0.5-2.9c0.5-0.7,1.2-0.9,2-1.2c5.1,0.5,6.5,5,8.7,8.5c0.3,0.1,0.6,0.1,0.9,0.2c1.3-1.2,3.3-2.3,4.1-3.9
			c0.1-0.8,0.1-1.6,0.2-2.4c-0.7-0.1-1.5-0.2-2.2-0.3h-0.3c0.4-1.4,1.7-1.9,2.7-2.7c2.5-2.1,3.2-5,8.3-4.3c0.7-1.2,1-3.1,1.4-4.8
			c3.2-2.1,10.4-2.6,15.2-1.9c1.5,0.1,3.1,0.2,4.6,0.3c-0.1-0.6-0.1-1.1-0.2-1.7c6.2,1.9,10.6,7.3,18,8c1.1-1,1.7-3.9,1.9-5.6
			c0.8-0.5,2.1-0.6,3.1-1c0.8-0.9,0.1-3.3,0.3-4.8c0.6-3.9,1.8-7.3,1.7-12.1c0.1-0.1,0.2-0.1,0.3-0.2c0.8,0.9,1.6,1.7,2.4,2.6
			c2.4-1,4.8-2,7.1-3.1c5.4-2,13.6-2.2,18.7,0.2c1.9,0.9,2.6,3.4,4.4,4.4c0.9,0.5,2.3-2.1,3.1-2.9c4.7,0.9,9.4,1.7,14.1,2.6
			c0.5-0.5,0.9-1,1.4-1.5v-0.2c-0.3-2.1-2-2.8-2.7-4.4v-0.2c2.5-0.3,5-0.6,7.5-0.9c7.9-1.7,15.4-3,24.7-2.7c0.6-1.2,1.1-2.5,2.2-3.2
			c1.2,0.5,2.2,0.8,3.4,0.3h0.2c0.9,1.2,0.7,1.6,0.3,3.2c3.4,3.2,12.6-4,18.6-3.1c3.1,0.5,6.2,0.9,9.4,1.4c3.6,1,7.2,2,10.7,3.1
			c5-1,8.3-4.8,12.6-6.6c2.4-1,5.5-1.5,8.3-2c1.2-0.1,2.5-0.1,3.7-0.2c1.1-0.9,0.1-3.6,0.7-4.6c2.6-4.3,9.1-6.4,14-8.5
			c0.1-1.5,0.1-3,0.2-4.4c0.4-0.7,1.4-1,2.2-1.2c0.2-0.4,0.3-0.6,0.3-1.4c-0.7-0.3-1.5-0.6-2.2-0.9c-0.2-0.2-0.3-0.5-0.5-0.7
			c0.9-0.8,1.8-1.6,2.7-2.4v-1c-0.2-0.1-0.5-0.2-0.7-0.3c-1.2-0.8-13.3,2-17.2,2c-0.1-0.1-0.1-0.2-0.2-0.3c0.5-0.6,0.7-0.5,0.9-1.5
			c-1.6-1.9-3.1-3.2-6.6-3.2c-0.7,1.1-1.3,2-2,2.9c-1.2-0.3-2.8-0.6-4.4-0.7l-0.2-0.3c1.5-1.2,4.4-1,5.6-2.4c-0.9-1.4-3-1.4-4.9-1.7
			c-0.1-0.3-0.2-0.6-0.3-0.9c0.6-0.6,1.1-1.2,1.7-1.9c2.1-0.9,4.7,0.7,6.8,1c1.2-2.1,2.8-3.7,4.6-5.1v-0.7c-2.1,0.1-3.9,0.1-5.6-0.3
			c0.7-1.1,3.8-0.1,4.9-0.7h0.3c0.1-1.9,0.2-3.7,0.3-5.6c-1.6-0.7-3.9,1-5.3,1.7c-0.8-0.2-1.6-0.5-2.4-0.7c-0.1-0.2-0.2-0.3-0.3-0.5
			c0.8-0.7,3.2-0.1,4.6-0.7c0.5-0.4,0.8-1.5,1-2.2c0.9-0.5,0.9-0.2,1.9,0.3c0.6-0.2,1.1-0.3,1.7-0.5c0.6-1,0.1-1.6-0.5-2.7
			c1.3-1.3,2.3,2.5,2.9,3.6c3-0.5,6.7-2.4,7.8-4.8c0.1-0.3,0.1-0.7,0.2-1c-1-0.6-1-0.4-2,0.2c-0.1-0.1-0.2-0.1-0.3-0.2
			c0.4-1.6,1.7-2.4,2.4-3.7c-0.6-1.1-1-2.5-2.4-2.9c-0.3-0.3-0.6-0.7-0.9-1c0.1-0.1,0.2-0.1,0.3-0.2c1.6,0.8,3.2,1.6,3.6,3.6
			c0.3,0.1,0.6,0.1,0.9,0.2c2.8-2.2,4-6.8,8.3-7.3c1.9-3.9,1.6-9.4,2.7-13.8c0.7-2.8,2.8-5.3,3.4-7.3c-0.3-2.1-0.7-4.2-1-6.3
			C461.4,194.8,461.8,192.1,460.4,189.2z M258.9,165.5h-0.5c0.1-0.2,0.1-0.5,0.2-0.7c0.2,0.1,0.3,0.1,0.5,0.2
			C259,165.1,258.9,165.3,258.9,165.5z M267.9,200.4h-0.5v-0.5c0.1-0.1,0.2-0.1,0.3-0.2c0.2,0.1,0.3,0.2,0.5,0.3
			C268.1,200.2,268,200.3,267.9,200.4z M260.1,315.6c-0.1-0.1-0.2-0.2-0.3-0.3c0.1-0.1,0.2-0.2,0.3-0.3c0.1,0.1,0.2,0.2,0.3,0.3
			C260.3,315.4,260.2,315.5,260.1,315.6z M312,255.4h-0.9c-0.3-0.5-0.4-0.4-0.3-1c0.4,0.1,0.8,0.1,1.2,0.2c0.2,0.1,0.3,0.2,0.5,0.3
			C312.3,255.1,312.2,255.3,312,255.4z M313.3,253.1c-0.7,0.2-1.4,0.3-2,0.5c-0.1-0.1-0.2-0.2-0.3-0.3c0.4-0.6,0.6-0.8,1.2-1.2
			c0.3,0.1,0.7,0.1,1,0.2c0.1,0.2,0.1,0.5,0.2,0.7V253.1z M314,251.9c-0.2-0.1-0.3-0.2-0.5-0.3v-0.7c2-2.9,4.7-5.1,7.5-7.2
			c0.2,0.1,0.3,0.1,0.5,0.2C321,245.4,315.5,251,314,251.9z M357.3,293.6c-1.5-0.2-2.7-1-3.1-2.4c1.2,0.2,2.3,1.1,3.1,1.9V293.6z
			 M364.2,295.5c-0.2-0.5-0.5-0.9-0.7-1.4h0.9c0.2,0.5,0.5,0.9,0.7,1.4H364.2z M379.1,135c-0.1-0.2-0.2-0.3-0.3-0.5
			c0.9-0.5,1.7-1,2.6-1.5c0.9,0.2,1.8,0.5,2.7,0.7c0.1,0.2,0.2,0.3,0.3,0.5C383.4,134.9,380.7,135,379.1,135z M385.7,136
			c-0.3-0.2-0.6-0.3-0.9-0.5v-0.2c0.8-0.4,1.4-0.8,1.9-1.5h1.4c0.1,0.1,0.2,0.1,0.3,0.2c0.1,0.2,0.1,0.5,0.2,0.7
			C387.6,135.1,386.7,135.6,385.7,136z M390.6,134c0.2,0.1,0.5,0.1,0.7,0.2C390.8,134.3,391,134.2,390.6,134z M410.4,259
			c-0.2,0.1-0.3,0.2-0.5,0.3c-0.7-0.4-0.9-0.5-1.2-1.4c1.1,0.1,1.1,0.3,1.7,0.9V259z M415.5,260.7h-2c-0.1-0.1-0.2-0.1-0.3-0.2
			c-0.2-0.5-0.3-0.4-0.2-1c0.9,0.3,1.7,0.7,2.6,1V260.7z M447.5,270.1h1.2c0.1,0.1,0.2,0.1,0.3,0.2c-0.1,0.1-0.1,0.2-0.2,0.3h-1.2
			c-0.1-0.1-0.2-0.2-0.3-0.3C447.4,270.2,447.4,270.2,447.5,270.1z M421.3,259.2c-0.5-0.1-1-0.2-1.5-0.3c-0.6,0.8-1,1.4-1.7,2h-0.7
			c-0.1-0.1-0.1-0.2-0.2-0.3c0.6-0.8,1.2-1.1,1.4-2.4c0.9-0.3,1.8-0.6,2.7-0.9h0.7C421.7,257.9,421.5,258.6,421.3,259.2z
			 M432.7,240.3c0.1-0.3,0.2-0.6,0.3-0.9c0.1,0.2,0.2,0.5,0.3,0.7C433.1,240.2,432.9,240.2,432.7,240.3z M450.4,231.1
			c-0.2-0.1-0.5-0.2-0.7-0.3c0.1-0.2,0.2-0.3,0.3-0.5c0.1,0.1,0.2,0.2,0.3,0.3V231.1z"/>
		<path fill="#CFFB8B" d="M73,161.1c0.2,0.4,0.3,0.4,0.7,0.7h1c0.3-0.6,0.4-1,0.2-1.7c-0.3-0.7-0.5-0.8-1.2-1
			c-0.3,0.2-0.7,0.5-1,0.7C72.7,160.1,72.9,160.6,73,161.1z"/>
	</g>
	<g>
		<path fill="#C8F286" d="M209.3,1.8c0.1,0.1,0.2,0.2,0.4,0.2c0.5-0.5,0.8-1.2,1.1-1.9c0,0,0-0.1,0-0.1h-1.2
			C209.5,0.6,209.4,1.2,209.3,1.8z"/>
		<path fill="#C8F286" d="M50.8,217.6c-0.1,0.3-0.2,0.7-0.3,1v4.9c1-0.1,1.4,0.4,2.5,0.7v-0.9c0.1,0,0.3-0.1,0.6-0.1
			c-0.5-0.4-1.1-0.7-1.5-1c-0.4-1.7,0.1-3.7,0.8-5.7C52.2,216.9,51.5,217.3,50.8,217.6z"/>
		<path fill="#C8F286" d="M82.6,100.5c0.2-0.1,0.4-0.3,0.5-0.4c-2.1-1.2-6.7-2.2-10.6-2.1c0.6,1.4,1,3,2.1,3.9
			C76.9,102.4,81.2,101.8,82.6,100.5z"/>
		<path fill="#C8F286" d="M380.8,152.6c2.8-0.1,4.4-3.7,3.9-6.1c-0.5-0.1-1-0.2-1.5-0.3c-0.9,0.8-2.2,1-3.7,1.2
			c-0.5,1-0.6,2.7-0.5,4.3C379.5,152.1,380,152.3,380.8,152.6z"/>
		<path fill="#C8F286" d="M210.8,1.8c0,0-0.1,0.1-0.1,0.1c0,0,0,0,0.1,0C210.8,1.9,210.8,1.8,210.8,1.8z"/>
		<path fill="#C8F286" d="M117.5,103.8c0.5,0.1,0.9,0.2,1.4,0.3c1,0.7,2,1.4,3.1,2c0.3-0.1,0.7-0.1,1-0.2c0.1-0.1,0.2-0.2,0.3-0.3
			c-1-2.2-1.9-4.4-2.9-6.6c-0.7-1.8-1.6-5.1-2.3-8.6c-1,0.2-2,0.3-2.7,0.2c0,0.4-0.1,0.9-0.2,1.3c-0.5,0.4-0.9,0.8-1.5,0.9
			c-1.3,1.4-3.1,2-4.7,3.3c0.1,0.5,0.2,1.1,0.3,1.6c1.2,1.2,3.1,2.1,4.9,2.6c0.1,0.1,0.1,0.2,0.2,0.3c-0.1,0.2-0.1,0.3-0.2,0.5
			c-1.1,0.1-2.2,0.1-3.2,0.2l-0.3,0.8c0,0,0,0,0,0c1.6,1.3,4.3,1.3,6.7,1.7c0,0-0.1-0.1-0.1-0.1c0.2-0.9,0.6-1.2,1.4-1.5
			c0.3-0.1,0.6-0.1,0.9-0.2v0.9C118.7,103.4,118.5,103.7,117.5,103.8z"/>
		<path fill="#C8F286" d="M87.2,115.2c-1.1-0.7-2.9-2-4.9-1.5c-0.9,0.2-1.7,0.5-2.6,0.7c-2.5-0.5-5.5-2.9-8-3.2
			c-0.3,0.5-0.6,1-0.9,1.5c0.7,5.1,4.7,6.3,8,8.7c0.4,1.7-0.1,3.4-0.3,5.3c-0.3,2,0.7,3.2,1,4.6c0.6,2.9-1.3,3.3-1.7,4.8
			c-0.6,2.2,0.5,3.2-1.2,4.6v0.5c0.2,0.1,0.3,0.2,0.5,0.3c0.7-0.7,0.3-1.2,0.9-2.2c0.7-0.6,1.5-1.1,2.2-1.7c1.6-2,2.5-4.6,3.9-6.6
			c-0.6-1.9-2.3-7.3-1-9.9C84.2,118.8,87.4,118.3,87.2,115.2z"/>
		<path fill="#C8F286" d="M112.1,57.8c-0.1,0.5-0.2,1.1-0.3,1.6c0.7-0.2,1.4-0.5,2-0.8c-0.1-0.2-0.2-0.3-0.3-0.5
			C113,57.9,112.9,57.8,112.1,57.8z"/>
		<path fill="#C8F286" d="M108.6,72.5c-1.3,0.3-3.2,2.8-4.1,3.7c-0.3,0.3-0.1,0-0.3,0.5c2.1,4.4,5,4,10.6,3.7v0.9
			c0.2,0.1,0.5,0.2,0.7,0.3c0.5-0.4,0.8-0.6,1-1.4c0.1-0.1,0.2-0.1,0.3-0.2c0.2,0.2,0.4,0.4,0.6,0.5c0.1-0.8,0.2-1.5,0.4-2.1
			c0.5-1.6,2.4-2.7,3.6-3.7v-0.2c-3.1-1.7-6.7-3.5-9.9-0.7h-0.7c-0.2-0.3-0.2-0.8-0.2-1.5H108.6z"/>
		<path fill="#C8F286" d="M214.5,10.8c-0.1-0.2-0.2-0.5-0.3-0.7c-0.3-0.1-0.7-0.1-1-0.2c-0.1,0.9-0.1,1.1,0.9,1.4h0.2
			C214.3,11.1,214.4,10.9,214.5,10.8z"/>
		<path fill="#C8F286" d="M81.3,177.9c0.8,0.6,2.5,0.2,3.6,0.7l0.1,0.3c0,0,0,0,0,0v-0.7c-1.2,0-2.4-0.2-3.6-0.4
			C81.4,177.8,81.3,177.9,81.3,177.9z"/>
		<path fill="#C8F286" d="M199.3,10.8c-2.2-0.9-4.1-1.9-4.4-4.9c0.1-0.2,0.2-0.4,0.3-0.6c-0.2-0.9-0.5-1.7-0.7-2.6
			c-1-0.2-9.9,4.2-10.6,5.1c-0.7,1-2.5,8.9-2.2,9.9c0.3,0.5,0.1,0.4,0.9,0.5c2.2-1.6,3.7-4.6,5.3-6.8c0.8,0.1,1.6,0.1,2.4,0.2
			c-0.3,1.9-1.9,2.1-2.4,3.9c1,1.1,2.6,1.7,2.2,3.7c-0.7,0.8-1.4,1.6-2,2.4c0.1,1.4,0.5,1.6,1.2,2.2c1.3-0.2,3.5-1.3,5.3-2.7
			c-0.9-0.7-2.1-1.1-2.7-2.1c-1.2-2.1-0.8-3.8,0.7-5.1c2.5,0.4,3.2,2.3,5.5,3c0-1.6-0.9-4.5-1.4-5.7v-1
			C197.5,10.6,198.3,11.1,199.3,10.8z M184.6,10.4V9.9c0.3,0.3,0.1,0,0.3,0.5H184.6z"/>
		<path fill="#C8F286" d="M145.8,49.5c-0.1-0.1-0.2-0.2-0.2-0.3v0.2C145.6,49.5,145.7,49.5,145.8,49.5z"/>
		<path fill="#C8F286" d="M176.9,51.1c0.1,0.1,0.2,0.2,0.3,0.3c1.1-0.4,2.2-0.8,3.2-1.2c0.3-0.8,0.7-1.6,1-2.4
			c-0.1-0.2-0.1-0.3-0.2-0.5c-1-0.3-2-0.6-3.1-0.9C177.4,47.7,176.9,49.1,176.9,51.1z"/>
		<path fill="#C8F286" d="M130.4,125.4c1.3-1.9,2.3-4.8,3.2-6.8v-0.2c-4.9-0.9-2.5-0.7-5.1-3.1c-1-0.4-2-0.8-3.1-1.2
			c-1.5-1.1-0.8-2.4-3.6-2.6c-1.9,1-2.6,2-3.2,4.3c-1.8,1.1-3.1-0.2-5.4-0.3c-1.3,1.6-3.4,4.6-6.8,3.4c-0.9-0.5-1.7-1-2.6-1.5
			c-0.6,0.6-1.1,1-1.5,1.9c0,2.9,1.2,2.8,2.2,4.4c0.2,1,0.5,1.9,0.7,2.9c0.5,1.4,2.4,2.4,3.4,3.4c-0.3,0.9-0.7,1.8-1,2.7
			c-1.4,1.5-3.5,1.1-4.4,3.2c-0.6,1.6,1.1,3.9,1.4,6h0.2c1.2-1.4,2.6-3.2,4.6-3.7c0.9-0.1,1.7-0.2,2.6-0.3c1.2-1.2,2.5-2.4,3.7-3.6
			c1.2-0.3,2.4-0.6,3.6-0.9c0.9-0.6,1-1.9,1.5-2.9C122.7,126.8,125.3,125.1,130.4,125.4z"/>
		<path fill="#C8F286" d="M125.8,132.9c1.1-0.3,1.6-1,2-1.9v-0.2h-0.7C126.5,131.5,126,131.8,125.8,132.9z"/>
		<path fill="#C8F286" d="M98.6,103.1c-0.7-0.4-1.1-0.7-2.4-0.7c-0.6,0.3-1.2,0.5-1.7,0.8c-0.3,0.8-0.6,1.6-1.1,2.1
			c-0.5,0.1-0.9,0.2-1.3,0.2c0.1,1.8,0.7,2.1,1.5,3.2c1.5,0.3,4.3,1.1,5.1,0.9c0.7-0.4,1.1-1,1.4-1.7
			C100.5,106.5,99.1,104.3,98.6,103.1z"/>
		<path fill="#C8F286" d="M113.1,162.9c-0.2-0.5-5.2-5.8-5.6-6c-0.9,2.9-8,9.5-8,10.6c0,0.9,1.5,2,1.7,3.4
			C107.7,172.5,109,164.5,113.1,162.9z"/>
		<path fill="#C8F286" d="M326.7,29.2c-1.7,1.6-3.4,0.6-5.4,0.2c0.9,5.4,9,13.4,14.1,14.5c-1-1.2-2-2.5-3.1-3.7
			c-1.7-3.6-3.4-7.3-5.1-10.9H326.7z"/>
		<path fill="#C8F286" d="M365.8,143.1c-0.3-0.1-0.7-0.1-1-0.2c-0.5,0.5-0.9,1-1.4,1.5c-0.4,2.1,0.3,3.5,0.9,5.3
			c0.4,0.2,0.8,0.3,1.2,0.5c1.2-1.1,1.9-2.2,2.6-3.9C367.5,145.1,367,143.7,365.8,143.1z"/>
		<path fill="#C8F286" d="M215.7,29.3c-0.5,0.1-1,0.3-1.5,0.4c-0.4,0.6-0.6,0.6-0.7,1.7c0.2,0.1,0.4,0.2,0.5,0.3
			C214.6,30.9,215.2,30.2,215.7,29.3z"/>
		<path fill="#C8F286" d="M201.1,7.5c0.2-0.1,0.3-0.3,0.5-0.4c0.2-0.9,0.4-1.8,0.7-2.4c0.9-1.6,1.7-3.1,2.6-4.7h-5.2
			c0.8,0.3,1.8,0.1,2.9,0.1c0.1,0.1,0.1,0.2,0.2,0.3v0.3c-3.3,1-5.3,1.3-6,3.9c0.1,0,0.3,0,0.4,0c0.9,1,1.8,1.9,2.7,2.9H201.1z"/>
		<path fill="#C8F286" d="M373.6,138.5c-0.6,0.5-1,0.6-1.4,1.4c0.1,0.5,0.1,0.9,0.2,1.4c1.1,0.6,4.6,1.6,5.8,0.9
			c0.6-0.3,0.6-0.7,1-1.2c-0.1-0.3-0.2-0.6-0.3-0.9C377.6,139.3,375.5,138.5,373.6,138.5z"/>
		<path fill="#C8F286" d="M349,28.9c-0.1-1.1-0.4-2.1-0.8-3c0-0.1-0.1-0.2-0.1-0.3c-3.4-1-9.9-0.8-12.1-1.5c-0.8-0.5-1.6-1-2.4-1.5
			c0.2,3.3,0.6,8.1,1.4,10.6c1.2,0.3,2.4,0.7,3.6,1c2.1,1.3,2.9,3.7,5.3,4.9c0.1-0.1,0.2-0.1,0.3-0.2c-0.3-1.4-1.2-2.4-0.9-3.9
			C344.2,33.4,346.7,30,349,28.9z"/>
		<path fill="#C8F286" d="M402.6,175.6c0.8-2.5,0.5-4.5-1.9-5.3c-2.3-4,4.1-12.4-4.3-12.3c-1,0.3-2,0.6-3.1,0.9
			c-2.9,1.5-0.7,5.6-2,8.7c-0.9,1.1-1.8,2.2-2.7,3.2c-0.4,0.8-0.8,2.2-0.2,3.1c0.4,0.8,1,1.1,2.2,1.2c1.2-0.5,2.3-1.1,3.1-2h0.7
			c0.9,2.6,3.4,3.7,7,3.6C401.8,176.3,402.2,176,402.6,175.6z"/>
		<path fill="#C8F286" d="M394.1,178.2c0.6,0.7,1.1,1.4,2,1.7c0.9-0.1,1.7-0.1,2.6-0.2c-0.7-1-3-1.6-4.3-1.9
			C394.3,178,394.2,178.1,394.1,178.2z"/>
		<path fill="#C8F286" d="M307.9,0h-5.3c-0.7,0.6-1.4,1.2-2.2,1.6C299.7,1.9,295.8,1,292,0h-10c-2.4,1.8-5.2,2.6-7.8,0.7
			c-0.3-0.2-0.5-0.4-0.6-0.7h-19.5c2.1,4.5,4.9,8.7,6.7,9.4c1.2,1.9,0.6,5.5-0.9,6.8c-2.8-0.4-5-2.4-7.3-3.1
			c-4.1-1.2-6.4,2.3-8.5,3.2c-1.1,0.2-2.3,0.3-3.4,0.5h-0.3c1.1,3.3,11.2,7.3,6.6,14c-1.1,1.7-4.6,3.2-6.1,5.5
			c0.1,1.9,1.1,3.2,0.7,5.6c-0.7,3.9-4.1,5.3-5.1,8.7c-1.8,6.1,6.6,14.4,10.6,16c0.7-0.1,1.5-0.2,2.2-0.3c0.5-2.2,0.1-3.2,1.7-4.3
			c2.7,0,9.4,3.9,10.7,5.6h0.7c1.1-2.1,2.5-3.5,5.6-3.6c0.9,0.1,1.8,0.1,2.7,0.2c0.5-0.5,0.9-1,1.4-1.5c1.6-2,3.9-2,7-1.7
			c0.1-1.8,0.2-3.6,0.3-5.5c0.7-1.3,2.1-2.3,2.6-3.9c-0.7-1.2-1.8-1.9-2.2-3.4v-0.9c1.6,0.4,3.2,0.8,4.8,1.2
			c2.4,1.6,2.5,4.3,6.1,4.9c1.1-0.7,2.1-1.8,4.1-1.2c0.6-0.9,1.2-1.8,1.9-2.7c1.7-1.2,4-0.7,4.9-2.6c0.1-0.4,0.1-0.8,0.2-1.2
			c-0.8-0.9-3.5-5.1-4.1-5.5c-0.8-0.2-1.6-0.3-2.4-0.5c-0.9-0.8-0.9-1.8-2-2.6c-2.3,0.1-2.4,1.6-4.1,2h-3.7
			c-4.5,0.8-4.1,2.6-5.8,6.3V46c-2-0.7-1.8-5.2-0.5-6.8c2-0.9,4-1.7,6-2.6c0.7-0.7,1.4-1.5,2-2.2c1.1-0.5,2.3-1,3.4-1.5
			c0.8-0.7,0.5-1.9,1.5-2.6c2.4,1.2,5.5,0.6,7.8-0.7c0.5-0.3,0.2-0.1,0.5-0.5c-1.9-2-9.1-8-3.7-11.2c1.8,0.8,2.1,2.4,4.4,2.7
			c0.2-0.1,0.3-0.1,0.5-0.2c1.3-2.6,3.8-9,8.5-5.1c0.3,0.5,0.7,0.9,1,1.4c1,0.1,1.9,0.2,2.9,0.3c2.3,0.9,2.9,3.7,4.1,5.6
			c2.1,0.5,3.8,0.3,6,0c0.4-1.1-1.9-4.2-2-7.2c-1.2-0.5-9.2,0.1-11.7-0.2c-0.6-1.4-0.3-3.1-0.7-4.1c-0.5-0.3-0.9-0.7-1.4-1
			c-1.8-1.8-2.8-4.4-1.7-7.8C306.7,1.5,307.2,0.7,307.9,0z M248.7,24.9v-0.7c0.2-0.2,0.3-0.3,0.5-0.5c1.5-0.1,2,0.1,2.6,1
			c-0.1,0.2-0.1,0.3-0.2,0.5c-0.6,0.4-0.6,0.6-1.7,0.7C249.5,25.6,249.1,25.2,248.7,24.9z M258.9,57.9c-4,2.5-8-2.1-9.4-4.9
			c0-1.7,0.5-2.1,1.4-2.9c4.6-0.1,6.3,4.2,8,7V57.9z M271,25.6c-1.5,0.7-3.7-0.9-5.8-1c-0.2-0.3-0.3-0.6-0.5-0.9v-1.5
			c0.7-1.3,2.4-1.5,3.4-2.6c0.4,0.1,0.8,0.1,1.2,0.2c1,0.5,2.1,3,2.2,4.3C271.4,24.6,271.2,25.1,271,25.6z M294.7,16.2
			c-0.4,0.6-1.7,1.1-2.6,0.7c-1.8-1.2,1.1-3.5,1.9-4.1c0.2,0.1,0.5,0.2,0.7,0.3C294.9,14,295.2,15.4,294.7,16.2z"/>
		<path fill="#C8F286" d="M327.2,13.3c0.2,0.9,0.5,1.7,0.7,2.6c0.3,0.2,0.7,0.3,1,0.5c0.1-0.1,0.1-0.1,0.2-0.2
			c1.9-1.5,2.3-4.9,3.9-6.9c-0.9-1.7-1.7-3.5-2.2-5.3c0,0,0,0,0,0c0.4,3,0.6,5.4,0.6,5.4C330.6,11.4,328.8,12.3,327.2,13.3z"/>
		<path fill="#C8F286" d="M368.9,140.9c0.1,0.2,0.1,0.3,0.2,0.5c0.2,0.1,0.3,0.1,0.5,0.2h0.7v-0.5c-0.2-0.2-0.5-0.5-0.7-0.7h-0.5
			C369,140.6,368.9,140.7,368.9,140.9z"/>
		<path fill="#C8F286" d="M250.2,238.3c-3.2-0.7-8.3,1.6-11.4-0.2c-1.8-1.1-0.2-2.2-1-4.1c-0.6-1.4-3-2.2-3.6-3.9
			c0-0.1,0-0.1-0.1-0.2c-0.6-0.1-1.1-0.7-2.6-1.1c-0.5,0.3-0.9,0.6-1.4,0.9c-0.1,0.9-0.2,1.7-0.3,2.6c-2.5,1.4-5.3,1.8-7.1,3.8
			c0.1,0.1,0.2,0.2,0.3,0.4c0,0.5,0.1,1,0.1,1.6c2.9,0.4,4.9-0.5,6.1,2.4c-0.4,0.9-0.9,1.9-1.5,2.7c0.5,0.2,1,0.3,1.7,0.3
			c1.3-1.4,1.2-4,2.7-5.1c3.1-2.2,5.2,0.3,7.1,1.4c2,1,3.6,0,4.8,1.7c0.9,1.3,1.1,2.9,2.1,4c0.5-0.1,1.2-0.2,1.9-0.2
			c1.2-0.1,2.4-0.1,3.6-0.2c0.3-0.1,0.5-0.3,0.7-0.5C251.3,242.8,250.3,241.6,250.2,238.3z"/>
		<path fill="#C8F286" d="M313.2,52.5c-0.7-1.2-0.8-3.4-1.4-4.6c-0.7-0.1-1.4-0.2-2-0.3c-0.6,0.2-1.1,0.5-1.7,0.7
			c-0.1,1.5-0.1,3-0.2,4.4c1.9,1.3,4.3,1.7,4.3,5.1c1.2,0.7,4.4,1.4,5.6,1.7c-0.1-1.2-0.1-2.5-0.2-3.7C316.7,54.1,314,54,313.2,52.5
			z"/>
		<path fill="#C8F286" d="M269.3,184c-0.2-0.1-0.3-0.2-0.5-0.3h-0.5c-0.2,0.2-0.3,0.5-0.5,0.7C267.5,185.4,269.2,185.5,269.3,184z"
			/>
		<path fill="#C8F286" d="M249.9,284.5c-0.8,0.7-1.3,0.9-1.6,2c0,0.2,0,0.4,0,0.6c0.1,0.3,0.2,0.6,0.3,0.9c0.7,0.4,1.5,0.6,2.6,0.9
			c1-0.5,1.2-1.6,1.4-2.9c-0.3-0.4-0.7-0.8-1-1.2C250.9,284.6,250.4,284.5,249.9,284.5z"/>
		<path fill="#C8F286" d="M267.9,180.1c-0.2-0.1-0.5-0.2-0.7-0.3c-0.3-0.1-0.6-0.1-0.9-0.2c-0.2,0.3-0.5,0.6-0.7,0.9
			c0.2,0.3,0.5,0.7,0.7,1c0.3-0.1,0.6-0.1,0.9-0.2c0.2-0.2,0.5-0.3,0.7-0.5V180.1z"/>
		<path fill="#C8F286" d="M284.6,160c-0.3-0.3-0.7-0.7-1-1c-1.1-0.1-2.2-0.1-3.2-0.2c-0.2-0.1-0.3-0.1-0.5-0.2
			c0.3-0.8,0.8-1.2,1.2-1.7c-1.9,0-3.8-0.2-5.2-0.6h-2.7c0,0.4,0,0.7,0,0.8c0.1,0.2,0.1,0.3,0.2,0.5c1.1,0.2,2.3,0.3,3.4,0.5
			c0.4,0.3,0.3,0.2,0.5,0.7v0.2c-0.8,0.5-1,0.4-2.2,0.3c-0.1,0.2-0.1,0.3-0.2,0.5c0.9,1.1,1.6,1.8,2,3.4c2.3,1.6,6.6,0.4,7.7-1.9
			V160z"/>
		<path fill="#C8F286" d="M282.8,80.4c-0.3,0.3-0.7,0.7-1,1c-0.1,0.2-0.1,0.5-0.2,0.7v0.2c0.9,0.2,1.7-0.2,2.7-0.3
			C284.4,80.9,284,80.5,282.8,80.4z"/>
		<path fill="#C8F286" d="M302.3,35.1c0.3-0.1,0.7-0.1,1-0.2h0.3v-0.2c-0.4-0.3-0.3-0.3-1-0.3c-0.2,0.1-0.5,0.2-0.7,0.3
			C302.1,34.9,302.2,35,302.3,35.1z"/>
		<path fill="#C8F286" d="M280,198.1c0.1,1.3,0.5,1.9,1.4,2.4c0.3,0.1,0.7,0.2,1,0.3c0.5-0.2,0.9-0.3,1.4-0.5c0.5-0.6,1.1-1,0.7-2
			c-0.1-0.2-0.1-0.3-0.2-0.5c-1.1-0.1-2.3-0.2-3.4-0.3C280.6,197.7,280.3,197.9,280,198.1z"/>
		<path fill="#C8F286" d="M283.9,232c-0.4-0.3-0.4-0.4-1.2-0.5c-0.2,0.5-0.5,0.9-0.7,1.4v0.5c0.1,0.2,0.2,0.3,0.3,0.5h0.9
			C283.7,233.3,283.9,233.1,283.9,232z"/>
		<path fill="#C8F286" d="M142.3,74.8c0.1-0.2,0.1-0.3,0.2-0.5c-0.4-0.6-0.2-0.6-1.2-0.7c-0.1,0.8-0.2,0.7,0.3,1.2H142.3z"/>
		<path fill="#C8F286" d="M158.5,103.8c-0.1-2-1-3.2-2.2-4.1c-2.1,0.5-3.1-0.6-5.1-0.7c-0.9,0.7-1.5,1.1-1.7,2.6
			C147.9,105.9,156.8,107.5,158.5,103.8z"/>
		<path fill="#C8F286" d="M150.2,109.9v2.4c0.9,0.2,1.1,0,1.9-0.3c0.2-0.4,0.5-0.8,0.7-1.2c-0.1-0.2-0.2-0.5-0.3-0.7
			c-0.6-0.1-1.1-0.2-1.7-0.3C150.5,109.8,150.3,109.8,150.2,109.9z"/>
		<path fill="#C8F286" d="M96.1,196.1c0.2,0.2,0.4,0.5,0.8,0.7c0.3-0.3,0.7-0.7,1-1c0.1-0.3,0.1-0.7,0.2-1c-0.3-0.3-0.7-0.6-1-0.9
			c-0.3-0.1-0.6-0.1-0.9-0.2c-0.1,0.2-0.3,0.3-0.4,0.5c0,0.1,0,0.2,0,0.3c0.6,0.3,0.8,0.3,1.5,0h0.2c-0.1,0.5-0.2,0.9-0.3,1.4
			C96.9,195.9,96.5,196,96.1,196.1z"/>
		<path fill="#C8F286" d="M197.3,92.5c-0.7-1.2-0.1-1.5-0.3-2.9c-0.2-1.4-2.6-3.1-3.7-3.7c-1.5,0.5-3.4,2.7-4.8,3.6
			c-2.2,0.6-4.3,1.2-6.5,1.9c-0.9,0.6-0.9,2.2-2,2.7h-4.1c-5.9,1.3-6.3,0.8-10.4-2.2c0.3-3.7,3.6-5.1,7.8-4.9
			c1.7-1.8,3.7-4.8,4.6-7.3c0.7-2,0.6-4.6,2-5.8c1.2-1,9.5-1.7,11.4-1c1.5,0.7,3,1.5,4.4,2.2c2.3,0.5,4.2,0.5,6.8,0.5
			c0.6-0.9,1.1-1.7,1.7-2.6c-1.8-1.8-3.1,1-5.8,0.2c-0.1-0.1-0.1-0.1-0.2-0.2c-1.5-0.6-1.7-2.3-2.9-3.1c-2.7-1.6-5.5-1.9-7.5-4.1
			c0.4-2.7,3.1-3,4.1-5.3c-0.2-1.9-2.1-4.4-3.6-5.1c-1.5,0.6-6.7,1.3-8.9,1c-2-0.3-2.6-1.4-5.3-1.2c-2.6,3.7-12.4,11.7-17.2,4.8
			c-6.4,1.2-5.9-0.8-8.7-5.5c-0.8-0.1-1.5-0.2-2.3-0.3c0.4,0.9,0.9,0.7,1.3,1.5v1.5c-0.5,0.3-1,0.4-1.9,0.3
			c-0.1-0.1-0.1-0.1-0.2-0.2c0.1-0.6,0.1-1.1,0.2-1.7c-0.6,0.1-1.1,0.1-1.7,0.2c0.2-0.6,0.6-1.2,1.2-1.7c-5.5-0.2-10.3,0.7-12.9-4.1
			c-0.4-0.5-0.2-0.4-1-0.5c-2.2,1.8-4.5,2.3-4.4,6.5c4.3,3.9,10.9,3,16,0.3c0.1,0.2,0.2,0.5,0.3,0.7c-0.3,0.3-0.3,0.4-0.7,0.7
			c-0.1,0.2-0.2,0.3-0.3,0.5c0.1,0.1,0.1,0.2,0.2,0.3c0.6-0.3,1.1-0.6,1.7-0.9c3,1.9,1.2,5.5,2.4,9c0.7,2,3.7,2.3,2.9,5.8
			c-0.7,3.2-4.3,3.8-3.9,7.8c0.6,5.6,3.8,4,5.3,7.5c0.1,0.3,0.1,0.7,0.2,1c-0.4,0.2-0.8,0.5-1.2,0.7c-1.9,0.5-2.9-2.1-4.9-0.5
			c-0.2,0.1-0.3,0.2-0.5,0.3c1,2.4,1.9,4.8,2.9,7.2h0.5c0.9-1.4,1.7-2.8,2.6-4.3h0.2c0.1-0.1,8.6-2.2,8.7-2.2
			c1.9,1.5,2.7,5.1,3.7,7.3c0.4,0.2,0.8,0.3,1.2,0.5c1.4-0.1,2-0.6,2.7-1.4h0.7c0.4,1.6-0.3,2.8-0.5,3.9v3.6
			c-0.6,0.5-1.1,0.9-1.7,1.4c-0.5,0.9-1,1.8-1.5,2.7c-2,1.7-4,0.9-4.8,4.4c-0.3,1.6,1.6,3.9,0.9,6.6c-3.8,2.2-2.9,3.2-5.1,6.6
			c-0.7,0.2-1.5,0.3-2.2,0.5c-1.3-0.6-1.9-1.6-3.4-1.9c-1.6,1.3-1.9,3.6-4.3,4.3h-3.6c-0.9,0.7-1.7,1.5-2.6,2.2
			c-2.9,0.9-5-2.2-6.6,1c0.2,2.5,1.6,2.1,2.6,3.6c0.4,1.3,0.8,2.6,1.2,3.9c-0.3,2.4-2.4,2.1-2.9,3.9c-0.2,0.5-0.2,1-0.1,1.4
			c0.2,0.2,0.5,0.2,1.3,0.2c0.1,0.1,0.1,0.1,0.2,0.2c-0.1,0.2-0.1,0.5-0.2,0.7c-0.1,0.2-0.1,0.3-0.2,0.5h-0.7
			c0.4,1.1,1.1,2.3,1.1,3.7c-1.8,1.8-4.2,1.2-6.5,2.2c-3.9,2-3.1,18.4-11.4,15.7c-1.1-0.4-1.4-1.4-2.9-1.7c-1.3-0.3-4.8,4.8-6.6,5.8
			c-1.1,0.3-2.3,0.6-3.4,0.9c-0.5,0.6-1,1.2-1.5,1.9c-1.3,0.6-2.6,1.2-3.9,1.9c-0.9,1.6-1.7,3.3-2.6,4.9c-1.5,1.6-3,3.2-4.4,4.8
			c-0.7,1.3,0.1,2.8-1,3.9c-1.7,1.7-4.4,2-6.3,3.9c0.3,0.7,0.6,1.4,0.8,2c0.6-0.5,1.4-0.8,2-1.4h1c0.1,0.1,0.1,0.2,0.2,0.3
			c-0.6,1.3-1.4,2.3-2.8,2.8c0.7,5.6-7.2,1.5-9.4,5c-2.1,3.4-0.1,7.1-4.8,8.5c-0.1,0.2-0.2,0.3-0.3,0.5c1,0.8,4.4,0.8,6,0.3
			c2.8-0.8,4.3-3,6.6-3.9c1.4-0.1,2.8-0.2,4.3-0.3c1.1-1.4,2.3-2.8,3.4-4.3c-0.2-2.2-0.3-4.3-0.5-6.5c-0.8,0.3-1.6,0.7-2.2,1.3h-0.7
			v-0.7c0.5-0.3,1.7-0.9,2.8-1.5c-0.1-1.6-0.2-3.1-0.3-4.7c1.5-1.7,2.9-2.5,6-2.4c0,0,0,0,0.1-0.1c0.2-0.4,0.5-0.7,0.7-1.1
			c0,0,0,0,0,0c0.5-0.6,1-1.3,1.5-1.9c0.1-0.3,0.1-0.6,0.2-0.9c0.1,0.1,0.2,0.2,0.3,0.3c1.1-1.3,2.4-2.4,3.6-3.3
			c1.9,0.1,2.4,1,3.9,1.5c0.2-0.1,0.3-0.1,0.5-0.2c0.9-3.9-2.5-8,3.4-9c0.2,0.1,0.3,0.2,0.5,0.3c2.2,1.6-0.9,3.9-0.3,6.3
			c0.2,0.9,1.8,4.6,2.4,5.6c1.3,1.5,2.6,3.1,3.9,4.6c0.5,1.2,0.9,2.4,1.4,3.6c0.1,0.1,0.1,0.1,0.2,0.2c2,1.3,4.6-0.9,6.5-0.3
			c1.1,1,2.2,1.9,3.2,2.9v1c-1.4,1.4-4.1,1.6-5.4,3.1c-0.5,1.1-0.9,2.3-1.4,3.4c-1.4,1.4-3.7,0.7-4.6,2.7c-0.2,1,0.5,1.8,0.7,2.7
			c1,4.7-2,5.8-4.4,7.5c-1.2-0.8-2.4-1.6-3.6-2.4c-1.5-0.3-3-0.7-4.4-1c-1.8-1.1-3.3-2.4-5.4-3.4c-0.1-0.2-0.1-0.5-0.2-0.7
			c0.6-0.3,1.1-0.6,1.7-0.9v-0.7c-0.3-0.3-0.7-0.6-1-0.9c-0.3-0.1-0.7-0.1-1-0.2c-2.2,1.8-4.6,0.2-7.3,1.5c-2.4,1.2-6.8,5.6-8.2,8
			c0.1,0.2,0.1,0.3,0.2,0.5c1,0.5,2.1,0.2,3.6,0.5c2.5,0.5,3.8,2.6,5.3,4.3c-0.1,0.5-0.2,0.9-0.3,1.4c-1.4,1-3.3,0.7-5.1,1.5
			c-2.6,1.1-4.7,2.8-8,3.4c-2.7,0.5-3.2-1-5.3-1.2c-1.1,1.2-0.2,1.2-0.9,2.9c-0.6,0.6-1.2,1.2-1.9,1.9c-0.9,2.7,0.1,4.7,0.6,6.4
			c2.1-0.9,4-1.7,5.4-1.9c0.1,0.1,0.2,0.1,0.3,0.2v0.2c-1.8,1-3.6,2.1-5.5,3.1c0.1,1.4-0.6,2.7-3,4.3c-1.5,1-3.1,0.7-4.8,0.3
			c-0.3,0.5,0.2,0.7,0.5,1.5c-1.1,1-1.9,1.7-3.9,1.7c-0.1,0.1-0.1,0.1-0.2,0.2c0.2,0.5,0.5,1,0.7,1.5c-0.1,0.3-0.1,0.7-0.2,1
			c-0.8,0.2-1.6,0.3-2.4,0.5c0,0.1,0.1,0.2,0.1,0.3c0.1,0.3,0.3,0.5,0.5,0.7c1.8-0.3,4.4-1.9,6-2.2c1.5-0.3,1.8,0.6,3.6,0.7
			c0.1-0.5,0.2-1,0.3-1.5c1.1-0.3,2.4-0.5,3.7-0.8c0.2-0.3,0.4-0.7,0.6-1c0.5-2-1.4-3.4,0.2-6c2.1-3.5,6.4-2.3,9.5-4.8
			c0.8-0.7,0.4-1.8,0.9-2.9c1.9-5.2,5.2-3.8,8.5-1.4c-0.6,1.6-1.8,1.7-1.9,3.9c1.8,0.3,3.5,0.7,5.3,1c1.6,0.7,3.2,1.5,4.8,2.2
			c0.9-0.1,1.8-0.1,2.7-0.2c1.7,0.7,1.3,2.1,2.2,3.6c1.8,2.9,4.9,3.9,6.4,7.7c0.6,0,1.3,0,1.9-0.1c0.8-1.4,1.1-3.2,2.4-4.1
			c2.4-1.5,4.1-1.7,5.1-4.2c-0.4-0.2-0.7-0.5-0.9-0.9c-1.1-2-1-4,0.7-5.1c0.9,0.1,1.6,0.4,2.3,0.8c0.1-0.2,0-0.3,0-0.7
			c0.6-0.1,1.1-0.2,1.7-0.3c0.1,0.1,0.1,0.1,0.2,0.2c-0.1,0.6-0.4,1.1-0.7,1.6c1,0.7,2,1.4,3.3,1.9c0.1,0.4,0.1,0.8,0,1.1
			c0.9-0.3,1.8-0.6,2.3-0.8c0.7-0.4,1-1.6,1.2-2.4c0,0,0,0,0,0c-0.3-1.1-0.8-2.2-1.3-3.3c-1.7-2.4-7.4-1.7-6.5-6.3
			c0.3-0.7,0.6-0.9,1.4-1.2c1.7,0.7,2.4,2,3.7,3.1c5.3-0.7,0.6-8.2,10-5.5h0.2c1.2-2.2-1.4-5.3,1.9-6.6c0.5-0.1,0.9-0.1,1.4-0.2
			c0.4,0.7,0.5,1.7,0.7,2.7c0.2,0.2,0.5,0.3,0.7,0.5c0.6-0.1,0.5-0.1,0.9-0.3c1.3-0.9,0.9-2.1,2.7-2.7c1-1.7,0.5-4.9,2.2-6.3
			c2.8-2.4,8.4,0.5,12.3-1c0.7-0.5,1.4-1,2-1.5c1.1,0.1,2.2,0.1,3.2,0.2c0.2-0.1,0.3-0.1,0.5-0.2c0.4-2-0.3-3-0.3-5.3
			c1.7-1.8,3.5-3.6,4.1-6.5c0.5-0.3,0.6-0.5,1.5-0.5c0.8,0.8,0.7,1.4,1.4,2.6c1.9,3.2,6.2,5.4,7.8,8.9c0.9,2.3-1.4,2.3-1.7,3.7
			c-0.3,1.6,0.3,5.9,0.9,8.2c1.7-0.3,4-1.1,5.2-1.5c0.2,0.5,0.3,1,0.5,1.5c0.2-0.1,0.5-0.1,0.7-0.2c0.4-1.5,1.1-2.3,1-3.9
			c-1.8-1.1-3.4-1.6-4.3-3.6c-0.1-0.6-0.1-1.1-0.2-1.7c0.9-0.4,2-0.1,3.1-0.3c0.2-0.9,0.4-1.7,0.7-2.4c-0.1-0.1-0.2-0.2-0.3-0.3
			v-0.7c0.2-0.2,0.5-0.5,0.7-0.7c0.1,0,0.2,0,0.3,0.1c1.3-2.3,3.1-3.4,4-6.1c0.9-2.5-1.5-4.8-0.9-7.5c0.9-3.7,5.5-13.7,7.7-16.5
			c-0.4-1.7-1.3-3.3-1.7-5.3c-0.2-1.1-0.4-2.1-0.5-3c-2.5,1.4-7.7,3.3-7.8,3.3h-0.3c-0.1-0.3-0.1-0.7-0.2-1c0.2-1.9,1.2-2.2,1.5-3.4
			c0.8-2.6-1-3.9-1.2-5.8c0.5-0.4,0.9-0.8,1.4-1.2c0.6-0.4,2-0.2,2.7-0.5c0.5,0.1,1,0.1,1.5,0.2c0.5,0.2,1.1,1,1.7,2
			c-0.4-2.3-1.4-4.1-4.1-5.9v-0.7c0.1-0.1,0.2-0.1,0.3-0.2c0.3,0.3,0.7,0.6,1,0.9c0.4-0.5,0.6-1.9,0.9-2.4c1,0.3,1.3,0.9,2.4,0.3
			c0.5-0.3,0.6-0.5,0.9-1c-0.7-0.8-1.9-1.1-2.7-1.7c0.3-1.2,0.7-2.4,1-3.5c-3.3-0.7-6.3-2.3-8.1,1.3c-0.5,1.3,0.8,2.2,0.3,3.7
			c-0.5,0.6-1,1.2-1.5,1.9c-0.2,1.2-0.5,2.4-0.7,3.6c-0.9,1.4-1.8,2.7-2.7,4.1c-1,2.1-0.3,5.1-0.9,7.3c-0.5,0.5-0.9,1-1.4,1.5
			c-2.6,0.5-3.9-1.5-6.1-1c-1.8,0.4-2.6,1.7-5.1,1.7c-1.3-4.8-2.8-2.4-4.3-5.1c-0.1-0.3-0.1-0.6-0.2-0.9c0.9-1,1.6-1.3,3.2-1.5
			c1.2-2.1-1.4-3.6-0.9-5.6v-0.3c1.4,0.2,2.4,1.1,3.9,0.5c0.8-0.3,1-0.6,1.5-1.2c-0.6-4.1-2.6-8.1-4.1-11.4
			c-0.1-1.1-0.2-2.2-0.3-3.2c-0.4-1.4-2.6-2.3-2-4.4c0.4-1.6,2.1-3.3,3.6-3.9c0,0,6,2,6.1,2c1.6,1,2.1,2.8,4.4,3.2
			c1.1-0.2,2.3-0.5,3.4-0.7c2.6-0.1,3,0.5,5.1-0.7c0.2-1.7-0.7-2.6-1.2-3.9c-0.3-1.6-0.7-3.3-1-4.9c-0.8-1.9-4.7-3.7-6.5-4.8
			c0.1-1.2,0.4-1.7,0.9-2.6c-0.3-2.1-2.3-3.4-4.1-4.1c-2.6,0.2-2.7,2.2-3.6,4.1c-1.6,0.3-3-0.2-4.6-0.3c-3.6-5-2.8-6.7,0.5-11.1
			c0.4-1.4-1.5-2.8-0.7-4.1c1.5-2.5,6.7-1.3,9.7-1.7c1.5-0.2,3,0.5,4.4,0.2c3.4-0.7,8.8-3.2,12.8-1.9c1,0.8,1.9,1.6,2.9,2.4
			c0.5-1.1,0.9-2.3,1.4-3.4c2.2-2.9,5.1-3.8,5.6-8.7c-0.6-0.5-1.1-1-1.7-1.5H197.3z M174,76c1.4,0.5,2.4,0.8,3.2,1.9
			c-0.5,0.9-1.4,1.5-2.6,1.2c-0.7-0.3-0.9-0.5-1.2-1.2c-0.1-0.5-0.1-1-0.2-1.5C173.5,76.2,173.8,76.1,174,76z M162.6,64.8
			c1.9,0.5,2.6,2.1,4.3,2.6c1.9,0.5,3.3-0.6,5.1-0.2c1,1.7,1.1,4.9,1,7.5c-0.7,0.5-1.6,1.2-3.1,0.9c0,0-10-7.1-10.2-7.3
			C160.4,66.3,161,65.7,162.6,64.8z M165,83.5c-0.8,0.3-4.1,0.1-5.1-0.2c-0.3-1.1-0.3-1.5,0-2.6c0.4-0.3,0.8-0.6,1.2-0.9
			c1.8,0.4,4.1,1,4.4,3.1C165.2,83.3,165.3,83.3,165,83.5z M116.4,179.6c-0.3,0.5-0.4,0.6-0.9,0.9h-1c0.2-1.2,0.8-1.6,2-1.7
			C116.5,179.1,116.4,179.3,116.4,179.6z M95.3,237.8c-0.5-0.7-1-1.4-0.7-2.6c0.2-0.3,0.5-0.6,0.7-0.9c1.5,0.1,2.2,0.7,2.4,2.2
			C97.2,237.5,96.7,237.8,95.3,237.8z M120.5,237.2c-0.8,0.5-1.2,0.5-2.4,0.3c-0.1-0.2-0.2-0.3-0.3-0.5c0.5-0.5,1.5-0.6,2-1h0.9
			c0.1,0.2,0.1,0.3,0.2,0.5L120.5,237.2z M145.6,129h0.9c2.5,2.3,2.8,5.9,4.3,9.4c0.6,1,1.1,1.9,1.7,2.9c0.4,1.5-1.2,3.3-1.9,3.9
			c-1.1,1-5.3,1-6.6,1.2C139.7,142.4,142.7,132.6,145.6,129z M137.7,179.1c-0.2,0.1-0.5,0.2-0.7,0.3c-0.3,0.1-0.6,0.1-0.9,0.2
			c-0.3-0.2-0.6-0.5-0.9-0.7c0.1-0.3,0.1-0.6,0.2-0.9c0.2-0.2,0.3-0.5,0.5-0.7c0.4,0.1,0.8,0.1,1.2,0.2
			C137.6,178.1,137.7,178.1,137.7,179.1z M134.6,142.5c0.3,0.1,0.7,0.2,1,0.3c0.2,0.1,0.3,0.2,0.5,0.3c-0.1,0.2-0.1,0.3-0.2,0.5
			c-0.6,0.2-1.1,0.3-1.7,0.5C134.4,143.6,134.5,143.1,134.6,142.5z M122.5,170.8h0.3c-0.2,0.9-0.5,1.1-1.4,1.4
			c-0.5-0.5-0.6-0.6-0.7-1.5C121.4,170.7,121.9,170.7,122.5,170.8z M120.1,173.7h0.9c-0.2,1-0.3,1.4-0.2,2.4
			c-0.1,0.1-0.2,0.1-0.3,0.2c-0.3-0.1-0.6-0.2-0.9-0.3l-0.5-0.7C119.4,174.7,119.8,174.2,120.1,173.7z M118.1,179.3
			c-0.1-0.2-0.2-0.3-0.3-0.5c1.5-0.9,2.7-1.1,3.6-2.7c0.2,0.1,0.3,0.2,0.5,0.3C121.7,178.8,120.6,179.8,118.1,179.3z M146.9,200.5
			c-9,2.3-10.6-8.1-15.1-11.1c-1.3-0.1-2.6-0.1-3.9-0.2c-0.9-0.7-1.7-1.4-2.6-2c-0.3-0.1-0.7-0.1-1-0.2c-0.7,1-1.2,2.1-2,2.9
			c-2.1-0.2-3.1-1.7-3.1-4.1c3.2-3.7,7.4-4.6,12.1-7c2.9,0.5,3.4,3.1,5.4,4.4c0.9,0.3,4.8,0.6,5.8,0.7c0.9-0.9,1.7-1.8,2.6-2.7
			c0.2,0.1,0.5,0.1,0.7,0.2c1.3,0.9,3.1,9.3,3.1,11.8c-0.8,0.6-1.9,1.2-2.4,2C145.9,196.7,147.2,198.5,146.9,200.5z M156.5,201.9
			c-1,0.3-1.5,0.3-2.4,0c-0.1-0.2-0.1-0.3-0.2-0.5c0.3-0.5,0.6-0.6,1-1c0.5,0.1,1,0.1,1.5,0.2c0.1,0.1,0.2,0.2,0.3,0.3
			C156.7,201.2,156.6,201.5,156.5,201.9z M160.4,203.4c-0.5,0.7-0.6,1.1-1.5,1.4h-0.2c-0.4-0.6-0.6-0.6-0.7-1.7
			c0.3-0.2,0.7-0.5,1-0.7c0.8,0.2,0.9,0.4,1.4,0.9V203.4z M182.9,211.1c-0.2-0.1-0.5-0.2-0.7-0.3c0.1-0.1,0.1-0.2,0.2-0.3h0.5V211.1
			z M177.6,182.6c1.1-0.6,2.2-1.1,3.2-1.7c1.4,0.5,2.7,0.9,4.1,1.4c0.1,0.3,0.1,0.6,0.2,0.9c-1.8,1.8-4.2,4.1-7.5,2.4
			C177.3,184.4,177.3,183.7,177.6,182.6z M169.7,188.8c2.8,0.2,6.4,2.4,6.5,5.5c-2.1,2.1-7.6,1-9.2-1.2
			C167.3,191,168.6,189.9,169.7,188.8z M167.3,173.1c0.4,2.1-4.4,9.3-6,10.2c-0.7,0.1-1.5,0.2-2.2,0.3c-1.9,0.9-3.1,3.4-3.7,5.6h-1
			c-1-1.6-3.4-3.8-3.1-6.5c0.4-3.2,4.8-5.1,6.3-7.5c0.5-1,1-2,1.5-3.1c0.7-0.2,1.4-0.5,2-0.7c0.2-0.3,0.3-0.7,0.5-1
			c-1.3-2.8-4.7-3.4-8.7-2.6c-0.4,0.8-0.2,1.5-0.5,2.4c-1.2,2.2-6,3.3-9.4,3.2c-3.5-3.7-1.2-8.8,2.2-11.2c3.3,0.2,3.9,2.4,6.3,2.9
			c0.9-0.7,1.3-1.6,2.2-2.2C157.3,163.3,166.5,170.4,167.3,173.1z M171.6,127.3c0.2,0.1,0.5,0.1,0.7,0.2c0.2,0.1,0.3,0.2,0.5,0.3
			c-0.1,0.2-0.1,0.3-0.2,0.5c-0.8,0.4-1,0.4-1.5-0.3C171.3,127.7,171.4,127.5,171.6,127.3z"/>
		<path fill="#C8F286" d="M443.8,185.7c-0.3-0.1-0.6-0.1-0.9-0.2c-0.5,0.4-0.9,0.8-1.4,1.2c-0.7,2.6,0.2,4.5,1.4,6.1
			c1.7-0.4,2.4-2.1,3.1-3.6C445.9,187.7,444.9,186.2,443.8,185.7z"/>
		<path fill="#C8F286" d="M196.6,76.5c-1.8,1.6-3.7,3.2-4.9,5.5c0.1,0.9,0.1,1,0.7,1.4c0.7,0.5,1.2,0,2.4,0c4.1,0.1,3.4,0.7,6.1-1.7
			c0-2.1-1-4.3-2.4-4.9C197.9,76.6,197.3,76.6,196.6,76.5z"/>
		<path fill="#C8F286" d="M439.1,243.3c3-0.5,6.7-2.4,7.8-4.8c0.1-0.3,0.1-0.6,0.2-1c-0.6,0.1-1.3,0.1-1.9,0c0,0-0.1,0-0.1,0.1
			c-0.1,0-0.2-0.1-0.2-0.1c-0.2,0-0.4-0.1-0.6-0.1c-3.1-1.1-3-6,0-7.2c-0.1-0.1-0.2-0.3-0.3-0.4c0.1-0.1,0.2-0.1,0.3-0.2
			c0.1,0.1,0.2,0.1,0.4,0.2v-0.8c-0.1-0.1-0.2-0.2-0.3-0.3c-0.2-0.1-0.3-0.1-0.5-0.2c-1.2,1.2-2.8,1.5-4.1,2.6
			c-2.4,1.9-1.9,4.9-6.3,4.6c-0.5,1.6-0.2,3.3,0.2,4.8c-0.4,0.3-0.8,0.7-1.2,1c0.2,0.7,0.4,1.2,0.7,1.7c0.1-0.2,0.1-0.4,0.2-0.6
			c0.9-0.5,0.9-0.2,1.9,0.3c0.6-0.2,1.1-0.3,1.7-0.5c0.6-1,0.1-1.6-0.5-2.7C437.5,238.5,438.5,242.3,439.1,243.3z"/>
		<path fill="#C8F286" d="M460.4,189.2c-5.1-11-22.2-13.4-38.6-13.1c-2.9,3.1-3.1,12.9-10.9,8.5c-0.1-0.1-0.2-0.2-0.2-0.3
			c-0.5,1.2-1,2.3-2.1,3c-0.6-0.3-0.7-0.5-1-1h-0.3c-0.3,0.2-0.6,0.5-0.9,0.7c-0.1,0.2-0.1,0.3-0.2,0.5c3.7,2.2,4.7,2.9,7.7,5.8
			c2.2-0.5,3-1.8,6.1-1.7c0.3,1.3-0.5,2.2-0.9,3.4c-3,11-10,2.4-14.5-0.5c-1.5,0.2-1.7,1.2-3.1,1.5c-1.8,0.4-3.3-0.6-4.6-0.9
			c-1.5-0.3-2.5,0.6-4.1,0.2c-1.2-0.7-2.5-1.5-3.7-2.2c-2.5-1-5.1-1.3-7.1-2.4c-2.6,1.4-11,5.6-15.5,4.4c-3.2-0.8-3.7-6.5-0.2-7.3
			c0.3-0.7,0.5-0.9-0.2-1.4c-2.5-1.2-6.3,7.1-10.7,6.8c-0.7,1.7-0.2,3,0,4.9c-0.3,0.3-0.7,0.6-1,0.9c0.4,2,2.8,5.2-0.2,6.3
			c-1.9,0.7-4.4-1.3-5.8-2c-1.9,0.2-2.4,1.1-3.9,1.5c-1.8,0.4-3.6-3.4-2.4-5.3c0.4-0.6,5.8-5.4,6.5-5.6c2-0.5,3.3,1.9,4.4,0.5
			c2.2-2.8-0.7-8.3,0-10.7c0.5-1.6,2.6-2.8,3.4-4.4c0.2-0.1,0.5-0.1,0.7-0.2c0.7,1.2,1.5,2.5,2.2,3.7c3.5,1.4,8.1-7,11.1,0.3h0.7
			c1-3.3,1.9-8.1,5.4-9c0.1-0.2,0.1-0.3,0.2-0.5v-0.2c-3.2-0.9-4.3-2.7-7.1-3.7c-0.5-0.9-0.3-1.1,0.7-1.7c3.2,0.2,4.2,1.9,6.8,2.4
			c-0.5-1.9-2.9-2.8-4.8-3.2c-0.2-0.4-0.5-0.8-0.7-1.2c0.8-1.2,2.3-1.4,2.9-2.7c1.7-3.6-0.9-8.9-4.1-8.7c-2,0.1-3.9,2.2-6.1,1.4
			c-2.3-0.9-2.1-2.6-2.7-5.3c-1.1-4.7-1.9-7.4,1.9-10.7c1-0.9,2.6-0.4,3.4-1.7c0.8-2.1-1.6-3-1.2-4.6c1.6-0.4,3.6,0.1,5.3-0.5
			c0.7-0.7,1.4-1.4,2-2c1.6-1.1,3.2-0.9,5.3-1.7c1.4-0.6,1.9-1.7,3.7-2c1.3,0.8,1.6,1.4,2.2,2.9h0.7c1.3-1.6,2.9-3.1,6.3-2h2.2
			c-0.8-2.4-1.6-4.9-2.4-7.3c-0.3-2.6-0.6-5.2-0.9-7.8c-1.5-2.7-3-5.3-4.4-8c-1.8,1-5.5,2.6-8.7,1.9c-0.9-0.2-1.6-1.1-3.1-0.9
			c-3.2,0.6-5,2.7-7.1,4.3c-0.8,0.6-2.5,0.7-3.4,0.2c-1.7-0.8-2.4-3.7-2.6-6c-1.1-0.7-3.8-0.5-4.6-1.5c-0.3-0.8,0.2-1.3,0.5-2
			c-0.7-0.8-2-0.9-2.7-1.7c-0.3-1.5,0.2-1.9,0.5-3.1v-0.2c-0.7,0-1.1,0.6-1.9,1c-0.5-0.3-0.6-0.3-0.9-0.9v-1.4
			c1.7-3.2,4,0.2,2.2-4.8c-0.4-0.2-0.8-0.3-1.2-0.5c-1.4,1.1-3.9,2.4-4.4,4.3c-0.1,1.7-0.1,3.4-0.2,5.1c-0.7,2.1-3.4,4.4-4.4,7.2
			c1.1,1.7,2.2,3.4,3.2,5.1c2.9,2,5.1,2.5,3.6,7.5c-4.9,2.2-4.8-9.7-7.8-11.6c-4.7-2.8-6.8,1.5-10.4,0.9c-4.4-0.8-4.3-3.2-6.3-6.3
			c-0.8-1.3-2.7-1.1-3.1-2.9c1.1-0.7,2.2-1.5,3.2-2.2c0.7-0.9,0.2-1.6,0.7-2.9c0.6-1.8,4-3.7,6.1-4.1c2.2-0.4,4,1.6,6.6,1
			c0.2-0.3,0.5-0.7,0.7-1c-0.1-2.6-1.9-2.6-2.4-4.9c0.2-0.1,0.3-0.2,0.5-0.3c2.4-0.6,4.6,2.7,7.3,2.9c2.3-2.3,0.5-2.9,1.7-5.5
			c1.6-3.6,6.2-5.3,10.7-5.8c2.2,5-1.9,8.7-2,12.3c6.9,7.2,5.5-1.4,11.1,0.9c3.4,1.4,1.2,5.9,6.3,6c1.1-1,1.7-2.1,2.4-3.6
			c-0.1-3-1.6-3.2-2.7-4.9c-0.4-0.7-0.6-1.4-0.8-2.1c-1-0.3-2-0.7-3-1.1c-0.3-0.2-0.6-0.4-0.9-0.6c-0.3,1.6-1.2,2.9-2.9,3.4
			c-4.4-1.6-4.6-5.1-3.1-8.2c-0.9-3-2.3-5.8-3.4-8.6c-0.7-1.9-1.5-3.7-2.2-5.6c-1.9-0.8-3.2-0.8-5.2-1.6c-3.1-1.2-6.6-4.1-10.2-4.9
			h-4.1c-1.1-0.2-2.2-0.3-3.2-0.5c-7.8,1.6-8,5.1-13.1,7.8c-2.3,1.2-5.9,0.1-7.8,1c-0.9,0.4-0.7,1.3-2.2,1.5c-0.3-0.1-0.7-0.2-1-0.3
			c-0.4-1.1-0.8-2.2-1.2-3.2c-1-0.3-2-0.7-3.1-1c-0.6-0.6-1.1-1.1-1.7-1.7c-1.1-0.4-3.2-0.1-4.4-0.5c-1.1-0.5-2.2-1-3.2-1.5
			c-1.2,0.1-2.5,0.1-3.7,0.2c-0.7-1.1-0.4-2.9-1.7-3.6h-3.7c0.4,1.3,1.1,1.2,1.7,2c0.3,1.5,0.6,3,0.9,4.4c0.5,2.9-1.8,4.1-2.4,6v2.9
			c-0.6,3-1.9,4.5-2,8.2c1.1,1.1,2.4,1.5,3.2,2.9c0.3,1,0.7,1.9,1,2.9c1.6,2.2,4.7,3.7,6.8,5.5c0.7,0.9,1.5,1.8,2.2,2.7
			c0.7,0.1,1.4,0.2,2,0.3c1.6,0.8,2.1,2.5,4.3,3.1c2.6,0.7,3.7-0.9,6.1-1c3.2-0.1,5.7,0.6,8.3,0c1-0.5,1.5-1.5,2.2-2.2
			c1.3,0.1,1.7,0.8,1.7,2.2c-0.9,0.9-2.5,1.6-3.1,2.7c-0.4,1.1,0.3,1.5,0.5,2.6c-1.6,1.7-3.2,3.4-4.8,5.1h-3.1
			c-0.7,0.2-1.2,1.1-2.6,0.9c-1.8-0.3-2.3-1.5-4.9-1.5c-0.5,0.6-1,1.1-1.5,1.7c0.1,0.2,0.1,0.3,0.2,0.5c0.1,0,0.1,0,0.2,0.1
			c0.4-0.5,0.9-1,1.5-1.5c0.2,0.1,0.5,0.1,0.7,0.2c0.4,0.4,0.8,1.3,1.1,2.3l0.7,0.2c1.3,0.8,2.6,1.6,3.9,2.4c1.9,0.5,2.4-1.3,3.7-1
			c2.6,1.5,0.8,10.9,0,14v0.2c2.2,0.9,3.4,0.7,4.3,3.6c-0.7,2.2-1.5,2.9-3.4,3.7v0.5c0.4,0.6,0.8,1.2,1.2,1.9c0.3,0.2,0.7,0.3,1,0.5
			c1.9-1,4.7-5.5,7.8-3.7c1.4,0.6,2.3,2.2,2.4,4.1c-0.9,2-3.8,3.4-5.4,4.6c-0.4,1.4-0.2,2.6,0.2,3.9c0.3,0.2,0.7,0.5,1,0.7
			c1.9-0.2,4.2-0.5,5.1-1.7c0.3-1.7-0.6-3.8,0-5.5c2.2-3,4.4-5.9,6.6-8.9c1-0.6,1.7,0.2,2.9-0.2c0.6-0.7,1.2-1.4,1.9-2
			c1.2-0.8,6.2-3,7.8-3.1c0.7,0.7,1.5,1.4,2.2,2c0.8,0.6,1.9,0.2,2.7-0.2c0.3,0.1,0.6,0.2,0.9,0.3c1.3,1.9-0.7,2.1-0.2,4.1
			c0.5,0.6,0.9,1.2,1.4,1.9c1.3,4.6-3.2,4.9-4.6,6.8c-1.1,1.6-1.7,3.8-2.2,6c-1.4,0.7-3.1-0.1-4.8,0.3c-2.4,0.7-5.6,6.1-6.6,8.3
			c-0.7,1.9,1.2,4.2,1.9,5.6c-1,2.8-2.7,3.1-4.6,4.9c-1.1,1.4-2.2,2.8-3.2,4.3c-1.4,0.8-2.3,0.2-3.2,1.4c-0.2,1.3,0.4,2.1,0.7,3.4
			c3.7,0.9,4.1,1.5,5.8,4.3c-0.1,1.5-0.6,2.4-1.7,2.9c-0.3,0.9,0.7,2.4,0.7,4.4c-2.6,2.8-5.6,0.3-7-2.6c0.7-2.8,1.4-5.7,2-8.5
			c-2.9,0.1-3.5,1.9-5.6,2.4c-1.7,0.4-2.5-0.5-3.9,0.2h-0.3c-1.6,1-2.2,3-4.4,3.4c-1-0.9-2-1.8-3.1-2.7c-4.1-1.2-11.9,1.3-13.8-2.2
			c-0.1-0.5-0.1-0.9-0.2-1.4c1.9-1.1,2.5-2.7,2.9-5.3c-0.1-0.2-0.1-0.3-0.2-0.5c-3.4-2.2-6.4,0.1-8.3-4.1c-0.8,0.3-1.6,0.6-2.4,0.9
			c-0.2,0.5-0.5,1-0.7,1.5c1.4,2.5,2.8,4,1.7,7.5c-3.9,2.2-4.6-1.2-3.6,4.1c-0.7,0.9-2,0.6-2.6,1.7c-0.4,1.2,0.6,1.8,0.5,3.2
			c-0.2,0.8-0.5,1.6-0.7,2.4c-0.5,2.6,0.1,5.3,0,7.5c0.7,0.3,1.4,0.6,2,0.9c0.8,1.3,0.5,3.7,1.2,5.3c0.7,1.8,2.6,2.6,3.4,4.6
			c-0.2,2.1-1.3,1.6-2.6,2.6c-0.6,0.7-1.1,1.5-1.7,2.2c-3.1,1.5-8.9,0.3-12.1-0.2c-0.8-1.4-2.3-4.8-1.7-7.2c0.4-1.6,3.2-3.3,2-5.1
			c-0.7-0.9-2-0.6-3.1-1.2c-0.9-0.9-1.7-1.7-2.6-2.6c-1.7-0.8-3.6-1.1-5.5-1c0.4,0.5,0.7,1,0.8,1.4c0.9,0.1,1.2,0,1.7,0.5
			c-2.3,2.7-5.8,6.8-0.9,9.5c-1.7,7.1-2.3,12.2-7.1,15.8c-0.3,0.2-0.5,0.3-0.8,0.5c0.6,4.8,1.7,15.8,1.7,15.8
			c-0.8,2.1-2.6,2.5-4.1,3.9c0.2,1.4,0.7,2.3,1.5,3.1h0.2c2.5-2.7,3-6.5,6.1-8.7c2.2,0.8,11.8,4.2,14.8,1.7c1-0.8-0.1-8.9,5.8-6.6
			c2.1,1.2,1,3.3,2.2,5.5c1.1,1.8,3.4,3.6,4.6,5.6c-0.2,2.8-0.3,5.7-0.5,8.5c0.7,2.3,5,7.2,5.8,9.7c0.4,1.3-0.2,2.4,0.5,3.2
			c0.2,0.3,0.5,0.5,0.8,0.7c1.5-1.2,3-2.5,4.5-3.7c2.2,0.4,3.7,0.7,5.8-0.2c0.2,0.1,0.3,0.2,0.5,0.3c0,7-5.3,9.4-7.7,14.3
			c-0.1,1.2-0.2,2.5-0.3,3.7c-8.3,1.9-16.6-0.7-24.2-1.7c-3.6,0.5-7.2,1-10.7,1.5c-1.8,0.3-3.5,0.6-5.3,0.9
			c-1.5,1.1-1.9,8.1-2.7,10.2c-0.2,0.1-0.5,0.1-0.7,0.1c0.5,1.3,1.2,2.2,4,3.2c3.7-0.2,2.6-2.8,3.4-5.5c0.1-0.2,0.2-0.3,0.3-0.5
			c0.3,0.1,0.7,0.2,1,0.3c0.1,0.1,0.2,0.1,0.3,0.2c-0.1,3.6-0.5,5.5,1.4,8c0.8,1.1,2.3,1.6,2.7,3.1c0.3,3.7,0.7,7.5,1,11.2
			c0.4,2,1.6,4.6,1,6.5c-0.7,2.2-2.7,2.6-4.1,4.1c0.2,1.3,0.6,2.1,1.2,2.9h0.7c2.2-2.3,2.5-7.9,6.3-8.5c1.5,0.7,4.8,1.9,8,2.4
			c0.6-2.6,1.1-5.3,1-8.6c0.1-0.1,0.2-0.1,0.3-0.2c0.8,0.9,1.6,1.7,2.4,2.6c2.4-1,4.8-2,7.1-3.1c5.4-2,13.6-2.2,18.7,0.2
			c1.9,0.9,2.6,3.4,4.4,4.4c0.9,0.5,2.3-2.1,3.1-2.9c4.7,0.9,9.4,1.7,14.1,2.6c0.5-0.5,0.9-1,1.4-1.5v-0.2c-0.3-2.1-2-2.8-2.7-4.4
			v-0.2c2.5-0.3,5-0.6,7.5-0.9c5.7-1.2,11.2-2.2,17.2-2.6c0,0,0,0,0,0c0.9-0.9,1.7-1.8,2.6-2.7v-0.7c-0.5-0.3-1-0.7-1.5-1
			c-0.8-0.3-1.7-0.2-2.5,0c0.2,0.2,0.3,0.3,0.5,0.5v0.5c-0.6-0.1-1.2-0.3-1.7-0.6c-1.1,0.3-2.2,0.6-3.3,0.4
			c-3.1-0.5-5.6-1.8-7.5-3.6c-3.7,0.9-11.3,17.6-18.9,8.7c-2.6,0.7-3.9,3.5-6.8,3.7c-4.7-4.6,0.8-12.9-1.7-19.4
			c0.9-1.4,1.9-2.8,3.2-3.7c0.1-0.2,0.1-0.3,0.2-0.5c-0.9,0.3-1.8,0.7-2.7,1c-4,0.8-7.8-1.4-11.9-1c0.6-5.5,14-8.4,18.9-10.6
			c0.6,0.1,1.2,0.1,1.9,0.2c1.8,1.1,0.9,5.4,1.7,7.2c0.7,0.8,2.2,0.6,3.2,1c1.8,0.7,4.3,2.9,4.8,4.9c-0.2,0.7-0.3,1.5-0.5,2.2
			c0.2,1,1,1.1,1,2.9c-1.9,2-3.9,4-5.8,6c-1.4,1.1-3.3,1.8-4.3,3.4v0.5c4.7-0.8,9.3-4.3,10.4-8.9c3-0.3,8,1.4,10.7-0.2
			c2.5-1.5-1.4-7.4,6.1-7c0.6,1,1.2,2,1.9,3.1c0.1,0.9,0.2,1.8,0.3,2.7c1,1.6,2.7,2.1,3.4,4.3c0.2,0.1,0.3,0.1,0.5,0.2
			c0.7-1.6,1.4-3.2,2-4.8c0.1-0.1,5.8-2.9,5.8-2.9c0.7,0.6,1.4,1.2,2,1.9c1.5,0.5,2-0.7,3.1,0.2c0.5,0.3,0.4,0.1,0.5,0.9
			c-0.8,1.4-2.2,3.2-3.9,3.7c-0.1,0.1-0.1,0.2-0.2,0.3h3.1c0.1,0.1,0.2,0.2,0.3,0.3v0.7c-1.1,1.2-2,2.6-3.4,3.5
			c0.5,0.1,1.1,0,1.6-0.2h0.2c0.9,1.2,0.7,1.6,0.3,3.2c3.4,3.2,12.6-4,18.6-3.1c1.3,0.2,2.7,0.4,4,0.6c-0.4-4.4,0.9-11.3,1.7-13.8
			c0.7-2.3-0.4-5-0.5-6.8c7.8,0.5,6.6-2,11.9-4.3c5.1-2.1,10.9-4.9,16.5-6h0.2c0.9,3.2-0.2,6.5-1.9,7.7c-3.6,0.7-5.6,0.9-8.2,2.2
			c-0.1,0.1-0.1,0.2-0.2,0.3c0.3,1.4,1.4,1.8,1,3.4c-1.2,2.6-4.9,5.8-7.1,7.3c-0.9,0.5-1.7,1-2.6,1.5c-0.7,1.2-1.5,2.4-2.2,3.6
			c-0.8,2.4,0.4,4-1.2,5.5c-0.1,0.1-0.3,0.3-0.6,0.5c3.1,0.9,6.2,1.8,9.2,2.6c5-1,8.3-4.8,12.6-6.6c1.5-0.6,3.3-1.1,5.1-1.4
			c-1.4-1.3-2.3-3.1-3.5-4.9c-1.6-1.2-3.2-2.5-4.8-3.7c0.1-0.5,0.2-0.9,0.3-1.4c0.3-0.7,0.6-0.8,1.2-1.2c5.8,0.8,5.2,2.4,8.9,3.7
			c1.6,0.3,3.7-1.5,5.3-1.9c1.6-0.4,3-0.2,4.3,0.1c3-1.9,6.8-3.3,9.9-4.6c0.1-1.5,0.1-3,0.2-4.4c0.4-0.7,1.4-1,2.2-1.2
			c0.2-0.4,0.3-0.6,0.3-1.4c-0.7-0.3-1.5-0.6-2.2-0.9c-0.2-0.2-0.3-0.5-0.5-0.7c0.9-0.8,1.8-1.6,2.7-2.4v-1
			c-0.2-0.1-0.5-0.2-0.7-0.3c-0.6-0.4-3.4,0-6.7,0.6c-0.1,1.1,0.1,2.2,0.5,3.1c-0.4,0.3-0.8,0.7-1.2,1c0.3,1.8,1.8,3,1.2,5.3
			c-0.3,0.6-0.5,0.8-1.2,1c-2.4,0.9-4-1.5-5.6-1.9c-2.4-0.6-3,1.4-5.1,1.5c-1.1-1.4-1.8-2.1-1.7-4.9c1.4-1.2,2.7-2.5,4.1-3.7
			c-0.5,0-1,0.1-1.4,0.1c-0.1-0.1-0.1-0.2-0.2-0.3c0.5-0.6,0.7-0.5,0.9-1.5c-1.6-1.9-3.1-3.2-6.6-3.2c-0.7,1.1-1.3,2-2,2.9
			c-1.2-0.3-2.8-0.6-4.4-0.7c-0.1-0.1-0.1-0.2-0.2-0.3c1.5-1.2,4.4-1,5.6-2.4c-0.9-1.4-3-1.4-4.9-1.7c-0.1-0.3-0.2-0.6-0.3-0.9
			c0.6-0.6,1.1-1.2,1.7-1.9c2.1-0.9,4.7,0.7,6.8,1c1.2-2.1,2.8-3.7,4.6-5.1v-0.7c-2.1,0.1-3.9,0.1-5.6-0.3c0.7-1.1,3.8-0.1,4.9-0.7
			h0.3c0.1-1.9,0.2-3.7,0.3-5.6c-0.6-0.3-1.3-0.2-2,0c0,0.1,0,0.3,0,0.4c-0.7,0.8-1.3,1.5-2.4,2c-2.1,0-2.9-1.4-4.6-1.7
			c-1.9-0.4-3,1.3-4.4,1.7c-1.7-0.9-2.3-2.2-2.2-4.9c1.2-1.3,5.3-5.8,6.8-6.1c1.7-0.4,2.4,0.8,3.7,1c1.7-2.3,1.6-7.3,0.5-10.1
			c0.1-1.8,2.9-5.5,4.4-5.8c0.5,1.1,0.9,2.2,1.4,3.2c0.8,0.5,1.7,0.5,3.1,0.5c2-2.1,6.8-4.2,8.3,0c0.2,0.2,0.5,0.3,0.7,0.5
			c1.7-2.9,1.7-8.2,5.4-9c0.2-0.2,0.3-0.5,0.5-0.7c-2-0.9-6.7-2.9-7.7-4.6c0.3-0.3,0.7-0.6,1-0.9c2.7-0.9,4.6,1.9,7,2.2v-0.2
			c-0.9-1.6-2.6-2.4-4.6-2.9c-0.5-0.7-0.8-0.7-0.9-1.9c4.2-2.1,4.3-9.4-0.3-10.7c-3-0.9-4.8,2.4-7.5,1c-1.8-0.9-1.7-2.3-2.2-4.6
			c-0.5-1.1-0.9-2.3-1.4-3.4c-0.7-3.2,1.8-6.9,3.4-8c1.4-1,2.6-0.5,3.6-1.9c1.4,0.1,4.2,0.8,4.8,1.7c0.5,0.9,0,1.5,0.9,2
			c0.7,0.1,1.5,0.2,2.2,0.3c1.4,0.6,3.5,3.2,3.9,4.8c-0.1,1.6-0.1,3.2-0.2,4.8c0.7,1.9,1.8,0.6,1.7,4.9c1,0.4,2.5,1.2,4,2.3
			c-0.1-0.9-0.3-1.7-0.4-2.6C461.4,194.8,461.8,192.1,460.4,189.2z M375.4,112.1c0.7-0.5,1.5-1,2.2-1.5h0.9c1.4,1.2,2.5,2.1,2.7,4.4
			c-0.2,0.3-0.2,0.3-0.5,0.5c-1.1,0.4-3.5,0.1-4.9,0.2c-0.1-0.1-0.2-0.1-0.3-0.2C374.6,114.3,375.1,113.6,375.4,112.1z M363.9,122.8
			c0.3-0.3,0.6-0.7,0.9-1h0.7c0.4,0.8,0.4,1.5-0.2,2.2c-0.1,0.2-0.2,0.3-0.3,0.5c-0.2-0.1-0.3-0.1-0.5-0.2
			C363.9,124,363.9,123.8,363.9,122.8z M309.5,89.5c-0.4,0.3-0.8,0.7-1.2,1h-0.2c-0.1-0.3-0.1-0.6-0.2-0.9c0.1-0.1,0.2-0.2,0.3-0.3
			h1.2V89.5z M313.2,89.6h-3.4c-0.1-0.1-0.1-0.1-0.2-0.2c1.2-2.9,2.5-3.6,4.6-5.5h1C316.4,85.9,314.5,88.5,313.2,89.6z M320.4,70
			c-0.3,0.1-0.7,0.2-1,0.3c-0.1-0.3-0.1-0.7-0.2-1l0.3-0.2c0.2,0.1,0.5,0.1,0.7,0.2c0.1,0.2,0.1,0.3,0.2,0.5V70z M336,119.4
			c-1.2-0.5-2.1-2.4-3.6-2.2c-2.9,0.4-6,5.7-9.9,3.7c-0.3-0.2-0.6-0.3-0.9-0.5c-1.2-4.4,0.9-7,3.6-8.7c3.2,0,5.2,1.2,7.8,1.7
			c1.7,0.3,1.9-0.8,2.9-1c2.2-0.6,4.2,2,5.1,3.1C340.7,118,338.3,118.7,336,119.4z M347.1,157.2c7.2,0,5,5.1,9.2,6.3
			c3.1,0.9,5.9-2.7,7.5,1c0.7,1.2,0,3-1,3.6c-0.2,0.1-0.3,0.2-0.5,0.3c-1.2-0.9-1.8-1.8-3.9-1.9c-5,2.2-1,13.2-9.4,11.2
			c-0.9-1.5-2.4-2.4-3.2-3.7c-1.7-2.8,2-5.9,2.9-7.5c-0.2-3.2-3.1-3.8-3.7-7C345.6,158.5,346,158,347.1,157.2z M267.4,199.9
			c0.1-0.1,0.2-0.1,0.3-0.2c0.2,0.1,0.3,0.2,0.5,0.3c-0.1,0.1-0.2,0.2-0.3,0.3h-0.5V199.9z M275.8,231c-0.9,0-2.1-0.5-1.5-1.4
			c0.3-0.5,0.3-0.4,0.7-0.7c0.2,0.1,0.5,0.1,0.7,0.2c0.3,0.5,0.5,0.6,0.5,1.5C276,230.8,275.9,230.9,275.8,231z M279.5,219.6h-0.7
			c-0.2-0.5-0.5-0.9-0.7-1.4h-2.6c-0.6,2.3-0.8,4.5-2.7,5.5c-2.9,1.1-7.6-4.5-8.5-6.3c0.2-5.8,6-1.2,9.9-2.4c1-0.8,1.9-1.6,2.9-2.4
			c2,0.1,1.6,1.2,2.9,1.7h3.2c0.3,0.5,0.4,0.4,0.5,1.2C282.5,217.2,281.1,218.2,279.5,219.6z M406,223.5c1-0.1,1.9-0.2,2.9-0.3
			c1-2.3,0.7-6.2,1.4-8.3c2.8,0.7,3.9,5.1,1,6.5c0.3,1.6,1,2.5,0.9,4.4c-3.1,2.4-3.7,0.4-6.1-1.5V223.5z M351.5,244.1
			c-1.8-2-1.7-5.1-3.2-7.5c-1.1-1.6-3.4-1.9-4.4-3.6c0.7-1,1.5-0.8,2.6-1.5c0.7-0.9,1.4-1.7,2-2.6c2-1.1,4-2.3,6-3.4
			c0.2,0.1,0.5,0.1,0.7,0.2c0.2,0.1,0.3,0.1,0.5,0.2c0.1,3,0.2,6,0.3,9c0.3,1.9,0.6,3.7,0.9,5.6C355,241.7,353.3,242.9,351.5,244.1z
			 M354.2,250.8c-0.5,0.9-0.9,1.7-1.4,2.6c-0.8,0-1,0.1-1.2-1c0.7-0.7,1.5-1.5,2.2-2.2C354.3,250.4,354.1,250.1,354.2,250.8z
			 M349,246.7c-0.4,0.3-0.8,0.6-1.2,0.9c-0.2,0.2-0.3,0.3-0.5,0.5c-0.1-0.1-0.1-0.2-0.2-0.3c0.5-0.6,0.9-1.1,1.4-1.7
			C349,246.3,348.7,246,349,246.7z M340.8,182.1h1c0.4,0.6,0.6,0.6,0.7,1.7c-0.5,0.3-1,0.7-1.5,1h-1c-0.2-0.3-0.5-0.7-0.7-1
			C339.8,183.3,340.3,182.7,340.8,182.1z M340.3,212.9c1.9-0.7,3.7-1.4,5.6-2c4-0.8,8.3,1.6,10.6,3.1v0.5c-2.2,2.2-2.5,3.2-2.2,7.3
			c-0.9,0.6-2.6,1.2-3.9,0.5c-1.5-0.8-1.5-2.7-2.9-3.6c-0.9,0.6-1.5,1.8-1.9,2.9c-7.5,2.1-8.5-3.1-11.2-6.6
			c-1.1-1.5-3.4-1.7-4.4-3.4c0.1-1.3,0.5-1.6,1-2.4C336.3,209.2,337.1,211.2,340.3,212.9z M305.4,203.6c1.6-1.8,3.3-3.5,4.6-5.6
			v-1.2c-1.1-0.7-2.2-0.4-3.6-0.7c-0.6-0.3-0.5-0.3-0.9-0.9c0.9-1.6,2.9-2.1,3.6-3.9c2.5-6.4,0.2-8.3,5.3-12.9
			c6.4,0.5,6.5,10,11.4,12.8c1.3-0.7,2.1-1.5,3.9-1.7c1.7,0.7,3.7,1.8,4.4,3.4c1.4,3.2-0.6,7.1-1.7,8.5c-3.7,0.7-6.2,0.7-8.5,2.6
			c0.2,1.3,0.8,1.3,1,2.6c0.4,1.7-2.2,3.6-3.2,4.6c-1.8,1.8-3.7,2.9-5.8,4.4c-0.7,1.2-1.5,2.4-2.2,3.6c-1,1.5-4,3.3-5.6,4.1
			c-0.5,0.1-0.9,0.1-1.4,0.2c-2.7-3.7-1.5-7.6-0.7-12.3C306.6,208.1,305.5,205.8,305.4,203.6z M322.6,221.3c-0.1,0.3-0.2,0.7-0.3,1
			c-1.2,0.7-2.1,0.6-2.9-0.3c0.2-1.2,0.9-1.4,1.5-2.2h0.9C322,220.3,322.3,220.8,322.6,221.3z M289.1,219.8c-0.3,0.1-0.7,0.1-1,0.2
			c-1.3-1-1.8-2.4-2.7-3.7c1.4-2.7,4.5-2.4,6.8-4.1h1.2c1.1,1,2.2,1.7,2.4,3.6c-0.2,0.3-0.3,0.7-0.5,1c-1.1,0.1-2.2,0.2-3.2,0.3
			C291,217.9,290,218.9,289.1,219.8z M292.5,243.1c-0.3-0.2-0.6-0.5-0.9-0.7c0.3-2.2,2.1-2.9,2.9-4.8c-0.5-1-1-1.3-2.6-1.2
			c-0.1-0.1-0.1-0.1-0.2-0.2v-0.5c0.5-0.3,0.9-0.7,1.4-1c1.5,0.6,2,2.2,3.2,3.1c2.3,1.7,5,1.5,5.3,5.3
			C299.6,244,295.3,243.1,292.5,243.1z M301.1,186.7c-1.1,0.5-1.4,2-2.7,2.4c-1.9,0.5-7.8-3.5-8.3-4.6v-1.2c1.7-1.7,3.7-3.2,5.4-4.9
			c3.2,0,8.5,3.1,9.5,5.1C305,187,303.5,185.6,301.1,186.7z M298.2,276l1,0.2v1.4c-0.2,0.2-0.5,0.3-0.7,0.5
			c-0.2-0.1-0.3-0.1-0.5-0.2C297.7,277,297.8,276.8,298.2,276z M302,279c0.9,0.1,0.9,0.2,1.2,0.9c0.1,0.3,0.1,0.7,0.2,1
			c-1.4,1.4-8.5,7-12.4,3.7C293.2,281.6,298.3,280.7,302,279z M295.9,294.2c-1.3,1.7-2.6,3.2-4.6,4.3c-0.7-0.4-0.8-0.5-1-1.4
			c-0.8-0.4-1.3-0.3-2.4-0.2c-1,1.9-1,4.4-3.1,5.8c-4.1-0.1-9-5.1-8-8.7c3.1-2,6,0.9,9.7-0.3c1-0.8,2-1.6,3.1-2.4
			c1.5,0.3,1.6,1.5,2.7,1.9c1.8,0.5,2.1-0.5,3.6,0.5V294.2z M307.1,295.6c-1.1,0.1-2.2,0.2-3.2,0.3c-1,0.9-1.9,1.8-2.9,2.7
			c-0.3,0.1-0.6,0.1-0.9,0.2c-1.2-1.1-2-2.3-2.7-3.9c1.4-2.5,4.4-2.3,6.6-3.9c0.5,0.1,0.9,0.1,1.4,0.2
			C306.7,291.6,308.9,294.4,307.1,295.6z M314.2,269.8c-0.8,1.4-1.5,0.6-3.1,1.2c-1.6,0.6-3.4,4-5.1-0.2c-0.5-1.9,1.7-2.1,2.2-3.4
			c-0.1-1.1-0.1-2.2-0.2-3.2c0.3-0.3,0.6-0.7,0.9-1h0.9c1.7,1.6,4,2.8,4.9,5.1C314.7,269.2,314.6,269.4,314.2,269.8z M312,254.6
			l0.5,0.3c-0.2,0.2-0.3,0.3-0.5,0.5h-0.9c-0.3-0.5-0.4-0.4-0.3-1C311.2,254.5,311.6,254.5,312,254.6z M311,253.2
			c0.4-0.6,0.6-0.8,1.2-1.2c0.3,0.1,0.7,0.1,1,0.2c0.1,0.2,0.1,0.5,0.2,0.7v0.2c-0.7,0.2-1.4,0.3-2,0.5
			C311.2,253.5,311.1,253.3,311,253.2z M315.8,250.4c-0.7,0.7-1.4,1.2-1.7,1.4c-0.2-0.1-0.3-0.2-0.5-0.3v-0.7
			c0.3-0.4,0.5-0.8,0.8-1.1c-2.2-1.4-2-3-4.3-6.5c-1.4-2-3.4-4.3-5.3-6c0.1-0.3,0.1-0.6,0.2-0.9c0.5-0.9,2-0.9,2.9-1.4
			c1.7,0.1,14.9,6.8,15.7,7.7c1.1,1.4,1.4,5.1,0.3,6.5c-1.2,1.6-2.9,2.8-5.4,2C317.3,251,316.5,250.7,315.8,250.4z M323.9,261.3
			c-0.3,0.3-0.7,0.6-1,0.9c-1.4,0-2.3-0.5-2.7-1.5c-0.1-0.3-0.1-0.6-0.2-0.9c0.8-0.8,1.3-1.3,2.4-1.9c0.7,0.2,1.5,0.5,2.2,0.7
			c0.1,0.1,0.1,0.2,0.2,0.3C324.5,259.7,324.2,260.5,323.9,261.3z M328.4,242.8c-1.4-0.8-1-3-2-4.3c-1.2-1.4-3.3-1.9-4.3-3.6
			c-4.8-8.1,8.9-8.8,12.4-11.4c4.7,0.9,5.8,5,7.5,8.9c-0.6,4.5-5.2,9-8.3,11.2C332.4,243.5,329.2,243.4,328.4,242.8z M340.1,251.4
			c-0.1,0.2-0.1,0.5-0.2,0.7c-0.1,0.2-0.1,0.3-0.2,0.5c-0.3,0.1-0.7,0.1-1,0.2h-0.2c-0.1-0.3-0.1-0.7-0.2-1c0.2-0.2,0.5-0.5,0.7-0.7
			C339.4,251.2,339.8,251.3,340.1,251.4z M346.2,285.2c-0.1,0.2-0.2,0.3-0.3,0.5h-0.9c-0.2-0.2-0.5-0.5-0.7-0.7v-0.7
			c0.2-0.2,0.5-0.5,0.7-0.7c0.3,0.1,0.6,0.1,0.9,0.2C346.2,284.3,346.5,284.5,346.2,285.2z M349.1,274.1c-0.7-0.4-0.8-1.1-1.4-1.5
			c-0.6,0.1-1.2,0.2-1.9,0.3c-1,2.3-0.9,4.3-2.9,5.6c-4.3-0.2-6.7-3.9-8.5-6.6c0.2-0.7,0.3-1.4,0.5-2c2.7-1.6,6.1,0.7,9.4-0.2
			c1-0.8,2-1.6,3.1-2.4c2,0,1.9,1.4,3.4,1.9c0.8-0.3,1.9-0.5,2.6,0c0.5,0.3,0.4,0.2,0.7,0.7C353.3,271.3,351,274.4,349.1,274.1z
			 M353.2,266.9c-1.1,1.4-3.3-1.2-5.3-1.5c-0.1-0.3-0.1-0.6-0.2-0.9c1.2-0.8,2.3-1.2,3.7-1.9c1.1,0.1,2.2,0.1,3.2,0.2
			c0.5,0.3,0.3,0,0.5,0.7C354.6,264.7,353.9,265.8,353.2,266.9z M365.6,271c-1,0.6-3.1,0.4-4.1,1c-1,0.6-1.3,1.8-2.4,2.4
			c-0.3,0.1-0.7,0.1-1,0.2c-1-1-2.2-2.3-2.6-3.9c1.5-2.6,4.5-2.1,6.6-3.9C364.9,266.7,366.1,269,365.6,271z M366,246.5
			c0.3-1.8,0.7-3.5,1-5.3c0.3,0.1,0.7,0.1,1,0.2c0.6,0.9,1.2,1.6,1.4,2.9c-0.1,0.3-0.2,0.6-0.3,0.9
			C368.1,245.7,367.3,246.3,366,246.5z M373.5,258.9c-2.3,1.4-3.9-1.3-5.3-2.4c0.1-0.3,0.1-0.6,0.2-0.9c0.6-0.3,1.2-0.7,1.9-1
			c0.3,0.1,0.7,0.1,1,0.2C372.8,255.4,373.9,257,373.5,258.9z M371.4,204.6c-0.6-0.7-0.7-2.2-0.2-3.1c0.7-1.6,2-2.1,3.6-2.9
			c3,0,4.9,0.7,6.5,2c1.1-0.5,2.2-1,3.2-1.5c4.3-1,4.9,2.8,7.1,3.9c4.1,0.7,10.8-2,11.2,4.6c-1.8,4.4-3.2,1.7-7.1,2.6
			c-1.3,0.5-2.6,1-3.9,1.5H391c-3.4,0.1-4.9-2.3-7.5-3.1c-1.8-0.5-3.2,0.1-4.4-0.7h-0.2c-0.5-0.6-0.9-1.1-1.4-1.7
			C375.4,204.9,372.8,207.4,371.4,204.6z M384.9,291.5c-0.9,0.6-2.8,0.4-3.9,1c-0.9,0.9-1.8,1.8-2.7,2.7h-0.9
			c-1.1-1-2.4-2.3-2.6-4.3c3.1-3,1.2-1.3,0.7-4.9c1.9-2,4.7-2.3,7.1-3.7c0.6,0.3,1.2,0.6,1.9,0.9c0.1,0.3,0.1,0.6,0.2,0.9
			c-1.1,1.2-2.9,1.6-3.4,3.4c2.4,0,3.6,1.5,3.7,3.6C385,291.1,384.9,291.3,384.9,291.5z M403.1,249.9c-0.3,1.1-9.5,9.6-10.7,10.2
			c-2.2,1.1-6.1,0.7-9,0.7c-0.1,0.2-0.1,0.3-0.2,0.5c4.6,6.4,0.7,15.6-6.1,16.5c-3.3-2.4-1.4-11.7-0.7-16.5c2.2-0.2,4.3-0.3,6.5-0.5
			c-0.1-4.7,1.6-8.5,0.5-14.3c0.7-1.2,6-6,4.4-7.5c-0.8-0.7-2.7-0.1-3.6-0.5c-0.4-0.3-0.3-0.2-0.5-0.9c1.1-1.2,2.3-2.4,3.4-3.6
			c0.8-2,0.3-4.5,1.2-6.1c1.5-2.9,6.9-2.7,10-1.7c1.8,3,2.9,5.2,5.3,7.5c1.4-0.4,2.3-2,4.3-1.7c4.6,0.7,6.6,8.9,2.6,11.9
			c-3.1,0.5-7.1,0.4-8.3,2.7C402,247.8,403.5,248.2,403.1,249.9z M410.4,259c-0.2,0.1-0.3,0.2-0.5,0.3c-0.7-0.4-0.9-0.5-1.2-1.4
			c1.1,0.1,1.1,0.3,1.7,0.9V259z M415.5,260.7h-2c-0.1-0.1-0.2-0.1-0.3-0.2c-0.2-0.5-0.3-0.4-0.2-1c0.9,0.3,1.7,0.7,2.6,1V260.7z
			 M416.4,254.7c-2.4,1-7.3,2.7-8.3-0.5c-0.3-1,0.5-1.7,1-2.4c3.9,0,5,1,7.3,2.2V254.7z M412.1,292.8c-0.6,0.1-1.1,0.1-1.7,0.2
			c-0.6-0.3-0.7-0.5-1-1c0.4-0.9,0.9-1.2,1.5-1.9h1c0.2,0.6,0.5,1.1,0.7,1.7C412.5,292.2,412.3,292.5,412.1,292.8z M447.5,270.1h1.2
			c0.1,0.1,0.2,0.1,0.3,0.2c-0.1,0.1-0.1,0.2-0.2,0.3h-1.2c-0.1-0.1-0.2-0.2-0.3-0.3C447.4,270.2,447.4,270.2,447.5,270.1z
			 M421.3,257.3h0.7c-0.2,0.6-0.5,1.2-0.7,1.9c-0.5-0.1-1-0.2-1.5-0.3c-0.6,0.8-1,1.4-1.7,2h-0.7c-0.1-0.1-0.1-0.2-0.2-0.3
			c0.6-0.8,1.2-1.1,1.4-2.4C419.5,257.9,420.4,257.6,421.3,257.3z M420.1,226.9c-0.5,0.2-1,0.5-1.5,0.7c-0.4-0.2-0.8-0.5-1.2-0.7
			v-0.9c0.5-0.5,1-0.9,1.5-1.4h0.9c0.3,0.3,0.6,0.6,0.9,0.9C420.5,226,420.3,226.5,420.1,226.9z M426.6,185.2
			c0.2,0.1,0.5,0.1,0.7,0.2c-0.3,0.5-0.4,0.6-0.9,0.9c-0.1-0.1-0.2-0.2-0.3-0.3C426.2,185.6,426.4,185.4,426.6,185.2z M440.4,205.6
			c0.8,0.4,1.2,0.9,1.5,1.7c0.5,1.2-0.2,2.2-0.5,3.1c-0.4,0.2-0.8,0.5-1.2,0.7c-10.1-7.7-3.4,11.1-12.6,9.5
			c-1.1-0.6-3.4-3.2-3.9-4.4c-1.4-3.7,3.3-5,3.1-7.7c-0.2-2.6-3.6-3.1-3.7-6.8c0.7-0.6,1.4-1.2,2-1.9c7.3,0.1,5,4.9,9.2,6.3
			C436.3,206.8,438.2,204.5,440.4,205.6z"/>
		<path fill="#C8F286" d="M447,183.8c0.1,0.1,0.2,0.2,0.3,0.3h0.9c0.1-0.1,0.1-0.2,0.2-0.3c-0.3-0.3-0.6-0.6-0.9-0.9H447V183.8z"/>
		<path fill="#C8F286" d="M328,230c-1.2,0.7-2.3,0.9-3.1,2c0.4,2.4,3.8,4.2,6.5,4.3c0.1-0.1,0.2-0.1,0.3-0.2
			C333.4,233.2,331.4,229.9,328,230z"/>
		<path fill="#C8F286" d="M369,295c-0.3,0.3-0.6,0.7-0.9,1c0.1,0.2,0.1,0.3,0.2,0.5c0.3,0.1,0.6,0.2,0.9,0.3h0.9
			C369.9,296,369.6,295.3,369,295z"/>
		<path fill="#C8F286" d="M262.3,317.2c-2.5-1-8.5,0.9-11.9-0.3c-0.3-1-0.2-3.1-0.5-3.9c-1.2-2.8-4.8-1.9-3.2-8.2
			c1.2-4.8,7.4-6.3,6-12.3c-1.4-1-3-2.1-4.6-3.1c-0.2,2.5-0.4,5-0.6,7.5c-3.6,3.1-6.6,7.3-10.4,10.1c-0.7,0.5-5.7,2.4-5.8,2.6
			c-1.1,1.8-0.8,5.1-2.2,7.2c-2.9,4.3-7.5,6.3-10.6,11.1c-0.9-0.5-1.7-0.9-2.6-1.4c-1.9,1.1-5.9,3-7,4.9c-0.9,1.2,0,3.5,0.3,4.4
			c2.1,1.1,3.3,0.9,5.6,0.2c0.6-1.2-0.1-1.8-0.5-2.9c0.5-0.7,1.2-0.9,2-1.2c4.5,0.4,6.1,3.9,7.9,7.1c0.1,0,0.1-0.1,0.2-0.1
			c0.9-0.9,1.8-1.7,2.7-2.6c1-0.5,2-1,3-1.5c0-0.2,0-0.4,0-0.6c-0.7-0.1-1.5-0.2-2.2-0.3h-0.3c0.4-1.4,1.7-1.9,2.7-2.7
			c2.1-1.7,2.9-4.1,6.1-4.3c-0.9-1.9-1.1-4.3-0.4-6.6c0.2-0.1,0.3-0.2,0.5-0.3c2,0.2,2.2,1.6,3.6,2.2c0.6-0.4,1.3-0.7,2.1-0.9
			c0.6-1.5,1.1-3.2,2.3-4c3.2-2.2,5.2,0.8,7,1.5c2.3,0.9,3.5-0.1,4.8,1.7c1.2,0.1,2.3,0.2,3.5,0.3c-0.1-0.6-0.1-1.1-0.2-1.7
			c1,0.3,2,0.7,3,1.2C262.5,319.3,262.3,318.4,262.3,317.2z M234.9,318.4c-0.7,0.2-1.7,0.5-2.4,0.2c-0.5-0.3-0.4-0.2-0.7-0.7
			c0.6-1.5,1.2-2.3,2.2-3.2c0.7,0.1,0.5,0,0.9,0.3C235.7,315.9,235.4,317.5,234.9,318.4z"/>
		<path fill="#C8F286" d="M325.8,195.6c0.2,0.1,0.3,0.1,0.5,0.2c0.3-0.2,0.6-0.3,0.9-0.5c-0.4-0.3-0.5-0.4-1.2-0.5
			C325.8,195.2,325.8,195.1,325.8,195.6z"/>
		<path fill="#C8F286" d="M405,238.2v-0.7c-0.3-0.1-0.6-0.1-0.9-0.2l-0.5,0.5c0.1,0.1,0.1,0.2,0.2,0.3H405z"/>
		<path fill="#C8F286" d="M273.4,320.9c-1.5,0.9-2.9,1.8-4.4,2.7c2.6,1.5,5.4,2.8,8.8,3.1c1-0.9,1.6-3.5,1.8-5.2
			C277.7,321,275.6,320.4,273.4,320.9z"/>
		<path fill="#C8F286" d="M369.1,290.1c-0.3-0.6-0.6-1.1-0.9-1.7c-0.5-0.1-0.9-0.1-1.4-0.2c-0.3,0.1-0.7,0.1-1,0.2
			c-0.3,1-0.6,2-0.9,3.1v0.5c1.2-0.5,2.5-0.9,3.7-1.4C368.8,290.5,368.9,290.3,369.1,290.1z"/>
		<path fill="#C8F286" d="M362.5,298.8c-0.1,0.1-0.2,0.1-0.3,0.1c-1.3,0.5-2.7-0.6-3.7-1c0-0.1,0-0.1,0-0.2c-0.5,0-0.9-0.1-1.4,0
			c-1.5,1.5-3.6,2.8-6.3,3.1c-0.1,0.3-0.2,0.6-0.3,0.9c1.7,2.4,5,5.1,8.3,5.8c2,0.5,5.3-3.3,5.4-5.5
			C364.7,300.6,363.9,299.5,362.5,298.8z"/>
		<path fill="#C8F286" d="M365.3,293.5c-0.3,0.2-0.5,0.6-0.7,1l0.5,1h-0.8c-0.1,0.5-0.3,1-0.4,1.5c0.6,0,1.3,0,1.9,0
			c0.6-1.1,1-2.3,1.9-3c-0.1-0.1-0.1-0.3-0.2-0.5C366.9,293.2,366.1,293.1,365.3,293.5z"/>
		<path fill="#C8F286" d="M223.4,6.2c-0.5-1-0.8-2-2-2.3L221.2,5c0.5,0.5,1.2,1.2,1.9,1.8C223.2,6.5,223.3,6.3,223.4,6.2z"/>
		<path fill="#C8F286" d="M53.1,233.1c1.4,0.7,1.7,0.6,1.5,2.6c-0.7,0.3-1.4,0.6-2,0.9h-0.7c0.2-0.3,0.5-0.6,0.7-0.9
			c-0.2-0.3-0.3-0.7-0.5-1c-0.5,0.2-1,0.4-1.5,0.6v3.8c0.2,0,0.4,0,0.8,0c0,0.7,0.1,1.4,0.1,2.1c0-0.1,0.1-0.2,0.1-0.3
			c1-2.4,2.9-3.6,5.4-4.4c0.1-0.1,0.1-0.2,0.2-0.3c-0.3-2-1.1-3.5-1.8-5C54.1,231.9,53.3,232.6,53.1,233.1z"/>
		<path fill="#C8F286" d="M248,151.9c0,0.2,0,0.5,0,0.7c0.7-0.4,1.5-0.8,2.1-1.3C249.3,151.4,248.5,151.6,248,151.9z"/>
		<path fill="#C8F286" d="M385.2,173.9c0.1,0.1,0.1,0.2,0.2,0.3h0.9v-0.7c-0.2-0.1-0.5-0.2-0.7-0.3
			C385.5,173.5,385.3,173.7,385.2,173.9z"/>
		<path fill="#C8F286" d="M249.7,186.8c0.2-0.1,0.3-0.1,0.5-0.2c0.1-0.2,0.2-0.4,0.3-0.7c-0.9-0.2-1.9-0.3-2.8-0.5
			C248.3,185.8,249,186.3,249.7,186.8z"/>
		<path fill="#C8F286" d="M220.1,6.2c-0.1-0.2-0.2-0.3-0.3-0.5c0,0,0,0.1,0,0.1L220.1,6.2z"/>
		<path fill="#C8F286" d="M246.2,184.9c-1.4-0.4-2.7-1-3.6-1.8c-0.8,1.1-1.1,2.2-0.7,3.1v0.3C243.2,186.3,244.5,185,246.2,184.9z"/>
		<path fill="#C8F286" d="M352.2,287.4v0.9c0.1,0.1,0.2,0.2,0.3,0.3h0.9c0.5-0.7,0.7-0.8,0.7-2c-0.4-0.1-0.8-0.2-1.2-0.3
			C352.7,286.6,352.4,287,352.2,287.4z"/>
		<path fill="#C8F286" d="M222.3,11.5c-0.2-1.1-0.5-2.1-1-3.1c0.1,2.2-1.7,4.3-2.3,6.1C220.1,13.5,221.5,12.9,222.3,11.5z"/>
		<path fill="#C8F286" d="M234.9,0.9c0-0.1,0-0.4,0-0.9H226C228.3,2.2,232,3,234.9,0.9z"/>
		<path fill="#C8F286" d="M86.5,253.1c-0.5-0.6-0.6-1.2-1.4-1.5c-1.8,0.7-4,0.4-4.9,2c0.2,1.6-1.2,2.4-1.7,4.1
			c1.6-0.8,3.1-1.7,4.7-2.5h0.2c0.2,1.1-0.2,1.4-0.3,2.6c0.6,0.5,1.2,1,1.9,1.5c0.2,0.1,0.4,0.2,0.6,0.3c0.6-0.4,1.2-0.9,1.8-1.3
			c0.8-0.3,1.3,0.2,2.2,0.3c1.1-0.8,3.3-2.5,3.2-3.7c0.5-0.3,1.9-0.2,3.4,0C93.9,252.6,91.5,251,86.5,253.1z M86.1,257
			c-0.5,0.3-0.9,0.7-1.4,1c-0.2-0.1-0.3-0.2-0.5-0.3c0.2-0.9,0.4-1,0.9-1.5c0.3,0.1,0.7,0.2,1,0.3V257z"/>
		<path fill="#C8F286" d="M315.9,163.7c-0.2,0.9-0.3,1.8-0.5,2.7c-0.3,0.1-0.6,0.1-0.9,0.2c-1.4-1.4-6.6-3.6-8.7-2.9
			c-0.9,0.4-1.5,1.1-2,1.9c-0.6,3.1,2,5.4,4.1,6.3c4.2-0.3,5.1-2.4,7.7-3.9c1.7,1.1,1.2,3.8,3.1,4.8c7.8,3.2,6.2-9.2,9.7-11.1
			c1.1-0.4,2.1,0.3,3.6,0.3c4.2-3.7,2.3-9.7,2.6-16.5c-3.3-3.3-4.6-0.1-7.1,0.7c-1.7,0.5-4.1-0.3-5.3-0.7c-1.3,0.4-1.8,0.8-2.2,2
			c-0.6-0.5-1.1-0.9-1.7-1.4c-0.2-0.9-0.3-1.8-0.5-2.7c-0.5-1.1-3.4-2.4-4.9-2.4c-0.3,0.5-0.7,0.9-1,1.4c0.6-0.1,1.1-0.1,1.7-0.2
			c1.6,2.2-0.4,3.3,0.3,6.3c0.7,1.5,3.8,3.2,5.1,4.1c-0.5,3.9-0.4,4.9,1.7,7.2C319.4,162.2,318.6,162.8,315.9,163.7z"/>
		<path fill="#C8F286" d="M289.4,90.5c-0.2,0.3-0.5,0.7-0.7,1c0.8,1.9,3.2,4.6,4.8,5.6c0.5-0.3,0.6-0.3,0.9-0.9
			c0.4-0.7,0.4-1.8,0-2.6C293.7,92.2,291.4,90.6,289.4,90.5z"/>
		<path fill="#C8F286" d="M302.8,101.4v-1c-0.6-1.1-1.6-1.4-3.4-1.4c-3.8,4.6-6.9-3-9.7,2.6c0.2,1.8,1,3,1.7,4.4
			c0.3,0,0.6,0.1,0.9,0.1c0.6-0.7,0.7-2.1,0.7-3.1c0.1-0.1,0.1-0.1,0.2-0.2h0.5c0.1,0.2,0.2,0.5,0.3,0.7c0.4,0.8,0.3,1.7,0.1,2.5
			C297.8,105.6,301.9,103.7,302.8,101.4z"/>
		<path fill="#C8F286" d="M262.4,250.5c0.1,1.4,0.3,2.7,0.6,3.9c1.3-0.2,3.3,0.1,4.4,0.2c0.1-0.5,0.2-1,0.3-1.5
			c0.5-0.7,3.6-1.3,4.4-1.5c0.1,0.1,0.1,0.1,0.2,0.2c0.5,1,1,2.1,1.5,3.1c1.3-1.6,2.9-3,4.5-3.3c2.5-4.5-10.5-3.3-13.8-4.3
			c-0.9-0.5-1.7-1-2.6-1.5c0.1,1.1,0.2,2.2,0.3,3.4c0.4,0.1,0.8,0.2,1.2,0.2c0.5-0.5,0.4-0.8,1.4-1c-0.1,0.3-0.1,0.6-0.2,0.9
			C264.3,249.7,263.4,250.2,262.4,250.5z"/>
		<path fill="#C8F286" d="M177.4,219.3C177.4,219.3,177.4,219.3,177.4,219.3c0.5,0.5,1,0.8,1.5,1.2c0-0.1,0-0.1,0-0.2
			C178.5,219.7,178.3,219.4,177.4,219.3z"/>
		<path fill="#C8F286" d="M342.3,137.7c3.4-1.9,7.5-1.3,7.5-6.5c-0.2-0.3-0.5-0.6-0.7-0.9c-0.3-0.1-0.6-0.1-0.9-0.2
			c-3.9,2.2-8.8,3-11.7,6.1c0.1,1.4,0.8,2.9,1.9,3.4C340.4,140.4,341.2,138.3,342.3,137.7z"/>
		<path fill="#C8F286" d="M169.4,212.9c-0.2,0.2-0.3,0.3-0.5,0.5c0.1,2,1,4.5,2.3,5.4c0.5-0.9,1-1.8,1.7-2.3c0,0,0.1,0,0.1-0.1
			c0.1-0.6,0-1.3-0.2-2C171.8,213.8,170.9,213.1,169.4,212.9z"/>
		<path fill="#C8F286" d="M157.3,215c-1.3,0.6-3.4,0.9-4.6,1.4c-0.6,2.1,0.1,4.5,1.6,6.3c3.4-0.9,7.2-1.5,8.1-0.7l-0.7,0.7
			c0.2,0.6,0.8,0.7,1.4,0.6c0.5-1.9,0.1-5.5-0.3-7C161.3,215.3,160,214.9,157.3,215z"/>
		<path fill="#C8F286" d="M141.5,233.1c0.2-0.1,0.3-0.1,0.4-0.2c-0.1-0.1-0.2-0.1-0.3-0.2C141.6,232.8,141.5,232.9,141.5,233.1z"/>
	</g>
	<g id="Shape_10_3_">
		<path fill-rule="evenodd" fill="#76E24B" d="M376.4,147c0-1.4-1.1-6.6-3.1-6.6c0-1.4,0.5-2.5,0.5-3.6c-0.3-0.6-0.5-1.2-0.8-1.8
			c-4.1-2-9.9-2-13.3-5.4c-8.3-8.3-14.2-22.2-25.8-26.1c-10.4,0-16.4,5.7-21,14.8c-2.2,4.4-5.4,9.9-10.2,12c-0.9,0.4-1.7,0.7-2.6,1
			c0,0.1,0.1,0.2,0.1,0.3c0.8,0.5,2.6,0.6,3.9,0.7v0.7c-5.2,4.9-8.4,8.7-3.4,16.4v0.9c-0.6-0.2-1.2-0.3-1.9-0.5
			c-1.1,0.7-2.2,1.4-3.2,2c-0.6,0.7-1,0.8-1.2,2c1,1.3,4.3,3.8,3.4,6.1c-0.1,0.2-0.2,0.3-0.3,0.5c-2.5-1.3-4.9-3.6-5.8-6.5
			c-1.5-0.2-3.5,1.4-4.9,2c-2.6,1.1-7.9,1-10.9,0.2H272c0.2,0.8,0.3,0.7,0.7,1.2c-0.8,0.9-7.9,4.4-9.5,3.7h-0.3
			c0.9-1.2,1.8-2.5,2.7-3.7c-1.2-1.1-3.6,0-5.1,0.2c-0.9-2.1-1.8-4.2-2.7-6.3c-2.2-1.3-7.6-0.3-9.7,0.5c0.1,1.9,0.1,3.9,0.2,5.8
			c-0.2,0.3-0.2,0.3-0.5,0.5c-0.9-0.5-1.7-1-2.6-1.5h-1v1.4c0.5,0.8,2.7,2.4,3.7,2.6c0.4,0.7,0.6,1.4,0.7,2.6
			c2.8,1.5,4.8,2.1,8.2,3.4h0.3c-0.5,1.1-1.4,1.2-1.9,2c0.1,1.5,0.1,3.1,0.2,4.6c-2.4,2.5-15.2,8.7-13.4,13.1v0.3
			c1.7-0.3,3.1-2.2,5.4-1.5c0.8,0.6,1.6,1.1,2.4,1.7c0.2-0.1,0.3-0.1,0.5-0.2c0.5-0.8,0.6-3.1,0.9-4.3c3.9-2.6,8.8-4.1,11.3-0.1
			c-0.1-2.3-1-2.7-1-5.4c0.5,0,2.6-3.7,2.6-4.9c0.2,0,2.7-6.6,6.9-6.6c0.3,0.4,0.7,0.9,1,1.3c3.3,0,8.7,7.8,8.7,10.7
			c0.4,0.3,0.9,0.5,1.3,0.8c3.4-0.1,6.8-0.2,10.2-0.3c3.2,1.1,3,2.6,6.6,2.6c0,0.6,0.3,1.5,0.8,1.5c0.1,0.1,0.2,0.2,0.3,0.3
			c1.3,0,1.6-1.5,3.1,0c0,2.4,6.4,6.9,6.4,6.9c1,0,4.1,0.9,4.1-0.8c3.1,0,2.9-7.2,5.9-7.2c2.3,0,2.1,0.7,4.1-1.3
			c0.6,0,1.3,0,1.3,0.8c1.7,0,2.8-0.8,4.6-0.8c0.9-0.9,1.6-1,2.8-1c0.5,0.3,1,0.5,1.5,0.8c2.8,2.8,5.7,1.3,8.9,1.3
			c0-3.3,7.7-6.9,10-9.2c3.9,0,5.8,0.6,8.2-1.8c0.2-1.4,0.3-2.7,0.5-4.1c1.5,1.5,10.5-2.6,11.2-3.3c1.1,0,1.8,1.6,3.1,0.3
			c2.3-2.3,5.1-10.7,5.1-13.3L376.4,147z M258.9,165.5h-0.5c0.1-0.2,0.1-0.5,0.2-0.7c0.2,0.1,0.3,0.1,0.5,0.2
			C259,165.1,258.9,165.3,258.9,165.5z"/>
	</g>
	<g id="Shape_12_3_">
		<path fill-rule="evenodd" fill="#FFE100" d="M318.1,275.6c-3.3-4.4-8.7-7.9-14.1-8.9c-0.4-0.1-0.9-0.2-1.5-0.2
			c-0.8,1-1.6,2.1-2.1,3.3c-0.1,1.2-0.2,2.5-0.3,3.7c-8.3,1.9-16.6-0.7-24.2-1.7c-3.6,0.5-7.2,1-10.7,1.5c-1.8,0.3-3.5,0.6-5.3,0.9
			c-1.5,1.1-1.9,8.1-2.7,10.2c-3,0.7-5.7-0.3-8.7-0.3c-0.3,4.3-0.7,8.5-1,12.8c-3.6,3.1-6.6,7.3-10.4,10.1c-0.7,0.5-5.7,2.4-5.8,2.6
			c-1.1,1.8-0.8,5.1-2.2,7.2c-2.9,4.3-7.5,6.3-10.6,11.1c-0.9-0.5-1.7-0.9-2.6-1.4c-1.9,1.1-5.9,3-7,4.9c-0.9,1.2,0,3.5,0.3,4.4
			c2.1,1.1,3.3,0.9,5.6,0.2c0.6-1.2-0.1-1.8-0.5-2.9c0.5-0.7,1.2-0.9,2-1.2c5.1,0.5,6.5,5,8.7,8.5c0.3,0.1,0.6,0.1,0.9,0.2
			c1.3-1.2,3.3-2.3,4.1-3.9c0.1-0.8,0.1-1.6,0.2-2.4c-0.7-0.1-1.5-0.2-2.2-0.3h-0.3c0.4-1.4,1.7-1.9,2.7-2.7c2.5-2.1,3.2-5,8.3-4.3
			c0.7-1.2,1-3.1,1.4-4.8c3.2-2.1,10.4-2.6,15.2-1.9c1.5,0.1,3.1,0.2,4.6,0.3c-0.1-0.6-0.1-1.1-0.2-1.7c6.2,1.9,10.6,7.3,18,8
			c1.1-1,1.7-3.9,1.9-5.6c0.8-0.5,2.1-0.6,3.1-1c0.8-0.9,0.1-3.3,0.3-4.8c0.6-3.9,1.8-7.3,1.7-12.1c0.1-0.1,0.2-0.1,0.3-0.2
			c0.8,0.9,1.6,1.7,2.4,2.6c2.4-1,4.8-2,7.1-3.1c5.4-2,13.6-2.2,18.7,0.2c0.8,0.4,1.4,1,1.9,1.7c4.9-6,9.1-12.2,11.9-17.9
			C327.1,281.9,320.5,279.7,318.1,275.6z M260.1,315.6c-0.1-0.1-0.2-0.2-0.3-0.3c0.1-0.1,0.2-0.2,0.3-0.3c0.1,0.1,0.2,0.2,0.3,0.3
			C260.3,315.4,260.2,315.5,260.1,315.6z"/>
	</g>
	<g id="Shape_13_3_">
		<path fill-rule="evenodd" fill="#6DEAE1" d="M462.8,203c-0.9-1-1.9-2-2.8-3c-0.5-0.8-0.8-1.8-0.8-2.8c-0.7-0.3-1.4-0.5-2-0.8
			c-0.7-0.9-1.4-1.7-2-2.6c-4.4,0-7.7,2.8-12,2.8c-0.9-0.9-2.6-1.8-2.6-3.3c-1.5-0.1-3.1-0.2-4.6-0.3c-0.6,0.6-15.3,6.1-16.6,6.1
			c-4,0-4.2-3.6-8.4-3.6c0-0.6-1.5-2.8-2-2.8c-3.4,0-8.2,7.3-11.8,9.7c-1.3,1.2-2.6,2.4-3.8,3.6c-1,0-0.5-0.8-1-0.8
			c-0.2,0.1-0.3,0.2-0.5,0.3c-1.7,0-6.9,3.2-6.9,5.4c-4.3,0-2.4-3.3-8.4-3.3c-0.2,0.1-0.3,0.2-0.5,0.3c-0.5,0.1-1,0.2-1.5,0.3
			c-3.1,0-3,8.2-6.9,8.2c-0.7,0-0.5-1.3-1-1.8c-1.7,0-2.6,1-3.8,2.3c-0.9,0.1-1.9,0.2-2.8,0.3c-0.6-0.6-2.2-1-3.1-1
			c0,2,0.6,3.2,1,4.9c-0.2,0.2-0.3,0.3-0.5,0.5c0.7,0,0.5,5.4,0.5,6.9c-0.4,2.8-0.9,5.6-1.3,8.4c-1.1,9.2-0.3,19,1,28.1
			c1.1,7.2,4.4,14.7,7.2,21.5c1.1,2.6,2.2,5.1,3.4,7.4c1.2,0.5,2.1,0.7,3.4,0.3h0.2c0.9,1.2,0.7,1.6,0.3,3.2
			c3.4,3.2,12.6-4,18.6-3.1c3.1,0.5,6.2,0.9,9.4,1.4c3.6,1,7.2,2,10.7,3.1c5-1,8.3-4.8,12.6-6.6c2.4-1,5.5-1.5,8.3-2
			c1.2-0.1,2.5-0.1,3.7-0.2c1.1-0.9,0.1-3.6,0.7-4.6c2.6-4.3,9.1-6.4,14-8.5c0.1-1.5,0.1-3,0.2-4.4c0.4-0.7,1.4-1,2.2-1.2
			c0.2-0.4,0.3-0.6,0.3-1.4c-0.7-0.3-1.5-0.6-2.2-0.9c-0.2-0.2-0.3-0.5-0.5-0.7c0.9-0.8,1.8-1.6,2.7-2.4v-1
			c-0.2-0.1-0.5-0.2-0.7-0.3c-1.2-0.8-13.3,2-17.2,2c-0.1-0.1-0.1-0.2-0.2-0.3c0.5-0.6,0.7-0.5,0.9-1.5c-1.6-1.9-3.1-3.2-6.6-3.2
			c-0.7,1.1-1.3,2-2,2.9c-1.2-0.3-2.8-0.6-4.4-0.7c-0.1-0.1-0.1-0.2-0.2-0.3c1.5-1.2,4.4-1,5.6-2.4c-0.9-1.4-3-1.4-4.9-1.7
			c-0.1-0.3-0.2-0.6-0.3-0.9c0.6-0.6,1.1-1.2,1.7-1.9c2.1-0.9,4.7,0.7,6.8,1c1.2-2.1,2.8-3.7,4.6-5.1v-0.7c-2.1,0.1-3.9,0.1-5.6-0.3
			c0.7-1.1,3.8-0.1,4.9-0.7h0.3c0.1-1.9,0.2-3.7,0.3-5.6c-1.6-0.7-3.9,1-5.3,1.7c-0.8-0.2-1.6-0.5-2.4-0.7c-0.1-0.2-0.2-0.3-0.3-0.5
			c0.8-0.7,3.2-0.1,4.6-0.7c0.5-0.4,0.8-1.5,1-2.2c0.9-0.5,0.9-0.2,1.9,0.3c0.6-0.2,1.1-0.3,1.7-0.5c0.6-1,0.1-1.6-0.5-2.7
			c1.3-1.3,2.3,2.5,2.9,3.6c3-0.5,6.7-2.4,7.8-4.8c0.1-0.3,0.1-0.7,0.2-1c-1-0.6-1-0.4-2,0.2c-0.1-0.1-0.2-0.1-0.3-0.2
			c0.4-1.6,1.7-2.4,2.4-3.7c-0.6-1.1-1-2.5-2.4-2.9c-0.3-0.3-0.6-0.7-0.9-1c0.1-0.1,0.2-0.1,0.3-0.2c1.6,0.8,3.2,1.6,3.6,3.6
			c0.3,0.1,0.6,0.1,0.9,0.2c2.8-2.2,4-6.8,8.3-7.3c1.9-3.9,1.6-9.4,2.7-13.8c0.7-2.8,2.8-5.3,3.4-7.3
			C463,204.3,462.9,203.6,462.8,203z M410.4,259c-0.2,0.1-0.3,0.2-0.5,0.3c-0.7-0.4-0.9-0.5-1.2-1.4c1.1,0.1,1.1,0.3,1.7,0.9V259z
			 M447.5,270.1h1.2c0.1,0.1,0.2,0.1,0.3,0.2c-0.1,0.1-0.1,0.2-0.2,0.3h-1.2c-0.1-0.1-0.2-0.2-0.3-0.3
			C447.4,270.2,447.4,270.2,447.5,270.1z M415.5,260.7h-2c-0.1-0.1-0.2-0.1-0.3-0.2c-0.2-0.5-0.3-0.4-0.2-1c0.9,0.3,1.7,0.7,2.6,1
			V260.7z M421.3,259.2c-0.5-0.1-1-0.2-1.5-0.3c-0.6,0.8-1,1.4-1.7,2h-0.7c-0.1-0.1-0.1-0.2-0.2-0.3c0.6-0.8,1.2-1.1,1.4-2.4
			c0.9-0.3,1.8-0.6,2.7-0.9h0.7C421.7,257.9,421.5,258.6,421.3,259.2z M432.7,240.3c0.1-0.3,0.2-0.6,0.3-0.9
			c0.1,0.2,0.2,0.5,0.3,0.7C433.1,240.2,432.9,240.2,432.7,240.3z M450.4,231.1c-0.2-0.1-0.5-0.2-0.7-0.3c0.1-0.2,0.2-0.3,0.3-0.5
			c0.1,0.1,0.2,0.2,0.3,0.3V231.1z M369,295c-0.1,0.1-0.2,0.2-0.2,0.3c0.3,0.5,0.6,1.1,0.9,1.6h0.4C369.9,296,369.6,295.3,369,295z"
			/>
	</g>
	<g id="Shape_11_3_">
		<path fill-rule="evenodd" fill="#E0B1E3" d="M357.1,297.7c-1.5,1.5-3.6,2.8-6.3,3.1c-0.1,0.3-0.2,0.6-0.3,0.9
			c1.7,2.4,5,5.1,8.3,5.8c2,0.5,5.3-3.3,5.4-5.5C365.3,298.9,360,297.6,357.1,297.7z M385.1,291.7c0-0.7-1.1-3.6-1.5-3.6
			c-0.9-1.3-1.9-2.6-2.8-3.8c0-1.3-4.6-5.6-4.6-5.6c-1.2-2.1-2.4-4.3-3.6-6.4c0-2.9,2.6-4.5,2.6-7.7c-1.3-1.3-0.9-2.6-3.3-2.6
			c0-2.1,1.6-5.5,2.6-6.4c-0.1-0.3-0.2-0.5-0.3-0.8c-0.1-0.2-0.2-0.3-0.3-0.5c0-2.4-2.6-5.1-2.6-8.2c0-0.4,0.2-1-0.3-1
			c0-2.4,2.6-4.1,2.6-5.9c0.1-0.2,0.2-0.3,0.3-0.5c0-0.4-0.2-0.8,0.3-0.8c-0.2-1.1-0.3-2.2-0.5-3.3c-1.1-1.1-4.1-3.4-4.1-4.9
			c-4.1,0-9.7-4.5-9.7-7.9c-0.6-0.6-2.6-2.9-2.6-3.6c-0.8,0.1-1.5,0.2-2.3,0.3c0-2.3-3.1-0.4-3.1-1.5c-1.1,0.4-2.2,0.9-3.3,1.3
			c-0.4-0.4-4.2-1.8-4.9-1.8c-0.8-0.5-1.5-1-2.3-1.5c-0.3-0.6-0.7-1.2-1-1.8c-2,0.3-4.1,0.5-6.1,0.8c-1.9-1.9-3.9-1.5-6.9-1.5
			c-0.9-0.3-1.7-0.7-2.6-1c-0.3-0.2-0.5-0.3-0.8-0.5c-0.9,0-1.6,0.2-2.3-0.5c-1.8,0-1.5,2.8-1.5,4.6c-0.4,0-1.3,1.2-1.5,1.8
			c-1,0-3.6,4.5-3.6,5.6c-0.3,0.4-0.7,0.9-1,1.3c-5.6,0-6.3,10.7-11.2,10.7c-0.8-0.1-1.5-0.2-2.3-0.3l-1-1v-4.6
			c-1.3-1.3-3.1,0.2-3.1-2.6c-1.1,0-8.9,5.8-10.2,7.2c-2.1,0-10-0.9-10-2.6c-1.2,0.2-2.4,0.3-3.6,0.5c0,3.8-4.6,5.1-8.4,5.1
			c-0.1,0.4-0.2,0.9-0.3,1.3c1.5,0,5.5,4.9,8.7,4.9c-1.5,0.7-3.1,1.4-4.6,2c-2,1.4-4.1,2.9-6.1,4.3l0.1,0.2c0.5,0.1,0.9,0.2,1.4,0.3
			c0,0,0.1,0,0.1,0c0.5-0.5,0.4-0.8,1.3-1c-0.1,0.3-0.1,0.6-0.2,0.9c-1.2,1.7-6.1,2.3-8.7,2.6c0.1,2.2,3.9,5.9,6,3.6
			c-0.1-1.5,3.8-0.8,5.4-0.7c0.1-0.5,0.2-1,0.3-1.5c0.5-0.7,3.6-1.3,4.4-1.5c0.1,0.1,0.1,0.1,0.2,0.2c0.7,1.5,1.5,3,2.2,4.4
			c2.8,4.7,8.5,7.7,16,7.7c1.5,0,3.3,0.1,4.3-0.5c1-0.8,1.1-2.7,1.9-3.7c1.7-1.4,3.4-2.8,5.1-4.3c2.2,0.4,3.7,0.7,5.8-0.2
			c0.2,0.1,0.3,0.2,0.5,0.3c0,7-5.3,9.4-7.7,14.3c0,0.4-0.1,0.8-0.1,1.3c0.2,0,0.5,0,0.7,0c1.7,1.7,6.7,5.1,9.2,5.1
			c0,3.1,6,4.6,8.4,4.6c0,3.4,3.6,2.2,3.6,5.4c-0.9,1.4-1.7,2.7-2.6,4.1c-0.9,0.4-1.7,0.9-2.6,1.3c-4.4,0-8.1,7.5-12,9.6
			c3,0.1,6,0.6,8.3,1.7c1.9,0.9,2.6,3.4,4.4,4.4c0.9,0.5,2.3-2.1,3.1-2.9c4.7,0.9,9.4,1.7,14.1,2.6c0.5-0.5,0.9-1,1.4-1.5v-0.2
			c-0.3-2.1-2-2.8-2.7-4.4v-0.2c2.5-0.3,5-0.6,7.5-0.9c7.9-1.7,15.4-3,24.7-2.7c0.6-1.2,1.1-2.5,2.2-3.2c1.2,0.5,2.2,0.8,3.4,0.3
			h0.2c0.9,1.2,0.7,1.6,0.3,3.2c2.7,2.6,9.3-1.6,14.8-2.9C386.4,293.4,385.9,292.5,385.1,291.7z M312,255.4h-0.9
			c-0.3-0.5-0.4-0.4-0.3-1c0.4,0.1,0.8,0.1,1.2,0.2c0.2,0.1,0.3,0.2,0.5,0.3C312.3,255.1,312.2,255.3,312,255.4z M313.3,253.1
			c-0.7,0.2-1.4,0.3-2,0.5c-0.1-0.1-0.2-0.2-0.3-0.3c0.4-0.6,0.6-0.8,1.2-1.2c0.3,0.1,0.7,0.1,1,0.2c0.1,0.2,0.1,0.5,0.2,0.7V253.1z
			 M314,251.9c-0.2-0.1-0.3-0.2-0.5-0.3v-0.7c2-2.9,4.7-5.1,7.5-7.2c0.2,0.1,0.3,0.1,0.5,0.2C321,245.4,315.5,251,314,251.9z
			 M357.3,293.6c-1.5-0.2-2.7-1-3.1-2.4c1.2,0.2,2.3,1.1,3.1,1.9V293.6z M364.2,295.5c-0.2-0.5-0.5-0.9-0.7-1.4h0.9
			c0.2,0.5,0.5,0.9,0.7,1.4H364.2z M369,295c-0.3,0.3-0.6,0.7-0.9,1c0.1,0.2,0.1,0.3,0.2,0.5c0.3,0.1,0.6,0.2,0.9,0.3h0.9
			C369.9,296,369.6,295.3,369,295z"/>
	</g>
	<g id="Shape_9_3_">
		<path fill-rule="evenodd" fill="#FFBF7A" d="M403.9,131.1c-3.7-5.1-7.4-9.4-7.3-18.4c1.3-0.6,2.6-1.2,3.9-1.9
			c-0.3-0.7-6.6-4.1-8-6.1c-2.2-4.7-4.4-9.3-6.6-14c-3.5-4.8-10.5-5-16.3-7.5c-1.5-0.9-3-1.8-4.4-2.7c-0.7,0.3-0.7,0.3-1,1h-0.7
			c-0.7-4.5-2.7-8.5-4.3-12.3c-3.4-8.5-7-17.2-9.4-26.2c-1.3-5.1,0.4-12.5-1.5-17c-0.5-1.3-1.5-2.2-2.3-3.1c0.5,5.6-2.1,13.7-5,13.7
			c0,3.2-1.8,8.2-4.6,8.2c-0.3-0.3-0.5-0.5-0.8-0.8c-0.4,0.2-0.9,0.3-1.3,0.5c0,2.9-2.6,7-4.6,8.9c-0.7,0.7-4.3,2.5-4.3,2.8
			c0,0.4,2.2,2.6,2.6,2.6c0,6.7,5,10.6-0.3,15.9c-1.6,0-3.5-0.4-4.6,0.8c0,1.7-1,3.1-1,5.4c0.6,0.6,5.3,8.2,4.1,9.5
			c0,3.6-8.4,3.9-8.4,5.6c-0.9,0-3.6-1.3-3.6,0.3c-2.7,2.7,0,20.7,1.8,22.5c0.9,0,2-0.4,2-1.5c1.5,0,3.7,0.3,5.6,0.3
			c0-0.2,3.9-1,5.1-1c0.4,1.2,0.9,2.4,1.3,3.6c0.5,0.3,1,0.7,1.5,1c7.2,0,7.8,9.2,12.8,9.2c1.4-1.2,2.9-2.4,4.3-3.6
			c0.5,0.1,1,0.2,1.5,0.3c0,1.3-0.2,3.2,0.8,4.1c1.3,1.3,5.5,0.5,7.9,0.5c1.2,1.2,4.7,2.3,6.4,2.3c0.9,0.7,1.9,1.4,2.8,2
			c1.1,0,3.4-0.3,4.1-1c3.1,0,6.2,0.5,8.9,0.5c0.4-0.1,0.9-0.3,1.3-0.4c-1.1,0.2-2.4,0.2-3.3,0.2c-0.1-0.2-0.2-0.3-0.3-0.5
			c0.9-0.5,1.7-1,2.6-1.5c0.9,0.2,1.8,0.5,2.7,0.7c0.1,0.2,0.2,0.3,0.3,0.5c-0.2,0.2-0.6,0.3-1,0.5c0.1,0.4,1,0.8,1.8,1
			c-0.1,0-0.2-0.1-0.2-0.1v-0.2c0.8-0.4,1.4-0.8,1.9-1.5h1.4c0.1,0.1,0.2,0.1,0.3,0.2c0,0.1,0,0.1,0,0.2c0.7-0.3,1.5-0.4,2.2-0.4
			c0.2,0.2,2.2,1.1,3.4,1.6c-0.3-0.3-0.5-0.6-0.8-0.9c-0.1-0.2-0.1-0.3-0.2-0.5c0.3-0.1,0.7-0.1,1-0.2c0.1-0.6,0.1-0.7-0.2-1.2v-0.2
			h0.2c3.5,1.9,8.8,9.4,14.3,8C409.2,136.5,405.6,133.4,403.9,131.1z"/>
	</g>
</g>
</svg>
