<?xml version="1.0" encoding="UTF-8" standalone="no"?><!DOCTYPE svg PUBLIC "-//W3C//DTD SVG 1.1//EN" "http://www.w3.org/Graphics/SVG/1.1/DTD/svg11.dtd"><svg width="100%" height="100%" viewBox="0 0 768 796" version="1.1" xmlns="http://www.w3.org/2000/svg" xmlns:xlink="http://www.w3.org/1999/xlink" xml:space="preserve" xmlns:serif="http://www.serif.com/" style="fill-rule:evenodd;clip-rule:evenodd;stroke-linejoin:round;stroke-miterlimit:1.41421;"><rect x="2.817" y="11.761" width="761.641" height="780.78" style="fill:#c9e9ff;"/><path d="M1.254,794.104l0,-783.905l244.196,0l0,3.125l-241.071,0l0,777.655l758.516,0l0,-777.655l-236.098,0l0,-3.125l239.223,0l0,783.905l-764.766,0Z" style="fill:#4e79ff;"/><path d="M720.251,181.367l-442.038,0l-231.19,0l0,566.714l673.228,0l0,-566.714Z" style="fill:#ffdedf;"/><path d="M45.461,749.644l0,-569.84l232.939,0l0,3.125l-229.814,0l0,563.59l670.103,0l0,-563.59l-228.998,0l0,-3.125l232.123,0l0,569.84l-676.353,0Z" style="fill:#f03;"/><rect x="91.314" y="358.141" width="584.646" height="345.953" style="fill:#deffdf;"/><rect x="91.314" y="358.141" width="584.646" height="345.953" style="fill:#deffdf;"/><path d="M89.752,705.657l0,-349.078l242.419,0l0,3.125l-239.294,0l0,342.828l581.521,0l0,-342.828l-239.205,0l0,-3.125l242.33,0l0,349.078l-587.771,0Z" style="fill:#00aa35;"/><path d="M385.585,660.657l-6.25,0l0,-3.125l6.25,0l0,3.125Zm246.76,0l-3.01,0l0,-1.676l-0.115,0.114l0,-4.802l3.125,0l0,6.364Zm-446.76,0l-6.25,0l0,-3.125l6.25,0l0,3.125Zm437.5,0l-6.25,0l0,-3.125l6.25,0l0,3.125Zm-12.5,0l-6.25,0l0,-3.125l6.25,0l0,3.125Zm-12.5,0l-6.25,0l0,-3.125l6.25,0l0,3.125Zm-12.5,0l-6.25,0l0,-3.125l6.25,0l0,3.125Zm-12.5,0l-6.25,0l0,-3.125l6.25,0l0,3.125Zm-12.5,0l-6.25,0l0,-3.125l6.25,0l0,3.125Zm-12.5,0l-6.25,0l0,-3.125l6.25,0l0,3.125Zm-12.5,0l-6.25,0l0,-3.125l6.25,0l0,3.125Zm-12.5,0l-6.25,0l0,-3.125l6.25,0l0,3.125Zm-12.5,0l-6.25,0l0,-3.125l6.25,0l0,3.125Zm-12.5,0l-6.25,0l0,-3.125l6.25,0l0,3.125Zm-12.5,0l-6.25,0l0,-3.125l6.25,0l0,3.125Zm-12.5,0l-6.25,0l0,-3.125l6.25,0l0,3.125Zm-12.5,0l-6.25,0l0,-3.125l6.25,0l0,3.125Zm-12.5,0l-6.25,0l0,-3.125l6.25,0l0,3.125Zm-12.5,0l-6.25,0l0,-3.125l6.25,0l0,3.125Zm-12.5,0l-6.25,0l0,-3.125l6.25,0l0,3.125Zm-12.5,0l-6.25,0l0,-3.125l6.25,0l0,3.125Zm-12.5,0l-6.25,0l0,-3.125l6.25,0l0,3.125Zm-225,0l-6.25,0l0,-3.125l6.25,0l0,3.125Zm-12.5,0l-6.25,0l0,-3.125l6.25,0l0,3.125Zm-12.5,0l-6.25,0l0,-3.125l6.25,0l0,3.125Zm50,0l-6.25,0l0,-3.125l6.25,0l0,3.125Zm12.5,0l-6.25,0l0,-3.125l6.25,0l0,3.125Zm12.5,0l-6.25,0l0,-3.125l6.25,0l0,3.125Zm12.5,0l-6.25,0l0,-3.125l6.25,0l0,3.125Zm12.5,0l-6.25,0l0,-3.125l6.25,0l0,3.125Zm12.5,0l-6.25,0l0,-3.125l6.25,0l0,3.125Zm12.5,0l-6.25,0l0,-3.125l6.25,0l0,3.125Zm12.5,0l-6.25,0l0,-3.125l6.25,0l0,3.125Zm12.5,0l-6.25,0l0,-3.125l6.25,0l0,3.125Zm12.5,0l-6.25,0l0,-3.125l6.25,0l0,3.125Zm12.5,0l-6.25,0l0,-3.125l6.25,0l0,3.125Zm12.5,0l-6.25,0l0,-3.125l6.25,0l0,3.125Zm12.5,0l-6.25,0l0,-3.125l6.25,0l0,3.125Zm12.5,0l-6.25,0l0,-3.125l6.25,0l0,3.125Zm12.5,0l-6.25,0l0,-3.125l6.25,0l0,3.125Zm-235.031,-2.469l-3.125,0l0,-6.25l3.125,0l0,6.25Zm494.291,-10.145l-3.125,0l0,-6.25l3.125,0l0,6.25Zm-494.291,-2.355l-3.125,0l0,-6.25l3.125,0l0,6.25Zm494.291,-10.145l-3.125,0l0,-6.25l3.125,0l0,6.25Zm-494.291,-2.355l-3.125,0l0,-6.25l3.125,0l0,6.25Zm494.291,-10.145l-3.125,0l0,-6.25l3.125,0l0,6.25Zm-494.291,-2.355l-3.125,0l0,-6.25l3.125,0l0,6.25Zm494.291,-10.145l-3.125,0l0,-6.25l3.125,0l0,6.25Zm-494.291,-2.355l-3.125,0l0,-6.25l3.125,0l0,6.25Zm494.291,-10.145l-3.125,0l0,-6.25l3.125,0l0,6.25Zm-494.291,-2.355l-3.125,0l0,-6.25l3.125,0l0,6.25Zm494.291,-10.145l-3.125,0l0,-6.25l3.125,0l0,6.25Zm-494.291,-2.355l-3.125,0l0,-6.25l3.125,0l0,6.25Zm494.291,-10.145l-3.125,0l0,-6.25l3.125,0l0,6.25Zm-494.291,-2.355l-3.125,0l0,-6.25l3.125,0l0,6.25Zm494.291,-10.145l-3.125,0l0,-6.25l3.125,0l0,6.25Zm-494.291,-2.355l-3.125,0l0,-6.25l3.125,0l0,6.25Zm494.291,-10.145l-3.125,0l0,-6.25l3.125,0l0,6.25Zm-494.291,-2.355l-3.125,0l0,-6.25l3.125,0l0,6.25Zm494.291,-10.145l-3.125,0l0,-0.556l-2.569,0l0,-3.125l5.694,0l0,3.681Zm-314.367,-0.556l-6.25,0l0,-3.125l6.25,0l0,3.125Zm139.923,0l-6.25,0l0,-3.125l6.25,0l0,3.125Zm12.5,0l-6.25,0l0,-3.125l6.25,0l0,3.125Zm12.5,0l-6.25,0l0,-3.125l6.25,0l0,3.125Zm12.5,0l-6.25,0l0,-3.125l6.25,0l0,3.125Zm12.5,0l-6.25,0l0,-3.125l6.25,0l0,3.125Zm12.5,0l-6.25,0l0,-3.125l6.25,0l0,3.125Zm12.5,0l-6.25,0l0,-3.125l6.25,0l0,3.125Zm12.5,0l-6.25,0l0,-3.125l6.25,0l0,3.125Zm12.5,0l-6.25,0l0,-3.125l6.25,0l0,3.125Zm12.5,0l-6.25,0l0,-3.125l6.25,0l0,3.125Zm12.5,0l-6.25,0l0,-3.125l6.25,0l0,3.125Zm12.5,0l-6.25,0l0,-3.125l6.25,0l0,3.125Zm12.5,0l-6.25,0l0,-3.125l6.25,0l0,3.125Zm12.5,0l-6.25,0l0,-3.125l6.25,0l0,3.125Zm-339.923,0l-6.25,0l0,-3.125l6.25,0l0,3.125Zm-12.5,0l-6.25,0l0,-3.125l6.25,0l0,3.125Zm-12.5,0l-6.25,0l0,-3.125l6.25,0l0,3.125Zm-12.5,0l-6.25,0l0,-3.125l6.25,0l0,3.125Zm-100,0l-6.25,0l0,-3.125l6.25,0l0,3.125Zm12.5,0l-6.25,0l0,-3.125l6.25,0l0,3.125Zm12.5,0l-6.25,0l0,-3.125l6.25,0l0,3.125Zm12.5,0l-6.25,0l0,-3.125l6.25,0l0,3.125Zm12.5,0l-6.25,0l0,-3.125l6.25,0l0,3.125Zm12.5,0l-6.25,0l0,-3.125l6.25,0l0,3.125Zm12.5,0l-6.25,0l0,-3.125l6.25,0l0,3.125Zm12.5,0l-6.25,0l0,-3.125l6.25,0l0,3.125Zm62.5,0l-6.25,0l0,-3.125l6.25,0l0,3.125Zm12.5,0l-6.25,0l0,-3.125l6.25,0l0,3.125Z" style="fill:#00aa35;"/><text x="324.458px" y="541.617px" style="font-family:'Arial-BoldItalicMT', 'Arial', 'Helvetica', sans-serif;font-weight:700;font-style:italic;font-size:25px;fill:#00aa35;">Subgroup</text><text x="337.635px" y="365.583px" style="font-family:'Arial-BoldMT', 'Arial', 'Helvetica', sans-serif;font-weight:700;font-size:25px;fill:#00aa35;">GROUP</text><text x="287.739px" y="190.308px" style="font-family:'Arial-BoldMT', 'Arial', 'Helvetica', sans-serif;font-weight:700;font-size:25px;fill:#f03;">ORGANISA<tspan x="420.612px 435.883px " y="190.308px 190.308px ">TI</tspan>ON</text><text x="256.031px" y="18.201px" style="font-family:'Arial-BoldMT', 'Arial', 'Helvetica', sans-serif;font-weight:700;font-size:25px;fill:#4e79ff;">JOURNEY<tspan x="376.441px 383.387px " y="18.201px 18.201px "> 2</tspan> ENGLISH</text><g><path d="M349.887,63.143c0,-7.764 -6.304,-14.068 -14.068,-14.068l-274.727,0c-7.765,0 -14.069,6.304 -14.069,14.068l0,28.137c0,7.765 6.304,14.069 14.069,14.069l274.727,0c7.764,0 14.068,-6.304 14.068,-14.069l0,-28.137Z" style="fill:#fff;"/><path d="M335.92,47.513l0.1,0.001l0.101,0.001l0.1,0.003l0.101,0.002l0.1,0.004l0.1,0.004l0.1,0.005l0.099,0.005l0.1,0.006l0.099,0.007l0.099,0.007l0.099,0.008l0.099,0.008l0.099,0.01l0.098,0.009l0.099,0.011l0.101,0.011l0.193,0.023l0.195,0.026l0.194,0.029l0.194,0.031l0.193,0.033l0.192,0.035l0.191,0.038l0.191,0.041l0.189,0.042l0.189,0.045l0.188,0.047l0.187,0.049l0.186,0.052l0.185,0.054l0.184,0.056l0.183,0.058l0.182,0.061l0.181,0.062l0.181,0.065l0.179,0.067l0.178,0.069l0.177,0.071l0.176,0.073l0.175,0.076l0.173,0.077l0.173,0.079l0.171,0.082l0.171,0.083l0.169,0.085l0.168,0.088l0.167,0.089l0.165,0.091l0.164,0.094l0.163,0.095l0.162,0.097l0.161,0.099l0.159,0.1l0.158,0.103l0.156,0.104l0.156,0.107l0.153,0.108l0.153,0.11l0.151,0.111l0.15,0.114l0.148,0.115l0.147,0.117l0.145,0.118l0.144,0.12l0.143,0.122l0.141,0.124l0.139,0.125l0.138,0.127l0.137,0.129l0.134,0.13l0.134,0.132l0.131,0.133l0.131,0.135l0.128,0.136l0.127,0.138l0.125,0.14l0.124,0.141l0.122,0.142l0.12,0.144l0.119,0.146l0.116,0.146l0.116,0.149l0.113,0.149l0.112,0.151l0.109,0.153l0.109,0.154l0.106,0.155l0.104,0.157l0.103,0.157l0.101,0.16l0.099,0.16l0.096,0.162l0.096,0.163l0.093,0.164l0.091,0.166l0.089,0.166l0.088,0.168l0.085,0.17l0.084,0.17l0.081,0.171l0.079,0.173l0.078,0.174l0.075,0.175l0.073,0.175l0.071,0.177l0.069,0.179l0.067,0.179l0.065,0.18l0.063,0.181l0.06,0.182l0.058,0.183l0.056,0.185l0.054,0.185l0.052,0.186l0.049,0.187l0.047,0.187l0.045,0.189l0.043,0.19l0.04,0.19l0.038,0.191l0.035,0.192l0.034,0.193l0.031,0.194l0.028,0.194l0.026,0.195l0.024,0.194l0.011,0.101l0.01,0.098l0.01,0.098l0.009,0.099l0.008,0.099l0.008,0.099l0.007,0.099l0.007,0.1l0.006,0.099l0.005,0.1l0.005,0.1l0.004,0.1l0.004,0.1l0.003,0.1l0.002,0.1l0.002,0.101l0,0.101l0.001,0.098l0,28.142l-0.001,0.098l0,0.101l-0.002,0.101l-0.002,0.1l-0.003,0.1l-0.004,0.1l-0.004,0.1l-0.005,0.1l-0.005,0.1l-0.006,0.099l-0.007,0.099l-0.007,0.1l-0.008,0.099l-0.008,0.099l-0.009,0.098l-0.01,0.099l-0.01,0.098l-0.011,0.101l-0.024,0.193l-0.026,0.196l-0.028,0.194l-0.031,0.193l-0.034,0.193l-0.035,0.192l-0.038,0.192l-0.04,0.19l-0.043,0.19l-0.045,0.188l-0.047,0.188l-0.049,0.187l-0.052,0.186l-0.054,0.185l-0.056,0.184l-0.058,0.184l-0.06,0.182l-0.063,0.181l-0.065,0.18l-0.067,0.179l-0.069,0.178l-0.071,0.177l-0.073,0.176l-0.075,0.175l-0.078,0.174l-0.079,0.173l-0.081,0.171l-0.084,0.17l-0.085,0.169l-0.088,0.168l-0.089,0.167l-0.091,0.166l-0.093,0.164l-0.096,0.163l-0.096,0.162l-0.099,0.16l-0.101,0.159l-0.103,0.158l-0.104,0.157l-0.106,0.155l-0.109,0.154l-0.109,0.152l-0.112,0.151l-0.113,0.15l-0.116,0.148l-0.116,0.147l-0.119,0.146l-0.12,0.144l-0.122,0.142l-0.124,0.141l-0.125,0.14l-0.127,0.137l-0.128,0.137l-0.131,0.135l-0.131,0.133l-0.134,0.132l-0.134,0.13l-0.137,0.129l-0.138,0.126l-0.139,0.126l-0.141,0.123l-0.143,0.122l-0.144,0.121l-0.145,0.118l-0.147,0.117l-0.148,0.115l-0.15,0.113l-0.151,0.112l-0.153,0.11l-0.153,0.108l-0.156,0.106l-0.156,0.105l-0.158,0.102l-0.159,0.101l-0.161,0.099l-0.162,0.097l-0.163,0.095l-0.164,0.093l-0.165,0.092l-0.167,0.089l-0.168,0.087l-0.169,0.086l-0.171,0.083l-0.171,0.081l-0.173,0.08l-0.173,0.077l-0.175,0.075l-0.176,0.074l-0.177,0.071l-0.178,0.069l-0.179,0.067l-0.181,0.064l-0.181,0.063l-0.182,0.06l-0.183,0.059l-0.184,0.056l-0.185,0.054l-0.186,0.051l-0.187,0.05l-0.188,0.047l-0.189,0.045l-0.189,0.042l-0.191,0.04l-0.191,0.038l-0.192,0.036l-0.193,0.033l-0.194,0.031l-0.194,0.029l-0.195,0.026l-0.194,0.023l-0.1,0.011l-0.099,0.011l-0.098,0.009l-0.099,0.009l-0.099,0.009l-0.099,0.008l-0.099,0.007l-0.099,0.007l-0.1,0.006l-0.099,0.005l-0.1,0.005l-0.1,0.004l-0.1,0.003l-0.101,0.003l-0.1,0.002l-0.101,0.002l-0.1,0.001l-0.099,0l-274.732,0l-0.098,0l-0.101,-0.001l-0.101,-0.002l-0.1,-0.002l-0.1,-0.003l-0.1,-0.003l-0.1,-0.004l-0.1,-0.005l-0.1,-0.005l-0.099,-0.006l-0.1,-0.007l-0.099,-0.007l-0.099,-0.008l-0.099,-0.009l-0.099,-0.009l-0.098,-0.009l-0.098,-0.011l-0.101,-0.011l-0.194,-0.023l-0.195,-0.026l-0.194,-0.029l-0.194,-0.031l-0.193,-0.033l-0.192,-0.036l-0.191,-0.038l-0.19,-0.04l-0.19,-0.042l-0.189,-0.045l-0.187,-0.047l-0.187,-0.05l-0.186,-0.051l-0.185,-0.054l-0.185,-0.056l-0.183,-0.059l-0.182,-0.06l-0.181,-0.063l-0.18,-0.064l-0.179,-0.067l-0.178,-0.069l-0.177,-0.071l-0.176,-0.074l-0.175,-0.075l-0.174,-0.077l-0.173,-0.08l-0.171,-0.081l-0.17,-0.083l-0.169,-0.086l-0.168,-0.087l-0.167,-0.089l-0.166,-0.092l-0.164,-0.093l-0.163,-0.095l-0.162,-0.097l-0.16,-0.099l-0.159,-0.101l-0.158,-0.102l-0.157,-0.105l-0.155,-0.106l-0.154,-0.108l-0.152,-0.11l-0.152,-0.112l-0.149,-0.113l-0.149,-0.115l-0.146,-0.117l-0.146,-0.118l-0.144,-0.121l-0.142,-0.122l-0.141,-0.123l-0.14,-0.126l-0.138,-0.127l-0.136,-0.128l-0.135,-0.13l-0.133,-0.132l-0.132,-0.133l-0.13,-0.135l-0.129,-0.137l-0.127,-0.137l-0.125,-0.14l-0.124,-0.141l-0.121,-0.142l-0.121,-0.144l-0.118,-0.146l-0.117,-0.147l-0.115,-0.148l-0.114,-0.15l-0.111,-0.151l-0.11,-0.152l-0.108,-0.154l-0.106,-0.155l-0.105,-0.157l-0.103,-0.158l-0.1,-0.159l-0.099,-0.16l-0.097,-0.162l-0.095,-0.163l-0.093,-0.164l-0.092,-0.166l-0.089,-0.167l-0.087,-0.168l-0.086,-0.169l-0.083,-0.17l-0.082,-0.172l-0.079,-0.172l-0.077,-0.174l-0.076,-0.175l-0.073,-0.176l-0.071,-0.177l-0.069,-0.178l-0.067,-0.179l-0.065,-0.18l-0.062,-0.181l-0.061,-0.183l-0.058,-0.183l-0.056,-0.184l-0.054,-0.185l-0.051,-0.186l-0.05,-0.187l-0.047,-0.188l-0.045,-0.188l-0.042,-0.19l-0.041,-0.19l-0.038,-0.192l-0.035,-0.192l-0.033,-0.193l-0.031,-0.193l-0.029,-0.195l-0.026,-0.195l-0.023,-0.193l-0.011,-0.101l-0.011,-0.098l-0.009,-0.099l-0.009,-0.098l-0.009,-0.099l-0.008,-0.099l-0.007,-0.099l-0.007,-0.1l-0.006,-0.099l-0.005,-0.1l-0.005,-0.1l-0.004,-0.1l-0.003,-0.1l-0.003,-0.1l-0.003,-0.101l-0.001,-0.1l-0.001,-0.101l0,-0.098l0,-28.142l0,-0.098l0.001,-0.101l0.001,-0.101l0.003,-0.1l0.003,-0.1l0.003,-0.1l0.004,-0.1l0.005,-0.1l0.005,-0.1l0.006,-0.099l0.007,-0.1l0.007,-0.099l0.008,-0.099l0.009,-0.099l0.009,-0.099l0.009,-0.098l0.011,-0.099l0.011,-0.1l0.023,-0.194l0.026,-0.195l0.029,-0.194l0.031,-0.194l0.033,-0.193l0.035,-0.192l0.038,-0.191l0.041,-0.19l0.042,-0.19l0.045,-0.189l0.047,-0.187l0.05,-0.187l0.051,-0.186l0.054,-0.185l0.056,-0.185l0.058,-0.183l0.061,-0.182l0.062,-0.181l0.065,-0.18l0.067,-0.179l0.069,-0.179l0.071,-0.177l0.073,-0.175l0.076,-0.175l0.077,-0.174l0.079,-0.173l0.082,-0.171l0.083,-0.17l0.086,-0.17l0.087,-0.168l0.089,-0.166l0.092,-0.166l0.093,-0.164l0.095,-0.163l0.097,-0.162l0.099,-0.16l0.1,-0.16l0.103,-0.157l0.105,-0.157l0.106,-0.155l0.108,-0.154l0.11,-0.153l0.111,-0.151l0.114,-0.149l0.115,-0.149l0.117,-0.146l0.118,-0.146l0.121,-0.144l0.121,-0.142l0.124,-0.141l0.125,-0.14l0.127,-0.138l0.129,-0.136l0.13,-0.135l0.132,-0.133l0.133,-0.132l0.135,-0.13l0.136,-0.129l0.138,-0.127l0.14,-0.125l0.141,-0.124l0.142,-0.122l0.144,-0.12l0.146,-0.118l0.146,-0.117l0.149,-0.115l0.149,-0.114l0.152,-0.111l0.152,-0.11l0.154,-0.108l0.155,-0.107l0.157,-0.104l0.158,-0.103l0.159,-0.1l0.16,-0.099l0.162,-0.097l0.163,-0.095l0.164,-0.094l0.166,-0.091l0.167,-0.089l0.168,-0.087l0.169,-0.086l0.17,-0.083l0.171,-0.082l0.173,-0.079l0.174,-0.077l0.175,-0.076l0.176,-0.073l0.177,-0.071l0.178,-0.069l0.179,-0.067l0.18,-0.065l0.181,-0.062l0.182,-0.061l0.184,-0.058l0.184,-0.056l0.185,-0.054l0.186,-0.052l0.187,-0.049l0.187,-0.047l0.189,-0.045l0.19,-0.042l0.19,-0.041l0.191,-0.038l0.192,-0.035l0.193,-0.033l0.194,-0.031l0.194,-0.029l0.195,-0.026l0.194,-0.023l0.101,-0.011l0.098,-0.011l0.098,-0.009l0.099,-0.01l0.099,-0.008l0.099,-0.008l0.099,-0.007l0.1,-0.007l0.099,-0.006l0.1,-0.005l0.1,-0.005l0.1,-0.004l0.1,-0.004l0.1,-0.002l0.1,-0.003l0.101,-0.001l0.101,-0.001l0.098,0l274.732,0l0.099,0Zm-274.826,3.125l-0.083,0l-0.081,0.001l-0.081,0.001l-0.081,0.002l-0.08,0.002l-0.081,0.003l-0.08,0.003l-0.08,0.004l-0.08,0.004l-0.079,0.005l-0.08,0.005l-0.08,0.006l-0.079,0.006l-0.079,0.007l-0.079,0.007l-0.079,0.008l-0.079,0.008l-0.076,0.009l-0.159,0.019l-0.156,0.021l-0.155,0.023l-0.155,0.024l-0.154,0.027l-0.154,0.028l-0.153,0.031l-0.152,0.032l-0.151,0.034l-0.151,0.036l-0.15,0.037l-0.149,0.04l-0.149,0.041l-0.148,0.043l-0.147,0.045l-0.146,0.046l-0.145,0.049l-0.145,0.05l-0.144,0.051l-0.143,0.054l-0.142,0.055l-0.142,0.057l-0.14,0.058l-0.14,0.06l-0.139,0.062l-0.138,0.064l-0.137,0.065l-0.136,0.066l-0.135,0.069l-0.135,0.069l-0.133,0.072l-0.132,0.073l-0.132,0.074l-0.13,0.077l-0.13,0.077l-0.128,0.079l-0.127,0.081l-0.127,0.082l-0.125,0.084l-0.124,0.085l-0.124,0.086l-0.122,0.088l-0.121,0.09l-0.12,0.09l-0.118,0.093l-0.118,0.093l-0.116,0.095l-0.116,0.097l-0.114,0.097l-0.113,0.099l-0.112,0.101l-0.11,0.102l-0.11,0.103l-0.108,0.104l-0.107,0.105l-0.105,0.107l-0.104,0.108l-0.103,0.11l-0.102,0.11l-0.1,0.112l-0.1,0.113l-0.097,0.114l-0.097,0.115l-0.095,0.117l-0.093,0.118l-0.092,0.118l-0.091,0.12l-0.09,0.121l-0.088,0.122l-0.086,0.124l-0.085,0.124l-0.084,0.125l-0.082,0.127l-0.081,0.127l-0.079,0.128l-0.077,0.13l-0.076,0.13l-0.075,0.132l-0.073,0.132l-0.071,0.133l-0.07,0.135l-0.069,0.135l-0.066,0.136l-0.065,0.137l-0.064,0.138l-0.062,0.139l-0.06,0.14l-0.058,0.14l-0.057,0.142l-0.055,0.142l-0.054,0.143l-0.051,0.144l-0.05,0.145l-0.049,0.145l-0.046,0.146l-0.045,0.147l-0.043,0.148l-0.041,0.149l-0.04,0.149l-0.037,0.15l-0.036,0.151l-0.034,0.151l-0.032,0.152l-0.03,0.153l-0.029,0.154l-0.026,0.154l-0.025,0.154l-0.023,0.156l-0.021,0.156l-0.019,0.159l-0.008,0.076l-0.009,0.079l-0.007,0.079l-0.008,0.079l-0.007,0.079l-0.006,0.079l-0.006,0.08l-0.005,0.08l-0.005,0.079l-0.004,0.08l-0.004,0.08l-0.003,0.08l-0.003,0.081l-0.002,0.08l-0.002,0.081l-0.001,0.081l-0.001,0.08l0,0.084l0,28.132l0,0.083l0.001,0.081l0.001,0.081l0.002,0.081l0.002,0.08l0.003,0.08l0.003,0.081l0.004,0.08l0.004,0.079l0.005,0.08l0.005,0.08l0.006,0.079l0.006,0.08l0.007,0.079l0.008,0.079l0.007,0.079l0.009,0.079l0.008,0.076l0.019,0.159l0.021,0.156l0.023,0.155l0.025,0.155l0.026,0.154l0.029,0.154l0.03,0.152l0.032,0.153l0.034,0.151l0.036,0.151l0.037,0.15l0.04,0.149l0.041,0.149l0.043,0.147l0.045,0.147l0.046,0.147l0.049,0.145l0.05,0.145l0.051,0.144l0.054,0.143l0.055,0.142l0.057,0.142l0.058,0.14l0.06,0.14l0.062,0.139l0.064,0.138l0.065,0.137l0.066,0.136l0.069,0.135l0.07,0.134l0.071,0.134l0.073,0.132l0.075,0.131l0.076,0.131l0.077,0.129l0.079,0.129l0.081,0.127l0.082,0.127l0.084,0.125l0.085,0.124l0.086,0.123l0.088,0.122l0.09,0.121l0.091,0.12l0.092,0.119l0.093,0.118l0.095,0.116l0.097,0.116l0.097,0.114l0.1,0.113l0.1,0.112l0.102,0.11l0.103,0.109l0.104,0.108l0.105,0.107l0.107,0.106l0.108,0.104l0.11,0.103l0.11,0.102l0.112,0.1l0.113,0.099l0.114,0.098l0.116,0.096l0.116,0.095l0.118,0.094l0.118,0.092l0.12,0.091l0.121,0.089l0.122,0.088l0.124,0.087l0.124,0.085l0.125,0.084l0.127,0.082l0.127,0.08l0.128,0.08l0.13,0.077l0.13,0.076l0.132,0.075l0.132,0.073l0.133,0.071l0.135,0.07l0.135,0.068l0.136,0.067l0.137,0.065l0.138,0.064l0.139,0.061l0.14,0.06l0.14,0.059l0.142,0.057l0.142,0.055l0.143,0.053l0.144,0.052l0.145,0.05l0.145,0.048l0.146,0.047l0.147,0.045l0.148,0.043l0.149,0.041l0.149,0.039l0.15,0.038l0.151,0.036l0.151,0.034l0.152,0.032l0.153,0.03l0.154,0.029l0.154,0.026l0.155,0.025l0.155,0.023l0.156,0.021l0.159,0.019l0.076,0.008l0.079,0.009l0.079,0.007l0.079,0.008l0.079,0.006l0.079,0.007l0.08,0.005l0.08,0.006l0.079,0.005l0.08,0.004l0.08,0.004l0.08,0.003l0.081,0.003l0.08,0.002l0.081,0.002l0.081,0.001l0.081,0.001l0.083,0l274.722,0l0.084,0l0.081,-0.001l0.081,-0.001l0.08,-0.002l0.081,-0.002l0.08,-0.003l0.08,-0.003l0.08,-0.004l0.08,-0.004l0.08,-0.005l0.079,-0.006l0.08,-0.005l0.079,-0.007l0.079,-0.006l0.08,-0.008l0.078,-0.007l0.079,-0.009l0.076,-0.008l0.159,-0.019l0.156,-0.021l0.156,-0.023l0.155,-0.025l0.154,-0.026l0.153,-0.029l0.153,-0.03l0.152,-0.032l0.152,-0.034l0.15,-0.036l0.15,-0.038l0.15,-0.039l0.148,-0.041l0.148,-0.043l0.147,-0.045l0.146,-0.047l0.146,-0.048l0.144,-0.05l0.144,-0.052l0.143,-0.053l0.143,-0.055l0.141,-0.057l0.141,-0.059l0.139,-0.06l0.139,-0.061l0.138,-0.064l0.137,-0.065l0.136,-0.067l0.136,-0.068l0.134,-0.07l0.133,-0.071l0.133,-0.073l0.131,-0.075l0.13,-0.076l0.13,-0.077l0.128,-0.08l0.128,-0.08l0.126,-0.082l0.125,-0.084l0.125,-0.085l0.123,-0.087l0.122,-0.088l0.121,-0.089l0.12,-0.091l0.119,-0.092l0.117,-0.094l0.117,-0.095l0.115,-0.096l0.114,-0.098l0.113,-0.099l0.112,-0.1l0.111,-0.102l0.109,-0.103l0.108,-0.104l0.107,-0.106l0.106,-0.107l0.104,-0.108l0.103,-0.109l0.102,-0.111l0.1,-0.111l0.099,-0.113l0.098,-0.114l0.096,-0.116l0.095,-0.116l0.094,-0.118l0.092,-0.119l0.091,-0.119l0.089,-0.122l0.088,-0.122l0.087,-0.123l0.085,-0.124l0.083,-0.125l0.082,-0.127l0.081,-0.127l0.079,-0.129l0.078,-0.129l0.076,-0.131l0.074,-0.131l0.073,-0.132l0.072,-0.134l0.07,-0.134l0.068,-0.135l0.067,-0.136l0.065,-0.138l0.063,-0.137l0.062,-0.139l0.06,-0.14l0.059,-0.14l0.056,-0.142l0.055,-0.142l0.054,-0.143l0.052,-0.144l0.05,-0.145l0.048,-0.145l0.046,-0.147l0.045,-0.147l0.043,-0.147l0.041,-0.149l0.04,-0.149l0.038,-0.15l0.035,-0.151l0.034,-0.151l0.032,-0.152l0.031,-0.153l0.028,-0.154l0.027,-0.154l0.024,-0.155l0.023,-0.155l0.021,-0.156l0.019,-0.159l0.009,-0.076l0.008,-0.079l0.008,-0.079l0.007,-0.079l0.007,-0.079l0.006,-0.08l0.006,-0.079l0.005,-0.08l0.005,-0.08l0.004,-0.079l0.004,-0.08l0.004,-0.081l0.002,-0.08l0.003,-0.08l0.001,-0.081l0.002,-0.081l0,-0.081l0.001,-0.083l0,-28.132l-0.001,-0.084l0,-0.081l-0.002,-0.08l-0.001,-0.081l-0.003,-0.08l-0.002,-0.081l-0.004,-0.08l-0.004,-0.08l-0.004,-0.08l-0.005,-0.08l-0.005,-0.079l-0.006,-0.079l-0.006,-0.08l-0.007,-0.079l-0.007,-0.079l-0.008,-0.079l-0.008,-0.079l-0.009,-0.076l-0.019,-0.159l-0.021,-0.156l-0.023,-0.156l-0.024,-0.154l-0.027,-0.155l-0.028,-0.153l-0.031,-0.153l-0.032,-0.152l-0.034,-0.151l-0.035,-0.151l-0.038,-0.15l-0.04,-0.149l-0.041,-0.149l-0.043,-0.148l-0.045,-0.147l-0.046,-0.146l-0.048,-0.145l-0.05,-0.145l-0.052,-0.144l-0.054,-0.143l-0.055,-0.142l-0.056,-0.142l-0.059,-0.14l-0.06,-0.14l-0.062,-0.139l-0.063,-0.138l-0.065,-0.137l-0.067,-0.136l-0.068,-0.135l-0.07,-0.135l-0.072,-0.133l-0.073,-0.132l-0.074,-0.132l-0.076,-0.13l-0.078,-0.13l-0.079,-0.128l-0.081,-0.127l-0.082,-0.127l-0.083,-0.125l-0.085,-0.124l-0.087,-0.124l-0.088,-0.122l-0.089,-0.121l-0.091,-0.12l-0.092,-0.118l-0.094,-0.118l-0.095,-0.117l-0.096,-0.115l-0.098,-0.114l-0.099,-0.113l-0.1,-0.112l-0.102,-0.11l-0.103,-0.11l-0.104,-0.108l-0.106,-0.107l-0.107,-0.105l-0.108,-0.105l-0.109,-0.102l-0.111,-0.102l-0.112,-0.101l-0.113,-0.099l-0.114,-0.097l-0.115,-0.097l-0.117,-0.095l-0.117,-0.093l-0.119,-0.093l-0.12,-0.09l-0.121,-0.09l-0.122,-0.088l-0.123,-0.086l-0.125,-0.085l-0.125,-0.084l-0.126,-0.082l-0.128,-0.081l-0.128,-0.079l-0.13,-0.077l-0.13,-0.077l-0.131,-0.074l-0.133,-0.073l-0.133,-0.072l-0.134,-0.069l-0.136,-0.069l-0.136,-0.066l-0.137,-0.065l-0.138,-0.064l-0.139,-0.062l-0.139,-0.06l-0.141,-0.058l-0.141,-0.057l-0.143,-0.055l-0.143,-0.054l-0.144,-0.051l-0.144,-0.05l-0.146,-0.049l-0.146,-0.046l-0.147,-0.045l-0.148,-0.043l-0.148,-0.041l-0.15,-0.04l-0.15,-0.037l-0.15,-0.036l-0.152,-0.034l-0.152,-0.032l-0.153,-0.031l-0.153,-0.028l-0.154,-0.027l-0.155,-0.024l-0.156,-0.023l-0.156,-0.021l-0.159,-0.019l-0.076,-0.009l-0.079,-0.008l-0.079,-0.008l-0.079,-0.007l-0.079,-0.007l-0.079,-0.006l-0.08,-0.006l-0.079,-0.005l-0.08,-0.005l-0.08,-0.004l-0.08,-0.004l-0.08,-0.003l-0.08,-0.003l-0.081,-0.002l-0.081,-0.002l-0.08,-0.001l-0.081,-0.001l-0.084,0l-274.722,0Z"/><text x="114.367px" y="89.416px" style="font-family:'ArialMT', 'Arial', 'Helvetica', sans-serif;font-size:37.5px;">Administrator</text><path d="M101.19,76.412c0,11.419 -7.015,17.785 -11.433,19.626c-0.609,0.253 -1.295,0.253 -1.905,0c-5.524,-2.302 -11.432,-9.383 -11.432,-19.626c0,-0.998 0.603,-1.902 1.524,-2.286l9.908,-4.129c0.61,-0.253 1.296,-0.253 1.905,0l9.908,4.129c0.922,0.384 1.525,1.288 1.525,2.286Zm-12.385,16.426l0.003,0.002c4.837,-2.409 8.902,-8.066 9.073,-15.88l-9.076,-3.782l0,19.66Zm-11.707,-3.929l-16.905,0c-1.06,0 -1.92,-0.86 -1.92,-1.92l0,-5.599c0,-3.092 2.507,-5.598 5.599,-5.598l1.427,0c2.658,1.598 5.817,2 8.727,1.204c0.084,3.831 0.95,7.677 2.66,11.119c0.132,0.267 0.27,0.532 0.412,0.794Zm-1.179,-16.354c-1.345,1.027 -3.026,1.637 -4.849,1.637c-4.417,0 -7.998,-3.581 -7.998,-7.998c0,-4.417 3.581,-7.998 7.998,-7.998c4.417,0 7.998,3.581 7.998,7.998c0,2.568 -1.21,4.854 -3.092,6.317c-0.019,0.015 -0.038,0.03 -0.057,0.044Z"/></g><g><path d="M340.089,238.626c0,-7.765 -6.304,-14.069 -14.068,-14.069l-220.638,0c-7.765,0 -14.069,6.304 -14.069,14.069l0,28.137c0,7.764 6.304,14.068 14.069,14.068l220.638,0c7.764,0 14.068,-6.304 14.068,-14.068l0,-28.137Z" style="fill:#fff;"/><path d="M326.122,222.995l0.1,0.001l0.101,0.002l0.1,0.002l0.1,0.003l0.101,0.003l0.1,0.004l0.099,0.005l0.1,0.006l0.1,0.006l0.099,0.006l0.099,0.007l0.099,0.008l0.099,0.009l0.099,0.009l0.098,0.01l0.099,0.01l0.1,0.011l0.194,0.023l0.195,0.026l0.194,0.029l0.194,0.031l0.193,0.033l0.192,0.036l0.191,0.038l0.19,0.04l0.19,0.042l0.189,0.045l0.188,0.047l0.187,0.05l0.186,0.051l0.185,0.054l0.184,0.056l0.183,0.059l0.182,0.06l0.181,0.063l0.181,0.064l0.179,0.067l0.178,0.069l0.177,0.071l0.176,0.074l0.175,0.075l0.173,0.077l0.173,0.08l0.171,0.081l0.171,0.083l0.169,0.086l0.168,0.087l0.166,0.089l0.166,0.092l0.164,0.093l0.163,0.095l0.162,0.097l0.161,0.099l0.159,0.101l0.158,0.102l0.156,0.105l0.155,0.106l0.154,0.108l0.153,0.11l0.151,0.112l0.15,0.113l0.148,0.115l0.147,0.117l0.145,0.119l0.144,0.12l0.142,0.122l0.141,0.123l0.14,0.126l0.138,0.127l0.136,0.128l0.135,0.13l0.134,0.132l0.131,0.133l0.13,0.135l0.129,0.137l0.127,0.138l0.125,0.139l0.124,0.141l0.122,0.142l0.12,0.144l0.119,0.146l0.116,0.147l0.116,0.148l0.113,0.15l0.112,0.151l0.109,0.152l0.108,0.154l0.107,0.155l0.104,0.157l0.103,0.158l0.101,0.159l0.098,0.16l0.097,0.162l0.095,0.163l0.094,0.164l0.091,0.166l0.089,0.167l0.088,0.168l0.085,0.169l0.083,0.17l0.082,0.172l0.079,0.172l0.078,0.174l0.075,0.175l0.073,0.176l0.071,0.177l0.069,0.178l0.067,0.179l0.065,0.18l0.062,0.181l0.061,0.183l0.058,0.183l0.056,0.184l0.054,0.185l0.052,0.186l0.049,0.187l0.047,0.188l0.045,0.189l0.043,0.189l0.04,0.19l0.038,0.192l0.035,0.192l0.034,0.193l0.031,0.193l0.028,0.195l0.026,0.195l0.023,0.193l0.012,0.101l0.01,0.098l0.01,0.099l0.009,0.098l0.008,0.099l0.008,0.099l0.007,0.099l0.007,0.1l0.006,0.1l0.005,0.099l0.005,0.1l0.004,0.1l0.004,0.1l0.003,0.1l0.002,0.1l0.001,0.101l0.001,0.101l0.001,0.098l0,28.142l-0.001,0.098l-0.001,0.101l-0.001,0.101l-0.002,0.1l-0.003,0.1l-0.004,0.101l-0.004,0.1l-0.005,0.099l-0.005,0.1l-0.006,0.1l-0.007,0.099l-0.007,0.099l-0.008,0.099l-0.008,0.099l-0.009,0.099l-0.01,0.098l-0.01,0.098l-0.012,0.101l-0.023,0.194l-0.026,0.195l-0.028,0.194l-0.031,0.194l-0.034,0.193l-0.035,0.192l-0.038,0.191l-0.04,0.19l-0.043,0.19l-0.045,0.189l-0.047,0.188l-0.049,0.186l-0.052,0.186l-0.054,0.185l-0.056,0.185l-0.058,0.183l-0.061,0.182l-0.062,0.181l-0.065,0.18l-0.067,0.179l-0.069,0.179l-0.071,0.177l-0.073,0.176l-0.075,0.174l-0.078,0.174l-0.079,0.173l-0.082,0.171l-0.083,0.171l-0.085,0.169l-0.088,0.167l-0.089,0.167l-0.091,0.166l-0.093,0.164l-0.096,0.163l-0.097,0.162l-0.098,0.16l-0.101,0.16l-0.103,0.157l-0.104,0.157l-0.107,0.155l-0.108,0.154l-0.109,0.153l-0.112,0.151l-0.113,0.149l-0.116,0.149l-0.116,0.147l-0.119,0.145l-0.12,0.144l-0.122,0.142l-0.124,0.141l-0.125,0.14l-0.127,0.138l-0.129,0.136l-0.13,0.135l-0.131,0.133l-0.134,0.132l-0.135,0.13l-0.136,0.129l-0.138,0.127l-0.14,0.125l-0.141,0.124l-0.142,0.122l-0.144,0.12l-0.145,0.118l-0.147,0.117l-0.148,0.115l-0.15,0.114l-0.151,0.111l-0.153,0.11l-0.154,0.108l-0.155,0.107l-0.156,0.104l-0.158,0.103l-0.159,0.1l-0.161,0.099l-0.162,0.097l-0.163,0.095l-0.164,0.094l-0.166,0.091l-0.166,0.089l-0.168,0.087l-0.169,0.086l-0.171,0.083l-0.171,0.082l-0.173,0.079l-0.173,0.077l-0.175,0.076l-0.176,0.073l-0.177,0.071l-0.178,0.069l-0.179,0.067l-0.181,0.065l-0.181,0.062l-0.182,0.061l-0.183,0.058l-0.184,0.056l-0.185,0.054l-0.187,0.052l-0.186,0.049l-0.188,0.047l-0.189,0.045l-0.19,0.042l-0.19,0.041l-0.191,0.038l-0.192,0.035l-0.193,0.033l-0.194,0.031l-0.194,0.029l-0.195,0.026l-0.194,0.023l-0.1,0.012l-0.099,0.01l-0.098,0.01l-0.099,0.009l-0.099,0.008l-0.099,0.008l-0.099,0.007l-0.099,0.007l-0.1,0.006l-0.1,0.005l-0.099,0.005l-0.1,0.004l-0.101,0.004l-0.1,0.002l-0.1,0.003l-0.101,0.001l-0.1,0.001l-0.099,0.001l-220.643,0l-0.098,-0.001l-0.101,-0.001l-0.1,-0.001l-0.101,-0.003l-0.1,-0.002l-0.1,-0.004l-0.1,-0.004l-0.1,-0.005l-0.099,-0.005l-0.1,-0.006l-0.099,-0.007l-0.1,-0.007l-0.099,-0.008l-0.098,-0.008l-0.099,-0.009l-0.099,-0.01l-0.098,-0.01l-0.101,-0.012l-0.193,-0.023l-0.195,-0.026l-0.195,-0.029l-0.193,-0.031l-0.193,-0.033l-0.192,-0.035l-0.192,-0.038l-0.19,-0.041l-0.19,-0.042l-0.188,-0.045l-0.188,-0.047l-0.187,-0.049l-0.186,-0.052l-0.185,-0.054l-0.184,-0.056l-0.183,-0.058l-0.182,-0.061l-0.182,-0.062l-0.18,-0.065l-0.179,-0.067l-0.178,-0.069l-0.177,-0.071l-0.176,-0.073l-0.175,-0.076l-0.174,-0.077l-0.172,-0.079l-0.172,-0.082l-0.17,-0.083l-0.169,-0.086l-0.168,-0.087l-0.167,-0.089l-0.165,-0.091l-0.165,-0.094l-0.163,-0.095l-0.161,-0.097l-0.161,-0.099l-0.159,-0.1l-0.158,-0.103l-0.157,-0.104l-0.155,-0.107l-0.154,-0.108l-0.152,-0.11l-0.151,-0.111l-0.15,-0.114l-0.148,-0.115l-0.147,-0.117l-0.145,-0.118l-0.144,-0.12l-0.143,-0.122l-0.141,-0.124l-0.139,-0.125l-0.138,-0.127l-0.137,-0.129l-0.135,-0.13l-0.133,-0.132l-0.132,-0.133l-0.13,-0.135l-0.128,-0.136l-0.127,-0.138l-0.126,-0.14l-0.123,-0.141l-0.122,-0.142l-0.12,-0.144l-0.119,-0.145l-0.117,-0.147l-0.115,-0.149l-0.113,-0.149l-0.112,-0.151l-0.11,-0.153l-0.108,-0.154l-0.106,-0.155l-0.105,-0.157l-0.102,-0.157l-0.101,-0.16l-0.099,-0.16l-0.097,-0.162l-0.095,-0.163l-0.093,-0.164l-0.091,-0.166l-0.09,-0.166l-0.087,-0.168l-0.085,-0.17l-0.084,-0.17l-0.081,-0.171l-0.08,-0.173l-0.077,-0.174l-0.075,-0.174l-0.073,-0.176l-0.072,-0.177l-0.069,-0.179l-0.066,-0.179l-0.065,-0.18l-0.063,-0.181l-0.06,-0.182l-0.059,-0.183l-0.056,-0.185l-0.053,-0.185l-0.052,-0.186l-0.049,-0.187l-0.048,-0.187l-0.044,-0.189l-0.043,-0.19l-0.04,-0.19l-0.038,-0.191l-0.036,-0.192l-0.033,-0.193l-0.031,-0.194l-0.028,-0.194l-0.026,-0.195l-0.024,-0.194l-0.011,-0.1l-0.01,-0.099l-0.01,-0.098l-0.009,-0.099l-0.009,-0.099l-0.007,-0.099l-0.008,-0.099l-0.006,-0.1l-0.006,-0.099l-0.006,-0.1l-0.004,-0.1l-0.005,-0.099l-0.003,-0.101l-0.003,-0.1l-0.002,-0.1l-0.002,-0.101l-0.001,-0.101l0,-0.098l0,-28.142l0,-0.098l0.001,-0.101l0.002,-0.1l0.002,-0.101l0.003,-0.1l0.003,-0.1l0.005,-0.1l0.004,-0.1l0.006,-0.1l0.006,-0.099l0.006,-0.1l0.008,-0.099l0.007,-0.099l0.009,-0.099l0.009,-0.098l0.01,-0.099l0.01,-0.098l0.011,-0.101l0.024,-0.193l0.026,-0.195l0.028,-0.195l0.031,-0.193l0.033,-0.193l0.036,-0.192l0.038,-0.192l0.04,-0.19l0.043,-0.19l0.044,-0.188l0.048,-0.188l0.049,-0.187l0.052,-0.186l0.053,-0.185l0.056,-0.184l0.059,-0.183l0.06,-0.183l0.063,-0.181l0.065,-0.18l0.066,-0.179l0.069,-0.178l0.072,-0.177l0.073,-0.176l0.075,-0.175l0.077,-0.174l0.08,-0.172l0.081,-0.172l0.084,-0.17l0.085,-0.169l0.087,-0.168l0.09,-0.167l0.091,-0.166l0.093,-0.164l0.095,-0.163l0.097,-0.162l0.099,-0.16l0.101,-0.159l0.102,-0.158l0.105,-0.157l0.106,-0.155l0.108,-0.154l0.11,-0.152l0.112,-0.151l0.113,-0.15l0.115,-0.148l0.117,-0.147l0.119,-0.146l0.12,-0.143l0.122,-0.143l0.123,-0.141l0.126,-0.139l0.127,-0.138l0.128,-0.137l0.13,-0.135l0.132,-0.133l0.133,-0.132l0.135,-0.13l0.137,-0.128l0.138,-0.127l0.139,-0.126l0.141,-0.123l0.143,-0.122l0.143,-0.12l0.146,-0.119l0.147,-0.117l0.148,-0.115l0.15,-0.113l0.151,-0.112l0.152,-0.11l0.154,-0.108l0.155,-0.106l0.157,-0.105l0.158,-0.102l0.159,-0.101l0.16,-0.099l0.162,-0.097l0.163,-0.095l0.165,-0.093l0.165,-0.092l0.167,-0.089l0.168,-0.087l0.169,-0.086l0.17,-0.083l0.172,-0.081l0.172,-0.08l0.174,-0.077l0.175,-0.075l0.176,-0.074l0.177,-0.071l0.178,-0.069l0.179,-0.067l0.18,-0.064l0.181,-0.063l0.183,-0.06l0.183,-0.059l0.184,-0.056l0.185,-0.054l0.186,-0.051l0.187,-0.05l0.188,-0.047l0.189,-0.045l0.189,-0.042l0.19,-0.04l0.192,-0.038l0.192,-0.036l0.193,-0.033l0.193,-0.031l0.195,-0.029l0.195,-0.026l0.193,-0.023l0.101,-0.011l0.098,-0.01l0.099,-0.01l0.099,-0.009l0.098,-0.009l0.099,-0.008l0.1,-0.007l0.099,-0.006l0.099,-0.006l0.1,-0.006l0.1,-0.005l0.1,-0.004l0.1,-0.003l0.1,-0.003l0.101,-0.002l0.1,-0.002l0.101,-0.001l0.098,0l220.643,0l0.099,0Zm-220.737,3.125l-0.083,0l-0.081,0.001l-0.081,0.001l-0.08,0.002l-0.081,0.002l-0.08,0.003l-0.08,0.003l-0.08,0.004l-0.08,0.004l-0.08,0.005l-0.08,0.006l-0.079,0.005l-0.079,0.007l-0.08,0.006l-0.079,0.008l-0.079,0.008l-0.078,0.008l-0.076,0.008l-0.16,0.019l-0.156,0.021l-0.155,0.023l-0.155,0.025l-0.154,0.026l-0.154,0.029l-0.152,0.03l-0.152,0.032l-0.152,0.034l-0.151,0.036l-0.15,0.038l-0.149,0.039l-0.149,0.041l-0.147,0.043l-0.147,0.045l-0.147,0.047l-0.145,0.048l-0.145,0.05l-0.144,0.052l-0.143,0.053l-0.142,0.055l-0.141,0.057l-0.141,0.059l-0.14,0.06l-0.139,0.062l-0.137,0.063l-0.138,0.065l-0.136,0.067l-0.135,0.068l-0.134,0.07l-0.134,0.071l-0.132,0.073l-0.131,0.075l-0.131,0.076l-0.129,0.077l-0.129,0.08l-0.127,0.08l-0.126,0.082l-0.126,0.084l-0.124,0.085l-0.123,0.087l-0.122,0.088l-0.121,0.089l-0.12,0.091l-0.119,0.092l-0.118,0.094l-0.116,0.095l-0.115,0.096l-0.115,0.098l-0.113,0.099l-0.111,0.1l-0.111,0.102l-0.109,0.103l-0.108,0.104l-0.107,0.106l-0.106,0.107l-0.104,0.108l-0.103,0.109l-0.102,0.111l-0.1,0.111l-0.099,0.113l-0.098,0.114l-0.096,0.116l-0.095,0.116l-0.094,0.118l-0.092,0.119l-0.091,0.12l-0.089,0.121l-0.088,0.122l-0.087,0.123l-0.085,0.124l-0.084,0.125l-0.082,0.127l-0.08,0.127l-0.079,0.129l-0.078,0.129l-0.076,0.131l-0.075,0.131l-0.073,0.132l-0.071,0.134l-0.07,0.134l-0.068,0.135l-0.067,0.136l-0.065,0.137l-0.063,0.138l-0.062,0.139l-0.06,0.14l-0.059,0.141l-0.057,0.141l-0.055,0.142l-0.053,0.143l-0.052,0.144l-0.05,0.145l-0.048,0.145l-0.047,0.147l-0.045,0.147l-0.042,0.147l-0.042,0.149l-0.039,0.149l-0.038,0.15l-0.036,0.151l-0.034,0.151l-0.032,0.153l-0.03,0.152l-0.029,0.154l-0.026,0.154l-0.025,0.155l-0.023,0.155l-0.02,0.156l-0.02,0.159l-0.008,0.077l-0.008,0.078l-0.008,0.079l-0.007,0.079l-0.007,0.079l-0.007,0.08l-0.005,0.079l-0.006,0.08l-0.004,0.079l-0.005,0.08l-0.004,0.08l-0.003,0.081l-0.003,0.08l-0.002,0.08l-0.002,0.081l-0.001,0.081l-0.001,0.081l0,0.083l0,28.132l0,0.084l0.001,0.081l0.001,0.08l0.002,0.081l0.002,0.08l0.003,0.081l0.003,0.08l0.004,0.08l0.005,0.08l0.004,0.08l0.006,0.079l0.005,0.08l0.007,0.079l0.007,0.079l0.007,0.079l0.008,0.079l0.008,0.079l0.008,0.076l0.02,0.159l0.02,0.156l0.023,0.156l0.025,0.154l0.026,0.155l0.029,0.153l0.03,0.153l0.032,0.152l0.034,0.151l0.036,0.151l0.038,0.15l0.039,0.149l0.041,0.149l0.044,0.148l0.044,0.147l0.047,0.146l0.048,0.145l0.05,0.145l0.052,0.144l0.053,0.143l0.055,0.142l0.057,0.142l0.059,0.14l0.06,0.14l0.062,0.139l0.063,0.138l0.065,0.137l0.067,0.136l0.068,0.135l0.07,0.135l0.071,0.133l0.073,0.132l0.075,0.132l0.076,0.13l0.078,0.13l0.079,0.128l0.08,0.127l0.082,0.127l0.084,0.125l0.085,0.124l0.087,0.124l0.088,0.122l0.089,0.121l0.091,0.12l0.092,0.118l0.094,0.118l0.095,0.117l0.096,0.115l0.098,0.114l0.099,0.113l0.1,0.112l0.102,0.11l0.103,0.11l0.104,0.108l0.106,0.107l0.107,0.105l0.108,0.105l0.109,0.102l0.111,0.102l0.111,0.101l0.113,0.099l0.115,0.097l0.115,0.097l0.116,0.095l0.118,0.093l0.119,0.093l0.12,0.09l0.121,0.09l0.122,0.088l0.123,0.086l0.124,0.085l0.126,0.084l0.126,0.082l0.127,0.081l0.129,0.079l0.129,0.077l0.131,0.077l0.131,0.074l0.132,0.073l0.134,0.072l0.134,0.069l0.135,0.069l0.136,0.066l0.138,0.065l0.138,0.064l0.138,0.062l0.14,0.06l0.141,0.058l0.141,0.057l0.142,0.055l0.143,0.054l0.144,0.051l0.145,0.05l0.145,0.049l0.147,0.046l0.147,0.045l0.148,0.043l0.148,0.041l0.149,0.04l0.15,0.037l0.151,0.036l0.152,0.034l0.152,0.032l0.152,0.031l0.154,0.028l0.154,0.027l0.155,0.024l0.155,0.023l0.156,0.021l0.16,0.019l0.076,0.009l0.078,0.008l0.079,0.008l0.079,0.007l0.079,0.007l0.08,0.006l0.079,0.006l0.08,0.005l0.08,0.005l0.08,0.004l0.08,0.004l0.08,0.003l0.08,0.003l0.081,0.002l0.08,0.002l0.081,0.001l0.081,0.001l0.083,0.001l220.633,0l0.084,-0.001l0.081,-0.001l0.08,-0.001l0.081,-0.002l0.081,-0.002l0.08,-0.003l0.08,-0.003l0.08,-0.004l0.08,-0.004l0.08,-0.005l0.079,-0.005l0.08,-0.006l0.079,-0.006l0.079,-0.007l0.079,-0.007l0.079,-0.008l0.079,-0.008l0.076,-0.009l0.159,-0.019l0.156,-0.021l0.156,-0.023l0.155,-0.024l0.154,-0.027l0.153,-0.028l0.153,-0.031l0.152,-0.032l0.152,-0.034l0.15,-0.036l0.15,-0.037l0.15,-0.04l0.148,-0.041l0.148,-0.043l0.147,-0.045l0.146,-0.046l0.146,-0.049l0.144,-0.05l0.144,-0.051l0.143,-0.054l0.143,-0.055l0.141,-0.057l0.141,-0.058l0.139,-0.06l0.139,-0.062l0.138,-0.064l0.137,-0.065l0.136,-0.066l0.135,-0.069l0.135,-0.069l0.133,-0.072l0.133,-0.073l0.131,-0.074l0.13,-0.077l0.13,-0.077l0.128,-0.079l0.128,-0.081l0.126,-0.082l0.125,-0.084l0.125,-0.085l0.123,-0.086l0.122,-0.088l0.121,-0.09l0.12,-0.09l0.119,-0.093l0.117,-0.093l0.117,-0.095l0.115,-0.097l0.114,-0.097l0.113,-0.099l0.112,-0.101l0.111,-0.102l0.109,-0.103l0.108,-0.104l0.107,-0.105l0.105,-0.107l0.105,-0.108l0.103,-0.11l0.101,-0.11l0.101,-0.112l0.099,-0.113l0.098,-0.114l0.096,-0.115l0.095,-0.117l0.094,-0.118l0.092,-0.118l0.091,-0.12l0.089,-0.121l0.088,-0.122l0.086,-0.124l0.086,-0.124l0.083,-0.125l0.082,-0.127l0.081,-0.127l0.079,-0.128l0.078,-0.13l0.076,-0.13l0.074,-0.132l0.073,-0.132l0.072,-0.133l0.07,-0.135l0.068,-0.135l0.067,-0.136l0.065,-0.137l0.063,-0.138l0.062,-0.139l0.06,-0.14l0.058,-0.14l0.057,-0.142l0.055,-0.142l0.054,-0.143l0.052,-0.144l0.05,-0.144l0.048,-0.146l0.046,-0.146l0.045,-0.147l0.043,-0.148l0.041,-0.149l0.04,-0.149l0.037,-0.15l0.036,-0.151l0.034,-0.151l0.032,-0.152l0.031,-0.153l0.028,-0.153l0.027,-0.155l0.024,-0.154l0.023,-0.156l0.021,-0.156l0.019,-0.159l0.009,-0.076l0.008,-0.079l0.008,-0.079l0.007,-0.079l0.007,-0.079l0.006,-0.079l0.006,-0.08l0.005,-0.08l0.005,-0.079l0.004,-0.08l0.004,-0.08l0.003,-0.08l0.003,-0.081l0.003,-0.08l0.001,-0.081l0.002,-0.08l0,-0.081l0.001,-0.084l0,-28.132l-0.001,-0.083l0,-0.081l-0.002,-0.081l-0.001,-0.081l-0.003,-0.08l-0.003,-0.08l-0.003,-0.08l-0.004,-0.081l-0.004,-0.08l-0.005,-0.079l-0.005,-0.08l-0.006,-0.079l-0.006,-0.08l-0.007,-0.079l-0.007,-0.079l-0.008,-0.079l-0.008,-0.079l-0.009,-0.075l-0.019,-0.16l-0.021,-0.156l-0.023,-0.155l-0.024,-0.155l-0.027,-0.154l-0.028,-0.154l-0.031,-0.152l-0.032,-0.152l-0.034,-0.152l-0.036,-0.151l-0.037,-0.15l-0.04,-0.149l-0.041,-0.149l-0.043,-0.147l-0.045,-0.147l-0.046,-0.147l-0.048,-0.145l-0.05,-0.145l-0.052,-0.144l-0.054,-0.143l-0.055,-0.142l-0.057,-0.141l-0.058,-0.141l-0.06,-0.14l-0.062,-0.139l-0.063,-0.138l-0.065,-0.137l-0.067,-0.136l-0.068,-0.135l-0.07,-0.134l-0.072,-0.134l-0.073,-0.132l-0.074,-0.131l-0.076,-0.131l-0.078,-0.129l-0.079,-0.129l-0.081,-0.127l-0.082,-0.127l-0.083,-0.125l-0.086,-0.124l-0.086,-0.123l-0.088,-0.122l-0.089,-0.121l-0.091,-0.12l-0.092,-0.119l-0.094,-0.118l-0.095,-0.116l-0.096,-0.116l-0.098,-0.114l-0.099,-0.113l-0.101,-0.112l-0.101,-0.11l-0.103,-0.109l-0.105,-0.109l-0.105,-0.106l-0.107,-0.106l-0.108,-0.104l-0.109,-0.103l-0.111,-0.102l-0.112,-0.1l-0.113,-0.099l-0.114,-0.098l-0.115,-0.096l-0.117,-0.095l-0.117,-0.094l-0.119,-0.092l-0.12,-0.091l-0.121,-0.089l-0.122,-0.088l-0.123,-0.087l-0.125,-0.085l-0.125,-0.084l-0.126,-0.082l-0.128,-0.08l-0.128,-0.08l-0.13,-0.077l-0.13,-0.076l-0.131,-0.075l-0.133,-0.073l-0.133,-0.071l-0.134,-0.07l-0.136,-0.068l-0.136,-0.067l-0.137,-0.065l-0.138,-0.064l-0.139,-0.061l-0.139,-0.06l-0.141,-0.059l-0.141,-0.057l-0.143,-0.055l-0.143,-0.053l-0.144,-0.052l-0.144,-0.05l-0.146,-0.048l-0.146,-0.047l-0.147,-0.045l-0.148,-0.043l-0.149,-0.041l-0.149,-0.039l-0.15,-0.038l-0.15,-0.036l-0.152,-0.034l-0.152,-0.032l-0.153,-0.03l-0.153,-0.029l-0.154,-0.026l-0.155,-0.025l-0.156,-0.023l-0.156,-0.021l-0.159,-0.019l-0.076,-0.008l-0.079,-0.008l-0.079,-0.008l-0.079,-0.008l-0.079,-0.006l-0.079,-0.007l-0.08,-0.005l-0.079,-0.006l-0.08,-0.005l-0.08,-0.004l-0.08,-0.004l-0.08,-0.003l-0.08,-0.003l-0.081,-0.002l-0.081,-0.002l-0.08,-0.001l-0.081,-0.001l-0.084,0l-220.633,0Z"/><text x="151.945px" y="267.983px" style="font-family:'ArialMT', 'Arial', 'Helvetica', sans-serif;font-size:37.5px;">Moderator</text><path d="M131.898,249.383l-3.059,6.202l-6.844,0.993c-1.228,0.178 -1.719,1.691 -0.829,2.558l4.951,4.825l-1.171,6.816c-0.211,1.222 1.077,2.155 2.173,1.578l6.123,-3.213l6.122,3.218c1.092,0.576 2.385,-0.351 2.174,-1.579l-1.171,-6.815l4.951,-4.825c0.89,-0.867 0.398,-2.38 -0.829,-2.558l-6.844,-0.998l-3.059,-6.202c-0.548,-1.11 -2.136,-1.115 -2.688,0Zm-8.407,15.683l-19.007,0c-1.06,0 -1.92,-0.859 -1.92,-1.92l0,-5.598c0,-3.092 2.507,-5.599 5.599,-5.599l1.428,0c3.548,2.134 7.992,2.135 11.541,0l1.428,0c1.505,0 2.871,0.594 3.877,1.559l-4.792,0.696c-0.873,0.13 -1.699,0.559 -2.297,1.207c-1.269,1.377 -1.332,3.589 -0.239,5.015c0.162,0.212 0.378,0.426 0.378,0.426l4.05,3.947l-0.046,0.267Zm-16.128,-22.715c0,-4.417 3.581,-7.998 7.999,-7.998c4.417,0 7.998,3.581 7.998,7.998c0,4.418 -3.581,7.998 -7.998,7.998c-4.418,0 -7.999,-3.58 -7.999,-7.998Z"/></g><g><rect x="89.752" y="105.349" width="3.125" height="84.268"/><path d="M91.314,189.617l-4.938,-14.31l9.877,0l-4.939,14.31Z"/><path d="M91.314,194.406l-7.13,-20.662l14.261,0l-7.131,20.662Zm-2.746,-17.537l2.746,7.958l2.746,-7.958l-5.492,0Z"/></g><g><rect x="131.114" y="280.758" width="3.125" height="84.268"/><path d="M132.677,365.026l-4.938,-14.31l9.876,0l-4.938,14.31Z"/><path d="M132.677,369.816l-7.13,-20.662l14.26,0l-7.13,20.662Zm-2.746,-17.537l2.746,7.957l2.746,-7.957l-5.492,0Z"/></g><g><rect x="177.19" y="455.027" width="3.125" height="84.268"/><path d="M178.753,539.295l-4.939,-14.31l9.877,0l-4.938,14.31Z"/><path d="M178.753,544.085l-7.131,-20.662l14.261,0l-7.13,20.662Zm-2.746,-17.537l2.746,7.957l2.746,-7.957l-5.492,0Z"/></g><g><path d="M288.427,412.458c0,-7.765 -6.304,-14.069 -14.069,-14.069l-132.551,0c-7.764,0 -14.068,6.304 -14.068,14.069l0,28.137c0,7.764 6.304,14.068 14.068,14.068l132.551,0c7.765,0 14.069,-6.304 14.069,-14.068l0,-28.137Z" style="fill:#fff;"/><path d="M274.459,396.827l0.101,0.001l0.1,0.002l0.101,0.002l0.1,0.003l0.1,0.003l0.1,0.005l0.1,0.004l0.099,0.006l0.1,0.006l0.1,0.006l0.099,0.008l0.099,0.007l0.099,0.009l0.098,0.009l0.099,0.01l0.098,0.01l0.101,0.011l0.193,0.024l0.195,0.026l0.195,0.028l0.193,0.031l0.193,0.033l0.192,0.036l0.192,0.038l0.19,0.04l0.189,0.043l0.189,0.044l0.188,0.048l0.187,0.049l0.186,0.052l0.185,0.053l0.184,0.057l0.183,0.058l0.183,0.06l0.181,0.063l0.18,0.065l0.179,0.067l0.178,0.069l0.177,0.071l0.176,0.073l0.175,0.075l0.174,0.077l0.172,0.08l0.172,0.081l0.17,0.084l0.169,0.085l0.168,0.087l0.167,0.09l0.166,0.091l0.164,0.093l0.163,0.095l0.161,0.097l0.161,0.099l0.159,0.101l0.158,0.102l0.157,0.105l0.155,0.106l0.154,0.108l0.152,0.11l0.151,0.112l0.15,0.113l0.148,0.115l0.147,0.117l0.146,0.119l0.144,0.12l0.142,0.122l0.141,0.123l0.14,0.126l0.137,0.127l0.137,0.128l0.135,0.13l0.133,0.132l0.132,0.133l0.13,0.135l0.128,0.137l0.127,0.138l0.126,0.139l0.123,0.141l0.122,0.143l0.12,0.144l0.119,0.145l0.117,0.147l0.115,0.148l0.113,0.15l0.112,0.151l0.11,0.152l0.108,0.154l0.106,0.155l0.105,0.157l0.102,0.158l0.101,0.159l0.099,0.161l0.097,0.161l0.095,0.163l0.093,0.165l0.091,0.165l0.09,0.167l0.087,0.168l0.086,0.169l0.083,0.17l0.081,0.172l0.08,0.172l0.077,0.174l0.075,0.175l0.073,0.176l0.072,0.177l0.069,0.178l0.067,0.179l0.064,0.18l0.063,0.181l0.06,0.183l0.059,0.183l0.056,0.184l0.054,0.185l0.051,0.186l0.05,0.187l0.047,0.188l0.045,0.189l0.042,0.189l0.04,0.191l0.038,0.191l0.036,0.192l0.033,0.193l0.031,0.193l0.028,0.195l0.027,0.195l0.023,0.193l0.011,0.101l0.01,0.098l0.01,0.099l0.009,0.099l0.009,0.098l0.008,0.1l0.007,0.099l0.006,0.099l0.006,0.099l0.006,0.1l0.005,0.1l0.004,0.1l0.003,0.1l0.003,0.1l0.002,0.101l0.002,0.1l0.001,0.101l0,0.098l0,28.142l0,0.098l-0.001,0.101l-0.002,0.101l-0.002,0.1l-0.003,0.101l-0.003,0.1l-0.004,0.099l-0.005,0.101l-0.006,0.099l-0.006,0.1l-0.006,0.099l-0.007,0.099l-0.008,0.099l-0.009,0.099l-0.009,0.099l-0.01,0.099l-0.01,0.098l-0.011,0.1l-0.023,0.194l-0.027,0.195l-0.028,0.194l-0.031,0.194l-0.033,0.193l-0.036,0.192l-0.038,0.191l-0.04,0.19l-0.042,0.19l-0.045,0.189l-0.047,0.188l-0.05,0.187l-0.051,0.185l-0.054,0.186l-0.056,0.184l-0.059,0.183l-0.06,0.182l-0.063,0.181l-0.064,0.181l-0.067,0.179l-0.069,0.178l-0.072,0.177l-0.073,0.176l-0.075,0.174l-0.077,0.174l-0.08,0.173l-0.081,0.171l-0.083,0.171l-0.086,0.169l-0.087,0.168l-0.09,0.167l-0.091,0.165l-0.093,0.164l-0.095,0.163l-0.097,0.162l-0.099,0.161l-0.101,0.159l-0.102,0.158l-0.105,0.156l-0.106,0.155l-0.108,0.154l-0.11,0.153l-0.112,0.151l-0.113,0.15l-0.115,0.148l-0.117,0.147l-0.119,0.145l-0.12,0.144l-0.122,0.143l-0.123,0.14l-0.126,0.14l-0.127,0.138l-0.128,0.136l-0.13,0.135l-0.132,0.134l-0.133,0.131l-0.135,0.13l-0.137,0.129l-0.138,0.127l-0.139,0.125l-0.141,0.124l-0.142,0.122l-0.144,0.12l-0.146,0.119l-0.147,0.116l-0.148,0.116l-0.15,0.113l-0.151,0.112l-0.152,0.109l-0.154,0.108l-0.155,0.107l-0.157,0.104l-0.158,0.103l-0.159,0.101l-0.161,0.098l-0.161,0.097l-0.163,0.096l-0.165,0.093l-0.165,0.091l-0.167,0.089l-0.168,0.088l-0.169,0.085l-0.17,0.083l-0.172,0.082l-0.172,0.079l-0.174,0.078l-0.175,0.075l-0.176,0.073l-0.177,0.071l-0.178,0.069l-0.179,0.067l-0.18,0.065l-0.181,0.062l-0.183,0.061l-0.183,0.058l-0.184,0.056l-0.185,0.054l-0.186,0.052l-0.187,0.049l-0.188,0.047l-0.188,0.045l-0.19,0.043l-0.19,0.04l-0.192,0.038l-0.192,0.035l-0.193,0.034l-0.193,0.031l-0.195,0.028l-0.195,0.026l-0.193,0.023l-0.101,0.012l-0.098,0.01l-0.099,0.01l-0.098,0.009l-0.099,0.008l-0.099,0.008l-0.1,0.007l-0.099,0.007l-0.099,0.006l-0.1,0.005l-0.1,0.005l-0.1,0.004l-0.1,0.004l-0.1,0.003l-0.101,0.002l-0.1,0.001l-0.101,0.001l-0.098,0.001l-132.556,0l-0.099,-0.001l-0.1,-0.001l-0.101,-0.001l-0.1,-0.002l-0.1,-0.003l-0.101,-0.004l-0.1,-0.004l-0.099,-0.005l-0.1,-0.005l-0.1,-0.006l-0.099,-0.007l-0.099,-0.007l-0.099,-0.008l-0.099,-0.008l-0.099,-0.009l-0.098,-0.01l-0.099,-0.01l-0.101,-0.012l-0.193,-0.023l-0.195,-0.026l-0.194,-0.028l-0.194,-0.031l-0.193,-0.034l-0.192,-0.035l-0.191,-0.038l-0.19,-0.04l-0.19,-0.043l-0.189,-0.045l-0.188,-0.047l-0.187,-0.049l-0.186,-0.052l-0.185,-0.054l-0.184,-0.056l-0.183,-0.058l-0.182,-0.061l-0.181,-0.062l-0.18,-0.065l-0.18,-0.067l-0.178,-0.069l-0.177,-0.071l-0.176,-0.073l-0.175,-0.075l-0.173,-0.078l-0.173,-0.079l-0.171,-0.082l-0.171,-0.083l-0.169,-0.085l-0.168,-0.088l-0.166,-0.089l-0.166,-0.091l-0.164,-0.093l-0.163,-0.096l-0.162,-0.097l-0.161,-0.098l-0.159,-0.101l-0.158,-0.103l-0.156,-0.104l-0.155,-0.107l-0.154,-0.108l-0.153,-0.109l-0.151,-0.112l-0.15,-0.113l-0.148,-0.116l-0.147,-0.116l-0.145,-0.119l-0.144,-0.12l-0.143,-0.122l-0.141,-0.124l-0.139,-0.125l-0.138,-0.127l-0.136,-0.129l-0.135,-0.13l-0.134,-0.131l-0.131,-0.134l-0.13,-0.135l-0.129,-0.136l-0.127,-0.138l-0.125,-0.14l-0.124,-0.14l-0.122,-0.143l-0.12,-0.144l-0.119,-0.145l-0.116,-0.147l-0.116,-0.148l-0.113,-0.15l-0.112,-0.151l-0.109,-0.153l-0.109,-0.154l-0.106,-0.155l-0.104,-0.156l-0.103,-0.158l-0.101,-0.159l-0.098,-0.161l-0.097,-0.162l-0.096,-0.163l-0.093,-0.164l-0.091,-0.165l-0.089,-0.167l-0.088,-0.168l-0.085,-0.169l-0.083,-0.171l-0.082,-0.171l-0.079,-0.173l-0.078,-0.173l-0.075,-0.175l-0.073,-0.176l-0.071,-0.177l-0.069,-0.178l-0.067,-0.179l-0.065,-0.181l-0.062,-0.181l-0.061,-0.182l-0.058,-0.183l-0.056,-0.184l-0.054,-0.185l-0.052,-0.186l-0.049,-0.187l-0.047,-0.188l-0.045,-0.189l-0.043,-0.189l-0.04,-0.191l-0.038,-0.191l-0.035,-0.192l-0.034,-0.193l-0.031,-0.194l-0.028,-0.194l-0.026,-0.195l-0.023,-0.194l-0.012,-0.1l-0.01,-0.099l-0.01,-0.098l-0.009,-0.099l-0.008,-0.099l-0.008,-0.099l-0.007,-0.099l-0.007,-0.099l-0.006,-0.1l-0.005,-0.1l-0.005,-0.099l-0.004,-0.1l-0.004,-0.1l-0.003,-0.101l-0.002,-0.1l-0.001,-0.101l-0.001,-0.1l-0.001,-0.099l0,-28.142l0.001,-0.098l0.001,-0.101l0.001,-0.1l0.002,-0.101l0.003,-0.1l0.004,-0.1l0.004,-0.1l0.005,-0.1l0.005,-0.099l0.006,-0.1l0.007,-0.099l0.007,-0.1l0.008,-0.099l0.008,-0.098l0.009,-0.099l0.01,-0.099l0.01,-0.098l0.012,-0.101l0.023,-0.193l0.026,-0.195l0.028,-0.195l0.031,-0.193l0.034,-0.193l0.035,-0.192l0.038,-0.191l0.04,-0.191l0.043,-0.189l0.045,-0.189l0.047,-0.188l0.049,-0.187l0.052,-0.186l0.054,-0.185l0.056,-0.184l0.058,-0.183l0.061,-0.182l0.062,-0.182l0.065,-0.18l0.067,-0.179l0.069,-0.178l0.071,-0.177l0.073,-0.176l0.075,-0.175l0.078,-0.174l0.079,-0.172l0.082,-0.172l0.083,-0.17l0.085,-0.169l0.088,-0.168l0.089,-0.167l0.091,-0.165l0.093,-0.165l0.096,-0.163l0.097,-0.161l0.098,-0.161l0.101,-0.159l0.103,-0.158l0.104,-0.157l0.106,-0.155l0.109,-0.154l0.109,-0.152l0.112,-0.151l0.113,-0.15l0.116,-0.148l0.116,-0.147l0.119,-0.145l0.12,-0.144l0.122,-0.143l0.124,-0.141l0.125,-0.139l0.127,-0.138l0.129,-0.137l0.13,-0.135l0.131,-0.133l0.134,-0.132l0.135,-0.13l0.136,-0.128l0.138,-0.127l0.139,-0.125l0.142,-0.124l0.142,-0.122l0.144,-0.12l0.145,-0.119l0.147,-0.117l0.149,-0.115l0.149,-0.113l0.151,-0.112l0.153,-0.11l0.154,-0.108l0.155,-0.106l0.156,-0.104l0.158,-0.103l0.159,-0.101l0.161,-0.099l0.162,-0.097l0.163,-0.095l0.164,-0.093l0.166,-0.091l0.166,-0.09l0.168,-0.087l0.169,-0.085l0.171,-0.084l0.171,-0.081l0.173,-0.08l0.173,-0.077l0.175,-0.075l0.176,-0.073l0.177,-0.071l0.178,-0.069l0.18,-0.067l0.18,-0.065l0.181,-0.063l0.182,-0.06l0.183,-0.059l0.184,-0.056l0.185,-0.053l0.187,-0.052l0.186,-0.049l0.188,-0.048l0.189,-0.044l0.19,-0.043l0.19,-0.04l0.191,-0.038l0.192,-0.036l0.193,-0.033l0.194,-0.031l0.194,-0.028l0.195,-0.026l0.194,-0.024l0.1,-0.011l0.099,-0.01l0.098,-0.01l0.099,-0.009l0.099,-0.009l0.099,-0.007l0.099,-0.008l0.099,-0.006l0.1,-0.006l0.099,-0.006l0.1,-0.004l0.101,-0.005l0.1,-0.003l0.1,-0.003l0.1,-0.002l0.101,-0.002l0.1,-0.001l0.099,0l132.556,0l0.098,0Zm-132.649,3.125l-0.084,0l-0.08,0.001l-0.081,0.001l-0.081,0.002l-0.081,0.002l-0.08,0.003l-0.08,0.003l-0.08,0.004l-0.08,0.005l-0.08,0.004l-0.079,0.006l-0.08,0.006l-0.079,0.006l-0.079,0.007l-0.079,0.007l-0.079,0.008l-0.079,0.008l-0.076,0.008l-0.159,0.02l-0.156,0.02l-0.156,0.023l-0.155,0.025l-0.154,0.027l-0.153,0.028l-0.153,0.03l-0.152,0.032l-0.152,0.034l-0.15,0.036l-0.15,0.038l-0.15,0.039l-0.148,0.042l-0.148,0.043l-0.147,0.044l-0.146,0.047l-0.146,0.048l-0.144,0.05l-0.144,0.052l-0.143,0.053l-0.143,0.055l-0.141,0.057l-0.141,0.059l-0.139,0.06l-0.139,0.062l-0.138,0.063l-0.137,0.065l-0.136,0.067l-0.136,0.068l-0.134,0.07l-0.133,0.071l-0.132,0.073l-0.132,0.075l-0.13,0.076l-0.13,0.078l-0.128,0.079l-0.128,0.08l-0.126,0.083l-0.125,0.083l-0.125,0.085l-0.123,0.087l-0.122,0.088l-0.121,0.089l-0.12,0.091l-0.119,0.092l-0.117,0.094l-0.117,0.095l-0.115,0.096l-0.114,0.098l-0.113,0.099l-0.112,0.1l-0.111,0.102l-0.109,0.103l-0.108,0.104l-0.107,0.106l-0.105,0.107l-0.105,0.108l-0.103,0.109l-0.101,0.111l-0.101,0.112l-0.099,0.112l-0.097,0.115l-0.097,0.115l-0.095,0.116l-0.093,0.118l-0.093,0.119l-0.091,0.12l-0.089,0.121l-0.088,0.122l-0.086,0.123l-0.086,0.124l-0.083,0.126l-0.082,0.126l-0.081,0.127l-0.079,0.129l-0.078,0.129l-0.076,0.131l-0.074,0.131l-0.073,0.133l-0.072,0.133l-0.07,0.134l-0.068,0.135l-0.066,0.136l-0.066,0.138l-0.063,0.138l-0.062,0.138l-0.06,0.14l-0.058,0.141l-0.057,0.141l-0.055,0.142l-0.054,0.143l-0.052,0.144l-0.05,0.145l-0.048,0.146l-0.046,0.146l-0.045,0.147l-0.043,0.148l-0.041,0.148l-0.04,0.149l-0.037,0.15l-0.036,0.151l-0.034,0.152l-0.032,0.152l-0.031,0.153l-0.028,0.153l-0.027,0.154l-0.024,0.155l-0.023,0.155l-0.021,0.156l-0.019,0.16l-0.009,0.076l-0.008,0.078l-0.008,0.079l-0.007,0.079l-0.007,0.08l-0.006,0.079l-0.006,0.079l-0.005,0.08l-0.005,0.08l-0.004,0.08l-0.004,0.08l-0.003,0.08l-0.003,0.08l-0.003,0.081l-0.001,0.08l-0.002,0.081l0,0.081l-0.001,0.083l0,28.132l0.001,0.084l0,0.081l0.002,0.08l0.001,0.081l0.003,0.08l0.003,0.081l0.003,0.08l0.004,0.08l0.004,0.08l0.005,0.08l0.005,0.079l0.006,0.08l0.006,0.079l0.007,0.079l0.007,0.079l0.008,0.079l0.008,0.079l0.009,0.076l0.019,0.159l0.021,0.156l0.023,0.156l0.024,0.155l0.027,0.154l0.028,0.153l0.031,0.153l0.032,0.152l0.034,0.152l0.036,0.15l0.037,0.15l0.04,0.15l0.041,0.148l0.043,0.148l0.045,0.147l0.046,0.146l0.048,0.146l0.05,0.144l0.052,0.144l0.054,0.143l0.055,0.143l0.057,0.141l0.058,0.141l0.06,0.139l0.062,0.139l0.063,0.138l0.066,0.137l0.066,0.136l0.068,0.135l0.07,0.135l0.072,0.133l0.073,0.132l0.074,0.132l0.076,0.13l0.078,0.13l0.079,0.128l0.081,0.128l0.082,0.126l0.083,0.125l0.086,0.125l0.086,0.123l0.088,0.122l0.089,0.121l0.091,0.12l0.092,0.119l0.094,0.117l0.095,0.117l0.096,0.115l0.098,0.114l0.099,0.113l0.101,0.112l0.101,0.111l0.103,0.109l0.105,0.108l0.105,0.107l0.107,0.105l0.108,0.105l0.109,0.103l0.111,0.101l0.112,0.101l0.113,0.099l0.114,0.098l0.115,0.096l0.117,0.095l0.117,0.094l0.119,0.092l0.12,0.091l0.121,0.089l0.122,0.088l0.123,0.087l0.125,0.085l0.125,0.083l0.126,0.082l0.128,0.081l0.128,0.079l0.13,0.078l0.13,0.076l0.131,0.074l0.133,0.073l0.133,0.072l0.134,0.07l0.136,0.068l0.136,0.067l0.137,0.065l0.138,0.063l0.139,0.062l0.14,0.06l0.14,0.058l0.141,0.057l0.143,0.055l0.143,0.054l0.144,0.052l0.144,0.05l0.146,0.048l0.146,0.046l0.147,0.045l0.148,0.043l0.149,0.041l0.149,0.04l0.15,0.037l0.151,0.036l0.151,0.034l0.152,0.032l0.153,0.031l0.153,0.028l0.154,0.027l0.155,0.024l0.156,0.023l0.156,0.021l0.159,0.019l0.076,0.009l0.079,0.008l0.079,0.008l0.079,0.007l0.079,0.007l0.079,0.006l0.079,0.006l0.08,0.005l0.08,0.005l0.08,0.004l0.08,0.004l0.08,0.003l0.08,0.003l0.081,0.003l0.081,0.001l0.081,0.002l0.08,0l0.084,0.001l132.546,0l0.083,-0.001l0.081,0l0.081,-0.002l0.081,-0.001l0.08,-0.003l0.08,-0.003l0.08,-0.003l0.081,-0.004l0.079,-0.004l0.08,-0.005l0.08,-0.005l0.079,-0.006l0.08,-0.006l0.079,-0.007l0.079,-0.007l0.079,-0.008l0.078,-0.008l0.076,-0.009l0.16,-0.019l0.156,-0.021l0.155,-0.023l0.155,-0.024l0.154,-0.027l0.154,-0.028l0.152,-0.031l0.153,-0.032l0.151,-0.034l0.151,-0.036l0.15,-0.037l0.149,-0.04l0.148,-0.041l0.148,-0.043l0.147,-0.045l0.147,-0.046l0.145,-0.048l0.145,-0.05l0.144,-0.052l0.143,-0.054l0.142,-0.055l0.141,-0.057l0.141,-0.058l0.14,-0.06l0.139,-0.062l0.138,-0.063l0.137,-0.065l0.136,-0.067l0.135,-0.068l0.134,-0.07l0.134,-0.072l0.132,-0.073l0.131,-0.074l0.131,-0.076l0.129,-0.078l0.129,-0.079l0.127,-0.081l0.127,-0.082l0.125,-0.083l0.124,-0.085l0.123,-0.087l0.122,-0.088l0.121,-0.089l0.12,-0.091l0.119,-0.092l0.118,-0.094l0.116,-0.095l0.116,-0.096l0.114,-0.098l0.113,-0.099l0.111,-0.101l0.111,-0.101l0.109,-0.103l0.108,-0.105l0.107,-0.105l0.106,-0.107l0.104,-0.108l0.103,-0.109l0.102,-0.111l0.1,-0.112l0.099,-0.113l0.098,-0.114l0.096,-0.115l0.095,-0.117l0.094,-0.117l0.092,-0.119l0.091,-0.12l0.089,-0.121l0.088,-0.122l0.087,-0.123l0.085,-0.125l0.084,-0.125l0.082,-0.126l0.08,-0.128l0.08,-0.128l0.077,-0.13l0.076,-0.13l0.075,-0.131l0.073,-0.133l0.071,-0.133l0.07,-0.135l0.068,-0.135l0.067,-0.136l0.065,-0.137l0.063,-0.138l0.062,-0.139l0.06,-0.139l0.059,-0.141l0.057,-0.141l0.055,-0.143l0.053,-0.143l0.052,-0.144l0.05,-0.144l0.048,-0.146l0.047,-0.146l0.045,-0.147l0.043,-0.148l0.041,-0.149l0.039,-0.149l0.038,-0.15l0.036,-0.15l0.034,-0.152l0.032,-0.152l0.03,-0.153l0.029,-0.153l0.026,-0.154l0.025,-0.155l0.023,-0.156l0.021,-0.156l0.019,-0.159l0.008,-0.076l0.008,-0.079l0.008,-0.079l0.008,-0.079l0.006,-0.079l0.007,-0.079l0.005,-0.08l0.006,-0.079l0.005,-0.08l0.004,-0.08l0.004,-0.08l0.003,-0.08l0.003,-0.081l0.002,-0.08l0.002,-0.081l0.001,-0.08l0.001,-0.081l0,-0.084l0,-28.132l0,-0.083l-0.001,-0.081l-0.001,-0.081l-0.002,-0.08l-0.002,-0.081l-0.003,-0.08l-0.003,-0.081l-0.004,-0.079l-0.004,-0.08l-0.005,-0.08l-0.006,-0.08l-0.005,-0.079l-0.007,-0.079l-0.006,-0.08l-0.008,-0.079l-0.008,-0.078l-0.008,-0.079l-0.008,-0.077l-0.019,-0.159l-0.021,-0.156l-0.023,-0.155l-0.025,-0.155l-0.026,-0.154l-0.029,-0.153l-0.03,-0.153l-0.032,-0.152l-0.034,-0.152l-0.036,-0.151l-0.038,-0.149l-0.039,-0.15l-0.041,-0.149l-0.043,-0.147l-0.045,-0.147l-0.047,-0.146l-0.048,-0.146l-0.05,-0.145l-0.052,-0.144l-0.053,-0.143l-0.055,-0.142l-0.057,-0.141l-0.059,-0.141l-0.06,-0.14l-0.062,-0.138l-0.063,-0.138l-0.065,-0.137l-0.067,-0.137l-0.068,-0.135l-0.07,-0.134l-0.071,-0.133l-0.073,-0.133l-0.075,-0.131l-0.076,-0.131l-0.077,-0.129l-0.08,-0.129l-0.08,-0.127l-0.082,-0.126l-0.084,-0.126l-0.085,-0.124l-0.087,-0.123l-0.088,-0.122l-0.089,-0.121l-0.091,-0.12l-0.092,-0.119l-0.094,-0.118l-0.095,-0.116l-0.096,-0.116l-0.098,-0.114l-0.099,-0.112l-0.1,-0.112l-0.102,-0.111l-0.103,-0.109l-0.104,-0.108l-0.106,-0.107l-0.107,-0.106l-0.108,-0.104l-0.109,-0.103l-0.111,-0.102l-0.111,-0.1l-0.113,-0.099l-0.114,-0.098l-0.116,-0.096l-0.116,-0.095l-0.118,-0.094l-0.119,-0.092l-0.12,-0.091l-0.121,-0.089l-0.122,-0.088l-0.123,-0.087l-0.124,-0.085l-0.125,-0.083l-0.127,-0.083l-0.127,-0.08l-0.129,-0.079l-0.129,-0.078l-0.131,-0.076l-0.131,-0.075l-0.132,-0.073l-0.134,-0.071l-0.134,-0.07l-0.135,-0.068l-0.136,-0.067l-0.137,-0.065l-0.138,-0.063l-0.139,-0.062l-0.14,-0.06l-0.141,-0.059l-0.141,-0.057l-0.142,-0.055l-0.143,-0.053l-0.144,-0.052l-0.145,-0.05l-0.145,-0.048l-0.147,-0.047l-0.147,-0.044l-0.148,-0.043l-0.148,-0.042l-0.149,-0.039l-0.15,-0.038l-0.151,-0.036l-0.151,-0.034l-0.153,-0.032l-0.152,-0.03l-0.154,-0.028l-0.154,-0.027l-0.155,-0.025l-0.155,-0.023l-0.156,-0.02l-0.159,-0.02l-0.077,-0.008l-0.078,-0.008l-0.079,-0.008l-0.079,-0.007l-0.079,-0.007l-0.08,-0.006l-0.079,-0.006l-0.08,-0.006l-0.079,-0.004l-0.081,-0.005l-0.08,-0.004l-0.08,-0.003l-0.08,-0.003l-0.08,-0.002l-0.081,-0.002l-0.081,-0.001l-0.081,-0.001l-0.083,0l-132.546,0Z"/><text x="186.103px" y="438.996px" style="font-family:'ArialMT', 'Arial', 'Helvetica', sans-serif;font-size:37.5px;">T<tspan x="207.618px 228.474px " y="438.996px 438.996px ">ut</tspan>or</text><path d="M155.236,445.55l-2.291,0c-0.23,0 -0.409,-0.203 -0.379,-0.431l0.774,-5.875c-0.464,-0.263 -0.777,-0.76 -0.777,-1.33c0,-0.574 0.317,-1.074 0.786,-1.335c0.045,-0.857 0.19,-1.586 0.58,-2.272l-2.076,-0.641c-1.092,-0.324 -1.087,-1.872 0,-2.195l13.164,-4.062c0.843,-0.248 1.74,-0.248 2.583,0l13.164,4.062c1.092,0.324 1.087,1.872 0,2.195l-13.164,4.062c-0.843,0.248 -1.74,0.248 -2.583,0l-9.571,-2.953c-0.409,0.546 -0.526,1.1 -0.569,1.83c0.444,0.267 0.741,0.753 0.741,1.309c0,0.57 -0.313,1.067 -0.777,1.33l0.773,5.875c0.031,0.228 -0.147,0.431 -0.378,0.431Zm12.815,-6.363l-0.01,0.003l-0.01,0.003c-1.124,0.331 -2.32,0.331 -3.445,0l-0.01,-0.003l-0.009,-0.003l-7.203,-2.222l-0.601,4.004c0,1.686 4.274,3.054 9.546,3.054c5.271,0 9.545,-1.368 9.545,-3.054l-0.6,-4.004l-7.203,2.222Zm-17.864,-0.972l-10.029,0c-1.06,0 -1.919,-0.859 -1.919,-1.919l0,-5.599c0,-3.092 2.506,-5.599 5.599,-5.599l1.427,0c3.548,2.135 7.993,2.135 11.542,0l1.427,0c1.146,0 2.212,0.345 3.099,0.935l-10.182,3.142c-1.572,0.476 -2.607,2.046 -2.509,3.619c0.071,1.125 0.706,2.199 1.664,2.789c0.206,0.127 0.46,0.239 0.46,0.239l-0.009,0.015c-0.442,0.715 -0.631,1.556 -0.57,2.378Zm-7.149,-22.714c0,-4.418 3.581,-7.999 7.998,-7.999c4.417,0 7.998,3.581 7.998,7.999c0,4.417 -3.581,7.998 -7.998,7.998c-4.417,0 -7.998,-3.581 -7.998,-7.998Z"/></g><g><path d="M383.637,584.538c0,-7.765 -6.304,-14.068 -14.068,-14.068l-175.262,0c-7.764,0 -14.068,6.303 -14.068,14.068l0,28.137c0,7.764 6.304,14.068 14.068,14.068l175.262,0c7.764,0 14.068,-6.304 14.068,-14.068l0,-28.137Z" style="fill:#fff;"/><path d="M369.67,568.907l0.1,0.001l0.101,0.002l0.1,0.002l0.101,0.003l0.1,0.003l0.1,0.005l0.1,0.004l0.099,0.006l0.1,0.006l0.099,0.006l0.099,0.008l0.099,0.007l0.099,0.009l0.099,0.009l0.098,0.01l0.099,0.01l0.101,0.011l0.193,0.024l0.195,0.026l0.194,0.028l0.194,0.031l0.193,0.033l0.192,0.036l0.191,0.038l0.191,0.04l0.189,0.043l0.189,0.044l0.188,0.048l0.187,0.049l0.186,0.052l0.185,0.053l0.184,0.057l0.183,0.058l0.182,0.06l0.181,0.063l0.181,0.065l0.179,0.067l0.178,0.069l0.177,0.071l0.176,0.073l0.175,0.075l0.173,0.078l0.173,0.079l0.171,0.081l0.171,0.084l0.169,0.085l0.168,0.087l0.167,0.09l0.165,0.091l0.164,0.093l0.163,0.095l0.162,0.097l0.161,0.099l0.159,0.101l0.158,0.102l0.156,0.105l0.155,0.106l0.154,0.108l0.153,0.11l0.151,0.112l0.15,0.113l0.148,0.115l0.147,0.117l0.145,0.119l0.144,0.12l0.143,0.122l0.141,0.124l0.139,0.125l0.138,0.127l0.137,0.128l0.134,0.13l0.134,0.132l0.131,0.133l0.131,0.135l0.128,0.137l0.127,0.138l0.125,0.139l0.124,0.141l0.122,0.143l0.12,0.144l0.119,0.145l0.116,0.147l0.116,0.148l0.113,0.15l0.112,0.151l0.109,0.152l0.109,0.154l0.106,0.156l0.104,0.156l0.103,0.158l0.101,0.159l0.099,0.161l0.097,0.161l0.095,0.163l0.093,0.165l0.091,0.165l0.089,0.167l0.088,0.168l0.085,0.169l0.084,0.17l0.081,0.172l0.079,0.172l0.078,0.174l0.075,0.175l0.073,0.176l0.071,0.177l0.069,0.178l0.067,0.179l0.065,0.18l0.063,0.182l0.06,0.182l0.058,0.183l0.056,0.184l0.054,0.185l0.052,0.186l0.049,0.187l0.047,0.188l0.045,0.189l0.043,0.189l0.04,0.191l0.038,0.191l0.035,0.192l0.034,0.193l0.031,0.193l0.028,0.195l0.026,0.195l0.024,0.193l0.011,0.101l0.01,0.098l0.01,0.099l0.009,0.098l0.008,0.099l0.008,0.099l0.007,0.1l0.007,0.099l0.006,0.099l0.005,0.1l0.005,0.1l0.004,0.1l0.004,0.1l0.003,0.101l0.002,0.1l0.002,0.101l0,0.1l0.001,0.098l0,28.142l-0.001,0.099l0,0.1l-0.002,0.101l-0.002,0.1l-0.003,0.101l-0.004,0.1l-0.004,0.099l-0.005,0.1l-0.005,0.1l-0.006,0.1l-0.007,0.099l-0.007,0.099l-0.008,0.099l-0.008,0.099l-0.009,0.099l-0.01,0.098l-0.01,0.099l-0.011,0.1l-0.024,0.194l-0.026,0.195l-0.028,0.194l-0.031,0.194l-0.034,0.193l-0.035,0.192l-0.038,0.191l-0.04,0.191l-0.043,0.189l-0.045,0.189l-0.047,0.188l-0.049,0.187l-0.052,0.186l-0.054,0.185l-0.056,0.184l-0.058,0.183l-0.06,0.182l-0.063,0.181l-0.065,0.18l-0.067,0.18l-0.069,0.178l-0.071,0.177l-0.073,0.176l-0.075,0.174l-0.078,0.174l-0.079,0.173l-0.081,0.171l-0.084,0.171l-0.085,0.169l-0.088,0.168l-0.089,0.166l-0.091,0.166l-0.093,0.164l-0.096,0.163l-0.096,0.162l-0.099,0.161l-0.101,0.159l-0.103,0.158l-0.104,0.156l-0.106,0.156l-0.109,0.153l-0.109,0.153l-0.112,0.151l-0.113,0.149l-0.116,0.149l-0.116,0.147l-0.119,0.145l-0.12,0.144l-0.122,0.143l-0.124,0.14l-0.125,0.14l-0.127,0.138l-0.128,0.136l-0.131,0.135l-0.131,0.134l-0.134,0.131l-0.134,0.13l-0.137,0.129l-0.138,0.127l-0.139,0.125l-0.141,0.124l-0.143,0.122l-0.144,0.12l-0.145,0.119l-0.147,0.116l-0.148,0.116l-0.15,0.113l-0.151,0.112l-0.153,0.109l-0.153,0.108l-0.156,0.107l-0.156,0.104l-0.158,0.103l-0.159,0.101l-0.161,0.098l-0.162,0.097l-0.163,0.096l-0.164,0.093l-0.165,0.091l-0.167,0.089l-0.168,0.088l-0.169,0.085l-0.171,0.084l-0.171,0.081l-0.173,0.079l-0.173,0.078l-0.175,0.075l-0.176,0.073l-0.177,0.071l-0.178,0.069l-0.179,0.067l-0.181,0.065l-0.181,0.062l-0.182,0.061l-0.183,0.058l-0.184,0.056l-0.185,0.054l-0.186,0.052l-0.187,0.049l-0.188,0.047l-0.189,0.045l-0.189,0.043l-0.191,0.04l-0.191,0.038l-0.192,0.035l-0.193,0.034l-0.194,0.031l-0.194,0.028l-0.195,0.026l-0.194,0.023l-0.1,0.012l-0.098,0.01l-0.099,0.01l-0.099,0.009l-0.099,0.008l-0.098,0.008l-0.1,0.007l-0.099,0.007l-0.1,0.006l-0.099,0.005l-0.1,0.005l-0.1,0.004l-0.1,0.004l-0.101,0.003l-0.1,0.002l-0.1,0.001l-0.101,0.001l-0.099,0.001l-175.266,0l-0.099,-0.001l-0.101,-0.001l-0.1,-0.001l-0.1,-0.002l-0.101,-0.003l-0.1,-0.004l-0.099,-0.004l-0.1,-0.005l-0.1,-0.005l-0.1,-0.006l-0.099,-0.007l-0.099,-0.007l-0.099,-0.008l-0.099,-0.008l-0.099,-0.009l-0.099,-0.01l-0.098,-0.01l-0.1,-0.012l-0.194,-0.023l-0.195,-0.026l-0.194,-0.028l-0.194,-0.031l-0.193,-0.034l-0.192,-0.035l-0.191,-0.038l-0.191,-0.04l-0.189,-0.043l-0.189,-0.045l-0.188,-0.047l-0.187,-0.049l-0.186,-0.052l-0.185,-0.054l-0.184,-0.056l-0.183,-0.058l-0.182,-0.061l-0.181,-0.062l-0.18,-0.065l-0.18,-0.067l-0.178,-0.069l-0.177,-0.071l-0.176,-0.073l-0.174,-0.075l-0.174,-0.078l-0.173,-0.079l-0.171,-0.081l-0.171,-0.084l-0.169,-0.085l-0.168,-0.088l-0.166,-0.089l-0.166,-0.091l-0.164,-0.093l-0.163,-0.095l-0.162,-0.098l-0.161,-0.098l-0.159,-0.101l-0.158,-0.103l-0.156,-0.104l-0.155,-0.107l-0.154,-0.108l-0.153,-0.109l-0.151,-0.112l-0.149,-0.113l-0.149,-0.116l-0.147,-0.116l-0.145,-0.119l-0.144,-0.12l-0.142,-0.122l-0.142,-0.124l-0.139,-0.125l-0.138,-0.127l-0.136,-0.129l-0.135,-0.13l-0.134,-0.131l-0.131,-0.134l-0.13,-0.135l-0.129,-0.136l-0.127,-0.138l-0.125,-0.14l-0.124,-0.14l-0.122,-0.143l-0.12,-0.144l-0.119,-0.145l-0.116,-0.147l-0.116,-0.149l-0.113,-0.149l-0.112,-0.151l-0.109,-0.153l-0.108,-0.154l-0.107,-0.155l-0.104,-0.156l-0.103,-0.158l-0.101,-0.159l-0.098,-0.161l-0.097,-0.162l-0.095,-0.163l-0.094,-0.164l-0.091,-0.166l-0.089,-0.166l-0.088,-0.168l-0.085,-0.169l-0.083,-0.171l-0.082,-0.171l-0.079,-0.173l-0.078,-0.173l-0.075,-0.175l-0.073,-0.176l-0.071,-0.177l-0.069,-0.178l-0.067,-0.18l-0.065,-0.18l-0.062,-0.181l-0.061,-0.182l-0.058,-0.183l-0.056,-0.184l-0.054,-0.185l-0.052,-0.186l-0.049,-0.187l-0.047,-0.188l-0.045,-0.189l-0.043,-0.189l-0.04,-0.191l-0.038,-0.191l-0.035,-0.192l-0.034,-0.193l-0.031,-0.194l-0.028,-0.194l-0.026,-0.195l-0.023,-0.194l-0.012,-0.1l-0.01,-0.099l-0.01,-0.098l-0.009,-0.099l-0.008,-0.099l-0.008,-0.099l-0.007,-0.099l-0.007,-0.099l-0.006,-0.1l-0.005,-0.099l-0.005,-0.1l-0.004,-0.1l-0.004,-0.1l-0.003,-0.101l-0.002,-0.1l-0.001,-0.101l-0.001,-0.1l-0.001,-0.099l0,-28.141l0.001,-0.099l0.001,-0.101l0.001,-0.1l0.002,-0.101l0.003,-0.1l0.004,-0.1l0.004,-0.1l0.005,-0.1l0.005,-0.099l0.006,-0.1l0.007,-0.099l0.007,-0.099l0.008,-0.099l0.008,-0.099l0.009,-0.099l0.01,-0.099l0.01,-0.098l0.012,-0.101l0.023,-0.193l0.026,-0.195l0.028,-0.195l0.031,-0.193l0.034,-0.193l0.035,-0.192l0.038,-0.191l0.04,-0.191l0.043,-0.189l0.045,-0.189l0.047,-0.188l0.049,-0.187l0.052,-0.186l0.054,-0.185l0.056,-0.184l0.058,-0.183l0.061,-0.182l0.062,-0.182l0.065,-0.18l0.067,-0.179l0.069,-0.178l0.071,-0.177l0.073,-0.176l0.075,-0.175l0.078,-0.174l0.079,-0.172l0.082,-0.172l0.083,-0.17l0.085,-0.169l0.088,-0.168l0.089,-0.167l0.091,-0.165l0.093,-0.165l0.096,-0.163l0.097,-0.161l0.098,-0.161l0.101,-0.159l0.103,-0.158l0.104,-0.156l0.107,-0.156l0.108,-0.154l0.109,-0.152l0.112,-0.151l0.113,-0.15l0.116,-0.148l0.116,-0.147l0.119,-0.145l0.12,-0.144l0.122,-0.143l0.124,-0.141l0.125,-0.139l0.127,-0.138l0.129,-0.137l0.13,-0.135l0.131,-0.133l0.134,-0.132l0.135,-0.13l0.136,-0.128l0.138,-0.127l0.14,-0.125l0.141,-0.124l0.142,-0.122l0.144,-0.12l0.145,-0.119l0.147,-0.117l0.149,-0.115l0.149,-0.113l0.151,-0.112l0.153,-0.11l0.154,-0.108l0.155,-0.106l0.156,-0.104l0.158,-0.103l0.159,-0.101l0.161,-0.099l0.162,-0.097l0.163,-0.095l0.164,-0.093l0.166,-0.091l0.166,-0.09l0.168,-0.087l0.169,-0.085l0.171,-0.084l0.171,-0.081l0.173,-0.08l0.173,-0.077l0.175,-0.075l0.176,-0.073l0.177,-0.071l0.178,-0.069l0.18,-0.067l0.18,-0.065l0.181,-0.063l0.182,-0.06l0.183,-0.058l0.184,-0.057l0.186,-0.053l0.185,-0.052l0.187,-0.049l0.188,-0.048l0.189,-0.044l0.19,-0.043l0.19,-0.04l0.191,-0.038l0.192,-0.036l0.193,-0.033l0.194,-0.031l0.194,-0.028l0.195,-0.026l0.193,-0.024l0.101,-0.011l0.099,-0.01l0.098,-0.01l0.099,-0.009l0.099,-0.009l0.099,-0.007l0.099,-0.008l0.099,-0.006l0.1,-0.006l0.099,-0.006l0.1,-0.004l0.1,-0.005l0.101,-0.003l0.1,-0.003l0.1,-0.002l0.101,-0.002l0.1,-0.001l0.099,0l175.266,0l0.099,0Zm-175.36,3.125l-0.084,0l-0.081,0.001l-0.081,0.001l-0.08,0.002l-0.081,0.002l-0.08,0.003l-0.08,0.004l-0.08,0.003l-0.08,0.005l-0.08,0.004l-0.079,0.006l-0.08,0.006l-0.079,0.006l-0.079,0.007l-0.079,0.007l-0.079,0.008l-0.079,0.008l-0.076,0.008l-0.159,0.02l-0.156,0.021l-0.156,0.022l-0.155,0.025l-0.154,0.027l-0.153,0.028l-0.153,0.03l-0.152,0.032l-0.152,0.034l-0.15,0.036l-0.15,0.038l-0.149,0.039l-0.149,0.042l-0.148,0.043l-0.147,0.044l-0.146,0.047l-0.146,0.048l-0.144,0.05l-0.144,0.052l-0.143,0.053l-0.143,0.055l-0.141,0.057l-0.141,0.059l-0.139,0.06l-0.139,0.062l-0.138,0.063l-0.137,0.065l-0.136,0.067l-0.136,0.068l-0.134,0.07l-0.133,0.071l-0.132,0.073l-0.132,0.075l-0.13,0.076l-0.13,0.078l-0.128,0.079l-0.128,0.08l-0.126,0.083l-0.125,0.083l-0.125,0.085l-0.123,0.087l-0.122,0.088l-0.121,0.089l-0.12,0.091l-0.119,0.092l-0.117,0.094l-0.117,0.095l-0.115,0.096l-0.114,0.098l-0.113,0.099l-0.112,0.1l-0.11,0.102l-0.11,0.103l-0.108,0.104l-0.107,0.106l-0.105,0.107l-0.105,0.108l-0.103,0.109l-0.101,0.111l-0.101,0.111l-0.099,0.113l-0.098,0.115l-0.096,0.115l-0.095,0.116l-0.094,0.118l-0.092,0.119l-0.091,0.12l-0.089,0.121l-0.088,0.122l-0.086,0.123l-0.086,0.124l-0.083,0.126l-0.082,0.126l-0.081,0.128l-0.079,0.128l-0.078,0.129l-0.076,0.131l-0.074,0.131l-0.073,0.133l-0.072,0.133l-0.07,0.134l-0.068,0.135l-0.067,0.137l-0.065,0.137l-0.063,0.138l-0.062,0.138l-0.06,0.14l-0.058,0.141l-0.057,0.141l-0.055,0.142l-0.054,0.143l-0.052,0.144l-0.05,0.145l-0.048,0.146l-0.046,0.146l-0.045,0.147l-0.043,0.148l-0.041,0.148l-0.04,0.15l-0.037,0.149l-0.036,0.151l-0.034,0.152l-0.032,0.152l-0.031,0.153l-0.028,0.153l-0.027,0.154l-0.024,0.155l-0.023,0.155l-0.021,0.156l-0.019,0.16l-0.009,0.076l-0.008,0.078l-0.008,0.079l-0.007,0.079l-0.007,0.079l-0.006,0.08l-0.006,0.079l-0.005,0.08l-0.005,0.08l-0.004,0.08l-0.004,0.08l-0.003,0.08l-0.003,0.08l-0.003,0.081l-0.001,0.08l-0.002,0.081l0,0.081l-0.001,0.083l0,28.132l0.001,0.084l0,0.081l0.002,0.081l0.001,0.08l0.003,0.08l0.003,0.081l0.003,0.08l0.004,0.08l0.004,0.08l0.005,0.08l0.005,0.079l0.006,0.08l0.006,0.079l0.007,0.079l0.007,0.079l0.008,0.079l0.008,0.079l0.009,0.076l0.019,0.159l0.021,0.156l0.023,0.156l0.024,0.155l0.027,0.154l0.028,0.153l0.031,0.153l0.032,0.152l0.034,0.152l0.036,0.15l0.037,0.15l0.04,0.15l0.041,0.148l0.043,0.148l0.045,0.147l0.046,0.146l0.048,0.146l0.05,0.144l0.052,0.144l0.054,0.143l0.055,0.143l0.057,0.141l0.058,0.141l0.06,0.139l0.062,0.139l0.063,0.138l0.065,0.137l0.067,0.136l0.068,0.136l0.07,0.134l0.072,0.133l0.073,0.133l0.074,0.131l0.076,0.13l0.078,0.13l0.079,0.128l0.081,0.128l0.082,0.126l0.083,0.125l0.086,0.125l0.086,0.123l0.088,0.122l0.089,0.121l0.091,0.12l0.092,0.119l0.094,0.117l0.095,0.117l0.096,0.115l0.098,0.114l0.099,0.113l0.101,0.112l0.101,0.111l0.103,0.109l0.105,0.108l0.105,0.107l0.107,0.105l0.108,0.105l0.109,0.103l0.111,0.101l0.112,0.101l0.113,0.099l0.114,0.098l0.115,0.096l0.117,0.095l0.117,0.094l0.119,0.092l0.12,0.091l0.121,0.089l0.122,0.088l0.123,0.087l0.125,0.085l0.125,0.083l0.126,0.082l0.128,0.081l0.128,0.079l0.13,0.078l0.13,0.076l0.132,0.074l0.132,0.073l0.133,0.072l0.135,0.07l0.135,0.068l0.136,0.067l0.137,0.065l0.138,0.063l0.139,0.062l0.139,0.06l0.141,0.058l0.141,0.057l0.143,0.055l0.143,0.054l0.144,0.052l0.144,0.05l0.146,0.048l0.146,0.046l0.147,0.045l0.148,0.043l0.148,0.041l0.15,0.04l0.15,0.037l0.151,0.036l0.151,0.034l0.152,0.032l0.153,0.031l0.153,0.028l0.154,0.027l0.155,0.024l0.156,0.023l0.156,0.021l0.159,0.019l0.076,0.009l0.079,0.008l0.078,0.008l0.079,0.007l0.08,0.007l0.079,0.006l0.08,0.006l0.079,0.005l0.08,0.005l0.08,0.004l0.08,0.004l0.08,0.003l0.081,0.003l0.08,0.003l0.08,0.001l0.082,0.002l0.08,0l0.084,0.001l175.257,0l0.083,-0.001l0.081,0l0.081,-0.002l0.08,-0.001l0.08,-0.003l0.081,-0.003l0.08,-0.003l0.08,-0.004l0.08,-0.004l0.08,-0.005l0.08,-0.005l0.079,-0.006l0.079,-0.006l0.08,-0.007l0.079,-0.007l0.078,-0.008l0.079,-0.008l0.076,-0.009l0.159,-0.019l0.156,-0.021l0.156,-0.023l0.155,-0.024l0.154,-0.027l0.153,-0.028l0.153,-0.031l0.152,-0.032l0.152,-0.034l0.15,-0.036l0.15,-0.037l0.15,-0.04l0.148,-0.041l0.148,-0.043l0.147,-0.045l0.146,-0.046l0.146,-0.048l0.144,-0.05l0.144,-0.052l0.143,-0.054l0.143,-0.055l0.141,-0.057l0.141,-0.058l0.139,-0.06l0.139,-0.062l0.138,-0.063l0.137,-0.065l0.136,-0.067l0.136,-0.068l0.134,-0.07l0.133,-0.072l0.133,-0.073l0.131,-0.074l0.131,-0.076l0.129,-0.078l0.128,-0.079l0.128,-0.081l0.126,-0.082l0.126,-0.083l0.124,-0.085l0.123,-0.087l0.122,-0.088l0.121,-0.089l0.12,-0.091l0.119,-0.092l0.117,-0.094l0.117,-0.095l0.115,-0.096l0.114,-0.098l0.113,-0.099l0.112,-0.101l0.111,-0.101l0.109,-0.103l0.108,-0.104l0.107,-0.106l0.106,-0.107l0.104,-0.108l0.103,-0.109l0.102,-0.111l0.1,-0.112l0.099,-0.113l0.098,-0.114l0.096,-0.115l0.095,-0.117l0.094,-0.117l0.092,-0.119l0.091,-0.12l0.089,-0.121l0.088,-0.122l0.087,-0.123l0.085,-0.125l0.083,-0.125l0.082,-0.126l0.081,-0.128l0.079,-0.128l0.078,-0.13l0.076,-0.13l0.074,-0.131l0.073,-0.133l0.072,-0.133l0.07,-0.135l0.068,-0.135l0.067,-0.136l0.065,-0.137l0.063,-0.138l0.062,-0.139l0.06,-0.139l0.059,-0.141l0.056,-0.141l0.055,-0.143l0.054,-0.143l0.052,-0.144l0.05,-0.144l0.048,-0.146l0.046,-0.146l0.045,-0.147l0.043,-0.148l0.041,-0.149l0.04,-0.149l0.038,-0.15l0.035,-0.151l0.034,-0.151l0.032,-0.152l0.031,-0.153l0.028,-0.153l0.027,-0.154l0.024,-0.155l0.023,-0.156l0.021,-0.156l0.019,-0.159l0.009,-0.076l0.008,-0.079l0.008,-0.079l0.007,-0.079l0.007,-0.079l0.006,-0.079l0.006,-0.08l0.005,-0.079l0.005,-0.08l0.004,-0.08l0.004,-0.08l0.004,-0.08l0.002,-0.08l0.003,-0.081l0.001,-0.081l0.002,-0.08l0,-0.081l0.001,-0.084l0,-28.131l-0.001,-0.084l0,-0.081l-0.002,-0.08l-0.001,-0.081l-0.003,-0.081l-0.002,-0.08l-0.004,-0.08l-0.004,-0.08l-0.004,-0.08l-0.005,-0.08l-0.005,-0.08l-0.006,-0.079l-0.006,-0.079l-0.007,-0.08l-0.007,-0.079l-0.008,-0.079l-0.008,-0.078l-0.009,-0.076l-0.019,-0.16l-0.021,-0.156l-0.023,-0.155l-0.024,-0.155l-0.027,-0.154l-0.028,-0.154l-0.031,-0.152l-0.032,-0.152l-0.034,-0.152l-0.035,-0.151l-0.038,-0.15l-0.04,-0.149l-0.041,-0.148l-0.043,-0.148l-0.045,-0.147l-0.046,-0.146l-0.048,-0.146l-0.05,-0.145l-0.052,-0.144l-0.054,-0.143l-0.055,-0.142l-0.056,-0.141l-0.059,-0.141l-0.06,-0.14l-0.062,-0.138l-0.063,-0.138l-0.065,-0.137l-0.067,-0.137l-0.068,-0.135l-0.07,-0.134l-0.072,-0.133l-0.073,-0.133l-0.074,-0.131l-0.076,-0.131l-0.078,-0.129l-0.079,-0.129l-0.081,-0.127l-0.082,-0.126l-0.083,-0.126l-0.085,-0.124l-0.087,-0.123l-0.088,-0.122l-0.089,-0.121l-0.091,-0.12l-0.092,-0.119l-0.094,-0.118l-0.095,-0.116l-0.096,-0.115l-0.098,-0.115l-0.099,-0.113l-0.1,-0.111l-0.102,-0.111l-0.103,-0.109l-0.104,-0.108l-0.106,-0.107l-0.107,-0.106l-0.108,-0.104l-0.109,-0.103l-0.111,-0.102l-0.112,-0.1l-0.113,-0.099l-0.114,-0.098l-0.115,-0.096l-0.117,-0.095l-0.117,-0.094l-0.119,-0.092l-0.12,-0.091l-0.121,-0.089l-0.122,-0.088l-0.123,-0.087l-0.125,-0.085l-0.125,-0.083l-0.126,-0.083l-0.128,-0.08l-0.128,-0.079l-0.13,-0.078l-0.13,-0.076l-0.131,-0.075l-0.133,-0.073l-0.133,-0.071l-0.134,-0.07l-0.136,-0.068l-0.136,-0.067l-0.137,-0.065l-0.138,-0.063l-0.139,-0.062l-0.139,-0.06l-0.141,-0.059l-0.141,-0.057l-0.143,-0.055l-0.143,-0.053l-0.144,-0.052l-0.144,-0.05l-0.146,-0.048l-0.146,-0.047l-0.147,-0.044l-0.148,-0.043l-0.148,-0.042l-0.15,-0.039l-0.15,-0.038l-0.15,-0.036l-0.152,-0.034l-0.152,-0.032l-0.153,-0.03l-0.153,-0.028l-0.154,-0.027l-0.155,-0.025l-0.156,-0.022l-0.156,-0.021l-0.159,-0.02l-0.076,-0.008l-0.079,-0.008l-0.079,-0.008l-0.079,-0.007l-0.079,-0.007l-0.079,-0.006l-0.08,-0.006l-0.079,-0.006l-0.08,-0.004l-0.08,-0.005l-0.08,-0.003l-0.08,-0.004l-0.08,-0.003l-0.081,-0.002l-0.08,-0.002l-0.081,-0.001l-0.081,-0.001l-0.084,0l-175.256,0Z"/><text x="235.603px" y="612.302px" style="font-family:'ArialMT', 'Arial', 'Helvetica', sans-serif;font-size:37.5px;">Student</text><path d="M219.546,615.995l-24.634,0c-1.2,0 -2.173,-0.973 -2.173,-2.174l0,-6.339c0,-3.501 2.838,-6.34 6.339,-6.34l1.617,0c4.018,2.417 9.05,2.418 13.069,0l1.616,0c3.502,0 6.34,2.839 6.34,6.34l0,6.339c0,1.201 -0.973,2.174 -2.174,2.174Zm-21.373,-25.721c0,-5.002 4.055,-9.056 9.056,-9.056c5.002,0 9.057,4.054 9.057,9.056c0,5.002 -4.055,9.057 -9.057,9.057c-5.001,0 -9.056,-4.055 -9.056,-9.057Z"/></g></svg>