<?xml version="1.0" encoding="UTF-8" standalone="no"?><!DOCTYPE svg PUBLIC "-//W3C//DTD SVG 1.1//EN" "http://www.w3.org/Graphics/SVG/1.1/DTD/svg11.dtd"><svg width="100%" height="100%" viewBox="0 0 679 579" version="1.1" xmlns="http://www.w3.org/2000/svg" xmlns:xlink="http://www.w3.org/1999/xlink" xml:space="preserve" xmlns:serif="http://www.serif.com/" style="fill-rule:evenodd;clip-rule:evenodd;stroke-linejoin:round;stroke-miterlimit:1.41421;"><path d="M676.045,9.259l-442.039,0l-231.189,0l0,566.715l673.228,0l0,-566.715Z" style="fill:#ffdedf;"/><path d="M1.254,577.536l0,-569.839l232.939,0l0,3.125l-229.814,0l0,563.589l670.104,0l0,-563.589l-228.998,0l0,-3.125l232.123,0l0,569.839l-676.354,0Z" style="fill:#f03;"/><rect x="47.108" y="186.034" width="584.646" height="345.953" style="fill:#deffdf;"/><rect x="47.108" y="186.034" width="584.646" height="345.953" style="fill:#deffdf;"/><path d="M45.546,533.55l0,-349.079l242.419,0l0,3.125l-239.294,0l0,342.829l581.52,0l0,-342.829l-239.204,0l0,-3.125l242.329,0l0,349.079l-587.77,0Z" style="fill:#00aa35;"/><path d="M341.379,488.55l-6.25,0l0,-3.125l6.25,0l0,3.125Zm246.76,0l-3.01,0l0,-1.677l-0.115,0.114l0,-4.802l3.125,0l0,6.365Zm-446.76,0l-6.25,0l0,-3.125l6.25,0l0,3.125Zm437.5,0l-6.25,0l0,-3.125l6.25,0l0,3.125Zm-12.5,0l-6.25,0l0,-3.125l6.25,0l0,3.125Zm-12.5,0l-6.25,0l0,-3.125l6.25,0l0,3.125Zm-12.5,0l-6.25,0l0,-3.125l6.25,0l0,3.125Zm-12.5,0l-6.25,0l0,-3.125l6.25,0l0,3.125Zm-12.5,0l-6.25,0l0,-3.125l6.25,0l0,3.125Zm-12.5,0l-6.25,0l0,-3.125l6.25,0l0,3.125Zm-12.5,0l-6.25,0l0,-3.125l6.25,0l0,3.125Zm-12.5,0l-6.25,0l0,-3.125l6.25,0l0,3.125Zm-12.5,0l-6.25,0l0,-3.125l6.25,0l0,3.125Zm-12.5,0l-6.25,0l0,-3.125l6.25,0l0,3.125Zm-12.5,0l-6.25,0l0,-3.125l6.25,0l0,3.125Zm-12.5,0l-6.25,0l0,-3.125l6.25,0l0,3.125Zm-12.5,0l-6.25,0l0,-3.125l6.25,0l0,3.125Zm-12.5,0l-6.25,0l0,-3.125l6.25,0l0,3.125Zm-12.5,0l-6.25,0l0,-3.125l6.25,0l0,3.125Zm-12.5,0l-6.25,0l0,-3.125l6.25,0l0,3.125Zm-12.5,0l-6.25,0l0,-3.125l6.25,0l0,3.125Zm-12.5,0l-6.25,0l0,-3.125l6.25,0l0,3.125Zm-225,0l-6.25,0l0,-3.125l6.25,0l0,3.125Zm-12.5,0l-6.25,0l0,-3.125l6.25,0l0,3.125Zm-12.5,0l-6.25,0l0,-3.125l6.25,0l0,3.125Zm50,0l-6.25,0l0,-3.125l6.25,0l0,3.125Zm12.5,0l-6.25,0l0,-3.125l6.25,0l0,3.125Zm12.5,0l-6.25,0l0,-3.125l6.25,0l0,3.125Zm12.5,0l-6.25,0l0,-3.125l6.25,0l0,3.125Zm12.5,0l-6.25,0l0,-3.125l6.25,0l0,3.125Zm12.5,0l-6.25,0l0,-3.125l6.25,0l0,3.125Zm12.5,0l-6.25,0l0,-3.125l6.25,0l0,3.125Zm12.5,0l-6.25,0l0,-3.125l6.25,0l0,3.125Zm12.5,0l-6.25,0l0,-3.125l6.25,0l0,3.125Zm12.5,0l-6.25,0l0,-3.125l6.25,0l0,3.125Zm12.5,0l-6.25,0l0,-3.125l6.25,0l0,3.125Zm12.5,0l-6.25,0l0,-3.125l6.25,0l0,3.125Zm12.5,0l-6.25,0l0,-3.125l6.25,0l0,3.125Zm12.5,0l-6.25,0l0,-3.125l6.25,0l0,3.125Zm12.5,0l-6.25,0l0,-3.125l6.25,0l0,3.125Zm-235.031,-2.469l-3.125,0l0,-6.25l3.125,0l0,6.25Zm494.291,-10.146l-3.125,0l0,-6.25l3.125,0l0,6.25Zm-494.291,-2.354l-3.125,0l0,-6.25l3.125,0l0,6.25Zm494.291,-10.146l-3.125,0l0,-6.25l3.125,0l0,6.25Zm-494.291,-2.354l-3.125,0l0,-6.25l3.125,0l0,6.25Zm494.291,-10.146l-3.125,0l0,-6.25l3.125,0l0,6.25Zm-494.291,-2.354l-3.125,0l0,-6.25l3.125,0l0,6.25Zm494.291,-10.146l-3.125,0l0,-6.25l3.125,0l0,6.25Zm-494.291,-2.354l-3.125,0l0,-6.25l3.125,0l0,6.25Zm494.291,-10.146l-3.125,0l0,-6.25l3.125,0l0,6.25Zm-494.291,-2.354l-3.125,0l0,-6.25l3.125,0l0,6.25Zm494.291,-10.146l-3.125,0l0,-6.25l3.125,0l0,6.25Zm-494.291,-2.354l-3.125,0l0,-6.25l3.125,0l0,6.25Zm494.291,-10.146l-3.125,0l0,-6.25l3.125,0l0,6.25Zm-494.291,-2.354l-3.125,0l0,-6.25l3.125,0l0,6.25Zm494.291,-10.146l-3.125,0l0,-6.25l3.125,0l0,6.25Zm-494.291,-2.354l-3.125,0l0,-6.25l3.125,0l0,6.25Zm494.291,-10.146l-3.125,0l0,-6.25l3.125,0l0,6.25Zm-494.291,-2.354l-3.125,0l0,-6.25l3.125,0l0,6.25Zm494.291,-10.146l-3.125,0l0,-0.555l-2.569,0l0,-3.125l5.694,0l0,3.68Zm-314.367,-0.555l-6.25,0l0,-3.125l6.25,0l0,3.125Zm139.923,0l-6.25,0l0,-3.125l6.25,0l0,3.125Zm12.5,0l-6.25,0l0,-3.125l6.25,0l0,3.125Zm12.5,0l-6.25,0l0,-3.125l6.25,0l0,3.125Zm12.5,0l-6.25,0l0,-3.125l6.25,0l0,3.125Zm12.5,0l-6.25,0l0,-3.125l6.25,0l0,3.125Zm12.5,0l-6.25,0l0,-3.125l6.25,0l0,3.125Zm12.5,0l-6.25,0l0,-3.125l6.25,0l0,3.125Zm12.5,0l-6.25,0l0,-3.125l6.25,0l0,3.125Zm12.5,0l-6.25,0l0,-3.125l6.25,0l0,3.125Zm12.5,0l-6.25,0l0,-3.125l6.25,0l0,3.125Zm12.5,0l-6.25,0l0,-3.125l6.25,0l0,3.125Zm12.5,0l-6.25,0l0,-3.125l6.25,0l0,3.125Zm12.5,0l-6.25,0l0,-3.125l6.25,0l0,3.125Zm12.5,0l-6.25,0l0,-3.125l6.25,0l0,3.125Zm-339.923,0l-6.25,0l0,-3.125l6.25,0l0,3.125Zm-12.5,0l-6.25,0l0,-3.125l6.25,0l0,3.125Zm-12.5,0l-6.25,0l0,-3.125l6.25,0l0,3.125Zm-12.5,0l-6.25,0l0,-3.125l6.25,0l0,3.125Zm-100,0l-6.25,0l0,-3.125l6.25,0l0,3.125Zm12.5,0l-6.25,0l0,-3.125l6.25,0l0,3.125Zm12.5,0l-6.25,0l0,-3.125l6.25,0l0,3.125Zm12.5,0l-6.25,0l0,-3.125l6.25,0l0,3.125Zm12.5,0l-6.25,0l0,-3.125l6.25,0l0,3.125Zm12.5,0l-6.25,0l0,-3.125l6.25,0l0,3.125Zm12.5,0l-6.25,0l0,-3.125l6.25,0l0,3.125Zm12.5,0l-6.25,0l0,-3.125l6.25,0l0,3.125Zm62.5,0l-6.25,0l0,-3.125l6.25,0l0,3.125Zm12.5,0l-6.25,0l0,-3.125l6.25,0l0,3.125Z" style="fill:#00aa35;"/><text x="280.251px" y="369.509px" style="font-family:'Arial-BoldItalicMT', 'Arial', 'Helvetica', sans-serif;font-weight:700;font-style:italic;font-size:25px;fill:#00aa35;">Subgroup</text><text x="293.429px" y="193.476px" style="font-family:'Arial-BoldMT', 'Arial', 'Helvetica', sans-serif;font-weight:700;font-size:25px;fill:#00aa35;">GROUP</text><text x="243.533px" y="18.201px" style="font-family:'Arial-BoldMT', 'Arial', 'Helvetica', sans-serif;font-weight:700;font-size:25px;fill:#f03;">ORGANISA<tspan x="376.406px 391.677px " y="18.201px 18.201px ">TI</tspan>ON</text><g><path d="M295.883,66.518c0,-7.764 -6.304,-14.068 -14.069,-14.068l-220.637,0c-7.765,0 -14.069,6.304 -14.069,14.068l0,28.137c0,7.765 6.304,14.068 14.069,14.068l220.637,0c7.765,0 14.069,-6.303 14.069,-14.068l0,-28.137Z" style="fill:#fff;"/><path d="M281.915,50.888l0.101,0.001l0.101,0.001l0.1,0.002l0.1,0.003l0.1,0.004l0.1,0.004l0.1,0.005l0.1,0.005l0.099,0.006l0.1,0.007l0.099,0.007l0.099,0.008l0.099,0.008l0.099,0.009l0.098,0.01l0.099,0.01l0.1,0.012l0.193,0.023l0.196,0.026l0.194,0.028l0.194,0.031l0.193,0.034l0.192,0.035l0.191,0.038l0.19,0.04l0.19,0.043l0.189,0.045l0.187,0.047l0.187,0.049l0.186,0.052l0.185,0.054l0.185,0.056l0.183,0.058l0.182,0.061l0.181,0.062l0.18,0.065l0.179,0.067l0.178,0.069l0.177,0.071l0.176,0.073l0.175,0.075l0.174,0.078l0.173,0.079l0.171,0.081l0.17,0.084l0.169,0.085l0.168,0.088l0.167,0.089l0.166,0.091l0.164,0.093l0.163,0.096l0.162,0.097l0.16,0.098l0.159,0.101l0.158,0.103l0.157,0.104l0.155,0.106l0.154,0.109l0.152,0.109l0.152,0.112l0.149,0.113l0.149,0.116l0.146,0.116l0.146,0.119l0.144,0.12l0.142,0.122l0.141,0.124l0.14,0.125l0.138,0.127l0.136,0.128l0.135,0.131l0.133,0.131l0.132,0.134l0.13,0.135l0.129,0.136l0.127,0.138l0.125,0.14l0.124,0.14l0.121,0.143l0.121,0.144l0.118,0.145l0.117,0.147l0.115,0.148l0.114,0.15l0.111,0.151l0.11,0.153l0.108,0.154l0.106,0.155l0.105,0.156l0.102,0.158l0.101,0.159l0.099,0.161l0.097,0.162l0.095,0.163l0.093,0.164l0.092,0.165l0.089,0.167l0.087,0.168l0.086,0.169l0.083,0.171l0.082,0.171l0.079,0.173l0.077,0.173l0.076,0.175l0.073,0.176l0.071,0.177l0.069,0.178l0.067,0.179l0.065,0.181l0.062,0.181l0.061,0.182l0.058,0.183l0.056,0.184l0.054,0.186l0.051,0.185l0.05,0.187l0.047,0.188l0.045,0.189l0.042,0.189l0.041,0.191l0.038,0.191l0.035,0.192l0.033,0.193l0.031,0.194l0.029,0.194l0.026,0.195l0.023,0.193l0.011,0.101l0.011,0.099l0.009,0.098l0.01,0.099l0.008,0.099l0.008,0.099l0.007,0.099l0.007,0.099l0.006,0.1l0.005,0.1l0.005,0.099l0.004,0.1l0.003,0.1l0.003,0.101l0.003,0.1l0.001,0.101l0.001,0.1l0,0.099l0,28.142l0,0.098l-0.001,0.1l-0.001,0.101l-0.003,0.1l-0.003,0.101l-0.003,0.1l-0.004,0.1l-0.005,0.1l-0.005,0.099l-0.006,0.1l-0.007,0.1l-0.007,0.098l-0.008,0.099l-0.008,0.1l-0.01,0.098l-0.009,0.099l-0.011,0.098l-0.011,0.101l-0.023,0.193l-0.026,0.195l-0.029,0.195l-0.031,0.193l-0.033,0.193l-0.035,0.192l-0.038,0.191l-0.041,0.191l-0.042,0.189l-0.045,0.189l-0.047,0.188l-0.05,0.187l-0.051,0.186l-0.054,0.185l-0.056,0.184l-0.058,0.183l-0.061,0.182l-0.062,0.182l-0.065,0.18l-0.067,0.179l-0.069,0.178l-0.071,0.177l-0.073,0.176l-0.076,0.175l-0.077,0.173l-0.079,0.173l-0.082,0.172l-0.083,0.17l-0.086,0.169l-0.087,0.168l-0.089,0.167l-0.092,0.165l-0.093,0.165l-0.095,0.163l-0.097,0.161l-0.099,0.161l-0.1,0.159l-0.103,0.158l-0.105,0.156l-0.106,0.156l-0.108,0.153l-0.11,0.153l-0.111,0.151l-0.114,0.15l-0.115,0.148l-0.117,0.147l-0.118,0.145l-0.121,0.144l-0.121,0.143l-0.124,0.141l-0.125,0.139l-0.127,0.138l-0.129,0.137l-0.13,0.134l-0.132,0.134l-0.133,0.132l-0.135,0.13l-0.136,0.128l-0.138,0.127l-0.14,0.125l-0.141,0.124l-0.142,0.122l-0.144,0.12l-0.146,0.119l-0.146,0.117l-0.149,0.115l-0.149,0.113l-0.152,0.112l-0.152,0.11l-0.154,0.108l-0.155,0.106l-0.157,0.104l-0.157,0.103l-0.16,0.101l-0.16,0.099l-0.162,0.097l-0.163,0.095l-0.164,0.093l-0.166,0.091l-0.166,0.09l-0.168,0.087l-0.17,0.085l-0.17,0.084l-0.171,0.081l-0.173,0.079l-0.174,0.078l-0.175,0.075l-0.176,0.073l-0.177,0.071l-0.178,0.069l-0.179,0.067l-0.18,0.065l-0.181,0.063l-0.182,0.06l-0.183,0.058l-0.185,0.056l-0.185,0.054l-0.186,0.052l-0.187,0.049l-0.187,0.047l-0.189,0.045l-0.19,0.043l-0.19,0.04l-0.191,0.038l-0.192,0.036l-0.193,0.033l-0.194,0.031l-0.194,0.028l-0.195,0.026l-0.194,0.024l-0.101,0.011l-0.098,0.01l-0.098,0.01l-0.099,0.009l-0.099,0.009l-0.099,0.007l-0.099,0.008l-0.1,0.006l-0.099,0.006l-0.1,0.006l-0.1,0.004l-0.1,0.005l-0.1,0.003l-0.1,0.003l-0.1,0.002l-0.101,0.002l-0.101,0.001l-0.098,0l-220.643,0l-0.098,0l-0.101,-0.001l-0.101,-0.002l-0.1,-0.002l-0.1,-0.003l-0.1,-0.003l-0.1,-0.005l-0.1,-0.004l-0.1,-0.006l-0.099,-0.006l-0.1,-0.006l-0.099,-0.008l-0.099,-0.007l-0.099,-0.009l-0.099,-0.009l-0.098,-0.01l-0.098,-0.01l-0.101,-0.011l-0.193,-0.024l-0.196,-0.026l-0.194,-0.028l-0.194,-0.031l-0.192,-0.033l-0.192,-0.036l-0.192,-0.038l-0.19,-0.04l-0.19,-0.043l-0.188,-0.045l-0.188,-0.047l-0.187,-0.049l-0.186,-0.052l-0.185,-0.054l-0.184,-0.056l-0.184,-0.058l-0.182,-0.06l-0.181,-0.063l-0.18,-0.065l-0.179,-0.067l-0.178,-0.069l-0.177,-0.071l-0.176,-0.073l-0.175,-0.075l-0.174,-0.078l-0.172,-0.079l-0.172,-0.081l-0.17,-0.084l-0.169,-0.085l-0.168,-0.087l-0.167,-0.09l-0.166,-0.091l-0.164,-0.093l-0.163,-0.095l-0.162,-0.097l-0.16,-0.099l-0.159,-0.101l-0.158,-0.103l-0.157,-0.104l-0.155,-0.106l-0.154,-0.108l-0.152,-0.11l-0.152,-0.112l-0.149,-0.113l-0.148,-0.115l-0.147,-0.117l-0.146,-0.119l-0.144,-0.12l-0.142,-0.122l-0.141,-0.124l-0.14,-0.125l-0.138,-0.127l-0.136,-0.128l-0.135,-0.13l-0.133,-0.132l-0.132,-0.133l-0.13,-0.135l-0.129,-0.137l-0.127,-0.138l-0.125,-0.139l-0.123,-0.141l-0.122,-0.143l-0.121,-0.144l-0.118,-0.145l-0.117,-0.147l-0.115,-0.148l-0.114,-0.15l-0.111,-0.151l-0.11,-0.152l-0.108,-0.154l-0.106,-0.156l-0.105,-0.156l-0.102,-0.158l-0.101,-0.159l-0.099,-0.161l-0.097,-0.161l-0.095,-0.163l-0.093,-0.165l-0.092,-0.165l-0.089,-0.167l-0.087,-0.168l-0.086,-0.169l-0.083,-0.17l-0.081,-0.172l-0.08,-0.172l-0.077,-0.174l-0.075,-0.175l-0.074,-0.176l-0.071,-0.177l-0.069,-0.178l-0.067,-0.179l-0.064,-0.18l-0.063,-0.182l-0.061,-0.182l-0.058,-0.183l-0.056,-0.184l-0.054,-0.185l-0.051,-0.186l-0.05,-0.187l-0.047,-0.188l-0.045,-0.189l-0.042,-0.189l-0.041,-0.191l-0.037,-0.191l-0.036,-0.192l-0.033,-0.193l-0.031,-0.193l-0.029,-0.195l-0.026,-0.195l-0.023,-0.193l-0.011,-0.101l-0.011,-0.098l-0.009,-0.099l-0.009,-0.099l-0.009,-0.099l-0.008,-0.099l-0.007,-0.099l-0.007,-0.099l-0.006,-0.1l-0.005,-0.099l-0.005,-0.1l-0.004,-0.1l-0.003,-0.1l-0.003,-0.1l-0.002,-0.101l-0.002,-0.1l-0.001,-0.101l0,-0.099l0,-28.141l0,-0.099l0.001,-0.1l0.002,-0.101l0.002,-0.1l0.003,-0.101l0.003,-0.1l0.004,-0.1l0.005,-0.1l0.005,-0.099l0.006,-0.1l0.007,-0.099l0.007,-0.099l0.008,-0.099l0.009,-0.099l0.009,-0.099l0.009,-0.098l0.011,-0.099l0.011,-0.1l0.023,-0.194l0.026,-0.195l0.029,-0.194l0.031,-0.194l0.033,-0.193l0.036,-0.192l0.037,-0.191l0.041,-0.191l0.042,-0.189l0.045,-0.189l0.047,-0.188l0.05,-0.187l0.051,-0.186l0.054,-0.185l0.056,-0.184l0.058,-0.183l0.061,-0.182l0.063,-0.181l0.064,-0.181l0.067,-0.179l0.069,-0.178l0.071,-0.177l0.074,-0.176l0.075,-0.175l0.077,-0.173l0.08,-0.173l0.081,-0.171l0.083,-0.171l0.086,-0.169l0.087,-0.168l0.089,-0.167l0.092,-0.165l0.093,-0.164l0.095,-0.163l0.097,-0.162l0.099,-0.161l0.101,-0.159l0.102,-0.158l0.105,-0.156l0.106,-0.155l0.108,-0.154l0.11,-0.153l0.111,-0.151l0.114,-0.15l0.115,-0.148l0.117,-0.147l0.118,-0.145l0.121,-0.144l0.122,-0.143l0.123,-0.141l0.125,-0.139l0.127,-0.138l0.129,-0.136l0.13,-0.135l0.132,-0.134l0.133,-0.131l0.135,-0.13l0.136,-0.129l0.138,-0.127l0.14,-0.125l0.141,-0.124l0.142,-0.122l0.144,-0.12l0.146,-0.119l0.147,-0.116l0.148,-0.116l0.149,-0.113l0.152,-0.112l0.152,-0.109l0.154,-0.109l0.155,-0.106l0.157,-0.104l0.158,-0.103l0.159,-0.101l0.16,-0.098l0.162,-0.097l0.163,-0.096l0.164,-0.093l0.166,-0.091l0.167,-0.089l0.168,-0.088l0.169,-0.085l0.17,-0.084l0.172,-0.081l0.172,-0.079l0.174,-0.078l0.175,-0.075l0.176,-0.073l0.177,-0.071l0.178,-0.069l0.179,-0.067l0.18,-0.065l0.181,-0.062l0.182,-0.061l0.184,-0.058l0.184,-0.056l0.185,-0.054l0.186,-0.052l0.187,-0.049l0.188,-0.047l0.188,-0.045l0.19,-0.043l0.19,-0.04l0.192,-0.038l0.191,-0.035l0.193,-0.034l0.194,-0.031l0.194,-0.028l0.196,-0.026l0.193,-0.023l0.101,-0.012l0.098,-0.01l0.099,-0.01l0.098,-0.009l0.099,-0.008l0.099,-0.008l0.099,-0.007l0.1,-0.007l0.099,-0.006l0.1,-0.005l0.1,-0.005l0.1,-0.004l0.1,-0.004l0.1,-0.003l0.1,-0.002l0.101,-0.001l0.101,-0.001l0.098,-0.001l220.643,0l0.098,0.001Zm-220.736,3.124l-0.083,0.001l-0.081,0l-0.081,0.002l-0.081,0.001l-0.08,0.003l-0.08,0.002l-0.081,0.004l-0.08,0.004l-0.079,0.004l-0.08,0.005l-0.08,0.005l-0.079,0.006l-0.08,0.006l-0.079,0.007l-0.079,0.007l-0.079,0.008l-0.079,0.008l-0.076,0.009l-0.159,0.019l-0.156,0.021l-0.155,0.023l-0.155,0.024l-0.154,0.027l-0.154,0.028l-0.153,0.031l-0.152,0.032l-0.151,0.034l-0.151,0.036l-0.15,0.037l-0.149,0.04l-0.149,0.041l-0.148,0.043l-0.147,0.045l-0.146,0.046l-0.145,0.048l-0.145,0.05l-0.144,0.052l-0.143,0.054l-0.142,0.055l-0.142,0.057l-0.14,0.058l-0.14,0.06l-0.139,0.062l-0.138,0.063l-0.137,0.065l-0.136,0.067l-0.135,0.068l-0.134,0.07l-0.134,0.072l-0.132,0.073l-0.132,0.074l-0.13,0.076l-0.129,0.078l-0.129,0.079l-0.127,0.081l-0.127,0.082l-0.125,0.083l-0.124,0.085l-0.123,0.087l-0.123,0.088l-0.121,0.089l-0.119,0.091l-0.119,0.092l-0.118,0.094l-0.116,0.095l-0.116,0.096l-0.114,0.098l-0.113,0.099l-0.112,0.101l-0.11,0.101l-0.11,0.103l-0.108,0.105l-0.106,0.105l-0.106,0.107l-0.104,0.108l-0.103,0.109l-0.102,0.111l-0.1,0.112l-0.099,0.113l-0.098,0.114l-0.097,0.115l-0.095,0.117l-0.093,0.117l-0.092,0.119l-0.091,0.12l-0.09,0.121l-0.088,0.122l-0.086,0.123l-0.085,0.125l-0.084,0.125l-0.082,0.126l-0.081,0.128l-0.079,0.128l-0.077,0.13l-0.076,0.13l-0.075,0.131l-0.073,0.133l-0.071,0.133l-0.07,0.134l-0.068,0.136l-0.067,0.136l-0.065,0.137l-0.064,0.138l-0.061,0.139l-0.061,0.139l-0.058,0.141l-0.057,0.141l-0.055,0.143l-0.053,0.143l-0.052,0.144l-0.05,0.144l-0.048,0.146l-0.047,0.146l-0.045,0.147l-0.043,0.148l-0.041,0.148l-0.039,0.15l-0.038,0.15l-0.036,0.15l-0.034,0.152l-0.032,0.152l-0.03,0.153l-0.029,0.153l-0.026,0.154l-0.025,0.155l-0.023,0.156l-0.021,0.156l-0.019,0.159l-0.008,0.076l-0.009,0.079l-0.007,0.079l-0.008,0.079l-0.006,0.079l-0.007,0.079l-0.006,0.08l-0.005,0.079l-0.005,0.08l-0.004,0.08l-0.004,0.08l-0.003,0.08l-0.003,0.081l-0.002,0.08l-0.002,0.081l-0.001,0.08l-0.001,0.081l0,0.084l0,28.132l0,0.083l0.001,0.081l0.001,0.081l0.002,0.08l0.002,0.081l0.003,0.08l0.003,0.08l0.004,0.08l0.004,0.08l0.005,0.08l0.005,0.08l0.006,0.079l0.007,0.079l0.006,0.08l0.008,0.079l0.007,0.079l0.009,0.078l0.008,0.076l0.019,0.16l0.021,0.156l0.023,0.155l0.025,0.155l0.026,0.154l0.029,0.153l0.03,0.153l0.032,0.152l0.034,0.152l0.036,0.151l0.038,0.15l0.039,0.149l0.041,0.148l0.043,0.148l0.045,0.147l0.047,0.146l0.048,0.146l0.05,0.145l0.052,0.144l0.053,0.143l0.055,0.142l0.057,0.141l0.058,0.141l0.061,0.14l0.061,0.138l0.064,0.138l0.065,0.137l0.067,0.137l0.068,0.135l0.07,0.134l0.071,0.133l0.073,0.133l0.075,0.131l0.076,0.131l0.077,0.129l0.079,0.129l0.081,0.127l0.082,0.126l0.084,0.126l0.085,0.124l0.086,0.123l0.088,0.122l0.09,0.121l0.091,0.12l0.092,0.119l0.093,0.118l0.095,0.116l0.097,0.115l0.098,0.115l0.099,0.113l0.1,0.111l0.102,0.111l0.103,0.109l0.104,0.108l0.106,0.107l0.106,0.106l0.108,0.104l0.11,0.103l0.11,0.102l0.112,0.1l0.113,0.099l0.114,0.098l0.116,0.096l0.116,0.095l0.118,0.094l0.118,0.092l0.12,0.091l0.121,0.089l0.123,0.088l0.123,0.087l0.124,0.085l0.125,0.083l0.127,0.083l0.127,0.08l0.129,0.079l0.129,0.078l0.13,0.076l0.132,0.075l0.132,0.073l0.134,0.071l0.134,0.07l0.135,0.068l0.136,0.067l0.137,0.065l0.138,0.063l0.139,0.062l0.14,0.06l0.14,0.059l0.142,0.057l0.142,0.055l0.143,0.053l0.144,0.052l0.145,0.05l0.145,0.048l0.146,0.047l0.147,0.044l0.148,0.043l0.149,0.042l0.149,0.039l0.15,0.038l0.151,0.036l0.151,0.034l0.152,0.032l0.153,0.03l0.154,0.028l0.154,0.027l0.155,0.025l0.155,0.022l0.156,0.021l0.159,0.02l0.076,0.008l0.079,0.008l0.079,0.008l0.079,0.007l0.079,0.007l0.08,0.006l0.079,0.006l0.08,0.006l0.079,0.004l0.08,0.005l0.08,0.003l0.081,0.004l0.08,0.003l0.08,0.002l0.081,0.002l0.081,0.001l0.081,0.001l0.083,0l220.633,0l0.083,0l0.081,-0.001l0.081,-0.001l0.081,-0.002l0.08,-0.002l0.08,-0.003l0.081,-0.004l0.08,-0.003l0.08,-0.005l0.079,-0.004l0.08,-0.006l0.08,-0.006l0.079,-0.006l0.079,-0.007l0.079,-0.007l0.079,-0.008l0.079,-0.008l0.076,-0.008l0.159,-0.02l0.156,-0.021l0.155,-0.022l0.155,-0.025l0.154,-0.027l0.154,-0.028l0.153,-0.03l0.152,-0.032l0.151,-0.034l0.151,-0.036l0.15,-0.038l0.149,-0.039l0.149,-0.042l0.148,-0.043l0.147,-0.044l0.146,-0.047l0.145,-0.048l0.145,-0.05l0.144,-0.052l0.143,-0.053l0.142,-0.056l0.142,-0.056l0.14,-0.059l0.14,-0.06l0.139,-0.062l0.138,-0.063l0.137,-0.065l0.136,-0.067l0.135,-0.068l0.135,-0.07l0.133,-0.071l0.132,-0.073l0.132,-0.075l0.13,-0.076l0.13,-0.078l0.128,-0.079l0.127,-0.08l0.127,-0.083l0.125,-0.083l0.124,-0.085l0.123,-0.087l0.123,-0.088l0.121,-0.089l0.12,-0.091l0.118,-0.092l0.118,-0.094l0.116,-0.095l0.116,-0.096l0.114,-0.098l0.113,-0.099l0.112,-0.1l0.11,-0.102l0.11,-0.103l0.108,-0.104l0.107,-0.106l0.105,-0.107l0.104,-0.108l0.103,-0.109l0.102,-0.111l0.1,-0.111l0.1,-0.113l0.097,-0.115l0.097,-0.115l0.095,-0.116l0.093,-0.118l0.092,-0.119l0.091,-0.12l0.09,-0.121l0.088,-0.122l0.086,-0.123l0.085,-0.124l0.084,-0.126l0.082,-0.126l0.081,-0.128l0.079,-0.128l0.077,-0.129l0.077,-0.131l0.074,-0.131l0.073,-0.133l0.071,-0.133l0.07,-0.134l0.069,-0.135l0.066,-0.137l0.065,-0.137l0.064,-0.138l0.062,-0.139l0.06,-0.139l0.058,-0.141l0.057,-0.141l0.055,-0.142l0.054,-0.143l0.051,-0.144l0.05,-0.145l0.049,-0.146l0.046,-0.146l0.045,-0.147l0.043,-0.148l0.041,-0.148l0.04,-0.15l0.037,-0.149l0.036,-0.151l0.034,-0.152l0.032,-0.152l0.03,-0.152l0.029,-0.154l0.026,-0.154l0.025,-0.155l0.023,-0.155l0.021,-0.156l0.019,-0.16l0.008,-0.076l0.009,-0.078l0.008,-0.079l0.007,-0.079l0.007,-0.079l0.006,-0.08l0.006,-0.08l0.005,-0.079l0.005,-0.08l0.004,-0.08l0.004,-0.08l0.003,-0.08l0.003,-0.08l0.002,-0.081l0.002,-0.081l0.001,-0.08l0.001,-0.081l0,-0.084l0,-28.131l0,-0.084l-0.001,-0.081l-0.001,-0.08l-0.002,-0.081l-0.002,-0.081l-0.003,-0.08l-0.003,-0.08l-0.004,-0.08l-0.004,-0.08l-0.005,-0.079l-0.005,-0.08l-0.006,-0.08l-0.006,-0.079l-0.007,-0.079l-0.007,-0.079l-0.008,-0.079l-0.009,-0.079l-0.008,-0.076l-0.019,-0.159l-0.021,-0.156l-0.023,-0.156l-0.025,-0.155l-0.026,-0.154l-0.029,-0.153l-0.03,-0.153l-0.032,-0.152l-0.034,-0.152l-0.036,-0.15l-0.037,-0.15l-0.04,-0.149l-0.041,-0.149l-0.043,-0.148l-0.045,-0.147l-0.046,-0.146l-0.049,-0.146l-0.05,-0.144l-0.051,-0.144l-0.054,-0.143l-0.055,-0.143l-0.057,-0.141l-0.058,-0.141l-0.06,-0.139l-0.062,-0.139l-0.064,-0.138l-0.065,-0.137l-0.066,-0.136l-0.069,-0.136l-0.07,-0.134l-0.071,-0.133l-0.073,-0.133l-0.074,-0.131l-0.077,-0.13l-0.077,-0.13l-0.079,-0.128l-0.081,-0.128l-0.082,-0.126l-0.084,-0.125l-0.085,-0.125l-0.086,-0.123l-0.088,-0.122l-0.09,-0.121l-0.091,-0.12l-0.092,-0.119l-0.093,-0.117l-0.095,-0.117l-0.097,-0.115l-0.097,-0.114l-0.1,-0.113l-0.1,-0.112l-0.102,-0.111l-0.103,-0.109l-0.104,-0.108l-0.105,-0.107l-0.107,-0.105l-0.108,-0.105l-0.11,-0.103l-0.11,-0.101l-0.112,-0.101l-0.113,-0.099l-0.114,-0.098l-0.116,-0.096l-0.116,-0.095l-0.118,-0.094l-0.118,-0.092l-0.12,-0.091l-0.121,-0.089l-0.123,-0.088l-0.123,-0.087l-0.124,-0.085l-0.125,-0.083l-0.127,-0.082l-0.127,-0.081l-0.128,-0.079l-0.13,-0.078l-0.13,-0.076l-0.132,-0.074l-0.132,-0.073l-0.133,-0.072l-0.135,-0.07l-0.135,-0.068l-0.136,-0.067l-0.137,-0.065l-0.138,-0.063l-0.139,-0.062l-0.14,-0.06l-0.14,-0.058l-0.142,-0.057l-0.142,-0.055l-0.143,-0.054l-0.144,-0.052l-0.145,-0.05l-0.145,-0.048l-0.146,-0.046l-0.147,-0.045l-0.148,-0.043l-0.149,-0.041l-0.149,-0.04l-0.15,-0.037l-0.151,-0.036l-0.151,-0.034l-0.152,-0.032l-0.153,-0.031l-0.154,-0.028l-0.154,-0.027l-0.155,-0.024l-0.155,-0.023l-0.156,-0.021l-0.159,-0.019l-0.076,-0.009l-0.079,-0.008l-0.079,-0.008l-0.079,-0.007l-0.079,-0.007l-0.08,-0.006l-0.079,-0.006l-0.08,-0.005l-0.079,-0.005l-0.08,-0.004l-0.08,-0.004l-0.081,-0.004l-0.08,-0.002l-0.08,-0.003l-0.081,-0.001l-0.081,-0.002l-0.08,0l-0.084,-0.001l-220.633,0Z"/><text x="107.739px" y="95.876px" style="font-family:'ArialMT', 'Arial', 'Helvetica', sans-serif;font-size:37.5px;">Moderator</text><path d="M87.691,77.276l-3.059,6.202l-6.844,0.993c-1.227,0.178 -1.719,1.691 -0.829,2.558l4.952,4.824l-1.171,6.816c-0.211,1.223 1.077,2.155 2.173,1.579l6.123,-3.214l6.122,3.219c1.092,0.576 2.384,-0.352 2.174,-1.579l-1.171,-6.816l4.951,-4.825c0.89,-0.866 0.398,-2.379 -0.829,-2.557l-6.844,-0.998l-3.059,-6.202c-0.548,-1.111 -2.136,-1.115 -2.689,0Zm-8.406,15.682l-19.007,0c-1.06,0 -1.92,-0.859 -1.92,-1.919l0,-5.599c0,-3.092 2.507,-5.599 5.599,-5.599l1.427,0c3.549,2.135 7.993,2.135 11.542,0l1.428,0c1.504,0 2.87,0.594 3.876,1.56l-4.792,0.695c-0.873,0.131 -1.699,0.559 -2.296,1.208c-1.269,1.376 -1.332,3.588 -0.239,5.015c0.162,0.211 0.378,0.425 0.378,0.425l4.05,3.947l-0.046,0.267Zm-16.128,-22.714c0,-4.418 3.581,-7.999 7.998,-7.999c4.417,0 7.998,3.581 7.998,7.999c0,4.417 -3.581,7.998 -7.998,7.998c-4.417,0 -7.998,-3.581 -7.998,-7.998Z"/></g><g><rect x="86.908" y="108.651" width="3.125" height="84.268"/><path d="M88.471,192.919l-4.938,-14.31l9.876,0l-4.938,14.31Z"/><path d="M88.471,197.709l-7.131,-20.663l14.261,0l-7.13,20.663Zm-2.746,-17.538l2.746,7.958l2.746,-7.958l-5.492,0Z"/></g><g><rect x="132.984" y="282.92" width="3.125" height="84.268"/><path d="M134.546,367.187l-4.938,-14.31l9.877,0l-4.939,14.31Z"/><path d="M134.546,371.977l-7.13,-20.662l14.261,0l-7.131,20.662Zm-2.746,-17.537l2.746,7.958l2.746,-7.958l-5.492,0Z"/></g><g><path d="M244.22,240.35c0,-7.764 -6.303,-14.068 -14.068,-14.068l-132.551,0c-7.765,0 -14.068,6.304 -14.068,14.068l0,28.137c0,7.765 6.303,14.069 14.068,14.069l132.551,0c7.765,0 14.068,-6.304 14.068,-14.069l0,-28.137Z" style="fill:#fff;"/><path d="M230.253,224.72l0.101,0.001l0.1,0.001l0.1,0.003l0.101,0.002l0.1,0.004l0.1,0.004l0.1,0.005l0.099,0.005l0.1,0.006l0.099,0.007l0.1,0.007l0.099,0.008l0.098,0.008l0.099,0.009l0.099,0.01l0.098,0.01l0.101,0.012l0.193,0.023l0.195,0.026l0.195,0.029l0.193,0.03l0.193,0.034l0.192,0.035l0.191,0.038l0.191,0.04l0.189,0.043l0.189,0.045l0.188,0.047l0.187,0.049l0.186,0.052l0.185,0.054l0.184,0.056l0.183,0.058l0.182,0.061l0.182,0.062l0.18,0.065l0.179,0.067l0.178,0.069l0.177,0.071l0.176,0.073l0.175,0.076l0.174,0.077l0.172,0.079l0.172,0.082l0.17,0.083l0.169,0.085l0.168,0.088l0.167,0.089l0.165,0.091l0.165,0.094l0.162,0.095l0.162,0.097l0.161,0.099l0.159,0.1l0.158,0.103l0.156,0.104l0.156,0.107l0.153,0.108l0.153,0.11l0.151,0.111l0.15,0.114l0.148,0.115l0.147,0.117l0.145,0.118l0.144,0.12l0.143,0.122l0.141,0.124l0.139,0.125l0.138,0.127l0.137,0.129l0.134,0.13l0.134,0.132l0.131,0.133l0.131,0.135l0.128,0.136l0.127,0.138l0.125,0.14l0.124,0.141l0.122,0.142l0.12,0.144l0.119,0.145l0.117,0.147l0.115,0.149l0.113,0.149l0.112,0.151l0.11,0.153l0.108,0.154l0.106,0.155l0.104,0.156l0.103,0.158l0.101,0.16l0.099,0.16l0.097,0.162l0.095,0.163l0.093,0.164l0.091,0.166l0.09,0.166l0.087,0.168l0.085,0.169l0.084,0.171l0.081,0.171l0.079,0.173l0.078,0.174l0.075,0.174l0.073,0.176l0.071,0.177l0.069,0.178l0.067,0.18l0.065,0.18l0.063,0.181l0.06,0.182l0.058,0.183l0.056,0.184l0.054,0.186l0.052,0.185l0.049,0.187l0.047,0.188l0.045,0.189l0.043,0.19l0.04,0.19l0.038,0.191l0.036,0.192l0.033,0.193l0.031,0.194l0.028,0.194l0.026,0.195l0.024,0.194l0.011,0.1l0.01,0.099l0.01,0.098l0.009,0.099l0.008,0.099l0.008,0.099l0.008,0.099l0.006,0.1l0.006,0.099l0.006,0.1l0.004,0.1l0.004,0.099l0.004,0.1l0.003,0.101l0.002,0.1l0.002,0.101l0.001,0.101l0,0.098l0,28.142l0,0.098l-0.001,0.101l-0.002,0.1l-0.002,0.101l-0.003,0.1l-0.004,0.1l-0.004,0.1l-0.004,0.1l-0.006,0.1l-0.006,0.099l-0.006,0.1l-0.008,0.099l-0.008,0.099l-0.008,0.099l-0.009,0.098l-0.01,0.099l-0.01,0.098l-0.011,0.101l-0.024,0.193l-0.026,0.195l-0.028,0.195l-0.031,0.193l-0.033,0.193l-0.036,0.192l-0.038,0.192l-0.04,0.19l-0.043,0.19l-0.045,0.188l-0.047,0.188l-0.049,0.187l-0.052,0.186l-0.054,0.185l-0.056,0.184l-0.058,0.183l-0.06,0.183l-0.063,0.181l-0.065,0.18l-0.067,0.179l-0.069,0.178l-0.071,0.177l-0.073,0.176l-0.075,0.175l-0.078,0.174l-0.079,0.172l-0.081,0.172l-0.084,0.17l-0.085,0.169l-0.087,0.168l-0.09,0.167l-0.091,0.165l-0.093,0.165l-0.095,0.163l-0.097,0.162l-0.099,0.16l-0.101,0.159l-0.103,0.158l-0.104,0.157l-0.106,0.155l-0.108,0.154l-0.11,0.152l-0.112,0.151l-0.113,0.15l-0.115,0.148l-0.117,0.147l-0.119,0.146l-0.12,0.143l-0.122,0.143l-0.124,0.141l-0.125,0.139l-0.127,0.138l-0.128,0.137l-0.131,0.135l-0.131,0.133l-0.134,0.132l-0.134,0.13l-0.137,0.128l-0.138,0.127l-0.139,0.126l-0.141,0.123l-0.143,0.122l-0.144,0.12l-0.145,0.119l-0.147,0.117l-0.148,0.115l-0.15,0.113l-0.151,0.112l-0.153,0.11l-0.153,0.108l-0.156,0.106l-0.156,0.105l-0.158,0.102l-0.159,0.101l-0.161,0.099l-0.162,0.097l-0.162,0.095l-0.165,0.093l-0.165,0.091l-0.167,0.09l-0.168,0.087l-0.169,0.085l-0.17,0.084l-0.172,0.081l-0.173,0.08l-0.173,0.077l-0.175,0.075l-0.176,0.073l-0.177,0.072l-0.178,0.069l-0.179,0.067l-0.18,0.064l-0.182,0.063l-0.182,0.06l-0.183,0.059l-0.184,0.056l-0.185,0.053l-0.186,0.052l-0.187,0.05l-0.188,0.047l-0.189,0.045l-0.189,0.042l-0.191,0.04l-0.191,0.038l-0.192,0.036l-0.193,0.033l-0.194,0.031l-0.194,0.028l-0.195,0.027l-0.193,0.023l-0.101,0.011l-0.098,0.01l-0.099,0.01l-0.099,0.009l-0.098,0.009l-0.1,0.008l-0.099,0.007l-0.099,0.006l-0.1,0.006l-0.1,0.006l-0.099,0.005l-0.1,0.004l-0.1,0.003l-0.101,0.003l-0.1,0.002l-0.1,0.002l-0.101,0.001l-0.099,0l-132.555,0l-0.099,0l-0.101,-0.001l-0.1,-0.002l-0.1,-0.002l-0.101,-0.003l-0.1,-0.003l-0.1,-0.004l-0.1,-0.005l-0.1,-0.006l-0.099,-0.006l-0.099,-0.006l-0.099,-0.007l-0.1,-0.008l-0.098,-0.009l-0.099,-0.009l-0.099,-0.01l-0.098,-0.01l-0.101,-0.011l-0.193,-0.023l-0.195,-0.027l-0.194,-0.028l-0.194,-0.031l-0.193,-0.033l-0.192,-0.036l-0.191,-0.038l-0.191,-0.04l-0.189,-0.042l-0.189,-0.045l-0.188,-0.047l-0.187,-0.05l-0.186,-0.052l-0.185,-0.053l-0.184,-0.056l-0.183,-0.059l-0.182,-0.06l-0.182,-0.063l-0.18,-0.064l-0.179,-0.067l-0.178,-0.069l-0.177,-0.072l-0.176,-0.073l-0.175,-0.075l-0.173,-0.077l-0.173,-0.08l-0.172,-0.081l-0.17,-0.084l-0.169,-0.085l-0.168,-0.087l-0.167,-0.09l-0.165,-0.091l-0.165,-0.093l-0.163,-0.095l-0.161,-0.097l-0.161,-0.099l-0.159,-0.101l-0.158,-0.102l-0.156,-0.105l-0.156,-0.106l-0.154,-0.108l-0.152,-0.11l-0.151,-0.112l-0.15,-0.113l-0.148,-0.115l-0.147,-0.117l-0.145,-0.119l-0.144,-0.12l-0.143,-0.122l-0.141,-0.123l-0.139,-0.126l-0.138,-0.127l-0.137,-0.128l-0.134,-0.13l-0.134,-0.132l-0.132,-0.133l-0.13,-0.135l-0.128,-0.137l-0.127,-0.138l-0.125,-0.139l-0.124,-0.141l-0.122,-0.143l-0.12,-0.144l-0.119,-0.145l-0.117,-0.147l-0.115,-0.148l-0.113,-0.15l-0.112,-0.151l-0.11,-0.152l-0.108,-0.154l-0.106,-0.155l-0.104,-0.157l-0.103,-0.158l-0.101,-0.159l-0.099,-0.16l-0.097,-0.162l-0.095,-0.163l-0.093,-0.165l-0.091,-0.165l-0.09,-0.167l-0.087,-0.168l-0.085,-0.169l-0.084,-0.17l-0.081,-0.172l-0.079,-0.172l-0.078,-0.174l-0.075,-0.175l-0.073,-0.176l-0.071,-0.177l-0.069,-0.178l-0.067,-0.179l-0.065,-0.18l-0.063,-0.181l-0.06,-0.183l-0.058,-0.183l-0.056,-0.184l-0.054,-0.185l-0.052,-0.186l-0.049,-0.187l-0.047,-0.188l-0.045,-0.188l-0.043,-0.19l-0.04,-0.19l-0.038,-0.192l-0.036,-0.192l-0.033,-0.193l-0.031,-0.193l-0.028,-0.195l-0.026,-0.195l-0.024,-0.193l-0.011,-0.101l-0.01,-0.098l-0.01,-0.099l-0.009,-0.098l-0.009,-0.099l-0.007,-0.099l-0.008,-0.099l-0.006,-0.1l-0.006,-0.099l-0.006,-0.1l-0.004,-0.1l-0.004,-0.1l-0.004,-0.1l-0.003,-0.1l-0.002,-0.101l-0.002,-0.1l-0.001,-0.101l0,-0.098l0,-28.142l0,-0.098l0.001,-0.101l0.002,-0.101l0.002,-0.1l0.003,-0.1l0.004,-0.101l0.004,-0.1l0.004,-0.099l0.006,-0.1l0.006,-0.1l0.006,-0.099l0.008,-0.099l0.007,-0.099l0.009,-0.099l0.009,-0.099l0.01,-0.098l0.01,-0.099l0.011,-0.1l0.024,-0.194l0.026,-0.195l0.028,-0.194l0.031,-0.194l0.033,-0.193l0.036,-0.192l0.038,-0.191l0.04,-0.19l0.043,-0.19l0.045,-0.189l0.047,-0.188l0.049,-0.186l0.052,-0.186l0.054,-0.186l0.056,-0.184l0.058,-0.183l0.06,-0.182l0.063,-0.181l0.065,-0.18l0.067,-0.18l0.069,-0.178l0.071,-0.177l0.073,-0.176l0.075,-0.174l0.078,-0.174l0.079,-0.173l0.081,-0.171l0.084,-0.171l0.085,-0.169l0.087,-0.168l0.09,-0.166l0.091,-0.166l0.093,-0.164l0.095,-0.163l0.097,-0.162l0.099,-0.16l0.101,-0.16l0.103,-0.158l0.104,-0.156l0.106,-0.155l0.108,-0.154l0.11,-0.153l0.112,-0.151l0.113,-0.149l0.115,-0.149l0.117,-0.147l0.119,-0.145l0.12,-0.144l0.122,-0.142l0.124,-0.141l0.125,-0.14l0.127,-0.138l0.128,-0.136l0.13,-0.135l0.132,-0.133l0.133,-0.132l0.135,-0.13l0.137,-0.129l0.138,-0.127l0.139,-0.125l0.141,-0.124l0.143,-0.122l0.144,-0.12l0.145,-0.118l0.147,-0.117l0.148,-0.115l0.15,-0.114l0.151,-0.111l0.152,-0.11l0.154,-0.108l0.156,-0.107l0.156,-0.104l0.158,-0.103l0.159,-0.1l0.161,-0.099l0.161,-0.097l0.163,-0.095l0.165,-0.094l0.165,-0.091l0.167,-0.089l0.168,-0.088l0.169,-0.085l0.17,-0.083l0.172,-0.082l0.172,-0.079l0.174,-0.077l0.175,-0.076l0.176,-0.073l0.177,-0.071l0.178,-0.069l0.179,-0.067l0.18,-0.065l0.182,-0.062l0.182,-0.061l0.183,-0.058l0.184,-0.056l0.185,-0.054l0.186,-0.052l0.187,-0.049l0.188,-0.047l0.189,-0.045l0.189,-0.043l0.191,-0.04l0.191,-0.038l0.192,-0.035l0.193,-0.034l0.193,-0.03l0.195,-0.029l0.195,-0.026l0.193,-0.023l0.101,-0.012l0.098,-0.01l0.099,-0.01l0.099,-0.009l0.098,-0.008l0.099,-0.008l0.1,-0.007l0.099,-0.007l0.1,-0.006l0.099,-0.005l0.1,-0.005l0.1,-0.004l0.1,-0.004l0.101,-0.002l0.1,-0.003l0.1,-0.001l0.101,-0.001l0.099,-0.001l132.555,0l0.099,0.001Zm-132.65,3.124l-0.083,0.001l-0.081,0l-0.081,0.002l-0.08,0.002l-0.081,0.002l-0.08,0.003l-0.08,0.003l-0.08,0.004l-0.08,0.004l-0.08,0.005l-0.08,0.005l-0.079,0.006l-0.079,0.006l-0.08,0.007l-0.079,0.007l-0.079,0.008l-0.078,0.008l-0.076,0.009l-0.159,0.019l-0.157,0.021l-0.155,0.023l-0.155,0.024l-0.154,0.027l-0.153,0.028l-0.153,0.031l-0.152,0.032l-0.152,0.034l-0.15,0.036l-0.15,0.037l-0.15,0.04l-0.148,0.041l-0.148,0.043l-0.147,0.045l-0.146,0.046l-0.146,0.049l-0.145,0.05l-0.144,0.051l-0.143,0.054l-0.142,0.055l-0.141,0.057l-0.141,0.058l-0.14,0.06l-0.138,0.062l-0.138,0.064l-0.137,0.065l-0.137,0.066l-0.135,0.069l-0.134,0.069l-0.133,0.072l-0.133,0.073l-0.131,0.074l-0.131,0.076l-0.129,0.078l-0.128,0.079l-0.128,0.081l-0.126,0.082l-0.126,0.084l-0.124,0.085l-0.123,0.086l-0.122,0.088l-0.121,0.09l-0.12,0.09l-0.119,0.093l-0.117,0.093l-0.117,0.095l-0.115,0.097l-0.115,0.097l-0.112,0.099l-0.112,0.101l-0.111,0.102l-0.109,0.102l-0.108,0.105l-0.107,0.105l-0.106,0.107l-0.104,0.108l-0.103,0.11l-0.102,0.11l-0.1,0.112l-0.099,0.113l-0.098,0.114l-0.096,0.115l-0.095,0.117l-0.094,0.117l-0.092,0.119l-0.091,0.12l-0.089,0.121l-0.088,0.122l-0.087,0.123l-0.085,0.125l-0.083,0.125l-0.083,0.126l-0.08,0.128l-0.079,0.128l-0.078,0.13l-0.076,0.13l-0.075,0.132l-0.073,0.132l-0.071,0.133l-0.07,0.135l-0.068,0.135l-0.067,0.136l-0.065,0.137l-0.063,0.138l-0.062,0.139l-0.06,0.14l-0.059,0.14l-0.056,0.141l-0.056,0.143l-0.053,0.143l-0.052,0.144l-0.05,0.144l-0.048,0.146l-0.047,0.146l-0.044,0.147l-0.043,0.148l-0.042,0.149l-0.039,0.149l-0.038,0.15l-0.036,0.151l-0.034,0.151l-0.032,0.152l-0.03,0.153l-0.028,0.153l-0.027,0.155l-0.025,0.154l-0.022,0.156l-0.021,0.156l-0.02,0.159l-0.008,0.076l-0.008,0.079l-0.008,0.079l-0.007,0.079l-0.007,0.079l-0.006,0.079l-0.006,0.08l-0.006,0.079l-0.004,0.08l-0.005,0.08l-0.003,0.08l-0.004,0.08l-0.003,0.081l-0.002,0.08l-0.002,0.081l-0.001,0.08l-0.001,0.081l0,0.084l0,28.132l0,0.083l0.001,0.081l0.001,0.081l0.002,0.08l0.002,0.081l0.003,0.08l0.004,0.08l0.003,0.08l0.005,0.08l0.004,0.08l0.006,0.08l0.006,0.079l0.006,0.08l0.007,0.079l0.007,0.079l0.008,0.079l0.008,0.078l0.008,0.077l0.02,0.159l0.021,0.156l0.022,0.155l0.025,0.155l0.027,0.154l0.028,0.154l0.03,0.152l0.032,0.153l0.034,0.151l0.036,0.151l0.038,0.15l0.039,0.149l0.042,0.149l0.043,0.147l0.044,0.147l0.047,0.147l0.048,0.145l0.05,0.145l0.052,0.144l0.053,0.143l0.056,0.142l0.056,0.141l0.059,0.141l0.06,0.14l0.062,0.139l0.063,0.138l0.065,0.137l0.067,0.136l0.068,0.135l0.07,0.134l0.071,0.134l0.073,0.132l0.075,0.131l0.076,0.131l0.078,0.129l0.079,0.129l0.08,0.127l0.083,0.126l0.083,0.126l0.085,0.124l0.087,0.123l0.088,0.122l0.089,0.121l0.091,0.12l0.092,0.119l0.094,0.118l0.095,0.116l0.096,0.116l0.098,0.114l0.099,0.113l0.1,0.111l0.102,0.111l0.103,0.109l0.104,0.108l0.106,0.107l0.107,0.106l0.108,0.104l0.109,0.103l0.111,0.102l0.112,0.1l0.113,0.099l0.114,0.098l0.115,0.096l0.116,0.095l0.118,0.094l0.119,0.092l0.12,0.091l0.121,0.089l0.122,0.088l0.123,0.087l0.124,0.085l0.126,0.084l0.126,0.082l0.128,0.08l0.128,0.079l0.129,0.078l0.131,0.076l0.131,0.075l0.133,0.073l0.133,0.071l0.134,0.07l0.136,0.068l0.136,0.067l0.137,0.065l0.138,0.063l0.138,0.062l0.14,0.06l0.141,0.059l0.141,0.057l0.142,0.055l0.143,0.053l0.144,0.052l0.145,0.05l0.146,0.048l0.146,0.047l0.147,0.045l0.148,0.043l0.148,0.041l0.149,0.039l0.151,0.038l0.15,0.036l0.152,0.034l0.152,0.032l0.153,0.03l0.153,0.029l0.154,0.026l0.155,0.025l0.155,0.023l0.157,0.02l0.159,0.02l0.076,0.008l0.078,0.008l0.079,0.008l0.079,0.007l0.08,0.007l0.079,0.007l0.079,0.005l0.08,0.006l0.08,0.005l0.08,0.004l0.08,0.004l0.08,0.003l0.08,0.003l0.081,0.002l0.08,0.002l0.081,0.001l0.081,0.001l0.083,0l132.547,0l0.083,0l0.081,-0.001l0.081,-0.001l0.08,-0.002l0.081,-0.002l0.08,-0.003l0.08,-0.003l0.08,-0.004l0.08,-0.004l0.08,-0.005l0.08,-0.006l0.079,-0.005l0.079,-0.007l0.08,-0.007l0.079,-0.007l0.079,-0.008l0.078,-0.008l0.076,-0.008l0.159,-0.02l0.157,-0.02l0.155,-0.023l0.155,-0.025l0.154,-0.026l0.153,-0.029l0.153,-0.03l0.152,-0.032l0.152,-0.034l0.15,-0.036l0.151,-0.038l0.149,-0.039l0.148,-0.041l0.148,-0.043l0.147,-0.045l0.146,-0.047l0.146,-0.048l0.145,-0.05l0.143,-0.052l0.144,-0.053l0.142,-0.055l0.141,-0.057l0.141,-0.059l0.139,-0.06l0.139,-0.062l0.138,-0.063l0.137,-0.065l0.136,-0.067l0.136,-0.068l0.134,-0.07l0.133,-0.071l0.133,-0.073l0.131,-0.075l0.131,-0.076l0.129,-0.078l0.128,-0.079l0.128,-0.08l0.126,-0.082l0.126,-0.084l0.124,-0.085l0.123,-0.087l0.122,-0.088l0.121,-0.089l0.12,-0.091l0.119,-0.092l0.118,-0.094l0.116,-0.095l0.115,-0.096l0.114,-0.098l0.113,-0.099l0.112,-0.1l0.111,-0.102l0.109,-0.103l0.108,-0.104l0.107,-0.106l0.106,-0.107l0.104,-0.108l0.103,-0.109l0.102,-0.111l0.1,-0.111l0.099,-0.113l0.098,-0.114l0.096,-0.116l0.095,-0.116l0.094,-0.118l0.092,-0.119l0.091,-0.12l0.089,-0.121l0.088,-0.122l0.087,-0.123l0.085,-0.124l0.083,-0.126l0.082,-0.126l0.081,-0.127l0.079,-0.129l0.078,-0.129l0.076,-0.131l0.074,-0.131l0.074,-0.132l0.071,-0.134l0.07,-0.134l0.068,-0.135l0.067,-0.136l0.065,-0.137l0.063,-0.138l0.062,-0.139l0.06,-0.14l0.059,-0.141l0.056,-0.141l0.056,-0.142l0.053,-0.143l0.052,-0.144l0.05,-0.145l0.048,-0.145l0.047,-0.147l0.044,-0.147l0.043,-0.147l0.042,-0.149l0.039,-0.149l0.038,-0.15l0.035,-0.151l0.034,-0.151l0.033,-0.153l0.03,-0.152l0.028,-0.154l0.027,-0.154l0.025,-0.155l0.022,-0.155l0.021,-0.156l0.019,-0.159l0.009,-0.076l0.008,-0.08l0.008,-0.078l0.007,-0.079l0.007,-0.079l0.006,-0.08l0.006,-0.079l0.005,-0.08l0.005,-0.08l0.005,-0.08l0.003,-0.079l0.004,-0.081l0.003,-0.08l0.002,-0.08l0.002,-0.081l0.001,-0.081l0.001,-0.081l0,-0.083l0,-28.132l0,-0.084l-0.001,-0.081l-0.001,-0.08l-0.002,-0.081l-0.002,-0.08l-0.003,-0.081l-0.004,-0.08l-0.003,-0.08l-0.005,-0.08l-0.005,-0.08l-0.005,-0.079l-0.006,-0.08l-0.006,-0.079l-0.007,-0.079l-0.007,-0.079l-0.008,-0.079l-0.008,-0.079l-0.009,-0.076l-0.019,-0.159l-0.021,-0.156l-0.022,-0.156l-0.025,-0.155l-0.027,-0.154l-0.028,-0.153l-0.03,-0.153l-0.033,-0.152l-0.034,-0.151l-0.035,-0.151l-0.038,-0.15l-0.039,-0.149l-0.042,-0.149l-0.043,-0.148l-0.044,-0.147l-0.047,-0.146l-0.048,-0.145l-0.05,-0.145l-0.052,-0.144l-0.053,-0.143l-0.056,-0.142l-0.056,-0.142l-0.059,-0.141l-0.06,-0.139l-0.062,-0.139l-0.063,-0.138l-0.065,-0.137l-0.067,-0.136l-0.068,-0.135l-0.07,-0.135l-0.072,-0.133l-0.073,-0.132l-0.074,-0.132l-0.076,-0.13l-0.078,-0.13l-0.079,-0.128l-0.081,-0.128l-0.082,-0.126l-0.083,-0.125l-0.085,-0.125l-0.087,-0.123l-0.088,-0.122l-0.089,-0.121l-0.091,-0.12l-0.092,-0.119l-0.094,-0.117l-0.095,-0.117l-0.096,-0.115l-0.098,-0.114l-0.099,-0.113l-0.1,-0.112l-0.102,-0.11l-0.103,-0.11l-0.104,-0.108l-0.106,-0.107l-0.107,-0.105l-0.108,-0.105l-0.109,-0.103l-0.111,-0.101l-0.112,-0.101l-0.112,-0.099l-0.115,-0.097l-0.115,-0.097l-0.117,-0.095l-0.117,-0.093l-0.119,-0.093l-0.12,-0.09l-0.121,-0.09l-0.122,-0.088l-0.123,-0.086l-0.124,-0.085l-0.126,-0.084l-0.126,-0.082l-0.128,-0.081l-0.128,-0.079l-0.129,-0.078l-0.131,-0.076l-0.131,-0.074l-0.133,-0.073l-0.133,-0.072l-0.134,-0.069l-0.135,-0.069l-0.137,-0.066l-0.137,-0.065l-0.138,-0.064l-0.139,-0.062l-0.139,-0.06l-0.141,-0.058l-0.141,-0.057l-0.142,-0.055l-0.144,-0.054l-0.143,-0.051l-0.145,-0.05l-0.146,-0.049l-0.146,-0.046l-0.147,-0.045l-0.148,-0.043l-0.148,-0.041l-0.15,-0.04l-0.15,-0.037l-0.15,-0.036l-0.152,-0.034l-0.152,-0.032l-0.153,-0.031l-0.153,-0.028l-0.154,-0.027l-0.155,-0.024l-0.156,-0.023l-0.156,-0.021l-0.159,-0.019l-0.076,-0.009l-0.078,-0.008l-0.079,-0.008l-0.079,-0.007l-0.08,-0.007l-0.079,-0.006l-0.079,-0.006l-0.08,-0.005l-0.08,-0.005l-0.08,-0.004l-0.08,-0.004l-0.08,-0.003l-0.08,-0.003l-0.081,-0.002l-0.08,-0.002l-0.081,-0.002l-0.081,0l-0.083,-0.001l-132.547,0Z"/><text x="141.897px" y="266.888px" style="font-family:'ArialMT', 'Arial', 'Helvetica', sans-serif;font-size:37.5px;">T<tspan x="163.412px 184.268px " y="266.888px 266.888px ">ut</tspan>or</text><path d="M111.03,273.443l-2.291,0c-0.231,0 -0.409,-0.203 -0.379,-0.432l0.773,-5.875c-0.463,-0.262 -0.776,-0.759 -0.776,-1.33c0,-0.574 0.317,-1.074 0.786,-1.335c0.045,-0.857 0.189,-1.586 0.58,-2.272l-2.076,-0.64c-1.092,-0.325 -1.087,-1.873 0,-2.196l13.163,-4.062c0.844,-0.247 1.741,-0.247 2.584,0l13.164,4.062c1.092,0.325 1.087,1.873 0,2.196l-13.164,4.062c-0.843,0.247 -1.74,0.247 -2.583,0l-9.571,-2.953c-0.409,0.545 -0.526,1.1 -0.569,1.829c0.444,0.267 0.741,0.754 0.741,1.309c0,0.571 -0.313,1.068 -0.777,1.33l0.773,5.875c0.03,0.229 -0.148,0.432 -0.378,0.432Zm12.815,-6.363l-0.01,0.003l-0.01,0.003c-1.125,0.33 -2.321,0.33 -3.445,0l-0.01,-0.003l-0.01,-0.003l-7.202,-2.223l-0.601,4.004c0,1.687 4.274,3.054 9.545,3.054c5.272,0 9.546,-1.367 9.546,-3.054l-0.601,-4.004l-7.202,2.223Zm-17.864,-0.972l-10.029,0c-1.06,0 -1.919,-0.86 -1.919,-1.92l0,-5.598c0,-3.093 2.506,-5.599 5.598,-5.599l1.428,0c3.548,2.134 7.992,2.135 11.542,0l1.427,0c1.146,0 2.211,0.344 3.099,0.935l-10.182,3.141c-1.572,0.477 -2.607,2.047 -2.509,3.62c0.07,1.124 0.705,2.199 1.664,2.788c0.206,0.127 0.46,0.239 0.46,0.239l-0.01,0.016c-0.442,0.715 -0.63,1.556 -0.569,2.378Zm-7.15,-22.715c0,-4.417 3.581,-7.998 7.999,-7.998c4.417,0 7.998,3.581 7.998,7.998c0,4.417 -3.581,7.998 -7.998,7.998c-4.418,0 -7.999,-3.581 -7.999,-7.998Z"/></g><g><path d="M339.431,412.43c0,-7.764 -6.304,-14.068 -14.068,-14.068l-175.262,0c-7.765,0 -14.068,6.304 -14.068,14.068l0,28.137c0,7.765 6.303,14.069 14.068,14.069l175.262,0c7.764,0 14.068,-6.304 14.068,-14.069l0,-28.137Z" style="fill:#fff;"/><path d="M325.464,396.8l0.1,0.001l0.101,0.001l0.1,0.003l0.1,0.002l0.101,0.004l0.1,0.004l0.1,0.005l0.099,0.005l0.099,0.006l0.1,0.007l0.099,0.007l0.099,0.008l0.099,0.008l0.099,0.009l0.098,0.01l0.098,0.01l0.101,0.012l0.194,0.023l0.195,0.026l0.194,0.029l0.194,0.031l0.193,0.033l0.192,0.035l0.191,0.038l0.19,0.041l0.19,0.042l0.189,0.045l0.188,0.047l0.186,0.049l0.186,0.052l0.185,0.054l0.185,0.056l0.183,0.058l0.182,0.061l0.181,0.062l0.18,0.065l0.179,0.067l0.179,0.069l0.177,0.071l0.175,0.073l0.175,0.076l0.174,0.077l0.173,0.079l0.171,0.082l0.171,0.083l0.168,0.085l0.168,0.088l0.167,0.089l0.166,0.091l0.164,0.094l0.163,0.095l0.162,0.097l0.16,0.099l0.16,0.1l0.157,0.103l0.157,0.104l0.155,0.107l0.154,0.108l0.153,0.11l0.151,0.111l0.149,0.114l0.149,0.115l0.146,0.117l0.146,0.118l0.144,0.12l0.142,0.122l0.141,0.124l0.14,0.125l0.138,0.127l0.136,0.129l0.135,0.13l0.133,0.132l0.132,0.133l0.13,0.135l0.129,0.136l0.127,0.138l0.125,0.14l0.124,0.141l0.122,0.142l0.12,0.144l0.118,0.146l0.117,0.146l0.115,0.149l0.114,0.149l0.111,0.151l0.11,0.153l0.108,0.154l0.107,0.155l0.104,0.156l0.103,0.158l0.1,0.16l0.099,0.16l0.097,0.162l0.095,0.163l0.094,0.164l0.091,0.166l0.089,0.166l0.087,0.168l0.086,0.17l0.083,0.17l0.082,0.171l0.079,0.173l0.077,0.174l0.076,0.174l0.073,0.176l0.071,0.177l0.069,0.179l0.067,0.179l0.065,0.18l0.062,0.181l0.061,0.182l0.058,0.183l0.056,0.185l0.054,0.185l0.052,0.185l0.049,0.188l0.047,0.187l0.045,0.189l0.042,0.19l0.041,0.19l0.038,0.191l0.035,0.192l0.033,0.193l0.031,0.194l0.029,0.194l0.026,0.195l0.023,0.194l0.012,0.1l0.01,0.099l0.009,0.098l0.01,0.099l0.008,0.099l0.008,0.099l0.007,0.099l0.007,0.1l0.006,0.099l0.005,0.1l0.005,0.1l0.004,0.099l0.004,0.101l0.002,0.1l0.003,0.1l0.001,0.101l0.001,0.101l0.001,0.098l0,28.142l-0.001,0.098l-0.001,0.101l-0.001,0.101l-0.003,0.1l-0.002,0.1l-0.004,0.1l-0.004,0.1l-0.005,0.1l-0.005,0.1l-0.006,0.099l-0.007,0.099l-0.007,0.1l-0.008,0.099l-0.008,0.099l-0.01,0.098l-0.009,0.099l-0.01,0.098l-0.012,0.101l-0.023,0.193l-0.026,0.196l-0.029,0.194l-0.031,0.193l-0.033,0.193l-0.035,0.192l-0.038,0.192l-0.041,0.19l-0.042,0.19l-0.045,0.188l-0.047,0.188l-0.049,0.187l-0.052,0.186l-0.054,0.185l-0.056,0.184l-0.058,0.183l-0.061,0.183l-0.062,0.181l-0.065,0.18l-0.067,0.179l-0.069,0.178l-0.071,0.177l-0.073,0.176l-0.076,0.175l-0.077,0.174l-0.079,0.173l-0.082,0.171l-0.083,0.17l-0.085,0.169l-0.088,0.168l-0.089,0.167l-0.091,0.165l-0.094,0.165l-0.095,0.163l-0.097,0.162l-0.099,0.16l-0.1,0.159l-0.103,0.158l-0.104,0.157l-0.107,0.155l-0.108,0.154l-0.11,0.152l-0.111,0.151l-0.114,0.15l-0.115,0.148l-0.117,0.147l-0.118,0.145l-0.12,0.145l-0.122,0.142l-0.124,0.141l-0.125,0.139l-0.127,0.138l-0.129,0.137l-0.13,0.135l-0.132,0.133l-0.133,0.132l-0.135,0.13l-0.136,0.129l-0.138,0.126l-0.14,0.126l-0.141,0.123l-0.142,0.122l-0.144,0.121l-0.146,0.118l-0.146,0.117l-0.149,0.115l-0.149,0.113l-0.151,0.112l-0.153,0.11l-0.154,0.108l-0.155,0.106l-0.157,0.105l-0.157,0.102l-0.16,0.101l-0.16,0.099l-0.162,0.097l-0.163,0.095l-0.164,0.093l-0.166,0.091l-0.166,0.09l-0.168,0.087l-0.169,0.086l-0.171,0.083l-0.171,0.081l-0.173,0.08l-0.174,0.077l-0.175,0.075l-0.175,0.073l-0.177,0.072l-0.179,0.069l-0.179,0.067l-0.18,0.064l-0.181,0.063l-0.182,0.06l-0.183,0.059l-0.184,0.056l-0.186,0.054l-0.186,0.051l-0.187,0.05l-0.187,0.047l-0.189,0.045l-0.19,0.042l-0.19,0.04l-0.191,0.038l-0.192,0.036l-0.193,0.033l-0.194,0.031l-0.194,0.028l-0.195,0.027l-0.194,0.023l-0.1,0.011l-0.099,0.01l-0.099,0.01l-0.098,0.009l-0.099,0.009l-0.099,0.008l-0.099,0.007l-0.1,0.006l-0.099,0.006l-0.1,0.006l-0.1,0.005l-0.099,0.004l-0.1,0.003l-0.101,0.003l-0.1,0.002l-0.101,0.002l-0.101,0.001l-0.098,0l-175.266,0l-0.099,0l-0.101,-0.001l-0.1,-0.002l-0.1,-0.002l-0.101,-0.003l-0.1,-0.003l-0.1,-0.004l-0.1,-0.005l-0.1,-0.006l-0.099,-0.006l-0.099,-0.006l-0.1,-0.007l-0.099,-0.008l-0.098,-0.009l-0.099,-0.009l-0.099,-0.01l-0.098,-0.01l-0.101,-0.011l-0.193,-0.023l-0.195,-0.027l-0.195,-0.028l-0.193,-0.031l-0.193,-0.033l-0.192,-0.036l-0.191,-0.038l-0.191,-0.04l-0.189,-0.042l-0.189,-0.045l-0.188,-0.047l-0.187,-0.05l-0.186,-0.051l-0.185,-0.054l-0.184,-0.056l-0.183,-0.059l-0.182,-0.06l-0.182,-0.063l-0.18,-0.064l-0.179,-0.067l-0.178,-0.069l-0.177,-0.072l-0.176,-0.073l-0.175,-0.075l-0.174,-0.077l-0.172,-0.08l-0.172,-0.081l-0.17,-0.083l-0.169,-0.086l-0.168,-0.087l-0.167,-0.09l-0.165,-0.091l-0.165,-0.093l-0.162,-0.095l-0.162,-0.097l-0.161,-0.099l-0.159,-0.101l-0.158,-0.102l-0.156,-0.105l-0.156,-0.106l-0.154,-0.108l-0.152,-0.11l-0.151,-0.112l-0.15,-0.113l-0.148,-0.115l-0.147,-0.117l-0.145,-0.118l-0.144,-0.121l-0.143,-0.122l-0.141,-0.123l-0.139,-0.126l-0.138,-0.127l-0.137,-0.128l-0.135,-0.13l-0.133,-0.132l-0.131,-0.133l-0.131,-0.135l-0.128,-0.137l-0.127,-0.138l-0.125,-0.139l-0.124,-0.141l-0.122,-0.142l-0.12,-0.145l-0.119,-0.145l-0.117,-0.147l-0.115,-0.148l-0.113,-0.15l-0.112,-0.151l-0.11,-0.152l-0.108,-0.154l-0.106,-0.155l-0.104,-0.157l-0.103,-0.158l-0.101,-0.159l-0.099,-0.16l-0.097,-0.162l-0.095,-0.163l-0.093,-0.165l-0.091,-0.165l-0.09,-0.167l-0.087,-0.168l-0.085,-0.169l-0.084,-0.17l-0.081,-0.172l-0.08,-0.172l-0.077,-0.174l-0.075,-0.175l-0.073,-0.176l-0.071,-0.177l-0.069,-0.178l-0.067,-0.179l-0.065,-0.18l-0.063,-0.181l-0.06,-0.183l-0.058,-0.183l-0.056,-0.184l-0.054,-0.185l-0.052,-0.186l-0.049,-0.187l-0.048,-0.188l-0.044,-0.188l-0.043,-0.19l-0.04,-0.19l-0.038,-0.192l-0.036,-0.192l-0.033,-0.193l-0.031,-0.193l-0.028,-0.195l-0.026,-0.195l-0.024,-0.193l-0.011,-0.101l-0.01,-0.098l-0.01,-0.099l-0.009,-0.098l-0.009,-0.099l-0.007,-0.099l-0.008,-0.099l-0.006,-0.1l-0.006,-0.099l-0.006,-0.1l-0.004,-0.1l-0.004,-0.1l-0.004,-0.1l-0.003,-0.1l-0.002,-0.101l-0.002,-0.1l-0.001,-0.101l0,-0.098l0,-28.142l0,-0.099l0.001,-0.1l0.002,-0.101l0.002,-0.1l0.003,-0.101l0.004,-0.099l0.004,-0.1l0.004,-0.1l0.006,-0.1l0.006,-0.099l0.006,-0.1l0.008,-0.099l0.007,-0.099l0.009,-0.099l0.009,-0.099l0.01,-0.098l0.01,-0.099l0.011,-0.1l0.024,-0.194l0.026,-0.195l0.028,-0.194l0.031,-0.194l0.033,-0.193l0.036,-0.192l0.038,-0.191l0.04,-0.19l0.043,-0.19l0.044,-0.189l0.048,-0.188l0.049,-0.186l0.052,-0.186l0.054,-0.186l0.056,-0.184l0.058,-0.183l0.06,-0.182l0.063,-0.181l0.065,-0.18l0.067,-0.179l0.069,-0.179l0.071,-0.177l0.073,-0.176l0.075,-0.174l0.078,-0.174l0.079,-0.173l0.081,-0.171l0.084,-0.171l0.085,-0.169l0.087,-0.168l0.09,-0.166l0.091,-0.166l0.093,-0.164l0.095,-0.163l0.097,-0.162l0.099,-0.16l0.101,-0.16l0.103,-0.158l0.104,-0.156l0.106,-0.155l0.108,-0.154l0.11,-0.153l0.112,-0.151l0.113,-0.149l0.115,-0.149l0.117,-0.146l0.119,-0.146l0.12,-0.144l0.122,-0.142l0.124,-0.141l0.125,-0.14l0.127,-0.138l0.128,-0.136l0.131,-0.135l0.131,-0.133l0.134,-0.132l0.134,-0.13l0.137,-0.129l0.138,-0.127l0.139,-0.125l0.141,-0.124l0.143,-0.122l0.144,-0.12l0.145,-0.118l0.147,-0.117l0.148,-0.115l0.15,-0.114l0.151,-0.111l0.153,-0.11l0.153,-0.108l0.156,-0.107l0.156,-0.104l0.158,-0.103l0.159,-0.1l0.161,-0.099l0.161,-0.097l0.163,-0.095l0.165,-0.094l0.165,-0.091l0.167,-0.089l0.168,-0.088l0.169,-0.085l0.17,-0.083l0.172,-0.082l0.172,-0.079l0.174,-0.077l0.175,-0.076l0.176,-0.073l0.177,-0.071l0.178,-0.069l0.179,-0.067l0.18,-0.065l0.182,-0.062l0.182,-0.061l0.183,-0.058l0.184,-0.056l0.185,-0.054l0.186,-0.052l0.187,-0.049l0.188,-0.047l0.189,-0.045l0.189,-0.042l0.191,-0.041l0.191,-0.038l0.192,-0.035l0.193,-0.033l0.193,-0.031l0.195,-0.029l0.195,-0.026l0.193,-0.023l0.101,-0.012l0.099,-0.01l0.098,-0.01l0.099,-0.009l0.099,-0.008l0.099,-0.008l0.098,-0.007l0.1,-0.007l0.1,-0.006l0.099,-0.005l0.1,-0.005l0.1,-0.004l0.1,-0.004l0.101,-0.002l0.1,-0.003l0.101,-0.001l0.1,-0.001l0.098,-0.001l175.267,0l0.099,0.001Zm-175.36,3.124l-0.084,0.001l-0.081,0.001l-0.081,0.001l-0.08,0.002l-0.081,0.002l-0.08,0.003l-0.08,0.003l-0.08,0.004l-0.08,0.004l-0.08,0.005l-0.079,0.005l-0.08,0.006l-0.08,0.006l-0.078,0.007l-0.08,0.007l-0.079,0.008l-0.078,0.008l-0.076,0.009l-0.16,0.019l-0.156,0.021l-0.155,0.023l-0.155,0.024l-0.154,0.027l-0.153,0.028l-0.153,0.031l-0.152,0.032l-0.152,0.034l-0.151,0.036l-0.149,0.037l-0.15,0.04l-0.148,0.041l-0.148,0.043l-0.147,0.045l-0.146,0.046l-0.146,0.049l-0.145,0.05l-0.144,0.051l-0.143,0.054l-0.142,0.055l-0.141,0.057l-0.141,0.058l-0.139,0.06l-0.139,0.062l-0.138,0.064l-0.137,0.065l-0.137,0.066l-0.135,0.069l-0.134,0.069l-0.133,0.072l-0.133,0.073l-0.131,0.074l-0.131,0.076l-0.129,0.078l-0.128,0.079l-0.128,0.081l-0.126,0.082l-0.126,0.084l-0.124,0.085l-0.123,0.086l-0.122,0.088l-0.121,0.09l-0.12,0.09l-0.119,0.093l-0.117,0.093l-0.117,0.095l-0.115,0.097l-0.114,0.097l-0.114,0.099l-0.111,0.101l-0.111,0.101l-0.109,0.103l-0.108,0.105l-0.107,0.105l-0.106,0.107l-0.104,0.108l-0.103,0.11l-0.102,0.11l-0.1,0.112l-0.099,0.113l-0.098,0.114l-0.096,0.115l-0.095,0.117l-0.094,0.118l-0.092,0.118l-0.091,0.12l-0.089,0.121l-0.088,0.122l-0.087,0.124l-0.085,0.124l-0.083,0.125l-0.083,0.127l-0.08,0.127l-0.079,0.128l-0.078,0.13l-0.076,0.13l-0.075,0.132l-0.073,0.132l-0.071,0.133l-0.07,0.135l-0.068,0.135l-0.067,0.136l-0.065,0.137l-0.063,0.138l-0.062,0.139l-0.06,0.14l-0.059,0.14l-0.056,0.142l-0.056,0.142l-0.053,0.143l-0.052,0.144l-0.05,0.144l-0.048,0.146l-0.047,0.146l-0.044,0.147l-0.043,0.148l-0.042,0.149l-0.039,0.149l-0.038,0.15l-0.035,0.151l-0.034,0.151l-0.033,0.152l-0.03,0.153l-0.028,0.153l-0.027,0.155l-0.025,0.154l-0.022,0.156l-0.021,0.156l-0.02,0.159l-0.008,0.076l-0.008,0.079l-0.008,0.079l-0.007,0.079l-0.007,0.079l-0.006,0.079l-0.006,0.08l-0.005,0.079l-0.005,0.08l-0.005,0.08l-0.003,0.08l-0.004,0.08l-0.003,0.081l-0.002,0.08l-0.002,0.081l-0.001,0.081l-0.001,0.08l0,0.084l0,28.132l0,0.083l0.001,0.081l0.001,0.081l0.002,0.08l0.002,0.081l0.003,0.08l0.004,0.08l0.003,0.08l0.005,0.08l0.005,0.08l0.005,0.08l0.006,0.079l0.006,0.08l0.007,0.079l0.007,0.079l0.008,0.079l0.008,0.078l0.008,0.077l0.02,0.159l0.021,0.156l0.022,0.155l0.025,0.155l0.027,0.154l0.028,0.154l0.03,0.152l0.032,0.153l0.035,0.151l0.035,0.151l0.038,0.15l0.039,0.149l0.042,0.149l0.043,0.147l0.044,0.147l0.047,0.147l0.048,0.145l0.05,0.145l0.052,0.144l0.053,0.143l0.056,0.142l0.056,0.141l0.059,0.141l0.06,0.14l0.062,0.139l0.063,0.138l0.065,0.137l0.067,0.136l0.068,0.135l0.07,0.134l0.071,0.134l0.073,0.132l0.075,0.131l0.076,0.131l0.078,0.129l0.079,0.129l0.08,0.127l0.083,0.127l0.083,0.125l0.085,0.124l0.087,0.123l0.088,0.122l0.089,0.121l0.091,0.12l0.092,0.119l0.094,0.118l0.095,0.116l0.096,0.116l0.098,0.114l0.099,0.113l0.1,0.112l0.102,0.11l0.103,0.109l0.104,0.108l0.106,0.107l0.107,0.106l0.108,0.104l0.109,0.103l0.111,0.102l0.112,0.1l0.113,0.099l0.114,0.098l0.115,0.096l0.117,0.095l0.117,0.094l0.119,0.092l0.12,0.091l0.121,0.089l0.122,0.088l0.123,0.087l0.124,0.085l0.126,0.084l0.126,0.082l0.128,0.08l0.128,0.08l0.129,0.077l0.131,0.076l0.131,0.075l0.133,0.073l0.133,0.071l0.134,0.07l0.135,0.068l0.137,0.067l0.137,0.065l0.138,0.063l0.138,0.062l0.14,0.06l0.141,0.059l0.141,0.057l0.142,0.055l0.143,0.053l0.144,0.052l0.145,0.05l0.146,0.048l0.146,0.047l0.147,0.045l0.148,0.043l0.148,0.041l0.149,0.039l0.15,0.038l0.151,0.036l0.152,0.034l0.152,0.032l0.153,0.03l0.153,0.029l0.154,0.026l0.155,0.025l0.156,0.023l0.155,0.021l0.16,0.019l0.076,0.008l0.079,0.009l0.078,0.007l0.079,0.007l0.08,0.007l0.079,0.007l0.079,0.005l0.08,0.006l0.08,0.005l0.08,0.004l0.08,0.004l0.08,0.003l0.081,0.003l0.08,0.002l0.08,0.002l0.081,0.001l0.081,0.001l0.083,0l175.257,0l0.084,0l0.08,-0.001l0.081,-0.001l0.081,-0.002l0.08,-0.002l0.081,-0.003l0.08,-0.003l0.08,-0.004l0.08,-0.004l0.08,-0.005l0.079,-0.006l0.079,-0.005l0.08,-0.007l0.079,-0.007l0.079,-0.007l0.079,-0.007l0.079,-0.009l0.076,-0.008l0.159,-0.019l0.156,-0.021l0.156,-0.023l0.155,-0.025l0.154,-0.026l0.153,-0.029l0.153,-0.03l0.152,-0.032l0.151,-0.034l0.151,-0.036l0.15,-0.038l0.149,-0.039l0.149,-0.041l0.148,-0.043l0.147,-0.045l0.146,-0.047l0.146,-0.048l0.144,-0.05l0.144,-0.052l0.143,-0.053l0.142,-0.055l0.142,-0.057l0.14,-0.059l0.14,-0.06l0.139,-0.062l0.138,-0.063l0.137,-0.065l0.136,-0.067l0.135,-0.068l0.135,-0.07l0.133,-0.071l0.132,-0.073l0.132,-0.075l0.13,-0.076l0.13,-0.077l0.128,-0.08l0.127,-0.08l0.127,-0.082l0.125,-0.084l0.124,-0.085l0.124,-0.087l0.122,-0.088l0.121,-0.089l0.12,-0.091l0.118,-0.092l0.118,-0.094l0.117,-0.095l0.115,-0.096l0.114,-0.098l0.113,-0.099l0.112,-0.1l0.11,-0.102l0.11,-0.103l0.108,-0.104l0.107,-0.106l0.105,-0.107l0.104,-0.108l0.103,-0.109l0.102,-0.111l0.101,-0.111l0.099,-0.113l0.097,-0.114l0.097,-0.116l0.095,-0.116l0.093,-0.118l0.093,-0.119l0.09,-0.12l0.09,-0.121l0.088,-0.122l0.086,-0.123l0.085,-0.124l0.084,-0.125l0.082,-0.127l0.081,-0.127l0.079,-0.129l0.078,-0.129l0.076,-0.131l0.074,-0.131l0.073,-0.132l0.072,-0.134l0.069,-0.134l0.069,-0.135l0.066,-0.136l0.065,-0.138l0.064,-0.137l0.062,-0.139l0.06,-0.14l0.058,-0.141l0.057,-0.141l0.055,-0.142l0.054,-0.143l0.051,-0.144l0.05,-0.145l0.049,-0.145l0.046,-0.147l0.045,-0.147l0.043,-0.147l0.041,-0.149l0.04,-0.149l0.037,-0.15l0.036,-0.151l0.034,-0.152l0.032,-0.151l0.031,-0.153l0.028,-0.154l0.027,-0.154l0.024,-0.155l0.023,-0.155l0.021,-0.156l0.019,-0.159l0.009,-0.076l0.008,-0.079l0.008,-0.079l0.007,-0.079l0.007,-0.079l0.006,-0.08l0.006,-0.079l0.005,-0.08l0.005,-0.08l0.004,-0.079l0.004,-0.08l0.003,-0.081l0.003,-0.08l0.002,-0.08l0.002,-0.081l0.001,-0.081l0.001,-0.081l0.001,-0.083l0,-28.132l-0.001,-0.084l-0.001,-0.081l-0.001,-0.08l-0.002,-0.081l-0.002,-0.08l-0.003,-0.081l-0.003,-0.08l-0.004,-0.08l-0.004,-0.08l-0.005,-0.08l-0.005,-0.079l-0.006,-0.08l-0.006,-0.079l-0.007,-0.079l-0.007,-0.079l-0.008,-0.079l-0.008,-0.079l-0.009,-0.076l-0.019,-0.159l-0.021,-0.156l-0.023,-0.156l-0.024,-0.154l-0.027,-0.155l-0.028,-0.153l-0.031,-0.153l-0.032,-0.152l-0.034,-0.151l-0.036,-0.151l-0.037,-0.15l-0.04,-0.149l-0.041,-0.149l-0.043,-0.148l-0.045,-0.147l-0.046,-0.146l-0.049,-0.146l-0.05,-0.144l-0.051,-0.144l-0.054,-0.143l-0.055,-0.142l-0.057,-0.142l-0.058,-0.14l-0.06,-0.14l-0.062,-0.139l-0.064,-0.138l-0.065,-0.137l-0.066,-0.136l-0.069,-0.135l-0.069,-0.135l-0.072,-0.133l-0.073,-0.132l-0.074,-0.132l-0.077,-0.13l-0.077,-0.13l-0.079,-0.128l-0.081,-0.127l-0.082,-0.127l-0.084,-0.125l-0.085,-0.124l-0.086,-0.124l-0.088,-0.122l-0.09,-0.121l-0.09,-0.12l-0.093,-0.118l-0.093,-0.118l-0.095,-0.117l-0.097,-0.115l-0.097,-0.114l-0.099,-0.113l-0.101,-0.112l-0.102,-0.11l-0.103,-0.11l-0.104,-0.108l-0.105,-0.107l-0.107,-0.105l-0.108,-0.105l-0.11,-0.103l-0.11,-0.101l-0.112,-0.101l-0.113,-0.099l-0.114,-0.097l-0.115,-0.097l-0.117,-0.095l-0.118,-0.093l-0.118,-0.093l-0.12,-0.09l-0.121,-0.09l-0.122,-0.088l-0.124,-0.086l-0.124,-0.085l-0.125,-0.084l-0.127,-0.082l-0.127,-0.081l-0.128,-0.079l-0.13,-0.078l-0.13,-0.076l-0.132,-0.074l-0.132,-0.073l-0.133,-0.072l-0.135,-0.069l-0.135,-0.069l-0.136,-0.066l-0.137,-0.065l-0.138,-0.064l-0.139,-0.062l-0.14,-0.06l-0.14,-0.058l-0.142,-0.057l-0.142,-0.055l-0.143,-0.054l-0.144,-0.051l-0.144,-0.05l-0.146,-0.049l-0.146,-0.046l-0.147,-0.045l-0.148,-0.043l-0.149,-0.041l-0.149,-0.04l-0.15,-0.037l-0.151,-0.036l-0.151,-0.034l-0.152,-0.032l-0.153,-0.031l-0.153,-0.028l-0.155,-0.027l-0.154,-0.024l-0.156,-0.023l-0.156,-0.021l-0.159,-0.019l-0.076,-0.009l-0.079,-0.008l-0.079,-0.008l-0.079,-0.007l-0.079,-0.007l-0.079,-0.006l-0.08,-0.006l-0.079,-0.005l-0.08,-0.005l-0.08,-0.004l-0.08,-0.004l-0.08,-0.003l-0.081,-0.003l-0.08,-0.002l-0.081,-0.002l-0.08,-0.001l-0.082,-0.001l-0.083,-0.001l-175.256,0Z"/><text x="191.397px" y="440.195px" style="font-family:'ArialMT', 'Arial', 'Helvetica', sans-serif;font-size:37.5px;">Student</text><path d="M175.34,443.887l-24.634,0c-1.2,0 -2.173,-0.973 -2.173,-2.173l0,-6.34c0,-3.501 2.838,-6.339 6.339,-6.339l1.617,0c4.017,2.417 9.05,2.417 13.069,0l1.616,0c3.501,0 6.34,2.838 6.34,6.339l0,6.34c0,1.2 -0.974,2.173 -2.174,2.173Zm-21.373,-25.72c0,-5.002 4.054,-9.057 9.056,-9.057c5.002,0 9.057,4.055 9.057,9.057c0,5.002 -4.055,9.056 -9.057,9.056c-5.002,0 -9.056,-4.054 -9.056,-9.056Z"/></g></svg>