<?xml version="1.0" encoding="UTF-8" standalone="no"?><!DOCTYPE svg PUBLIC "-//W3C//DTD SVG 1.1//EN" "http://www.w3.org/Graphics/SVG/1.1/DTD/svg11.dtd"><svg viewBox="0 0 40 28" preserveAspectRatio="xMinYMid" version="1.1" xmlns="http://www.w3.org/2000/svg" xmlns:xlink="http://www.w3.org/1999/xlink" xml:space="preserve" xmlns:serif="http://www.serif.com/" style="fill-rule:evenodd;clip-rule:evenodd;stroke-linejoin:round;stroke-miterlimit:1.41421;"><path d="M20.53,25.372l0,-22.744l-7.06,7.056l-6.818,0l0,8.628l6.818,0l7.06,7.06Zm4.01,-18.159l-1.962,1.9c1.358,1.359 2.052,3.26 2.052,5.07c0,1.782 -0.632,3.468 -1.9,4.799l1.838,1.838c1.839,-1.9 2.927,-4.342 2.927,-6.879c0,-2.295 -0.903,-4.709 -2.955,-6.728Zm4.376,-3.953l-2.11,2.081c2.323,2.323 3.502,5.492 3.502,8.69c0,3.169 -1.179,6.366 -3.502,8.718l1.991,1.991c2.926,-2.955 4.556,-6.908 4.556,-10.89c0,-3.739 -1.387,-7.511 -4.433,-10.557l0,-0.033l-0.004,0Z" style="fill:#fff;fill-rule:nonzero;"/></svg>