<?xml version="1.0" encoding="UTF-8" standalone="no"?><!DOCTYPE svg PUBLIC "-//W3C//DTD SVG 1.1//EN" "http://www.w3.org/Graphics/SVG/1.1/DTD/svg11.dtd"><svg width="100%" height="100%" viewBox="0 0 512 512" version="1.1" xmlns="http://www.w3.org/2000/svg" xmlns:xlink="http://www.w3.org/1999/xlink" xml:space="preserve" xmlns:serif="http://www.serif.com/" style="fill-rule:evenodd;clip-rule:evenodd;stroke-linejoin:round;stroke-miterlimit:1.41421;"><path d="M479.66,294.864c8.578,0 16.803,3.407 22.868,9.472c6.065,6.065 9.472,14.291 9.472,22.868c0,41.674 0,89.449 0,131.123c0,8.577 -3.407,16.803 -9.472,22.868c-6.065,6.064 -14.291,9.472 -22.868,9.472c-62.492,0 -199.172,0 -261.664,0c-8.577,0 -16.803,-3.408 -22.868,-9.472c-6.065,-6.065 -9.472,-14.291 -9.472,-22.868c0,-41.674 0,-89.449 0,-131.123c0,-8.577 3.407,-16.803 9.472,-22.868c6.065,-6.065 14.29,-9.472 22.868,-9.472l261.664,0Zm-15.057,32.34l-30.116,0c-8.311,0 -15.057,6.747 -15.057,15.058l0,30.115c0,8.311 6.747,15.058 15.057,15.058l30.116,0c8.31,0 15.057,-6.747 15.057,-15.058l0,-30.115c0,-8.311 -6.747,-15.058 -15.057,-15.058Zm-308.979,-15.177l-117.871,20.013c-9.389,1.594 -19.004,-1.032 -26.279,-7.176c-7.276,-6.145 -11.474,-15.184 -11.474,-24.708c0,-39.429 0,-98.849 0,-126.175c0,-9.34 4.038,-18.224 11.075,-24.365c28.411,-24.797 104.02,-90.785 137.847,-120.308c10.099,-8.813 24.587,-10.484 36.426,-4.2c32.729,17.37 97.848,51.932 128.852,68.387c10.57,5.61 17.179,16.599 17.179,28.565c0,32.086 0,96.196 0,132.815c0,2.679 -0.329,5.291 -0.95,7.795c-37.61,0.016 -75.221,0.081 -112.831,0.195c-7.065,0.066 -14.206,1.274 -20.927,3.636c-20.298,7.131 -35.766,25.026 -41.047,45.526Zm147.162,-190.148l-279.898,47.865c-4.043,0.691 -7.089,4.058 -7.373,8.15c-0.284,4.091 2.266,7.847 6.175,9.091c39.227,12.486 101.171,32.203 129.269,41.147c9.315,2.965 19.471,1.557 27.629,-3.829c27.039,-17.855 90.465,-59.737 130.597,-86.237c3.511,-2.318 4.917,-6.779 3.37,-10.691c-1.546,-3.912 -5.623,-6.205 -9.769,-5.496Z"/></svg>