<?xml version="1.0" encoding="UTF-8" standalone="no"?><!DOCTYPE svg PUBLIC "-//W3C//DTD SVG 1.1//EN" "http://www.w3.org/Graphics/SVG/1.1/DTD/svg11.dtd"><svg width="100%" height="100%" viewBox="0 0 600 512" version="1.1" xmlns="http://www.w3.org/2000/svg" xmlns:xlink="http://www.w3.org/1999/xlink" xml:space="preserve" xmlns:serif="http://www.serif.com/" style="fill-rule:evenodd;clip-rule:evenodd;stroke-linejoin:round;stroke-miterlimit:1.41421;"><path d="M124.734,198.573l0,196.929c0,0 -0.373,0.164 -0.944,0.44c-12.55,6.047 -21.393,18.771 -22.785,32.482c-0.115,1.122 -0.169,1.677 -0.205,3.599c0,0 -0.315,8.726 -0.019,15.477l-100.781,0l0,-9.723c0,-3.223 2.612,-5.835 5.835,-5.835l9.723,0l0,-221.7c0,-6.444 5.224,-11.669 11.668,-11.669l97.508,0Zm300.938,-134.073c9.916,0.001 17.953,8.039 17.953,17.954l0,341.109l14.961,0c4.957,0 8.977,4.018 8.977,8.976l0,14.961l-335.126,0l0,-14.961c0,-4.957 4.019,-8.976 8.977,-8.976l14.961,0l0,-341.109c0,-9.915 8.037,-17.953 17.953,-17.954l251.344,0Zm49.594,134.073l97.508,0c6.446,0.001 11.668,5.225 11.668,11.669l0,221.7l9.723,0c3.223,0.002 5.835,2.613 5.835,5.835l0,9.723l-100.796,0l0,-15.059c-0.09,-14.277 -7.919,-27.756 -19.953,-34.871c-0.705,-0.418 -1.422,-0.813 -2.153,-1.186c-0.769,-0.395 -0.765,-0.407 -1.832,-0.882l0,-196.929Zm-151.328,224.99l0,-62.836c0,-4.958 -4.02,-8.977 -8.977,-8.977l-29.922,0c-4.957,0 -8.977,4.019 -8.977,8.977l0,62.836l47.876,0Zm207.996,-100.527l-19.447,0c-3.223,0.002 -5.835,2.614 -5.835,5.835l0,19.447c0,3.223 2.613,5.835 5.835,5.835l19.447,0c3.223,-0.001 5.835,-2.614 5.835,-5.835l0,-19.447c0,-3.221 -2.612,-5.833 -5.835,-5.835Zm-444.421,0l-19.447,0c-3.223,0.002 -5.835,2.614 -5.835,5.835l0,19.447c0,3.223 2.614,5.835 5.835,5.835l19.447,0c3.222,0 5.835,-2.612 5.835,-5.835l0,-19.447c0,-3.221 -2.612,-5.833 -5.835,-5.835Zm444.421,-46.673l-19.447,0c-3.223,0.001 -5.835,2.613 -5.835,5.834l0,19.448c0,3.221 2.613,5.833 5.835,5.833l19.447,0c3.223,0 5.835,-2.612 5.835,-5.833l0,-19.448c0,-3.221 -2.612,-5.833 -5.835,-5.834Zm-444.421,0l-19.447,0c-3.223,0.001 -5.835,2.613 -5.835,5.834l0,19.448c0,3.221 2.614,5.833 5.835,5.833l19.447,0c3.222,0 5.835,-2.612 5.835,-5.833l0,-19.448c0,-3.221 -2.612,-5.833 -5.835,-5.834Zm275.323,27.512c4.957,-0.001 8.977,-4.019 8.977,-8.977l0,-29.921c0,-4.957 -4.02,-8.977 -8.977,-8.977l-29.922,0c-4.958,0 -8.976,4.02 -8.976,8.977l0,29.921c0,4.958 4.018,8.977 8.976,8.977l29.922,0Zm-95.75,0c4.958,-0.001 8.976,-4.019 8.976,-8.977l0,-29.921c0,-4.957 -4.018,-8.977 -8.976,-8.977l-29.922,0c-4.957,0 -8.976,4.02 -8.976,8.977l0,29.921c0,4.958 4.019,8.977 8.976,8.977l29.922,0Zm264.848,-74.186l-19.447,0c-3.223,0.001 -5.835,2.613 -5.835,5.834l0,19.448c0,3.222 2.613,5.834 5.835,5.834l19.447,0c3.223,0 5.835,-2.612 5.835,-5.834l0,-19.448c0,-3.221 -2.612,-5.833 -5.835,-5.834Zm-444.421,0l-19.447,0c-3.223,0.002 -5.835,2.614 -5.835,5.834l0,19.448c0,3.222 2.614,5.834 5.835,5.834l19.447,0c3.222,0 5.835,-2.612 5.835,-5.834l0,-19.448c0,-3.22 -2.612,-5.832 -5.835,-5.834Zm275.323,2.373c4.957,0 8.977,-4.019 8.977,-8.976l0,-29.922c0,-4.957 -4.02,-8.976 -8.977,-8.976l-29.922,0c-4.958,0 -8.976,4.019 -8.976,8.976l0,29.922c0,4.958 4.018,8.976 8.976,8.976l29.922,0Zm-95.75,0c4.958,0 8.976,-4.019 8.976,-8.976l0,-29.922c0,-4.957 -4.018,-8.976 -8.976,-8.976l-29.922,0c-4.957,0 -8.976,4.019 -8.976,8.976l0,29.922c0,4.958 4.019,8.976 8.976,8.976l29.922,0Zm0,-71.812c4.958,-0.001 8.976,-4.019 8.976,-8.977l0,-29.921c0,-4.957 -4.018,-8.977 -8.976,-8.977l-29.922,0c-4.957,0 -8.976,4.02 -8.976,8.977l0,29.921c0,4.958 4.019,8.977 8.976,8.977l29.922,0Zm95.75,0c4.957,-0.001 8.977,-4.019 8.977,-8.977l0,-29.921c0,-4.957 -4.02,-8.977 -8.977,-8.977l-29.922,0c-4.958,0 -8.976,4.02 -8.976,8.977l0,29.921c0,4.958 4.018,8.977 8.976,8.977l29.922,0Z"/></svg>