<?xml version="1.0" encoding="UTF-8" standalone="no"?><!DOCTYPE svg PUBLIC "-//W3C//DTD SVG 1.1//EN" "http://www.w3.org/Graphics/SVG/1.1/DTD/svg11.dtd"><svg width="100%" height="100%" viewBox="0 0 965 783" version="1.1" xmlns="http://www.w3.org/2000/svg" xmlns:xlink="http://www.w3.org/1999/xlink" xml:space="preserve" xmlns:serif="http://www.serif.com/" style="fill-rule:evenodd;clip-rule:evenodd;stroke-linejoin:round;stroke-miterlimit:1.41421;"><path d="M403.35,783l-52.2,0l0,-238.7l-257.482,238.7l-31.449,0l281.524,-261l-63.02,0l-281.463,261l0,-87.5l187.055,-173.5l-187.055,0l0,-52.2l404.09,0l0,313.2Zm561.45,-261l-187.842,0l187.842,174.257l0,86.743l-0.755,0l0,-58.4l-218.531,-202.6l-62.949,0l281.48,261l-94.454,0l-257.441,-238.7l0,238.7l-52.2,0l0,-313.2l404.85,0l0,52.2Zm0,-208.8l-404.85,0l0,-313.2l52.261,0l0,238.7l257.38,-238.7l31.505,0l-281.48,261l62.949,0l281.48,-261l0.755,0l0,86.799l-187.842,174.201l187.842,0l0,52.2Zm-561.45,0l-404.09,0l0,-52.2l187.055,0l-187.055,-173.5l0,-29.1l218.565,202.6l62.959,0l-281.524,-261l94.408,0l257.482,238.7l0,-238.7l52.2,0l0,313.2Z" style="fill:#fff;"/></svg>