<?xml version="1.0" encoding="UTF-8" standalone="no"?><!DOCTYPE svg PUBLIC "-//W3C//DTD SVG 1.1//EN" "http://www.w3.org/Graphics/SVG/1.1/DTD/svg11.dtd"><svg width="100%" height="100%" viewBox="0 0 246 231" version="1.1" xmlns="http://www.w3.org/2000/svg" xmlns:xlink="http://www.w3.org/1999/xlink" xml:space="preserve" xmlns:serif="http://www.serif.com/" style="fill-rule:evenodd;clip-rule:evenodd;stroke-miterlimit:1.5;"><rect x="0.901" y="3.74" width="243.725" height="226.09" style="fill:#c9e9ff;"/><path d="M80.944,3.74l-80.043,0l0,226.09l243.725,0l0,-226.09l-78.451,0" style="fill:none;stroke:#4e79ff;stroke-width:1px;"/><rect x="15.047" y="58.013" width="215.433" height="157.589" style="fill:#ffdedf;"/><path d="M89.568,58.014l-74.521,0l0,157.588l215.433,0l0,-157.588l-74.259,0" style="fill:none;stroke:#f03;stroke-width:1px;"/><rect x="29.22" y="114.582" width="187.087" height="86.945" style="fill:#deffdf;"/><path d="M105.915,114.582l-76.695,0l0,86.945l187.087,0l0,-86.945l-76.666,0" style="fill:none;stroke:#00aa35;stroke-width:1px;"/><path d="M122.764,20.182c0,-2.484 -2.018,-4.502 -4.502,-4.502l-98.713,0c-2.485,0 -4.502,2.018 -4.502,4.502l0,9.004c0,2.485 2.017,4.502 4.502,4.502l98.713,0c2.484,0 4.502,-2.017 4.502,-4.502l0,-9.004Z" style="fill:#fff;stroke:#000;stroke-width:1px;"/><path d="M116.571,76.337c0,-2.485 -2.017,-4.502 -4.502,-4.502l-78.347,0c-2.484,0 -4.502,2.017 -4.502,4.502l0,9.004c0,2.484 2.018,4.501 4.502,4.501l78.347,0c2.485,0 4.502,-2.017 4.502,-4.501l0,-9.004Z" style="fill:#fff;stroke:#000;stroke-width:1px;"/><path d="M29.22,33.688l0,26.966" style="fill:none;stroke:#000;stroke-width:1px;"/><path d="M29.22,60.654l-1.58,-4.579l3.161,0l-1.581,4.579Z" style="stroke:#000;stroke-width:1px;stroke-miterlimit:10;"/><path d="M42.456,89.819l0,26.966" style="fill:none;stroke:#000;stroke-width:1px;"/><path d="M42.456,116.785l-1.58,-4.579l3.161,0l-1.581,4.579Z" style="stroke:#000;stroke-width:1px;stroke-miterlimit:10;"/><path d="M63.436,179.006l-4.579,1.581l0,-3.161l4.579,1.58Z" style="stroke:#000;stroke-width:1px;stroke-miterlimit:10;"/><path d="M134.764,174.504c0,-2.484 -2.018,-4.501 -4.502,-4.501l-60.884,0c-2.485,0 -4.502,2.017 -4.502,4.501l0,9.004c0,2.485 2.017,4.502 4.502,4.502l60.884,0c2.484,0 4.502,-2.017 4.502,-4.502l0,-9.004Z" style="fill:#fff;stroke:#000;stroke-width:1px;"/><path d="M63.436,179.006l-8.98,0l0,-40.737" style="fill:none;stroke:#000;stroke-width:1px;"/><path d="M97.448,131.963c0,-2.485 -2.017,-4.502 -4.502,-4.502l-47.568,0c-2.485,0 -4.502,2.017 -4.502,4.502l0,9.004c0,2.484 2.017,4.502 4.502,4.502l47.568,0c2.485,0 4.502,-2.018 4.502,-4.502l0,-9.004Z" style="fill:#fff;stroke:#000;stroke-width:1px;"/><g transform="matrix(1,0,0,1,-321.567,-162.049)"><path d="M419.543,220.061c0,0.945 -0.234,1.672 -0.703,2.179c-0.469,0.508 -1.14,0.762 -2.015,0.762c-0.875,0 -1.547,-0.254 -2.016,-0.762c-0.469,-0.507 -0.703,-1.237 -0.703,-2.187c0,-0.951 0.235,-1.677 0.705,-2.178c0.47,-0.501 1.144,-0.752 2.021,-0.752c0.878,0 1.549,0.253 2.014,0.758c0.465,0.505 0.697,1.232 0.697,2.18Zm-4.168,0c0,0.638 0.121,1.118 0.364,1.441c0.242,0.323 0.604,0.484 1.086,0.484c0.966,0 1.449,-0.641 1.449,-1.925c0,-1.287 -0.481,-1.93 -1.442,-1.93c-0.481,0 -0.845,0.162 -1.089,0.486c-0.245,0.325 -0.368,0.806 -0.368,1.444Z" style="fill:#f03;fill-rule:nonzero;"/><path d="M421.938,219.748l0.391,0c0.382,0 0.665,-0.064 0.847,-0.191c0.182,-0.128 0.274,-0.328 0.274,-0.602c0,-0.271 -0.094,-0.463 -0.28,-0.578c-0.186,-0.114 -0.474,-0.172 -0.865,-0.172l-0.367,0l0,1.543Zm0,0.985l0,2.191l-1.211,0l0,-5.711l1.664,0c0.776,0 1.35,0.141 1.723,0.424c0.372,0.282 0.558,0.711 0.558,1.287c0,0.336 -0.092,0.635 -0.277,0.896c-0.185,0.262 -0.447,0.467 -0.785,0.616c0.859,1.284 1.419,2.113 1.679,2.488l-1.343,0l-1.364,-2.191l-0.644,0Z" style="fill:#f03;fill-rule:nonzero;"/><path d="M428.176,219.717l2.266,0l0,2.961c-0.367,0.12 -0.713,0.204 -1.037,0.252c-0.325,0.048 -0.656,0.072 -0.994,0.072c-0.862,0 -1.521,-0.253 -1.975,-0.76c-0.455,-0.506 -0.682,-1.233 -0.682,-2.181c0,-0.922 0.264,-1.641 0.791,-2.157c0.528,-0.515 1.259,-0.773 2.194,-0.773c0.586,0 1.151,0.117 1.695,0.352l-0.402,0.968c-0.417,-0.208 -0.851,-0.312 -1.301,-0.312c-0.524,0 -0.943,0.176 -1.258,0.527c-0.315,0.352 -0.473,0.824 -0.473,1.418c0,0.62 0.127,1.093 0.381,1.42c0.254,0.327 0.623,0.49 1.108,0.49c0.252,0 0.509,-0.026 0.769,-0.078l0,-1.191l-1.082,0l0,-1.008Z" style="fill:#f03;fill-rule:nonzero;"/><path d="M435.297,222.924l-0.414,-1.359l-2.082,0l-0.414,1.359l-1.305,0l2.016,-5.734l1.48,0l2.024,5.734l-1.305,0Zm-0.703,-2.375c-0.383,-1.232 -0.598,-1.928 -0.646,-2.09c-0.049,-0.161 -0.083,-0.289 -0.104,-0.383c-0.086,0.334 -0.332,1.158 -0.738,2.473l1.488,0Z" style="fill:#f03;fill-rule:nonzero;"/><path d="M442.387,222.924l-1.539,0l-2.484,-4.32l-0.036,0c0.05,0.763 0.075,1.307 0.075,1.632l0,2.688l-1.082,0l0,-5.711l1.527,0l2.481,4.277l0.027,0c-0.039,-0.742 -0.059,-1.267 -0.059,-1.574l0,-2.703l1.09,0l0,5.711Z" style="fill:#f03;fill-rule:nonzero;"/><rect x="443.825" y="217.213" width="1.211" height="5.711" style="fill:#f03;fill-rule:nonzero;"/><path d="M449.844,221.338c0,0.516 -0.185,0.922 -0.557,1.219c-0.371,0.297 -0.887,0.445 -1.548,0.445c-0.61,0 -1.149,-0.114 -1.618,-0.344l0,-1.125c0.386,0.172 0.712,0.293 0.979,0.364c0.267,0.07 0.511,0.105 0.732,0.105c0.266,0 0.47,-0.051 0.612,-0.152c0.142,-0.102 0.213,-0.253 0.213,-0.453c0,-0.112 -0.032,-0.212 -0.094,-0.299c-0.063,-0.087 -0.154,-0.171 -0.276,-0.252c-0.121,-0.081 -0.367,-0.21 -0.74,-0.387c-0.349,-0.164 -0.61,-0.321 -0.785,-0.472c-0.174,-0.152 -0.314,-0.327 -0.418,-0.528c-0.104,-0.2 -0.156,-0.435 -0.156,-0.703c0,-0.505 0.171,-0.902 0.514,-1.191c0.342,-0.289 0.815,-0.434 1.419,-0.434c0.297,0 0.581,0.035 0.85,0.106c0.27,0.07 0.552,0.169 0.846,0.296l-0.391,0.942c-0.305,-0.125 -0.556,-0.212 -0.756,-0.262c-0.199,-0.049 -0.395,-0.074 -0.588,-0.074c-0.229,0 -0.405,0.053 -0.527,0.16c-0.122,0.107 -0.184,0.246 -0.184,0.418c0,0.107 0.025,0.2 0.075,0.279c0.049,0.08 0.128,0.157 0.236,0.231c0.108,0.074 0.364,0.207 0.768,0.4c0.533,0.255 0.899,0.511 1.097,0.768c0.198,0.256 0.297,0.571 0.297,0.943Z" style="fill:#f03;fill-rule:nonzero;"/><path d="M454.375,222.924l-0.414,-1.359l-2.082,0l-0.414,1.359l-1.304,0l2.015,-5.734l1.481,0l2.023,5.734l-1.305,0Zm-0.703,-2.375c-0.383,-1.232 -0.598,-1.928 -0.646,-2.09c-0.048,-0.161 -0.083,-0.289 -0.104,-0.383c-0.086,0.334 -0.332,1.158 -0.738,2.473l1.488,0Z" style="fill:#f03;fill-rule:nonzero;"/><path d="M458.043,222.924l-1.211,0l0,-4.703l-1.55,0l0,-1.008l4.312,0l0,1.008l-1.551,0l0,4.703Z" style="fill:#f03;fill-rule:nonzero;"/><rect x="460.473" y="217.213" width="1.211" height="5.711" style="fill:#f03;fill-rule:nonzero;"/><path d="M468.305,220.061c0,0.945 -0.234,1.672 -0.703,2.179c-0.469,0.508 -1.141,0.762 -2.016,0.762c-0.875,0 -1.547,-0.254 -2.015,-0.762c-0.469,-0.507 -0.703,-1.237 -0.703,-2.187c0,-0.951 0.235,-1.677 0.705,-2.178c0.47,-0.501 1.144,-0.752 2.021,-0.752c0.878,0 1.549,0.253 2.014,0.758c0.465,0.505 0.697,1.232 0.697,2.18Zm-4.168,0c0,0.638 0.121,1.118 0.363,1.441c0.243,0.323 0.605,0.484 1.086,0.484c0.966,0 1.45,-0.641 1.45,-1.925c0,-1.287 -0.481,-1.93 -1.442,-1.93c-0.482,0 -0.845,0.162 -1.09,0.486c-0.245,0.325 -0.367,0.806 -0.367,1.444Z" style="fill:#f03;fill-rule:nonzero;"/><path d="M474.555,222.924l-1.539,0l-2.484,-4.32l-0.036,0c0.05,0.763 0.075,1.307 0.075,1.632l0,2.688l-1.082,0l0,-5.711l1.527,0l2.48,4.277l0.028,0c-0.039,-0.742 -0.059,-1.267 -0.059,-1.574l0,-2.703l1.09,0l0,5.711Z" style="fill:#f03;fill-rule:nonzero;"/></g><g transform="matrix(1,0,0,1,-321.567,-162.049)"><path d="M405.352,169.53c-0.273,0 -0.512,-0.029 -0.715,-0.086l0,-1.008c0.209,0.052 0.399,0.078 0.571,0.078c0.265,0 0.455,-0.083 0.57,-0.248c0.114,-0.165 0.172,-0.424 0.172,-0.775l0,-5.352l1.211,0l0,5.344c0,0.666 -0.153,1.174 -0.457,1.523c-0.305,0.349 -0.756,0.524 -1.352,0.524Z" style="fill:#4e79ff;fill-rule:nonzero;"/><path d="M413.782,164.987c0,0.945 -0.235,1.672 -0.703,2.179c-0.469,0.508 -1.141,0.762 -2.016,0.762c-0.875,0 -1.547,-0.254 -2.016,-0.762c-0.468,-0.507 -0.703,-1.237 -0.703,-2.187c0,-0.951 0.235,-1.677 0.705,-2.178c0.47,-0.501 1.144,-0.752 2.022,-0.752c0.877,0 1.549,0.253 2.014,0.758c0.464,0.505 0.697,1.232 0.697,2.18Zm-4.168,0c0,0.638 0.121,1.118 0.363,1.441c0.242,0.323 0.604,0.484 1.086,0.484c0.966,0 1.449,-0.641 1.449,-1.925c0,-1.287 -0.48,-1.93 -1.441,-1.93c-0.482,0 -0.845,0.162 -1.09,0.486c-0.245,0.325 -0.367,0.806 -0.367,1.444Z" style="fill:#4e79ff;fill-rule:nonzero;"/><path d="M419.614,162.139l0,3.695c0,0.422 -0.095,0.792 -0.283,1.11c-0.189,0.317 -0.462,0.561 -0.819,0.73c-0.357,0.169 -0.778,0.254 -1.265,0.254c-0.735,0 -1.305,-0.188 -1.711,-0.564c-0.407,-0.377 -0.61,-0.892 -0.61,-1.545l0,-3.68l1.207,0l0,3.496c0,0.44 0.089,0.763 0.266,0.969c0.177,0.206 0.47,0.308 0.879,0.308c0.396,0 0.683,-0.103 0.861,-0.31c0.179,-0.207 0.268,-0.532 0.268,-0.975l0,-3.488l1.207,0Z" style="fill:#4e79ff;fill-rule:nonzero;"/><path d="M422.223,164.674l0.391,0c0.383,0 0.665,-0.064 0.847,-0.191c0.183,-0.128 0.274,-0.328 0.274,-0.602c0,-0.271 -0.093,-0.463 -0.279,-0.578c-0.187,-0.114 -0.475,-0.172 -0.866,-0.172l-0.367,0l0,1.543Zm0,0.985l0,2.191l-1.211,0l0,-5.711l1.664,0c0.776,0 1.351,0.141 1.723,0.424c0.372,0.282 0.559,0.711 0.559,1.287c0,0.336 -0.093,0.635 -0.278,0.896c-0.185,0.262 -0.446,0.467 -0.785,0.616c0.859,1.284 1.419,2.113 1.68,2.488l-1.344,0l-1.363,-2.191l-0.645,0Z" style="fill:#4e79ff;fill-rule:nonzero;"/><path d="M431.36,167.85l-1.539,0l-2.485,-4.32l-0.035,0c0.05,0.763 0.075,1.307 0.075,1.632l0,2.688l-1.083,0l0,-5.711l1.528,0l2.48,4.277l0.028,0c-0.039,-0.742 -0.059,-1.267 -0.059,-1.574l0,-2.703l1.09,0l0,5.711Z" style="fill:#4e79ff;fill-rule:nonzero;"/><path d="M436.086,167.85l-3.289,0l0,-5.711l3.289,0l0,0.992l-2.078,0l0,1.254l1.934,0l0,0.992l-1.934,0l0,1.473l2.078,0l0,1Z" style="fill:#4e79ff;fill-rule:nonzero;"/><path d="M439.055,164.491l1.192,-2.352l1.304,0l-1.894,3.488l0,2.223l-1.203,0l0,-2.184l-1.895,-3.527l1.313,0l1.183,2.352Z" style="fill:#4e79ff;fill-rule:nonzero;"/><path d="M447.942,167.85l-3.992,0l0,-0.84l1.433,-1.449c0.425,-0.435 0.702,-0.736 0.832,-0.904c0.131,-0.168 0.224,-0.324 0.282,-0.467c0.057,-0.143 0.086,-0.292 0.086,-0.445c0,-0.23 -0.064,-0.4 -0.19,-0.512c-0.126,-0.112 -0.295,-0.168 -0.506,-0.168c-0.221,0 -0.436,0.051 -0.644,0.152c-0.209,0.102 -0.426,0.246 -0.653,0.434l-0.656,-0.778c0.281,-0.239 0.514,-0.408 0.699,-0.507c0.185,-0.099 0.387,-0.176 0.606,-0.229c0.219,-0.053 0.463,-0.08 0.734,-0.08c0.357,0 0.672,0.065 0.945,0.195c0.274,0.131 0.486,0.313 0.637,0.547c0.151,0.235 0.227,0.503 0.227,0.805c0,0.263 -0.046,0.51 -0.139,0.74c-0.092,0.231 -0.236,0.467 -0.43,0.709c-0.194,0.242 -0.535,0.587 -1.025,1.035l-0.734,0.692l0,0.054l2.488,0l0,1.016Z" style="fill:#4e79ff;fill-rule:nonzero;"/><path d="M454.282,167.85l-3.289,0l0,-5.711l3.289,0l0,0.992l-2.078,0l0,1.254l1.933,0l0,0.992l-1.933,0l0,1.473l2.078,0l0,1Z" style="fill:#4e79ff;fill-rule:nonzero;"/><path d="M460.54,167.85l-1.539,0l-2.485,-4.32l-0.035,0c0.049,0.763 0.074,1.307 0.074,1.632l0,2.688l-1.082,0l0,-5.711l1.528,0l2.48,4.277l0.027,0c-0.039,-0.742 -0.058,-1.267 -0.058,-1.574l0,-2.703l1.09,0l0,5.711Z" style="fill:#4e79ff;fill-rule:nonzero;"/><path d="M464.145,164.643l2.266,0l0,2.961c-0.368,0.12 -0.713,0.204 -1.037,0.252c-0.325,0.048 -0.656,0.072 -0.995,0.072c-0.862,0 -1.52,-0.253 -1.974,-0.76c-0.455,-0.506 -0.682,-1.233 -0.682,-2.181c0,-0.922 0.264,-1.641 0.791,-2.157c0.528,-0.515 1.259,-0.773 2.194,-0.773c0.585,0 1.151,0.117 1.695,0.352l-0.402,0.968c-0.417,-0.208 -0.851,-0.312 -1.301,-0.312c-0.524,0 -0.943,0.176 -1.258,0.527c-0.315,0.352 -0.473,0.824 -0.473,1.418c0,0.62 0.127,1.093 0.381,1.42c0.254,0.327 0.623,0.49 1.108,0.49c0.252,0 0.509,-0.026 0.769,-0.078l0,-1.191l-1.082,0l0,-1.008Z" style="fill:#4e79ff;fill-rule:nonzero;"/><path d="M467.77,167.85l0,-5.711l1.211,0l0,4.711l2.316,0l0,1l-3.527,0Z" style="fill:#4e79ff;fill-rule:nonzero;"/><rect x="472.29" y="162.139" width="1.211" height="5.711" style="fill:#4e79ff;fill-rule:nonzero;"/><path d="M478.309,166.264c0,0.516 -0.185,0.922 -0.557,1.219c-0.371,0.297 -0.887,0.445 -1.548,0.445c-0.61,0 -1.149,-0.114 -1.618,-0.344l0,-1.125c0.386,0.172 0.712,0.293 0.979,0.364c0.267,0.07 0.511,0.105 0.732,0.105c0.266,0 0.47,-0.051 0.612,-0.152c0.142,-0.102 0.213,-0.253 0.213,-0.453c0,-0.112 -0.032,-0.212 -0.094,-0.299c-0.063,-0.087 -0.154,-0.171 -0.276,-0.252c-0.121,-0.081 -0.367,-0.21 -0.74,-0.387c-0.349,-0.164 -0.61,-0.321 -0.785,-0.473c-0.174,-0.151 -0.314,-0.326 -0.418,-0.527c-0.104,-0.2 -0.156,-0.435 -0.156,-0.703c0,-0.505 0.171,-0.902 0.514,-1.191c0.342,-0.289 0.815,-0.434 1.419,-0.434c0.297,0 0.581,0.035 0.85,0.105c0.27,0.071 0.552,0.17 0.846,0.297l-0.391,0.942c-0.305,-0.125 -0.556,-0.212 -0.756,-0.262c-0.199,-0.049 -0.395,-0.074 -0.588,-0.074c-0.229,0 -0.405,0.053 -0.527,0.16c-0.122,0.107 -0.184,0.246 -0.184,0.418c0,0.107 0.025,0.2 0.075,0.279c0.049,0.08 0.128,0.157 0.236,0.231c0.108,0.074 0.364,0.207 0.768,0.4c0.533,0.255 0.899,0.511 1.097,0.768c0.198,0.256 0.297,0.571 0.297,0.943Z" style="fill:#4e79ff;fill-rule:nonzero;"/><path d="M484.024,167.85l-1.207,0l0,-2.465l-2.262,0l0,2.465l-1.211,0l0,-5.711l1.211,0l0,2.238l2.262,0l0,-2.238l1.207,0l0,5.711Z" style="fill:#4e79ff;fill-rule:nonzero;"/></g><g transform="matrix(1,0,0,1,-321.567,-162.049)"><path d="M432.909,275.805l2.265,0l0,2.961c-0.367,0.12 -0.713,0.204 -1.037,0.252c-0.324,0.048 -0.655,0.072 -0.994,0.072c-0.862,0 -1.52,-0.253 -1.975,-0.76c-0.454,-0.506 -0.681,-1.233 -0.681,-2.181c0,-0.922 0.264,-1.641 0.791,-2.157c0.527,-0.515 1.258,-0.773 2.193,-0.773c0.586,0 1.151,0.117 1.696,0.352l-0.403,0.968c-0.416,-0.208 -0.85,-0.312 -1.301,-0.312c-0.523,0 -0.942,0.176 -1.257,0.527c-0.316,0.352 -0.473,0.824 -0.473,1.418c0,0.62 0.127,1.093 0.381,1.42c0.254,0.327 0.623,0.49 1.107,0.49c0.253,0 0.509,-0.026 0.77,-0.078l0,-1.191l-1.082,0l0,-1.008Z" style="fill:#00aa35;fill-rule:nonzero;"/><path d="M437.745,275.836l0.39,0c0.383,0 0.666,-0.064 0.848,-0.191c0.182,-0.128 0.273,-0.328 0.273,-0.602c0,-0.271 -0.093,-0.463 -0.279,-0.578c-0.186,-0.114 -0.475,-0.172 -0.865,-0.172l-0.367,0l0,1.543Zm0,0.985l0,2.191l-1.211,0l0,-5.711l1.664,0c0.776,0 1.35,0.141 1.722,0.424c0.373,0.282 0.559,0.711 0.559,1.287c0,0.336 -0.092,0.635 -0.277,0.896c-0.185,0.262 -0.447,0.467 -0.785,0.616c0.859,1.284 1.419,2.113 1.679,2.488l-1.344,0l-1.363,-2.191l-0.644,0Z" style="fill:#00aa35;fill-rule:nonzero;"/><path d="M446.999,276.149c0,0.945 -0.235,1.672 -0.704,2.179c-0.468,0.508 -1.14,0.762 -2.015,0.762c-0.875,0 -1.547,-0.254 -2.016,-0.762c-0.469,-0.507 -0.703,-1.237 -0.703,-2.187c0,-0.951 0.235,-1.677 0.705,-2.178c0.47,-0.501 1.144,-0.752 2.022,-0.752c0.877,0 1.548,0.253 2.013,0.758c0.465,0.505 0.698,1.232 0.698,2.18Zm-4.168,0c0,0.638 0.121,1.118 0.363,1.441c0.242,0.323 0.604,0.485 1.086,0.485c0.966,0 1.449,-0.642 1.449,-1.926c0,-1.287 -0.48,-1.93 -1.441,-1.93c-0.482,0 -0.845,0.162 -1.09,0.486c-0.245,0.325 -0.367,0.806 -0.367,1.444Z" style="fill:#00aa35;fill-rule:nonzero;"/><path d="M452.831,273.301l0,3.695c0,0.422 -0.095,0.792 -0.284,1.11c-0.188,0.317 -0.461,0.561 -0.818,0.73c-0.357,0.169 -0.779,0.254 -1.266,0.254c-0.734,0 -1.304,-0.188 -1.711,-0.564c-0.406,-0.377 -0.609,-0.892 -0.609,-1.545l0,-3.68l1.207,0l0,3.496c0,0.44 0.089,0.763 0.266,0.969c0.177,0.206 0.47,0.308 0.879,0.308c0.395,0 0.683,-0.103 0.861,-0.31c0.178,-0.207 0.268,-0.532 0.268,-0.975l0,-3.488l1.207,0Z" style="fill:#00aa35;fill-rule:nonzero;"/><path d="M455.44,275.989l0.398,0c0.373,0 0.651,-0.074 0.836,-0.221c0.185,-0.147 0.278,-0.361 0.278,-0.643c0,-0.284 -0.078,-0.493 -0.233,-0.629c-0.155,-0.135 -0.398,-0.203 -0.728,-0.203l-0.551,0l0,1.696Zm2.734,-0.907c0,0.615 -0.192,1.085 -0.576,1.41c-0.384,0.326 -0.93,0.489 -1.639,0.489l-0.519,0l0,2.031l-1.211,0l0,-5.711l1.824,0c0.693,0 1.22,0.149 1.58,0.447c0.361,0.299 0.541,0.743 0.541,1.334Z" style="fill:#00aa35;fill-rule:nonzero;"/></g><path d="M41.36,28.59l-0.856,-2.379l-3.275,0l-0.838,2.379l-1.477,0l3.205,-8.602l1.524,0l3.205,8.602l-1.488,0Zm-1.225,-3.586l-0.803,-2.332c-0.058,-0.156 -0.139,-0.403 -0.243,-0.738c-0.103,-0.336 -0.175,-0.583 -0.214,-0.739c-0.105,0.481 -0.259,1.006 -0.463,1.576l-0.773,2.233l2.496,0Z" style="fill-rule:nonzero;"/><path d="M46.018,28.707c-0.809,0 -1.44,-0.293 -1.893,-0.879c-0.453,-0.586 -0.679,-1.408 -0.679,-2.467c0,-1.062 0.229,-1.889 0.688,-2.481c0.459,-0.592 1.095,-0.888 1.907,-0.888c0.852,0 1.5,0.315 1.946,0.943l0.07,0c-0.066,-0.464 -0.1,-0.832 -0.1,-1.101l0,-2.361l1.383,0l0,9.117l-1.078,0l-0.24,-0.85l-0.065,0c-0.441,0.645 -1.088,0.967 -1.939,0.967Zm0.369,-1.113c0.566,0 0.979,-0.159 1.236,-0.478c0.258,-0.318 0.391,-0.835 0.399,-1.55l0,-0.193c0,-0.816 -0.133,-1.397 -0.399,-1.74c-0.265,-0.344 -0.681,-0.516 -1.248,-0.516c-0.484,0 -0.857,0.196 -1.119,0.589c-0.262,0.393 -0.392,0.952 -0.392,1.679c0,0.718 0.127,1.266 0.38,1.643c0.254,0.377 0.635,0.566 1.143,0.566Z" style="fill-rule:nonzero;"/><path d="M56.77,28.59l-1.383,0l0,-3.996c0,-0.496 -0.094,-0.867 -0.281,-1.111c-0.188,-0.244 -0.481,-0.366 -0.879,-0.366c-0.531,0 -0.921,0.173 -1.169,0.519c-0.248,0.345 -0.372,0.921 -0.372,1.725l0,3.229l-1.377,0l0,-6.481l1.078,0l0.193,0.85l0.071,0c0.179,-0.309 0.44,-0.547 0.782,-0.715c0.342,-0.168 0.718,-0.252 1.128,-0.252c0.996,0 1.656,0.34 1.98,1.02l0.094,0c0.191,-0.321 0.461,-0.571 0.809,-0.75c0.347,-0.18 0.746,-0.27 1.195,-0.27c0.773,0 1.337,0.195 1.69,0.586c0.354,0.391 0.531,0.986 0.531,1.787l0,4.225l-1.377,0l0,-3.996c0,-0.496 -0.095,-0.867 -0.284,-1.111c-0.19,-0.244 -0.484,-0.366 -0.882,-0.366c-0.535,0 -0.927,0.167 -1.175,0.501c-0.248,0.334 -0.372,0.847 -0.372,1.538l0,3.434Z" style="fill-rule:nonzero;"/><path d="M64.159,28.59l-1.377,0l0,-6.481l1.377,0l0,6.481Zm-1.459,-8.197c0,-0.247 0.067,-0.436 0.202,-0.569c0.134,-0.133 0.327,-0.199 0.577,-0.199c0.242,0 0.431,0.066 0.565,0.199c0.135,0.133 0.202,0.322 0.202,0.569c0,0.234 -0.067,0.418 -0.202,0.553c-0.134,0.135 -0.323,0.202 -0.565,0.202c-0.25,0 -0.443,-0.067 -0.577,-0.202c-0.135,-0.135 -0.202,-0.319 -0.202,-0.553Z" style="fill-rule:nonzero;"/><path d="M71.828,28.59l-1.382,0l0,-3.985c0,-0.5 -0.101,-0.873 -0.302,-1.119c-0.201,-0.246 -0.521,-0.369 -0.958,-0.369c-0.582,0 -1.008,0.172 -1.277,0.516c-0.27,0.343 -0.405,0.92 -0.405,1.728l0,3.229l-1.377,0l0,-6.481l1.078,0l0.194,0.85l0.07,0c0.195,-0.309 0.473,-0.547 0.832,-0.715c0.359,-0.168 0.758,-0.252 1.195,-0.252c1.555,0 2.332,0.791 2.332,2.373l0,4.225Z" style="fill-rule:nonzero;"/><path d="M75.121,28.59l-1.377,0l0,-6.481l1.377,0l0,6.481Zm-1.459,-8.197c0,-0.247 0.068,-0.436 0.203,-0.569c0.134,-0.133 0.327,-0.199 0.577,-0.199c0.242,0 0.43,0.066 0.565,0.199c0.135,0.133 0.202,0.322 0.202,0.569c0,0.234 -0.067,0.418 -0.202,0.553c-0.135,0.135 -0.323,0.202 -0.565,0.202c-0.25,0 -0.443,-0.067 -0.577,-0.202c-0.135,-0.135 -0.203,-0.319 -0.203,-0.553Z" style="fill-rule:nonzero;"/><path d="M81.444,26.744c0,0.633 -0.231,1.118 -0.692,1.456c-0.461,0.338 -1.121,0.507 -1.98,0.507c-0.863,0 -1.557,-0.131 -2.08,-0.393l0,-1.189c0.761,0.351 1.47,0.527 2.127,0.527c0.847,0 1.271,-0.256 1.271,-0.767c0,-0.164 -0.047,-0.301 -0.14,-0.41c-0.094,-0.11 -0.249,-0.223 -0.463,-0.34c-0.215,-0.117 -0.514,-0.25 -0.897,-0.399c-0.746,-0.289 -1.251,-0.578 -1.514,-0.867c-0.264,-0.289 -0.396,-0.664 -0.396,-1.125c0,-0.555 0.224,-0.985 0.671,-1.292c0.447,-0.307 1.056,-0.46 1.825,-0.46c0.762,0 1.483,0.154 2.162,0.463l-0.445,1.037c-0.699,-0.289 -1.287,-0.433 -1.764,-0.433c-0.726,0 -1.09,0.207 -1.09,0.621c0,0.203 0.095,0.375 0.285,0.515c0.189,0.141 0.602,0.334 1.239,0.58c0.535,0.207 0.924,0.397 1.166,0.569c0.242,0.172 0.422,0.37 0.539,0.594c0.117,0.225 0.176,0.494 0.176,0.806Z" style="fill-rule:nonzero;"/><path d="M85.346,27.594c0.336,0 0.672,-0.053 1.008,-0.159l0,1.038c-0.153,0.066 -0.349,0.122 -0.589,0.167c-0.24,0.045 -0.489,0.067 -0.747,0.067c-1.305,0 -1.957,-0.688 -1.957,-2.063l0,-3.492l-0.885,0l0,-0.609l0.949,-0.504l0.469,-1.371l0.85,0l0,1.441l1.845,0l0,1.043l-1.845,0l0,3.469c0,0.332 0.083,0.577 0.249,0.735c0.166,0.159 0.383,0.238 0.653,0.238Z" style="fill-rule:nonzero;"/><path d="M90.936,21.992c0.277,0 0.506,0.02 0.685,0.059l-0.134,1.283c-0.196,-0.047 -0.399,-0.07 -0.61,-0.07c-0.551,0 -0.997,0.179 -1.339,0.539c-0.341,0.359 -0.512,0.826 -0.512,1.4l0,3.387l-1.377,0l0,-6.481l1.078,0l0.182,1.143l0.07,0c0.215,-0.387 0.495,-0.693 0.841,-0.92c0.345,-0.227 0.717,-0.34 1.116,-0.34Z" style="fill-rule:nonzero;"/><path d="M96.877,28.59l-0.275,-0.903l-0.047,0c-0.312,0.395 -0.627,0.664 -0.943,0.806c-0.317,0.143 -0.723,0.214 -1.219,0.214c-0.637,0 -1.134,-0.172 -1.491,-0.516c-0.358,-0.343 -0.536,-0.83 -0.536,-1.459c0,-0.668 0.248,-1.172 0.744,-1.511c0.496,-0.34 1.252,-0.526 2.267,-0.557l1.119,-0.035l0,-0.346c0,-0.414 -0.096,-0.723 -0.29,-0.929c-0.193,-0.205 -0.493,-0.307 -0.899,-0.307c-0.332,0 -0.65,0.049 -0.955,0.146c-0.305,0.098 -0.598,0.213 -0.879,0.346l-0.445,-0.984c0.351,-0.184 0.736,-0.324 1.154,-0.419c0.418,-0.096 0.812,-0.144 1.184,-0.144c0.824,0 1.446,0.18 1.866,0.539c0.42,0.36 0.63,0.924 0.63,1.694l0,4.365l-0.985,0Zm-2.051,-0.938c0.5,0 0.902,-0.139 1.205,-0.419c0.302,-0.279 0.454,-0.671 0.454,-1.174l0,-0.563l-0.832,0.035c-0.649,0.024 -1.12,0.132 -1.415,0.325c-0.295,0.194 -0.443,0.49 -0.443,0.888c0,0.289 0.086,0.513 0.258,0.671c0.172,0.158 0.43,0.237 0.773,0.237Z" style="fill-rule:nonzero;"/><path d="M102.198,27.594c0.336,0 0.671,-0.053 1.007,-0.159l0,1.038c-0.152,0.066 -0.348,0.122 -0.588,0.167c-0.241,0.045 -0.49,0.067 -0.748,0.067c-1.304,0 -1.957,-0.688 -1.957,-2.063l0,-3.492l-0.884,0l0,-0.609l0.949,-0.504l0.469,-1.371l0.849,0l0,1.441l1.846,0l0,1.043l-1.846,0l0,3.469c0,0.332 0.083,0.577 0.249,0.735c0.166,0.159 0.384,0.238 0.654,0.238Z" style="fill-rule:nonzero;"/><path d="M110.248,25.338c0,1.058 -0.271,1.885 -0.814,2.478c-0.543,0.594 -1.299,0.891 -2.268,0.891c-0.605,0 -1.14,-0.137 -1.605,-0.41c-0.465,-0.274 -0.822,-0.666 -1.072,-1.178c-0.25,-0.512 -0.375,-1.105 -0.375,-1.781c0,-1.051 0.269,-1.871 0.808,-2.461c0.539,-0.59 1.299,-0.885 2.279,-0.885c0.938,0 1.68,0.302 2.227,0.905c0.547,0.604 0.82,1.417 0.82,2.441Zm-4.716,0c0,1.496 0.552,2.244 1.658,2.244c1.094,0 1.64,-0.748 1.64,-2.244c0,-1.481 -0.55,-2.221 -1.652,-2.221c-0.578,0 -0.997,0.192 -1.257,0.574c-0.26,0.383 -0.389,0.932 -0.389,1.647Z" style="fill-rule:nonzero;"/><path d="M115.118,21.992c0.277,0 0.505,0.02 0.685,0.059l-0.135,1.283c-0.195,-0.047 -0.398,-0.07 -0.609,-0.07c-0.551,0 -0.997,0.179 -1.339,0.539c-0.342,0.359 -0.513,0.826 -0.513,1.4l0,3.387l-1.377,0l0,-6.481l1.079,0l0.181,1.143l0.07,0c0.215,-0.387 0.496,-0.693 0.841,-0.92c0.346,-0.227 0.718,-0.34 1.117,-0.34Z" style="fill-rule:nonzero;"/><path d="M53.933,85.339l-2.484,-7.155l-0.047,0c0.067,1.063 0.1,2.059 0.1,2.989l0,4.166l-1.272,0l0,-8.567l1.975,0l2.379,6.815l0.035,0l2.449,-6.815l1.981,0l0,8.567l-1.348,0l0,-4.237c0,-0.425 0.011,-0.98 0.032,-1.664c0.022,-0.683 0.04,-1.097 0.056,-1.242l-0.047,0l-2.572,7.143l-1.237,0Z" style="fill-rule:nonzero;"/><path d="M66.906,82.087c0,1.058 -0.271,1.885 -0.814,2.478c-0.543,0.594 -1.299,0.891 -2.268,0.891c-0.605,0 -1.141,-0.137 -1.605,-0.41c-0.465,-0.274 -0.823,-0.666 -1.073,-1.178c-0.25,-0.512 -0.375,-1.105 -0.375,-1.781c0,-1.051 0.27,-1.871 0.809,-2.461c0.539,-0.59 1.299,-0.885 2.279,-0.885c0.938,0 1.68,0.302 2.227,0.905c0.547,0.604 0.82,1.417 0.82,2.441Zm-4.717,0c0,1.496 0.553,2.244 1.658,2.244c1.094,0 1.641,-0.748 1.641,-2.244c0,-1.481 -0.551,-2.221 -1.652,-2.221c-0.578,0 -0.997,0.192 -1.257,0.574c-0.26,0.383 -0.39,0.932 -0.39,1.647Z" style="fill-rule:nonzero;"/><path d="M70.674,85.456c-0.809,0 -1.44,-0.293 -1.893,-0.879c-0.453,-0.586 -0.68,-1.408 -0.68,-2.467c0,-1.062 0.23,-1.889 0.689,-2.481c0.459,-0.592 1.095,-0.888 1.907,-0.888c0.852,0 1.5,0.315 1.945,0.943l0.071,0c-0.067,-0.464 -0.1,-0.832 -0.1,-1.101l0,-2.361l1.383,0l0,9.117l-1.078,0l-0.24,-0.85l-0.065,0c-0.441,0.645 -1.088,0.967 -1.939,0.967Zm0.369,-1.113c0.566,0 0.978,-0.159 1.236,-0.478c0.258,-0.318 0.391,-0.835 0.399,-1.55l0,-0.193c0,-0.816 -0.133,-1.397 -0.399,-1.74c-0.266,-0.344 -0.682,-0.516 -1.248,-0.516c-0.484,0 -0.857,0.196 -1.119,0.589c-0.262,0.393 -0.393,0.952 -0.393,1.679c0,0.718 0.127,1.266 0.381,1.643c0.254,0.377 0.635,0.566 1.143,0.566Z" style="fill-rule:nonzero;"/><path d="M78.795,85.456c-1.008,0 -1.796,-0.294 -2.365,-0.882c-0.568,-0.588 -0.852,-1.397 -0.852,-2.429c0,-1.058 0.264,-1.89 0.791,-2.496c0.527,-0.605 1.252,-0.908 2.174,-0.908c0.855,0 1.531,0.26 2.027,0.779c0.496,0.52 0.744,1.235 0.744,2.145l0,0.744l-4.318,0c0.019,0.629 0.189,1.112 0.51,1.45c0.32,0.338 0.771,0.507 1.353,0.507c0.383,0 0.739,-0.036 1.069,-0.108c0.331,-0.073 0.685,-0.193 1.064,-0.361l0,1.12c-0.336,0.16 -0.676,0.273 -1.02,0.339c-0.343,0.067 -0.736,0.1 -1.177,0.1Zm-0.252,-5.672c-0.438,0 -0.788,0.139 -1.052,0.416c-0.264,0.277 -0.421,0.682 -0.472,1.213l2.942,0c-0.008,-0.535 -0.137,-0.94 -0.387,-1.216c-0.25,-0.275 -0.594,-0.413 -1.031,-0.413Z" style="fill-rule:nonzero;"/><path d="M86.166,78.741c0.277,0 0.506,0.02 0.685,0.059l-0.134,1.283c-0.196,-0.047 -0.399,-0.07 -0.61,-0.07c-0.551,0 -0.997,0.179 -1.339,0.539c-0.341,0.359 -0.512,0.826 -0.512,1.4l0,3.387l-1.377,0l0,-6.481l1.078,0l0.181,1.143l0.071,0c0.215,-0.387 0.495,-0.693 0.841,-0.92c0.345,-0.227 0.717,-0.34 1.116,-0.34Z" style="fill-rule:nonzero;"/><path d="M92.107,85.339l-0.275,-0.903l-0.047,0c-0.313,0.395 -0.627,0.664 -0.943,0.806c-0.317,0.143 -0.723,0.214 -1.219,0.214c-0.637,0 -1.134,-0.172 -1.491,-0.516c-0.358,-0.343 -0.537,-0.83 -0.537,-1.459c0,-0.668 0.249,-1.172 0.745,-1.511c0.496,-0.34 1.252,-0.526 2.267,-0.557l1.119,-0.035l0,-0.346c0,-0.414 -0.096,-0.723 -0.29,-0.929c-0.193,-0.205 -0.493,-0.307 -0.899,-0.307c-0.332,0 -0.651,0.049 -0.955,0.146c-0.305,0.098 -0.598,0.213 -0.879,0.346l-0.445,-0.984c0.351,-0.184 0.736,-0.324 1.154,-0.419c0.418,-0.096 0.812,-0.144 1.183,-0.144c0.825,0 1.447,0.18 1.867,0.539c0.42,0.36 0.63,0.924 0.63,1.694l0,4.365l-0.985,0Zm-2.051,-0.938c0.5,0 0.902,-0.139 1.205,-0.419c0.302,-0.279 0.454,-0.671 0.454,-1.174l0,-0.563l-0.832,0.035c-0.649,0.024 -1.121,0.132 -1.415,0.325c-0.295,0.194 -0.443,0.49 -0.443,0.888c0,0.289 0.086,0.513 0.258,0.671c0.172,0.158 0.43,0.237 0.773,0.237Z" style="fill-rule:nonzero;"/><path d="M97.428,84.343c0.335,0 0.671,-0.053 1.007,-0.159l0,1.038c-0.152,0.066 -0.348,0.122 -0.589,0.167c-0.24,0.045 -0.489,0.067 -0.747,0.067c-1.304,0 -1.957,-0.688 -1.957,-2.063l0,-3.492l-0.884,0l0,-0.609l0.949,-0.504l0.469,-1.371l0.849,0l0,1.441l1.846,0l0,1.043l-1.846,0l0,3.469c0,0.332 0.083,0.577 0.249,0.735c0.166,0.159 0.384,0.238 0.654,0.238Z" style="fill-rule:nonzero;"/><path d="M105.478,82.087c0,1.058 -0.271,1.885 -0.814,2.478c-0.543,0.594 -1.299,0.891 -2.268,0.891c-0.605,0 -1.14,-0.137 -1.605,-0.41c-0.465,-0.274 -0.822,-0.666 -1.072,-1.178c-0.25,-0.512 -0.375,-1.105 -0.375,-1.781c0,-1.051 0.269,-1.871 0.808,-2.461c0.539,-0.59 1.299,-0.885 2.279,-0.885c0.938,0 1.68,0.302 2.227,0.905c0.547,0.604 0.82,1.417 0.82,2.441Zm-4.717,0c0,1.496 0.553,2.244 1.659,2.244c1.093,0 1.64,-0.748 1.64,-2.244c0,-1.481 -0.55,-2.221 -1.652,-2.221c-0.578,0 -0.997,0.192 -1.257,0.574c-0.26,0.383 -0.39,0.932 -0.39,1.647Z" style="fill-rule:nonzero;"/><path d="M110.347,78.741c0.278,0 0.506,0.02 0.686,0.059l-0.135,1.283c-0.195,-0.047 -0.398,-0.07 -0.609,-0.07c-0.551,0 -0.997,0.179 -1.339,0.539c-0.342,0.359 -0.513,0.826 -0.513,1.4l0,3.387l-1.377,0l0,-6.481l1.078,0l0.182,1.143l0.07,0c0.215,-0.387 0.496,-0.693 0.841,-0.92c0.346,-0.227 0.718,-0.34 1.116,-0.34Z" style="fill-rule:nonzero;"/><path d="M39.229,81.589c-0.61,0 -1.172,-0.153 -1.688,-0.457c-0.516,-0.305 -0.926,-0.715 -1.23,-1.231c-0.305,-0.515 -0.457,-1.078 -0.457,-1.687c0,-0.61 0.152,-1.172 0.457,-1.688c0.304,-0.515 0.714,-0.925 1.23,-1.23c0.516,-0.305 1.078,-0.457 1.688,-0.457c0.609,0 1.171,0.152 1.687,0.457c0.516,0.305 0.926,0.715 1.23,1.23c0.305,0.516 0.458,1.078 0.458,1.688c0,0.609 -0.153,1.172 -0.458,1.687c-0.304,0.516 -0.714,0.926 -1.23,1.231c-0.516,0.304 -1.078,0.457 -1.687,0.457Zm3,0.75c0.546,0 1.05,0.133 1.511,0.398c0.461,0.266 0.824,0.629 1.09,1.09c0.266,0.461 0.399,0.965 0.399,1.512l0,0.375c0,0.312 -0.11,0.578 -0.329,0.797c-0.218,0.218 -0.484,0.328 -0.796,0.328l-9.75,0c-0.313,0 -0.579,-0.11 -0.797,-0.328c-0.219,-0.219 -0.328,-0.485 -0.328,-0.797l0,-0.375c0,-0.547 0.132,-1.051 0.398,-1.512c0.266,-0.461 0.629,-0.824 1.09,-1.09c0.461,-0.265 0.965,-0.398 1.512,-0.398l1.289,0c0.546,0.25 1.117,0.375 1.711,0.375c0.593,0 1.164,-0.125 1.71,-0.375l1.29,0Z" style="fill-rule:nonzero;"/><path d="M25.229,25.434c-0.61,0 -1.172,-0.153 -1.688,-0.457c-0.516,-0.305 -0.926,-0.715 -1.23,-1.231c-0.305,-0.515 -0.457,-1.078 -0.457,-1.687c0,-0.61 0.152,-1.172 0.457,-1.688c0.304,-0.515 0.714,-0.926 1.23,-1.23c0.516,-0.305 1.078,-0.457 1.688,-0.457c0.609,0 1.171,0.152 1.687,0.457c0.516,0.304 0.926,0.715 1.23,1.23c0.305,0.516 0.458,1.078 0.458,1.688c0,0.609 -0.153,1.172 -0.458,1.687c-0.304,0.516 -0.714,0.926 -1.23,1.231c-0.516,0.304 -1.078,0.457 -1.687,0.457Zm3,0.75c0.546,0 1.05,0.133 1.511,0.398c0.461,0.266 0.824,0.629 1.09,1.09c0.266,0.461 0.399,0.965 0.399,1.512l0,0.375c0,0.312 -0.11,0.578 -0.329,0.797c-0.218,0.218 -0.484,0.328 -0.796,0.328l-9.75,0c-0.313,0 -0.579,-0.11 -0.797,-0.328c-0.219,-0.219 -0.328,-0.485 -0.328,-0.797l0,-0.375c0,-0.547 0.132,-1.051 0.398,-1.512c0.266,-0.461 0.629,-0.824 1.09,-1.09c0.461,-0.265 0.965,-0.398 1.512,-0.398l1.289,0c0.546,0.25 1.117,0.375 1.711,0.375c0.593,0 1.164,-0.125 1.71,-0.375l1.29,0Z" style="fill-rule:nonzero;"/><path d="M51.229,137.557c-0.61,0 -1.172,-0.152 -1.688,-0.457c-0.516,-0.304 -0.926,-0.715 -1.23,-1.23c-0.305,-0.516 -0.457,-1.078 -0.457,-1.688c0,-0.609 0.152,-1.172 0.457,-1.687c0.304,-0.516 0.714,-0.926 1.23,-1.231c0.516,-0.304 1.078,-0.457 1.688,-0.457c0.609,0 1.171,0.153 1.687,0.457c0.516,0.305 0.926,0.715 1.23,1.231c0.305,0.515 0.458,1.078 0.458,1.687c0,0.61 -0.153,1.172 -0.458,1.688c-0.304,0.515 -0.714,0.926 -1.23,1.23c-0.516,0.305 -1.078,0.457 -1.687,0.457Zm3,0.75c0.546,0 1.05,0.133 1.511,0.399c0.461,0.265 0.824,0.629 1.09,1.09c0.266,0.461 0.399,0.964 0.399,1.511l0,0.375c0,0.313 -0.11,0.578 -0.329,0.797c-0.218,0.219 -0.484,0.328 -0.796,0.328l-9.75,0c-0.313,0 -0.579,-0.109 -0.797,-0.328c-0.219,-0.219 -0.328,-0.484 -0.328,-0.797l0,-0.375c0,-0.547 0.132,-1.05 0.398,-1.511c0.266,-0.461 0.629,-0.825 1.09,-1.09c0.461,-0.266 0.965,-0.399 1.512,-0.399l1.289,0c0.546,0.25 1.117,0.375 1.711,0.375c0.593,0 1.164,-0.125 1.71,-0.375l1.29,0Z" style="fill-rule:nonzero;"/><path d="M75.162,179.756c-0.609,0 -1.171,-0.152 -1.687,-0.457c-0.516,-0.304 -0.926,-0.715 -1.231,-1.23c-0.304,-0.516 -0.457,-1.078 -0.457,-1.688c0,-0.609 0.153,-1.172 0.457,-1.687c0.305,-0.516 0.715,-0.926 1.231,-1.231c0.516,-0.304 1.078,-0.457 1.687,-0.457c0.61,0 1.172,0.153 1.688,0.457c0.516,0.305 0.926,0.715 1.23,1.231c0.305,0.515 0.457,1.078 0.457,1.687c0,0.61 -0.152,1.172 -0.457,1.688c-0.304,0.515 -0.714,0.926 -1.23,1.23c-0.516,0.305 -1.078,0.457 -1.688,0.457Zm3,0.75c0.547,0 1.051,0.133 1.512,0.399c0.461,0.265 0.824,0.629 1.09,1.09c0.266,0.461 0.398,0.964 0.398,1.511l0,0.375c0,0.313 -0.109,0.578 -0.328,0.797c-0.218,0.219 -0.484,0.328 -0.797,0.328l-9.75,0c-0.312,0 -0.578,-0.109 -0.796,-0.328c-0.219,-0.219 -0.329,-0.484 -0.329,-0.797l0,-0.375c0,-0.547 0.133,-1.05 0.399,-1.511c0.265,-0.461 0.629,-0.825 1.09,-1.09c0.461,-0.266 0.965,-0.399 1.511,-0.399l1.289,0c0.547,0.25 1.118,0.375 1.711,0.375c0.594,0 1.164,-0.125 1.711,-0.375l1.289,0Z" style="fill-rule:nonzero;"/><path d="M90.692,181.151c0,0.761 -0.276,1.359 -0.826,1.793c-0.551,0.433 -1.311,0.65 -2.28,0.65c-0.969,0 -1.761,-0.15 -2.379,-0.451l0,-1.324c0.391,0.183 0.806,0.328 1.245,0.433c0.44,0.106 0.849,0.158 1.228,0.158c0.555,0 0.964,-0.105 1.228,-0.316c0.263,-0.211 0.395,-0.494 0.395,-0.85c0,-0.32 -0.121,-0.591 -0.363,-0.814c-0.242,-0.223 -0.742,-0.486 -1.5,-0.791c-0.782,-0.317 -1.332,-0.678 -1.653,-1.084c-0.32,-0.406 -0.48,-0.895 -0.48,-1.465c0,-0.715 0.254,-1.277 0.762,-1.687c0.507,-0.411 1.189,-0.616 2.045,-0.616c0.82,0 1.636,0.18 2.449,0.539l-0.446,1.143c-0.761,-0.32 -1.441,-0.48 -2.039,-0.48c-0.453,0 -0.796,0.098 -1.031,0.295c-0.234,0.198 -0.351,0.458 -0.351,0.783c0,0.222 0.046,0.413 0.14,0.571c0.094,0.158 0.248,0.308 0.463,0.448c0.215,0.141 0.602,0.326 1.16,0.557c0.629,0.262 1.09,0.506 1.383,0.732c0.293,0.227 0.508,0.483 0.645,0.768c0.136,0.285 0.205,0.621 0.205,1.008Z" style="fill-rule:nonzero;"/><path d="M94.617,182.481c0.336,0 0.672,-0.053 1.008,-0.159l0,1.038c-0.152,0.066 -0.348,0.122 -0.589,0.167c-0.24,0.045 -0.489,0.067 -0.747,0.067c-1.304,0 -1.957,-0.688 -1.957,-2.063l0,-3.492l-0.884,0l0,-0.609l0.949,-0.504l0.469,-1.371l0.849,0l0,1.441l1.846,0l0,1.043l-1.846,0l0,3.469c0,0.332 0.083,0.577 0.249,0.735c0.166,0.159 0.384,0.238 0.653,0.238Z" style="fill-rule:nonzero;"/><path d="M101.491,183.477l-0.194,-0.85l-0.07,0c-0.192,0.301 -0.464,0.537 -0.818,0.709c-0.353,0.172 -0.756,0.258 -1.209,0.258c-0.786,0 -1.372,-0.195 -1.758,-0.586c-0.387,-0.391 -0.58,-0.982 -0.58,-1.775l0,-4.237l1.388,0l0,3.996c0,0.496 0.102,0.869 0.305,1.117c0.203,0.248 0.521,0.372 0.955,0.372c0.578,0 1.003,-0.173 1.274,-0.519c0.272,-0.346 0.408,-0.925 0.408,-1.737l0,-3.229l1.383,0l0,6.481l-1.084,0Z" style="fill-rule:nonzero;"/><path d="M106.723,183.594c-0.809,0 -1.44,-0.293 -1.893,-0.879c-0.453,-0.586 -0.679,-1.408 -0.679,-2.467c0,-1.062 0.229,-1.889 0.688,-2.481c0.459,-0.592 1.095,-0.888 1.907,-0.888c0.852,0 1.5,0.315 1.946,0.943l0.07,0c-0.066,-0.464 -0.1,-0.832 -0.1,-1.101l0,-2.361l1.383,0l0,9.117l-1.078,0l-0.24,-0.85l-0.065,0c-0.441,0.645 -1.087,0.967 -1.939,0.967Zm0.369,-1.113c0.566,0 0.979,-0.159 1.236,-0.478c0.258,-0.318 0.391,-0.835 0.399,-1.55l0,-0.193c0,-0.816 -0.133,-1.397 -0.399,-1.74c-0.265,-0.344 -0.681,-0.516 -1.248,-0.516c-0.484,0 -0.857,0.196 -1.119,0.589c-0.261,0.393 -0.392,0.952 -0.392,1.679c0,0.718 0.127,1.266 0.381,1.643c0.253,0.377 0.634,0.566 1.142,0.566Z" style="fill-rule:nonzero;"/><path d="M114.844,183.594c-1.008,0 -1.796,-0.294 -2.364,-0.882c-0.569,-0.588 -0.853,-1.397 -0.853,-2.429c0,-1.058 0.264,-1.89 0.791,-2.496c0.528,-0.605 1.252,-0.908 2.174,-0.908c0.856,0 1.531,0.26 2.027,0.779c0.497,0.52 0.745,1.235 0.745,2.145l0,0.744l-4.319,0c0.02,0.629 0.19,1.112 0.51,1.45c0.32,0.338 0.771,0.507 1.353,0.507c0.383,0 0.74,-0.036 1.07,-0.108c0.33,-0.073 0.684,-0.193 1.063,-0.361l0,1.12c-0.336,0.16 -0.675,0.273 -1.019,0.339c-0.344,0.067 -0.737,0.1 -1.178,0.1Zm-0.252,-5.672c-0.437,0 -0.788,0.139 -1.052,0.416c-0.263,0.277 -0.421,0.682 -0.471,1.213l2.941,0c-0.008,-0.535 -0.137,-0.94 -0.387,-1.216c-0.25,-0.275 -0.593,-0.413 -1.031,-0.413Z" style="fill-rule:nonzero;"/><path d="M124.629,183.477l-1.383,0l0,-3.985c0,-0.5 -0.1,-0.873 -0.301,-1.119c-0.202,-0.246 -0.521,-0.369 -0.958,-0.369c-0.582,0 -1.008,0.172 -1.278,0.516c-0.269,0.343 -0.404,0.92 -0.404,1.728l0,3.229l-1.377,0l0,-6.481l1.078,0l0.194,0.85l0.07,0c0.195,-0.309 0.472,-0.547 0.832,-0.715c0.359,-0.168 0.758,-0.252 1.195,-0.252c1.555,0 2.332,0.791 2.332,2.373l0,4.225Z" style="fill-rule:nonzero;"/><path d="M128.959,182.481c0.336,0 0.672,-0.053 1.008,-0.159l0,1.038c-0.152,0.066 -0.349,0.122 -0.589,0.167c-0.24,0.045 -0.489,0.067 -0.747,0.067c-1.305,0 -1.957,-0.688 -1.957,-2.063l0,-3.492l-0.885,0l0,-0.609l0.95,-0.504l0.468,-1.371l0.85,0l0,1.441l1.846,0l0,1.043l-1.846,0l0,3.469c0,0.332 0.083,0.577 0.249,0.735c0.166,0.159 0.384,0.238 0.653,0.238Z" style="fill-rule:nonzero;"/><path d="M64.84,140.455l-1.4,0l0,-7.365l-2.52,0l0,-1.202l6.44,0l0,1.202l-2.52,0l0,7.365Z" style="fill-rule:nonzero;"/><path d="M73.096,140.455l-0.193,-0.85l-0.071,0c-0.191,0.301 -0.463,0.537 -0.817,0.709c-0.353,0.172 -0.757,0.258 -1.21,0.258c-0.785,0 -1.371,-0.195 -1.758,-0.586c-0.386,-0.391 -0.58,-0.982 -0.58,-1.775l0,-4.237l1.389,0l0,3.996c0,0.496 0.101,0.869 0.305,1.117c0.203,0.248 0.521,0.372 0.955,0.372c0.578,0 1.003,-0.173 1.274,-0.519c0.272,-0.346 0.407,-0.925 0.407,-1.737l0,-3.229l1.383,0l0,6.481l-1.084,0Z" style="fill-rule:nonzero;"/><path d="M78.557,139.459c0.336,0 0.672,-0.053 1.008,-0.159l0,1.038c-0.153,0.066 -0.349,0.122 -0.589,0.167c-0.24,0.045 -0.489,0.067 -0.747,0.067c-1.305,0 -1.957,-0.688 -1.957,-2.063l0,-3.492l-0.885,0l0,-0.609l0.949,-0.504l0.469,-1.371l0.85,0l0,1.441l1.845,0l0,1.043l-1.845,0l0,3.469c0,0.332 0.083,0.577 0.249,0.735c0.166,0.159 0.383,0.238 0.653,0.238Z" style="fill-rule:nonzero;"/><path d="M86.608,137.203c0,1.058 -0.272,1.885 -0.815,2.478c-0.543,0.594 -1.298,0.891 -2.267,0.891c-0.606,0 -1.141,-0.137 -1.606,-0.41c-0.465,-0.274 -0.822,-0.666 -1.072,-1.178c-0.25,-0.512 -0.375,-1.105 -0.375,-1.781c0,-1.051 0.27,-1.871 0.809,-2.461c0.539,-0.59 1.298,-0.885 2.279,-0.885c0.937,0 1.68,0.302 2.226,0.905c0.547,0.604 0.821,1.417 0.821,2.441Zm-4.717,0c0,1.496 0.553,2.244 1.658,2.244c1.094,0 1.641,-0.748 1.641,-2.244c0,-1.481 -0.551,-2.221 -1.653,-2.221c-0.578,0 -0.997,0.192 -1.256,0.574c-0.26,0.383 -0.39,0.932 -0.39,1.647Z" style="fill-rule:nonzero;"/><path d="M91.477,133.857c0.277,0 0.506,0.02 0.685,0.059l-0.134,1.283c-0.196,-0.047 -0.399,-0.07 -0.61,-0.07c-0.55,0 -0.997,0.179 -1.339,0.539c-0.341,0.359 -0.512,0.826 -0.512,1.4l0,3.387l-1.377,0l0,-6.481l1.078,0l0.182,1.143l0.07,0c0.215,-0.387 0.495,-0.693 0.841,-0.92c0.345,-0.227 0.718,-0.34 1.116,-0.34Z" style="fill-rule:nonzero;"/></svg>