<?xml version="1.0" encoding="UTF-8" standalone="no"?><!DOCTYPE svg PUBLIC "-//W3C//DTD SVG 1.1//EN" "http://www.w3.org/Graphics/SVG/1.1/DTD/svg11.dtd"><svg width="100%" height="100%" viewBox="0 0 512 512" version="1.1" xmlns="http://www.w3.org/2000/svg" xmlns:xlink="http://www.w3.org/1999/xlink" xml:space="preserve" xmlns:serif="http://www.serif.com/" style="fill-rule:evenodd;clip-rule:evenodd;stroke-linejoin:round;stroke-miterlimit:1.41421;"><path d="M468,480l-20,0l0,-456c0,-13.255 -10.745,-24 -24,-24l-336,0c-13.255,0 -24,10.745 -24,24l0,456l-20,0c-6.627,0 -12,5.373 -12,12l0,20l448,0l0,-20c0,-6.627 -5.373,-12 -12,-12Zm-308,-404c0,-6.627 5.373,-12 12,-12l40,0c6.627,0 12,5.373 12,12l0,40c0,6.627 -5.373,12 -12,12l-40,0c-6.627,0 -12,-5.373 -12,-12l0,-40Zm0,96c0,-6.627 5.373,-12 12,-12l40,0c6.627,0 12,5.373 12,12l0,40c0,6.627 -5.373,12 -12,12l-40,0c-6.627,0 -12,-5.373 -12,-12l0,-40Zm52,148l-40,0c-6.627,0 -12,-5.373 -12,-12l0,-40c0,-6.627 5.373,-12 12,-12l40,0c6.627,0 12,5.373 12,12l0,40c0,6.627 -5.373,12 -12,12Zm76,160l-64,0l0,-84c0,-6.627 5.373,-12 12,-12l40,0c6.627,0 12,5.373 12,12l0,84Zm64,-172c0,6.627 -5.373,12 -12,12l-40,0c-6.627,0 -12,-5.373 -12,-12l0,-40c0,-6.627 5.373,-12 12,-12l40,0c6.627,0 12,5.373 12,12l0,40Zm0,-96c0,6.627 -5.373,12 -12,12l-40,0c-6.627,0 -12,-5.373 -12,-12l0,-40c0,-6.627 5.373,-12 12,-12l40,0c6.627,0 12,5.373 12,12l0,40Zm0,-96c0,6.627 -5.373,12 -12,12l-40,0c-6.627,0 -12,-5.373 -12,-12l0,-40c0,-6.627 5.373,-12 12,-12l40,0c6.627,0 12,5.373 12,12l0,40Z" style="fill-rule:nonzero;"/></svg>