<?xml version="1.0" encoding="utf-8"?>
<!-- Generator: Adobe Illustrator 19.2.0, SVG Export Plug-In . SVG Version: 6.00 Build 0)  -->
<svg version="1.0" id="Layer_1" xmlns="http://www.w3.org/2000/svg" xmlns:xlink="http://www.w3.org/1999/xlink" x="0px" y="0px"
	 viewBox="0 0 1441.5 1792" enable-background="new 0 0 1441.5 1792" xml:space="preserve">
<path d="M385.8,219.1c-70,0-153.3-30.7-188.3-65.7c-43.8-43.8-8.8-65.7,56.9-65.7h933.5c70,0,83.4-17.7,83.4-43.8S1258.1,0,1192.4,0
	H122.6C56.9,0,0,56.9,0,122.6v1283.9c0,70,35,166.4,78.8,219.1l61.5,70c43.8,52.6,135.7,96.5,201.4,96.5h977.3
	c70,0,122.6-56.9,122.6-122.6V341.7c0-70-56.9-122.6-122.6-122.6C1318.9,219.1,385.8,219.1,385.8,219.1z M1292.8,1196.3
	c0,70-48.1,153.3-105.3,188.3c0,0-35,21.9-96.5,39.6c-56.9,17.7-127.2,26.1-206,26.1c-96.5,0-179.5-17.7-241-52.6
	c-61.5-35-109.5-83.4-144.5-149.1s-52.6-144.5-52.6-232.1c0-91.9,17.7-171,56.9-236.7C543.4,714,595.7,661.4,666,626.4
	c56.9-26.1,131.4-39.6,227.9-39.6c91.9,0,162.2,8.8,206,26.1c43.8,17.3,83.4,43.8,113.8,78.8c30.7,35,30.7,35,30.7,35
	c35,48.1-17.7,109.5-83.4,118.4h-4.2c-65.7,13.1-109.5,0-149.1-35c0,0,0,0-26.1-17.7c-26.1-17.7-56.9-26.1-91.9-26.1
	c-56.9,0-100.7,17.7-135.7,56.9c-35,39.6-48.1,100.7-48.1,188.3c0,91.9,17.7,153.3,52.6,192.9c35,39.6,78.8,56.9,140.3,56.9
	c30.7,0,56.9-4.2,83.4-13.1c26.5-8.8,26.1-8.8,26.1-8.8c35-17.7,61.5-52.6,61.5-74.5c0-39.6,4.2-39.6-87.6-39.6
	c-48.1,0-87.6-39.6-87.6-87.6s56.9-87.6,122.6-87.6h171c74.5,0,100.7,21.9,100.7,91.9v153.3h3.9V1196.3z"/>
</svg>
