<?xml version="1.0" encoding="UTF-8" standalone="no"?><!DOCTYPE svg PUBLIC "-//W3C//DTD SVG 1.1//EN" "http://www.w3.org/Graphics/SVG/1.1/DTD/svg11.dtd"><svg width="100%" height="100%" viewBox="0 0 640 512" version="1.1" xmlns="http://www.w3.org/2000/svg" xmlns:xlink="http://www.w3.org/1999/xlink" xml:space="preserve" xmlns:serif="http://www.serif.com/" style="fill-rule:evenodd;clip-rule:evenodd;stroke-linejoin:round;stroke-miterlimit:1.41421;"><path d="M556,304c6.627,0 12,5.373 12,12l0,60l60,0c6.627,0 12,5.373 12,12l0,40c0,6.627 -5.373,12 -12,12l-60,0l0,60c0,6.627 -5.373,12 -12,12l-40,0c-6.627,0 -12,-5.373 -12,-12l0,-60l-60,0c-6.627,0 -12,-5.373 -12,-12l0,-40c0,-6.627 5.373,-12 12,-12l60,0l0,-60c0,-6.627 5.373,-12 12,-12l40,0Zm-150.928,144l-221.072,0c-13.255,0 -24,-10.745 -24,-24l0,-70c0,-38.66 31.34,-70 70,-70l17.848,0c44.364,26.687 99.93,26.693 144.305,0l17.847,0c26.918,0 50.288,15.194 62,37.474l0,22.526l-28.101,0c-0.526,0.003 -1.052,0.011 -1.579,0.031c-23.197,0.882 -42.179,21.511 -42.32,43.868l0,40.202c0.003,0.526 0.011,1.052 0.031,1.579c0.248,6.503 2.059,12.734 5.041,18.32Zm-277.072,-32l-104,0c-13.255,0 -24,-10.745 -24,-24l0,-32c0,-30.928 25.071,-55.999 56,-56l14.278,0c19.49,11.723 41.681,16.996 63.611,15.844c-3.808,10.684 -5.889,22.181 -5.889,34.156l0,62Zm470.792,-110.025c19.028,5.197 34.017,20.179 39.225,39.202c-1.464,-0.358 -2.949,-0.634 -4.451,-0.825c-2.534,-0.323 -5.439,-0.352 -5.465,-0.352l-28.101,0l0,-28.101c-0.003,-0.526 -0.011,-1.052 -0.031,-1.579c-0.109,-2.859 -0.512,-5.649 -1.177,-8.345Zm-550.792,-97.975c0,-44.183 35.817,-80 80,-80c44.183,0 80,35.817 80,80c0,44.183 -35.817,80 -80,80c-44.157,0 -79.957,-35.774 -80,-80Zm438.479,75.843c-31.669,-10.652 -54.479,-40.584 -54.479,-75.843c0,-44.183 35.817,-80 80,-80c44.183,0 80,35.817 80,80c0,26.283 -12.674,49.606 -32.245,64.189c-1.059,-0.103 -2.125,-0.166 -3.195,-0.186c-14.074,-0.089 -28.015,-0.513 -42.24,0.028c-10.486,0.399 -20.273,4.872 -27.841,11.812Zm-266.479,-119.843c0,-55.229 44.772,-100 100,-100c55.228,0 100,44.771 100,100c0,55.229 -44.772,100 -100,100c-55.228,0 -100,-44.771 -100,-100Z"/></svg>