<?xml version="1.0" encoding="UTF-8" standalone="no"?><!DOCTYPE svg PUBLIC "-//W3C//DTD SVG 1.1//EN" "http://www.w3.org/Graphics/SVG/1.1/DTD/svg11.dtd"><svg width="100%" height="100%" viewBox="0 0 36 36" version="1.1" xmlns="http://www.w3.org/2000/svg" xmlns:xlink="http://www.w3.org/1999/xlink" xml:space="preserve" xmlns:serif="http://www.serif.com/" style="fill-rule:evenodd;clip-rule:evenodd;stroke-linejoin:round;stroke-miterlimit:1.41421;"><g id="final"><path d="M20.046,1.63l1.464,-0.125c1.091,-0.093 2.136,0.457 2.677,1.409c2.326,4.094 8.612,15.162 11.429,20.123c0.309,0.544 0.323,1.207 0.038,1.764c-0.286,0.557 -0.833,0.933 -1.455,0.999l-10.871,1.16c-0.006,1.39 -0.016,2.78 -0.028,4.17c-0.022,1.454 -1.193,2.797 -2.708,2.95c-4.981,0.471 -9.969,0.869 -14.956,1.279c-1.626,0.123 -3.219,-1.238 -3.236,-2.971c-0.029,-8.844 -0.079,-17.687 0,-26.531c0.022,-1.453 1.193,-2.796 2.708,-2.949c4.975,-0.47 9.957,-0.868 14.938,-1.278Zm-15.399,5.437c-0.021,8.433 0.003,16.865 0.003,25.297c0,0.418 0.388,0.784 0.809,0.752c4.976,-0.409 9.959,-0.748 14.924,-1.277c0.363,-0.041 0.664,-0.373 0.667,-0.74c0.004,-1.299 0.007,-2.598 0.008,-3.897l-2.527,0.269c-1.266,0.135 -2.492,-0.491 -3.125,-1.596l-10.759,-18.808Z"/></g></svg>