<?xml version="1.0" encoding="utf-8"?>
<!-- Generator: Adobe Illustrator 18.0.0, SVG Export Plug-In . SVG Version: 6.00 Build 0)  -->
<svg version="1.2" baseProfile="tiny" id="Rectangle_1_1_"
	 xmlns="http://www.w3.org/2000/svg" xmlns:xlink="http://www.w3.org/1999/xlink" x="0px" y="0px" viewBox="0 0 23.3 40"
	 xml:space="preserve">
<path fill="#FFFFFF" d="M18.3,0H5C2.2,0,0,2.2,0,5v30c0,2.8,2.2,5,5,5h13.3c2.8,0,5-2.2,5-5V5C23.3,2.2,21.1,0,18.3,0z M8.8,3.2h5.7
	c0.3,0,0.5,0.2,0.5,0.5c0,0.3-0.2,0.5-0.5,0.5H8.8C8.6,4.2,8.3,4,8.3,3.7C8.3,3.4,8.6,3.2,8.8,3.2z M11.7,38.3c-1,0-1.9-0.8-1.9-1.9
	c0-1,0.8-1.9,1.9-1.9s1.9,0.8,1.9,1.9C13.6,37.5,12.7,38.3,11.7,38.3z M20.3,32.5H3c-0.3,0-0.5-0.2-0.5-0.5V8c0-0.3,0.2-0.5,0.5-0.5
	h17.3c0.3,0,0.5,0.2,0.5,0.5v24C20.8,32.3,20.6,32.5,20.3,32.5z"/>
</svg>
