<?xml version="1.0" encoding="utf-8"?>
<!-- Generator: Adobe Illustrator 18.1.1, SVG Export Plug-In . SVG Version: 6.00 Build 0)  -->
<!DOCTYPE svg PUBLIC "-//W3C//DTD SVG 1.1//EN" "http://www.w3.org/Graphics/SVG/1.1/DTD/svg11.dtd">
<svg version="1.1" id="Layer_1" xmlns="http://www.w3.org/2000/svg" xmlns:xlink="http://www.w3.org/1999/xlink" x="0px" y="0px"
	 width="841.9px" height="595.3px" viewBox="0 0 841.9 595.3" enable-background="new 0 0 841.9 595.3" xml:space="preserve">
<g id="Rounded_Rectangle_1_1_">
</g>
<g id="Layer_3">
	<g>
		<g id="Rounded_Rectangle_1">
			<path fill="#FFFFFF" d="M420.9,23.2c-54.6,0-99.2,44.6-99.2,99.2v186c0,54.6,44.6,99.2,99.2,99.2s99.2-44.6,99.2-99.2v-186
				C520.2,67.9,475.5,23.2,420.9,23.2z"/>
		</g>
		<path fill="#FFFFFF" d="M569.8,196.8c-13.6,0-24.8,11.2-24.8,24.8v99.2c0,0,11.2,111.6-124,111.6S297,320.8,297,320.8v-99.2
			c0-13.6-11.2-24.8-24.8-24.8s-24.8,11.2-24.8,24.8v99.2c0,0,0,137.7,136.4,158.7V544c0,21.1,16.1,37.2,37.2,37.2
			s37.2-16.1,37.2-37.2v-64.5c136.4-21.1,136.4-158.7,136.4-158.7v-99.2C594.6,208,583.4,196.8,569.8,196.8z"/>
	</g>
</g>
</svg>
