<?xml version="1.0" encoding="UTF-8" standalone="no"?><!DOCTYPE svg PUBLIC "-//W3C//DTD SVG 1.1//EN" "http://www.w3.org/Graphics/SVG/1.1/DTD/svg11.dtd"><svg width="100%" height="100%" viewBox="0 0 640 512" version="1.1" xmlns="http://www.w3.org/2000/svg" xmlns:xlink="http://www.w3.org/1999/xlink" xml:space="preserve" xmlns:serif="http://www.serif.com/" style="fill-rule:evenodd;clip-rule:evenodd;stroke-linejoin:round;stroke-miterlimit:1.41421;"><path d="M111.854,512l-97.042,0c-8.181,0 -14.812,-6.631 -14.812,-14.812l0,-19.749c0,-19.088 15.473,-34.561 34.561,-34.561l8.812,0c10.962,6.594 23.31,9.881 35.658,9.873l-0.034,-0.095c0.605,0.032 1.211,0.056 1.817,0.071c0.606,-0.015 1.212,-0.039 1.817,-0.071l-0.033,0.095c12.348,0.008 24.695,-3.279 35.657,-9.873l2.64,0c-4.081,4.864 -7.317,10.417 -9.435,16.431c-4.326,12.282 -3.729,26.168 -3.045,39.654c0.235,4.645 1.459,9.049 3.439,13.037Zm163.333,0l-132.005,0c-8.18,0 -14.812,-6.631 -14.812,-14.812l0,-0.019c-0.04,-6.571 -0.021,-13.143 0,-19.714l0,-0.016c0,-19.088 15.473,-34.561 34.561,-34.561l8.812,0c10.962,6.594 23.31,9.881 35.658,9.873l-0.034,-0.095c0.606,0.032 1.211,0.056 1.817,0.071c0.606,-0.015 1.212,-0.039 1.818,-0.071l-0.034,0.095c12.348,0.008 24.695,-3.279 35.657,-9.873l8.812,0c19.088,0 34.562,15.473 34.562,34.561l0,19.749c0,8.18 -6.631,14.811 -14.812,14.812Zm-245.563,-128.37c0,-27.268 22.105,-49.373 49.373,-49.373c27.268,0 49.373,22.105 49.373,49.373c0,27.268 -22.105,49.373 -49.373,49.373c-27.268,0 -49.373,-22.105 -49.373,-49.373Zm128.37,0c0,-27.268 22.105,-49.373 49.373,-49.373c27.268,0 49.373,22.105 49.373,49.373c0,27.268 -22.105,49.373 -49.373,49.373c-27.268,0 -49.373,-22.105 -49.373,-49.373Z"/><path d="M161.879,287c0,0 0,20.465 0,33.871c0,6.288 -5.097,11.386 -11.385,11.386c-2.998,0 -6.232,0 -9.23,0c-6.288,0 -11.385,-5.098 -11.385,-11.386c0,-14.624 0,-39.861 0,-54.486c0,-3.019 1.2,-5.915 3.335,-8.05c2.135,-2.135 5.031,-3.335 8.05,-3.335c38.693,0 162.736,0 162.736,0c0,0 0,-16.968 0,-28.871c0,-6.288 5.097,-11.386 11.385,-11.386c2.998,0 6.232,0 9.23,0c6.288,0 11.385,5.098 11.385,11.386c0,11.903 0,28.871 0,28.871c0,0 97.169,0.684 130.816,0.92c6.256,0.044 11.305,5.129 11.305,11.386c0,2.702 0,5.588 0,8.294c0,6.296 -5.104,11.4 -11.4,11.4c-56.615,0 -304.842,0 -304.842,0Z"/><path d="M516,304c-6.293,0.04 -11.958,5.419 -12,12l0,60c-20.052,0 -40.104,-0.126 -60.155,0.001c-0.863,0.016 -1.032,0.047 -1.523,0.115c-5.582,0.782 -10.209,5.839 -10.321,11.729c-0.085,13.436 -0.085,26.874 0,40.31c0.118,6.221 5.511,11.804 11.999,11.845l60,0c0,20.052 -0.126,40.104 0.001,60.155c0.016,0.863 0.047,1.032 0.115,1.523c0.782,5.582 5.839,10.209 11.729,10.321c13.436,0.085 26.874,0.085 40.31,0c6.221,-0.118 11.804,-5.511 11.845,-11.999l0,-60c20.052,0 40.104,0.126 60.155,-0.001c0.863,-0.016 1.032,-0.047 1.523,-0.115c5.582,-0.782 10.209,-5.839 10.321,-11.729c0.085,-13.436 0.085,-26.874 0,-40.31c-0.118,-6.221 -5.511,-11.804 -11.999,-11.845l-60,0c0,-20.052 0.126,-40.104 -0.001,-60.155c-0.016,-0.863 -0.047,-1.032 -0.115,-1.523c-0.782,-5.582 -5.839,-10.209 -11.729,-10.321c-13.385,-0.085 -26.77,-0.001 -40.155,-0.001Z"/><path d="M304,236.991l0,-10.862c0.04,-6.244 5.414,-11.348 11.385,-11.386c3.126,0 6.251,-0.019 9.377,0.001c6.054,0.115 11.125,5.329 11.237,11.237c0.023,3.67 0.029,7.34 0.027,11.01l-32.026,0Zm-75.356,-1.991c-4.419,-2.563 -7.39,-7.345 -7.39,-12.821l0,-43.201c0,-23.86 19.342,-43.202 43.201,-43.202l11.015,0c27.38,16.47 61.674,16.474 89.06,0l11.015,0c23.859,0 43.201,19.342 43.201,43.202l0,43.201c0,5.476 -2.971,10.258 -7.39,12.821l-55.356,0l0,-8.936c-0.002,-0.379 -0.008,-0.757 -0.022,-1.136c-0.63,-16.553 -15.175,-29.882 -30.963,-30.183c-3.343,-0.021 -6.687,-0.021 -10.03,0c-12.89,0.246 -24.985,8.972 -29.206,20.955c-1.579,4.484 -1.779,10.366 -1.779,10.366l0,8.934l-55.356,0Zm-62.763,-86.881c12.028,7.235 25.724,10.49 39.258,9.779c-2.35,6.593 -3.634,13.689 -3.634,21.08l0,38.264l-64.186,0c-8.18,0 -14.811,-6.632 -14.811,-14.812l0,-19.749c0,-19.088 15.473,-34.561 34.561,-34.562l8.812,0Zm317.05,0c19.088,0.001 34.561,15.474 34.561,34.562l0,19.749c0,8.18 -6.631,14.812 -14.811,14.812l-64.186,0l0,-38.264c0.006,-7.183 -1.223,-14.314 -3.634,-21.08c13.531,0.711 27.226,-2.541 39.258,-9.779l8.812,0Zm-330.8,-59.247c0,-27.269 22.105,-49.374 49.374,-49.374c27.268,0 49.373,22.105 49.373,49.374c0,27.268 -22.105,49.373 -49.373,49.373c-27.269,0 -49.374,-22.105 -49.374,-49.373Zm236.991,0c0,-27.269 22.105,-49.374 49.373,-49.374c27.269,0 49.374,22.105 49.374,49.374c0,27.268 -22.105,49.373 -49.374,49.373c-27.268,0 -49.373,-22.105 -49.373,-49.373Zm-130.838,-27.156c0,-34.085 27.631,-61.716 61.716,-61.716c34.085,0 61.716,27.631 61.716,61.716c0,34.086 -27.631,61.717 -61.716,61.717c-34.085,0 -61.716,-27.631 -61.716,-61.717Z"/></svg>