<?xml version="1.0" encoding="UTF-8" standalone="no"?><!DOCTYPE svg PUBLIC "-//W3C//DTD SVG 1.1//EN" "http://www.w3.org/Graphics/SVG/1.1/DTD/svg11.dtd"><svg width="100%" height="100%" viewBox="0 0 640 512" version="1.1" xmlns="http://www.w3.org/2000/svg" xmlns:xlink="http://www.w3.org/1999/xlink" xml:space="preserve" xmlns:serif="http://www.serif.com/" style="fill-rule:evenodd;clip-rule:evenodd;stroke-linejoin:round;stroke-miterlimit:1.41421;"><path d="M258.484,327.746c-4.609,-8.706 -16.9,-8.706 -21.509,0l-24.068,49.673l-54.795,7.682c-9.73,1.536 -13.315,13.315 -6.658,20.484l39.432,38.408l-9.218,54.283c-1.536,9.73 8.706,16.899 17.412,12.29l48.65,-25.605l48.649,25.605c8.706,4.609 18.948,-2.56 17.412,-12.29l-9.218,-54.283l39.432,-38.408c6.657,-7.169 3.072,-18.948 -6.658,-20.484l-54.794,-7.682l-24.069,-49.673Zm66.573,124.953l151.582,0c8.194,0 15.363,-6.658 15.363,-15.364l0,-44.552c0,-24.581 -19.972,-44.553 -44.553,-44.553l-11.778,0c-28.165,16.899 -63.501,16.899 -91.666,0l-11.266,0c-11.779,0 -23.045,4.609 -30.727,12.29l37.896,5.633c7.169,1.024 13.827,4.609 18.436,9.73c10.242,10.754 10.754,28.678 2.048,39.944c-1.536,1.536 -3.073,3.073 -3.073,3.073l-32.262,31.75l0,2.049Zm128.538,-180.773c0,-35.335 -28.678,-63.5 -63.501,-63.5c-35.335,0 -63.501,28.165 -63.501,63.5c0,35.335 28.166,63.501 63.501,63.501c34.823,0 63.501,-28.166 63.501,-63.501Zm-244.273,30.727l18.436,0c1.536,0 3.072,-1.537 3.072,-3.585l-6.145,-46.602c3.585,-2.048 6.145,-6.145 6.145,-10.754c0,-4.096 -2.56,-8.193 -6.145,-10.242c-0.512,-7.169 -1.536,-12.802 -4.609,-18.435l16.387,-5.121c8.706,-2.561 8.706,-14.851 0,-17.412l-104.981,-32.262c-6.657,-2.049 -13.826,-2.049 -20.484,0l-104.469,32.262c-8.705,2.561 -8.705,14.851 0,17.412l104.469,32.774c6.658,1.536 13.827,1.536 20.484,0l76.304,-23.557c3.072,4.097 4.096,8.706 4.608,14.339c-3.584,2.049 -6.145,6.146 -6.145,10.242c0,4.609 2.561,8.706 6.145,10.754l-6.145,46.602c0,2.048 1.537,3.585 3.073,3.585Zm-101.909,-50.699c9.218,2.561 18.948,2.561 27.654,0l57.355,-17.411l5.122,31.75c0,13.315 -34.311,24.069 -76.304,24.069c-41.992,0 -75.791,-10.754 -75.791,-24.069l4.609,-31.75l57.355,17.411Zm362.057,-5.633l155.167,0c8.706,0 15.363,-7.169 15.363,-15.363l0,-45.065c0,-24.581 -19.972,-45.065 -45.065,-45.065l-11.266,0c-28.678,17.412 -64.013,17.412 -92.691,0l-11.266,0c-24.581,0 -45.065,20.484 -45.065,45.065l0,15.875c16.387,10.242 29.19,26.118 34.823,44.553Zm-124.953,-44.553l0,-17.411c0,-24.581 -19.972,-44.553 -44.553,-44.553l-11.266,0c-28.166,17.411 -63.501,17.411 -91.667,0l-11.266,0c-9.218,0 -17.923,3.073 -24.581,7.681l80.912,25.094c12.291,3.584 20.485,15.875 19.972,28.677c-0.512,8.706 -5.633,17.412 -13.314,22.021c-1.537,1.024 -3.585,2.048 -3.585,2.048c3.585,5.633 5.121,12.291 4.609,18.948l61.452,0c2.049,-6.657 5.633,-13.315 9.73,-19.46c6.145,-9.218 14.339,-16.899 23.557,-23.045Zm257.075,-137.755c0,-35.335 -28.677,-64.013 -64.012,-64.013c-35.336,0 -64.525,28.678 -64.525,64.013c0,35.335 29.189,64.013 64.525,64.013c35.335,0 64.012,-28.678 64.012,-64.013Zm-294.971,-0.512c0,-34.823 -28.677,-63.501 -63.5,-63.501c-35.335,0 -64.013,28.678 -64.013,63.501c0,35.335 28.678,63.5 64.013,63.5c34.823,0 63.5,-28.165 63.5,-63.5Z" style="fill-rule:nonzero;"/></svg>