<?xml version="1.0" encoding="UTF-8" standalone="no"?><!DOCTYPE svg PUBLIC "-//W3C//DTD SVG 1.1//EN" "http://www.w3.org/Graphics/SVG/1.1/DTD/svg11.dtd"><svg width="100%" height="100%" viewBox="0 0 576 512" version="1.1" xmlns="http://www.w3.org/2000/svg" xmlns:xlink="http://www.w3.org/1999/xlink" xml:space="preserve" xmlns:serif="http://www.serif.com/" style="fill-rule:evenodd;clip-rule:evenodd;stroke-linejoin:round;stroke-miterlimit:1.41421;"><path d="M172.913,178.398c-18.948,0.06 -36.58,16.264 -36.644,36.644l0,73.289c15.753,0.05 30.905,11.299 35.254,26.612c3.471,12.223 0.03,26.128 -8.729,35.314c-6.824,7.158 -16.542,11.331 -26.525,11.362c0,24.509 -0.077,49.017 0,73.526c0.179,18.795 16.345,36.216 36.407,36.406c122.305,0.387 244.612,0.387 366.917,0c18.884,-0.179 36.343,-16.554 36.407,-36.643l0,-73.289c-15.754,-0.05 -30.905,-11.299 -35.254,-26.612c-3.472,-12.223 -0.03,-26.128 8.728,-35.315c6.825,-7.157 16.542,-11.33 26.526,-11.361c0,-24.509 0.077,-49.018 -0.001,-73.526c-0.178,-18.795 -16.344,-36.216 -36.406,-36.406c-122.226,-0.387 -244.454,-0.001 -366.68,-0.001Zm311.595,48.859c9.47,0.09 18.109,8.3 18.203,18.203c0.168,53.01 0.168,106.02 0,159.029c-0.09,9.471 -8.299,18.11 -18.203,18.204c-85.582,0.271 -171.165,0.271 -256.747,0c-9.47,-0.09 -18.109,-8.3 -18.203,-18.204c-0.168,-53.009 -0.168,-106.019 0,-159.029c0.089,-9.47 8.299,-18.109 18.203,-18.203c85.582,-0.271 171.165,-0.271 256.747,0Zm-368.239,176.161l-11.49,0c-20.239,0 -36.645,-16.406 -36.645,-36.645l0,-73.288c20.239,0 36.645,-16.406 36.645,-36.644c0,-20.239 -16.406,-36.645 -36.645,-36.645l0,-73.288c0,-20.239 16.406,-36.645 36.645,-36.645l366.442,0c20.239,0 36.645,16.406 36.645,36.645l0,11.397c-111.772,-0.297 -223.545,-0.266 -335.317,0.094c-0.725,0.007 -1.449,0.023 -2.173,0.055c-29.937,1.327 -53.836,27.928 -54.106,56.224c-0.078,24.551 -0.001,49.102 -0.001,73.653c0.127,1.298 0.128,2.614 0.382,3.894c1.021,5.141 4.12,9.792 8.473,12.713c2.911,1.953 3.884,1.986 7.188,2.997l4.177,0.397c9.914,0.156 17.406,9.539 16.302,18.684c-0.95,7.87 -8.114,14.321 -15.974,14.594c-3.991,0.114 -4.835,0.128 -8.245,1.549c-4.839,2.018 -8.784,5.976 -10.787,10.821c-1.339,3.24 -1.178,4.2 -1.516,7.639l0,41.799Zm362.013,-5.155l-244.295,0l0,-146.577l244.295,0l0,146.577Zm-430.148,-62.98l-11.49,0c-20.238,0 -36.644,-16.405 -36.644,-36.644l0,-73.288c20.238,0 36.644,-16.406 36.644,-36.645c0,-20.238 -16.406,-36.644 -36.644,-36.644l0,-73.289c0,-20.238 16.406,-36.644 36.644,-36.644l366.443,0c20.238,0 36.644,16.406 36.644,36.644l0,11.4c-111.771,-0.292 -223.545,-0.261 -335.316,0.092c-6.304,0.059 -12.545,1.123 -18.458,3.206c-22.247,7.836 -37.604,30.13 -37.822,53.073c-0.078,24.551 -0.001,49.102 -0.001,73.652c0.128,1.298 0.129,2.615 0.383,3.894c1.021,5.142 4.12,9.793 8.473,12.714c2.912,1.953 3.884,1.986 7.188,2.997l4.177,0.397c6.715,0.106 12.875,4.453 15.276,10.543c3.809,9.66 -3.353,21.211 -13.145,22.581c-5.391,0.755 -6.214,0.104 -10.05,1.704c-4.838,2.018 -8.783,5.976 -10.785,10.82c-1.34,3.24 -1.179,4.2 -1.517,7.639l0,41.798Z"/></svg>