<?xml version="1.0" encoding="UTF-8" standalone="no"?><!DOCTYPE svg PUBLIC "-//W3C//DTD SVG 1.1//EN" "http://www.w3.org/Graphics/SVG/1.1/DTD/svg11.dtd"><svg width="100%" height="100%" viewBox="0 0 75 100" version="1.1" xmlns="http://www.w3.org/2000/svg" xmlns:xlink="http://www.w3.org/1999/xlink" xml:space="preserve" xmlns:serif="http://www.serif.com/" style="fill-rule:evenodd;clip-rule:evenodd;stroke-linejoin:round;stroke-miterlimit:1.41421;"><path d="M70.313,0l-65.626,0c-2.588,0 -4.687,2.099 -4.687,4.688l0,3.125c0,2.588 2.099,4.687 4.688,4.687c0,17.767 9.964,32.761 23.601,37.5c-13.637,4.739 -23.601,19.733 -23.601,37.5c-2.589,0 -4.688,2.099 -4.688,4.688l0,3.124c0,2.589 2.099,4.688 4.688,4.688l65.625,0c2.588,0 4.687,-2.099 4.687,-4.688l0,-3.124c0,-2.589 -2.099,-4.688 -4.687,-4.688c0,-17.767 -9.965,-32.761 -23.602,-37.5c13.637,-4.739 23.602,-19.733 23.602,-37.5c2.588,0 4.687,-2.099 4.687,-4.688l0,-3.125c0,-2.588 -2.099,-4.687 -4.687,-4.687Zm-14.664,75l-36.297,0c3.331,-9.14 10.175,-15.625 18.148,-15.625c7.973,0 14.817,6.484 18.149,15.625Zm0.004,-50l-36.302,0c-1.385,-3.799 -2.163,-8.057 -2.163,-12.5l40.625,0c0,4.454 -0.779,8.708 -2.16,12.5Z" style="fill-opacity:0.329412;fill-rule:nonzero;"/></svg>