<?xml version="1.0" encoding="utf-8"?>
<!-- Generator: Adobe Illustrator 19.2.0, SVG Export Plug-In . SVG Version: 6.00 Build 0)  -->
<svg version="1.1" id="Layer_1" xmlns="http://www.w3.org/2000/svg" xmlns:xlink="http://www.w3.org/1999/xlink" x="0px" y="0px"
	 viewBox="0 0 283 124" style="enable-background:new 0 0 283 124;" xml:space="preserve">
<style type="text/css">
	.st0{fill:#2F4AD3;}
	.st1{fill:#FFFFFF;}
	.st2{fill:none;stroke:#647D88;stroke-width:2.4536;stroke-miterlimit:10;}
	.st3{fill:#F22C2C;}
</style>
<g>
	<g>
		<g>
			<path class="st0" d="M17.4,66.5c-2.1,0-4.5-0.5-4.5-0.5c-1.1-0.2-2-1.3-2-2.4V58c0-1.1,0.9-1.8,2-1.6c0,0,1.8,0.3,3.3,0.3
				c2.2,0,3.8-0.6,4.9-1.8c1.1-1.2,2-4,2-4c0.3-1.1,0.8-2.8,1-3.9L32,10.4c0.2-1.1,1.3-2,2.4-2h7.8c1.1,0,1.8,0.9,1.6,2l-8.2,38.2
				c-0.2,1.1-0.7,2.8-1,3.9c0,0-1.5,5.2-2.9,7.5c-1.4,2.3-3.2,3.9-5.5,5C24,66,21,66.5,17.4,66.5z"/>
		</g>
		<g>
			<path class="st0" d="M55.5,53.2c-4.2,0-7.5-1.1-9.7-3.4c-2.3-2.3-3.4-5.5-3.4-9.8s0.8-8,2.4-11.5c1.6-3.4,3.8-6.1,6.7-8
				s6.3-2.8,10.1-2.8c4.2,0,7.5,1.1,9.7,3.4c2.3,2.3,3.4,5.5,3.4,9.8c0,4.2-0.8,8-2.4,11.5c-1.6,3.4-3.8,6.1-6.7,8
				C62.8,52.3,59.4,53.2,55.5,53.2z M60.3,26.6c-1.7,0-3.1,1.4-4.2,4.2s-1.8,6-1.8,9.6c0,2.7,0.8,4,2.5,4c1.6,0,3-1.4,4.3-4.2
				c1.2-2.8,1.8-6,1.8-9.7c0-1.3-0.2-2.3-0.7-3C61.7,26.9,61.1,26.6,60.3,26.6z"/>
		</g>
		<g>
			<path class="st0" d="M88.3,41.3c0,0.9,0.2,1.5,0.7,2c0.5,0.4,1,0.6,1.6,0.6c1.2,0,2.3-0.8,3.2-2.4c1-1.6,1.8-4.5,1.8-4.5
				c0.3-1.1,0.7-2.8,1-3.9l2.7-12.7c0.2-1.1,1.3-2,2.4-2h7.7c1.1,0,1.8,0.9,1.6,2l-6.4,30.3c-0.2,1.1-1.3,2-2.4,2h-5.3
				c-1.1,0-1.9-0.9-1.8-2l0.1-0.8c0.1-1.1,0.1-2,0-2c-0.1,0-0.7,0.7-1.3,1.6c0,0-1.2,1.6-2.7,2.5c-1.5,0.9-3.3,1.3-5.5,1.3
				c-2.8,0-5.1-0.9-6.6-2.6c-1.6-1.7-2.4-4.1-2.4-7.1c0-2.1,0.4-4.9,0.4-4.9c0.2-1.1,0.5-2.9,0.7-4l3-14.3c0.2-1.1,1.3-2,2.4-2h7.7
				c1.1,0,1.8,0.9,1.6,2l-3.1,14.7c-0.2,1.1-0.6,2.9-0.8,3.9C88.5,39,88.3,40.1,88.3,41.3z"/>
		</g>
		<g>
			<path class="st0" d="M136,17.8c1.1,0,1.1,0,1.1,0c0.7,0.1,1.1,1.1,0.9,2.2l-1.7,7.6c-0.2,1.1-1.3,1.7-2.4,1.4
				c0,0-0.4-0.1-1.8-0.1c-2.1,0-3.7,0.7-5,2.1c-1.2,1.4-2.2,4.6-2.2,4.6c-0.3,1.1-0.8,2.8-1,3.9l-2.4,11.1c-0.2,1.1-1.3,2-2.4,2
				h-7.7c-1.1,0-1.8-0.9-1.6-2l6.4-30.3c0.2-1.1,1.3-2,2.4-2h5.3c1.1,0,1.9,0.9,1.8,2l-0.2,1.7c-0.1,1.1-0.1,2-0.1,2
				c0.1,0,0.6-0.7,1.3-1.6c0,0,1.6-2.2,3.1-3.2C131.5,18.3,133.5,17.8,136,17.8z"/>
		</g>
		<g>
			<path class="st0" d="M156.1,29.7c0-0.9-0.2-1.5-0.7-1.9c-0.4-0.4-1-0.6-1.6-0.6c-1.1,0-2.2,0.7-3.2,2.1c-1,1.4-1.9,4.8-1.9,4.8
				c-0.3,1.1-0.7,2.8-0.9,3.9l-2.7,12.8c-0.2,1.1-1.3,2-2.4,2h-7.7c-1.1,0-1.8-0.9-1.6-2l6.4-30.3c0.2-1.1,1.3-2,2.4-2h5.3
				c1.1,0,1.9,0.9,1.9,2l-0.1,0.8c-0.1,1.1-0.1,2,0,2s0.7-0.7,1.3-1.6c0,0,1.2-1.7,2.7-2.5c1.5-0.8,3.3-1.3,5.5-1.3
				c2.8,0,5.1,0.9,6.6,2.6c1.6,1.7,2.4,4.1,2.4,7.1c0,2.1-0.4,4.9-0.4,4.9c-0.2,1.1-0.5,2.9-0.7,4l-3,14.2c-0.2,1.1-1.3,2-2.4,2
				h-7.7c-1.1,0-1.8-0.9-1.6-2l3.1-14.7c0.2-1.1,0.6-2.9,0.8-3.9C155.9,32,156.1,31,156.1,29.7z"/>
		</g>
		<g>
			<path class="st0" d="M183.2,53.2c-4.3,0-7.6-1.2-10-3.6c-2.4-2.4-3.6-5.7-3.6-9.9c0-4.2,0.8-8.1,2.5-11.5c1.7-3.4,4-6,6.9-7.8
				c2.9-1.8,6.3-2.6,10.2-2.6c3.8,0,6.8,0.9,9,2.6c2.2,1.7,3.3,4,3.3,6.9c0,4-1.6,7.1-4.7,9.3c-3.1,2.2-11.7,3-11.7,3
				c-1.1,0.1-2.4,0.2-2.9,0.2c-0.5,0-0.9,0.1-0.9,0.2c0,0.1,0.3,1.1,0.7,2.1c0,0,1,2.6,4.3,2.6c1.6,0,3.1-0.2,4.7-0.7
				s3.4-1.4,3.4-1.4c1-0.5,1.8,0,1.8,1.1v4.3c0,1.1-0.8,2.4-1.8,2.8c0,0-2.5,1.1-4.5,1.6C188,53,185.7,53.2,183.2,53.2z M187.9,25.7
				c-1.2,0-2.4,0.7-3.4,2.1c-1.1,1.4-1.4,2.8-1.4,2.8c-0.3,1.1-0.3,1.9-0.1,1.9c0.2,0,1.3-0.1,2.4-0.2c0,0,1.9-0.2,3.2-1
				c1.2-0.8,1.9-1.9,1.9-3.3c0-0.6-0.2-1.2-0.6-1.6C189.5,25.9,188.8,25.7,187.9,25.7z"/>
		</g>
		<g>
			<path class="st0" d="M202.1,20.4c-0.2-1.1,0.6-2,1.7-2h7.7c1.1,0,2.1,0.9,2.2,2l1,13c0.1,1.1,0.2,2.4,0.2,2.9c0,0.5,0,1.5,0,2.2
				s0.1,1.3,0.1,1.3s0.4-0.9,0.7-1.9c0,0,0.7-2.4,1-3.1c0.3-0.7,6.4-14.6,6.4-14.6c0.4-1,1.7-1.8,2.8-1.8h8.5c1.1,0,1.6,0.8,1.1,1.8
				l-18.4,35c-0.5,1-1.4,2.5-2,3.5c0,0-3.1,4.7-5.6,6.4c-2.6,1.6-5.7,2.5-9.4,2.5c-1.9,0-2.7-0.2-2.7-0.2c-1.1-0.2-2-1.3-2-2.4v-5.3
				c0-1.1,0.9-1.8,2-1.7c0,0,0,0,1.3,0c1.8,0,3.2-0.4,4.3-1.1c1.1-0.7,1.8-1.8,1.8-1.8c0.6-0.9,1.3-1.9,1.5-2.3s0.2-1.5,0.1-2.6
				L202.1,20.4z"/>
		</g>
	</g>
	<g>
		<path class="st1" d="M270,52.3c-0.2,1.1-1.3,2-2.4,2h-31.8c-1.1,0-1.8-0.9-1.6-2l1.1-5.2c0.2-1.1,1.1-2.6,1.9-3.3l14.3-12.9
			c0.8-0.7,2.1-2,2.9-2.8c0,0,7.5-8.1,7.5-11.4c0-1.2-0.3-2-0.9-2.6c-0.6-0.6-1.4-0.9-2.4-0.9c-2.9,0-8.4,4.1-8.4,4.1
			c-0.9,0.7-2.2,0.5-2.8-0.4l-4.3-5.9c-0.6-0.9-0.4-2.1,0.5-2.7c0,0,10.3-6.8,17.6-6.8c4.4,0,7.9,1.2,10.5,3.6c2.7,2.4,4,5.6,4,9.6
			c0,3.6-1,7-3.1,10.2c-2.1,3.2-9.2,9.9-9.2,9.9c-0.8,0.8-2.1,2-3,2.7l-4.3,3.7c-0.8,0.7-1.5,1.4-1.5,1.5c0,0.1,0.9,0.2,2,0.2H270
			c1.1,0,1.8,0.9,1.6,2L270,52.3z"/>
		<path class="st2" d="M270,52.3c-0.2,1.1-1.3,2-2.4,2h-31.8c-1.1,0-1.8-0.9-1.6-2l1.1-5.2c0.2-1.1,1.1-2.6,1.9-3.3l14.3-12.9
			c0.8-0.7,2.1-2,2.9-2.8c0,0,7.5-8.1,7.5-11.4c0-1.2-0.3-2-0.9-2.6c-0.6-0.6-1.4-0.9-2.4-0.9c-2.9,0-8.4,4.1-8.4,4.1
			c-0.9,0.7-2.2,0.5-2.8-0.4l-4.3-5.9c-0.6-0.9-0.4-2.1,0.5-2.7c0,0,10.3-6.8,17.6-6.8c4.4,0,7.9,1.2,10.5,3.6c2.7,2.4,4,5.6,4,9.6
			c0,3.6-1,7-3.1,10.2c-2.1,3.2-9.2,9.9-9.2,9.9c-0.8,0.8-2.1,2-3,2.7l-4.3,3.7c-0.8,0.7-1.5,1.4-1.5,1.5c0,0.1,0.9,0.2,2,0.2H270
			c1.1,0,1.8,0.9,1.6,2L270,52.3z"/>
	</g>
	<g>
		<g>
			<path class="st3" d="M75.4,106.1c-0.2,1.1-1.3,2-2.4,2H50.8c-1.1,0-1.8-0.9-1.6-2l8.5-40.2c0.2-1.1,1.3-2,2.4-2h22.2
				c1.1,0,1.8,0.9,1.6,2l-1.2,5.6c-0.2,1.1-1.3,2-2.4,2H70c-1.1,0-2.2,0.9-2.4,2l-0.6,3c-0.2,1.1,0.5,2,1.6,2h9.4
				c1.1,0,1.8,0.9,1.6,2l-1.3,5.7c-0.2,1.1-1.3,2-2.5,2h-9.4c-1.1,0-2.2,0.9-2.4,2l-0.9,4.4c-0.2,1.1,0.5,2,1.6,2H75
				c1.1,0,1.8,0.9,1.6,2L75.4,106.1z"/>
		</g>
		<g>
			<path class="st3" d="M103,85.1c0-0.9-0.2-1.5-0.7-1.9c-0.4-0.4-1-0.6-1.6-0.6c-1.1,0-2.2,0.7-3.2,2.1c-1,1.4-1.9,4.8-1.9,4.8
				c-0.3,1.1-0.7,2.8-0.9,3.9L92,106.1c-0.2,1.1-1.3,2-2.4,2h-7.7c-1.1,0-1.8-0.9-1.6-2l6.4-30.3c0.2-1.1,1.3-2,2.4-2h5.3
				c1.1,0,1.9,0.9,1.9,2l-0.1,0.8c-0.1,1.1-0.1,2,0,2c0.1,0,0.7-0.7,1.3-1.6c0,0,1.2-1.7,2.7-2.5c1.5-0.8,3.3-1.3,5.5-1.3
				c2.8,0,5.1,0.9,6.6,2.6c1.6,1.7,2.4,4.1,2.4,7.1c0,2.1-0.4,4.9-0.4,4.9c-0.2,1.1-0.5,2.9-0.7,4l-3,14.2c-0.2,1.1-1.3,2-2.4,2
				h-7.7c-1.1,0-1.8-0.9-1.6-2l3.1-14.7c0.2-1.1,0.6-2.9,0.8-3.9C102.8,87.5,103,86.4,103,85.1z"/>
		</g>
		<g>
			<path class="st3" d="M126.1,108.7c-3.2,0-5.6-1.1-7.2-3.4c-1.7-2.2-2.5-5.5-2.5-9.7c0-3.6,0.7-7.3,2.2-11
				c1.5-3.7,3.3-6.6,5.6-8.5c2.2-1.9,4.7-2.9,7.4-2.9c1.7,0,3.2,0.4,4.5,1.1c1.3,0.8,2.3,2.1,2.3,2.1c0.7,0.9,1.2,1.6,1.3,1.6
				c0.1,0,0.5-0.8,0.9-1.9l0.2-0.5c0.4-1,1.6-1.9,2.7-1.9h5.3c1.1,0,1.8,0.9,1.6,2l-6.4,30.5c-0.2,1.1-0.7,2.8-1.1,3.9
				c0,0-2.4,6.9-5.2,9.2c-2.8,2.4-6.9,3.5-12,3.5c-4.9,0-9.5-1.4-9.5-1.4c-1.1-0.3-1.9-1.5-1.9-2.6v-6.2c0-1.1,0.8-1.6,1.8-1.1
				c0,0,1.8,0.9,3.6,1.3c1.8,0.4,3.7,0.6,5.7,0.6c1.7,0,3.2-0.4,4.5-1.3c1.3-0.8,1.6-1.4,1.6-1.4c0.5-1,1.1-2.7,1.4-3.8l0.1-0.4
				c0.3-1.1,0.5-1.9,0.4-1.9c-0.1,0-0.7,0.7-1.4,1.5c0,0-0.7,0.9-1.9,1.5C128.8,108.4,127.6,108.7,126.1,108.7z M130.9,99.3
				c1,0,2-0.6,2.9-1.8c0.9-1.2,1.6-2.8,2.2-4.7c0.5-2,0.8-3.9,0.8-5.8c0-1.3-0.2-2.4-0.6-3.2c-0.4-0.8-1-1.2-1.9-1.2
				c-1.5,0-2.9,1.3-4.2,3.8c-1.2,2.5-1.9,5.4-1.9,8.5C128.3,97.9,129.2,99.3,130.9,99.3z"/>
		</g>
		<g>
			<path class="st3" d="M161,106.1c-0.2,1.1-1.3,2-2.4,2h-7.7c-1.1,0-1.8-0.9-1.6-2l9.1-43c0.2-1.1,1.3-2,2.4-2h7.7
				c1.1,0,1.8,0.9,1.6,2L161,106.1z"/>
		</g>
		<g>
			<path class="st3" d="M178,106.1c-0.2,1.1-1.3,2-2.4,2h-7.7c-1.1,0-1.8-0.9-1.6-2l6.4-30.3c0.2-1.1,1.3-2,2.4-2h7.7
				c1.1,0,1.8,0.9,1.6,2L178,106.1z M174.5,66.4c0-2.1,0.6-3.6,1.8-4.7c1.2-1.1,2.9-1.6,5-1.6c1.8,0,3.2,0.4,4.2,1.1
				c1,0.7,1.5,1.8,1.5,3.2c0,2-0.6,3.6-1.8,4.7c-1.2,1.1-2.8,1.6-5,1.6C176.4,70.6,174.5,69.2,174.5,66.4z"/>
		</g>
		<g>
			<path class="st3" d="M209.2,96.2c0,4-1.3,7.1-3.9,9.2c-2.6,2.2-6.4,3.2-11.3,3.2c-4.5,0-8.8-1.3-8.8-1.3
				c-1.1-0.3-1.9-1.5-1.9-2.6v-5.4c0-1.1,0.8-1.6,1.8-1.1c0,0,1.8,0.8,3.4,1.2c1.6,0.4,3.2,0.6,4.8,0.6c1.4,0,2.4-0.2,3.1-0.6
				c0.7-0.4,1-0.9,1-1.6c0-0.7-0.3-1.3-0.8-1.8c-0.5-0.5-1.8-1.4-3.9-2.6c-2.1-1.2-3.7-2.5-4.7-4c-1-1.5-1.5-3.4-1.5-5.5
				c0-3.5,1.2-6.1,3.7-8c2.4-1.9,5.9-2.8,10.4-2.8c2.3,0,4.3,0.3,6.2,0.8c1.9,0.5,3.6,1.5,3.6,1.5c1,0.5,1.4,1.8,0.9,2.8l-1.9,4
				c-0.5,1-1.7,1.4-2.6,0.8c0,0-1-0.6-2.4-1.1c-1.4-0.5-2.6-0.8-3.7-0.8c-1.5,0-2.3,0.7-2.3,2.1c0,0.6,0.3,1.1,1,1.5
				c0.6,0.4,1.3,0.8,1.3,0.8c1,0.5,2.5,1.5,3.3,2.2C204,87.8,209.2,92,209.2,96.2z"/>
		</g>
		<g>
			<path class="st3" d="M231.1,108.1c-1.1,0-1.8-0.9-1.6-2l3.1-14.7c0.2-1.1,0.6-2.9,0.8-3.9c0,0,0.2-1,0.2-2.3
				c0-0.9-0.2-1.5-0.7-1.9c-0.4-0.4-1-0.6-1.6-0.6c-2.5,0-4.9,6.9-4.9,6.9c-0.4,1-0.8,2.8-1.1,3.9l-2.7,12.8c-0.2,1.1-1.3,2-2.4,2
				h-7.7c-1.1,0-1.8-0.9-1.6-2l9.1-43c0.2-1.1,1.3-2,2.4-2h7.7c1.1,0,1.8,0.9,1.6,2l-0.8,3.6c-0.2,1.1-0.6,2.8-0.9,3.9l-1.5,4.7
				c-0.4,1-0.6,1.9-0.6,1.9s0.8-0.6,1.7-1.3c0,0,3.2-2.6,6.7-2.6c2.8,0,5.1,0.9,6.6,2.6c1.6,1.7,2.4,4.1,2.4,7.1
				c0,2.1-0.4,4.9-0.4,4.9c-0.2,1.1-0.5,2.9-0.7,4l-3,14.2c-0.2,1.1-1.3,2-2.4,2H231.1z"/>
		</g>
	</g>
</g>
</svg>
