<?xml version="1.0" encoding="UTF-8" standalone="no"?><!DOCTYPE svg PUBLIC "-//W3C//DTD SVG 1.1//EN" "http://www.w3.org/Graphics/SVG/1.1/DTD/svg11.dtd"><svg width="100%" height="100%" viewBox="0 0 600 512" version="1.1" xmlns="http://www.w3.org/2000/svg" xmlns:xlink="http://www.w3.org/1999/xlink" xml:space="preserve" xmlns:serif="http://www.serif.com/" style="fill-rule:evenodd;clip-rule:evenodd;stroke-linejoin:round;stroke-miterlimit:1.41421;"><path d="M100.781,508.485l-100.781,0l0,-9.723c0,-3.223 2.612,-5.835 5.835,-5.835l9.723,0l0,-221.7c0,-6.444 5.224,-11.668 11.668,-11.668l97.508,0l0,196.929c0,0 -0.373,0.164 -0.944,0.439c-12.55,6.047 -21.393,18.771 -22.785,32.482c-0.115,1.123 -0.169,1.677 -0.205,3.599c0,0 -0.315,8.725 -0.019,15.477Zm366.782,0l-335.126,0l0,-14.96c0,-4.958 4.02,-8.977 8.977,-8.977l14.961,0l0,-341.109c0,-9.915 8.038,-17.953 17.953,-17.953l144.022,0c-0.104,9.047 -0.083,17.923 0.411,26.348c0.512,8.719 3.416,16.9 7.991,23.977c-1.734,1.636 -2.814,3.955 -2.814,6.526l0,29.922c0,4.958 4.018,8.976 8.976,8.976l29.922,0c4.957,-0.001 8.977,-4.018 8.977,-8.976l0,-11.751l31.158,0c-0.016,9.599 -0.007,19.197 0.05,28.795c0.023,3.377 -0.005,6.755 0.384,10.102l0.009,1.791c0,0 1.606,6.611 0.807,3.042l-0.412,-1.945l0.214,0.992c0,0 -0.343,-1.76 -0.609,-3.81l0,-2.986c0.077,3.189 0.154,3.992 0.686,7.137l0.384,1.754c4.02,16.473 16.582,30.43 32.393,36.298c2.155,0.8 4.504,1.406 6.748,1.862l0,201.008l14.961,0c4.959,0.002 8.977,4.019 8.977,8.977l0,14.96Zm37.734,-223.744c0,0 -5.645,0.523 2.364,-0.249l1.43,-0.194c15.397,-2.387 28.498,-11.983 36.295,-24.739l27.388,0c6.446,0 11.668,5.224 11.668,11.668l0,221.7l9.723,0c3.224,0.003 5.835,2.615 5.835,5.835l0,9.723l-100.796,0l0,-15.058c-0.09,-14.277 -7.919,-27.756 -19.953,-34.872c-0.705,-0.417 -1.422,-0.812 -2.153,-1.186c-0.769,-0.395 -0.765,-0.407 -1.832,-0.881l0,-171.538c6.893,0.006 13.786,-0.006 20.679,-0.036c2.944,-0.016 6.984,-0.052 6.984,-0.052l1.46,-0.053l0.908,-0.068Zm-190.336,127.995l-29.922,0c-4.959,0.001 -8.977,4.018 -8.977,8.976l0,62.836l47.876,0l0,-62.836c0,-4.958 -4.018,-8.975 -8.977,-8.976Zm216.973,-28.715l-19.447,0c-3.224,0.003 -5.835,2.615 -5.835,5.835l0,19.447c0,3.223 2.613,5.835 5.835,5.835l19.447,0c3.223,-0.001 5.835,-2.613 5.835,-5.835l0,-19.447c0,-3.22 -2.611,-5.832 -5.835,-5.835Zm-444.421,0l-19.447,0c-3.224,0.003 -5.835,2.615 -5.835,5.835l0,19.447c0,3.223 2.614,5.835 5.835,5.835l19.447,0c3.222,0 5.835,-2.612 5.835,-5.835l0,-19.447c0,-3.22 -2.611,-5.832 -5.835,-5.835Zm444.421,-46.673l-19.447,0c-3.223,0.001 -5.835,2.613 -5.835,5.835l0,19.447c0,3.222 2.613,5.834 5.835,5.834l19.447,0c3.223,0 5.835,-2.612 5.835,-5.834l0,-19.447c0,-3.222 -2.612,-5.834 -5.835,-5.835Zm-444.421,0l-19.447,0c-3.223,0.001 -5.835,2.613 -5.835,5.835l0,19.447c0,3.222 2.614,5.834 5.835,5.834l19.447,0c3.222,0 5.835,-2.612 5.835,-5.834l0,-19.447c0,-3.222 -2.612,-5.834 -5.835,-5.835Zm275.323,-20.363l-29.922,0c-4.959,0.002 -8.976,4.02 -8.976,8.977l0,29.922c0,4.958 4.018,8.976 8.976,8.976l29.922,0c4.957,-0.001 8.977,-4.018 8.977,-8.976l0,-29.922c0,-4.957 -4.019,-8.975 -8.977,-8.977Zm-95.75,0l-29.922,0c-4.958,0.002 -8.976,4.02 -8.976,8.977l0,29.922c0,4.958 4.019,8.976 8.976,8.976l29.922,0c4.958,-0.001 8.976,-4.018 8.976,-8.976l0,-29.922c0,-4.957 -4.017,-8.975 -8.976,-8.977Zm264.848,-26.31l-19.447,0c-3.223,0 -5.835,2.612 -5.835,5.833l0,19.449c0,3.221 2.613,5.833 5.835,5.833l19.447,0c3.223,0 5.835,-2.612 5.835,-5.833l0,-19.449c0,-3.221 -2.612,-5.833 -5.835,-5.833Zm-444.421,0l-19.447,0c-3.223,0.001 -5.835,2.613 -5.835,5.833l0,19.449c0,3.221 2.614,5.833 5.835,5.833l19.447,0c3.222,0 5.835,-2.612 5.835,-5.833l0,-19.449c0,-3.22 -2.612,-5.832 -5.835,-5.833Zm179.573,-45.502l-29.922,0c-4.958,0.001 -8.976,4.02 -8.976,8.977l0,29.921c0,4.958 4.019,8.977 8.976,8.977l29.922,0c4.958,-0.002 8.976,-4.019 8.976,-8.977l0,-29.921c0,-4.957 -4.017,-8.976 -8.976,-8.977Zm95.75,0l-29.922,0c-4.959,0.001 -8.976,4.02 -8.976,8.977l0,29.921c0,4.958 4.018,8.977 8.976,8.977l29.922,0c4.957,-0.002 8.977,-4.019 8.977,-8.977l0,-29.921c0,-4.957 -4.019,-8.976 -8.977,-8.977Zm141.553,39.636l3.272,-0.317c-8.009,0.772 -2.364,0.249 -2.364,0.249l-0.908,0.068Zm4.233,-0.437c-0.899,0.117 -1.01,0.182 -3.325,0.369l-0.643,0.059l1.637,-0.059l3.064,-0.465l-0.733,0.096Zm-5.278,-37.131l-0.023,0.004l-0.126,0.017l-0.006,0.002c-0.054,0.007 -0.108,0.014 -0.162,0.021c-0.382,0.048 -0.504,0.071 -1.126,0.09c-0.076,0.003 -0.153,0.006 -0.231,0.007c-15.745,0.1 -31.491,0.1 -47.238,0c-6.473,-0.123 -12.09,-4.902 -13.518,-10.893l0,-0.001l-0.001,-0.004c-0.035,-0.147 -0.067,-0.293 -0.097,-0.442l-0.001,-0.01l-0.017,-0.08l-0.01,-0.054l-0.001,-0.007c-0.052,-0.273 -0.095,-0.548 -0.129,-0.823c-0.047,-0.332 -0.075,-0.568 -0.092,-1.07c-0.008,-0.165 -0.012,-0.33 -0.014,-0.496c-0.195,-23.686 -0.009,-46.977 -0.001,-70.494l-70.312,0c-7.603,-0.049 -13.923,-6.59 -14.062,-13.881c-0.099,-15.745 -0.099,-31.493 0,-47.238c0.121,-6.341 4.708,-11.859 10.526,-13.424l0.002,-0.001l0.003,0c0.136,-0.037 0.272,-0.071 0.409,-0.103l0.024,-0.006l0.023,-0.005c0.117,-0.028 0.235,-0.052 0.354,-0.077l0.009,-0.001l0.081,-0.017l0.055,-0.01l0.007,-0.001c0.272,-0.052 0.546,-0.095 0.821,-0.129c0.333,-0.047 0.569,-0.075 1.071,-0.093c0.165,-0.007 0.33,-0.012 0.495,-0.013c23.687,-0.197 46.977,-0.009 70.494,-0.001l0,-70.312c0.049,-7.66 6.598,-13.93 13.913,-14.061c9.561,-0.244 19.644,-0.037 29.56,-0.045c5.172,-0.003 10.343,0.004 15.515,0.033l0.661,0.003l0.054,0l1.416,0.008c6.522,0.125 12.171,4.97 13.548,11.022l0.002,0.006c0.023,0.104 0.045,0.208 0.066,0.313l0.003,0.009l0.015,0.081l0.01,0.054l0.002,0.007c0.051,0.273 0.095,0.547 0.13,0.822c0.045,0.332 0.074,0.569 0.091,1.07c0.007,0.166 0.012,0.331 0.013,0.496c0.197,23.652 0.012,46.91 0.001,70.494l70.313,0c7.604,0.048 13.923,6.591 14.061,13.881c0.1,15.745 0.1,31.493 0,47.238c-0.131,6.903 -5.554,12.829 -12.095,13.745c-0.575,0.08 -0.773,0.116 -1.785,0.135c-7.848,0.049 -15.696,0.067 -23.545,0.066l0,0.023c-13.713,0.002 -27.361,-0.062 -41.07,-0.082l-5.879,-0.006l0,70.313c-0.044,7.014 -5.615,12.937 -12.206,13.92l-0.001,0Zm-236.258,-73.881l-29.922,0c-4.958,0.002 -8.977,4.02 -8.977,8.977l0,29.922c0,4.958 4.02,8.976 8.977,8.976l29.922,0c4.958,-0.001 8.976,-4.018 8.976,-8.976l0,-29.922c0,-4.957 -4.017,-8.975 -8.976,-8.977Z"/></svg>