<?xml version="1.0" encoding="utf-8"?>
<!-- Generator: Adobe Illustrator 19.2.0, SVG Export Plug-In . SVG Version: 6.00 Build 0)  -->
<svg version="1.0" id="Layer_1" xmlns="http://www.w3.org/2000/svg" xmlns:xlink="http://www.w3.org/1999/xlink" x="0px" y="0px"
	 viewBox="0 0 1882.9 1792" enable-background="new 0 0 1882.9 1792" xml:space="preserve">
<g id="Layer_2">
	<path d="M873.7,18.9L20,700.8c-40.3,30.1-15.1,96.1,35.4,96.1h242.4v944.6c0,25.3,20.4,45.6,45.6,45.6h323.4
		c20.4,0,40.3-15.1,40.3-40.3V1201c0-20.4,15.1-40.3,40.3-40.3h389c20.4,0,40.3,15.1,40.3,40.3v550.7c0,20.4,15.1,40.3,40.3,40.3
		h323.4c25.3,0,45.6-20.4,45.6-45.6V801.8h242.4c50.5,0,75.8-65.6,35.4-96.1L994.7,18.9C959.3-6.3,908.7-6.3,873.7,18.9z"/>
</g>
</svg>
