<?xml version="1.0" encoding="UTF-8" standalone="no"?><!DOCTYPE svg PUBLIC "-//W3C//DTD SVG 1.1//EN" "http://www.w3.org/Graphics/SVG/1.1/DTD/svg11.dtd"><svg width="100%" height="100%" viewBox="0 0 448 512" version="1.1" xmlns="http://www.w3.org/2000/svg" xmlns:xlink="http://www.w3.org/1999/xlink" xml:space="preserve" xmlns:serif="http://www.serif.com/" style="fill-rule:evenodd;clip-rule:evenodd;stroke-linejoin:round;stroke-miterlimit:1.41421;"><path d="M432.131,173.458c8.794,0 15.869,7.075 15.869,15.869l0,222.168c0,4.959 -2.314,9.456 -5.885,12.299c-2.777,10.183 -2.777,39.21 0,49.393c3.571,2.909 5.885,7.405 5.885,12.364l0,10.58c0,8.794 -7.075,15.869 -15.869,15.869l-216.879,0c-35.044,0 -63.477,-28.432 -63.477,-63.477l0,-211.589c0,-35.044 28.432,-63.476 63.477,-63.476l216.879,0Zm-28.168,296.224c-1.256,-11.308 -1.256,-31.011 0,-42.318l-188.711,0c-11.637,0 -21.159,9.522 -21.159,21.159c0,11.704 9.456,21.159 21.159,21.159l188.711,0Zm-272.269,-129.042l-115.727,0c-8.818,0 -15.967,-7.149 -15.967,-15.968l0,-15.967c0,-41.154 33.361,-74.515 74.515,-74.515l18.999,0c12.103,7.28 24.99,12.696 38.259,16.245c-0.011,30.068 -0.054,60.136 -0.079,90.205Zm248.862,-19.07c2.183,-0.001 3.967,-1.786 3.967,-3.967l0,-13.225c0,-2.182 -1.785,-3.967 -3.967,-3.967l-140.178,0c-2.182,0 -3.967,1.785 -3.967,3.967l0,13.225c0,2.182 1.785,3.967 3.967,3.967l140.178,0Zm0,-42.318c2.183,0 3.967,-1.785 3.967,-3.967l0,-13.224c0,-2.183 -1.785,-3.968 -3.967,-3.968l-140.178,0c-2.182,0 -3.967,1.785 -3.967,3.968l0,13.224c0,2.182 1.785,3.967 3.967,3.967l140.178,0Zm-243.256,-71.573c-42.627,-13.895 -73.43,-53.965 -73.43,-101.229c0,-58.791 47.66,-106.45 106.45,-106.45c58.79,0 106.45,47.659 106.45,106.45c0,16.814 -3.899,32.718 -10.842,46.857c-17.071,0.044 -34.142,0.098 -51.213,0.152c-15.974,0.152 -31.626,4.821 -44.889,13.439c-14.893,9.677 -26.243,24.301 -32.526,40.781Z"/></svg>