<?xml version="1.0" encoding="utf-8"?>
<!-- Generator: Adobe Illustrator 18.0.0, SVG Export Plug-In . SVG Version: 6.00 Build 0)  -->
<svg version="1.2" baseProfile="tiny" xmlns="http://www.w3.org/2000/svg" xmlns:xlink="http://www.w3.org/1999/xlink" x="0px"
	 y="0px" viewBox="0 0 28 28" xml:space="preserve">
<g id="Border">
	<g id="Ellipse_2_10_">
		<g>
			
				<ellipse transform="matrix(5.410720e-003 -1 1 5.410720e-003 -7.550490e-002 27.9242)" fill-rule="evenodd" fill="#FFFFFF" cx="14" cy="14" rx="11.5" ry="11.5"/>
		</g>
		<g>
			
				<ellipse transform="matrix(5.410720e-003 -1 1 5.410720e-003 -7.550490e-002 27.9242)" fill="none" stroke="#003AD0" stroke-width="2.7339" stroke-miterlimit="100" cx="14" cy="14" rx="11.5" ry="11.5"/>
		</g>
	</g>
</g>
<g id="Country_1_">
	<path fill="#003AD0" d="M19.8,10.7c-0.7,2.5-1.6,4.8-2.8,7.1c-1.3-2.9-2.4-6-3.2-9.1c-0.9,3.1-2.2,6.1-3.7,8.9
		c-0.9-2.3-1.7-4.6-2.3-7c-0.6,2.1-1.3,4.1-2.2,6.1c-0.4,1-0.9,1.9-1.4,2.8c-0.3,0.6-0.2,0.7,0.2,1.3c0.3,0.4,0.6,0.7,0.9,1.1
		c2.7,2.9,6.6,3.9,10.5,3.5c1.7-0.2,3.3-0.7,4.7-1.6c0.7-0.5,1.4-1,1.9-1.7c0.3-0.3,0.6-0.7,0.8-1.1c0.4-0.6,0.1-0.9-0.2-1.5
		C21.6,16.6,20.6,13.7,19.8,10.7z"/>
</g>
</svg>
