<?xml version="1.0" encoding="utf-8"?>
<!-- Generator: Adobe Illustrator 18.0.0, SVG Export Plug-In . SVG Version: 6.00 Build 0)  -->
<svg version="1.2" baseProfile="tiny" id="Castle_1_"
	 xmlns="http://www.w3.org/2000/svg" xmlns:xlink="http://www.w3.org/1999/xlink" x="0px" y="0px" viewBox="0 0 26 26"
	 xml:space="preserve">
<g>
	<path fill="none" d="M19,11.8V5.9h-2.4v2.3h-2.4V5.9h-2.4v2.3H9.4V5.9H7v5.9l1.2,1.1v9c0.8,0.4,1.6,0.7,2.4,0.9v-2.7
		c0,0-0.1-4.3,2.4-4.3c2.5,0,2.4,4.3,2.4,4.3l0,0.5l0,2.2c0.9-0.2,1.7-0.5,2.5-0.9v-9L19,11.8z"/>
	<path fill="#FFFFFF" d="M15.3,20.2c0,0,0.1-4.3-2.4-4.3c-2.5,0-2.4,4.3-2.4,4.3v2.7c0.8,0.2,1.6,0.3,2.4,0.3H13
		c0.8,0,1.6-0.1,2.3-0.3l0-2.2L15.3,20.2z"/>
	<path fill="#FFFFFF" d="M20.2,5.9c-1.9-1.9-4.4-3-7.1-3C7.5,2.9,2.9,7.4,2.9,12.9c0,2.7,1,5.2,2.9,7.2c0.7,0.7,1.5,1.3,2.4,1.8v-9
		L7,11.8V5.9h2.4v2.3h2.4V5.9h2.4v2.3h2.4V5.9H19v5.9l-1.2,1.1v9c3.2-1.7,5.3-5,5.4-8.9C23.1,10.4,22.1,7.8,20.2,5.9z"/>
</g>
</svg>
