<?xml version="1.0" encoding="UTF-8" standalone="no"?>
<!-- Generator: Adobe Illustrator 18.0.0, SVG Export Plug-In . SVG Version: 6.00 Build 0)  -->

<svg
   xmlns:dc="http://purl.org/dc/elements/1.1/"
   xmlns:cc="http://creativecommons.org/ns#"
   xmlns:rdf="http://www.w3.org/1999/02/22-rdf-syntax-ns#"
   xmlns:svg="http://www.w3.org/2000/svg"
   xmlns="http://www.w3.org/2000/svg"
   xmlns:sodipodi="http://sodipodi.sourceforge.net/DTD/sodipodi-0.dtd"
   xmlns:inkscape="http://www.inkscape.org/namespaces/inkscape"
   version="1.2"
   x="0px"
   y="0px"
   viewBox="0 0 28 28"
   xml:space="preserve"
   id="svg2"
   inkscape:version="0.48.4 r9939"
   width="100%"
   height="100%"
   sodipodi:docname="loch_shadeout.svg"><metadata
     id="metadata22"><rdf:RDF><cc:Work
         rdf:about=""><dc:format>image/svg+xml</dc:format><dc:type
           rdf:resource="http://purl.org/dc/dcmitype/StillImage" /><dc:title></dc:title></cc:Work></rdf:RDF></metadata><defs
     id="defs20" /><sodipodi:namedview
     pagecolor="#ffffff"
     bordercolor="#666666"
     borderopacity="1"
     objecttolerance="10"
     gridtolerance="10"
     guidetolerance="10"
     inkscape:pageopacity="0"
     inkscape:pageshadow="2"
     inkscape:window-width="1301"
     inkscape:window-height="744"
     id="namedview18"
     showgrid="false"
     inkscape:zoom="8.4285714"
     inkscape:cx="-6.8813559"
     inkscape:cy="14"
     inkscape:window-x="65"
     inkscape:window-y="24"
     inkscape:window-maximized="1"
     inkscape:current-layer="svg2" /><g
     id="Border"><g
       id="Ellipse_2_10_"
       style="stroke:#989899;stroke-opacity:1"><g
         id="g6"
         style="stroke:#989899;stroke-opacity:1"><ellipse
           transform="matrix(5.410720e-003 -1 1 5.410720e-003 -7.550490e-002 27.9242)"
           cx="14"
           cy="14"
           rx="11.5"
           ry="11.5"
           id="ellipse8"
           style="stroke:#989899;stroke-opacity:1"
           fill-rule="evenodd"
           fill="#FFFFFF" /></g><g
         id="g10"
         style="stroke:#989899;stroke-opacity:1"><ellipse
           transform="matrix(5.410720e-003 -1 1 5.410720e-003 -7.550490e-002 27.9242)"
           stroke-miterlimit="100"
           cx="14"
           cy="14"
           rx="11.5"
           ry="11.5"
           id="ellipse12"
           style="stroke:#989899;stroke-opacity:1"
           stroke-width="2.7339"
           stroke="#003AD0"
           fill="none" /></g></g></g><g
     id="Loch_Lake_1_"
     style="stroke:#989899;stroke-opacity:1;fill:#989899;fill-opacity:1"><g
       id="Shape_6"
       style="stroke:#989899;stroke-opacity:1;fill:#989899;fill-opacity:1"><path
         d="M14.6,10.3c-3.9-2.8-8.4,1.7-11,4.4c-1.6,1.6-1.4,2.1-0.5,4.3c0.8,1.9,2,3.7,3.7,4.8    c4.2,2.7,11.4,2.1,15.1-1.5c-1,0-11.7-1.6-10.5-2.6c1.9-1.5,5.5-1.4,7.8-1.4c1.3,0,2.6-0.1,3.9,0c1.5,0,1.2-1.9,2.1-2    C19,17,18.8,13.3,14.6,10.3z"
         id="path16"
         style="stroke:#989899;stroke-opacity:1;fill:#989899;fill-opacity:1"
         fill-rule="evenodd"
         fill="#003AD0" /></g></g></svg>