<?xml version="1.0" encoding="utf-8"?>
<!-- Generator: Adobe Illustrator 18.0.0, SVG Export Plug-In . SVG Version: 6.00 Build 0)  -->
<svg version="1.2" baseProfile="tiny" id="Country_1_"
	 xmlns="http://www.w3.org/2000/svg" xmlns:xlink="http://www.w3.org/1999/xlink" x="0px" y="0px" viewBox="0 0 26 26"
	 xml:space="preserve">
<rect x="13" y="24.5" fill="#FFFFFF" width="0" height="0"/>
<path fill="#FFFFFF" d="M6.8,9.6c0.6,2.4,1.4,4.7,2.3,7c1.5-2.8,2.8-5.8,3.7-8.9c0.8,3.1,1.9,6.2,3.2,9.1c1.1-2.3,2.1-4.6,2.8-7.1
	c0.7,2.9,1.7,5.7,2.9,8.4c0.9-1.5,1.4-3.2,1.4-5c0-2.7-1-5.2-2.9-7.2c-1.9-1.9-4.4-3-7.1-3C7.5,2.9,2.9,7.4,2.9,12.9
	c0,1.5,0.3,3,0.9,4.3c0.3-0.5,0.5-1,0.8-1.5C5.5,13.8,6.2,11.7,6.8,9.6z"/>
</svg>
