<?xml version="1.0" encoding="UTF-8" standalone="no"?><!DOCTYPE svg PUBLIC "-//W3C//DTD SVG 1.1//EN" "http://www.w3.org/Graphics/SVG/1.1/DTD/svg11.dtd"><svg width="100%" height="100%" viewBox="0 0 506 292" version="1.1" xmlns="http://www.w3.org/2000/svg" xmlns:xlink="http://www.w3.org/1999/xlink" xml:space="preserve" xmlns:serif="http://www.serif.com/" style="fill-rule:evenodd;clip-rule:evenodd;"><g><path d="M23.676,124.813l0,-101.941l12.326,0l0,101.941l-12.326,0Z" style="fill:#c8ddf1;"/><path d="M2.062,10.458c0,-1.09 0.208,-2.138 0.625,-3.145c0.417,-1.006 1.011,-1.895 1.781,-2.666c0.771,-0.77 1.659,-1.364 2.666,-1.781c1.007,-0.417 2.055,-0.625 3.145,-0.625l120.518,0c1.089,0 2.137,0.208 3.144,0.625c1.007,0.417 1.895,1.011 2.666,1.781c0.77,0.771 1.364,1.66 1.781,2.666c0.417,1.007 0.626,2.055 0.626,3.145l0,65.737c0,1.09 -0.209,2.138 -0.626,3.144c-0.417,1.007 -1.011,1.896 -1.781,2.666c-0.771,0.771 -1.659,1.365 -2.666,1.782c-1.007,0.417 -2.055,0.625 -3.144,0.625l-120.518,0c-1.09,0 -2.138,-0.208 -3.145,-0.625c-1.007,-0.417 -1.895,-1.011 -2.666,-1.782c-0.77,-0.77 -1.364,-1.659 -1.781,-2.666c-0.417,-1.006 -0.625,-2.054 -0.625,-3.144l0,-65.737Z" style="fill:#5998d4;stroke:#fff;stroke-width:1px;"/><path d="M23.676,227.527l0,-101.94l12.326,0l0,101.94l-12.326,0Z" style="fill:#c8ddf1;"/><path d="M2.062,113.172c0,-1.09 0.208,-2.138 0.625,-3.145c0.417,-1.006 1.011,-1.895 1.781,-2.665c0.771,-0.771 1.659,-1.365 2.666,-1.782c1.007,-0.417 2.055,-0.625 3.145,-0.625l120.518,0c1.089,0 2.137,0.208 3.144,0.625c1.007,0.417 1.895,1.011 2.666,1.782c0.77,0.77 1.364,1.659 1.781,2.665c0.417,1.007 0.626,2.055 0.626,3.145l0,65.737c0,1.09 -0.209,2.138 -0.626,3.145c-0.417,1.006 -1.011,1.895 -1.781,2.665c-0.771,0.771 -1.659,1.365 -2.666,1.782c-1.007,0.417 -2.055,0.625 -3.144,0.625l-120.518,0c-1.09,0 -2.138,-0.208 -3.145,-0.625c-1.007,-0.417 -1.895,-1.011 -2.666,-1.782c-0.77,-0.77 -1.364,-1.659 -1.781,-2.665c-0.417,-1.007 -0.625,-2.055 -0.625,-3.145l0,-65.737Z" style="fill:#5998d4;stroke:#fff;stroke-width:1px;"/><rect x="30.226" y="221.751" width="181.373" height="12.326" style="fill:#c8ddf1;"/><path d="M2.062,215.886c0,-1.089 0.208,-2.138 0.625,-3.144c0.417,-1.007 1.011,-1.896 1.781,-2.666c0.771,-0.771 1.659,-1.364 2.666,-1.781c1.007,-0.417 2.055,-0.626 3.145,-0.626l120.518,0c1.089,0 2.137,0.209 3.144,0.626c1.007,0.417 1.895,1.01 2.666,1.781c0.77,0.77 1.364,1.659 1.781,2.666c0.417,1.006 0.626,2.055 0.626,3.144l0,65.737c0,1.09 -0.209,2.138 -0.626,3.145c-0.417,1.007 -1.011,1.895 -1.781,2.666c-0.771,0.77 -1.659,1.364 -2.666,1.781c-1.007,0.417 -2.055,0.625 -3.144,0.625l-120.518,0c-1.09,0 -2.138,-0.208 -3.145,-0.625c-1.007,-0.417 -1.895,-1.011 -2.666,-1.781c-0.77,-0.771 -1.364,-1.659 -1.781,-2.666c-0.417,-1.007 -0.625,-2.055 -0.625,-3.145l0,-65.737Z" style="fill:#5998d4;stroke:#fff;stroke-width:1px;"/><path d="M218.148,125.587l0,101.94l-12.325,0l0,-101.94l12.325,0Z" style="fill:#c8ddf1;"/><path d="M184.208,215.886c0,-1.089 0.209,-2.138 0.626,-3.144c0.417,-1.007 1.01,-1.896 1.781,-2.666c0.77,-0.771 1.659,-1.364 2.666,-1.781c1.006,-0.417 2.055,-0.626 3.144,-0.626l120.518,0c1.09,0 2.138,0.209 3.145,0.626c1.006,0.417 1.895,1.01 2.666,1.781c0.77,0.77 1.364,1.659 1.781,2.666c0.417,1.006 0.625,2.055 0.625,3.144l0,65.737c0,1.09 -0.208,2.138 -0.625,3.145c-0.417,1.007 -1.011,1.895 -1.781,2.666c-0.771,0.77 -1.66,1.364 -2.666,1.781c-1.007,0.417 -2.055,0.625 -3.145,0.625l-120.518,0c-1.089,0 -2.138,-0.208 -3.144,-0.625c-1.007,-0.417 -1.896,-1.011 -2.666,-1.781c-0.771,-0.771 -1.364,-1.659 -1.781,-2.666c-0.417,-1.007 -0.626,-2.055 -0.626,-3.145l0,-65.737Z" style="fill:#5998d4;stroke:#fff;stroke-width:1px;"/><path d="M218.148,22.873l0,101.94l-12.325,0l0,-101.94l12.325,0Z" style="fill:#c8ddf1;"/><path d="M184.208,113.172c0,-1.09 0.209,-2.138 0.626,-3.145c0.417,-1.006 1.01,-1.895 1.781,-2.665c0.77,-0.771 1.659,-1.365 2.666,-1.782c1.006,-0.417 2.055,-0.625 3.144,-0.625l120.518,0c1.09,0 2.138,0.208 3.145,0.625c1.006,0.417 1.895,1.011 2.666,1.782c0.77,0.77 1.364,1.659 1.781,2.665c0.417,1.007 0.625,2.055 0.625,3.145l0,65.737c0,1.09 -0.208,2.138 -0.625,3.145c-0.417,1.006 -1.011,1.895 -1.781,2.665c-0.771,0.771 -1.66,1.365 -2.666,1.782c-1.007,0.417 -2.055,0.625 -3.145,0.625l-120.518,0c-1.089,0 -2.138,-0.208 -3.144,-0.625c-1.007,-0.417 -1.896,-1.011 -2.666,-1.782c-0.771,-0.77 -1.364,-1.659 -1.781,-2.665c-0.417,-1.007 -0.626,-2.055 -0.626,-3.145l0,-65.737Z" style="fill:#5998d4;stroke:#fff;stroke-width:1px;"/><path d="M392.736,28.469l-180.358,0.179l-0.012,-12.325l180.358,-0.179l0.012,12.325Z" style="fill:#c8ddf1;"/><path d="M184.208,10.458c0,-1.09 0.209,-2.138 0.626,-3.145c0.417,-1.006 1.01,-1.895 1.781,-2.666c0.77,-0.77 1.659,-1.364 2.666,-1.781c1.006,-0.417 2.055,-0.625 3.144,-0.625l120.518,0c1.09,0 2.138,0.208 3.145,0.625c1.006,0.417 1.895,1.011 2.666,1.781c0.77,0.771 1.364,1.66 1.781,2.666c0.417,1.007 0.625,2.055 0.625,3.145l0,65.737c0,1.09 -0.208,2.138 -0.625,3.144c-0.417,1.007 -1.011,1.896 -1.781,2.666c-0.771,0.771 -1.66,1.365 -2.666,1.782c-1.007,0.417 -2.055,0.625 -3.145,0.625l-120.518,0c-1.089,0 -2.138,-0.208 -3.144,-0.625c-1.007,-0.417 -1.896,-1.011 -2.666,-1.782c-0.771,-0.77 -1.364,-1.659 -1.781,-2.666c-0.417,-1.006 -0.626,-2.054 -0.626,-3.144l0,-65.737Z" style="fill:#5998d4;stroke:#fff;stroke-width:1px;"/><path d="M387.582,125.238l-0.628,-102.507l12.326,-0.075l0.628,102.506l-12.326,0.076Z" style="fill:#c8ddf1;"/><path d="M365.34,10.279c0,-1.09 0.208,-2.138 0.625,-3.145c0.417,-1.007 1.011,-1.895 1.782,-2.666c0.77,-0.77 1.659,-1.364 2.665,-1.781c1.007,-0.417 2.055,-0.625 3.145,-0.625l120.518,0c1.09,0 2.138,0.208 3.144,0.625c1.007,0.417 1.896,1.011 2.666,1.781c0.771,0.771 1.365,1.659 1.781,2.666c0.418,1.007 0.626,2.055 0.626,3.145l0,65.737c0,1.089 -0.208,2.138 -0.626,3.144c-0.416,1.007 -1.01,1.896 -1.781,2.666c-0.77,0.771 -1.659,1.364 -2.666,1.781c-1.006,0.417 -2.054,0.626 -3.144,0.626l-120.518,0c-1.09,0 -2.138,-0.209 -3.145,-0.626c-1.006,-0.417 -1.895,-1.01 -2.665,-1.781c-0.771,-0.77 -1.365,-1.659 -1.782,-2.666c-0.417,-1.006 -0.625,-2.055 -0.625,-3.144l0,-65.737Z" style="fill:#5998d4;stroke:#fff;stroke-width:1px;"/><path d="M366.355,113.172c0,-1.09 0.208,-2.138 0.625,-3.145c0.417,-1.006 1.011,-1.895 1.781,-2.665c0.771,-0.771 1.66,-1.365 2.666,-1.782c1.007,-0.417 2.055,-0.625 3.145,-0.625l120.518,0c1.089,0 2.138,0.208 3.144,0.625c1.007,0.417 1.896,1.011 2.666,1.782c0.771,0.77 1.364,1.659 1.781,2.665c0.417,1.007 0.626,2.055 0.626,3.145l0,65.737c0,1.09 -0.209,2.138 -0.626,3.145c-0.417,1.006 -1.01,1.895 -1.781,2.665c-0.77,0.771 -1.659,1.365 -2.666,1.782c-1.006,0.417 -2.055,0.625 -3.144,0.625l-120.518,0c-1.09,0 -2.138,-0.208 -3.145,-0.625c-1.006,-0.417 -1.895,-1.011 -2.666,-1.782c-0.77,-0.77 -1.364,-1.659 -1.781,-2.665c-0.417,-1.007 -0.625,-2.055 -0.625,-3.145l0,-65.737Z" style="fill:#5998d4;stroke:#fff;stroke-width:1px;"/><g transform="matrix(1,0,0,1,-36.278,-459.858)"><text x="71.662px" y="484.315px" style="font-family:'ArialMT', 'Arial', sans-serif;font-size:11px;fill:#fff;">Partner orders</text><text x="60.345px" y="495.675px" style="font-family:'ArialMT', 'Arial', sans-serif;font-size:11px;fill:#fff;">required number of</text><text x="74.417px" y="507.034px" style="font-family:'ArialMT', 'Arial', sans-serif;font-size:11px;fill:#fff;">licenses from</text><text x="65.544px" y="518.394px" style="font-family:'ArialMT', 'Arial', sans-serif;font-size:11px;fill:#fff;">Klik2learn for the</text><text x="60.09px" y="529.754px" style="font-family:'ArialMT', 'Arial', sans-serif;font-size:11px;fill:#fff;">&apos;English Skills T<tspan x="136.768px 142.885px " y="529.754px 529.754px ">es</tspan>t&apos;</text></g><g transform="matrix(1,0,0,1,-33.6407,-452.534)"><text x="59.547px" y="579.794px" style="font-family:'ArialMT', 'Arial', sans-serif;font-size:11px;fill:#fff;">Partner completes</text><text x="54.345px" y="591.154px" style="font-family:'ArialMT', 'Arial', sans-serif;font-size:11px;fill:#fff;">Klik2learn document</text><text x="52.202px" y="602.514px" style="font-family:'ArialMT', 'Arial', sans-serif;font-size:11px;fill:#fff;">listing names and the</text><text x="67.494px" y="613.874px" style="font-family:'ArialMT', 'Arial', sans-serif;font-size:11px;fill:#fff;">emails used by</text><text x="64.123px" y="625.234px" style="font-family:'ArialMT', 'Arial', sans-serif;font-size:11px;fill:#fff;">students to login</text></g><g transform="matrix(1,0,0,1,-33.6407,-349.819)"><text x="49.761px" y="585.474px" style="font-family:'ArialMT', 'Arial', sans-serif;font-size:11px;fill:#fff;">Klik2learn issues login</text><text x="54.515px" y="596.834px" style="font-family:'ArialMT', 'Arial', sans-serif;font-size:11px;fill:#fff;">code for the &apos;English</text><text x="53px" y="608.194px" style="font-family:'ArialMT', 'Arial', sans-serif;font-size:11px;fill:#fff;">Skills T<tspan x="88.444px 94.561px " y="608.194px 608.194px ">es</tspan>t&apos; to partner</text><text x="83.387px" y="619.554px" style="font-family:'ArialMT', 'Arial', sans-serif;font-size:11px;fill:#fff;">students</text></g><g transform="matrix(1,0,0,1,-28.0343,-452.534)"><text x="228.13px" y="688.188px" style="font-family:'ArialMT', 'Arial', sans-serif;font-size:11px;fill:#fff;">Student accesses the</text><text x="236.694px" y="699.548px" style="font-family:'ArialMT', 'Arial', sans-serif;font-size:11px;fill:#fff;">test as advised by</text><text x="221.714px" y="710.908px" style="font-family:'ArialMT', 'Arial', sans-serif;font-size:11px;fill:#fff;">partner and completes it</text><text x="249.837px" y="722.268px" style="font-family:'ArialMT', 'Arial', sans-serif;font-size:11px;fill:#fff;">in one sitting</text></g><g transform="matrix(1,0,0,1,-30.8907,-459.431)"><text x="229.781px" y="598.052px" style="font-family:'ArialMT', 'Arial', sans-serif;font-size:11px;fill:#fff;">Tu<tspan x="242.618px " y="598.052px ">t</tspan>ors from Klik2learn</text><text x="224.254px" y="609.411px" style="font-family:'ArialMT', 'Arial', sans-serif;font-size:11px;fill:#fff;">login and get notification</text><text x="238.941px" y="620.771px" style="font-family:'ArialMT', 'Arial', sans-serif;font-size:11px;fill:#fff;">of completed tests</text></g><g transform="matrix(1,0,0,1,-33.6407,-438.064)"><text x="227.638px" y="479.471px" style="font-family:'ArialMT', 'Arial', sans-serif;font-size:11px;fill:#fff;">Klik2learn T<tspan x="285.715px 291.833px " y="479.471px 479.471px ">ut</tspan>ors review</text><text x="243.832px" y="490.831px" style="font-family:'ArialMT', 'Arial', sans-serif;font-size:11px;fill:#fff;">and mark the test</text></g><g transform="matrix(1,0,0,1,-33.6407,-445.209)"><text x="415.792px" y="475.257px" style="font-family:'ArialMT', 'Arial', sans-serif;font-size:11px;fill:#fff;">Reports for individual</text><text x="429.239px" y="486.616px" style="font-family:'ArialMT', 'Arial', sans-serif;font-size:11px;fill:#fff;">students issued</text><text x="410.596px" y="497.976px" style="font-family:'ArialMT', 'Arial', sans-serif;font-size:11px;fill:#fff;">electronically to partner</text><text x="432.912px" y="509.336px" style="font-family:'ArialMT', 'Arial', sans-serif;font-size:11px;fill:#fff;">for distribution</text></g><g transform="matrix(1,0,0,1,-33.6407,-437.885)"><text x="416.807px" y="570.826px" style="font-family:'ArialMT', 'Arial', sans-serif;font-size:11px;fill:#fff;">Reports for individual</text><text x="430.253px" y="582.186px" style="font-family:'ArialMT', 'Arial', sans-serif;font-size:11px;fill:#fff;">students issued</text><text x="411.61px" y="593.545px" style="font-family:'ArialMT', 'Arial', sans-serif;font-size:11px;fill:#fff;">electronically to partner</text><text x="433.927px" y="604.905px" style="font-family:'ArialMT', 'Arial', sans-serif;font-size:11px;fill:#fff;">for distribution</text></g></g></svg>