<?xml version="1.0" encoding="UTF-8" standalone="no"?><!DOCTYPE svg PUBLIC "-//W3C//DTD SVG 1.1//EN" "http://www.w3.org/Graphics/SVG/1.1/DTD/svg11.dtd"><svg width="100%" height="100%" viewBox="0 0 506 292" version="1.1" xmlns="http://www.w3.org/2000/svg" xmlns:xlink="http://www.w3.org/1999/xlink" xml:space="preserve" xmlns:serif="http://www.serif.com/" style="fill-rule:evenodd;clip-rule:evenodd;"><g><path d="M23.676,124.813l0,-101.941l12.326,0l0,101.941l-12.326,0Z" style="fill:#c8ddf1;"/><path d="M2.062,10.458c0,-1.09 0.208,-2.138 0.625,-3.145c0.417,-1.006 1.011,-1.895 1.781,-2.666c0.771,-0.77 1.659,-1.364 2.666,-1.781c1.007,-0.417 2.055,-0.625 3.145,-0.625l120.518,0c1.089,0 2.137,0.208 3.144,0.625c1.007,0.417 1.895,1.011 2.666,1.781c0.77,0.771 1.364,1.66 1.781,2.666c0.417,1.007 0.626,2.055 0.626,3.145l0,65.737c0,1.09 -0.209,2.138 -0.626,3.144c-0.417,1.007 -1.011,1.896 -1.781,2.666c-0.771,0.771 -1.659,1.365 -2.666,1.782c-1.007,0.417 -2.055,0.625 -3.144,0.625l-120.518,0c-1.09,0 -2.138,-0.208 -3.145,-0.625c-1.007,-0.417 -1.895,-1.011 -2.666,-1.782c-0.77,-0.77 -1.364,-1.659 -1.781,-2.666c-0.417,-1.006 -0.625,-2.054 -0.625,-3.144l0,-65.737Z" style="fill:#5998d4;stroke:#fff;stroke-width:1px;"/><path d="M23.676,227.527l0,-101.94l12.326,0l0,101.94l-12.326,0Z" style="fill:#c8ddf1;"/><path d="M2.062,113.172c0,-1.09 0.208,-2.138 0.625,-3.145c0.417,-1.006 1.011,-1.895 1.781,-2.665c0.771,-0.771 1.659,-1.365 2.666,-1.782c1.007,-0.417 2.055,-0.625 3.145,-0.625l120.518,0c1.089,0 2.137,0.208 3.144,0.625c1.007,0.417 1.895,1.011 2.666,1.782c0.77,0.77 1.364,1.659 1.781,2.665c0.417,1.007 0.626,2.055 0.626,3.145l0,65.737c0,1.09 -0.209,2.138 -0.626,3.145c-0.417,1.006 -1.011,1.895 -1.781,2.665c-0.771,0.771 -1.659,1.365 -2.666,1.782c-1.007,0.417 -2.055,0.625 -3.144,0.625l-120.518,0c-1.09,0 -2.138,-0.208 -3.145,-0.625c-1.007,-0.417 -1.895,-1.011 -2.666,-1.782c-0.77,-0.77 -1.364,-1.659 -1.781,-2.665c-0.417,-1.007 -0.625,-2.055 -0.625,-3.145l0,-65.737Z" style="fill:#5998d4;stroke:#fff;stroke-width:1px;"/><rect x="30.226" y="221.751" width="181.373" height="12.326" style="fill:#c8ddf1;"/><path d="M2.062,215.886c0,-1.089 0.208,-2.138 0.625,-3.144c0.417,-1.007 1.011,-1.896 1.781,-2.666c0.771,-0.771 1.659,-1.364 2.666,-1.781c1.007,-0.417 2.055,-0.626 3.145,-0.626l120.518,0c1.089,0 2.137,0.209 3.144,0.626c1.007,0.417 1.895,1.01 2.666,1.781c0.77,0.77 1.364,1.659 1.781,2.666c0.417,1.006 0.626,2.055 0.626,3.144l0,65.737c0,1.09 -0.209,2.138 -0.626,3.145c-0.417,1.007 -1.011,1.895 -1.781,2.666c-0.771,0.77 -1.659,1.364 -2.666,1.781c-1.007,0.417 -2.055,0.625 -3.144,0.625l-120.518,0c-1.09,0 -2.138,-0.208 -3.145,-0.625c-1.007,-0.417 -1.895,-1.011 -2.666,-1.781c-0.77,-0.771 -1.364,-1.659 -1.781,-2.666c-0.417,-1.007 -0.625,-2.055 -0.625,-3.145l0,-65.737Z" style="fill:#5998d4;stroke:#fff;stroke-width:1px;"/><path d="M218.148,125.587l0,101.94l-12.325,0l0,-101.94l12.325,0Z" style="fill:#c8ddf1;"/><path d="M184.208,215.886c0,-1.089 0.209,-2.138 0.626,-3.144c0.417,-1.007 1.01,-1.896 1.781,-2.666c0.77,-0.771 1.659,-1.364 2.666,-1.781c1.006,-0.417 2.055,-0.626 3.144,-0.626l120.518,0c1.09,0 2.138,0.209 3.145,0.626c1.006,0.417 1.895,1.01 2.666,1.781c0.77,0.77 1.364,1.659 1.781,2.666c0.417,1.006 0.625,2.055 0.625,3.144l0,65.737c0,1.09 -0.208,2.138 -0.625,3.145c-0.417,1.007 -1.011,1.895 -1.781,2.666c-0.771,0.77 -1.66,1.364 -2.666,1.781c-1.007,0.417 -2.055,0.625 -3.145,0.625l-120.518,0c-1.089,0 -2.138,-0.208 -3.144,-0.625c-1.007,-0.417 -1.896,-1.011 -2.666,-1.781c-0.771,-0.771 -1.364,-1.659 -1.781,-2.666c-0.417,-1.007 -0.626,-2.055 -0.626,-3.145l0,-65.737Z" style="fill:#5998d4;stroke:#fff;stroke-width:1px;"/><path d="M218.148,22.873l0,101.94l-12.325,0l0,-101.94l12.325,0Z" style="fill:#c8ddf1;"/><path d="M184.208,113.172c0,-1.09 0.209,-2.138 0.626,-3.145c0.417,-1.006 1.01,-1.895 1.781,-2.665c0.77,-0.771 1.659,-1.365 2.666,-1.782c1.006,-0.417 2.055,-0.625 3.144,-0.625l120.518,0c1.09,0 2.138,0.208 3.145,0.625c1.006,0.417 1.895,1.011 2.666,1.782c0.77,0.77 1.364,1.659 1.781,2.665c0.417,1.007 0.625,2.055 0.625,3.145l0,65.737c0,1.09 -0.208,2.138 -0.625,3.145c-0.417,1.006 -1.011,1.895 -1.781,2.665c-0.771,0.771 -1.66,1.365 -2.666,1.782c-1.007,0.417 -2.055,0.625 -3.145,0.625l-120.518,0c-1.089,0 -2.138,-0.208 -3.144,-0.625c-1.007,-0.417 -1.896,-1.011 -2.666,-1.782c-0.771,-0.77 -1.364,-1.659 -1.781,-2.665c-0.417,-1.007 -0.626,-2.055 -0.626,-3.145l0,-65.737Z" style="fill:#5998d4;stroke:#fff;stroke-width:1px;"/><path d="M392.736,28.469l-180.358,0.179l-0.012,-12.325l180.358,-0.179l0.012,12.325Z" style="fill:#c8ddf1;"/><path d="M184.208,10.458c0,-1.09 0.209,-2.138 0.626,-3.145c0.417,-1.006 1.01,-1.895 1.781,-2.666c0.77,-0.77 1.659,-1.364 2.666,-1.781c1.006,-0.417 2.055,-0.625 3.144,-0.625l120.518,0c1.09,0 2.138,0.208 3.145,0.625c1.006,0.417 1.895,1.011 2.666,1.781c0.77,0.771 1.364,1.66 1.781,2.666c0.417,1.007 0.625,2.055 0.625,3.145l0,65.737c0,1.09 -0.208,2.138 -0.625,3.144c-0.417,1.007 -1.011,1.896 -1.781,2.666c-0.771,0.771 -1.66,1.365 -2.666,1.782c-1.007,0.417 -2.055,0.625 -3.145,0.625l-120.518,0c-1.089,0 -2.138,-0.208 -3.144,-0.625c-1.007,-0.417 -1.896,-1.011 -2.666,-1.782c-0.771,-0.77 -1.364,-1.659 -1.781,-2.666c-0.417,-1.006 -0.626,-2.054 -0.626,-3.144l0,-65.737Z" style="fill:#5998d4;stroke:#fff;stroke-width:1px;"/><path d="M387.582,125.238l-0.628,-102.507l12.326,-0.075l0.628,102.506l-12.326,0.076Z" style="fill:#c8ddf1;"/><path d="M365.34,10.279c0,-1.09 0.208,-2.138 0.625,-3.145c0.417,-1.007 1.011,-1.895 1.782,-2.666c0.77,-0.77 1.659,-1.364 2.665,-1.781c1.007,-0.417 2.055,-0.625 3.145,-0.625l120.518,0c1.09,0 2.138,0.208 3.144,0.625c1.007,0.417 1.896,1.011 2.666,1.781c0.771,0.771 1.365,1.659 1.781,2.666c0.418,1.007 0.626,2.055 0.626,3.145l0,65.737c0,1.089 -0.208,2.138 -0.626,3.144c-0.416,1.007 -1.01,1.896 -1.781,2.666c-0.77,0.771 -1.659,1.364 -2.666,1.781c-1.006,0.417 -2.054,0.626 -3.144,0.626l-120.518,0c-1.09,0 -2.138,-0.209 -3.145,-0.626c-1.006,-0.417 -1.895,-1.01 -2.665,-1.781c-0.771,-0.77 -1.365,-1.659 -1.782,-2.666c-0.417,-1.006 -0.625,-2.055 -0.625,-3.144l0,-65.737Z" style="fill:#5998d4;stroke:#fff;stroke-width:1px;"/><path d="M366.355,113.172c0,-1.09 0.208,-2.138 0.625,-3.145c0.417,-1.006 1.011,-1.895 1.781,-2.665c0.771,-0.771 1.66,-1.365 2.666,-1.782c1.007,-0.417 2.055,-0.625 3.145,-0.625l120.518,0c1.089,0 2.138,0.208 3.144,0.625c1.007,0.417 1.896,1.011 2.666,1.782c0.771,0.77 1.364,1.659 1.781,2.665c0.417,1.007 0.626,2.055 0.626,3.145l0,65.737c0,1.09 -0.209,2.138 -0.626,3.145c-0.417,1.006 -1.01,1.895 -1.781,2.665c-0.77,0.771 -1.659,1.365 -2.666,1.782c-1.006,0.417 -2.055,0.625 -3.144,0.625l-120.518,0c-1.09,0 -2.138,-0.208 -3.145,-0.625c-1.006,-0.417 -1.895,-1.011 -2.666,-1.782c-0.77,-0.77 -1.364,-1.659 -1.781,-2.665c-0.417,-1.007 -0.625,-2.055 -0.625,-3.145l0,-65.737Z" style="fill:#5998d4;stroke:#fff;stroke-width:1px;"/><g transform="matrix(1,0,0,1,-36.278,-459.858)"><text x="65.241px" y="501.354px" style="font-family:'ArialMT', 'Arial', sans-serif;font-size:11px;fill:#fff;">Learner clicks on</text><text x="55.463px" y="512.714px" style="font-family:'ArialMT', 'Arial', sans-serif;font-size:11px;fill:#fff;">Smartscreen website</text></g><g transform="matrix(1,0,0,1,-33.6407,-452.534)"><text x="48.837px" y="591.154px" style="font-family:'ArialMT', 'Arial', sans-serif;font-size:11px;fill:#fff;">Learner agrees to take</text><text x="65.353px" y="602.514px" style="font-family:'ArialMT', 'Arial', sans-serif;font-size:11px;fill:#fff;">programme and</text><text x="71.033px" y="613.874px" style="font-family:'ArialMT', 'Arial', sans-serif;font-size:11px;fill:#fff;">agrees T<tspan x="114.443px " y="613.874px ">&amp;</tspan>C&apos;s</text></g><g transform="matrix(1,0,0,1,-33.6407,-349.819)"><text x="55.879px" y="596.834px" style="font-family:'ArialMT', 'Arial', sans-serif;font-size:11px;fill:#fff;">Learner pays City &amp;</text><text x="88.589px" y="608.194px" style="font-family:'ArialMT', 'Arial', sans-serif;font-size:11px;fill:#fff;">Guilds</text></g><g transform="matrix(1,0,0,1,-28.0343,-452.534)"><text x="238.225px" y="688.188px" style="font-family:'ArialMT', 'Arial', sans-serif;font-size:11px;fill:#fff;">Learner  receives</text><text x="231.817px" y="699.548px" style="font-family:'ArialMT', 'Arial', sans-serif;font-size:11px;fill:#fff;">welcome email from</text><text x="224.475px" y="710.908px" style="font-family:'ArialMT', 'Arial', sans-serif;font-size:11px;fill:#fff;">City &amp; Guilds with login</text><text x="264.82px" y="722.268px" style="font-family:'ArialMT', 'Arial', sans-serif;font-size:11px;fill:#fff;">details</text></g><g transform="matrix(1,0,0,1,-30.8907,-459.431)"><text x="240.163px" y="598.052px" style="font-family:'ArialMT', 'Arial', sans-serif;font-size:11px;fill:#fff;">Learner accesses</text><text x="237.754px" y="609.411px" style="font-family:'ArialMT', 'Arial', sans-serif;font-size:11px;fill:#fff;">&apos;Journey 2 English&apos;</text><text x="263.095px" y="620.771px" style="font-family:'ArialMT', 'Arial', sans-serif;font-size:11px;fill:#fff;">program</text></g><g transform="matrix(1,0,0,1,-33.6407,-438.064)"><text x="236.191px" y="462.432px" style="font-family:'ArialMT', 'Arial', sans-serif;font-size:11px;fill:#fff;">Learner successfully</text><text x="228.553px" y="473.791px" style="font-family:'ArialMT', 'Arial', sans-serif;font-size:11px;fill:#fff;">completes  programme,</text><text x="227.318px" y="485.151px" style="font-family:'ArialMT', 'Arial', sans-serif;font-size:11px;fill:#fff;">receives notification and</text><text x="235.88px" y="496.511px" style="font-family:'ArialMT', 'Arial', sans-serif;font-size:11px;fill:#fff;">chooses to receive a</text><text x="262.789px" y="507.871px" style="font-family:'ArialMT', 'Arial', sans-serif;font-size:11px;fill:#fff;">certificate</text></g><g transform="matrix(1,0,0,1,-33.6407,-445.209)"><text x="426.491px" y="475.257px" style="font-family:'ArialMT', 'Arial', sans-serif;font-size:11px;fill:#fff;">Learner receives</text><text x="425.884px" y="486.616px" style="font-family:'ArialMT', 'Arial', sans-serif;font-size:11px;fill:#fff;">accredited City &amp;</text><text x="416.098px" y="497.976px" style="font-family:'ArialMT', 'Arial', sans-serif;font-size:11px;fill:#fff;">Guilds certificate and</text><text x="434.741px" y="509.336px" style="font-family:'ArialMT', 'Arial', sans-serif;font-size:11px;fill:#fff;">Digital Badge</text></g><g transform="matrix(1,0,0,1,-33.6407,-437.885)"><text x="406.709px" y="565.146px" style="font-family:'ArialMT', 'Arial', sans-serif;font-size:11px;fill:#fff;">Learner uses evidence of</text><text x="424.442px" y="576.506px" style="font-family:'ArialMT', 'Arial', sans-serif;font-size:11px;fill:#fff;">learning to pursue</text><text x="421.09px" y="587.866px" style="font-family:'ArialMT', 'Arial', sans-serif;font-size:11px;fill:#fff;">employment/further</text><text x="420.156px" y="599.225px" style="font-family:'ArialMT', 'Arial', sans-serif;font-size:11px;fill:#fff;">training and expand</text><text x="433.006px" y="610.585px" style="font-family:'ArialMT', 'Arial', sans-serif;font-size:11px;fill:#fff;">digital portfolio</text></g></g></svg>