<?xml version="1.0" encoding="UTF-8" standalone="no"?><!DOCTYPE svg PUBLIC "-//W3C//DTD SVG 1.1//EN" "http://www.w3.org/Graphics/SVG/1.1/DTD/svg11.dtd"><svg width="100%" height="100%" viewBox="0 0 814 1152" version="1.1" xmlns="http://www.w3.org/2000/svg" xmlns:xlink="http://www.w3.org/1999/xlink" xml:space="preserve" xmlns:serif="http://www.serif.com/" style="fill-rule:evenodd;clip-rule:evenodd;stroke-miterlimit:1.5;"><g><path d="M406.633,181.874l-367.326,174.246l69.843,326.264l299.468,286.972l-1.984,-787.483l-0.001,0.001Z" style="fill:none;stroke:#f3f3f3;stroke-width:0.7px;"/><path d="M77.72,535.565l330.159,140.797" style="fill:none;stroke:#f3f3f3;stroke-width:0.7px;"/><path d="M203.163,772.476l-72.427,-459.728" style="fill:none;stroke:#f3f3f3;stroke-width:0.7px;"/><path d="M280.029,846.135l-60.58,-575.467" style="fill:none;stroke:#f3f3f3;stroke-width:0.7px;"/><path d="M149.021,720.594l-72.945,-381.916" style="fill:none;stroke:#f3f3f3;stroke-width:0.7px;"/><path d="M408.462,907.776l-306.624,-259.546" style="fill:none;stroke:#f3f3f3;stroke-width:0.7px;"/><path d="M407.025,337.367l-357.561,66.212" style="fill:none;stroke:#f3f3f3;stroke-width:0.7px;"/><path d="M86.162,574.999l321.935,187.882" style="fill:none;stroke:#f3f3f3;stroke-width:0.7px;"/><path d="M68.894,494.334l338.739,84.537" style="fill:none;stroke:#f3f3f3;stroke-width:0.7px;"/><path d="M335.508,899.297l-42.168,-663.681" style="fill:none;stroke:#f3f3f3;stroke-width:0.7px;"/><path d="M237.558,805.434l-68.887,-510.679" style="fill:none;stroke:#f3f3f3;stroke-width:0.7px;"/><path d="M173.652,744.195l-73.428,-416.971" style="fill:none;stroke:#f3f3f3;stroke-width:0.7px;"/><path d="M55.903,348.247l71.611,351.728" style="fill:none;stroke:#f3f3f3;stroke-width:0.7px;"/><path d="M369.377,931.94l-26.058,-720.032" style="fill:none;stroke:#f3f3f3;stroke-width:0.7px;"/><path d="M305.987,871.009l-53.113,-616.197" style="fill:none;stroke:#f3f3f3;stroke-width:0.7px;"/><path d="M257.681,824.717l-65.524,-541.104" style="fill:none;stroke:#f3f3f3;stroke-width:0.7px;"/><path d="M220.109,788.65l-71.006,-484.615" style="fill:none;stroke:#f3f3f3;stroke-width:0.7px;"/><path d="M188.059,758.001l-73.163,-437.738" style="fill:none;stroke:#f3f3f3;stroke-width:0.7px;"/><path d="M160.954,732.027l-73.324,-398.83" style="fill:none;stroke:#f3f3f3;stroke-width:0.7px;"/><path d="M137.95,709.984l-72.362,-366.331" style="fill:none;stroke:#f3f3f3;stroke-width:0.7px;"/><path d="M118.268,691.14l-71.07,-338.874" style="fill:none;stroke:#f3f3f3;stroke-width:0.7px;"/><path d="M352.052,915.149l-34.796,-690.88" style="fill:none;stroke:#f3f3f3;stroke-width:0.7px;"/><path d="M272.28,245.606l48.113,639.209" style="fill:none;stroke:#f3f3f3;stroke-width:0.7px;"/><path d="M235.422,263.09l57.198,595.108" style="fill:none;stroke:#f3f3f3;stroke-width:0.7px;"/><path d="M205.267,277.394l63.282,557.738" style="fill:none;stroke:#f3f3f3;stroke-width:0.7px;"/><path d="M179.986,289.387l67.374,525.439" style="fill:none;stroke:#f3f3f3;stroke-width:0.7px;"/><path d="M228.633,796.882l-70.064,-497.336" style="fill:none;stroke:#f3f3f3;stroke-width:0.7px;"/><path d="M139.62,308.535l71.818,471.869" style="fill:none;stroke:#f3f3f3;stroke-width:0.7px;"/><path d="M122.579,316.619l72.863,448.458" style="fill:none;stroke:#f3f3f3;stroke-width:0.7px;"/><path d="M180.694,750.945l-73.351,-427.098" style="fill:none;stroke:#f3f3f3;stroke-width:0.7px;"/><path d="M93.759,330.29l73.414,407.698" style="fill:none;stroke:#f3f3f3;stroke-width:0.7px;"/><path d="M154.868,726.195l-73.164,-390.187" style="fill:none;stroke:#f3f3f3;stroke-width:0.7px;"/><path d="M70.703,341.227l72.676,373.959" style="fill:none;stroke:#f3f3f3;stroke-width:0.7px;"/><path d="M60.719,345.963l72.011,359.018" style="fill:none;stroke:#f3f3f3;stroke-width:0.7px;"/><path d="M51.519,350.327l71.344,345.188" style="fill:none;stroke:#f3f3f3;stroke-width:0.7px;"/><path d="M43.171,354.287l70.722,332.646" style="fill:none;stroke:#f3f3f3;stroke-width:0.7px;"/><path d="M388.265,949.853l-15.231,-751.905" style="fill:none;stroke:#f3f3f3;stroke-width:0.7px;"/><path d="M94.181,612.463l314.109,226.996" style="fill:none;stroke:#f3f3f3;stroke-width:0.7px;"/><path d="M59.595,450.898l347.755,15.39" style="fill:none;stroke:#f3f3f3;stroke-width:0.7px;"/><path d="M44.69,381.071l362.147,-118.352" style="fill:none;stroke:#f3f3f3;stroke-width:0.7px;"/><path d="M54.782,428.412l352.411,-24.349" style="fill:none;stroke:#f3f3f3;stroke-width:0.7px;"/><path d="M64.332,473.024l343.165,51.69" style="fill:none;stroke:#f3f3f3;stroke-width:0.7px;"/><path d="M73.366,515.227l334.394,113.867" style="fill:none;stroke:#f3f3f3;stroke-width:0.7px;"/><path d="M81.993,555.529l325.998,165.456" style="fill:none;stroke:#f3f3f3;stroke-width:0.7px;"/><path d="M90.22,593.957l317.976,208.347" style="fill:none;stroke:#f3f3f3;stroke-width:0.7px;"/><path d="M98.096,630.751l310.284,244.235" style="fill:none;stroke:#f3f3f3;stroke-width:0.7px;"/><path d="M105.54,665.525l303.002,273.937" style="fill:none;stroke:#f3f3f3;stroke-width:0.7px;"/><path d="M42.093,368.656l364.643,-145.481" style="fill:none;stroke:#f3f3f3;stroke-width:0.7px;"/><path d="M406.931,300.731l-359.661,92.6" style="fill:none;stroke:#f3f3f3;stroke-width:0.7px;"/><path d="M52.336,416.986l354.773,-45.712" style="fill:none;stroke:#f3f3f3;stroke-width:0.7px;"/><path d="M407.273,435.759l-350.066,3.973" style="fill:none;stroke:#f3f3f3;stroke-width:0.7px;"/><path d="M407.424,496.034l-345.444,-33.998" style="fill:none;stroke:#f3f3f3;stroke-width:0.7px;"/><path d="M407.564,552.262l-340.924,-68.443" style="fill:none;stroke:#f3f3f3;stroke-width:0.7px;"/><path d="M407.698,604.393l-336.538,-99.479" style="fill:none;stroke:#f3f3f3;stroke-width:0.7px;"/><path d="M407.819,653.116l-332.263,-127.653" style="fill:none;stroke:#f3f3f3;stroke-width:0.7px;"/><path d="M408.047,742.785l-323.905,-177.222" style="fill:none;stroke:#f3f3f3;stroke-width:0.7px;"/><path d="M407.936,699.033l-327.959,-153.37" style="fill:none;stroke:#f3f3f3;stroke-width:0.7px;"/><path d="M408.147,782.888l-319.945,-198.358" style="fill:none;stroke:#f3f3f3;stroke-width:0.7px;"/><path d="M408.245,821.15l-316.032,-217.884" style="fill:none;stroke:#f3f3f3;stroke-width:0.7px;"/><path d="M408.335,857.371l-312.101,-235.691" style="fill:none;stroke:#f3f3f3;stroke-width:0.7px;"/><path d="M408.422,891.508l-308.483,-252.15" style="fill:none;stroke:#f3f3f3;stroke-width:0.7px;"/><path d="M408.851,924.138l-305.155,-267.237" style="fill:none;stroke:#f3f3f3;stroke-width:0.7px;"/><path d="M408.58,954.607l-301.225,-280.601" style="fill:none;stroke:#f3f3f3;stroke-width:0.7px;"/><path d="M406.452,181.873l368.241,172.309l-69.918,328.929l-296.158,286.245" style="fill:none;stroke:#f3f3f3;stroke-width:0.7px;"/><path d="M736.435,534.172l-328.622,142.192" style="fill:none;stroke:#f3f3f3;stroke-width:0.7px;"/><path d="M613.032,771.394l70.005,-460.1" style="fill:none;stroke:#f3f3f3;stroke-width:0.7px;"/><path d="M536.553,845.458l57.548,-575.778" style="fill:none;stroke:#f3f3f3;stroke-width:0.7px;"/><path d="M666.897,719.227l70.934,-382.294" style="fill:none;stroke:#f3f3f3;stroke-width:0.7px;"/><path d="M408.449,907.776l303.825,-259.935" style="fill:none;stroke:#f3f3f3;stroke-width:0.7px;"/><path d="M406.881,337.367l357.902,64.327" style="fill:none;stroke:#f3f3f3;stroke-width:0.7px;"/><path d="M727.989,573.897l-319.94,188.984" style="fill:none;stroke:#f3f3f3;stroke-width:0.7px;"/><path d="M745.249,492.7l-337.705,86.171" style="fill:none;stroke:#f3f3f3;stroke-width:0.7px;"/><path d="M481.357,898.912l38.672,-663.896" style="fill:none;stroke:#f3f3f3;stroke-width:0.7px;"/><path d="M578.81,804.537l66.197,-511.038" style="fill:none;stroke:#f3f3f3;stroke-width:0.7px;"/><path d="M642.392,742.959l71.231,-417.353" style="fill:none;stroke:#f3f3f3;stroke-width:0.7px;"/><path d="M758.056,346.397l-71.552,354.402" style="fill:none;stroke:#f3f3f3;stroke-width:0.7px;"/><path d="M447.658,931.732l22.266,-720.159" style="fill:none;stroke:#f3f3f3;stroke-width:0.7px;"/><path d="M510.727,870.469l49.867,-616.468" style="fill:none;stroke:#f3f3f3;stroke-width:0.7px;"/><path d="M558.79,823.923l62.674,-541.443" style="fill:none;stroke:#f3f3f3;stroke-width:0.7px;"/><path d="M596.171,787.659l68.452,-484.981" style="fill:none;stroke:#f3f3f3;stroke-width:0.7px;"/><path d="M628.06,756.841l70.857,-438.116" style="fill:none;stroke:#f3f3f3;stroke-width:0.7px;"/><path d="M655.028,730.724l71.222,-399.212" style="fill:none;stroke:#f3f3f3;stroke-width:0.7px;"/><path d="M676.12,710.862l72.227,-369.008" style="fill:none;stroke:#f3f3f3;stroke-width:0.7px;"/><path d="M695.701,691.914l71.079,-341.544" style="fill:none;stroke:#f3f3f3;stroke-width:0.7px;"/><path d="M464.898,914.851l31.156,-691.054" style="fill:none;stroke:#f3f3f3;stroke-width:0.7px;"/><path d="M541.142,244.897l-44.746,639.453" style="fill:none;stroke:#f3f3f3;stroke-width:0.7px;"/><path d="M578.09,262.186l-54.063,595.403" style="fill:none;stroke:#f3f3f3;stroke-width:0.7px;"/><path d="M608.318,276.332l-60.344,558.063" style="fill:none;stroke:#f3f3f3;stroke-width:0.7px;"/><path d="M633.665,288.191l-64.606,525.788" style="fill:none;stroke:#f3f3f3;stroke-width:0.7px;"/><path d="M587.688,795.937l67.445,-497.698" style="fill:none;stroke:#f3f3f3;stroke-width:0.7px;"/><path d="M674.13,307.126l-69.331,472.241" style="fill:none;stroke:#f3f3f3;stroke-width:0.7px;"/><path d="M691.212,315.12l-70.5,448.834" style="fill:none;stroke:#f3f3f3;stroke-width:0.7px;"/><path d="M635.387,749.746l71.1,-427.48" style="fill:none;stroke:#f3f3f3;stroke-width:0.7px;"/><path d="M720.107,328.639l-71.266,408.077" style="fill:none;stroke:#f3f3f3;stroke-width:0.7px;"/><path d="M661.082,724.862l71.108,-390.566" style="fill:none;stroke:#f3f3f3;stroke-width:0.7px;"/><path d="M743.219,339.455l-72.5,376.636" style="fill:none;stroke:#f3f3f3;stroke-width:0.7px;"/><path d="M753.226,344.138l-71.914,361.695" style="fill:none;stroke:#f3f3f3;stroke-width:0.7px;"/><path d="M762.448,348.453l-71.319,347.863" style="fill:none;stroke:#f3f3f3;stroke-width:0.7px;"/><path d="M770.82,352.37l-70.763,335.316" style="fill:none;stroke:#f3f3f3;stroke-width:0.7px;"/><path d="M428.864,949.746l11.271,-751.976" style="fill:none;stroke:#f3f3f3;stroke-width:0.7px;"/><path d="M719.956,611.696l-311.695,227.76" style="fill:none;stroke:#f3f3f3;stroke-width:0.7px;"/><path d="M754.519,449.085l-347.286,17.202" style="fill:none;stroke:#f3f3f3;stroke-width:0.7px;"/><path d="M769.44,379.162l-362.767,-116.444" style="fill:none;stroke:#f3f3f3;stroke-width:0.7px;"/><path d="M759.313,426.537l-352.248,-22.475" style="fill:none;stroke:#f3f3f3;stroke-width:0.7px;"/><path d="M749.799,471.293l-342.405,53.42" style="fill:none;stroke:#f3f3f3;stroke-width:0.7px;"/><path d="M740.783,513.705l-333.102,115.388" style="fill:none;stroke:#f3f3f3;stroke-width:0.7px;"/><path d="M732.16,554.276l-324.226,166.71" style="fill:none;stroke:#f3f3f3;stroke-width:0.7px;"/><path d="M723.926,593.019l-315.768,209.284" style="fill:none;stroke:#f3f3f3;stroke-width:0.7px;"/><path d="M716.026,630.172l-307.67,244.813" style="fill:none;stroke:#f3f3f3;stroke-width:0.7px;"/><path d="M708.552,665.337l-300.018,274.126" style="fill:none;stroke:#f3f3f3;stroke-width:0.7px;"/><path d="M771.973,366.733l-365.407,-143.559" style="fill:none;stroke:#f3f3f3;stroke-width:0.7px;"/><path d="M406.781,300.73l360.143,90.705" style="fill:none;stroke:#f3f3f3;stroke-width:0.7px;"/><path d="M761.983,415.116l-355.011,-43.843" style="fill:none;stroke:#f3f3f3;stroke-width:0.7px;"/><path d="M407.152,435.758l349.749,2.131" style="fill:none;stroke:#f3f3f3;stroke-width:0.7px;"/><path d="M407.317,496.033l344.827,-35.771" style="fill:none;stroke:#f3f3f3;stroke-width:0.7px;"/><path d="M407.471,552.262l340.023,-70.127" style="fill:none;stroke:#f3f3f3;stroke-width:0.7px;"/><path d="M407.615,604.389l335.376,-101.058" style="fill:none;stroke:#f3f3f3;stroke-width:0.7px;"/><path d="M407.749,653.116l330.847,-129.112" style="fill:none;stroke:#f3f3f3;stroke-width:0.7px;"/><path d="M407.993,742.785l322.018,-178.4" style="fill:none;stroke:#f3f3f3;stroke-width:0.7px;"/><path d="M407.876,699.029l326.41,-154.744" style="fill:none;stroke:#f3f3f3;stroke-width:0.7px;"/><path d="M408.104,782.888l317.842,-199.379" style="fill:none;stroke:#f3f3f3;stroke-width:0.7px;"/><path d="M408.211,821.15l313.719,-218.736" style="fill:none;stroke:#f3f3f3;stroke-width:0.7px;"/><path d="M408.308,857.371l309.683,-236.435" style="fill:none;stroke:#f3f3f3;stroke-width:0.7px;"/><path d="M408.402,891.505l305.776,-252.636" style="fill:none;stroke:#f3f3f3;stroke-width:0.7px;"/><path d="M408.147,924.141l302.262,-267.528" style="fill:none;stroke:#f3f3f3;stroke-width:0.7px;"/><path d="M408.576,954.603l297.949,-279.882" style="fill:none;stroke:#f3f3f3;stroke-width:0.7px;"/></g><g><path d="M406.998,796.379c17.838,0 32.32,-110.951 32.32,-247.612c0,-136.66 -14.482,-247.612 -32.32,-247.612" style="fill:none;stroke:#f3f3f3;stroke-width:0.7px;"/><path d="M406.998,796.379c35.364,0 64.074,-110.951 64.074,-247.612c0,-136.66 -28.71,-247.612 -64.074,-247.612" style="fill:none;stroke:#f3f3f3;stroke-width:0.7px;"/><path d="M406.998,796.379c52.288,0 94.739,-110.951 94.739,-247.612c0,-136.66 -42.451,-247.612 -94.739,-247.612" style="fill:none;stroke:#f3f3f3;stroke-width:0.7px;"/><path d="M406.998,796.379c68.317,0 123.782,-110.951 123.782,-247.612c0,-136.66 -55.465,-247.612 -123.782,-247.612" style="fill:none;stroke:#f3f3f3;stroke-width:0.7px;"/><path d="M406.998,796.379c83.178,0 150.707,-110.951 150.707,-247.612c0,-136.66 -67.529,-247.612 -150.707,-247.612" style="fill:none;stroke:#f3f3f3;stroke-width:0.7px;"/><path d="M406.998,796.379c96.615,0 175.054,-110.951 175.054,-247.612c0,-136.66 -78.439,-247.612 -175.054,-247.612" style="fill:none;stroke:#f3f3f3;stroke-width:0.7px;"/><path d="M406.998,796.379c108.421,0 196.444,-110.951 196.444,-247.612c0,-136.66 -88.023,-247.612 -196.444,-247.612" style="fill:none;stroke:#f3f3f3;stroke-width:0.7px;"/><path d="M406.998,796.379c118.352,0 214.439,-110.951 214.439,-247.612c0,-136.66 -96.087,-247.612 -214.439,-247.612" style="fill:none;stroke:#f3f3f3;stroke-width:0.7px;"/><path d="M406.998,796.379c126.258,0 228.764,-110.951 228.764,-247.612c0,-136.66 -102.506,-247.612 -228.764,-247.612" style="fill:none;stroke:#f3f3f3;stroke-width:0.7px;"/><path d="M406.998,796.379c132.004,0 239.175,-110.951 239.175,-247.612c0,-136.66 -107.171,-247.612 -239.175,-247.612" style="fill:none;stroke:#f3f3f3;stroke-width:0.7px;"/><path d="M406.998,796.379c135.492,0 245.494,-110.951 245.494,-247.612c0,-136.66 -110.002,-247.612 -245.494,-247.612" style="fill:none;stroke:#f3f3f3;stroke-width:0.7px;"/><path d="M406.998,301.154c-17.838,0 -32.32,110.952 -32.32,247.612c0,136.661 14.482,247.612 32.32,247.612" style="fill:none;stroke:#f3f3f3;stroke-width:0.7px;"/><path d="M406.998,301.154c-35.363,0 -64.074,110.952 -64.074,247.612c0,136.661 28.711,247.612 64.074,247.612" style="fill:none;stroke:#f3f3f3;stroke-width:0.7px;"/><path d="M406.998,301.154c-52.287,0 -94.738,110.952 -94.738,247.612c0,136.661 42.451,247.612 94.738,247.612" style="fill:none;stroke:#f3f3f3;stroke-width:0.7px;"/><path d="M406.998,301.154c-68.317,0 -123.781,110.952 -123.781,247.612c0,136.661 55.464,247.612 123.781,247.612" style="fill:none;stroke:#f3f3f3;stroke-width:0.7px;"/><path d="M406.998,301.154c-83.177,0 -150.707,110.952 -150.707,247.612c0,136.661 67.53,247.612 150.707,247.612" style="fill:none;stroke:#f3f3f3;stroke-width:0.7px;"/><path d="M406.998,301.154c-96.615,0 -175.053,110.952 -175.053,247.612c0,136.661 78.438,247.612 175.053,247.612" style="fill:none;stroke:#f3f3f3;stroke-width:0.7px;"/><path d="M406.998,301.154c-108.42,0 -196.443,110.952 -196.443,247.612c0,136.661 88.023,247.612 196.443,247.612" style="fill:none;stroke:#f3f3f3;stroke-width:0.7px;"/><path d="M406.998,301.154c-118.351,0 -214.438,110.952 -214.438,247.612c0,136.661 96.087,247.612 214.438,247.612" style="fill:none;stroke:#f3f3f3;stroke-width:0.7px;"/><path d="M406.998,301.154c-126.258,0 -228.763,110.952 -228.763,247.612c0,136.661 102.505,247.612 228.763,247.612" style="fill:none;stroke:#f3f3f3;stroke-width:0.7px;"/><path d="M406.998,301.154c-132.004,0 -239.175,110.952 -239.175,247.612c0,136.661 107.171,247.612 239.175,247.612" style="fill:none;stroke:#f3f3f3;stroke-width:0.7px;"/><path d="M406.998,301.154c-135.491,0 -245.493,110.952 -245.493,247.612c0,136.661 110.002,247.612 245.493,247.612" style="fill:none;stroke:#f3f3f3;stroke-width:0.7px;"/><path d="M406.998,796.379l0,-495.225" style="fill:none;stroke:#f3f3f3;stroke-width:0.7px;"/><path d="M654.613,548.765c0,-17.838 -110.951,-32.32 -247.612,-32.32c-136.661,0 -247.612,14.482 -247.612,32.32" style="fill:none;stroke:#f3f3f3;stroke-width:0.7px;"/><path d="M654.613,548.765c0,-35.364 -110.951,-64.074 -247.612,-64.074c-136.661,0 -247.612,28.71 -247.612,64.074" style="fill:none;stroke:#f3f3f3;stroke-width:0.7px;"/><path d="M654.613,548.765c0,-52.288 -110.951,-94.738 -247.612,-94.738c-136.661,0 -247.612,42.45 -247.612,94.738" style="fill:none;stroke:#f3f3f3;stroke-width:0.7px;"/><path d="M654.613,548.765c0,-68.317 -110.951,-123.782 -247.612,-123.782c-136.661,0 -247.612,55.465 -247.612,123.782" style="fill:none;stroke:#f3f3f3;stroke-width:0.7px;"/><path d="M654.613,548.765c0,-83.178 -110.951,-150.707 -247.612,-150.707c-136.661,0 -247.612,67.529 -247.612,150.707" style="fill:none;stroke:#f3f3f3;stroke-width:0.7px;"/><path d="M654.613,548.765c0,-96.615 -110.951,-175.054 -247.612,-175.054c-136.661,0 -247.612,78.439 -247.612,175.054" style="fill:none;stroke:#f3f3f3;stroke-width:0.7px;"/><path d="M654.613,548.765c0,-108.421 -110.951,-196.444 -247.612,-196.444c-136.661,0 -247.612,88.023 -247.612,196.444" style="fill:none;stroke:#f3f3f3;stroke-width:0.7px;"/><path d="M654.613,548.765c0,-118.352 -110.951,-214.438 -247.612,-214.438c-136.661,0 -247.612,96.086 -247.612,214.438" style="fill:none;stroke:#f3f3f3;stroke-width:0.7px;"/><path d="M654.613,548.765c0,-126.258 -110.951,-228.764 -247.612,-228.764c-136.661,0 -247.612,102.506 -247.612,228.764" style="fill:none;stroke:#f3f3f3;stroke-width:0.7px;"/><path d="M654.613,548.765c0,-132.004 -110.951,-239.175 -247.612,-239.175c-136.661,0 -247.612,107.171 -247.612,239.175" style="fill:none;stroke:#f3f3f3;stroke-width:0.7px;"/><path d="M654.613,548.765c0,-135.492 -110.951,-245.494 -247.612,-245.494c-136.661,0 -247.612,110.002 -247.612,245.494" style="fill:none;stroke:#f3f3f3;stroke-width:0.7px;"/><path d="M159.388,548.765c0,17.838 110.951,32.32 247.612,32.32c136.66,0 247.611,-14.482 247.611,-32.32" style="fill:none;stroke:#f3f3f3;stroke-width:0.7px;"/><path d="M159.388,548.765c0,35.363 110.951,64.074 247.612,64.074c136.66,0 247.611,-28.711 247.611,-64.074" style="fill:none;stroke:#f3f3f3;stroke-width:0.7px;"/><path d="M159.388,548.765c0,52.287 110.951,94.738 247.612,94.738c136.66,0 247.611,-42.451 247.611,-94.738" style="fill:none;stroke:#f3f3f3;stroke-width:0.7px;"/><path d="M159.388,548.765c0,68.317 110.951,123.781 247.612,123.781c136.66,0 247.611,-55.464 247.611,-123.781" style="fill:none;stroke:#f3f3f3;stroke-width:0.7px;"/><path d="M159.388,548.765c0,83.177 110.951,150.707 247.612,150.707c136.66,0 247.611,-67.53 247.611,-150.707" style="fill:none;stroke:#f3f3f3;stroke-width:0.7px;"/><path d="M159.388,548.765c0,96.615 110.951,175.053 247.612,175.053c136.66,0 247.611,-78.438 247.611,-175.053" style="fill:none;stroke:#f3f3f3;stroke-width:0.7px;"/><path d="M159.388,548.765c0,108.42 110.951,196.444 247.612,196.444c136.66,0 247.611,-88.024 247.611,-196.444" style="fill:none;stroke:#f3f3f3;stroke-width:0.7px;"/><path d="M159.388,548.765c0,118.352 110.951,214.438 247.612,214.438c136.66,0 247.611,-96.086 247.611,-214.438" style="fill:none;stroke:#f3f3f3;stroke-width:0.7px;"/><path d="M159.388,548.765c0,126.258 110.951,228.763 247.612,228.763c136.66,0 247.611,-102.505 247.611,-228.763" style="fill:none;stroke:#f3f3f3;stroke-width:0.7px;"/><path d="M159.388,548.765c0,132.004 110.951,239.175 247.612,239.175c136.66,0 247.611,-107.171 247.611,-239.175" style="fill:none;stroke:#f3f3f3;stroke-width:0.7px;"/><path d="M159.388,548.765c0,135.491 110.951,245.494 247.612,245.494c136.66,0 247.611,-110.003 247.611,-245.494" style="fill:none;stroke:#f3f3f3;stroke-width:0.7px;"/><path d="M654.613,548.765l-495.226,0" style="fill:none;stroke:#f3f3f3;stroke-width:0.7px;"/></g></svg>