<?xml version="1.0" encoding="UTF-8" standalone="no"?><!DOCTYPE svg PUBLIC "-//W3C//DTD SVG 1.1//EN" "http://www.w3.org/Graphics/SVG/1.1/DTD/svg11.dtd"><svg width="100%" height="100%" viewBox="0 0 640 512" version="1.1" xmlns="http://www.w3.org/2000/svg" xmlns:xlink="http://www.w3.org/1999/xlink" xml:space="preserve" xmlns:serif="http://www.serif.com/" style="fill-rule:evenodd;clip-rule:evenodd;stroke-linejoin:round;stroke-miterlimit:1.41421;"><path d="M111.854,512l-97.042,0c-8.181,0 -14.812,-6.631 -14.812,-14.812l0,-19.749c0,-19.088 15.473,-34.561 34.561,-34.561l8.812,0c10.962,6.594 23.31,9.881 35.658,9.873l-0.034,-0.095c0.605,0.032 1.211,0.056 1.817,0.071c0.606,-0.015 1.212,-0.039 1.817,-0.071l-0.033,0.095c12.348,0.008 24.695,-3.279 35.657,-9.873l2.64,0c-4.081,4.864 -7.317,10.417 -9.435,16.431c-4.326,12.282 -3.729,26.168 -3.045,39.654c0.235,4.645 1.459,9.048 3.439,13.037Zm163.333,0l-132.005,0c-8.18,0 -14.812,-6.631 -14.812,-14.812l0,-0.019c-0.04,-6.571 -0.021,-13.143 0,-19.714l0,-0.016c0,-19.088 15.473,-34.561 34.561,-34.561l8.812,0c10.962,6.594 23.31,9.881 35.658,9.873l-0.034,-0.095c0.606,0.032 1.211,0.056 1.817,0.071c0.606,-0.015 1.212,-0.039 1.818,-0.071l-0.034,0.095c12.348,0.008 24.695,-3.279 35.657,-9.873l8.812,0c19.088,0 34.562,15.473 34.562,34.561l0,19.749c0,8.18 -6.631,14.811 -14.812,14.812Zm246.558,-69.122c10.962,6.594 23.31,9.881 35.657,9.873l-0.033,-0.095c0.605,0.032 1.211,0.056 1.817,0.071c0.606,-0.015 1.212,-0.039 1.817,-0.071l-0.034,0.095c12.348,0.008 24.695,-3.279 35.658,-9.873l8.812,0c19.088,0 34.561,15.474 34.561,34.561l0,19.749c0,8.18 -6.631,14.812 -14.812,14.812l-97.042,0c1.98,-3.988 3.204,-8.392 3.439,-13.037c0.684,-13.486 1.281,-27.372 -3.045,-39.654c-2.118,-6.014 -5.354,-11.567 -9.435,-16.431l2.64,0Zm-128.37,0c10.962,6.594 23.31,9.881 35.657,9.873l-0.034,-0.095c0.606,0.032 1.212,0.056 1.818,0.071c0.606,-0.015 1.211,-0.039 1.817,-0.071l-0.034,0.095c12.348,0.008 24.695,-3.279 35.658,-9.873l8.812,0c19.088,0 34.561,15.474 34.561,34.561l0,0.016c0.021,6.571 0.04,13.143 0,19.714l0,0.019c0,8.18 -6.631,14.812 -14.812,14.812l-132.005,0c-8.181,-0.001 -14.812,-6.632 -14.812,-14.812l0,-19.749c0,-19.088 15.474,-34.561 34.562,-34.561l8.812,0Zm-363.751,-59.248c0,-27.268 22.105,-49.373 49.373,-49.373c27.268,0 49.373,22.105 49.373,49.373c0,27.268 -22.105,49.373 -49.373,49.373c-27.268,0 -49.373,-22.105 -49.373,-49.373Zm128.37,0c0,-27.268 22.105,-49.373 49.373,-49.373c27.268,0 49.373,22.105 49.373,49.373c0,27.268 -22.105,49.373 -49.373,49.373c-27.268,0 -49.373,-22.105 -49.373,-49.373Zm452.382,0c0,-27.268 -22.105,-49.373 -49.373,-49.373c-27.268,0 -49.373,22.105 -49.373,49.373c0,27.268 22.105,49.373 49.373,49.373c27.268,0 49.373,-22.105 49.373,-49.373Zm-128.37,0c0,-27.268 -22.105,-49.373 -49.373,-49.373c-27.268,0 -49.373,22.105 -49.373,49.373c0,27.268 22.105,49.373 49.373,49.373c27.268,0 49.373,-22.105 49.373,-49.373Zm-166.621,-168.887c3.063,0 6.125,-0.018 9.186,0l0.044,0c6.288,0 11.385,5.098 11.385,11.386l0,0.014c0.022,3.616 0.028,7.232 0.026,10.848l-0.026,0l0,18.009c0,0 124.043,0 162.736,0c3.019,0 5.915,1.2 8.05,3.335c2.135,2.135 3.335,5.031 3.335,8.05c0,14.625 0,39.862 0,54.486c0,6.288 -5.097,11.386 -11.385,11.386c-2.998,0 -6.232,0 -9.23,0c-6.288,0 -11.385,-5.098 -11.385,-11.386c0,-13.406 0,-33.871 0,-33.871l-316.242,0c0,0 0,20.465 0,33.871c0,6.288 -5.097,11.386 -11.385,11.386c-2.998,0 -6.232,0 -9.23,0c-6.288,0 -11.385,-5.098 -11.385,-11.386c0,-14.624 0,-39.861 0,-54.486c0,-3.019 1.2,-5.915 3.335,-8.05c2.135,-2.135 5.031,-3.335 8.05,-3.335c38.693,0 162.736,0 162.736,0c0,0 0,-16.968 0,-28.871c0,-6.288 5.097,-11.386 11.385,-11.386l0,0Zm-31.385,20.257l-55.356,0c-4.419,-2.563 -7.39,-7.345 -7.39,-12.821l0,-43.201c0,-23.86 19.342,-43.202 43.201,-43.202l11.015,0c27.38,16.47 61.674,16.474 89.06,0l11.015,0c23.859,0 43.201,19.342 43.201,43.202l0,43.201c0,5.476 -2.971,10.257 -7.39,12.821l-55.356,0l0,-8.936c-0.002,-0.379 -0.008,-0.757 -0.022,-1.136c-0.63,-16.553 -15.175,-29.882 -30.963,-30.183c-3.343,-0.021 -6.687,-0.021 -10.03,0c-12.89,0.246 -24.985,8.972 -29.206,20.955c-1.579,4.484 -1.779,10.366 -1.779,10.366l0,8.934Zm-82.495,-17.758l-64.186,0c-8.18,0 -14.811,-6.632 -14.811,-14.812l0,-19.749c0,-19.088 15.473,-34.561 34.561,-34.562l8.812,0c12.028,7.235 25.724,10.49 39.258,9.779c-2.35,6.593 -3.634,13.689 -3.634,21.08l0,38.264Zm301.176,0l-64.186,0l0,-38.264c0.006,-7.183 -1.223,-14.314 -3.634,-21.08c13.531,0.711 27.226,-2.541 39.258,-9.779l8.812,0c19.088,0.001 34.561,15.474 34.561,34.562l0,19.749c0,8.18 -6.631,14.811 -14.811,14.812Zm-350.55,-128.37c0,-27.269 22.105,-49.374 49.374,-49.374c27.268,0 49.373,22.105 49.373,49.374c0,27.268 -22.105,49.373 -49.373,49.373c-27.269,0 -49.374,-22.105 -49.374,-49.373Zm236.991,0c0,-27.269 22.105,-49.374 49.373,-49.374c27.269,0 49.374,22.105 49.374,49.374c0,27.268 -22.105,49.373 -49.374,49.373c-27.268,0 -49.373,-22.105 -49.373,-49.373Zm-130.838,-27.156c0,-34.085 27.631,-61.716 61.716,-61.716c34.085,0 61.716,27.631 61.716,61.716c0,34.086 -27.631,61.717 -61.716,61.717c-34.085,0 -61.716,-27.631 -61.716,-61.717Z"/></svg>