<?xml version="1.0" encoding="utf-8"?>
<!-- Generator: Adobe Illustrator 19.2.0, SVG Export Plug-In . SVG Version: 6.00 Build 0)  -->
<svg version="1.1" id="Layer_1" xmlns="http://www.w3.org/2000/svg" xmlns:xlink="http://www.w3.org/1999/xlink" x="0px" y="0px"
	 viewBox="0 0 1441.5 1792" style="enable-background:new 0 0 1441.5 1792;" xml:space="preserve">
<path d="M1318.9,219.1H385.8c-70,0-153.3-30.7-188.3-65.7c-43.8-43.8-8.8-65.7,56.9-65.7h933.5c70,0,83.4-17.7,83.4-43.8
	s-13.1-43.8-78.8-43.8H122.6C56.9,0,0,56.9,0,122.6v1283.9c0,70,35,166.4,78.8,219.1l61.5,70c43.8,52.6,135.7,96.5,201.4,96.5H1319
	c70,0,122.6-56.9,122.6-122.6V341.7C1441.5,271.7,1384.6,219.1,1318.9,219.1z M1278.3,635.4l-251.2,766.6
	c-11.3,34.5-50.3,62.7-86.6,62.7H789c-36.3,0-75.2-28.2-86.5-62.7L452.4,635.4c-11.3-34.5,9.2-62.7,45.5-62.7h138.8
	c36.3,0,73.7,28.7,83.1,63.7L807.1,961c9.4,35.1,23.8,92.7,31.9,128.1c0,0,14.1,60.8,18.6,90.8s12,25.9,16.7-9.3c0,0,0,0,8.5-42.7
	c8.5-42.7,8.5-42.7,8.5-42.7c7.7-31.9,21.9-86.6,31.4-121.6l89.2-327.2c9.6-35,47.1-63.7,83.4-63.7h137.5
	C1269.2,572.6,1289.6,600.9,1278.3,635.4z"/>
</svg>
