<?xml version="1.0" encoding="UTF-8" standalone="no"?><!DOCTYPE svg PUBLIC "-//W3C//DTD SVG 1.1//EN" "http://www.w3.org/Graphics/SVG/1.1/DTD/svg11.dtd"><svg width="100%" height="100%" viewBox="0 0 25 19" version="1.1" xmlns="http://www.w3.org/2000/svg" xmlns:xlink="http://www.w3.org/1999/xlink" xml:space="preserve" xmlns:serif="http://www.serif.com/" style="fill-rule:evenodd;clip-rule:evenodd;stroke-linejoin:round;stroke-miterlimit:1.41421;"><path d="M22.656,18.999l-20.312,0c-1.295,0 -2.344,-1.05 -2.344,-2.344l0,-14.311c0,-1.295 1.049,-2.344 2.344,-2.344l20.312,0c1.295,0 2.344,1.049 2.344,2.344l0,14.311c0,1.294 -1.049,2.344 -2.344,2.344Zm-17.187,-16.265c-1.51,0 -2.735,1.225 -2.735,2.735c0,1.51 1.225,2.734 2.735,2.734c1.51,0 2.734,-1.224 2.734,-2.734c0,-1.51 -1.224,-2.735 -2.734,-2.735Zm-2.344,13.14l18.75,0l0,-5.718l-4.273,-4.273c-0.229,-0.229 -0.6,-0.229 -0.829,0l-6.617,6.617l-2.71,-2.711c-0.229,-0.229 -0.6,-0.229 -0.829,0l-3.492,3.492l0,2.593Z" style="fill-opacity:0.33;fill-rule:nonzero;"/></svg>