<?xml version="1.0" encoding="UTF-8" standalone="no"?><!DOCTYPE svg PUBLIC "-//W3C//DTD SVG 1.1//EN" "http://www.w3.org/Graphics/SVG/1.1/DTD/svg11.dtd"><svg width="100%" height="100%" viewBox="0 0 506 292" version="1.1" xmlns="http://www.w3.org/2000/svg" xmlns:xlink="http://www.w3.org/1999/xlink" xml:space="preserve" xmlns:serif="http://www.serif.com/" style="fill-rule:evenodd;clip-rule:evenodd;"><g><path d="M23.691,124.623l0,-101.898l12.324,0l0,101.898l-12.324,0Z" style="fill:#c8ddf1;"/><path d="M2.062,10.278c0,-1.09 0.208,-2.138 0.625,-3.144c0.417,-1.007 1.011,-1.895 1.781,-2.666c0.771,-0.77 1.659,-1.364 2.666,-1.781c1.006,-0.417 2.054,-0.625 3.144,-0.625l120.507,0c1.09,0 2.138,0.208 3.144,0.625c1.007,0.417 1.895,1.011 2.666,1.781c0.77,0.771 1.364,1.659 1.781,2.666c0.417,1.006 0.625,2.054 0.625,3.144l0,65.731c0,1.09 -0.208,2.138 -0.625,3.144c-0.417,1.007 -1.011,1.896 -1.781,2.666c-0.771,0.77 -1.659,1.364 -2.666,1.781c-1.006,0.417 -2.054,0.625 -3.144,0.625l-120.507,0c-1.09,0 -2.138,-0.208 -3.144,-0.625c-1.007,-0.417 -1.895,-1.011 -2.666,-1.781c-0.77,-0.77 -1.364,-1.659 -1.781,-2.666c-0.417,-1.006 -0.625,-2.054 -0.625,-3.144l0,-65.731Z" style="fill:#5998d4;stroke:#fff;stroke-width:1px;"/><path d="M23.691,227.328l0,-101.898l12.324,0l0,101.898l-12.324,0Z" style="fill:#c8ddf1;"/><path d="M2.062,112.983c0,-1.09 0.208,-2.138 0.625,-3.144c0.417,-1.007 1.011,-1.896 1.781,-2.666c0.771,-0.77 1.659,-1.364 2.666,-1.781c1.006,-0.417 2.054,-0.626 3.144,-0.626l120.507,0c1.09,0 2.138,0.209 3.144,0.626c1.007,0.417 1.895,1.011 2.666,1.781c0.77,0.77 1.364,1.659 1.781,2.666c0.417,1.006 0.625,2.054 0.625,3.144l0,65.731c0,1.09 -0.208,2.138 -0.625,3.144c-0.417,1.007 -1.011,1.895 -1.781,2.666c-0.771,0.77 -1.659,1.364 -2.666,1.781c-1.006,0.417 -2.054,0.625 -3.144,0.625l-120.507,0c-1.09,0 -2.138,-0.208 -3.144,-0.625c-1.007,-0.417 -1.895,-1.011 -2.666,-1.781c-0.77,-0.771 -1.364,-1.659 -1.781,-2.666c-0.417,-1.006 -0.625,-2.054 -0.625,-3.144l0,-65.731Z" style="fill:#5998d4;stroke:#fff;stroke-width:1px;"/><rect x="30.257" y="221.569" width="181.323" height="12.325" style="fill:#c8ddf1;"/><path d="M2.062,215.688c0,-1.09 0.208,-2.138 0.625,-3.144c0.417,-1.007 1.011,-1.896 1.781,-2.666c0.771,-0.77 1.659,-1.364 2.666,-1.781c1.006,-0.417 2.054,-0.626 3.144,-0.626l120.507,0c1.09,0 2.138,0.209 3.144,0.626c1.007,0.417 1.895,1.011 2.666,1.781c0.77,0.77 1.364,1.659 1.781,2.666c0.417,1.006 0.625,2.054 0.625,3.144l0,65.731c0,1.09 -0.208,2.138 -0.625,3.144c-0.417,1.007 -1.011,1.895 -1.781,2.666c-0.771,0.77 -1.659,1.364 -2.666,1.781c-1.006,0.417 -2.054,0.625 -3.144,0.625l-120.507,0c-1.09,0 -2.138,-0.208 -3.144,-0.625c-1.007,-0.417 -1.895,-1.011 -2.666,-1.781c-0.77,-0.771 -1.364,-1.659 -1.781,-2.666c-0.417,-1.006 -0.625,-2.054 -0.625,-3.144l0,-65.731Z" style="fill:#5998d4;stroke:#fff;stroke-width:1px;"/><path d="M218.146,125.43l0,101.898l-12.325,0l0,-101.898l12.325,0Z" style="fill:#c8ddf1;"/><path d="M184.192,215.688c0,-1.09 0.208,-2.138 0.625,-3.144c0.417,-1.007 1.011,-1.896 1.781,-2.666c0.771,-0.77 1.659,-1.364 2.666,-1.781c1.006,-0.417 2.054,-0.626 3.144,-0.626l120.507,0c1.09,0 2.138,0.209 3.144,0.626c1.007,0.417 1.896,1.011 2.666,1.781c0.77,0.77 1.364,1.659 1.781,2.666c0.417,1.006 0.625,2.054 0.625,3.144l0,65.731c0,1.09 -0.208,2.138 -0.625,3.144c-0.417,1.007 -1.011,1.895 -1.781,2.666c-0.77,0.77 -1.659,1.364 -2.666,1.781c-1.006,0.417 -2.054,0.625 -3.144,0.625l-120.507,0c-1.09,0 -2.138,-0.208 -3.144,-0.625c-1.007,-0.417 -1.895,-1.011 -2.666,-1.781c-0.77,-0.771 -1.364,-1.659 -1.781,-2.666c-0.417,-1.006 -0.625,-2.054 -0.625,-3.144l0,-65.731Z" style="fill:#5998d4;stroke:#fff;stroke-width:1px;"/><path d="M218.146,22.725l0,101.898l-12.325,0l0,-101.898l12.325,0Z" style="fill:#c8ddf1;"/><path d="M184.192,112.983c0,-1.09 0.208,-2.138 0.625,-3.144c0.417,-1.007 1.011,-1.896 1.781,-2.666c0.771,-0.77 1.659,-1.364 2.666,-1.781c1.006,-0.417 2.054,-0.626 3.144,-0.626l120.507,0c1.09,0 2.138,0.209 3.144,0.626c1.007,0.417 1.896,1.011 2.666,1.781c0.77,0.77 1.364,1.659 1.781,2.666c0.417,1.006 0.625,2.054 0.625,3.144l0,65.731c0,1.09 -0.208,2.138 -0.625,3.144c-0.417,1.007 -1.011,1.895 -1.781,2.666c-0.77,0.77 -1.659,1.364 -2.666,1.781c-1.006,0.417 -2.054,0.625 -3.144,0.625l-120.507,0c-1.09,0 -2.138,-0.208 -3.144,-0.625c-1.007,-0.417 -1.895,-1.011 -2.666,-1.781c-0.77,-0.771 -1.364,-1.659 -1.781,-2.666c-0.417,-1.006 -0.625,-2.054 -0.625,-3.144l0,-65.731Z" style="fill:#5998d4;stroke:#fff;stroke-width:1px;"/><rect x="212.387" y="16.159" width="181.323" height="12.325" style="fill:#c8ddf1;"/><path d="M184.192,10.278c0,-1.09 0.208,-2.138 0.625,-3.144c0.417,-1.007 1.011,-1.895 1.781,-2.666c0.771,-0.77 1.659,-1.364 2.666,-1.781c1.006,-0.417 2.054,-0.625 3.144,-0.625l120.507,0c1.09,0 2.138,0.208 3.144,0.625c1.007,0.417 1.896,1.011 2.666,1.781c0.77,0.771 1.364,1.659 1.781,2.666c0.417,1.006 0.625,2.054 0.625,3.144l0,65.731c0,1.09 -0.208,2.138 -0.625,3.144c-0.417,1.007 -1.011,1.896 -1.781,2.666c-0.77,0.77 -1.659,1.364 -2.666,1.781c-1.006,0.417 -2.054,0.625 -3.144,0.625l-120.507,0c-1.09,0 -2.138,-0.208 -3.144,-0.625c-1.007,-0.417 -1.895,-1.011 -2.666,-1.781c-0.77,-0.77 -1.364,-1.659 -1.781,-2.666c-0.417,-1.006 -0.625,-2.054 -0.625,-3.144l0,-65.731Z" style="fill:#5998d4;stroke:#fff;stroke-width:1px;"/><path d="M387.951,124.623l0,-101.898l12.325,0l0,101.898l-12.325,0Z" style="fill:#c8ddf1;"/><path d="M366.322,10.278c0,-1.09 0.208,-2.138 0.625,-3.144c0.417,-1.007 1.011,-1.895 1.781,-2.666c0.771,-0.77 1.659,-1.364 2.666,-1.781c1.006,-0.417 2.054,-0.625 3.144,-0.625l120.507,0c1.09,0 2.138,0.208 3.144,0.625c1.007,0.417 1.896,1.011 2.666,1.781c0.77,0.771 1.364,1.659 1.781,2.666c0.417,1.006 0.626,2.054 0.626,3.144l0,65.731c0,1.09 -0.209,2.138 -0.626,3.144c-0.417,1.007 -1.011,1.896 -1.781,2.666c-0.77,0.77 -1.659,1.364 -2.666,1.781c-1.006,0.417 -2.054,0.625 -3.144,0.625l-120.507,0c-1.09,0 -2.138,-0.208 -3.144,-0.625c-1.007,-0.417 -1.895,-1.011 -2.666,-1.781c-0.77,-0.77 -1.364,-1.659 -1.781,-2.666c-0.417,-1.006 -0.625,-2.054 -0.625,-3.144l0,-65.731Z" style="fill:#5998d4;stroke:#fff;stroke-width:1px;"/><path d="M366.322,112.983c0,-1.09 0.208,-2.138 0.625,-3.144c0.417,-1.007 1.011,-1.896 1.781,-2.666c0.771,-0.77 1.659,-1.364 2.666,-1.781c1.006,-0.417 2.054,-0.626 3.144,-0.626l120.507,0c1.09,0 2.138,0.209 3.144,0.626c1.007,0.417 1.896,1.011 2.666,1.781c0.77,0.77 1.364,1.659 1.781,2.666c0.417,1.006 0.626,2.054 0.626,3.144l0,65.731c0,1.09 -0.209,2.138 -0.626,3.144c-0.417,1.007 -1.011,1.895 -1.781,2.666c-0.77,0.77 -1.659,1.364 -2.666,1.781c-1.006,0.417 -2.054,0.625 -3.144,0.625l-120.507,0c-1.09,0 -2.138,-0.208 -3.144,-0.625c-1.007,-0.417 -1.895,-1.011 -2.666,-1.781c-0.77,-0.771 -1.364,-1.659 -1.781,-2.666c-0.417,-1.006 -0.625,-2.054 -0.625,-3.144l0,-65.731Z" style="fill:#5998d4;stroke:#fff;stroke-width:1px;"/><g transform="matrix(1,2.78625e-15,0,1,-53.9152,-144.72)"><text x="67.586px" y="179.064px" style="font-family:'ArialMT', 'Arial', sans-serif;font-size:11px;fill:#fff;">Partner orders required</text><text x="70.338px" y="190.424px" style="font-family:'ArialMT', 'Arial', sans-serif;font-size:11px;fill:#fff;">number of licences for</text><text x="68.547px" y="201.784px" style="font-family:'ArialMT', 'Arial', sans-serif;font-size:11px;fill:#fff;">the &apos;English Skills T<tspan x="163.572px 169.69px " y="201.784px 201.784px ">es</tspan>t&apos;</text></g><g transform="matrix(1,0,0,1,-53.1611,-125.266)"><text x="73.239px" y="263.343px" style="font-family:'ArialMT', 'Arial', sans-serif;font-size:11px;fill:#fff;">Login code issued to</text><text x="69.584px" y="274.702px" style="font-family:'ArialMT', 'Arial', sans-serif;font-size:11px;fill:#fff;">Partner for distribution</text><text x="96.786px" y="286.062px" style="font-family:'ArialMT', 'Arial', sans-serif;font-size:11px;fill:#fff;">to students</text></g><g transform="matrix(1,0,0,1,-53.1611,-22.561)"><text x="87.929px" y="251.983px" style="font-family:'ArialMT', 'Arial', sans-serif;font-size:11px;fill:#fff;">Partner makes</text><text x="81.811px" y="263.343px" style="font-family:'ArialMT', 'Arial', sans-serif;font-size:11px;fill:#fff;">arrangements for</text><text x="65.295px" y="274.702px" style="font-family:'ArialMT', 'Arial', sans-serif;font-size:11px;fill:#fff;">students to take the test</text><text x="71.421px" y="286.062px" style="font-family:'ArialMT', 'Arial', sans-serif;font-size:11px;fill:#fff;">and for tutors to mark</text><text x="71.413px" y="297.422px" style="font-family:'ArialMT', 'Arial', sans-serif;font-size:11px;fill:#fff;">Wr<tspan x="85.458px " y="297.422px ">i</tspan>ting and Speaking</text></g><g transform="matrix(1,0,0,1,-38.8709,-112.526)"><text x="229.947px" y="353.659px" style="font-family:'ArialMT', 'Arial', sans-serif;font-size:11px;fill:#fff;">Student receives &apos;English</text><text x="234.849px" y="365.019px" style="font-family:'ArialMT', 'Arial', sans-serif;font-size:11px;fill:#fff;">Skills T<tspan x="270.292px 276.41px " y="365.019px 365.019px ">es</tspan>t&apos; login details</text><text x="261.578px" y="376.379px" style="font-family:'ArialMT', 'Arial', sans-serif;font-size:11px;fill:#fff;">from partner</text></g><g transform="matrix(1,0,0,1,-40.26,-125.266)"><text x="240.333px" y="257.663px" style="font-family:'ArialMT', 'Arial', sans-serif;font-size:11px;fill:#fff;">Student accesses the</text><text x="248.897px" y="269.022px" style="font-family:'ArialMT', 'Arial', sans-serif;font-size:11px;fill:#fff;">test as advised by</text><text x="238.195px" y="280.382px" style="font-family:'ArialMT', 'Arial', sans-serif;font-size:11px;fill:#fff;">partner and completes</text><text x="257.762px" y="291.742px" style="font-family:'ArialMT', 'Arial', sans-serif;font-size:11px;fill:#fff;">it in one sitting</text></g><g transform="matrix(1,0,-2.049e-08,1,-30.9793,-124.579)"><text x="236.571px" y="153.243px" style="font-family:'ArialMT', 'Arial', sans-serif;font-size:11px;fill:#fff;">Tu<tspan x="249.408px " y="153.243px ">t</tspan>ors from partner</text><text x="220.649px" y="164.603px" style="font-family:'ArialMT', 'Arial', sans-serif;font-size:11px;fill:#fff;">organisation login and get</text><text x="224.328px" y="175.962px" style="font-family:'ArialMT', 'Arial', sans-serif;font-size:11px;fill:#fff;">notification of completed</text><text x="272.026px" y="187.322px" style="font-family:'ArialMT', 'Arial', sans-serif;font-size:11px;fill:#fff;">tests</text></g><g transform="matrix(1,0,0,1,-7.68131,-138.006)"><text x="398.76px" y="178.03px" style="font-family:'ArialMT', 'Arial', sans-serif;font-size:11px;fill:#fff;">Tu<tspan x="411.597px " y="178.03px ">t</tspan>ors review and</text><text x="410.684px" y="189.39px" style="font-family:'ArialMT', 'Arial', sans-serif;font-size:11px;fill:#fff;">mark the test</text></g><g transform="matrix(1,0,0,1,-8.45753,-118.552)"><text x="391.585px" y="250.949px" style="font-family:'ArialMT', 'Arial', sans-serif;font-size:11px;fill:#fff;">Reports for individual</text><text x="405.031px" y="262.309px" style="font-family:'ArialMT', 'Arial', sans-serif;font-size:11px;fill:#fff;">students issued</text><text x="386.388px" y="273.668px" style="font-family:'ArialMT', 'Arial', sans-serif;font-size:11px;fill:#fff;">electronically to partner</text><text x="408.705px" y="285.028px" style="font-family:'ArialMT', 'Arial', sans-serif;font-size:11px;fill:#fff;">for distribution</text></g></g></svg>