<?xml version="1.0" encoding="UTF-8" standalone="no"?><!DOCTYPE svg PUBLIC "-//W3C//DTD SVG 1.1//EN" "http://www.w3.org/Graphics/SVG/1.1/DTD/svg11.dtd"><svg width="100%" height="100%" viewBox="0 0 506 292" version="1.1" xmlns="http://www.w3.org/2000/svg" xmlns:xlink="http://www.w3.org/1999/xlink" xml:space="preserve" xmlns:serif="http://www.serif.com/" style="fill-rule:evenodd;clip-rule:evenodd;"><g><path d="M23.691,124.623l0,-101.898l12.324,0l0,101.898l-12.324,0Z" style="fill:#c8ddf1;"/><path d="M2.062,10.278c0,-1.09 0.208,-2.138 0.625,-3.144c0.417,-1.007 1.011,-1.895 1.781,-2.666c0.771,-0.77 1.659,-1.364 2.666,-1.781c1.006,-0.417 2.054,-0.625 3.144,-0.625l120.507,0c1.09,0 2.138,0.208 3.144,0.625c1.007,0.417 1.895,1.011 2.666,1.781c0.77,0.771 1.364,1.659 1.781,2.666c0.417,1.006 0.625,2.054 0.625,3.144l0,65.731c0,1.09 -0.208,2.138 -0.625,3.144c-0.417,1.007 -1.011,1.896 -1.781,2.666c-0.771,0.77 -1.659,1.364 -2.666,1.781c-1.006,0.417 -2.054,0.625 -3.144,0.625l-120.507,0c-1.09,0 -2.138,-0.208 -3.144,-0.625c-1.007,-0.417 -1.895,-1.011 -2.666,-1.781c-0.77,-0.77 -1.364,-1.659 -1.781,-2.666c-0.417,-1.006 -0.625,-2.054 -0.625,-3.144l0,-65.731Z" style="fill:#5998d4;stroke:#fff;stroke-width:1px;"/><path d="M23.691,227.328l0,-101.898l12.324,0l0,101.898l-12.324,0Z" style="fill:#c8ddf1;"/><path d="M2.062,112.983c0,-1.09 0.208,-2.138 0.625,-3.144c0.417,-1.007 1.011,-1.896 1.781,-2.666c0.771,-0.77 1.659,-1.364 2.666,-1.781c1.006,-0.417 2.054,-0.626 3.144,-0.626l120.507,0c1.09,0 2.138,0.209 3.144,0.626c1.007,0.417 1.895,1.011 2.666,1.781c0.77,0.77 1.364,1.659 1.781,2.666c0.417,1.006 0.625,2.054 0.625,3.144l0,65.731c0,1.09 -0.208,2.138 -0.625,3.144c-0.417,1.007 -1.011,1.895 -1.781,2.666c-0.771,0.77 -1.659,1.364 -2.666,1.781c-1.006,0.417 -2.054,0.625 -3.144,0.625l-120.507,0c-1.09,0 -2.138,-0.208 -3.144,-0.625c-1.007,-0.417 -1.895,-1.011 -2.666,-1.781c-0.77,-0.771 -1.364,-1.659 -1.781,-2.666c-0.417,-1.006 -0.625,-2.054 -0.625,-3.144l0,-65.731Z" style="fill:#5998d4;stroke:#fff;stroke-width:1px;"/><rect x="30.257" y="221.569" width="181.323" height="12.325" style="fill:#c8ddf1;"/><path d="M2.062,215.688c0,-1.09 0.208,-2.138 0.625,-3.144c0.417,-1.007 1.011,-1.896 1.781,-2.666c0.771,-0.77 1.659,-1.364 2.666,-1.781c1.006,-0.417 2.054,-0.626 3.144,-0.626l120.507,0c1.09,0 2.138,0.209 3.144,0.626c1.007,0.417 1.895,1.011 2.666,1.781c0.77,0.77 1.364,1.659 1.781,2.666c0.417,1.006 0.625,2.054 0.625,3.144l0,65.731c0,1.09 -0.208,2.138 -0.625,3.144c-0.417,1.007 -1.011,1.895 -1.781,2.666c-0.771,0.77 -1.659,1.364 -2.666,1.781c-1.006,0.417 -2.054,0.625 -3.144,0.625l-120.507,0c-1.09,0 -2.138,-0.208 -3.144,-0.625c-1.007,-0.417 -1.895,-1.011 -2.666,-1.781c-0.77,-0.771 -1.364,-1.659 -1.781,-2.666c-0.417,-1.006 -0.625,-2.054 -0.625,-3.144l0,-65.731Z" style="fill:#5998d4;stroke:#fff;stroke-width:1px;"/><path d="M218.146,125.43l0,101.898l-12.325,0l0,-101.898l12.325,0Z" style="fill:#c8ddf1;"/><path d="M184.192,215.688c0,-1.09 0.208,-2.138 0.625,-3.144c0.417,-1.007 1.011,-1.896 1.781,-2.666c0.771,-0.77 1.659,-1.364 2.666,-1.781c1.006,-0.417 2.054,-0.626 3.144,-0.626l120.507,0c1.09,0 2.138,0.209 3.144,0.626c1.007,0.417 1.896,1.011 2.666,1.781c0.77,0.77 1.364,1.659 1.781,2.666c0.417,1.006 0.625,2.054 0.625,3.144l0,65.731c0,1.09 -0.208,2.138 -0.625,3.144c-0.417,1.007 -1.011,1.895 -1.781,2.666c-0.77,0.77 -1.659,1.364 -2.666,1.781c-1.006,0.417 -2.054,0.625 -3.144,0.625l-120.507,0c-1.09,0 -2.138,-0.208 -3.144,-0.625c-1.007,-0.417 -1.895,-1.011 -2.666,-1.781c-0.77,-0.771 -1.364,-1.659 -1.781,-2.666c-0.417,-1.006 -0.625,-2.054 -0.625,-3.144l0,-65.731Z" style="fill:#5998d4;stroke:#fff;stroke-width:1px;"/><path d="M218.146,22.725l0,101.898l-12.325,0l0,-101.898l12.325,0Z" style="fill:#c8ddf1;"/><path d="M184.192,112.983c0,-1.09 0.208,-2.138 0.625,-3.144c0.417,-1.007 1.011,-1.896 1.781,-2.666c0.771,-0.77 1.659,-1.364 2.666,-1.781c1.006,-0.417 2.054,-0.626 3.144,-0.626l120.507,0c1.09,0 2.138,0.209 3.144,0.626c1.007,0.417 1.896,1.011 2.666,1.781c0.77,0.77 1.364,1.659 1.781,2.666c0.417,1.006 0.625,2.054 0.625,3.144l0,65.731c0,1.09 -0.208,2.138 -0.625,3.144c-0.417,1.007 -1.011,1.895 -1.781,2.666c-0.77,0.77 -1.659,1.364 -2.666,1.781c-1.006,0.417 -2.054,0.625 -3.144,0.625l-120.507,0c-1.09,0 -2.138,-0.208 -3.144,-0.625c-1.007,-0.417 -1.895,-1.011 -2.666,-1.781c-0.77,-0.771 -1.364,-1.659 -1.781,-2.666c-0.417,-1.006 -0.625,-2.054 -0.625,-3.144l0,-65.731Z" style="fill:#5998d4;stroke:#fff;stroke-width:1px;"/><rect x="212.387" y="16.159" width="181.323" height="12.325" style="fill:#c8ddf1;"/><path d="M184.192,10.278c0,-1.09 0.208,-2.138 0.625,-3.144c0.417,-1.007 1.011,-1.895 1.781,-2.666c0.771,-0.77 1.659,-1.364 2.666,-1.781c1.006,-0.417 2.054,-0.625 3.144,-0.625l120.507,0c1.09,0 2.138,0.208 3.144,0.625c1.007,0.417 1.896,1.011 2.666,1.781c0.77,0.771 1.364,1.659 1.781,2.666c0.417,1.006 0.625,2.054 0.625,3.144l0,65.731c0,1.09 -0.208,2.138 -0.625,3.144c-0.417,1.007 -1.011,1.896 -1.781,2.666c-0.77,0.77 -1.659,1.364 -2.666,1.781c-1.006,0.417 -2.054,0.625 -3.144,0.625l-120.507,0c-1.09,0 -2.138,-0.208 -3.144,-0.625c-1.007,-0.417 -1.895,-1.011 -2.666,-1.781c-0.77,-0.77 -1.364,-1.659 -1.781,-2.666c-0.417,-1.006 -0.625,-2.054 -0.625,-3.144l0,-65.731Z" style="fill:#5998d4;stroke:#fff;stroke-width:1px;"/><path d="M387.951,124.623l0,-101.898l12.325,0l0,101.898l-12.325,0Z" style="fill:#c8ddf1;"/><path d="M366.322,10.278c0,-1.09 0.208,-2.138 0.625,-3.144c0.417,-1.007 1.011,-1.895 1.781,-2.666c0.771,-0.77 1.659,-1.364 2.666,-1.781c1.006,-0.417 2.054,-0.625 3.144,-0.625l120.507,0c1.09,0 2.138,0.208 3.144,0.625c1.007,0.417 1.896,1.011 2.666,1.781c0.77,0.771 1.364,1.659 1.781,2.666c0.417,1.006 0.626,2.054 0.626,3.144l0,65.731c0,1.09 -0.209,2.138 -0.626,3.144c-0.417,1.007 -1.011,1.896 -1.781,2.666c-0.77,0.77 -1.659,1.364 -2.666,1.781c-1.006,0.417 -2.054,0.625 -3.144,0.625l-120.507,0c-1.09,0 -2.138,-0.208 -3.144,-0.625c-1.007,-0.417 -1.895,-1.011 -2.666,-1.781c-0.77,-0.77 -1.364,-1.659 -1.781,-2.666c-0.417,-1.006 -0.625,-2.054 -0.625,-3.144l0,-65.731Z" style="fill:#5998d4;stroke:#fff;stroke-width:1px;"/><path d="M366.322,112.983c0,-1.09 0.208,-2.138 0.625,-3.144c0.417,-1.007 1.011,-1.896 1.781,-2.666c0.771,-0.77 1.659,-1.364 2.666,-1.781c1.006,-0.417 2.054,-0.626 3.144,-0.626l120.507,0c1.09,0 2.138,0.209 3.144,0.626c1.007,0.417 1.896,1.011 2.666,1.781c0.77,0.77 1.364,1.659 1.781,2.666c0.417,1.006 0.626,2.054 0.626,3.144l0,65.731c0,1.09 -0.209,2.138 -0.626,3.144c-0.417,1.007 -1.011,1.895 -1.781,2.666c-0.77,0.77 -1.659,1.364 -2.666,1.781c-1.006,0.417 -2.054,0.625 -3.144,0.625l-120.507,0c-1.09,0 -2.138,-0.208 -3.144,-0.625c-1.007,-0.417 -1.895,-1.011 -2.666,-1.781c-0.77,-0.771 -1.364,-1.659 -1.781,-2.666c-0.417,-1.006 -0.625,-2.054 -0.625,-3.144l0,-65.731Z" style="fill:#5998d4;stroke:#fff;stroke-width:1px;"/><g transform="matrix(1,0,0,1,-59.3149,-144.72)"><text x="68.092px" y="184.744px" style="font-family:'ArialMT', 'Arial', sans-serif;font-size:11px;fill:#fff;">Learner clicks on College</text><text x="111.198px" y="196.104px" style="font-family:'ArialMT', 'Arial', sans-serif;font-size:11px;fill:#fff;">website</text></g><g transform="matrix(1,0,0,1,-53.1611,-125.266)"><text x="68.351px" y="263.343px" style="font-family:'ArialMT', 'Arial', sans-serif;font-size:11px;fill:#fff;">Learner agrees to take</text><text x="66.523px" y="274.702px" style="font-family:'ArialMT', 'Arial', sans-serif;font-size:11px;fill:#fff;">programme and agrees</text><text x="108.892px" y="286.062px" style="font-family:'ArialMT', 'Arial', sans-serif;font-size:11px;fill:#fff;">T&amp;C&apos;s</text></g><text x="18.249px" y="252.141px" style="font-family:'ArialMT', 'Arial', sans-serif;font-size:11px;fill:#fff;">Learner pays College</text><g transform="matrix(1,0,0,1,-29.7459,-112.526)"><text x="241.442px" y="353.659px" style="font-family:'ArialMT', 'Arial', sans-serif;font-size:11px;fill:#fff;">Learner receives</text><text x="233.198px" y="365.019px" style="font-family:'ArialMT', 'Arial', sans-serif;font-size:11px;fill:#fff;">welcome email  with</text><text x="253.361px" y="376.379px" style="font-family:'ArialMT', 'Arial', sans-serif;font-size:11px;fill:#fff;">login details</text></g><g transform="matrix(1,0,0,1,-29.0062,-125.266)"><text x="238.256px" y="263.343px" style="font-family:'ArialMT', 'Arial', sans-serif;font-size:11px;fill:#fff;">Learner accesses</text><text x="235.847px" y="274.702px" style="font-family:'ArialMT', 'Arial', sans-serif;font-size:11px;fill:#fff;">&apos;Journey 2 English&apos;</text><text x="261.188px" y="286.062px" style="font-family:'ArialMT', 'Arial', sans-serif;font-size:11px;fill:#fff;">program</text></g><g transform="matrix(1,0,-2.049e-08,1,-30.9793,-124.579)"><text x="233.507px" y="147.563px" style="font-family:'ArialMT', 'Arial', sans-serif;font-size:11px;fill:#fff;">Learner successfully</text><text x="227.397px" y="158.923px" style="font-family:'ArialMT', 'Arial', sans-serif;font-size:11px;fill:#fff;">completes programme,</text><text x="224.634px" y="170.283px" style="font-family:'ArialMT', 'Arial', sans-serif;font-size:11px;fill:#fff;">receives notification and</text><text x="233.196px" y="181.642px" style="font-family:'ArialMT', 'Arial', sans-serif;font-size:11px;fill:#fff;">chooses to receive a</text><text x="260.105px" y="193.002px" style="font-family:'ArialMT', 'Arial', sans-serif;font-size:11px;fill:#fff;">certificate</text></g><g transform="matrix(1,0,0,1,-7.68131,-138.006)"><text x="385.306px" y="172.35px" style="font-family:'ArialMT', 'Arial', sans-serif;font-size:11px;fill:#fff;">Learner receives an FE</text><text x="391.115px" y="183.71px" style="font-family:'ArialMT', 'Arial', sans-serif;font-size:11px;fill:#fff;">College  certificate of</text><text x="411.288px" y="195.07px" style="font-family:'ArialMT', 'Arial', sans-serif;font-size:11px;fill:#fff;">achievement</text></g><g transform="matrix(1,0,0,1,-8.45753,-118.552)"><text x="381.487px" y="250.949px" style="font-family:'ArialMT', 'Arial', sans-serif;font-size:11px;fill:#fff;">Learner uses evidence of</text><text x="399.22px" y="262.309px" style="font-family:'ArialMT', 'Arial', sans-serif;font-size:11px;fill:#fff;">learning to pursue</text><text x="395.868px" y="273.668px" style="font-family:'ArialMT', 'Arial', sans-serif;font-size:11px;fill:#fff;">employment/further</text><text x="425.21px" y="285.028px" style="font-family:'ArialMT', 'Arial', sans-serif;font-size:11px;fill:#fff;">training</text></g></g></svg>