<?xml version="1.0" encoding="UTF-8" standalone="no"?><!DOCTYPE svg PUBLIC "-//W3C//DTD SVG 1.1//EN" "http://www.w3.org/Graphics/SVG/1.1/DTD/svg11.dtd"><svg width="100%" height="100%" viewBox="0 0 506 310" version="1.1" xmlns="http://www.w3.org/2000/svg" xmlns:xlink="http://www.w3.org/1999/xlink" xml:space="preserve" xmlns:serif="http://www.serif.com/" style="fill-rule:evenodd;clip-rule:evenodd;"><g><path d="M23.644,124.623l0,-101.992l12.324,0l0,101.992l-12.324,0Z" style="fill:#c8ddf1;"/><path d="M2.062,10.278c0,-1.09 0.208,-2.138 0.625,-3.144c0.417,-1.007 1.011,-1.895 1.781,-2.666c0.771,-0.77 1.659,-1.364 2.666,-1.781c1.006,-0.417 2.054,-0.625 3.144,-0.625l120.507,0c1.09,0 2.138,0.208 3.144,0.625c1.007,0.417 1.895,1.011 2.666,1.781c0.77,0.771 1.364,1.659 1.781,2.666c0.417,1.006 0.625,2.054 0.625,3.144l0,65.731c0,1.09 -0.208,2.138 -0.625,3.144c-0.417,1.007 -1.011,1.896 -1.781,2.666c-0.771,0.77 -1.659,1.364 -2.666,1.781c-1.006,0.417 -2.054,0.626 -3.144,0.626l-120.507,0c-1.09,0 -2.138,-0.209 -3.144,-0.626c-1.007,-0.417 -1.895,-1.011 -2.666,-1.781c-0.77,-0.77 -1.364,-1.659 -1.781,-2.666c-0.417,-1.006 -0.625,-2.054 -0.625,-3.144l0,-65.731Z" style="fill:#5998d4;stroke:#fff;stroke-width:1px;"/><path d="M23.644,227.328l0,-101.992l12.324,0l0,101.992l-12.324,0Z" style="fill:#c8ddf1;"/><path d="M2.062,112.983c0,-1.09 0.208,-2.138 0.625,-3.144c0.417,-1.007 1.011,-1.896 1.781,-2.666c0.771,-0.77 1.659,-1.364 2.666,-1.781c1.006,-0.417 2.054,-0.626 3.144,-0.626l120.507,0c1.09,0 2.138,0.209 3.144,0.626c1.007,0.417 1.895,1.011 2.666,1.781c0.77,0.77 1.364,1.659 1.781,2.666c0.417,1.006 0.625,2.054 0.625,3.144l0,65.731c0,1.09 -0.208,2.138 -0.625,3.144c-0.417,1.007 -1.011,1.895 -1.781,2.666c-0.771,0.77 -1.659,1.364 -2.666,1.781c-1.006,0.417 -2.054,0.625 -3.144,0.625l-120.507,0c-1.09,0 -2.138,-0.208 -3.144,-0.625c-1.007,-0.417 -1.895,-1.011 -2.666,-1.781c-0.77,-0.771 -1.364,-1.659 -1.781,-2.666c-0.417,-1.006 -0.625,-2.054 -0.625,-3.144l0,-65.731Z" style="fill:#5998d4;stroke:#fff;stroke-width:1px;"/><rect x="30.162" y="221.522" width="181.417" height="12.325" style="fill:#c8ddf1;"/><path d="M2.062,215.688c0,-1.09 0.208,-2.138 0.625,-3.144c0.417,-1.007 1.011,-1.896 1.781,-2.666c0.771,-0.771 1.659,-1.364 2.666,-1.781c1.006,-0.417 2.054,-0.626 3.144,-0.626l120.507,0c1.09,0 2.138,0.209 3.144,0.626c1.007,0.417 1.895,1.01 2.666,1.781c0.77,0.77 1.364,1.659 1.781,2.666c0.417,1.006 0.625,2.054 0.625,3.144l0,65.731c0,1.09 -0.208,2.138 -0.625,3.144c-0.417,1.007 -1.011,1.895 -1.781,2.666c-0.771,0.77 -1.659,1.364 -2.666,1.781c-1.006,0.417 -2.054,0.625 -3.144,0.625l-120.507,0c-1.09,0 -2.138,-0.208 -3.144,-0.625c-1.007,-0.417 -1.895,-1.011 -2.666,-1.781c-0.77,-0.771 -1.364,-1.659 -1.781,-2.666c-0.417,-1.006 -0.625,-2.054 -0.625,-3.144l0,-65.731Z" style="fill:#5998d4;stroke:#fff;stroke-width:1px;"/><path d="M218.098,125.336l0,101.992l-12.324,0l0,-101.992l12.324,0Z" style="fill:#c8ddf1;"/><path d="M184.192,215.688c0,-1.09 0.208,-2.138 0.625,-3.144c0.417,-1.007 1.011,-1.896 1.781,-2.666c0.77,-0.771 1.659,-1.364 2.666,-1.781c1.006,-0.417 2.054,-0.626 3.144,-0.626l120.507,0c1.09,0 2.138,0.209 3.144,0.626c1.007,0.417 1.895,1.01 2.666,1.781c0.77,0.77 1.364,1.659 1.781,2.666c0.417,1.006 0.625,2.054 0.625,3.144l0,65.731c0,1.09 -0.208,2.138 -0.625,3.144c-0.417,1.007 -1.011,1.895 -1.781,2.666c-0.771,0.77 -1.659,1.364 -2.666,1.781c-1.006,0.417 -2.054,0.625 -3.144,0.625l-120.507,0c-1.09,0 -2.138,-0.208 -3.144,-0.625c-1.007,-0.417 -1.896,-1.011 -2.666,-1.781c-0.77,-0.771 -1.364,-1.659 -1.781,-2.666c-0.417,-1.006 -0.625,-2.054 -0.625,-3.144l0,-65.731Z" style="fill:#5998d4;stroke:#fff;stroke-width:1px;"/><path d="M218.098,22.631l0,101.992l-12.324,0l0,-101.992l12.324,0Z" style="fill:#c8ddf1;"/><path d="M184.192,112.983c0,-1.09 0.208,-2.138 0.625,-3.144c0.417,-1.007 1.011,-1.896 1.781,-2.666c0.77,-0.77 1.659,-1.364 2.666,-1.781c1.006,-0.417 2.054,-0.626 3.144,-0.626l120.507,0c1.09,0 2.138,0.209 3.144,0.626c1.007,0.417 1.895,1.011 2.666,1.781c0.77,0.77 1.364,1.659 1.781,2.666c0.417,1.006 0.625,2.054 0.625,3.144l0,65.731c0,1.09 -0.208,2.138 -0.625,3.144c-0.417,1.007 -1.011,1.895 -1.781,2.666c-0.771,0.77 -1.659,1.364 -2.666,1.781c-1.006,0.417 -2.054,0.625 -3.144,0.625l-120.507,0c-1.09,0 -2.138,-0.208 -3.144,-0.625c-1.007,-0.417 -1.896,-1.011 -2.666,-1.781c-0.77,-0.771 -1.364,-1.659 -1.781,-2.666c-0.417,-1.006 -0.625,-2.054 -0.625,-3.144l0,-65.731Z" style="fill:#5998d4;stroke:#fff;stroke-width:1px;"/><rect x="212.292" y="16.112" width="181.417" height="12.325" style="fill:#c8ddf1;"/><path d="M184.192,10.278c0,-1.09 0.208,-2.138 0.625,-3.144c0.417,-1.007 1.011,-1.895 1.781,-2.666c0.77,-0.77 1.659,-1.364 2.666,-1.781c1.006,-0.417 2.054,-0.625 3.144,-0.625l120.507,0c1.09,0 2.138,0.208 3.144,0.625c1.007,0.417 1.895,1.011 2.666,1.781c0.77,0.771 1.364,1.659 1.781,2.666c0.417,1.006 0.625,2.054 0.625,3.144l0,65.731c0,1.09 -0.208,2.138 -0.625,3.144c-0.417,1.007 -1.011,1.896 -1.781,2.666c-0.771,0.77 -1.659,1.364 -2.666,1.781c-1.006,0.417 -2.054,0.626 -3.144,0.626l-120.507,0c-1.09,0 -2.138,-0.209 -3.144,-0.626c-1.007,-0.417 -1.896,-1.011 -2.666,-1.781c-0.77,-0.77 -1.364,-1.659 -1.781,-2.666c-0.417,-1.006 -0.625,-2.054 -0.625,-3.144l0,-65.731Z" style="fill:#5998d4;stroke:#fff;stroke-width:1px;"/><path d="M387.904,124.623l0,-101.992l12.324,0l0,101.992l-12.324,0Z" style="fill:#c8ddf1;"/><path d="M366.322,10.278c0,-1.09 0.208,-2.138 0.625,-3.144c0.417,-1.007 1.011,-1.895 1.781,-2.666c0.771,-0.77 1.659,-1.364 2.666,-1.781c1.006,-0.417 2.054,-0.625 3.144,-0.625l120.507,0c1.09,0 2.138,0.208 3.144,0.625c1.007,0.417 1.896,1.011 2.666,1.781c0.77,0.771 1.364,1.659 1.781,2.666c0.417,1.006 0.626,2.054 0.626,3.144l0,65.731c0,1.09 -0.209,2.138 -0.626,3.144c-0.417,1.007 -1.011,1.896 -1.781,2.666c-0.77,0.77 -1.659,1.364 -2.666,1.781c-1.006,0.417 -2.054,0.626 -3.144,0.626l-120.507,0c-1.09,0 -2.138,-0.209 -3.144,-0.626c-1.007,-0.417 -1.895,-1.011 -2.666,-1.781c-0.77,-0.77 -1.364,-1.659 -1.781,-2.666c-0.417,-1.006 -0.625,-2.054 -0.625,-3.144l0,-65.731Z" style="fill:#5998d4;stroke:#fff;stroke-width:1px;"/><path d="M387.904,236.234l0,-110.898l12.324,0l0,110.898l-12.324,0Z" style="fill:#c8ddf1;"/><path d="M366.322,112.983c0,-1.09 0.208,-2.138 0.625,-3.144c0.417,-1.007 1.011,-1.896 1.781,-2.666c0.771,-0.77 1.659,-1.364 2.666,-1.781c1.006,-0.417 2.054,-0.626 3.144,-0.626l120.507,0c1.09,0 2.138,0.209 3.144,0.626c1.007,0.417 1.896,1.011 2.666,1.781c0.77,0.77 1.364,1.659 1.781,2.666c0.417,1.006 0.626,2.054 0.626,3.144l0,65.731c0,1.09 -0.209,2.138 -0.626,3.144c-0.417,1.007 -1.011,1.895 -1.781,2.666c-0.77,0.77 -1.659,1.364 -2.666,1.781c-1.006,0.417 -2.054,0.625 -3.144,0.625l-120.507,0c-1.09,0 -2.138,-0.208 -3.144,-0.625c-1.007,-0.417 -1.895,-1.011 -2.666,-1.781c-0.77,-0.771 -1.364,-1.659 -1.781,-2.666c-0.417,-1.006 -0.625,-2.054 -0.625,-3.144l0,-65.731Z" style="fill:#5998d4;stroke:#fff;stroke-width:1px;"/><path d="M366.322,217.485c0,-1.328 0.254,-2.605 0.762,-3.832c0.508,-1.227 1.232,-2.31 2.17,-3.249c0.939,-0.939 2.022,-1.662 3.249,-2.17c1.227,-0.509 2.504,-0.763 3.832,-0.763l116.913,0c1.328,0 2.605,0.254 3.832,0.763c1.227,0.508 2.31,1.231 3.249,2.17c0.939,0.939 1.662,2.022 2.17,3.249c0.508,1.227 0.763,2.504 0.763,3.832l0,80.105c0,1.328 -0.255,2.606 -0.763,3.832c-0.508,1.227 -1.231,2.31 -2.17,3.249c-0.939,0.939 -2.022,1.662 -3.249,2.17c-1.227,0.509 -2.504,0.763 -3.832,0.763l-116.913,0c-1.328,0 -2.605,-0.254 -3.832,-0.763c-1.227,-0.508 -2.31,-1.231 -3.249,-2.17c-0.938,-0.939 -1.662,-2.022 -2.17,-3.249c-0.508,-1.226 -0.762,-2.504 -0.762,-3.832l0,-80.105Z" style="fill:#5998d4;stroke:#fff;stroke-width:1px;"/><g transform="matrix(1,0,0,1,-95.3587,-186.539)"><text x="104.136px" y="228.138px" style="font-family:'ArialMT', 'Arial', sans-serif;font-size:11px;fill:#fff;">Learner clicks on College</text><text x="147.242px" y="239.498px" style="font-family:'ArialMT', 'Arial', sans-serif;font-size:11px;fill:#fff;">website</text></g><g transform="matrix(1,0,0,1,-83.2643,-168.551)"><text x="110.379px" y="306.979px" style="font-family:'ArialMT', 'Arial', sans-serif;font-size:11px;fill:#fff;">Learner agrees to</text><text x="103.047px" y="318.339px" style="font-family:'ArialMT', 'Arial', sans-serif;font-size:11px;fill:#fff;">take programme and</text><text x="120.651px" y="329.699px" style="font-family:'ArialMT', 'Arial', sans-serif;font-size:11px;fill:#fff;">agrees T<tspan x="164.06px " y="329.699px ">&amp;</tspan>C&apos;s</text></g><text x="18.249px" y="252.515px" style="font-family:'ArialMT', 'Arial', sans-serif;font-size:11px;fill:#fff;">Learner pays College</text><g transform="matrix(1,0,0,1,-62.5518,-150.128)"><text x="274.248px" y="385.391px" style="font-family:'ArialMT', 'Arial', sans-serif;font-size:11px;fill:#fff;">Learner receives</text><text x="264.166px" y="396.751px" style="font-family:'ArialMT', 'Arial', sans-serif;font-size:11px;fill:#fff;">customised welcome</text><text x="260.189px" y="408.111px" style="font-family:'ArialMT', 'Arial', sans-serif;font-size:11px;fill:#fff;">email from the College</text><text x="274.858px" y="419.471px" style="font-family:'ArialMT', 'Arial', sans-serif;font-size:11px;fill:#fff;">with login details</text></g><g transform="matrix(1,0,0,1,-56.2619,-173.602)"><text x="267.392px" y="312.556px" style="font-family:'ArialMT', 'Arial', sans-serif;font-size:11px;fill:#fff;">Learner accesses</text><text x="264.983px" y="323.916px" style="font-family:'ArialMT', 'Arial', sans-serif;font-size:11px;fill:#fff;">&apos;Journey 2 English&apos;</text><text x="290.324px" y="335.276px" style="font-family:'ArialMT', 'Arial', sans-serif;font-size:11px;fill:#fff;">program</text></g><g transform="matrix(1,0,0,1,-62.5558,-174.723)"><text x="258.042px" y="204.767px" style="font-family:'ArialMT', 'Arial', sans-serif;font-size:11px;fill:#fff;">College provides online</text><text x="275.78px" y="216.127px" style="font-family:'ArialMT', 'Arial', sans-serif;font-size:11px;fill:#fff;">tutor support via</text><text x="257.438px" y="227.487px" style="font-family:'ArialMT', 'Arial', sans-serif;font-size:11px;fill:#fff;">Klik2learn Collaborative</text><text x="271.805px" y="238.846px" style="font-family:'ArialMT', 'Arial', sans-serif;font-size:11px;fill:#fff;">Learning Platform</text></g><g transform="matrix(1,0,0,1,-40.7705,-174.332)"><text x="425.428px" y="204.571px" style="font-family:'ArialMT', 'Arial', sans-serif;font-size:11px;fill:#fff;">Learner successfully</text><text x="420.847px" y="215.931px" style="font-family:'ArialMT', 'Arial', sans-serif;font-size:11px;fill:#fff;">completes programme</text><text x="423.589px" y="227.291px" style="font-family:'ArialMT', 'Arial', sans-serif;font-size:11px;fill:#fff;">and is off<tspan x="468.228px " y="227.291px ">e</tspan>red centre-</text><text x="429.704px" y="238.651px" style="font-family:'ArialMT', 'Arial', sans-serif;font-size:11px;fill:#fff;">based assessment</text></g><g transform="matrix(1,0,0,1,-40.623,-168.453)"><text x="421.295px" y="306.881px" style="font-family:'ArialMT', 'Arial', sans-serif;font-size:11px;fill:#fff;">Learner passes online</text><text x="439.955px" y="318.241px" style="font-family:'ArialMT', 'Arial', sans-serif;font-size:11px;fill:#fff;">assessment at</text><text x="434.75px" y="329.601px" style="font-family:'ArialMT', 'Arial', sans-serif;font-size:11px;fill:#fff;">appropriate level</text></g><g transform="matrix(1,0,0,1,-39.1661,-141.414)"><text x="424.436px" y="380.171px" style="font-family:'ArialMT', 'Arial', sans-serif;font-size:11px;fill:#fff;">Learner receives FE</text><text x="412.51px" y="391.531px" style="font-family:'ArialMT', 'Arial', sans-serif;font-size:11px;fill:#fff;">College certificate stating</text><text x="417.091px" y="402.891px" style="font-family:'ArialMT', 'Arial', sans-serif;font-size:11px;fill:#fff;">their level of English on</text><text x="417.091px" y="414.251px" style="font-family:'ArialMT', 'Arial', sans-serif;font-size:11px;fill:#fff;">the Common European</text><text x="446.455px" y="425.611px" style="font-family:'ArialMT', 'Arial', sans-serif;font-size:11px;fill:#fff;">Framework</text></g></g></svg>