<?xml version="1.0" standalone="no"?>
<!DOCTYPE svg PUBLIC "-//W3C//DTD SVG 20010904//EN"
 "http://www.w3.org/TR/2001/REC-SVG-20010904/DTD/svg10.dtd">
<svg version="1.0" xmlns="http://www.w3.org/2000/svg"
 width="260.000000pt" height="260.000000pt" viewBox="0 0 260.000000 260.000000"
 preserveAspectRatio="xMidYMid meet">
<metadata>
Created by potrace 1.11, written by Peter Selinger 2001-2013
</metadata>
<g transform="translate(0.000000,260.000000) scale(0.100000,-0.100000)"
fill="#000000" stroke="none">
<path d="M1350 2024 c-98 -19 -311 -115 -357 -161 -33 -32 -29 -62 19 -133 58
-86 92 -120 120 -120 12 0 56 20 97 45 83 50 125 63 146 45 61 -51 -60 -209
-375 -491 -86 -77 -163 -152 -172 -167 -13 -22 -48 -163 -48 -193 0 -5 9 -18
20 -29 19 -19 33 -20 399 -20 454 0 418 -11 451 140 36 171 37 170 -163 170
-81 0 -147 3 -146 8 0 4 27 30 60 57 117 97 276 271 308 337 102 208 38 418
-148 489 -51 19 -165 31 -211 23z m200 -81 c25 -11 60 -34 78 -52 56 -57 67
-86 67 -186 0 -133 -31 -191 -184 -344 -64 -64 -154 -151 -201 -192 -75 -67
-83 -78 -71 -92 12 -15 38 -17 192 -17 146 0 179 -3 179 -14 0 -35 -34 -172
-44 -178 -15 -10 -726 -10 -726 0 2 31 30 133 41 149 8 11 95 92 194 181 254
229 375 380 375 468 0 40 -39 90 -77 97 -37 7 -105 -15 -173 -57 -32 -20 -62
-36 -67 -35 -10 0 -94 117 -100 139 -5 19 146 102 251 137 88 29 196 27 266
-4z"/>
<path d="M631 1831 c-8 -5 -49 -173 -106 -437 -111 -518 -117 -538 -160 -581
-34 -34 -37 -35 -150 -37 l-60 -1 -3 -86 c-4 -118 3 -124 146 -123 209 2 296
69 360 276 32 104 215 966 208 983 -4 12 -27 15 -113 15 -59 0 -114 -4 -122
-9z"/>
<path d="M1930 1821 c-5 -11 -53 -223 -105 -471 -75 -351 -93 -455 -84 -466 9
-11 61 -14 274 -14 237 0 263 2 277 18 22 24 50 163 36 179 -7 9 -48 13 -139
13 -104 0 -131 3 -144 16 -8 9 -14 24 -11 33 2 9 10 40 16 69 7 32 19 56 30
62 10 6 72 10 138 10 142 0 144 1 168 108 23 101 21 102 -126 102 -88 0 -120
3 -129 14 -17 21 -2 96 25 123 22 22 31 23 157 23 96 0 137 4 145 13 14 18 43
153 36 171 -5 14 -40 16 -280 16 -260 0 -274 -1 -284 -19z"/>
</g>
</svg>
