<?xml version="1.0" encoding="UTF-8" standalone="no"?><!DOCTYPE svg PUBLIC "-//W3C//DTD SVG 1.1//EN" "http://www.w3.org/Graphics/SVG/1.1/DTD/svg11.dtd"><svg width="100%" height="100%" viewBox="0 0 506 302" version="1.1" xmlns="http://www.w3.org/2000/svg" xmlns:xlink="http://www.w3.org/1999/xlink" xml:space="preserve" xmlns:serif="http://www.serif.com/" style="fill-rule:evenodd;clip-rule:evenodd;"><g><path d="M23.661,124.623l0,-101.957l12.325,0l0,101.957l-12.325,0Z" style="fill:#c8ddf1;"/><path d="M2.062,10.278c0,-1.09 0.208,-2.138 0.625,-3.144c0.417,-1.007 1.011,-1.895 1.781,-2.666c0.771,-0.77 1.659,-1.364 2.666,-1.781c1.006,-0.417 2.054,-0.625 3.144,-0.625l120.507,0c1.09,0 2.138,0.208 3.144,0.625c1.007,0.417 1.895,1.011 2.666,1.781c0.77,0.771 1.364,1.659 1.781,2.666c0.417,1.006 0.625,2.054 0.625,3.144l0,65.731c0,1.09 -0.208,2.138 -0.625,3.144c-0.417,1.007 -1.011,1.896 -1.781,2.666c-0.771,0.77 -1.659,1.364 -2.666,1.781c-1.006,0.417 -2.054,0.625 -3.144,0.625l-120.507,0c-1.09,0 -2.138,-0.208 -3.144,-0.625c-1.007,-0.417 -1.895,-1.011 -2.666,-1.781c-0.77,-0.77 -1.364,-1.659 -1.781,-2.666c-0.417,-1.006 -0.625,-2.054 -0.625,-3.144l0,-65.731Z" style="fill:#5998d4;stroke:#fff;stroke-width:1px;"/><path d="M23.661,227.328l0,-101.957l12.325,0l0,101.957l-12.325,0Z" style="fill:#c8ddf1;"/><path d="M2.062,112.983c0,-1.09 0.208,-2.138 0.625,-3.144c0.417,-1.007 1.011,-1.896 1.781,-2.666c0.771,-0.77 1.659,-1.364 2.666,-1.781c1.006,-0.417 2.054,-0.625 3.144,-0.625l120.507,0c1.09,0 2.138,0.208 3.144,0.625c1.007,0.417 1.895,1.011 2.666,1.781c0.77,0.77 1.364,1.659 1.781,2.666c0.417,1.006 0.625,2.054 0.625,3.144l0,65.731c0,1.09 -0.208,2.138 -0.625,3.144c-0.417,1.007 -1.011,1.895 -1.781,2.666c-0.771,0.77 -1.659,1.364 -2.666,1.781c-1.006,0.417 -2.054,0.625 -3.144,0.625l-120.507,0c-1.09,0 -2.138,-0.208 -3.144,-0.625c-1.007,-0.417 -1.895,-1.011 -2.666,-1.781c-0.77,-0.771 -1.364,-1.659 -1.781,-2.666c-0.417,-1.006 -0.625,-2.054 -0.625,-3.144l0,-65.731Z" style="fill:#5998d4;stroke:#fff;stroke-width:1px;"/><rect x="30.198" y="221.539" width="181.382" height="12.325" style="fill:#c8ddf1;"/><path d="M2.062,215.688c0,-1.09 0.208,-2.138 0.625,-3.144c0.417,-1.007 1.011,-1.896 1.781,-2.666c0.771,-0.77 1.659,-1.364 2.666,-1.781c1.006,-0.417 2.054,-0.626 3.144,-0.626l120.507,0c1.09,0 2.138,0.209 3.144,0.626c1.007,0.417 1.895,1.011 2.666,1.781c0.77,0.77 1.364,1.659 1.781,2.666c0.417,1.006 0.625,2.054 0.625,3.144l0,65.731c0,1.09 -0.208,2.138 -0.625,3.144c-0.417,1.007 -1.011,1.895 -1.781,2.666c-0.771,0.77 -1.659,1.364 -2.666,1.781c-1.006,0.417 -2.054,0.625 -3.144,0.625l-120.507,0c-1.09,0 -2.138,-0.208 -3.144,-0.625c-1.007,-0.417 -1.895,-1.011 -2.666,-1.781c-0.77,-0.771 -1.364,-1.659 -1.781,-2.666c-0.417,-1.006 -0.625,-2.054 -0.625,-3.144l0,-65.731Z" style="fill:#5998d4;stroke:#fff;stroke-width:1px;"/><path d="M218.116,125.371l0,101.957l-12.325,0l0,-101.957l12.325,0Z" style="fill:#c8ddf1;"/><path d="M184.192,215.688c0,-1.09 0.208,-2.138 0.625,-3.144c0.417,-1.007 1.011,-1.896 1.781,-2.666c0.771,-0.77 1.659,-1.364 2.666,-1.781c1.006,-0.417 2.054,-0.626 3.144,-0.626l120.507,0c1.09,0 2.138,0.209 3.144,0.626c1.007,0.417 1.895,1.011 2.666,1.781c0.77,0.77 1.364,1.659 1.781,2.666c0.417,1.006 0.625,2.054 0.625,3.144l0,65.731c0,1.09 -0.208,2.138 -0.625,3.144c-0.417,1.007 -1.011,1.895 -1.781,2.666c-0.771,0.77 -1.659,1.364 -2.666,1.781c-1.006,0.417 -2.054,0.625 -3.144,0.625l-120.507,0c-1.09,0 -2.138,-0.208 -3.144,-0.625c-1.007,-0.417 -1.895,-1.011 -2.666,-1.781c-0.77,-0.771 -1.364,-1.659 -1.781,-2.666c-0.417,-1.006 -0.625,-2.054 -0.625,-3.144l0,-65.731Z" style="fill:#5998d4;stroke:#fff;stroke-width:1px;"/><path d="M218.116,22.666l0,101.957l-12.325,0l0,-101.957l12.325,0Z" style="fill:#c8ddf1;"/><path d="M184.192,112.983c0,-1.09 0.208,-2.138 0.625,-3.144c0.417,-1.007 1.011,-1.896 1.781,-2.666c0.771,-0.77 1.659,-1.364 2.666,-1.781c1.006,-0.417 2.054,-0.625 3.144,-0.625l120.507,0c1.09,0 2.138,0.208 3.144,0.625c1.007,0.417 1.895,1.011 2.666,1.781c0.77,0.77 1.364,1.659 1.781,2.666c0.417,1.006 0.625,2.054 0.625,3.144l0,65.731c0,1.09 -0.208,2.138 -0.625,3.144c-0.417,1.007 -1.011,1.895 -1.781,2.666c-0.771,0.77 -1.659,1.364 -2.666,1.781c-1.006,0.417 -2.054,0.625 -3.144,0.625l-120.507,0c-1.09,0 -2.138,-0.208 -3.144,-0.625c-1.007,-0.417 -1.895,-1.011 -2.666,-1.781c-0.77,-0.771 -1.364,-1.659 -1.781,-2.666c-0.417,-1.006 -0.625,-2.054 -0.625,-3.144l0,-65.731Z" style="fill:#5998d4;stroke:#fff;stroke-width:1px;"/><rect x="212.328" y="16.129" width="181.382" height="12.325" style="fill:#c8ddf1;"/><path d="M184.192,10.278c0,-1.09 0.208,-2.138 0.625,-3.144c0.417,-1.007 1.011,-1.895 1.781,-2.666c0.771,-0.77 1.659,-1.364 2.666,-1.781c1.006,-0.417 2.054,-0.625 3.144,-0.625l120.507,0c1.09,0 2.138,0.208 3.144,0.625c1.007,0.417 1.895,1.011 2.666,1.781c0.77,0.771 1.364,1.659 1.781,2.666c0.417,1.006 0.625,2.054 0.625,3.144l0,65.731c0,1.09 -0.208,2.138 -0.625,3.144c-0.417,1.007 -1.011,1.896 -1.781,2.666c-0.771,0.77 -1.659,1.364 -2.666,1.781c-1.006,0.417 -2.054,0.625 -3.144,0.625l-120.507,0c-1.09,0 -2.138,-0.208 -3.144,-0.625c-1.007,-0.417 -1.895,-1.011 -2.666,-1.781c-0.77,-0.77 -1.364,-1.659 -1.781,-2.666c-0.417,-1.006 -0.625,-2.054 -0.625,-3.144l0,-65.731Z" style="fill:#5998d4;stroke:#fff;stroke-width:1px;"/><path d="M387.921,124.623l0,-101.957l12.325,0l0,101.957l-12.325,0Z" style="fill:#c8ddf1;"/><path d="M366.322,10.278c0,-1.09 0.208,-2.138 0.625,-3.144c0.417,-1.007 1.011,-1.895 1.781,-2.666c0.771,-0.77 1.659,-1.364 2.666,-1.781c1.006,-0.417 2.055,-0.625 3.144,-0.625l120.507,0c1.09,0 2.138,0.208 3.144,0.625c1.007,0.417 1.896,1.011 2.666,1.781c0.77,0.771 1.364,1.659 1.781,2.666c0.417,1.006 0.626,2.054 0.626,3.144l0,65.731c0,1.09 -0.209,2.138 -0.626,3.144c-0.417,1.007 -1.011,1.896 -1.781,2.666c-0.77,0.77 -1.659,1.364 -2.666,1.781c-1.006,0.417 -2.054,0.625 -3.144,0.625l-120.507,0c-1.089,0 -2.138,-0.208 -3.144,-0.625c-1.007,-0.417 -1.895,-1.011 -2.666,-1.781c-0.77,-0.77 -1.364,-1.659 -1.781,-2.666c-0.417,-1.006 -0.625,-2.054 -0.625,-3.144l0,-65.731Z" style="fill:#5998d4;stroke:#fff;stroke-width:1px;"/><path d="M387.921,227.328l0,-101.957l12.325,0l0,101.957l-12.325,0Z" style="fill:#c8ddf1;"/><path d="M366.322,112.983c0,-1.09 0.208,-2.138 0.625,-3.144c0.417,-1.007 1.011,-1.896 1.781,-2.666c0.771,-0.77 1.659,-1.364 2.666,-1.781c1.006,-0.417 2.055,-0.625 3.144,-0.625l120.507,0c1.09,0 2.138,0.208 3.144,0.625c1.007,0.417 1.896,1.011 2.666,1.781c0.77,0.77 1.364,1.659 1.781,2.666c0.417,1.006 0.626,2.054 0.626,3.144l0,65.731c0,1.09 -0.209,2.138 -0.626,3.144c-0.417,1.007 -1.011,1.895 -1.781,2.666c-0.77,0.77 -1.659,1.364 -2.666,1.781c-1.006,0.417 -2.054,0.625 -3.144,0.625l-120.507,0c-1.089,0 -2.138,-0.208 -3.144,-0.625c-1.007,-0.417 -1.895,-1.011 -2.666,-1.781c-0.77,-0.771 -1.364,-1.659 -1.781,-2.666c-0.417,-1.006 -0.625,-2.054 -0.625,-3.144l0,-65.731Z" style="fill:#5998d4;stroke:#fff;stroke-width:1px;"/><path d="M366.322,215.688c0,-1.09 0.208,-2.138 0.625,-3.144c0.417,-1.007 1.011,-1.896 1.781,-2.666c0.771,-0.77 1.659,-1.364 2.666,-1.781c1.006,-0.417 2.055,-0.626 3.144,-0.626l120.507,0c1.09,0 2.138,0.209 3.144,0.626c1.007,0.417 1.896,1.011 2.666,1.781c0.77,0.77 1.364,1.659 1.781,2.666c0.417,1.006 0.626,2.054 0.626,3.144l0,75.731c0,1.09 -0.209,2.138 -0.626,3.144c-0.417,1.007 -1.011,1.895 -1.781,2.666c-0.77,0.77 -1.659,1.364 -2.666,1.781c-1.006,0.417 -2.054,0.625 -3.144,0.625l-120.507,0c-1.089,0 -2.138,-0.208 -3.144,-0.625c-1.007,-0.417 -1.895,-1.011 -2.666,-1.781c-0.77,-0.771 -1.364,-1.659 -1.781,-2.666c-0.417,-1.006 -0.625,-2.054 -0.625,-3.144l0,-75.731Z" style="fill:#5998d4;stroke:#fff;stroke-width:1px;"/><g transform="matrix(1,0,0,1,-55.9157,-95.1323)"><text x="84.872px" y="130.856px" style="font-family:'ArialMT', 'Arial', sans-serif;font-size:11px;fill:#fff;">Learner clicks on</text><text x="69.898px" y="142.216px" style="font-family:'ArialMT', 'Arial', sans-serif;font-size:11px;fill:#fff;">Smartscreen or partner</text><text x="107.799px" y="153.575px" style="font-family:'ArialMT', 'Arial', sans-serif;font-size:11px;fill:#fff;">website</text></g><g transform="matrix(1,0,0,1,-55.2256,-98.6729)"><text x="70.416px" y="237.101px" style="font-family:'ArialMT', 'Arial', sans-serif;font-size:11px;fill:#fff;">Learner agrees to take</text><text x="68.587px" y="248.461px" style="font-family:'ArialMT', 'Arial', sans-serif;font-size:11px;fill:#fff;">programme and agrees</text><text x="110.957px" y="259.821px" style="font-family:'ArialMT', 'Arial', sans-serif;font-size:11px;fill:#fff;">T&amp;C&apos;s</text></g><text x="19.474px" y="252.141px" style="font-family:'ArialMT', 'Arial', sans-serif;font-size:11px;fill:#fff;">Learner pays partner</text><g transform="matrix(1,0,0,1,-58.1631,-95.3818)"><text x="269.859px" y="336.574px" style="font-family:'ArialMT', 'Arial', sans-serif;font-size:11px;fill:#fff;">Learner receives</text><text x="259.778px" y="347.934px" style="font-family:'ArialMT', 'Arial', sans-serif;font-size:11px;fill:#fff;">customised welcome</text><text x="255.798px" y="359.294px" style="font-family:'ArialMT', 'Arial', sans-serif;font-size:11px;fill:#fff;">email with login details</text></g><g transform="matrix(1,0,0,1,-61.5656,-98.6729)"><text x="270.815px" y="237.101px" style="font-family:'ArialMT', 'Arial', sans-serif;font-size:11px;fill:#fff;">Learner accesses</text><text x="268.406px" y="248.461px" style="font-family:'ArialMT', 'Arial', sans-serif;font-size:11px;fill:#fff;">&apos;Journey 2 English&apos;</text><text x="293.747px" y="259.821px" style="font-family:'ArialMT', 'Arial', sans-serif;font-size:11px;fill:#fff;">program</text></g><g transform="matrix(1,0,0,1,-58.3209,-81.7046)"><text x="255.647px" y="111.748px" style="font-family:'ArialMT', 'Arial', sans-serif;font-size:11px;fill:#fff;">Tu<tspan x="268.484px " y="111.748px ">t</tspan>or support provided</text><text x="260.54px" y="123.108px" style="font-family:'ArialMT', 'Arial', sans-serif;font-size:11px;fill:#fff;">by partner/Klik2learn</text><text x="270.323px" y="134.468px" style="font-family:'ArialMT', 'Arial', sans-serif;font-size:11px;fill:#fff;">via Collaborative</text><text x="267.571px" y="145.828px" style="font-family:'ArialMT', 'Arial', sans-serif;font-size:11px;fill:#fff;">Learning Platform</text></g><g transform="matrix(1,0,0,1,-64.387,-74.9907)"><text x="449.045px" y="99.354px" style="font-family:'ArialMT', 'Arial', sans-serif;font-size:11px;fill:#fff;">Learner successfully</text><text x="444.463px" y="110.714px" style="font-family:'ArialMT', 'Arial', sans-serif;font-size:11px;fill:#fff;">completes programme</text><text x="447.205px" y="122.074px" style="font-family:'ArialMT', 'Arial', sans-serif;font-size:11px;fill:#fff;">and is off<tspan x="491.844px " y="122.074px ">e</tspan>red centre-</text><text x="453.32px" y="133.434px" style="font-family:'ArialMT', 'Arial', sans-serif;font-size:11px;fill:#fff;">based assessment</text><text x="461.57px" y="144.794px" style="font-family:'ArialMT', 'Arial', sans-serif;font-size:11px;fill:#fff;">through partner</text></g><g transform="matrix(1,0,0,1,-64.582,-67.2582)"><text x="445.254px" y="204.605px" style="font-family:'ArialMT', 'Arial', sans-serif;font-size:11px;fill:#fff;">Learner passes online</text><text x="463.914px" y="215.965px" style="font-family:'ArialMT', 'Arial', sans-serif;font-size:11px;fill:#fff;">assessment at</text><text x="458.709px" y="227.325px" style="font-family:'ArialMT', 'Arial', sans-serif;font-size:11px;fill:#fff;">appropriate level</text></g><g transform="matrix(1,0,0,1,-64.3369,-80.7722)"><text x="441.967px" y="310.515px" style="font-family:'ArialMT', 'Arial', sans-serif;font-size:11px;fill:#fff;">Learner receives City &amp;</text><text x="447.77px" y="321.875px" style="font-family:'ArialMT', 'Arial', sans-serif;font-size:11px;fill:#fff;">Guilds certificate and</text><text x="436.453px" y="333.235px" style="font-family:'ArialMT', 'Arial', sans-serif;font-size:11px;fill:#fff;">Digital Badge stating their</text><text x="445.316px" y="344.595px" style="font-family:'ArialMT', 'Arial', sans-serif;font-size:11px;fill:#fff;">level of English on the</text><text x="451.436px" y="355.955px" style="font-family:'ArialMT', 'Arial', sans-serif;font-size:11px;fill:#fff;">Common European</text><text x="471.626px" y="367.315px" style="font-family:'ArialMT', 'Arial', sans-serif;font-size:11px;fill:#fff;">Framework</text></g></g></svg>