<?xml version="1.0" encoding="utf-8"?>
<!-- Generator: Adobe Illustrator 18.1.1, SVG Export Plug-In . SVG Version: 6.00 Build 0)  -->
<svg version="1.2" baseProfile="tiny" xmlns="http://www.w3.org/2000/svg" xmlns:xlink="http://www.w3.org/1999/xlink" x="0px"
	 y="0px" width="735px" height="490px" viewBox="0 0 735 490" xml:space="preserve">
<g id="Land">
	<rect fill="#A7CA72" width="735" height="490"/>
	<g id="Layer_22">
		<g>
			<path fill="#A1C36D" d="M90.9,391.5c0-0.2,0.1-0.3,0.1-0.5C89.7,389.4,90.1,395.4,90.9,391.5z"/>
			<path fill="#A1C36D" d="M435.7,49C434.1,44.5,434.9,50.9,435.7,49L435.7,49z"/>
			<path fill="#A1C36D" d="M436,80.8C431.7,78.3,433.9,82,436,80.8L436,80.8z"/>
			<path fill="#A1C36D" d="M452.6,64C452.8,63.1,450.1,63.4,452.6,64L452.6,64z"/>
			<path fill="#A1C36D" d="M75.8,314.9c0.1-0.8,0.1-1.6,0.1-2.6C75.6,311.8,75.7,313.9,75.8,314.9z"/>
			<path fill="#A1C36D" d="M400.4,277.7C398.1,279.4,402.2,279.3,400.4,277.7L400.4,277.7z"/>
			<path fill="#A1C36D" d="M427.3,275.2c-0.1,0.5-0.2,1-0.1,1.5c0.8-0.1,1.6-0.4,2.3-0.8C430.2,274.8,427.9,273.3,427.3,275.2z"/>
			<path fill="#A1C36D" d="M724,134.1C723.4,131.8,719.8,134.3,724,134.1L724,134.1z"/>
			<path fill="#A1C36D" d="M539.5,271.6C538.2,272.1,541.5,272.2,539.5,271.6L539.5,271.6z"/>
			<polygon fill="#A1C36D" points="593.1,140.1 593.1,140.1 593.1,140.1 			"/>
			<path fill="#A1C36D" d="M100.1,393.1C98.8,395.7,102,395.8,100.1,393.1L100.1,393.1z"/>
			<path fill="#A1C36D" d="M569.2,77.4c4.7,0.6,1.2-3.8-0.4-1.8c-0.3,0.6-0.6,1.2-0.6,1.6C568.5,77.3,568.8,77.4,569.2,77.4z"/>
			<path fill="#A1C36D" d="M449.4,102.2C443.8,109.8,452.7,105.2,449.4,102.2L449.4,102.2z"/>
			<path fill="#A1C36D" d="M108.9,414.7c0,0.2-0.1,0.5-0.1,0.7C109.7,416.2,109.6,411.4,108.9,414.7z"/>
			<path fill="#A1C36D" d="M238.2,439.5C239.6,441.4,240.8,433.9,238.2,439.5L238.2,439.5z"/>
			<path fill="#A1C36D" d="M477.3,48.5C477.7,47.5,475.2,47.8,477.3,48.5L477.3,48.5z"/>
			<path fill="#A1C36D" d="M706.5,113.8c-6.9,1.1-13.4,11.8-20.3,10c-7-1.9-3.4-12.6-9.7-15.1c-5.3-2.1-9,0.2-5.9-7.2
				c-6.4-1.4-7.5-5.6-4-10.9c-1.8,0.9-3.5,1.9-5.3,2.8c-6.4-7.9,10.7-7.3,3.1-15.1c-7.2-7.4-12,14.9-12.4,17
				c-2.3,11.1-15.4,15.3-4.2,26.9c7.1,7.3,11.6,8.8,7.7,19.5c-11.3-8.2-10.9-37.1-31.9-26.1c-6.6,3.4-14.7,0.3-18-6.2
				c-3.1-6.1-9.6-9.2-5.2-14.5c5-6,7.1-13.1,14.8-16.3c5.4-2.2,15,5.3,19.1-1.1c2.8-4.4-12.7-17.2,1.3-10c2.9,1.5,11.1,7.1,13.7,1.9
				c4-8,1.9-10.3,9.8-17.1c8.5-7.3,8.2-12.6-2.1-17.8c-12.4-6.3-6.4,0.7-13.2,6.2c-4.1,3.4-11.5,8-14.9,3.4
				c-3.5-4.8-9.5-7.2-13.5-11.8c-3.9-4.5-11.4-6.5-16.6-3.2c-16.1,10-29.6,6.8-48,4.2c7.5-1.4,4.1-11-1.6-12.3
				c-8.4-2-8.2-9.7-12.3-15.9c-3.4-5.1-7.5-3.2-13.4-3.2c-8.5,0-5,0.7-5.9,7.2c-1.1,8.4-12.9,6-17.5,2.7c-3.6-2.6-6-6.3-8.3-9.9
				c-5.2,0-10.5,0-15.7,0c-3.1,0-16.8,5.9-18,2.5c-2-5.2-23-2.5-29.6-2.5c-5.4,0-22.8-2.6-24,2.6c-1.2,5.1-12,2-9.6,9
				c2.3,6.5,9.5,9.2,0.9,15.5c-7.1,5.2-13.7-6.1-18-10.7C371.6,11.8,370.7,2,361.2,2c-21.4,0-42.8,0-64.3,0c-11.7,0-23.4,0-35,0
				c-7.5,0-11.5,3.9-20,3.9c0.7-1.3,1.4-2.6,2.1-3.9c-14,0-28,0-42,0c0.3,2.3,0.6,4.7,0.9,7c6.5-5.2,7.8,18.9,10.8,22.2
				c6.9,7.6,0.9,12.6-3.2,19c-3.8,6-2.2,15.1,4.3,18.5c5.7,3.1,6.1,12.1-1.6,7.5c-4.5-2.7-15.5,3.1-17.5,7.6
				c-3,6.8-14.2,0.5-9.7,10.7c6.8,15.6-3.3,31.8-8.8,45.2c7,1.5,10.6,0.2,17.4-2.6c10-4,2.8-3.5-1.2-9.7c3.1-1.5,6.3-1.1,9.3-2.4
				c3.3-1.5,3.2-6.9,5.2-9.5c4.3-5.8,2.1-8.4,1.7-14.4c-0.3-3.8,3.2-7.9,5.1-10.9c4.8-8,22.3-16.2,27.6-5.5
				c4.2,8.4,4.5,13.9,14.2,7.9c0,6,0.8,14.4-3.8,19.1c-4.1,4.2-8.6,8.1-12.7,12.2c-4.2,4.1-0.3,7.7,0.6,12.1
				c1,4.7-8.7,16.1-11.7,19.8c-4.3,5.3-16.6-2.7-21.8-3.7c-8.3-1.5-5.4,10.3-10.5,13.7c-5.1,3.5-12.8-1.2-17,4.2
				c-2.8,3.6,7.9,10.7,7.1,16.2c-1.2,8.3-6.5,8.7-3.7,18.2c1.7,5.8-0.5,8.5-6.3,9.5c-10.6,1.7-12.6,9.5-14.4,19.6
				c-1.3,7.3-6.7,15.7-15.2,14.8c-11.4-1.2-8.3-4.6-16.5,4.7c-4.5,5.1-19.9,14.4-26.8,14.6c-4.2,0.1-15.6-8.9-13.2-13.9
				c3.7-7.7,9-11.4-1.8-17.3c-4.7-2.6-4.9-6.3-8.1-10.1c1.7,9.5-18.4,11.8-24.5,16.7c-5.3,4.3-9.9,10.7-13.7,16.2
				c-2,2.9-5.2,11.3-8.4,12.8c-8.4,4-11.1,16.8-10.4,25c0.4,5.2-1,8.8-7.6,6.7c-4.2-1.4-1.9-7.7-4.8-9.3c-7,11.2,10.9,39,24.7,40.7
				c5.2,0.6,7.1,11.2,14.9,11.7c10,0.8,14.7-7.1,23.4-9.3c6.4-1.6,15.2-4.4,14.5-13.4c-0.5-6.6-4.2-20.3,0.7-25.8
				c2.8-3.1,6.1-1.7,9.5-2.9c2.9-1.1,5-4.7,6.9-6.9c6.6-7.4,10.3-7.4,18.8-3.6c-0.9-6.5-4.7-19.3,5.7-20.4
				c4.6-0.5,1.8,14.6,3.7,18.4c3.1,6.4,9.1,23.5,15.8,26.6c3.5,1.6,22-4.1,19.9,7.1c-0.7,3.4-8.5,5.3-10.9,7.6
				c-2.3,2.2-2.5,5.6-5.3,7.4c-8.1,5.3-8.2,3.3-7,13.9c3,26.4-32,0.6-40.4-1.4c2.3-1.5,3.6-2.3,5.1-3.3c-2.9-4.6-15.2-2.1-20.6,0.5
				c-7.8,3.7-13.9,11.1-18.7,18c3.7,1.1,25.9,5.7,19,13.9c-4.5,5.3-25.9,11.9-32.8,10.3c-6.4-1.5-7.4-4.3-10,3.7
				c-1.5,4.6-4.4,11-1.7,15.7c4.4,7.7-4.8,18.7-13.2,16.6c-12.3-3.1-16.8-2.8-15.3,11.8c1.2,11.4,18.3,6.5,25,4.1
				c3.7-1.3,5.2-7.7,7.8-10.3c3.4-3.5,7.5,2.7,9.8,4.5c8.4,6.6,3.3,9.6,2,18.5c9.3,0.5,18.6,1.5,27.7,1.9c7.8,0.4,15,8.3,20.6,13
				c2,1.7-11,33.6,7.8,17.2c7.2,4.2,14.6,9.6,18.9-0.8c2.6-6.2-5-7.8-6-13.4c-1.3-6.9,10.6-2.4,13.5-2.7c7.8-1,5.6-11.4,5.6-16.7
				c10.2,0.7,20.3,3.1,17.2-9.2c-2.2-8.9-3.7-17.6-11.5-23.5c-6.8-5.2-4.4-16.2,5.2-10.5c3,1.8,10.5,4.1,7.8,9
				c-1.7,3.1-3.8,6.8,0.8,8.7c11.8,5,7.6-21.7,2.2-26.5c-3.3-3-13.4-6-11.3-12.3c1.8-5.4,6.6-0.4,8.9,1.4
				c8.8,6.7,8.8-16.1,21.8-10.5c7.1,3.1-1.2-25.4,12.8-7.2c11.2-10.4,7.8-22.6,25.8-22.4c6.8,0.1,14.7-4.1,21-3.4
				c9.3,1,2.9-7.2,5-12.4c1-2.4,9-15.7,11.5-14.2c5.5,3.3,10,12.3,14.1,17.2c7,8.7,3.4,8,2.6,17.5c-0.6,7.2,0.8,14.7,4.5,20.8
				c4.1,6.8,21.3,24.5,15.3,33c-2.5,3.6-12.3-0.9-14.5-2.4c-8.2-5.2-16,1.3-23.5,4.1c-7.3,2.8-16.1,1.2-22.7,5.9
				c-4.7,3.4-8.9,4-11.1-1.6c-2.1-5.3,0.3-13.3-1.9-17.3c-2.3-4.3-6.8,3.3-9.8,2.5c0.3-4.9,1-9.7-0.9-14.4c-1.4-3.4-6.2,0.9-4.8,3.8
				c2.3,4.6,2.4,11.7-1.2,15.7c-3.6,4,0.7,5.8,2.3,9.2c2.2,4.9-5.2,6.1-7.6,8.5c-4.1,4,2,7.2,4.1,10.1c3.3,4.4-9.8,7.8-11.9,11.2
				c5,1.1,8.8-1.4,11.7,4.1c3.3,6.2,6.9,17.1,12.6,21.4c11.5,8.6,13.8,12.1,8.9,26.6c5.7,0,11.3,0,17,0c1.3-2.3,2.1-4.8,2.3-7.5
				c1.9-5.2,6.7-2.9,9.5-6.1c4.6-5.2,11.2-7.7,17.7-9.6c5.1-1.5,4.3-2.9,8.1-5.8c9.9-7.6-0.5,21.7,12,16.1c5.5-2.5,9.8-1.7,10.3,5.2
				c0.7,9.8,2,7.5,12.1,7.5c6.1-8,6.6,0,14,0c6.7,0,13.3,0,20,0c-4-5.2-9.4-9.5-12.1-16.3c6.3,0.6,12.3,2.2,15.7,7.9
				c3.2,5.4,9.8,5,15.2,5.9c1.9,0.3,7.4-10,11.2-11.1c7.2-2,7.6-5.7,2.6-10.8c-5.1-5.2-8.4-10-15-14.2c-1.7-1.1-12.3,4.2-14.9,4.5
				c-10,0.8-11.9,4.8-15,13.9c-14.1-12.3,22.3-26.1,26.8-33.5c8,2.4,12.6,6,19.8,9.4c4.6,2.2,8-1,12.3-2c4.8-1.1,9.8-0.5,14.7-0.5
				c9.3,0.1,14.1,0.5,17.8,9.2c1.7,4.1,8.1,15.8,12.2,18.1c2.4,1.4,5.5-0.1,7.4,1.5c2.1,1.8,2.7,5.6,4.4,7.9
				c4.8,6.4,12.1,10,19.9,10c-1.1-7.3-4-14.8,1.3-21.2c6.1-7.2,6.7-8.1,4.1-17.3c-3.1-10.9,22.4-21.3,8-25.3
				c-12.4-3.4-35.7-2-38.9-19.5c-1-5.2,6.5-14.2,9.3-18.2c2.2-3.2,18.1,2.9,21.9,2.9c14.2,0,9.9-2.7,15.8-12.1
				c3.2-5,11-5.8,12.7,0.9c2,8.1,9.8,13,11.7,20.8c1.9,7.7-3,14.3,1.9,21.7c4.4,6.7,8.3,13.8,10.3,21.6c1.4,5.4,14.2,7.3,11.7,14.2
				c-2.3,6.3-13,9.8-18.3,12.8c-8.4-8.5-8-6.3-10,4.7c3.2-0.2,6.4-0.3,9.6-0.5c4,8.5-6.6,12.1-14,12.7c-5.4,0.5-8.5-2.7-13.3-2.9
				c-3-0.1-7.2,3.1-9.7,4.5c38,0,76,0,114,0c-9.9-10-4.7-15.4,8-11.2c1.4-1.6-1.6-8.6-1.4-11.4c6.9,0.5,11.6,5,15.5-2.9
				c-2.7-0.3-6.6,0.5-7.4-2.5c7.5-2.6,10.5-5.4,15,2c1.6,2.6-2.3,5.5-3.5,6.7c-7.2,7.7-10.2,9.5-14.2,19.2c5.9,0,12.3,1.6,16.8-2.6
				c3-2.8,6-5.4,10.2-6.3c7.1-1.5,7.9,3.4,8,8.9c5.7,0,11.3,0,17,0c-2.3-7.9-4-12.5-3.8-20.8c0.2-6.2-1.6-12.1-4.6-17.5
				c-2.6-4.8-2.6-8.9-4.7-13.8c-2-4.7-8.6-1.6-10-6.1c-3.4-11,10.7-10.1,9.8-15.3c-1.9-10.9-8.1-18.6-16.8-24.7
				c7.2-5.3,22.9-23.1,31.1-12.1c3.1,4.2,7.2,13.1,12.2,15.2c4.1,1.8,5.4-4.8,8.6-6.1c3-1.2,10.9,1.1,10.4-4.1
				c-0.4-4.5-4-8.5-6.2-12.2c6.2-10.9-1.6-25.1-8.5-33.6c3.2,0.3,18.8,4.3,20.2,0.2c2.5-7.2-7.7-8.8,0.6-11.4
				c5.9-1.9,5.4-8.4,9.1-12.2c4.5-4.6,12.6,1.6,16.6,3.7c0-20.7,0-41.3,0-62c-3.3,4.4-7.3,19.7-14,16.5c-7.5-3.6-8.3-9.8-14.2-14.6
				c-3.3-2.7-6.2-6.3-10.1-2.6c-3.7,3.6-6.2,4.7-2.7,8.9c6,7.2,7.7,4.4,15.9,4.8c4.6,0.2,2.7,20.6,2.7,23.6
				c0.2,7.6,4.8,19.3-3.1,23.5c-6.2,3.3-12.1-8-19.9-6.2c-8.6,1.9-17.2,3.5-25.9,5.1c1.6,4.5,7.3,17.4-3.3,14.7
				c-4.3-1.1-7.5-4.9-12.3-3.6c-0.7,0.2-7.9,4.6-8.9,0.8c-2.7-10,2.2-14.4,10.2-20.3c4-2.9,12.4,3.8,12.8-3.2
				c0.4-6.2-3.3-19.7,2.2-24.2c6.1-5,10.1-10,17.5-13.7c7.3-3.6,7.8-13.7,15.4-15.9c4.4-1.3,15.8,4.8,16.9,2.9
				c-4.2-2.8-8.5-5.5-12.7-8.3c6.8-5.5,12.9-23.5-1.3-25c-5.8-0.6-14.6,6.8-18.4-0.8c-4-7.9-6.3-22.8,0.6-29.6
				c7.4-7.3,12.1-4.1,5.4-15.6c11.8-1.6,17.7-6.4,28.4-10.6c12.4-4.9,8,2,18.7,4.6c0-19,0-38,0-57
				C725.6,116.4,717.1,112.2,706.5,113.8z M75.8,314.9c-1,9.8-9.8,4.1-16.3,7.4c-3.4,1.7-4.7,9.6-9.3,7.8c-5.2-2-0.6-6.3,0.7-8.8
				c4.3-8.5,3.1-19.3,11.1-25.7c4.3-3.5,12.6,14,13.9,16.7C76,315.9,75.9,315.9,75.8,314.9z M79.4,436c-1.2-5,1.9-9.8-2.6-14.1
				c-4.7-4.4-12.4-3.8-14.3-11.5c-1.1-4.5,10.2-10,11.8-14.4c2.9-8.2,10.8-11.9,16.8-5c0,0.2-0.1,0.3-0.1,0.5
				c-1,5.2-2.9,9.6-0.3,14.8c1.9,3.8,5.8,8.3,5.6,12.9C96,424.8,83.6,432.8,79.4,436z M100.1,393.1
				C107.2,403.2,95.2,403,100.1,393.1L100.1,393.1z M108.8,415.5c0-0.3,0.1-0.5,0.1-0.7c1.8-9.5,6.2-7.2,11.8-1.6
				C115.3,416.8,113.9,419.9,108.8,415.5z M258.7,429.4c-0.7,4.4-8.6,11-11.7,14c-4,3.8-6.8-1.2-8.8-3.9c1.6-3.5,5.1-16,9.4-16.7
				C251,422.2,259.5,424.2,258.7,429.4z M613.9,128.5c7.1,1.9,17.7-3.6,21.7,5.1c1.4,3.1-6.4,8.4-9.1,9c-4.7,1-5.1-5.7-9.5-4.4
				c-5.7,1.6-23.7,17.3-23.9,1.9c0,0.3,0,0.6,0,0.8c0-0.2,0-0.5,0-0.8c0-0.2,0-0.3,0-0.5c0,0.2,0,0.3,0,0.5
				C592.9,126.9,603.8,125.8,613.9,128.5z M593.1,141.3C593.1,141.6,593.1,141.6,593.1,141.3L593.1,141.3z M593.1,141.2
				c0-0.1,0-0.1,0-0.2C593.1,141.1,593.1,141.2,593.1,141.2z M580.7,68c0.1,6.7-5.4,10.3-11.5,9.5c-0.3,0-0.7-0.1-1.1-0.2
				c0.1-0.7,0.4-1.2,0.6-1.6C571.3,70.9,580.6,61.2,580.7,68z M460.8,20.8c5-2.5,19.9-7,21.9,1.9c1.1,4.8-6.5,15.4-9.5,8.4
				c-1.2,0.5-1.7,0.8-1.7,0.8c-5.5,2.9-19.2,10.8-21.1,6.9C446.2,30.4,453.5,24.4,460.8,20.8z M477.3,48.5c-2.1-0.7-4.3-1.4-6.4-2.1
				C473.2,42,479.2,43.4,477.3,48.5z M453.2,61.2c-0.2,1-0.4,1.9-0.6,2.8C443.2,61.7,443.7,59.8,453.2,61.2z M428,33.5
				c4.8,2.1,6.1,11.1,7.7,15.5c-4.8,10.5-13.1-2.1-15-9.1C419.9,36.8,425.3,32.3,428,33.5z M436,80.8c-4.6,2.7-16.3,0.2-20-3.5
				C424.3,73.2,428.6,76.6,436,80.8z M413.4,115.8c6-4.3,6.6-15.4,18.1-13.3c9.8,1.8,10.1,10.2,17.9-0.3c6.6,6,17.3-4,4.4-8.1
				c-4.4-1.4-2.1-8.2-8.1-7.2c-2.6,0.4-6.1,2.7-8.6,3.7c0.4-5.2-1.4-13.5,4.5-14.1c4-0.4,7.4,0.4,9.8,3.9c2.1,3.1,14.6,10.3,18,9
				c5.9-2.3,10.4-10,15.4-13.8c3.3-2.5,7.3-3.7,11-5.5c6.6-3.1,11.9-7.6,18.1-11.6c-4.5-2.1-5.3-2.1-5.5-7
				c16.4,4.5,21.4,31.4,39.4,34.1c3,0.5,7,5.3,10.9,6.1c4,0.9,8.7-1.6,12.8-1.7c9.6-0.3,15.6-1.8,24.5-4.2c-0.4,5.4-1,4.6-4.1,8.2
				c-4.1,4.7-0.2,8-5.7,12.6c-9.3,7.9-13.7,6-25.1,5.4c-14-0.7,2.5,7.8,6,9.2c6,2.4,8.6,1.3,14.7,0.4c1.4,5.3,2.3,8.3,1.6,14
				c-1.1,9.9-1.2,20.5-11.3,25.3c-10.3,4.9-7.8-7.2-9.7-12.5c-2.9-8.4-12,2.3-16.5-4.4c-5.2-7.5-7.6-14.4-17.7-16.4
				c-4.7-1-9.1-5.5-14-7.1c-4.7-1.5-9.5-2.9-14.2-4.2c-7.8-2.2-15.6-7.7-23.4-3.2c-9.1,5.2-22.1-7.5-32.7-0.5
				c-3.3,2.2,8.6,14.7-5,17.9c-10.4,2.5-14,2.6-20.8-4.3C413.7,121.7,401.1,124.7,413.4,115.8z M593,138.7c0-0.1,0-0.2,0-0.2
				C593,138.6,593,138.7,593,138.7z M593,137.3c0-0.1,0-0.2,0-0.3C593,137.1,593,137.2,593,137.3z M593,136.9
				C593,136.8,593,136.8,593,136.9L593,136.9z M503.6,156.4c-7.3-4.7-17.4-16.5-7.7-24.9c6.9-6,21,6.7,24.7,11.9
				c9.9,13.6-7.6,10.4-13.1,19.1C503,169.6,493,162,503.6,156.4z M438.4,203c-1.1-0.1-1.6-0.2-1.8-0.3c-5.4-0.9-10.7-2.7-13.2-8.1
				c-3.3-7.4,3.9-7.2,8.9-8.2c8.9-1.8,6.6-4,10.8,4c2.4,4.5,3.1,12.1-3.4,12.5C440,203,439.8,203,438.4,203z M302,23.2
				c2.4-4.7,8-5.6,9.4-11.4c1.1-4.4,7.4,0.8,7.9,1.1c6.1,2.7,22.3-1.4,22.1,10C340.8,48.1,299.2,28.8,302,23.2z M341.4,22.2
				c0,0.1,0,0.2,0,0.3C341.4,22.3,341.4,22.2,341.4,22.2z M341.4,22.9c0,0.1,0,0.1,0,0.2C341.4,23.1,341.4,23,341.4,22.9z
				 M341.4,23.8c0,0.1,0,0.2,0,0.3C341.4,24,341.4,23.9,341.4,23.8z M341.4,24.5c0,0.2,0,0.3,0,0.5
				C341.4,24.8,341.4,24.6,341.4,24.5z M341.3,25.3c0,0,0,0.1,0,0.1C341.3,25.4,341.3,25.4,341.3,25.3z M341.3,25.8
				C341.3,26.1,341.3,26,341.3,25.8L341.3,25.8z M319,45.1c12.5,2.6,24-0.6,36.4-0.6c-4.2,10.6-9,17.4-2.4,27.9
				c5.2,8.2,2.9,13.3-7.6,14.8c-5.4,0.8-8.5-4-14.2-3.4c-2.3,0.2-6.3,1.2-8.6-0.2c-2.5-1.6-1.5-5.3-2.8-7.6
				c-1.8-3.2-4.9-5.7-7.1-8.7c-3.1,8.2-8.3,6.8-13.9,6.4C302.8,62.9,304.5,42,319,45.1z M270.6,47.8C290,55.9,263.7,53.3,270.6,47.8
				L270.6,47.8z M245.3,23.6c3.8-0.7,5.6,3.1,8.6,4.5c3.5,1.6,6.3-0.3,9.9-0.3c5.7,0,4.7,11.4,5,15C261.1,56.5,232,25.9,245.3,23.6z
				 M239.9,61.9c-2.9-8.5,14.2-3.2,12.2,0.7C251.4,65.5,240.8,64.6,239.9,61.9z M253.5,83.3c-5.8-4.3,8.5-11.6,11.4-11.3
				c8.6,0.9,17.1,2.5,25.7,3.9C283.8,91.6,266.4,92.9,253.5,83.3z M201.6,188.4c0.6-3.7,3.2-26.3,9-24.2c5.9,2,8.5,15.9,10.5,20.8
				c3,7.5,1.9,16.6-8.9,15.5C202.3,200.5,199.8,199,201.6,188.4z M215.6,303.4c-0.7,4.1-5.1,3.4-4.8,8.3c0.1,1.4,3.2,7.6-0.1,8.8
				c-7.5,2.9-17.9-6-21.8-11.3c-2.8-3.8-4.6-8.8-8.7-11.7c-3.4-2.4-7.2-0.6-10.6-2.8c-6.1-4-5.7-4-11,0.8c-2.7,2.5-5.8-0.8-6.6-3.4
				c-2.5-8.5,16.9-14.9,22.5-17.8c7.3-3.8,12.4,8.1,20.2,8.9c7.8,0.9,9.1-0.1,14.3-5.9C211.9,284.4,216.9,295.6,215.6,303.4z
				 M250.5,273.3c-3,5.1-6.8,8.7-12.1,11.2c-4.5,2.1-6.8,7.8-9.7,11.5c-10.6-14.9-3.6-18.2,5.7-30.9c3.9-5.4,16-12.5,3.3-16
				c-3.2-0.9-8.8-2-11.8,0c-3,2-0.7,6-4.4,8.1c-7.2,4.2-22.2,7.5-20.5-4.8c0.7-4.9,1.5-14.6,7.9-15.4c5.5-0.7,7.5,3.5,11.7,5.7
				c3.5,1.9,5.5-5.5,10.3-3c5.1,2.7,10.1,5.7,14.7,9.2C257.3,257.9,257.5,261.2,250.5,273.3z M271.5,308.5c-0.2,0-0.4,0-0.5,0
				c-4.8,0-9.3,0.6-13.4-2.7c-3-2.4,2-10.4,5.5-10.3c3.7,0.2,12.2,4.9,12.4,9C275.5,306,272.5,311.4,271.5,308.5z M278.6,285.5
				c-2.7-10,11.2-6.6,16.1-4.3c0,0,0,0,0,0c0,0,0.1,0,0.1,0c0.2,0.1,0.5,0.2,0.8,0.4C292.8,284.1,281.2,295,278.6,285.5z
				 M302.5,258.1c2.2-8.6,2.8-12.7,1.8-21.4c-1.2-10.3,13.3-2.5,15.7,1C329.4,251.4,314.2,255.8,302.5,258.1z M312.4,418.9
				c2.4-11.9,12.7-2.8,15.2,2.7C324.9,427.5,311.2,424.8,312.4,418.9z M363.6,353.7c-4.5,7.5-18.5,26.6-30.1,17.2
				c-3.9-3.2-6.4-6.8-11-10c-5.1-3.6,1-4.3-1.7-6.6c0-0.3,0.1-0.6,0.1-0.7c1-6.6,3.1-12.5,5.2-18.8c3.9,0.7,7.8-0.7,11.8,0.5
				c1.6,1.4,3.4,2.3,5.4,2.8c7.7-1.6,13.5,4.3,20.6,6.1C369.6,345.5,365.2,351,363.6,353.7z M372,406.8c-2.1-3.1,2.9-10.2,6.5-8.8
				C378.1,404.7,378.5,405.1,372,406.8z M404,430.4c-1.7,1.7-5.3,7-7.7,5.3c-6.3-2.4-16.2-9.9-17.6-16.9c-2.9-14.7,7.8-4.9,12.8-4.1
				c7.7,1.2,12.4-4.4,14.4,5.9C407,425.6,408.1,426.3,404,430.4z M418.7,417.3c5.2-5,12.7,3,19.7,2.5c6.8-0.5,12.6-3.2,12.7,5.9
				C451.6,449.1,412.1,423.7,418.7,417.3z M501.2,362.8c-0.8-3.2-5.1-3.5-7.9-4.6c-1.2,6.1-3.7,16.5-12.2,12
				c-4.1-2.2-15.2-11.2-11.9-16.7c4.8-7.9,18.3,2.7,24.9-4.5c2.2-2.4,16.9,1.7,17.2,4.2C507.9,356.4,504.5,359.6,501.2,362.8z
				 M521.1,362.9c-3.7-0.1-8.8-8.4-4.6-10.9c4.8-2.9,10.1-4.7,15.1-7c3.7,5.6,8,9,0.3,11.5C528.6,357.5,524.4,362.9,521.1,362.9z
				 M528.8,410.5c2.4-6,9.8-9.9-0.5-12c0.1-0.1,0.2-0.2,0.3-0.3c5.6-5.6,19.5,10,22,15.7C547.9,414,526.7,415.7,528.8,410.5z
				 M546.2,292.9c-7.3,3.8-14.1-2.5-20.7-6.7c-4.8-3.1,12.2-14,14-14.6c5.7,1.8,14,4.7,16.5,10.7
				C558.6,288.5,550.4,290.7,546.2,292.9z M564.4,478c-8.8,0.4-0.3-10.3,0.2-12.9c0.9-5.3-0.2-10.4,6.9-4.3c3.7,3.1,6.1,5.3,7.5,9.8
				C574.6,474.1,570.3,477.8,564.4,478z M595,454.9c-8.4-2-0.8-7.7,2-10.4C598.3,446.8,602.7,456.7,595,454.9z M599.7,422.6
				c0-0.1,0-0.3,0-0.4c-0.1,12.7-15.9,10.8-22.8,5.8c-4.8-3.5-7.9-11.2-11.1-16.1c-1.7-2.6-8.5-9.1-8.7-12.4
				c-0.6-8.7,26.3,6,27.3,6.6c8,4.1,15.3,5.8,15.3,16.1c0,0,0-0.1,0-0.1c0,0,0,0,0,0.1C599.7,422.3,599.7,422.5,599.7,422.6z
				 M599.7,422.8C599.7,422.9,599.7,422.9,599.7,422.8L599.7,422.8z M559.1,326.9c4.4-10,15.3-14.9-1-16.8c2.8-4.3,7-6.9,8.6-12
				c2.3-7.1,2.7-13.5,6.7-20.1c5.3-8.7,18-4.2,18.4,6.5c0.2,6.4,6,9.5,9.2,14.3c1.2,1.8,8.6-2.3,8.8-2.3c2.8,0.2,5.3,1.2,7.4,3.1
				c7.3,5.1,6,23-4.7,23.4c-2.4,0.1-16.2,2.3-12.8,7.5c4.3,6.7-5.8,12-9.9,15.5c-5,4.3-20.2,26.8-28.3,24.4
				c-6-1.8-3.7-17.7-3.1-21.8C559.6,342.6,556.9,331.8,559.1,326.9z M596.9,366.2C586.7,372.3,589.6,360.3,596.9,366.2L596.9,366.2z
				 M599.7,419.4C599.7,419.3,599.7,419.3,599.7,419.4L599.7,419.4z M599.7,421.1c0-0.1,0-0.2,0-0.3
				C599.7,420.8,599.7,421,599.7,421.1z M636.9,394.4c-4.6,11.3-14.4,23.2-27.5,19.1c-4.2-1.3-3.6-8-6.6-10.9c-4-3.8-9-5.6-9.6-11.7
				c0,0-0.1-0.2-0.1-0.9c0.2-3.4,0.2-2.7,0.2-1.5c2.2-10.2,20.6-18.8,29.6-17.1C631.3,373.1,640.3,386.2,636.9,394.4z M648.9,343.5
				c5.5-0.3,10.8,1.4,15.6,3.9c5.4,2.9,14.7,3.6,13.6,11.9c-0.4,2.9-12.1,7.3-15,8.7c-6.5,3.3-9.4-3.9-12.7-8
				c-5.7,3.3-5.5,10.3-14.4,6.6c-8.3-3.4-11.1-10.2-17.1-16c-4.1-3.9-10.9-10.3-0.8-10.9c7.6-0.4,10,6.5,16.4,7.7
				C638.8,348.2,644.3,343.7,648.9,343.5z M632.8,283.7c4.8-4.2,3.5-3.6,7.8-0.9C636.7,285.2,636,286.7,632.8,283.7z M643,196.3
				c-7.2,3.5-16.3,17-12.3,24.5c5.1,9.4-7.5,20.4-15.2,25.2c-12,7.5-0.9,9.2,5.4,16.3c5.5,6.2-2.6,7.9-0.6,13.8
				c1.2,3.4-1,10.1-5.6,8.2c-12.3-4.9-6.5-17.8-4.3-27.3c-11.4,4.7-21.4,6.1-31,14.4c-7.7-11.5-22.9-5.3-34.1-8.8
				c-10-3.1,10.8-16.8-4.7-20.7c-4.5-1.1-10-0.1-10.7-6.3c-3.3,0.5-8,1.3-6.3,5.7c4.2,10.9,6.4,16.1-7.1,18c0.7,2.4,1.4,4.8,2.1,7.1
				c-2.2,0.1-3.8,1-4.9,2.7c-2,4.2,0.3,11.7,0,16.2c-0.1,1.9-2.6,12.9,0.8,13.8c3,0.8,4,3.1,4.1,6c0.3,10.5,12.7,12.7,4,22.1
				c-8.3,8.8-18.7,4.7-29.2,4.7c-6.9,0-5.6-16.1-3.3-19.7c5.7-8.7-5.4-14.2-13.6-16.2c-24-5.9-24.8,13.7-31.2,30.1
				c-4.8,12.4,5.5,16.9,7.9,27.6c2.2,9.9,6.8,25.8,4.6,35.7c-2.3,10.3-19.3,13-27.8,14.1c-11.5,1.5-19.6,1.7-20-11.2
				c-0.4-12.1-3.5-19.3,3-30.4c7.8-13.4-1.8-16.5-12.7-23c-13.5-8-15.1-8.3-7.4-22.6c5.5-10.1,11.5-21.9,20.8-29
				c2.9,7.3,4.3,20.8,13.5,20.7c6.4-0.1,17.6-0.3,18.7-8.9c0.9-6.3,1.1-12.4,4-18.2c1.1-2.1,6-8.3,4.3-11
				c-3.4-5.4-13.5-0.2-15.4-10.3c-2.4-12.9,10.5-3.8,16.2-9c7.8-7.1-0.6-11.7-6.8-13.3c-7.9-2-6.7-9.5-13.2,0.1
				c-4.8,7.1-10,8.2-13.5,17.1c-7.8-4.9-6.1-1.8-6.9,4c-0.6,4.1-7.7,8.4-11,9.8c-8.8,3.6-17.5-4.9-11.4,10.1
				c-5.3,3.3,1.6,12.7-8.2,16.9c-9.6,4-15.1-5.2-21.5-9.8c-3.6-2.6-6-3.3-10.4-3.1c-4.2,0.2-3.3-9.1-3.2-11.8
				c0.2-5-4.7-9.1-5.2-14.3c-0.4-3.9,1.6-8.1,0.8-11.9c-1.2-5.4-7.8-3.7-9.6-8.3c-1.3-3.2-0.5-7.9,0-11.2c2-12.2,9-20.2,3.5-33.1
				c-4.1,6.4-6.8,13.8-15.5,14.1c-7.2,0.3-15.2-7.2-21.2,0.6c-3.4,4.4-2.6,14.6-5.2,20.1c-3,6.4-7.2,12.4-7.8,19.6
				c-1.3,14.4-4.7,7.6-16,8.7c-4.1,0.4-7.3,2.6-11.4,3c-0.1-3.1-1.4-6-4.1-7.7c-7.5-4.7-4.8-4.9,1-8.7c3.5-2.2-1.2-10.4-2.1-13.3
				c10.9,3.1,13.1,0.3,9.7-10.6c-3.1-9.9-6-19.2-10.5-28.5c-2-4.1,1-6.9,3.3-10c3.4-4.6,6.4-1.2,10.2,0.2c8.1,3.1,13.1,9.2,22.5,8.5
				c4.8-0.4,13.9,0,15.1-6.3c0.7-3.8-1.8-6.9-0.5-10.7c3.1-8.7,10.8-7.3,1.6-15.9c-9.3-8.8-7.6,6.4-16,5c-8.1-1.3-3.4-12.5-9-16.9
				c-9.5-7.6-9.6,8.2-18.4,6.1c-5.4-1.3-11.4-8.6-9.6-14.5c1-3.4,4-6.5,6.1-9.2c1.8-2.2-1.1-5.8-1-8.1c0.4-6.6,18.4-5.6,22.5-5.4
				c11,0.6,22-5.5,32.6-4.1c8.4,1.2,14.6,10.9,22,14.7c7.3,3.6,13.9,2.3,20,7.7c2.1,1.9,5.9,1.5,6.9,4.3c1.5,4.1-0.3,9.3-0.8,13.4
				c14.5,1.1,29.1,2.1,37.4,16.1c9,15.1,3.3,19.5-11.1,27.3c-4.1,2.2-15.9,5.4-13.6,12.1c2.4,6.8-8.1,0.9-9.4-1
				c-3.4-4.8-1.4-9.1-9.5-5.7c-4.6,1.9-7.4,6.3-9.7,10.4c17.5,7.6,31.4,15,31.4,36.5c7.1-3.4,11.4-8.6,19.6-9.8
				c7.8-1.2,12.7-4.3,19.8-6.5c5.7-1.8,0.3-7.1,8.4-7.1c6.2,0,20.9-3.9,25.9-0.1c7.9,5.9,11.4-3.2,12-10.9c0.3-3.9,3-15.6,0.7-18.4
				c-9.9-12.5-14.4-18.4,3.3-23.6c-1.1,2.9-7.8,5.1-6.8,8.6c1.6,5.4,12.7,3.5,11.2-2.9c-3.9-17.5,22.5,5.1,26,5.8
				c7.6,1.5,23.6-14,23.9-1.4c0.2,7.4-9.5,8.1-10,15.1c-0.3,3.9,3.7,8.6,5.4,12c-4.7,3.5-11.9-13.2-16.4-5.2
				c-2.4,4.2-4.7,8.7-10.1,9.4c-3.5,0.4-3.9,13.3-4.2,15.8c-0.3,2.7,7.5,3.2,8.8,3.5c0.5,2.5-1.1,3.4-4.7,2.8c1.1,2.5,2.4,4.9,4,7.1
				c2.6,3,6.1,2.9,9.7,2c11.2-2.8,6.1-10.9-3-10.9c3-6.6,6.4-12.4,13.3-15.3c0.7-0.3,1.7-0.7,3.2-1.1c-2.4,6,13.8,28.3,18.7,16.7
				c2.9-6.9,5.5-2,10.4-1.2c3.4,0.5,4.3-5.7,6.9-7.5c3.9-2.7,16.5-8.1,17.7-12.9c1.1-4.1-5-8.7-5.2-13.2c-0.2-5,2.4-12.3,6.2-15.7
				c1.9-1.5,3.6-1.1,5.1,1c2.4-1.5,4.7-3.1,7.1-4.6c4-2.8,12.5-11.4,18.1-8.8c3.5,1.6,6.8,7.1,4,10.5c-3.6,4.3-9.2,5.4-9.9,11.7
				c-0.7,6.8,4.4,6.7,9.8,5.5c5.2-1.1,4.6-5.1,3.9-9.5c-0.8-4.7,2.3-7.9,5-11.3c2.9-3.8,5.4-7.9,8.4-11.6c2-2.5,9.9-3.8,13.1-5.8
				c4.9-3.1,12.7-10,18.2-4.7c2.5,2.4,8.7,1.2,10.5,3.7c1.5,2.1-1.3,6.2,0,8.8c2.2,4.2,2.6,9.2-1.1,12.8c-5.5,5.3-8.8,7.1-11.1,14.9
				C653,198.3,648,193.9,643,196.3z M394.2,282.3c2.1-1.5,4.2-3.1,6.3-4.6c1.2,1.1,2.4,2.2,3.6,3.4
				C399.1,284.6,398.3,286.9,394.2,282.3z M430.5,264c4.9-0.2,3.3,9.1-1,11.9c-0.3,0.4-0.9,0.7-2.3,0.8c-0.1-0.7,0-1.1,0.1-1.5
				C428.3,271,434.6,269.1,430.5,264z M679.5,237.7c7.3-0.4,8.4,8.4,3.7,12.4c-5.9,5-11.8,10-17.6,15.1c-4.3,3.8-8.7,8.6-14.2,3.9
				c-4.4-3.8-6.2-11-3.4-16.3c4.4-8.2,5.4-7.2-0.3-15.1c-3-4.1-4.1-11.5,2.5-11.8c-0.7-0.1-0.7-0.1,1,0c1.5,0.2,1.8,0.2,1.5,0.2
				c6.9,1.1,7.7,4.5,11.8,10C668.7,241.5,674.3,238,679.5,237.7z M711,127.9c3.6-9.7,11.7,1.3,13,6.2
				C718.7,134.3,707.6,137.1,711,127.9z"/>
			<path fill="#A1C36D" d="M652.8,226.1c-0.5-0.1-1-0.1-1.5-0.2c-0.4,0-0.7,0-1,0C651.1,226,652.5,226.1,652.8,226.1z"/>
			<path fill="#A1C36D" d="M290.6,75.8C281.6,74.4,289.1,79.3,290.6,75.8L290.6,75.8z"/>
			<path fill="#A1C36D" d="M302.5,258.1C304.8,257.6,303.2,255.2,302.5,258.1L302.5,258.1z"/>
			<path fill="#A1C36D" d="M593.1,390.1c0,0.3,0,0.6,0.1,0.9c0.1,0,0.1-1.3,0.1-2.3C593.2,389.2,593.2,389.6,593.1,390.1z"/>
			<path fill="#A1C36D" d="M268.8,42.7C268.5,38.9,268.5,43.2,268.8,42.7L268.8,42.7z"/>
			<path fill="#A1C36D" d="M270.6,47.8C270.1,48.1,273.1,48.8,270.6,47.8L270.6,47.8z"/>
			<path fill="#A1C36D" d="M596.9,366.2C594.8,364.5,594.6,367.5,596.9,366.2L596.9,366.2z"/>
			<path fill="#A1C36D" d="M294.7,281.3C294.7,281.2,294.7,281.2,294.7,281.3c-4.1-1.8-2.8,3.6,0.9,0.5
				C295.4,281.6,295.1,281.4,294.7,281.3C294.8,281.3,294.7,281.3,294.7,281.3z"/>
			<path fill="#A1C36D" d="M558,310.2C560.4,310.4,559.2,308.3,558,310.2L558,310.2z"/>
			<path fill="#A1C36D" d="M640.5,282.9C638.5,281.6,638.1,284.3,640.5,282.9L640.5,282.9z"/>
			<path fill="#A1C36D" d="M209.1,277.3C207.2,279.3,210.3,280.4,209.1,277.3L209.1,277.3z"/>
			<path fill="#A1C36D" d="M228.6,296C232.1,291.6,227,293.8,228.6,296L228.6,296z"/>
			<path fill="#A1C36D" d="M327.6,421.6C326.6,419.5,327,422.9,327.6,421.6L327.6,421.6z"/>
			<path fill="#A1C36D" d="M596.9,444.5C594.2,447.2,598.5,447.1,596.9,444.5L596.9,444.5z"/>
			<path fill="#A1C36D" d="M528.6,398.1c-0.1,0.1-0.2,0.2-0.3,0.3C535,399.8,531,396,528.6,398.1z"/>
			<path fill="#A1C36D" d="M579,470.7C578.3,468.6,577.5,471.8,579,470.7L579,470.7z"/>
			<path fill="#A1C36D" d="M511.3,353.2C511.2,352.7,507.9,356.4,511.3,353.2L511.3,353.2z"/>
			<path fill="#A1C36D" d="M531.6,345C525.7,347.6,533.4,347.7,531.6,345L531.6,345z"/>
			<polygon fill="#A1C36D" points="599.7,422.2 599.7,422.2 599.7,422.2 			"/>
			<path fill="#A1C36D" d="M321,353.6c0,0.2-0.1,0.5-0.1,0.7C321,354.4,321.1,352.9,321,353.6z"/>
			<path fill="#A1C36D" d="M519.1,212.6c-1.1,0.3-2.2,0.6-3.2,1.1C512.3,215.4,517.7,216.2,519.1,212.6z"/>
			<path fill="#A1C36D" d="M436.5,202.7c0.6,0.1,1.2,0.2,1.8,0.3c0.4,0,0.8,0,1.2,0C438.8,202.8,435.8,202.5,436.5,202.7z"/>
			<path fill="#A1C36D" d="M378.5,398C377.8,397.7,378.4,400.4,378.5,398L378.5,398z"/>
			<path fill="#A1C36D" d="M3,223.4c3.2,1.7,9,6.2,12.8,6.1c4.7-0.1,6.2-5.5,11.5-4.7c5.5,0.8,10.7,6.7,15.7,1.2
				c2.7-2.9,10-13.4,15.7-8.8c3.3,2.7-1.7,11.3,5.4,11.1c14.1-0.4,7.6-9.8,16.8-13.9c5.5-2.5,11.5,8.8,16.5,10.2
				c9,2.4,14.8-5.3,18.1-12.3c3.7-7.9-2.5-11.9-8.3-15.7c-10-6.5-10.1-6.4-21.1-4.4c-7.4,1.3-9.4-6.8-9.9-12.2
				c-0.7-8.4-3.4-16.3-4.2-24.7c-0.9-9.1,4-9.6,7.7-16.3c4.2-7.7-6.9-9.6-12.5-7.7c-4.4,1.5-14.4-4.4-18.2-6.7
				c-7.1-4.3-14.6-3-22.4-4.5c1.5-6.2,2.1-9.2,0.5-15.5c-4.3,1.7-17.5,11.8-19.8,9.8c1.7-5.8,6.3-7.1,2.5-13.8
				c-4.1-7.1,8.2-7.1,11.1-11.2c2.7-3.7,2.3-9.4,4.4-13.6c3.6,3.8,4.3,7.5,7.3,11.4c3.2,4.1,7.3,2.7,11.6,3.9
				c8.1,2.3,4.9,15.9,17.1,13.5C69.7,103,74,101,74.6,92.3c0.7-10.2-11.8-3.3-16.5-10.4c9,0.3,17.8,3.4,26.4-2.2
				c-4.8-7.3-9.7-12.1-2.1-19.7c5.8-5.7,12.5-1.8,19.6-3.3c4.7-1,15-9.7,14.1,0.9c-0.5,6,2,11.1,1.7,16.3c-0.4,10,2.4,7,8.2,14.5
				c3.6,4.7,1.9,12.5,6.4,16.2c11.7,9.6,27.9,8.1,41,4.2c-2.7-3.2-9-8.8-4.7-13.1c3.8-3.9,14.1-5.3,14.5-11.7
				c1-16.2-22.4-6-23.2-12.7c-0.7-5.9,3.5-11.5,2.2-17.9c-1.3-6.4-8.3-11.3-14.1-13.3c-2.4-0.8-16.2,2.2-15.9,0.8
				c1.2-6,2.7-11.9,4.2-17.9c-5.6,0.5-6-5.5-8.3-9c5.6-2.2,18.3-3.9,18-11.7c0-0.1,0-0.3,0-0.4c-6.7,0-17.3-2.5-21.2,3.3
				C121.9,9.5,119,16,114.5,9c-1.2-2.2-2-4.5-2.4-7c-3.9,0-7.8,0-11.7,0C92.6,2,84.8,2,77,2c-17.5,0-35,0-52.6,0C16.6,2,8.8,2,1,2
				c0,7,0,14,0,21c2.5-3.6,5.4-3.7,9.6-4.8c0.6,7.1-1,17.1-9.6,9.8c0,28.7,0,57.4,0,86.1c0,14.4,0,28.7,0,43.1c0,8.2,0,16.4,0,24.6
				c0,9.1,3.5,6.9,11.5,8.6c-2.7,4.6-7,4.9-11.5,2.6c0,5,0,10,0,15c2.4-0.4,4.8-0.7,7.2-1.1C8.7,214.5,7.2,217,3,223.4z M57.7,165.5
				c7.9,4.4,5.8,11.1-1.7,12.4c-0.1,0-0.3,0.1-0.7,0.1c-1.7,0-1.8,0-1.4,0C42.2,177,48.6,160.4,57.7,165.5z M25.7,145.2
				c-0.5,0-0.7,0,0.3,0c2.6,0,1.5,0,0.4,0c8.7,0.3,9.8,11.7,1,11.7C19.8,156.9,18.5,145.6,25.7,145.2z M155.5,84.8
				C152.7,64.3,165,86.9,155.5,84.8L155.5,84.8z M130.4,73.5c4.8-11.6,11.3,1.5,13.2,6.3c-2.8,3-5.4,6.7-9.5,2.7
				C131.9,80.3,129,76.9,130.4,73.5z M110.2,19c2.5,1.5,10.6,5.1,9.4,9.1c-0.7,2.2-4.1,3.9-4.4,6.1c-1.2,7.7-7.6,6.2-13.1,8.1
				c-0.9,0-1.2-0.1-1.2-0.2C91.4,39.1,91.4,7.7,110.2,19z M45.6,20.6c0.8-5.2,9.3-6.8,7.9-2.2c-2.2,7.5,5.5,9.6,9.6,3.8
				c4.9-6.9-6.2-8.9-4.9-13.2c6.9,0.8,13.4,4.9,21.2,5.9c11.4,1.4,2.1,13.3-2.7,15.8c-6.4,3.5-3.8,14.3-12.5,12.5
				c-6.5-1.4-11.2-8.9-9.1-15.1C50.5,27.9,44.8,26.4,45.6,20.6z M45.4,68c5.5-2,7.8,7.4,9.7,10.8c-2.2,0-3.1-0.5-3.2-0.9
				C46.7,75.7,39,70.2,45.4,68z"/>
			<path fill="#A1C36D" d="M51.8,77.9c1.4,0.6,2.5,0.9,3.2,0.9C53.7,76.3,51.5,77,51.8,77.9z"/>
			<path fill="#A1C36D" d="M100.9,42.1c0.4,0.1,0.8,0.2,1.2,0.2C105.8,41,100.7,41.6,100.9,42.1z"/>
			<path fill="#A1C36D" d="M143.6,79.8C142.5,76.9,142.2,81.3,143.6,79.8L143.6,79.8z"/>
			<path fill="#A1C36D" d="M155.5,84.8C156,85,155.3,83.3,155.5,84.8L155.5,84.8z"/>
			<path fill="#A1C36D" d="M53.9,177.9c0.4,0,0.9,0,1.4,0c0.3,0,0.5-0.1,0.7-0.1C56.4,177.8,54.6,177.9,53.9,177.9z"/>
			<path fill="#A1C36D" d="M26,145.2c-0.1,0-0.2,0-0.3,0c0.2,0,0.4,0,0.7,0C26.2,145.2,26.1,145.2,26,145.2z"/>
			<path fill="#A1C36D" d="M698,2c4.7,16.5,0.2,16.7-11.3,27.3c-10.8,10-11.9,13.1-12,27.5c-0.1,7.3-11.9,23.2,3.9,24.2
				c4.8,0.3,7.7-5.9,13-5.3c4.4,0.5,6.6,5.6,7.8,9.2c2.4,7.1,10.7,3.4,12.8-1.4c2.3-5.2-1.9-8.9-4.7-12.6
				c-7.8-10.1,7.9-23.9,1.6-31.1c-6-6.8-8-16.9,2-22.5c10.9-6.2,11.6,1.1,15.4-12.8c4.3,1.6,6.4,3.3,9.7,6.5c0-3,0-6,0-9
				C723.3,2,710.6,2,698,2z M686.2,67.9c-7.3-3.4-5.4-9.2-2.6-15.1c8.3-17.6,10.9-2.8,13.9,8.6C694.2,65.9,692.6,70.9,686.2,67.9z"
				/>
			<path fill="#A1C36D" d="M697.4,61.4C695.8,55.2,695.9,63.6,697.4,61.4L697.4,61.4z"/>
			<path fill="#A1C36D" d="M710,377.4c-1.7,11.6,7.7,23.7,14.9,31.4c5.5,6-3.2,21.5,11,17.1c0-19,0-38,0-57
				C725.8,363.1,712.1,363.3,710,377.4z"/>
			<path fill="#A1C36D" d="M14.2,392.2c-2.2-4.4-4.7-10-3.5-15.1c1.4-5.8-2.9-5.2-5.7-8.9c-4.2-5.6,7.1-25.4,7.4-32.8
				c0.4-10.2-6.6-9.6-11.3-2.5c0,27.3,0,54.7,0,82C4.6,408.1,17.8,399.5,14.2,392.2z"/>
			<path fill="#A1C36D" d="M723.8,474.6c-2.4-0.3-4.8-0.8-7.2-1.4c-2.4,1.3-4.7,2.7-7,4.2c-8.7,5-10.2,0.4-9.7,12.4c12,0,24,0,36,0
				c0-9,0-18,0-27C732.5,466,728.1,473.4,723.8,474.6z"/>
			<path fill="#A1C36D" d="M34,479.8c-9.9-4.6-19.2-1.4-21.9,10.1c16,0,32,0,48,0c-4.2-1.3-9-0.7-12.9-2.5
				C42.6,485.3,38.6,482,34,479.8z"/>
			<path fill="#A1C36D" d="M279.3,477.4c-4,8.1-4.7,6.9-14,6.4c0.2,2,0.5,4.1,0.7,6.1c8.3,0,16.7,0,25,0
				C287.3,484.5,284.7,481,279.3,477.4z"/>
			<path fill="#A1C36D" d="M411,473.6c-10.9,2.3,0.5,13.1,3,16.4c4.3,0,8.7,0,13,0C420.8,486.4,417.7,472.2,411,473.6z"/>
			<path fill="#A1C36D" d="M619,2c-7.7,0-12.3,0.1-19.2,3.2C611.3,13.1,614.8,17.1,619,2z"/>
			<path fill="#A1C36D" d="M1,257c0,4.3,0,8.7,0,13c2.3-0.9,4.6-1.8,6.8-2.7C5.8,262.8,4.8,260.3,1,257z"/>
			<path fill="#A1C36D" d="M170.1,481.9c-0.3,3.9,1.3,5,3.9,8c0.7,0,1.3,0,2,0C174.5,485.8,174.6,482.8,170.1,481.9z"/>
			<path fill="#A1C36D" d="M146.1,196.6c5.5-3.7,14.6-10.5,17.8-16.5c2.8-5.3,8.3-13.8,8.3-20c0-5.1-7.6-6.9-11.2-8.7
				c-13.1,6.7-29.8,2.6-43-3.1c-6.3-2.7-30.3,11.4-17.8,19.5c3.3-2.7,6.6-5.4,9.9-8.2c3.5,8.7,5.7,18.8,12.8,25.1
				c5.2,4.6,9.5,6.2,8.6,13.4c-1,8.2-9,1.4-9.2,9.7c-0.2,6.6,5.3,0.7,7.4,3.9c-2,5.1-3.4,15-8.3,17.9c-4.4,2.5-18.2,4.8-18.5,11.3
				c-0.2,4.3-1.5,17.4,6.2,16.1c6.2-1,12.7-2.6,17.5-7c6.1-5.6,7.7-14.8,18.2-12.5c8.4,1.9,8.5,3.5,11.8-6.3
				c1.7-5-1.7-15.7-3.7-20.4c-1.9-4.6-16.7-2-20.5-2C132.4,199.6,139.1,201.2,146.1,196.6z M136.9,182
				C136.9,182,136.9,182,136.9,182C136.9,182,136.9,182,136.9,182z M137.8,182.1c0,0,0.1,0,0.1,0
				C137.9,182.1,137.8,182.1,137.8,182.1z M138.9,182.1c0.1,0,0.1,0,0.2,0C139,182.1,138.9,182.1,138.9,182.1z M139.2,182.1
				c0.1,0,0.1,0,0.2,0C139.4,182.1,139.3,182.1,139.2,182.1z M127.2,168.4c1.7-4.4,11.6-4.2,15.2-4.4c12.9-0.7,8.1,18.4-4.3,18.1
				C131.6,181.9,124.4,175.6,127.2,168.4z"/>
			<path fill="#A1C36D" d="M64.9,458.3c-6.8,1.8-7,9-7.8,14.7c0,0-0.1-0.1-0.1-0.1c0,0,0,0.1,0,0.1c0,0,0.1,0,0.1,0v0
				c12.3-0.7,29.5,20.1,30.4-4.9C87.7,460.6,70.7,456.8,64.9,458.3z"/>
			<path fill="#A1C36D" d="M224.8,363.6c2.8,7.6,9.8,12.2,17.9,9.9c7.9-2.3,4.5-6,4.2-12C247.7,346.6,219.6,349.3,224.8,363.6z"/>
			<path fill="#A1C36D" d="M246.8,361.6C246.9,361.7,247.2,354.9,246.8,361.6L246.8,361.6z"/>
			<path fill="#A1C36D" d="M228,113.4c0.1,0,0.1,0,0.2,0c12.2-1.5,9.1-11.7-0.8-14.7c-11.9-3.6-12.4,14.1-0.4,14.7
				C225.9,113.4,225,113.5,228,113.4z"/>
			<path fill="#A1C36D" d="M16.9,263.3c0-0.8-0.1-1.1-0.1,1.3c0,0.4,0.1,0.6,0.1,0.6c1.1,6,8.3,2.5,12.9,1.9c6.6-0.8,4.3-4.3,3-8.7
				C29.6,247.3,17.7,253.6,16.9,263.3z"/>
			<path fill="#A1C36D" d="M109.9,116.7c0.1-0.2,0.1-0.6,0.1-1.3c-1.9-3.3-3.3-10.1-8.5-9.1c-2.8,0.6-11.5,3.9-9.1,8.6
				C95.1,120,108.6,124.8,109.9,116.7z"/>
			<path fill="#A1C36D" d="M53,462.1c-6.8-0.9-11.3,1.5-17.9,3.5c3,2.8,4.9,4.7,8.8,6.2C49.4,468.8,51,468,53,462.1z"/>
			<path fill="#A1C36D" d="M101.2,85.9c-4.6,4.4-8.9,8.6-13.9,13.4c2.4,0.5,3.7,0.1,4.2-0.4C98.5,96.8,108.3,89.9,101.2,85.9z"/>
			<path fill="#A1C36D" d="M269.9,353.3c-5.2-4.2-12.8-8.8-8.5,2.1C265,364.2,267.6,359.3,269.9,353.3z"/>
			<path fill="#A1C36D" d="M224.5,124.3c-1.5-1.3-3-2.5-4.4-3.8c-2,1.7-3.9,3.5-5.9,5.2C218.8,128.5,219.7,127.1,224.5,124.3z"/>
			<path fill="#A1C36D" d="M180.2,474.4c-0.1,4.7,2,5,6.3,1c-1.5-1.9-2.9-3.9-4.4-5.8C179,470,178.4,471.6,180.2,474.4z"/>
			<path fill="#A1C36D" d="M177.4,148.3c-3.7-1.8-7.1-3.5-10.4-5.1C164.6,148.7,173.7,151.7,177.4,148.3z"/>
			<path fill="#A1C36D" d="M49.7,475.7c3.6,3.4,6.5,1.9,7.3-2.7C53.9,472.1,51.5,473,49.7,475.7z"/>
			<path fill="#A1C36D" d="M9.3,445.6c0.4,5.2,2.1,3.2,6.5,2.8C15.6,443.9,13.1,445.6,9.3,445.6z"/>
			<path fill="#A1C36D" d="M100,306.3c0.3,2,0.6,3.9,1,5.9C106.7,312.1,105.8,306.5,100,306.3z"/>
			<path fill="#A1C36D" d="M55.2,228.4C49.3,235,61.9,236.8,55.2,228.4L55.2,228.4z"/>
			<path fill="#A1C36D" d="M683.7,470.5c0.8-0.8,1.5-1.5,2.3-2.3C679.2,462.4,677.8,463.9,683.7,470.5z"/>
			<path fill="#A1C36D" d="M731.9,204.4c0.3-7.2-12.8,0.4-13,6.1C717.1,220,731.5,213.3,731.9,204.4z"/>
			<path fill="#A1C36D" d="M718.8,210.5C719.1,205.4,718.2,214,718.8,210.5L718.8,210.5z"/>
			<path fill="#A1C36D" d="M682.8,200.3c2.1,3.3,4.2,6.6,6.4,9.9c5.6-7.9,5.9-8.1,0.4-16C687.3,196.3,685,198.3,682.8,200.3z"/>
			<path fill="#A1C36D" d="M677.5,302.9c6.3,2,19.2-1.1,10.1-7.7C682,297.2,680.5,297.9,677.5,302.9z"/>
			<path fill="#A1C36D" d="M704.2,188c4,3.9,6.3,4.4,11.9,5.5C724.2,185.7,709.8,184.5,704.2,188z"/>
			<path fill="#A1C36D" d="M613.3,197.1c-6,1.3-11.3,7.2-11.9,13.3c-0.8,8.3-2.7,11.9-8.1,19.4c-3.1,4.2-13.3,10.4-13.3,15.9
				c-5-1.9-16.3-9-21.6-5.6c-5.6,3.6-4.3,9-0.4,13.3c8.2,9.1,16.3,0.8,23.2-4.9c7.9,19,18.4,9.8,22.9-5.7c3.2-11.1,6.2-3.6,13.8-7.8
				c6.4-3.6,4.6-15,4.1-20.9C621.5,207.3,624.5,194.7,613.3,197.1z"/>
			<path fill="#A1C36D" d="M581.2,248.6C579.4,250.1,582.3,251.2,581.2,248.6L581.2,248.6z"/>
			<path fill="#A1C36D" d="M369.9,231.6c-3.4-9.3-16.3-22.4-21.9-8.4c-2.8,6.9,6.1,13.3,10.8,17c5.5,4.4,9.5-1.9,12-5.5
				C370.4,231.4,370.1,231,369.9,231.6z"/>
			<path fill="#A1C36D" d="M436.1,317.3c-7-1.1-14.4-0.7-13.4,7.5c1.5,12.7,17.1,19.2,18.3,3.8c0,0.2,0,0.2,0.1-0.7
				C441.6,327.9,440.9,318.1,436.1,317.3z"/>
			<path fill="#A1C36D" d="M655.4,171.3c0.1,0.4,0.1,0.4,0.2-1c-0.1-0.3-0.1-0.5-0.1-0.6c-1.9-7.2-11.7,0.6-15.7,2.5
				c-7.3,3.5-15.8,4.8-11.2,13.6C631.9,192.2,653.4,178.5,655.4,171.3z"/>
			<path fill="#A1C36D" d="M434.7,371.9c-2.2,0-2.9,0.1-2.8,0.2c-9.5,1.7-12,12.5-7,19.7c5.7-6.1,4.7-5.3,12.2-7.3
				C446,382,438,374.8,434.7,371.9z"/>
			<path fill="#A1C36D" d="M356.2,250.3C356,250.3,356.1,250.3,356.2,250.3L356.2,250.3z"/>
			<path fill="#A1C36D" d="M358.6,250.3c0.1,0,0.2,0,0.3,0C358.8,250.3,358.7,250.3,358.6,250.3z"/>
			<path fill="#A1C36D" d="M358.9,250.3c0.2,0,0.3,0,0.4,0C359.2,250.3,359,250.3,358.9,250.3z"/>
			<path fill="#A1C36D" d="M356.4,250.3c-0.1,0-0.1,0-0.2,0C356.2,250.3,356.3,250.3,356.4,250.3z"/>
			<path fill="#A1C36D" d="M359.3,250.3C359.3,250.3,359.3,250.3,359.3,250.3C359.3,250.3,359.3,250.3,359.3,250.3z"/>
			<path fill="#A1C36D" d="M359.3,250.3C359.5,250.3,359.6,250.3,359.3,250.3L359.3,250.3z"/>
			<path fill="#A1C36D" d="M357.4,250.3c0.4,0,0.8,0,1.2,0C358.3,250.3,357.9,250.3,357.4,250.3c-0.5,0-0.8,0-1.1,0
				C356.6,250.3,357,250.3,357.4,250.3c-11.7,0-2.9,17.8,2.6,13.9C367.2,259.1,366.5,250.3,357.4,250.3z"/>
			<path fill="#A1C36D" d="M347.3,135.6C334.2,126.2,332.2,146.7,347.3,135.6L347.3,135.6z"/>
			<path fill="#A1C36D" d="M406.9,336.8c5.8,4.5,5.5,3.8,11.1-1.2C411.9,331.8,412.2,331.7,406.9,336.8z"/>
			<path fill="#A1C36D" d="M513,316.6c-2-1.4-4-2.9-6-4.3C500.2,319,506.8,321.9,513,316.6z"/>
			<path fill="#A1C36D" d="M527,115.5c7-2.6,19.5-4.6,24.8-10c2.4-2.5,0.6-5.8-2.1-7c-3.6-1.7-6.7,1.8-10,2.6
				c-7.2,1.8-12.6-6.6-17.1,3.7C519.4,112.5,518.8,111.9,527,115.5z"/>
			<path fill="#A1C36D" d="M533.2,95.3c1.8-7.9-1.7-14.6-10.6-15C523.5,86.9,528.6,90.5,533.2,95.3z"/>
			<path fill="#A1C36D" d="M312.5,64.4c4.8,0.8,17.8,2.2,17.4-6.3c-0.2-3.3-3.5-9.3-7.5-9.2C318.3,49,304.5,63,312.5,64.4z"/>
			<path fill="#A1C36D" d="M608,385.8c-2.4,0.4-10.6,2.7-5.5,6.9c4.6,3.8,13.4,10.1,15.4,1.5c0.1-0.2,0.1-0.5,0.2-0.8
				C615.1,389.3,614.2,384.7,608,385.8z"/>
		</g>
	</g>
</g>
<g id="Layer_4">
	<path fill="#DCA7DE" d="M736,220c-0.3-0.4-0.6-0.8-1-1.2v208.4c0.3,0,0.6,0,1,0V220z"/>
	<path fill="#CFFB8B" d="M716.7,200.6c5.1-15.5-13.5-32.7-28.5-26.5c4.6-10.7,9.3-21.6,10-33.2c0.7-11.6-3.3-24.2-13-30.7
		c4.7-4.2,6-11.8,2.8-17.2c-8.1,14.1-17.2,29-31.9,35.7c7.4-18.6,14.8-37.3,22.3-55.9c3.3-8.4,4.1-21.7-4.9-22.9
		c-4.6-0.6-8.6,3-12,6.2c-12.1,11.1-26.9,19.2-42.7,23.6c-7.7,2.1-16.5,3.2-23.2-1c-9.5-6-10.3-19.2-13.1-30.1s-13.6-22.7-23.4-17.3
		c1.6-7.9,3.2-15.7,4.8-23.6c-1.3-2.2-2.9-4.1-4.8-5.7h-33.6c-6.4,5.6-11.1,13.5-18.7,17.3c-6.7,3.4-14.5,3.2-21.7,5.2
		c-7.2,1.9-14.7,7.7-14,15.1c-11.9-13.4-27.4-23.6-44.4-29.2c1.7-2.9,3.5-5.7,5.4-8.4H209.6c1.6,3.8,1.6,8.5-1.4,11.6
		c-6.5,6.8-17.9,5.2-26.4,1.2c-8.6-4-16.7-9.9-26.1-10.4c-2.6,7.8,2.2,16.1,7.7,22.2c5.5,6.1,12.2,11.8,14.4,19.8
		c2.2,7.9-3.4,18.5-11.5,17.3c16.1,12.4,11.5,42.4-7.5,49.5c8.1,5.9,14.7,13.7,19.3,22.6c-14.1,9.1-28.2,18.2-42.3,27.4
		c-4.2,2.7-8.6,5.6-11.4,9.8c-2.1,3.1-3.2,6.6-4.3,10.1c-2.2,7.1-4.5,14.2-6.7,21.2c-0.8,2.5-1.5,5.1-0.6,7.6c1.3,3.4,5.2,4.8,8.6,6
		c21.2,7.2,40.5,19.9,55.6,36.5c3.9,4.3,7.7,9.2,8.6,15c0.9,5.8-2.3,12.6-8,13.8c22.5,29.4,36.9,64.9,41.4,101.7
		c0.6,5.2,1.5,11.2,6,13.9c6,3.7,13.5-1.3,18.8-6c8.5-7.5,17-15,25.4-22.6c-0.3,16,10,31.7,24.8,37.7c5.4,2.2,11.5,3.3,16.1,6.9
		c12,9.4,7.3,28,2.6,42.5c-0.8,2.5-1.6,5.2-1,7.8c1,4,5.1,6.4,8.8,8.2c13.6,6.6,27.8,12.1,42.3,16.5h188.3c-1-0.7-2.1-1.3-3.3-1.8
		c3.8-1.5,7.7-3,11.5-4.4c-8.7-16.8,7.9-36.1,25.2-43.6c17.3-7.6,37.8-10.7,50-25.2c9.2,10.8,30.8,2.2,30.1-12
		c6.3,7.3,16.7,10.9,26.2,9.1c-2.6,7.4,2.2,16.5,9.8,18.6c7.6,2,16.3-3.5,17.8-11.2c2.8,6.6,9.4,7.8,17,7.9V218.8
		C729.6,212.1,723.5,205.9,716.7,200.6z"/>
	<g>
		<polygon fill="none" points="428.6,2 428.5,2 428.5,2 		"/>
		<path fill="none" d="M517.6,10.2c-1.3,1.5-2.7,2.9-4.1,4.3C515.4,13.8,517,12.5,517.6,10.2z"/>
		<path fill="none" d="M482.7,25.3c-3.6,1.4-7,3.6-9.2,6.5C476.2,36.5,481.6,30.2,482.7,25.3z"/>
		<path fill="none" d="M450.4,38.9c1.5,2.9,9.7-0.9,16-4.2c-3.7-3.6-7.7-7-11.9-10C450.1,28.3,447.4,33,450.4,38.9z"/>
		<path fill="none" d="M651.3,225.9c0.5,0.1,1,0.1,1.5,0.2C653.1,226.1,652.8,226.1,651.3,225.9z"/>
		<path fill="none" d="M327.6,421.6C327,422.9,326.6,419.5,327.6,421.6c-2.4-5.3-12-14-14.9-3.9c1.6,1.9,2.7,4,3.4,6.3
			C320.1,425.6,325.9,425.3,327.6,421.6z"/>
		<path fill="none" d="M289.8,400.1c2.2,1.4,12,6,14.5,2.4c6-8.5-11.2-26.2-15.3-33c-3.7-6.2-5.2-13.6-4.5-20.8
			c0.9-9.5,4.5-8.8-2.6-17.5c-4-5-8.6-14-14.1-17.2c-2.5-1.5-10.5,11.7-11.5,14.2c-2.2,5.1,4.3,13.4-5,12.4
			c-6.3-0.7-14.2,3.5-21,3.4c-11.4-0.2-14.3,4.7-17.6,10.9c2.1,7.7,3.8,15.5,5,23.4c0.9-0.3,1.7,0,2.2,1.1c1.9,4.7,1.2,9.5,0.9,14.4
			c3,0.8,7.5-6.8,9.8-2.5c1.1,2.1,1,5.4,1,8.7c4.2-0.9,8.5-4,11.9-7c8.5-7.5,17-15,25.4-22.6c-0.2,10.4,4.1,20.7,11.2,28.2
			C283.3,397.8,286.5,398,289.8,400.1z M242.7,373.5c-8.1,2.3-15.1-2.2-17.9-9.9c-5.2-14.3,22.9-17.1,22-2.1c0.4-6.7,0,0.2,0,0
			C247.2,367.6,250.6,371.3,242.7,373.5z M261.4,355.3c-4.3-10.9,3.2-6.2,8.5-2.1C267.6,359.3,265,364.2,261.4,355.3z"/>
		<path fill="none" d="M210.7,320.6c3.3-1.3,0.2-7.5,0.1-8.8c-0.3-4.9,4.2-4.2,4.8-8.3c1.3-7.8-3.7-19-6.6-26.2c1.2,3.1-1.9,2.1,0,0
			c-5.2,5.8-6.5,6.8-14.3,5.9c-3.9-0.4-7.2-3.7-10.4-6.3c-1.3,3.1-3.7,5.6-7,6.4c8.4,10.9,15.6,22.7,21.6,35.1
			C202.8,320.6,207.1,321.9,210.7,320.6z"/>
		<path fill="none" d="M460.1,480c-1.7-2.3-2.3-6.1-4.4-7.9c-1.9-1.7-5-0.2-7.4-1.5c-4.1-2.3-10.5-14-12.2-18.1
			c-3.7-8.7-8.5-9.1-17.8-9.2c-4.9-0.1-9.9-0.7-14.7,0.5c-4.3,1-7.7,4.1-12.3,2c-7.2-3.4-11.8-7.1-19.8-9.4
			c-4.5,7.4-41,21.2-26.8,33.5c3.1-9.1,5-13.1,15-13.9c2.6-0.2,13.2-5.5,14.9-4.5c6.6,4.2,9.9,8.9,15,14.2c5,5.2,4.6,8.8-2.6,10.8
			c-3.8,1.1-9.3,11.4-11.2,11.1c-5.4-0.9-12-0.5-15.2-5.9c-3.5-5.8-9.4-7.4-15.7-7.9c2.3,5.7,6.6,9.7,10.2,14
			c2.5,0.8,4.9,1.6,7.4,2.3H414c-2.5-3.3-13.9-14.1-3-16.4c6.7-1.4,9.8,12.8,16,16.4h53C472.2,489.9,464.9,486.3,460.1,480z"/>
		<path fill="none" d="M537,5.2c4.1,6.2,3.9,13.9,12.3,15.9c5.7,1.3,9.1,11,1.6,12.3c9.1,1.3,17.1,2.7,24.7,2.6
			c-4.6-5.1-10.8-7.9-16.6-4.7c1.6-7.9,3.2-15.7,4.8-23.6c-1.3-2.2-2.9-4.1-4.8-5.7h-26.2C534.4,2.4,535.8,3.4,537,5.2z"/>
		<path fill="none" d="M517,488.3c7.3-0.6,17.9-4.3,14-12.7c-3.2,0.2-6.4,0.3-9.6,0.5c2-11,1.5-13.2,10-4.7
			c5.3-2.9,16-6.5,18.3-12.8c2.5-6.9-10.3-8.8-11.7-14.2c-2-7.8-6-14.9-10.3-21.6c-4.8-7.4,0-14-1.9-21.7
			c-1.9-7.8-9.7-12.7-11.7-20.8c-1.7-6.7-9.5-5.9-12.7-0.9c-6,9.4-1.6,12.1-15.8,12.1c-3.7,0-19.7-6.1-21.9-2.9
			c-2.8,4-10.3,13-9.3,18.2c3.3,17.5,26.5,16,38.9,19.5c14.5,4-11.1,14.3-8,25.3c2.6,9.2,2,10-4.1,17.3c-5.3,6.4-2.4,13.9-1.3,21.2
			h14c2.6-1.5,6.8-4.7,9.7-4.5C508.6,485.6,511.7,488.7,517,488.3z"/>
		<path fill="none" d="M632.8,283.7c3.3,3,3.9,1.5,7.8-0.9c-2.4,1.5-2-1.3,0,0C636.2,280.1,637.5,279.5,632.8,283.7z"/>
		<path fill="none" d="M122.4,207.7c0.2-8.2,8.2-1.5,9.2-9.7c0.9-7.2-3.4-8.8-8.6-13.4c-1-0.9-1.9-1.8-2.7-2.8
			c-0.1,0.4-0.3,0.9-0.4,1.3c-2,6.2-3.9,12.4-5.9,18.6c2.5,2.7,3.7,5.9,1.5,10.5c-0.4,0.8-0.7,1.5-1.2,2.3c1.8,1.6,4.4,2.6,6.8,3.4
			c2,0.7,4,1.4,6,2.2c1-3.1,1.7-6.2,2.6-8.5C127.7,208.5,122.2,214.3,122.4,207.7z"/>
		<path fill="none" d="M138.2,182.1c12.4,0.3,17.2-18.8,4.3-18.1c-2,0.1-5.8,0.1-9.1,0.8c-2.3,1.6-4.6,3.2-6.6,5.2
			C125.5,176.5,132.1,181.9,138.2,182.1z"/>
		<path fill="none" d="M528.6,398.1c2.4-2.1,6.4,1.7-0.3,0.3c10.3,2.1,2.9,6,0.5,12c-2.1,5.2,19.1,3.6,21.8,3.4
			C548.1,408.1,534.2,392.5,528.6,398.1z"/>
		<path fill="none" d="M241.9,5.9c8.5,0,12.5-3.9,20-3.9c11.7,0,23.4,0,35,0c21.4,0,42.8,0,64.3,0c9.6,0,10.4,9.8,16.7,16.4
			c4.4,4.6,10.9,15.9,18,10.7c8.6-6.3,1.3-8.9-0.9-15.5c-2.4-7,8.4-3.9,9.6-9c0.3-1.3,1.7-2.1,3.6-2.6H209.6l0,0
			c11.5,0,22.9,0,34.4,0C243.3,3.3,242.6,4.6,241.9,5.9z"/>
		<path fill="none" d="M176.5,213.9c5.8-0.9,8-3.7,6.3-9.5c-2.7-9.5,2.6-9.8,3.7-18.2c0.8-5.6-9.9-12.7-7.1-16.2
			c4.2-5.3,11.9-0.7,17-4.2c5-3.5,2.2-15.3,10.5-13.7c5.2,1,17.6,9,21.8,3.7c3-3.7,12.7-15,11.7-19.8c-0.9-4.3-4.8-7.9-0.6-12.1
			c4.2-4.2,8.6-8,12.7-12.2c4.6-4.7,3.8-13.1,3.8-19.1c-9.7,6-10,0.5-14.2-7.9c-5.3-10.7-22.8-2.5-27.6,5.5c-1.8,3-5.3,7.1-5.1,10.9
			c0.4,6,2.6,8.7-1.7,14.4c-2,2.6-1.9,8-5.2,9.5c-3,1.4-6.2,0.9-9.3,2.4c4.1,6.2,11.2,5.7,1.2,9.7c-6.8,2.7-10.4,4.1-17.4,2.6
			c5.6-13.4,15.6-29.6,8.8-45.2c-4.4-10.2,6.7-3.9,9.7-10.7c2-4.5,13-10.3,17.5-7.6c7.7,4.7,7.3-4.4,1.6-7.5
			c-6.5-3.5-8.1-12.5-4.3-18.5c4.1-6.4,10-11.4,3.2-19c-1.8-2-3-11.9-5.1-18c-0.1,0.1-0.2,0.2-0.3,0.3c-6.5,6.8-17.9,5.2-26.4,1.2
			c-8.6-4-16.7-9.9-26.1-10.4c-2.6,7.8,2.2,16.1,7.7,22.2c5.5,6.1,12.2,11.8,14.4,19.8c2.2,7.9-3.4,18.5-11.5,17.3
			c3.6,2.8,6.2,6.4,7.8,10.5c5.2,0.5,9.7,2.5,9.2,9.8c-0.2,3.8-4,5.8-7.8,7.7c-0.9,4.7-2.8,9.2-5.6,13c1.2,1.6,2.6,3,3.6,4.1
			c-3.4,1-6.9,1.9-10.6,2.4c-1.3,0.8-2.7,1.5-4.2,2.1c8.1,5.9,14.7,13.7,19.3,22.6c-9.7,6.3-19.5,12.6-29.2,18.9
			c4.3-0.3,8.5-1.4,12.3-3.3c3.6,1.7,11.1,3.6,11.2,8.7c0,6.2-5.4,14.7-8.3,20c-3.2,6-12.3,12.8-17.8,16.5
			c-7,4.7-13.8,3.1-13.8,12.3c3.9,0,18.6-2.6,20.5,2c2,4.8,5.4,15.5,3.7,20.4c-0.6,1.7-1,3-1.5,4.1c1.7,1.2,3.4,2.5,5.1,3.8
			c0.9-1.8,1.5-3.8,1.8-5.7C163.9,223.5,165.9,215.6,176.5,213.9z M227.3,98.7c10,3,13,13.1,0.8,14.7c0,0-0.1,0-0.2,0
			c-3,0.1-2.1,0-1.1,0C214.9,112.8,215.4,95.1,227.3,98.7z M220.1,120.5c1.5,1.3,3,2.5,4.4,3.8c-4.8,2.8-5.7,4.2-10.4,1.4
			C216.1,124,218.1,122.2,220.1,120.5z M167,143.2c3.3,1.6,6.7,3.3,10.4,5.1C173.7,151.7,164.6,148.7,167,143.2z"/>
		<path fill="none" d="M531.6,345C533.4,347.7,525.7,347.6,531.6,345c-5,2.3-10.3,4.1-15.1,7c-4.2,2.5,1,10.8,4.6,10.9
			c3.3,0.1,7.5-5.4,10.8-6.4C539.6,354,535.3,350.6,531.6,345z"/>
		<path fill="none" d="M494.1,349c-6.6,7.1-20.1-3.4-24.9,4.5c-3.4,5.5,7.8,14.6,11.9,16.7c8.5,4.5,11-5.9,12.2-12
			c2.8,1.1,7.1,1.4,7.9,4.6c3.4-3.2,6.7-6.3,10.1-9.5c-3.4,3.2-0.1-0.6,0,0C511,350.7,496.3,346.6,494.1,349z"/>
		<path fill="none" d="M623,371.6c-9.1-1.7-27.5,6.9-29.6,17.1c0,1-0.1,2.3-0.1,2.3c0.6,6,5.7,7.9,9.6,11.7c3,2.9,2.3,9.6,6.6,10.9
			c13.1,4.1,22.9-7.9,27.5-19.1C640.3,386.2,631.3,373.1,623,371.6z M617.9,394.2c-2,8.6-10.8,2.3-15.4-1.5
			c-5.1-4.2,3.1-6.4,5.5-6.9c6.2-1.1,7.2,3.5,10.1,7.6C618,393.7,617.9,393.9,617.9,394.2z"/>
		<path fill="none" d="M584.4,406c-1.1-0.5-27.9-15.3-27.3-6.6c0.2,3.3,7.1,9.8,8.7,12.4c3.2,4.9,6.3,12.6,11.1,16.1
			c6.9,5,22.7,6.9,22.8-5.8c0,0,0,0,0,0v0C599.7,411.8,592.4,410.1,584.4,406z"/>
		<path fill="none" d="M599.7,422.2C599.7,422.1,599.7,422.1,599.7,422.2C599.7,422.1,599.7,422.1,599.7,422.2L599.7,422.2z"/>
		<path fill="none" d="M596.9,366.2C594.6,367.5,594.8,364.5,596.9,366.2C589.6,360.3,586.7,372.3,596.9,366.2z"/>
		<path fill="none" d="M593.2,391c0-0.3-0.1-0.6-0.1-0.9C593.1,390.8,593.2,391,593.2,391z"/>
		<path fill="none" d="M650.4,360c3.3,4.1,6.2,11.3,12.7,8c2.9-1.4,14.6-5.8,15-8.7c1.1-8.3-8.2-9-13.6-11.9
			c-4.8-2.5-10.1-4.2-15.6-3.9c-4.6,0.3-10.1,4.7-14.5,3.9c-6.4-1.2-8.8-8.1-16.4-7.7c-10.1,0.5-3.3,6.9,0.8,10.9
			c6,5.8,8.9,12.6,17.1,16C644.9,370.2,644.8,363.3,650.4,360z"/>
		<path fill="none" d="M612.6,323c10.7-0.4,12-18.2,4.7-23.4c-2.1-1.9-4.6-2.9-7.4-3.1c-0.2,0-7.6,4.1-8.8,2.3
			c-3.2-4.8-9-7.9-9.2-14.3c-0.4-10.6-13.1-15.2-18.4-6.5c-4,6.6-4.4,13-6.7,20.1c-1.7,5.1-5.9,7.7-8.6,12c1.2-1.9,2.4,0.3,0,0
			c16.4,1.9,5.4,6.7,1,16.8c-2.2,4.9,0.5,15.7-0.5,21.7c-0.7,4.1-3,20,3.1,21.8c8.1,2.4,23.3-20,28.3-24.4
			c4.1-3.6,14.2-8.8,9.9-15.5C596.4,325.3,610.2,323,612.6,323z"/>
		<path fill="none" d="M718,419.4c2.9,6.9,10,7.8,17.9,7.9v-1.3c-14.3,4.5-5.5-11.1-11-17.1c-7.2-7.8-16.6-19.8-14.9-31.4
			c2.1-14.2,15.9-14.3,26-8.5v-50c-4-2.1-12.1-8.3-16.6-3.7c-3.7,3.8-3.2,10.4-9.1,12.2c-8.3,2.6,1.9,4.3-0.6,11.4
			c-1.5,4.1-17,0.1-20.2-0.2c6.9,8.5,14.7,22.7,8.5,33.6c2.2,3.7,5.8,7.7,6.2,12.2c0.5,5.2-7.4,2.9-10.4,4.1
			c-3.2,1.3-4.4,7.9-8.6,6.1c-4.9-2.2-9-11.1-12.2-15.2c-8.2-11-23.9,6.8-31.1,12.1c8.4,5.8,14.4,13.2,16.6,23.4
			c3.7-3,6.1-7.2,5.8-12.1c6.3,7.3,16.7,10.9,26.2,9.1c-2.6,7.4,2.2,16.5,9.8,18.6C707.8,432.6,716.6,427.1,718,419.4z"/>
		<path fill="none" d="M651.3,225.9c-1.7-0.1-1.6,0-1,0C650.7,225.9,651,225.9,651.3,225.9z"/>
		<path fill="none" d="M593.1,390.1c0-0.5,0.1-1,0.2-1.5C593.4,387.4,593.3,386.8,593.1,390.1z"/>
		<path fill="none" d="M427.2,276.7c0-0.5,0-1,0.1-1.5C427.2,275.5,427.1,276,427.2,276.7z"/>
		<path fill="none" d="M516,213.7c1-0.4,2-0.8,3.2-1.1C517.7,213,516.7,213.4,516,213.7z"/>
		<path fill="none" d="M683.5,189.6c-7,6.9-4.6,21.7-0.6,29.6c3.8,7.7,12.6,0.2,18.4,0.8c14.2,1.5,8.1,19.5,1.3,25
			c4.2,2.8,8.5,5.5,12.7,8.3c-1.1,1.9-12.6-4.1-16.9-2.9c-7.7,2.2-8.1,12.3-15.4,15.9c-7.4,3.7-11.4,8.7-17.5,13.7
			c-5.5,4.5-1.8,17.9-2.2,24.2c-0.4,7.1-8.8,0.3-12.8,3.2c-8,5.9-12.9,10.3-10.2,20.3c1,3.8,8.2-0.6,8.9-0.8c4.8-1.3,8,2.5,12.3,3.6
			c10.6,2.7,5-10.2,3.3-14.7c8.7-1.5,17.3-3.1,25.9-5.1c7.8-1.7,13.7,9.5,19.9,6.2c7.9-4.2,3.3-15.9,3.1-23.5
			c-0.1-3.1,1.9-23.4-2.7-23.6c-8.2-0.4-10,2.4-15.9-4.8c-3.5-4.2-1-5.4,2.7-8.9c3.9-3.7,6.8-0.1,10.1,2.6c5.9,4.8,6.7,11,14.2,14.6
			c6.7,3.3,10.7-12,14-16.5v-37c-2.3-3-4.8-5.8-7.4-8.6c-4.2,4.4-10.9,5.7-9.7-0.9c-0.6,3.5,0.2-5.1,0,0c0.1-1.8,1.4-3.8,3.2-5.4
			c-1.7-1.5-3.5-3-5.3-4.4c0.9-2.8,1.1-5.7,0.6-8.5c-0.3,0.4-0.7,0.9-1.2,1.4c-5.6-1.1-7.9-1.6-11.9-5.5c2.9-1.8,8-2.4,11.3-1.5
			c-3.8-7.8-12.3-13.8-20.8-13.7c-1.8,0.5-3.6,0.8-5.7,1.1C695.6,185.5,690.9,182.3,683.5,189.6z M677.5,302.9
			c3-5.1,4.5-5.7,10.1-7.7C696.7,301.8,683.8,304.9,677.5,302.9z M689.1,210.3c-2.1-3.3-4.2-6.6-6.4-9.9c2.3-2,4.5-4,6.8-6
			C695,202.2,694.7,202.4,689.1,210.3z"/>
		<path fill="none" d="M429.4,275.8c4.3-2.8,6-12.1,1-11.9c4.1,5.1-2.2,7-3.2,11.2C427.9,273.3,430.2,274.8,429.4,275.8z"/>
		<path fill="none" d="M539.5,271.6C541.5,272.2,538.2,272.1,539.5,271.6c-1.8,0.7-18.8,11.6-14,14.6c6.6,4.2,13.4,10.4,20.7,6.7
			c4.2-2.2,12.5-4.4,9.8-10.6C553.5,276.3,545.2,273.4,539.5,271.6z"/>
		<path fill="none" d="M686.3,123.8c2.8,0.7,5.5-0.6,8.3-2.5c-2.1-4.4-5.2-8.3-9.3-11c4.7-4.2,6-11.8,2.8-17.2
			c-3.2,5.5-6.5,11.1-10.3,16.4C682.4,112.7,679.7,122.1,686.3,123.8z"/>
		<path fill="none" d="M429.4,275.8c-0.7,0.5-1.4,0.8-2.3,0.8C428.5,276.6,429.2,276.2,429.4,275.8z"/>
		<path fill="none" d="M579.6,271.4c9.6-8.3,19.5-9.7,31-14.4c-2.2,9.5-8,22.4,4.3,27.3c4.6,1.8,6.7-4.8,5.6-8.2
			c-2-5.9,6-7.6,0.6-13.8c-6.3-7.1-17.4-8.9-5.4-16.3c7.7-4.8,20.2-15.7,15.2-25.2c-4-7.5,5.1-21,12.3-24.5c5-2.5,10,2,12-4.8
			c2.3-7.8,5.6-9.6,11.1-14.9c3.7-3.6,3.3-8.5,1.1-12.8c-1.4-2.6,1.5-6.7,0-8.8c-1.8-2.5-8-1.3-10.5-3.7c-5.6-5.4-13.4,1.6-18.2,4.7
			c-3.2,2-11,3.3-13.1,5.8c-3,3.7-5.5,7.9-8.4,11.6c-2.7,3.4-5.8,6.5-5,11.3c0.7,4.4,1.4,8.4-3.9,9.5c-5.3,1.2-10.4,1.2-9.8-5.5
			c0.6-6.3,6.2-7.3,9.9-11.7c2.8-3.4-0.5-8.9-4-10.5c-5.6-2.6-14.1,6-18.1,8.8c-2.3,1.6-4.7,3.1-7.1,4.6c-1.5-2.2-3.2-2.5-5.1-1
			c-3.8,3.4-6.4,10.7-6.2,15.7c0.2,4.5,6.2,9.1,5.2,13.2c-1.2,4.8-13.8,10.2-17.7,12.9c-2.6,1.8-3.5,8-6.9,7.5
			c-4.9-0.8-7.5-5.6-10.4,1.2c-4.9,11.6-21.1-10.8-18.7-16.7c-1.4,3.6-6.8,2.8-3.2,1.1c-6.9,2.9-10.3,8.7-13.3,15.3
			c9.1,0,14.1,8.1,3,10.9c-3.5,0.9-7.1,1-9.7-2c-1.6-2.2-2.9-4.6-4-7.1c3.7,0.7,5.3-0.3,4.7-2.8c-1.3-0.2-9.1-0.7-8.8-3.5
			c0.3-2.5,0.7-15.4,4.2-15.8c5.4-0.6,7.8-5.1,10.1-9.4c4.4-8,11.6,8.7,16.4,5.2c-1.7-3.4-5.6-8.1-5.4-12c0.5-7,10.2-7.7,10-15.1
			c-0.4-12.7-16.3,2.9-23.9,1.4c-3.5-0.7-30-23.3-26-5.8c1.4,6.4-9.7,8.3-11.2,2.9c-1-3.5,5.7-5.6,6.8-8.6
			c-17.7,5.2-13.2,11.1-3.3,23.6c2.3,2.9-0.4,14.5-0.7,18.4c-0.6,7.7-4.1,16.8-12,10.9c-5.1-3.7-19.8,0.1-25.9,0.1
			c-8.1,0-2.7,5.3-8.4,7.1c-7.1,2.2-12,5.4-19.8,6.5c-8.3,1.2-12.5,6.4-19.6,9.8c0-21.5-13.8-28.9-31.4-36.5
			c2.3-4.1,5.1-8.5,9.7-10.4c8.1-3.4,6.1,1,9.5,5.7c1.3,1.9,11.7,7.8,9.4,1c-2.3-6.7,9.5-9.8,13.6-12.1c14.4-7.8,20-12.2,11.1-27.3
			c-8.3-14-22.9-15-37.4-16.1c0.5-4.1,2.3-9.3,0.8-13.4c-1-2.8-4.8-2.4-6.9-4.3c-6.1-5.4-12.7-4.1-20-7.7
			c-7.5-3.8-13.6-13.5-22-14.7c-10.6-1.5-21.6,4.7-32.6,4.1c-4.1-0.2-22.1-1.2-22.5,5.4c-0.2,2.3,2.7,5.9,1,8.1
			c-2.1,2.7-5,5.8-6.1,9.2c-1.8,5.9,4.1,13.2,9.6,14.5c8.8,2,8.9-13.8,18.4-6.1c5.6,4.5,0.9,15.6,9,16.9c8.4,1.4,6.7-13.8,16-5
			c9.2,8.7,1.5,7.3-1.6,15.9c-1.3,3.8,1.2,6.9,0.5,10.7c-1.2,6.3-10.3,5.9-15.1,6.3c-9.4,0.8-14.3-5.3-22.5-8.5
			c-3.8-1.4-6.8-4.8-10.2-0.2c-2.3,3.1-5.3,5.9-3.3,10c4.5,9.2,7.4,18.6,10.5,28.5c3.4,10.9,1.1,13.7-9.7,10.6
			c0.9,2.9,5.5,11,2.1,13.3c-5.9,3.8-8.5,4-1,8.7c2.7,1.7,4,4.6,4.1,7.7c4.1-0.4,7.3-2.6,11.4-3c11.3-1.1,14.6,5.7,16-8.7
			c0.7-7.2,4.8-13.3,7.8-19.6c2.6-5.5,1.8-15.7,5.2-20.1c5.9-7.7,14-0.3,21.2-0.6c8.6-0.3,11.4-7.7,15.5-14.1
			c5.5,12.9-1.5,20.9-3.5,33.1c-0.5,3.3-1.3,8,0,11.2c1.8,4.6,8.4,2.8,9.6,8.3c0.9,3.8-1.2,8-0.8,11.9c0.5,5.2,5.4,9.3,5.2,14.3
			c-0.1,2.8-1,12,3.2,11.8c4.4-0.2,6.8,0.5,10.4,3.1c6.4,4.6,11.9,13.8,21.5,9.8c9.8-4.1,2.9-13.6,8.2-16.9
			c-6.1-15,2.6-6.5,11.4-10.1c3.3-1.3,10.4-5.7,11-9.8c0.8-5.9-0.9-9,6.9-4c3.5-8.9,8.8-10,13.5-17.1c6.5-9.6,5.3-2.1,13.2-0.1
			c6.2,1.6,14.5,6.1,6.8,13.3c-5.7,5.2-18.6-3.9-16.2,9c1.8,10.1,12,4.9,15.4,10.3c1.7,2.7-3.3,8.9-4.3,11c-2.9,5.8-3.1,11.9-4,18.2
			c-1.2,8.5-12.3,8.7-18.7,8.9c-9.2,0.2-10.6-13.3-13.5-20.7c-9.3,7.1-15.4,18.9-20.8,29c-7.7,14.4-6.1,14.6,7.4,22.6
			c10.9,6.5,20.5,9.5,12.7,23c-6.5,11.1-3.3,18.3-3,30.4c0.4,12.8,8.5,12.7,20,11.2c8.5-1.1,25.4-3.8,27.8-14.1
			c2.2-9.9-2.3-25.8-4.6-35.7c-2.4-10.7-12.7-15.2-7.9-27.6c6.4-16.4,7.2-36,31.2-30.1c8.2,2,19.3,7.6,13.6,16.2
			c-2.3,3.5-3.6,19.7,3.3,19.7c10.4,0,20.9,4.1,29.2-4.7c8.8-9.3-3.7-11.6-4-22.1c-0.1-2.9-1.1-5.2-4.1-6c-3.5-0.9-1-11.9-0.8-13.8
			c0.3-4.6-2-12,0-16.2c1.1-1.8,2.7-2.7,4.9-2.7c-0.7-2.4-1.4-4.8-2.1-7.1c13.4-1.9,11.3-7.1,7.1-18c-1.7-4.4,3-5.3,6.3-5.7
			c0.8,6.2,6.2,5.2,10.7,6.3c15.5,3.8-5.3,17.5,4.7,20.7C556.7,266.1,571.8,259.9,579.6,271.4z M639.7,172.2
			c4-1.9,13.7-9.7,15.7-2.5c0,0.1,0.1,0.3,0.1,0.6c0,1.3-0.1,1.4-0.2,1c-2,7.3-23.5,20.9-26.8,14.6
			C623.9,177,632.5,175.8,639.7,172.2z M347.3,135.6C332.2,146.7,334.2,126.2,347.3,135.6L347.3,135.6z M360.1,264.2
			c-5.5,3.9-14.3-13.9-2.6-13.9c0,0,0,0,0,0c-0.5,0-0.8,0-1.1,0c-0.1,0-0.1,0-0.2,0c-0.2,0-0.1,0,0,0c0,0,0.1,0,0.2,0
			c0.2,0,0.6,0,1.1,0c0,0,0,0,0,0c0,0,0,0,0,0l0,0c0,0,0,0,0,0c0.5,0,0.9,0,1.2,0c0.1,0,0.2,0,0.3,0c0.2,0,0.3,0,0.4,0c0,0,0,0,0,0
			c0.3,0,0.2,0,0,0c0,0,0,0,0,0c-0.1,0-0.3,0-0.4,0c-0.1,0-0.2,0-0.3,0c-0.4,0-0.8,0-1.2,0c0,0,0,0,0,0
			C366.5,250.3,367.2,259.1,360.1,264.2z M358.8,240.2c-4.7-3.7-13.6-10.1-10.8-17c5.6-14.1,18.5-1,21.9,8.4
			c0.1-0.6,0.4-0.1,0.8,3.1C368.2,238.3,364.3,244.6,358.8,240.2z M406.9,336.8c5.2-5.1,4.9-5.1,11.1-1.2
			C412.5,340.6,412.8,341.4,406.9,336.8z M437.1,384.5c-7.4,2-6.4,1.2-12.2,7.3c-5-7.2-2.5-18,7-19.7c-0.1-0.1,0.6-0.3,2.8-0.2
			C438,374.8,446,382,437.1,384.5z M441,327.8c0,1-0.1,1-0.1,0.7c-1.3,15.4-16.9,8.9-18.3-3.8c-1-8.2,6.5-8.6,13.4-7.5
			C440.9,318.1,441.6,327.9,441,327.8z M513,316.6c-6.2,5.3-12.8,2.4-6-4.3C509,313.7,511,315.2,513,316.6z M558,253.5
			c-3.9-4.4-5.2-9.7,0.4-13.3c5.3-3.4,16.5,3.7,21.6,5.6c-0.1-5.5,10.2-11.7,13.3-15.9c5.4-7.5,7.3-11.1,8.1-19.4
			c0.6-6.1,5.8-12,11.9-13.3c11.2-2.4,8.2,10.2,8.7,17.1c0.5,5.8,2.3,17.3-4.1,20.9c-7.5,4.2-10.5-3.3-13.8,7.8
			c-4.6,15.5-15,24.7-22.9,5.7c1.1,2.5-1.8,1.5,0,0C574.3,254.4,566.2,262.6,558,253.5z"/>
		<path fill="none" d="M600.5,94.9c-4.4,5.3,2.1,8.4,5.2,14.5c3.3,6.4,11.4,9.6,18,6.2c21.1-11,20.6,17.9,31.9,26.1
			c3.9-10.7-0.6-12.2-7.7-19.5c-11.2-11.6,1.9-15.7,4.2-26.9c0.4-2.1,5.2-24.4,12.4-17c7.6,7.8-9.4,7.3-3.1,15.1
			c1.8-0.9,3.5-1.9,5.3-2.8c-2.8,4.2-2.7,7.7,0.7,9.7c2.6-6.6,5.2-13.2,7.9-19.8c-10.8-2.9-0.7-17-0.7-23.7c0-2.5,0.1-4.7,0.2-6.6
			c-0.4-0.1-0.8-0.2-1.3-0.3c-4.6-0.6-8.6,3-12,6.2c-3.1,2.9-6.5,5.5-10,8c-0.5,1.5-1.1,3.2-2.2,5.3c-1.5,3-4.9,2.4-8,1.1
			c-2.3,1.3-4.7,2.5-7.1,3.6c0.5,1.4,0.7,2.6,0.2,3.5c-2.7,4.3-7.9,2.4-12.6,1.3c-1,0.3-2,0.6-3,0.9c-2.5,0.7-5.2,1.3-7.9,1.6
			C606.6,84.9,604.4,90.2,600.5,94.9z"/>
		<path fill="none" d="M404.1,281.1c-1.2-1.1-2.4-2.2-3.6-3.4c1.8,1.6-2.3,1.7,0,0c-2.1,1.5-4.2,3.1-6.3,4.6
			C398.3,286.9,399.1,284.6,404.1,281.1z"/>
		<path fill="none" d="M664.7,236.2c-4.2-5.6-5-8.9-11.8-10c-0.4,0-1.8-0.1-2.5-0.2c-6.7,0.3-5.5,7.6-2.5,11.8
			c5.6,7.8,4.7,6.9,0.3,15.1c-2.9,5.2-1.1,12.5,3.4,16.3c5.5,4.7,9.8-0.1,14.2-3.9c5.8-5.1,11.7-10.1,17.6-15.1
			c4.6-4,3.5-12.8-3.7-12.4C674.3,238,668.7,241.5,664.7,236.2z"/>
		<path fill="none" d="M418.1,126.2c6.8,6.9,10.4,6.8,20.8,4.3c13.6-3.2,1.7-15.7,5-17.9c10.6-7,23.6,5.7,32.7,0.5
			c7.9-4.4,15.6,1,23.4,3.2c4.8,1.4,9.5,2.7,14.2,4.2c4.8,1.6,9.2,6.1,14,7.1c10.1,2,12.5,8.9,17.7,16.4c4.6,6.7,13.6-4,16.5,4.4
			c1.8,5.2-0.6,17.3,9.7,12.5c10.2-4.8,10.2-15.4,11.3-25.3c0.6-5.6-0.2-8.7-1.6-14c-6,0.9-8.7,2-14.7-0.4c-3.5-1.4-20-10-6-9.2
			c11.3,0.6,15.7,2.6,25.1-5.4c5.5-4.6,1.6-7.9,5.7-12.6c3.1-3.6,3.8-2.7,4.1-8.2c-9,2.4-15,3.9-24.5,4.2c-4.1,0.1-8.7,2.6-12.8,1.7
			c-3.9-0.9-7.9-5.7-10.9-6.1c-18-2.8-23-29.6-39.4-34.1c0.2,4.9,1,4.9,5.5,7c-6.2,4-11.5,8.5-18.1,11.6c-3.7,1.7-7.7,3-11,5.5
			c-5,3.8-9.5,11.5-15.4,13.8c-3.4,1.3-15.9-5.9-18-9c-2.4-3.5-5.8-4.3-9.8-3.9c-5.9,0.6-4.1,9-4.5,14.1c2.5-1,6-3.3,8.6-3.7
			c6-1,3.7,5.8,8.1,7.2c12.9,4.1,2.2,14.2-4.4,8.1c3.3,3-5.6,7.6,0,0c-7.7,10.5-8.1,2.1-17.9,0.3c-11.5-2.1-12,9-18.1,13.3
			C401.1,124.7,413.7,121.7,418.1,126.2z M533.2,95.3c-4.5-4.8-9.6-8.3-10.6-15C531.5,80.7,535,87.4,533.2,95.3z M522.7,104.8
			c4.5-10.3,9.8-1.9,17.1-3.7c3.3-0.8,6.4-4.3,10-2.6c2.7,1.3,4.6,4.6,2.1,7c-5.3,5.4-17.8,7.4-24.8,10
			C518.8,111.9,519.4,112.5,522.7,104.8z"/>
		<path fill="none" d="M290.6,75.8C289.1,79.3,281.6,74.4,290.6,75.8c-8.5-1.4-17.1-3-25.7-3.9c-3-0.3-17.2,7-11.4,11.3
			C266.4,92.9,283.8,91.6,290.6,75.8z"/>
		<path fill="none" d="M507.5,162.5c5.5-8.7,23-5.5,13.1-19.1c-3.7-5.1-17.8-17.9-24.7-11.9c-9.7,8.4,0.4,20.2,7.7,24.9
			C493,162,503,169.6,507.5,162.5z"/>
		<path fill="none" d="M436,80.8C433.9,82,431.7,78.3,436,80.8c-7.4-4.2-11.6-7.5-20-3.5C419.7,81,431.3,83.5,436,80.8z"/>
		<path fill="none" d="M435.7,49C434.9,50.9,434.1,44.5,435.7,49c-1.6-4.4-2.9-13.4-7.7-15.5c-2.8-1.2-8.1,3.4-7.3,6.4
			C422.6,46.9,430.9,59.5,435.7,49z"/>
		<path fill="none" d="M439.6,202.9c-0.4,0-0.8,0-1.2,0C439.8,203,440,203,439.6,202.9z"/>
		<path fill="none" d="M245.6,249c-4.6-3.5-9.6-6.5-14.7-9.2c-4.8-2.5-6.8,4.8-10.3,3c-4.2-2.2-6.2-6.4-11.7-5.7
			c-6.4,0.8-7.2,10.5-7.9,15.4c-1.8,12.3,13.3,9,20.5,4.8c3.7-2.1,1.3-6.1,4.4-8.1c3.1-2,8.6-0.9,11.8,0c12.7,3.5,0.6,10.5-3.3,16
			c-9.3,12.8-16.3,16.1-5.7,30.9c-1.6-2.2,3.5-4.4,0,0c3-3.7,5.2-9.4,9.7-11.5c5.4-2.5,9.1-6.1,12.1-11.2
			C257.5,261.2,257.3,257.9,245.6,249z"/>
		<path fill="none" d="M452.6,64C450.1,63.4,452.8,63.1,452.6,64c0.2-1,0.4-1.9,0.6-2.8C443.7,59.8,443.2,61.7,452.6,64z"/>
		<path fill="none" d="M341.3,25.8C341.3,26,341.3,26.1,341.3,25.8L341.3,25.8z"/>
		<path fill="none" d="M341.4,22.9c0.3-11.4-15.9-7.3-22.1-10c-0.5-0.2-6.8-5.5-7.9-1.1c-1.4,5.8-7,6.7-9.4,11.4
			C299.2,28.8,340.8,48.1,341.4,22.9z"/>
		<path fill="none" d="M477.3,48.5c1.8-5.1-4.1-6.5-6.4-2.1C473.1,47.1,475.2,47.8,477.3,48.5C475.2,47.8,477.7,47.5,477.3,48.5z"/>
		<path fill="none" d="M312.7,67.4c2.2,3,5.3,5.4,7.1,8.7c1.3,2.3,0.3,6,2.8,7.6c2.3,1.4,6.2,0.4,8.6,0.2c5.7-0.6,8.8,4.2,14.2,3.4
			c10.5-1.5,12.8-6.6,7.6-14.8c-6.7-10.5-1.8-17.3,2.4-27.9c-12.4,0-23.9,3.2-36.4,0.6c-14.4-3-16.1,17.9-20.2,28.7
			C304.4,74.2,309.6,75.6,312.7,67.4z M322.4,48.9c4-0.1,7.3,5.9,7.5,9.2c0.4,8.5-12.6,7.2-17.4,6.3C304.5,63,318.3,49,322.4,48.9z"
			/>
		<path fill="none" d="M443,190.4c-4.2-8-1.9-5.8-10.8-4c-5,1-12.2,0.8-8.9,8.2c2.4,5.5,7.8,7.3,13.2,8.1c-0.7-0.1,2.3,0.1,3,0.3
			C446.2,202.5,445.4,194.9,443,190.4z"/>
		<path fill="none" d="M270.6,47.8C273.1,48.8,270.1,48.1,270.6,47.8C263.7,53.3,290,55.9,270.6,47.8z"/>
		<path fill="none" d="M239.9,61.9c0.9,2.7,11.6,3.6,12.2,0.7C254.1,58.6,237,53.3,239.9,61.9z"/>
		<path fill="none" d="M438.4,203c-0.6-0.1-1.2-0.2-1.8-0.3C436.7,202.7,437.3,202.8,438.4,203z"/>
		<path fill="none" d="M268.8,42.7C268.5,43.2,268.5,38.9,268.8,42.7c-0.3-3.5,0.7-15-5-15c-3.5,0-6.3,2-9.9,0.3
			c-3-1.4-4.8-5.1-8.6-4.5C232,25.9,261.1,56.5,268.8,42.7z"/>
		<path fill="none" d="M212.2,200.5c10.8,1.2,11.9-7.9,8.9-15.5c-2-5-4.6-18.8-10.5-20.8c-5.8-2-8.4,20.6-9,24.2
			C199.8,199,202.3,200.5,212.2,200.5z"/>
		<path fill="none" d="M363.9,344.1c-7-1.8-12.8-7.6-20.6-6.1c-2-0.4-3.8-1.4-5.4-2.8c-3.9-1.2-7.8,0.3-11.8-0.5
			c-2.2,6.3-4.3,12.2-5.2,18.8c0.1-0.7,0.1,0.9-0.1,0.7c2.7,2.3-3.4,3,1.7,6.6c4.6,3.3,7.1,6.8,11,10c11.6,9.4,25.6-9.7,30.1-17.2
			C365.2,351,369.6,345.5,363.9,344.1z"/>
		<path fill="none" d="M568.1,77.2c0.1-0.4,0.3-0.9,0.6-1.6C568.5,76,568.2,76.5,568.1,77.2z"/>
		<path fill="none" d="M391.6,414.7c-5-0.8-15.7-10.6-12.8,4.1c1.4,7.1,11.3,14.6,17.6,16.9c2.4,1.7,6-3.6,7.7-5.3
			c4-4.1,2.9-4.8,2-9.9C404,410.2,399.3,415.9,391.6,414.7z"/>
		<path fill="none" d="M569.2,77.4c6.1,0.8,11.6-2.8,11.5-9.5c-0.1-6.8-9.4,2.9-11.9,7.7C570.4,73.6,573.9,78,569.2,77.4z"/>
		<path fill="none" d="M378.5,398c-3.6-1.3-8.6,5.8-6.5,8.8C378.5,405.1,378.1,404.7,378.5,398C378.4,400.4,377.8,397.7,378.5,398z"
			/>
		<path fill="none" d="M438.4,419.9c-7,0.5-14.5-7.6-19.7-2.5c-6.6,6.4,32.9,31.8,32.5,8.5C451,416.6,445.2,419.4,438.4,419.9z"/>
		<path fill="none" d="M320.9,354.3c0-0.2,0.1-0.5,0.1-0.7C320.9,353.7,320.9,353.9,320.9,354.3z"/>
		<path fill="none" d="M593,139.7c0,0.2,0,0.3,0,0.5v0C593.1,140,593.1,139.8,593,139.7z"/>
		<path fill="none" d="M593.1,140.1C593.1,140.1,593.1,140.1,593.1,140.1c0.2,15.4,18.2-0.3,23.9-1.9c4.4-1.2,4.8,5.5,9.5,4.4
			c2.7-0.6,10.5-5.9,9.1-9c-4-8.7-14.7-3.3-21.7-5.1C603.8,125.8,592.9,126.9,593.1,140.1L593.1,140.1z"/>
		<path fill="none" d="M320.1,237.7c-2.4-3.6-17-11.3-15.7-1c1,8.7,0.3,12.8-1.8,21.4c0.7-2.8,2.3-0.4,0,0
			C314.2,255.8,329.4,251.4,320.1,237.7z"/>
		<path fill="none" d="M568.1,77.2c0.4,0.1,0.7,0.1,1.1,0.2C568.8,77.4,568.5,77.3,568.1,77.2z"/>
		<path fill="none" d="M294.7,281.2c-4.9-2.3-18.8-5.7-16.1,4.3c2.6,9.5,14.2-1.4,17-3.8C291.9,284.9,290.6,279.5,294.7,281.2z"/>
		<path fill="none" d="M263.1,295.5c-3.5-0.2-8.5,7.8-5.5,10.3c4,3.3,8.6,2.7,13.4,2.7c0.1,0,0.3,0,0.5,0c1,2.9,4-2.5,4-3.9
			C275.2,300.4,266.8,295.7,263.1,295.5z"/>
		<path fill="#C8F286" d="M435.7,49C434.1,44.5,434.9,50.9,435.7,49L435.7,49z"/>
		<path fill="#C8F286" d="M436,80.8C431.7,78.3,433.9,82,436,80.8L436,80.8z"/>
		<path fill="#C8F286" d="M452.6,64C452.8,63.1,450.1,63.4,452.6,64L452.6,64z"/>
		<path fill="#C8F286" d="M400.4,277.7C398.1,279.4,402.2,279.3,400.4,277.7L400.4,277.7z"/>
		<path fill="#C8F286" d="M427.3,275.2c-0.1,0.5-0.2,1-0.1,1.5c0.8-0.1,1.6-0.4,2.3-0.8C430.2,274.8,427.9,273.3,427.3,275.2z"/>
		<path fill="#C8F286" d="M539.5,271.6C538.2,272.1,541.5,272.2,539.5,271.6L539.5,271.6z"/>
		
			<line fill="none" stroke="#C8F286" stroke-width="0" stroke-linecap="round" stroke-linejoin="round" x1="593.1" y1="140.1" x2="593.1" y2="140.1"/>
		<path fill="#C8F286" d="M568.7,75.7c-0.3,0.6-0.6,1.2-0.6,1.6c0.4,0.1,0.7,0.1,1.1,0.2C573.9,78,570.4,73.6,568.7,75.7z"/>
		<path fill="#C8F286" d="M449.4,102.2C443.8,109.8,452.7,105.2,449.4,102.2L449.4,102.2z"/>
		<path fill="#C8F286" d="M477.3,48.5C477.7,47.5,475.2,47.8,477.3,48.5L477.3,48.5z"/>
		<path fill="#C8F286" d="M649.4,69.4c1.1-2.1,1.7-3.8,2.2-5.3c-3.3,2.3-6.7,4.5-10.2,6.4C644.5,71.8,647.9,72.4,649.4,69.4z"/>
		<path fill="#C8F286" d="M634.4,77.5c0.6-0.9,0.4-2.1-0.2-3.5c-4,1.8-8.2,3.4-12.4,4.8C626.5,79.9,631.7,81.8,634.4,77.5z"/>
		<path fill="#C8F286" d="M641.8,391.7c7.2-5.3,22.9-23.1,31.1-12.1c3.1,4.2,7.2,13.1,12.2,15.2c4.1,1.8,5.4-4.8,8.6-6.1
			c3-1.2,10.9,1.1,10.4-4.1c-0.4-4.5-4-8.5-6.2-12.2c6.2-10.9-1.6-25.1-8.5-33.6c3.2,0.3,18.8,4.3,20.2,0.2
			c2.5-7.2-7.7-8.8,0.6-11.4c5.9-1.9,5.4-8.4,9.1-12.2c4.5-4.6,12.6,1.6,16.6,3.7v-62c-3.3,4.4-7.3,19.7-14,16.5
			c-7.5-3.6-8.3-9.8-14.2-14.6c-3.3-2.7-6.2-6.3-10.1-2.6c-3.7,3.6-6.2,4.7-2.7,8.9c6,7.2,7.7,4.4,15.9,4.8
			c4.6,0.2,2.7,20.6,2.7,23.6c0.2,7.6,4.8,19.3-3.1,23.5c-6.2,3.3-12.1-8-19.9-6.2c-8.6,1.9-17.2,3.5-25.9,5.1
			c1.6,4.5,7.3,17.4-3.3,14.7c-4.3-1.1-7.5-4.9-12.3-3.6c-0.7,0.2-7.9,4.6-8.9,0.8c-2.7-10,2.2-14.4,10.2-20.3
			c4-2.9,12.4,3.8,12.8-3.2c0.4-6.2-3.3-19.7,2.2-24.2c6.1-5,10.1-10,17.5-13.7c7.3-3.6,7.8-13.7,15.4-15.9
			c4.4-1.3,15.8,4.8,16.9,2.9c-4.2-2.8-8.5-5.5-12.7-8.3c6.8-5.5,12.9-23.5-1.3-25c-5.8-0.6-14.6,6.8-18.4-0.8
			c-4-7.9-6.3-22.8,0.6-29.6c7.4-7.3,12.1-4.1,5.4-15.6c2.1-0.3,3.9-0.6,5.7-1.1c-2.2,0-4.3,0.4-6.4,1.3c4.6-10.7,9.3-21.6,10-33.2
			c0.4-6.7-0.8-13.7-3.7-19.6c-2.7,1.9-5.5,3.3-8.3,2.5c-6.5-1.7-3.9-11.2-8.5-14.5c-5.8,8.1-12.7,15.2-21.7,19.3
			c3.8-9.5,7.5-18.9,11.3-28.4c-3.4-2-3.5-5.5-0.7-9.7c-1.8,0.9-3.5,1.9-5.3,2.8c-6.4-7.9,10.7-7.3,3.1-15.1
			c-7.2-7.4-12,14.9-12.4,17c-2.3,11.1-15.4,15.3-4.2,26.9c7.1,7.3,11.6,8.8,7.7,19.5c-11.3-8.2-10.9-37.1-31.9-26.1
			c-6.6,3.4-14.7,0.3-18-6.2c-3.1-6.1-9.6-9.2-5.2-14.5c3.9-4.7,6-10,10.4-13.6c-5.4,0.7-10.8,0.2-15.3-2.7
			c-9.5-6-10.3-19.2-13.1-30.1c-1.1-4.5-3.6-9.1-6.8-12.6c-7.7,0.1-15.6-1.3-24.7-2.6c7.5-1.4,4.1-11-1.6-12.3
			c-8.4-2-8.2-9.7-12.3-15.9c-1.2-1.9-2.6-2.8-4.1-3.2h-7.4c-2.8,2.5-5.4,5.4-7.9,8.2c-0.6,2.3-2.2,3.6-4.1,4.3
			c-2,1.9-4.2,3.6-6.7,4.9c-6.7,3.4-14.5,3.2-21.7,5.2c-0.8,0.2-1.6,0.5-2.3,0.8c-1.1,4.9-6.5,11.2-9.2,6.5
			c-1.8,2.3-2.8,4.9-2.5,7.9c-1.5-1.7-3.1-3.3-4.7-4.9c-6.3,3.3-14.5,7.1-16,4.2c-3-5.9-0.3-10.6,4.1-14.2
			c-8.5-6.1-17.9-11-27.8-14.3c1.7-2.9,3.5-5.7,5.4-8.4h-3.5c0,0,0,0,0,0c0,0,0,0,0,0h-20.4c-1.9,0.5-3.3,1.3-3.6,2.6
			c-1.2,5.1-12,2-9.6,9c2.3,6.5,9.5,9.2,0.9,15.5c-7.1,5.2-13.7-6.1-18-10.7C371.6,11.8,370.7,2,361.2,2c-21.4,0-42.8,0-64.3,0
			c-11.7,0-23.4,0-35,0c-7.5,0-11.5,3.9-20,3.9c0.7-1.3,1.4-2.6,2.1-3.9c-11.5,0-22.9,0-34.4,0c1.5,3.7,1.6,8.2-1.1,11.2
			c2.1,6.1,3.3,16,5.1,18c6.9,7.6,0.9,12.6-3.2,19c-3.8,6-2.2,15.1,4.3,18.5c5.7,3.1,6.1,12.1-1.6,7.5c-4.5-2.7-15.5,3.1-17.5,7.6
			c-3,6.8-14.2,0.5-9.7,10.7c6.8,15.6-3.3,31.8-8.8,45.2c7,1.5,10.6,0.2,17.4-2.6c10-4,2.8-3.5-1.2-9.7c3.1-1.5,6.3-1.1,9.3-2.4
			c3.3-1.5,3.2-6.9,5.2-9.5c4.3-5.8,2.1-8.4,1.7-14.4c-0.3-3.8,3.2-7.9,5.1-10.9c4.8-8,22.3-16.2,27.6-5.5
			c4.2,8.4,4.5,13.9,14.2,7.9c0,6,0.8,14.4-3.8,19.1c-4.1,4.2-8.6,8.1-12.7,12.2c-4.2,4.1-0.3,7.7,0.6,12.1
			c1,4.7-8.7,16.1-11.7,19.8c-4.3,5.3-16.6-2.7-21.8-3.7c-8.3-1.5-5.4,10.3-10.5,13.7c-5.1,3.5-12.8-1.2-17,4.2
			c-2.8,3.6,7.9,10.7,7.1,16.2c-1.2,8.3-6.5,8.7-3.7,18.2c1.7,5.8-0.5,8.5-6.3,9.5c-10.6,1.7-12.6,9.5-14.4,19.6
			c-0.3,1.9-0.9,3.8-1.8,5.7c5.9,4.6,11.4,9.7,16.4,15.2c3.9,4.3,7.7,9.2,8.6,15c0.4,2.5,0,5.1-1,7.4c3.2,2.6,6.4,5.8,10.4,6.3
			c7.8,0.9,9.1-0.1,14.3-5.9c2.8,7.1,7.9,18.3,6.6,26.2c-0.7,4.1-5.1,3.4-4.8,8.3c0.1,1.4,3.2,7.6-0.1,8.8
			c-3.6,1.4-7.8,0.1-11.7-2.2c5.7,11.7,10.3,23.9,13.8,36.4c3.4-6.2,6.2-11,17.6-10.9c6.8,0.1,14.7-4.1,21-3.4c9.3,1,2.9-7.2,5-12.4
			c1-2.4,9-15.7,11.5-14.2c5.5,3.3,10,12.3,14.1,17.2c7,8.7,3.4,8,2.6,17.5c-0.6,7.2,0.8,14.7,4.5,20.8c4.1,6.8,21.3,24.5,15.3,33
			c-2.5,3.6-12.3-0.9-14.5-2.4c-3.3-2.1-6.6-2.3-9.8-1.6c3.8,4.1,8.5,7.4,13.7,9.5c5.4,2.2,11.5,3.3,16.1,6.9c1.1,0.9,2,1.8,2.9,2.8
			c2.9-10,12.5-1.4,14.9,3.9c-1.6,3.7-7.5,4-11.5,2.4c3.2,9.8-0.2,22.8-3.7,33.4c-0.8,2.5-1.6,5.2-1,7.8c1,4,5.1,6.4,8.8,8.2
			c11.3,5.5,22.9,10.2,34.9,14.1c-3.7-4.3-7.9-8.2-10.2-14c6.3,0.6,12.3,2.2,15.7,7.9c3.2,5.4,9.8,5,15.2,5.9
			c1.9,0.3,7.4-10,11.2-11.1c7.2-2,7.6-5.7,2.6-10.8c-5.1-5.2-8.4-10-15-14.2c-1.7-1.1-12.3,4.2-14.9,4.5c-10,0.8-11.9,4.8-15,13.9
			c-14.1-12.3,22.3-26.1,26.8-33.5c8,2.4,12.6,6,19.8,9.4c4.6,2.2,8-1,12.3-2c4.8-1.1,9.8-0.5,14.7-0.5c9.3,0.1,14.1,0.5,17.8,9.2
			c1.7,4.1,8.1,15.8,12.2,18.1c2.4,1.4,5.5-0.1,7.4,1.5c2.1,1.8,2.7,5.6,4.4,7.9c4.8,6.4,12.1,10,19.9,10c-1.1-7.3-4-14.8,1.3-21.2
			c6.1-7.2,6.7-8.1,4.1-17.3c-3.1-10.9,22.4-21.3,8-25.3c-12.4-3.4-35.7-2-38.9-19.5c-1-5.2,6.5-14.2,9.3-18.2
			c2.2-3.2,18.1,2.9,21.9,2.9c14.2,0,9.9-2.7,15.8-12.1c3.2-5,11-5.8,12.7,0.9c2,8.1,9.8,13,11.7,20.8c1.9,7.7-3,14.3,1.9,21.7
			c4.4,6.7,8.3,13.8,10.3,21.6c1.4,5.4,14.2,7.3,11.7,14.2c-2.3,6.3-13,9.8-18.3,12.8c-8.4-8.5-8-6.3-10,4.7
			c3.2-0.2,6.4-0.3,9.6-0.5c4,8.5-6.6,12.1-14,12.7c-5.4,0.5-8.5-2.7-13.3-2.9c-3-0.1-7.2,3.1-9.7,4.5h56.8c-1-0.7-2.1-1.3-3.3-1.8
			c3.8-1.5,7.7-3,11.5-4.4c-8.7-16.8,7.9-36.1,25.2-43.6c17.3-7.6,37.8-10.7,50-25.2c6,7.1,17.3,5.8,24.2,0.2
			C656.2,404.9,650.2,397.5,641.8,391.7z M632.8,283.7c4.8-4.2,3.5-3.6,7.8-0.9C636.7,285.2,636,286.7,632.8,283.7z M679.5,237.7
			c7.3-0.4,8.4,8.4,3.7,12.4c-5.9,5-11.8,10-17.6,15.1c-4.3,3.8-8.7,8.6-14.2,3.9c-4.4-3.8-6.2-11-3.4-16.3
			c4.4-8.2,5.4-7.2-0.3-15.1c-3-4.1-4.1-11.5,2.5-11.8c-0.7-0.1-0.7-0.1,1,0c1.5,0.2,1.8,0.2,1.5,0.2c6.9,1.1,7.7,4.5,11.8,10
			C668.7,241.5,674.3,238,679.5,237.7z M613.9,128.5c7.1,1.9,17.7-3.6,21.7,5.1c1.4,3.1-6.4,8.4-9.1,9c-4.7,1-5.1-5.7-9.5-4.4
			c-5.7,1.6-23.7,17.3-23.9,1.9c0,0,0,0,0,0c0-0.2,0-0.3,0-0.5c0,0.2,0,0.3,0,0.5C592.9,126.9,603.8,125.8,613.9,128.5z M568.7,75.7
			c2.6-4.8,11.9-14.5,11.9-7.7c0.1,6.7-5.4,10.3-11.5,9.5c-0.3,0-0.7-0.1-1.1-0.2C568.2,76.5,568.5,76,568.7,75.7z M477.3,48.5
			c-2.1-0.7-4.3-1.4-6.4-2.1C473.2,42,479.2,43.4,477.3,48.5z M453.2,61.2c-0.2,0.9-0.4,1.9-0.6,2.8
			C443.2,61.7,443.7,59.8,453.2,61.2z M428,33.5c4.8,2.1,6.1,11.1,7.7,15.5c-4.8,10.5-13.1-2.1-15-9.1
			C419.9,36.8,425.3,32.3,428,33.5z M436,80.8c-4.6,2.7-16.3,0.2-20-3.5C424.3,73.2,428.6,76.6,436,80.8z M413.4,115.8
			c6-4.3,6.6-15.4,18.1-13.3c9.8,1.8,10.1,10.2,17.9-0.3c6.6,6,17.3-4,4.4-8.1c-4.4-1.4-2.1-8.2-8.1-7.2c-2.6,0.4-6.1,2.7-8.6,3.7
			c0.4-5.2-1.4-13.5,4.5-14.1c4-0.4,7.4,0.4,9.8,3.9c2.1,3.1,14.6,10.3,18,9c5.9-2.3,10.4-10,15.4-13.8c3.3-2.5,7.3-3.7,11-5.5
			c6.6-3.1,11.9-7.6,18.1-11.6c-4.5-2.1-5.3-2.1-5.5-7c16.4,4.5,21.4,31.4,39.4,34.1c3,0.5,7,5.3,10.9,6.1c4,0.9,8.7-1.6,12.8-1.7
			c9.6-0.3,15.6-1.8,24.5-4.2c-0.4,5.4-1,4.6-4.1,8.2c-4.1,4.7-0.2,8-5.7,12.6c-9.3,7.9-13.7,6-25.1,5.4c-14-0.7,2.5,7.8,6,9.2
			c6,2.4,8.6,1.3,14.7,0.4c1.4,5.3,2.3,8.3,1.6,14c-1.1,9.9-1.2,20.5-11.3,25.3c-10.3,4.9-7.8-7.2-9.7-12.5
			c-2.9-8.4-12,2.3-16.5-4.4c-5.2-7.5-7.6-14.4-17.7-16.4c-4.7-1-9.1-5.5-14-7.1c-4.7-1.5-9.5-2.9-14.2-4.2
			c-7.8-2.2-15.6-7.7-23.4-3.2c-9.1,5.2-22.1-7.5-32.7-0.5c-3.3,2.2,8.6,14.7-5,17.9c-10.4,2.5-14,2.6-20.8-4.3
			C413.7,121.7,401.1,124.7,413.4,115.8z M495.9,131.5c6.9-6,21,6.7,24.7,11.9c9.9,13.6-7.6,10.4-13.1,19.1
			c-4.5,7.1-14.5-0.5-3.9-6.1C496.3,151.7,486.2,139.9,495.9,131.5z M438.4,203c-1.1-0.1-1.6-0.2-1.8-0.3
			c-5.4-0.9-10.7-2.7-13.2-8.1c-3.3-7.4,3.9-7.2,8.9-8.2c8.9-1.8,6.6-4,10.8,4c2.4,4.5,3.1,12.1-3.4,12.5
			C440,203,439.8,203,438.4,203z M302,23.2c2.4-4.7,8-5.6,9.4-11.4c1.1-4.4,7.4,0.8,7.9,1.1c6.1,2.7,22.3-1.4,22.1,10
			C340.8,48.1,299.2,28.8,302,23.2z M341.3,25.8C341.3,26.1,341.3,26,341.3,25.8L341.3,25.8z M319,45.1c12.5,2.6,24-0.6,36.4-0.6
			c-4.2,10.6-9,17.4-2.4,27.9c5.2,8.2,2.9,13.3-7.6,14.8c-5.4,0.8-8.5-4-14.2-3.4c-2.3,0.2-6.3,1.2-8.6-0.2
			c-2.5-1.6-1.5-5.3-2.8-7.6c-1.8-3.2-4.9-5.7-7.1-8.7c-3.1,8.2-8.3,6.8-13.9,6.4C302.8,62.9,304.5,42,319,45.1z M270.6,47.8
			C290,55.9,263.7,53.3,270.6,47.8L270.6,47.8z M245.3,23.6c3.8-0.7,5.6,3.1,8.6,4.5c3.5,1.6,6.3-0.3,9.9-0.3c5.7,0,4.7,11.4,5,15
			C261.1,56.5,232,25.9,245.3,23.6z M239.9,61.9c-2.9-8.5,14.2-3.2,12.2,0.7C251.4,65.5,240.8,64.6,239.9,61.9z M253.5,83.3
			c-5.8-4.3,8.5-11.6,11.4-11.3c8.6,0.9,17.1,2.5,25.7,3.9C283.8,91.6,266.4,92.9,253.5,83.3z M201.6,188.4c0.6-3.7,3.2-26.3,9-24.2
			c5.9,2,8.5,15.9,10.5,20.8c3,7.5,1.9,16.6-8.9,15.5C202.3,200.5,199.8,199,201.6,188.4z M250.5,273.3c-3,5.1-6.8,8.7-12.1,11.2
			c-4.5,2.1-6.8,7.8-9.7,11.5c-10.6-14.9-3.6-18.2,5.7-30.9c3.9-5.4,16-12.5,3.3-16c-3.2-0.9-8.8-2-11.8,0c-3,2-0.7,6-4.4,8.1
			c-7.2,4.2-22.2,7.5-20.5-4.8c0.7-4.9,1.5-14.6,7.9-15.4c5.5-0.7,7.5,3.5,11.7,5.7c3.5,1.9,5.5-5.5,10.3-3
			c5.1,2.7,10.1,5.7,14.7,9.2C257.3,257.9,257.5,261.2,250.5,273.3z M271.5,308.5c-0.2,0-0.4,0-0.5,0c-4.8,0-9.3,0.6-13.4-2.7
			c-3-2.4,2-10.4,5.5-10.3c3.7,0.2,12.2,4.9,12.4,9C275.5,306,272.5,311.4,271.5,308.5z M278.6,285.5c-2.7-10,11.2-6.6,16.1-4.3
			c0,0,0,0,0,0c0,0,0.1,0,0.1,0c0.3,0.1,0.6,0.3,0.8,0.4C292.8,284.1,281.2,295,278.6,285.5z M302.5,258.1
			c2.2-8.6,2.8-12.7,1.8-21.4c-1.2-10.3,13.3-2.5,15.7,1C329.4,251.4,314.2,255.8,302.5,258.1z M363.6,353.7
			c-4.5,7.5-18.5,26.6-30.1,17.2c-3.9-3.2-6.4-6.8-11-10c-5.1-3.6,1-4.3-1.7-6.6c0-0.3,0.1-0.6,0.1-0.7c1-6.6,3.1-12.5,5.2-18.8
			c3.9,0.7,7.8-0.7,11.8,0.5c1.6,1.4,3.4,2.3,5.4,2.8c7.7-1.6,13.5,4.3,20.6,6.1C369.6,345.5,365.2,351,363.6,353.7z M372,406.8
			c-2.1-3.1,2.9-10.2,6.5-8.8C378.1,404.7,378.5,405.1,372,406.8z M404,430.4c-1.7,1.7-5.3,7-7.7,5.3c-6.3-2.4-16.2-9.9-17.6-16.9
			c-2.9-14.7,7.8-4.9,12.8-4.1c7.7,1.2,12.4-4.4,14.4,5.9C407,425.6,408.1,426.3,404,430.4z M418.7,417.3c5.2-5,12.7,3,19.7,2.5
			c6.8-0.5,12.6-3.2,12.7,5.9C451.6,449.1,412.1,423.7,418.7,417.3z M501.2,362.8c-0.8-3.2-5.1-3.5-7.9-4.6
			c-1.2,6.1-3.7,16.5-12.2,12c-4.1-2.2-15.2-11.2-11.9-16.7c4.8-7.9,18.3,2.7,24.9-4.5c2.2-2.4,16.9,1.7,17.2,4.2
			C507.9,356.4,504.5,359.6,501.2,362.8z M521.1,362.9c-3.7-0.1-8.8-8.4-4.6-10.9c4.8-2.9,10.1-4.7,15.1-7c3.7,5.6,8,9,0.3,11.5
			C528.6,357.5,524.4,362.9,521.1,362.9z M528.8,410.5c2.4-6,9.8-9.9-0.5-12c0.1-0.1,0.2-0.2,0.3-0.3c5.6-5.6,19.5,10,22,15.7
			C547.9,414,526.7,415.7,528.8,410.5z M546.2,292.9c-7.3,3.8-14.1-2.5-20.7-6.7c-4.8-3.1,12.2-14,14-14.6c5.7,1.8,14,4.7,16.5,10.7
			C558.6,288.5,550.4,290.7,546.2,292.9z M545.5,262.6c-10-3.1,10.8-16.8-4.7-20.7c-4.5-1.1-10-0.1-10.7-6.3c-3.3,0.5-8,1.3-6.3,5.7
			c4.2,10.9,6.4,16.1-7.1,18c0.7,2.4,1.4,4.8,2.1,7.1c-2.2,0.1-3.8,1-4.9,2.7c-2,4.2,0.3,11.7,0,16.2c-0.1,1.9-2.6,12.9,0.8,13.8
			c3,0.8,4,3.1,4.1,6c0.3,10.5,12.7,12.7,4,22.1c-8.3,8.8-18.7,4.7-29.2,4.7c-6.9,0-5.6-16.1-3.3-19.7c5.7-8.7-5.4-14.2-13.6-16.2
			c-24-5.9-24.8,13.7-31.2,30.1c-4.8,12.4,5.5,16.9,7.9,27.6c2.2,9.9,6.8,25.8,4.6,35.7c-2.3,10.3-19.3,13-27.8,14.1
			c-11.5,1.5-19.6,1.7-20-11.2c-0.4-12.1-3.5-19.3,3-30.4c7.8-13.4-1.8-16.5-12.7-23c-13.5-8-15.1-8.3-7.4-22.6
			c5.5-10.1,11.5-21.9,20.8-29c2.9,7.3,4.3,20.8,13.5,20.7c6.4-0.1,17.6-0.3,18.7-8.9c0.9-6.3,1.1-12.4,4-18.2c1.1-2.1,6-8.3,4.3-11
			c-3.4-5.4-13.5-0.2-15.4-10.3c-2.4-12.9,10.5-3.8,16.2-9c7.8-7.1-0.6-11.7-6.8-13.3c-7.9-2-6.7-9.5-13.2,0.1
			c-4.8,7.1-10,8.2-13.5,17.1c-7.8-4.9-6.1-1.8-6.9,4c-0.6,4.1-7.7,8.4-11,9.8c-8.8,3.6-17.5-4.9-11.4,10.1
			c-5.3,3.3,1.6,12.7-8.2,16.9c-9.6,4-15.1-5.2-21.5-9.8c-3.6-2.6-6-3.3-10.4-3.1c-4.2,0.2-3.3-9.1-3.2-11.8c0.2-5-4.7-9.1-5.2-14.3
			c-0.4-3.9,1.6-8.1,0.8-11.9c-1.2-5.4-7.8-3.7-9.6-8.3c-1.3-3.2-0.5-7.9,0-11.2c2-12.2,9-20.2,3.5-33.1
			c-4.1,6.4-6.8,13.8-15.5,14.1c-7.2,0.3-15.2-7.2-21.2,0.6c-3.4,4.4-2.6,14.6-5.2,20.1c-3,6.4-7.2,12.4-7.8,19.6
			c-1.3,14.4-4.7,7.6-16,8.7c-4.1,0.4-7.3,2.6-11.4,3c-0.1-3.1-1.4-6-4.1-7.7c-7.5-4.7-4.8-4.9,1-8.7c3.5-2.2-1.2-10.4-2.1-13.3
			c10.9,3.1,13.1,0.3,9.7-10.6c-3.1-9.9-6-19.2-10.5-28.5c-2-4.1,1-6.9,3.3-10c3.4-4.6,6.4-1.2,10.2,0.2c8.1,3.1,13.1,9.2,22.5,8.5
			c4.8-0.4,13.9,0,15.1-6.3c0.7-3.8-1.8-6.9-0.5-10.7c3.1-8.7,10.8-7.3,1.6-15.9c-9.3-8.8-7.6,6.4-16,5c-8.1-1.3-3.4-12.5-9-16.9
			c-9.5-7.6-9.6,8.2-18.4,6.1c-5.4-1.3-11.4-8.6-9.6-14.5c1-3.4,4-6.5,6.1-9.2c1.8-2.2-1.1-5.8-1-8.1c0.4-6.6,18.4-5.6,22.5-5.4
			c11,0.6,22-5.6,32.6-4.1c8.4,1.2,14.6,10.9,22,14.7c7.3,3.6,13.9,2.3,20,7.7c2.1,1.9,5.9,1.5,6.9,4.3c1.5,4.1-0.3,9.3-0.8,13.4
			c14.5,1.1,29.1,2.1,37.4,16.1c9,15.1,3.3,19.5-11.1,27.3c-4.1,2.2-15.9,5.4-13.6,12.1c2.4,6.8-8.1,0.9-9.4-1
			c-3.4-4.8-1.4-9.1-9.5-5.7c-4.6,1.9-7.4,6.3-9.7,10.4c17.5,7.6,31.4,15,31.4,36.5c7.1-3.4,11.4-8.6,19.6-9.8
			c7.8-1.2,12.7-4.3,19.8-6.5c5.7-1.8,0.3-7.1,8.4-7.1c6.2,0,20.9-3.9,25.9-0.1c7.9,5.9,11.4-3.2,12-10.9c0.3-3.9,3-15.6,0.7-18.4
			c-9.9-12.5-14.4-18.4,3.3-23.6c-1.1,2.9-7.8,5.1-6.8,8.6c1.6,5.4,12.7,3.5,11.2-2.9c-3.9-17.5,22.5,5.1,26,5.8
			c7.6,1.5,23.6-14,23.9-1.4c0.2,7.4-9.5,8.1-10,15.1c-0.3,3.9,3.7,8.6,5.4,12c-4.7,3.5-11.9-13.2-16.4-5.2
			c-2.4,4.2-4.7,8.7-10.1,9.4c-3.5,0.4-3.9,13.3-4.2,15.8c-0.3,2.7,7.5,3.2,8.8,3.5c0.5,2.5-1.1,3.4-4.7,2.8c1.1,2.5,2.4,4.9,4,7.1
			c2.6,3,6.1,2.9,9.7,2c11.2-2.8,6.1-10.9-3-10.9c3-6.6,6.4-12.4,13.3-15.3c0.7-0.3,1.7-0.7,3.2-1.1c-2.4,6,13.8,28.3,18.7,16.7
			c2.9-6.9,5.5-2,10.4-1.2c3.4,0.5,4.3-5.7,6.9-7.5c3.9-2.7,16.5-8.1,17.7-12.9c1.1-4.1-5-8.7-5.2-13.2c-0.2-5,2.4-12.3,6.2-15.7
			c1.9-1.5,3.6-1.1,5.1,1c2.4-1.5,4.7-3.1,7.1-4.6c4-2.8,12.5-11.4,18.1-8.8c3.5,1.6,6.8,7.1,4,10.5c-3.6,4.3-9.2,5.4-9.9,11.7
			c-0.7,6.8,4.4,6.7,9.8,5.5c5.2-1.1,4.6-5.1,3.9-9.5c-0.8-4.7,2.3-7.9,5-11.3c2.9-3.8,5.4-7.9,8.4-11.6c2-2.5,9.9-3.8,13.1-5.8
			c4.9-3.1,12.7-10,18.2-4.7c2.5,2.4,8.7,1.2,10.5,3.7c1.5,2.1-1.3,6.2,0,8.8c2.2,4.2,2.6,9.2-1.1,12.8c-5.5,5.3-8.8,7.1-11.1,14.9
			c-2,6.8-7,2.3-12,4.8c-7.2,3.5-16.3,17-12.3,24.5c5.1,9.4-7.5,20.4-15.2,25.2c-12,7.5-0.9,9.2,5.4,16.3c5.5,6.2-2.6,7.9-0.6,13.8
			c1.2,3.4-1,10.1-5.6,8.2c-12.3-4.9-6.5-17.8-4.3-27.3c-11.4,4.7-21.4,6.1-31,14.4C571.8,259.9,556.7,266.1,545.5,262.6z
			 M394.2,282.3c2.1-1.5,4.2-3.1,6.3-4.6c1.2,1.1,2.4,2.2,3.6,3.4C399.1,284.6,398.3,286.9,394.2,282.3z M430.5,264
			c4.9-0.2,3.3,9.1-1,11.9c-0.3,0.4-0.9,0.7-2.3,0.8c-0.1-0.7,0-1.1,0.1-1.5C428.3,271,434.6,269.1,430.5,264z M599.8,330.5
			c4.3,6.7-5.8,12-9.9,15.5c-5,4.3-20.2,26.8-28.3,24.4c-6-1.8-3.7-17.7-3.1-21.8c1-6-1.7-16.8,0.5-21.7c4.4-10,15.3-14.9-1-16.8
			c2.8-4.3,7-6.9,8.6-12c2.3-7.1,2.7-13.5,6.7-20.1c5.3-8.7,18-4.2,18.4,6.5c0.2,6.4,6,9.5,9.2,14.3c1.2,1.8,8.6-2.3,8.8-2.3
			c2.8,0.2,5.3,1.2,7.4,3.1c7.3,5.1,6,23-4.7,23.4C610.2,323,596.4,325.3,599.8,330.5z M596.9,366.2
			C586.7,372.3,589.6,360.3,596.9,366.2L596.9,366.2z M599.7,422.2L599.7,422.2L599.7,422.2C599.7,422.2,599.7,422.2,599.7,422.2
			c-0.1,12.7-15.9,10.8-22.8,5.8c-4.8-3.5-7.9-11.2-11.1-16.1c-1.7-2.6-8.5-9.1-8.7-12.4c-0.6-8.7,26.3,6,27.3,6.6
			C592.4,410.1,599.7,411.8,599.7,422.2C599.7,422.1,599.7,422.1,599.7,422.2C599.7,422.1,599.7,422.1,599.7,422.2z M636.9,394.4
			c-4.6,11.3-14.4,23.2-27.5,19.1c-4.2-1.3-3.6-8-6.6-10.9c-4-3.8-9-5.6-9.6-11.7c0,0-0.1-0.2-0.1-0.9c0.2-3.4,0.2-2.7,0.2-1.5
			c2.2-10.2,20.6-18.8,29.6-17.1C631.3,373.1,640.3,386.2,636.9,394.4z M636,366.5c-8.3-3.4-11.1-10.2-17.1-16
			c-4.1-3.9-10.9-10.3-0.8-10.9c7.6-0.4,10,6.5,16.4,7.7c4.4,0.8,9.9-3.6,14.5-3.9c5.5-0.3,10.8,1.4,15.6,3.9
			c5.4,2.9,14.7,3.6,13.6,11.9c-0.4,2.9-12.1,7.3-15,8.7c-6.5,3.3-9.4-3.9-12.7-8C644.8,363.3,644.9,370.2,636,366.5z"/>
		<path fill="#C8F286" d="M230.6,391.1c-2.3-4.3-6.8,3.3-9.8,2.5c0.3-4.9,1-9.7-0.9-14.4c-0.5-1.1-1.3-1.4-2.2-1.1
			c0.4,2.3,0.7,4.5,0.9,6.8c0.6,5.2,1.5,11.2,6,13.9c2.2,1.3,4.5,1.5,6.9,1C231.7,396.5,231.8,393.3,230.6,391.1z"/>
		<path fill="#C8F286" d="M651.3,225.9c-0.4,0-0.7,0-1,0c0.7,0.1,2.1,0.2,2.5,0.2C652.4,226.1,651.9,226,651.3,225.9z"/>
		<path fill="#C8F286" d="M290.6,75.8C281.6,74.4,289.1,79.3,290.6,75.8L290.6,75.8z"/>
		<path fill="#C8F286" d="M302.5,258.1C304.8,257.6,303.2,255.2,302.5,258.1L302.5,258.1z"/>
		<path fill="#C8F286" d="M593.1,390.1c0,0.3,0,0.6,0.1,0.9c0.1,0,0.1-1.3,0.1-2.3C593.2,389.2,593.2,389.6,593.1,390.1z"/>
		<path fill="#C8F286" d="M268.8,42.7C268.5,38.9,268.5,43.2,268.8,42.7L268.8,42.7z"/>
		<path fill="#C8F286" d="M270.6,47.8C270.1,48.1,273.1,48.8,270.6,47.8L270.6,47.8z"/>
		<path fill="#C8F286" d="M596.9,366.2C594.8,364.5,594.6,367.5,596.9,366.2L596.9,366.2z"/>
		<path fill="#C8F286" d="M294.7,281.3C294.7,281.2,294.7,281.2,294.7,281.3c-4.1-1.8-2.8,3.6,0.9,0.5
			C295.4,281.6,295.1,281.4,294.7,281.3C294.8,281.3,294.7,281.3,294.7,281.3z"/>
		<path fill="#C8F286" d="M558,310.2C560.4,310.4,559.2,308.3,558,310.2L558,310.2z"/>
		<path fill="#C8F286" d="M640.5,282.9C638.5,281.6,638.1,284.3,640.5,282.9L640.5,282.9z"/>
		<path fill="#C8F286" d="M209.1,277.3C207.2,279.3,210.3,280.4,209.1,277.3L209.1,277.3z"/>
		<path fill="#C8F286" d="M228.6,296C232.1,291.6,227,293.8,228.6,296L228.6,296z"/>
		<path fill="#C8F286" d="M327.6,421.6C326.6,419.5,327,422.9,327.6,421.6L327.6,421.6z"/>
		<path fill="#C8F286" d="M528.6,398.1c-0.1,0.1-0.2,0.2-0.3,0.3C535,399.8,531,396,528.6,398.1z"/>
		<path fill="#C8F286" d="M511.3,353.2C511.2,352.7,507.9,356.4,511.3,353.2L511.3,353.2z"/>
		<path fill="#C8F286" d="M531.6,345C525.7,347.6,533.4,347.7,531.6,345L531.6,345z"/>
		
			<line fill="none" stroke="#C8F286" stroke-width="0" stroke-linecap="round" stroke-linejoin="round" x1="599.7" y1="422.2" x2="599.7" y2="422.2"/>
		
			<line fill="none" stroke="#C8F286" stroke-width="0" stroke-linecap="round" stroke-linejoin="round" x1="599.7" y1="422.2" x2="599.7" y2="422.2"/>
		<path fill="#C8F286" d="M321,353.6c0,0.2-0.1,0.5-0.1,0.7C321,354.4,321.1,352.9,321,353.6z"/>
		<path fill="#C8F286" d="M519.1,212.6c-1.1,0.3-2.2,0.6-3.2,1.1C512.3,215.4,517.7,216.2,519.1,212.6z"/>
		<path fill="#C8F286" d="M436.5,202.7c0.6,0.1,1.2,0.2,1.8,0.3c0.4,0,0.8,0,1.2,0C438.8,202.8,435.8,202.5,436.5,202.7z"/>
		<path fill="#C8F286" d="M378.5,398C377.8,397.7,378.4,400.4,378.5,398L378.5,398z"/>
		<path fill="#C8F286" d="M183.2,84.1c0.5-7.3-4.1-9.3-9.2-9.8c2.1,5.4,2.5,11.6,1.4,17.5C179.3,89.9,183,87.8,183.2,84.1z"/>
		<path fill="#C8F286" d="M114,201.8c-0.3,0.9-0.5,1.7-0.8,2.6c-0.8,2.5-1.5,5.1-0.6,7.6c0.4,1,1,1.9,1.8,2.6
			c0.4-0.8,0.8-1.5,1.2-2.3C117.7,207.7,116.5,204.4,114,201.8z"/>
		<path fill="#C8F286" d="M169.9,104.7c-1.9,2.6-4.3,4.8-7,6.5c3.6-0.5,7.2-1.4,10.6-2.4C172.5,107.7,171.1,106.3,169.9,104.7z"/>
		<path fill="#C8F286" d="M675.3,80.5c1-2.6,2.1-5.2,3.1-7.8c3.2-8,4-20.4-3.6-22.6c-0.1,1.9-0.2,4.1-0.2,6.6
			C674.6,63.5,664.5,77.6,675.3,80.5z"/>
		<path fill="#C8F286" d="M710,377.4c-1.7,11.6,7.7,23.7,14.9,31.4c5.5,6-3.2,21.5,11,17.1v-57C725.8,363.1,712.1,363.3,710,377.4z"
			/>
		<path fill="#C8F286" d="M411,473.6c-10.9,2.3,0.5,13.1,3,16.4h13C420.8,486.4,417.7,472.2,411,473.6z"/>
		<path fill="#C8F286" d="M152.9,210.8c-1.9-4.6-16.7-2-20.5-2c0-9.2,6.8-7.6,13.8-12.3c5.5-3.7,14.6-10.5,17.8-16.5
			c2.8-5.3,8.3-13.8,8.3-20c0-5.1-7.6-6.9-11.2-8.7c-3.9,2-8,3-12.3,3.3c-4.4,2.8-8.7,5.6-13.1,8.5c-0.8,0.5-1.6,1-2.4,1.5
			c3.3-0.7,7.1-0.7,9.1-0.8c12.9-0.7,8.1,18.4-4.3,18.1c-6-0.1-12.7-5.6-11.4-12.1c-0.9,0.9-1.7,1.9-2.5,3c-1.8,2.7-2.9,5.8-3.9,8.9
			c0.8,1,1.7,2,2.7,2.8c5.2,4.6,9.5,6.2,8.6,13.4c-1,8.2-9,1.4-9.2,9.7c-0.2,6.6,5.3,0.7,7.4,3.9c-0.9,2.2-1.6,5.4-2.6,8.5
			c9.9,3.9,19.3,9.1,28,15.2c0.4-1.1,0.9-2.4,1.5-4.1C158.3,226.3,155,215.6,152.9,210.8z"/>
		<path fill="#C8F286" d="M224.8,363.6c2.8,7.6,9.8,12.2,17.9,9.9c7.9-2.3,4.5-6,4.2-12C247.7,346.6,219.6,349.3,224.8,363.6z"/>
		<path fill="#C8F286" d="M246.8,361.6C246.9,361.7,247.2,354.9,246.8,361.6L246.8,361.6z"/>
		<path fill="#C8F286" d="M226.9,113.3c-1,0-1.9,0.1,1.1,0c0.1,0,0.1,0,0.2,0c12.2-1.5,9.1-11.7-0.8-14.7
			C215.4,95.1,214.9,112.8,226.9,113.3z"/>
		<path fill="#C8F286" d="M261.4,355.3c3.5,8.9,6.2,4,8.5-2.1C264.7,349.1,257.1,344.5,261.4,355.3z"/>
		<path fill="#C8F286" d="M224.5,124.3c-1.5-1.3-3-2.5-4.4-3.8c-2,1.7-3.9,3.5-5.9,5.2C218.8,128.5,219.7,127.1,224.5,124.3z"/>
		<path fill="#C8F286" d="M177.4,148.3c-3.7-1.8-7.1-3.5-10.4-5.1C164.6,148.7,173.7,151.7,177.4,148.3z"/>
		<path fill="#C8F286" d="M718.8,210.5c-1.2,6.7,5.5,5.4,9.7,0.9c-2.1-2.2-4.3-4.3-6.5-6.3C720.3,206.7,718.9,208.7,718.8,210.5z"/>
		<path fill="#C8F286" d="M718.8,210.5C719.1,205.4,718.2,214,718.8,210.5L718.8,210.5z"/>
		<path fill="#C8F286" d="M682.8,200.3c2.1,3.3,4.2,6.6,6.4,9.9c5.6-7.9,5.9-8.1,0.4-16C687.3,196.3,685,198.3,682.8,200.3z"/>
		<path fill="#C8F286" d="M687.6,295.2c-5.6,2-7.1,2.7-10.1,7.7C683.8,304.9,696.7,301.8,687.6,295.2z"/>
		<path fill="#C8F286" d="M704.2,188c4,3.9,6.3,4.4,11.9,5.5c0.5-0.5,0.9-0.9,1.2-1.4c-0.3-1.9-1-3.8-1.8-5.6
			C712.2,185.6,707.1,186.2,704.2,188z"/>
		<path fill="#C8F286" d="M604.1,242.9c3.2-11.1,6.2-3.6,13.8-7.8c6.4-3.6,4.6-15,4.1-20.9c-0.5-6.9,2.5-19.5-8.7-17.1
			c-6,1.3-11.3,7.2-11.9,13.3c-0.8,8.3-2.7,11.9-8.1,19.4c-3.1,4.2-13.3,10.4-13.3,15.9c-5-1.9-16.3-9-21.6-5.6
			c-5.6,3.6-4.3,9-0.4,13.3c8.2,9.1,16.3,0.8,23.2-4.9C589.1,267.6,599.6,258.4,604.1,242.9z"/>
		<path fill="#C8F286" d="M581.2,248.6C579.4,250.1,582.3,251.2,581.2,248.6L581.2,248.6z"/>
		<path fill="#C8F286" d="M369.9,231.6c-3.4-9.3-16.3-22.4-21.9-8.4c-2.8,6.9,6.1,13.3,10.8,17c5.5,4.4,9.5-1.9,12-5.5
			C370.4,231.4,370.1,231,369.9,231.6z"/>
		<path fill="#C8F286" d="M436.1,317.3c-7-1.1-14.4-0.7-13.4,7.5c1.5,12.7,17.1,19.2,18.3,3.8c0,0.2,0,0.2,0.1-0.7
			C441.6,327.9,440.9,318.1,436.1,317.3z"/>
		<path fill="#C8F286" d="M655.4,171.3c0.1,0.4,0.1,0.4,0.2-1c-0.1-0.3-0.1-0.5-0.1-0.6c-1.9-7.2-11.7,0.6-15.7,2.5
			c-7.3,3.5-15.8,4.8-11.2,13.6C631.9,192.2,653.4,178.5,655.4,171.3z"/>
		<path fill="#C8F286" d="M434.7,371.9c-2.2,0-2.9,0.1-2.8,0.2c-9.5,1.7-12,12.5-7,19.7c5.7-6.1,4.7-5.3,12.2-7.3
			C446,382,438,374.8,434.7,371.9z"/>
		<path fill="#C8F286" d="M356.2,250.3C356.1,250.3,356,250.3,356.2,250.3L356.2,250.3z"/>
		<path fill="none" stroke="#C8F286" stroke-width="0" stroke-linecap="round" stroke-linejoin="round" d="M358.6,250.3
			c0.1,0,0.2,0,0.3,0"/>
		<path fill="#C8F286" d="M358.9,250.3c0.2,0,0.3,0,0.4,0C359.2,250.3,359,250.3,358.9,250.3z"/>
		<path fill="none" stroke="#C8F286" stroke-width="0" stroke-linecap="round" stroke-linejoin="round" d="M356.2,250.3
			c0,0,0.1,0,0.2,0"/>
		
			<line fill="none" stroke="#C8F286" stroke-width="0" stroke-linecap="round" stroke-linejoin="round" x1="359.3" y1="250.3" x2="359.3" y2="250.3"/>
		<path fill="#C8F286" d="M359.3,250.3C359.5,250.3,359.6,250.3,359.3,250.3L359.3,250.3z"/>
		<path fill="#C8F286" d="M357.4,250.3C357.4,250.3,357.4,250.3,357.4,250.3C357.4,250.3,357.4,250.3,357.4,250.3
			C357.4,250.3,357.4,250.3,357.4,250.3c-11.7,0-2.9,17.8,2.6,13.9C367.2,259.1,366.5,250.3,357.4,250.3z"/>
		<path fill="#C8F286" d="M357.4,250.3c0.4,0,0.8,0,1.2,0C358.3,250.3,357.9,250.3,357.4,250.3z"/>
		<polygon fill="#C8F286" points="357.4,250.3 357.4,250.3 357.4,250.3 		"/>
		<path fill="#C8F286" d="M357.4,250.3c-0.4,0-0.8,0-1.1,0C356.6,250.3,356.9,250.3,357.4,250.3z"/>
		<path fill="#C8F286" d="M347.3,135.6C334.2,126.2,332.2,146.7,347.3,135.6L347.3,135.6z"/>
		<path fill="#C8F286" d="M406.9,336.8c5.8,4.5,5.5,3.8,11.1-1.2C411.9,331.8,412.2,331.7,406.9,336.8z"/>
		<path fill="#C8F286" d="M513,316.6c-2-1.4-4-2.9-6-4.3C500.2,319,506.8,321.9,513,316.6z"/>
		<path fill="#C8F286" d="M527,115.5c7-2.6,19.5-4.6,24.8-10c2.4-2.5,0.6-5.8-2.1-7c-3.6-1.7-6.7,1.8-10,2.6
			c-7.2,1.8-12.6-6.6-17.1,3.7C519.4,112.5,518.8,111.9,527,115.5z"/>
		<path fill="#C8F286" d="M533.2,95.3c1.8-7.9-1.7-14.6-10.6-15C523.5,86.9,528.6,90.5,533.2,95.3z"/>
		<path fill="#C8F286" d="M312.5,64.4c4.8,0.8,17.8,2.2,17.4-6.3c-0.2-3.3-3.5-9.3-7.5-9.2C318.3,49,304.5,63,312.5,64.4z"/>
		<path fill="#C8F286" d="M608,385.8c-2.4,0.4-10.6,2.7-5.5,6.9c4.6,3.8,13.4,10.1,15.4,1.5c0.1-0.2,0.1-0.5,0.2-0.8
			C615.1,389.3,614.2,384.7,608,385.8z"/>
	</g>
</g>
<g id="Mod1">
	<g>
		
			<path fill="none" stroke="#FF9000" stroke-width="10.4617" stroke-linecap="round" stroke-linejoin="round" stroke-miterlimit="100" d="
			M442.8,448.3c-6.9,2.3-14.5,4.5-21.4,2c-16.4-6-16-33.7-32.7-39.1c-4.6-1.5-9.7-0.8-14.3-2.3c-7.9-2.4-13.3-10.5-21.5-12
			c-3.7-0.7-7.7,0.1-11-1.6c-4.2-2.2-0.5-10.4-1.8-15c-7.1-23.7-29.4-41.1-51.5-52.2c-4.8-2.4-9.9-4.4-13.9-8c-4-3.5-6.9-9-5.6-14.2
			c1.1-4.4,4.9-7.7,5.8-12.1c0.9-4.1-0.9-8.3-2.8-12.1c-5.4-10.7-12.2-20.7-16.9-31.7c-4.7-11-7.4-23.5-4.1-35c1.1-4,3-8.2,1.7-12.1
			c-0.7-2.2-2.3-3.9-3.9-5.6c-4.5-4.9-9-9.9-13.5-14.8c1.4,1.1,2.7,2.2,4.1,3.3c-4.3-2.7-8.5-5.4-12.8-8.2c-0.9-0.6-1.9-1.2-2.3-2.2
			c-0.6-1.5,0.2-3.1,0.9-4.5c6-10.9,13.1-22.6,10.7-34.8c-2.6-13.5-16.6-24.3-14.5-37.9c8.2-3.1,16.7-6.2,25.4-5.2
			c3.8,0.5,7.5,1.8,11.3,1.9c11.9,0.4,21.1-9.7,31.1-16.2c3.1-2,6.6-3.7,10.2-3.4c4.7,0.4,8.4,4.1,11.9,7.4
			c22,20.3,54.5,28.6,83.6,21.2c-1.5,7.5,11.2,18.1,18,21.6s7.8,1,14.9,3.7c7.1,2.7,14.1,8.2,14.9,15.8c1.3,12.3-13,19.6-20.4,29.6
			c-5.9,7.9-7.4,18.3-8.1,28.2c-1.1,18.1,4.1,31.7,7.7,49.4"/>
		
			<path fill="none" stroke="#FFF568" stroke-width="6.6575" stroke-linecap="round" stroke-linejoin="round" stroke-miterlimit="100" d="
			M442.8,448.3c-6.9,2.3-14.5,4.5-21.4,2c-16.4-6-16-33.7-32.7-39.1c-4.6-1.5-9.7-0.8-14.3-2.3c-7.9-2.4-13.3-10.5-21.5-12
			c-3.7-0.7-7.7,0.1-11-1.6c-4.2-2.2-0.5-10.4-1.8-15c-7.1-23.7-29.4-41.1-51.5-52.2c-4.8-2.4-9.9-4.4-13.9-8c-4-3.5-6.9-9-5.6-14.2
			c1.1-4.4,4.9-7.7,5.8-12.1c0.9-4.1-0.9-8.3-2.8-12.1c-5.4-10.7-12.2-20.7-16.9-31.7c-4.7-11-7.4-23.5-4.1-35c1.1-4,3-8.2,1.7-12.1
			c-0.7-2.2-2.3-3.9-3.9-5.6c-4.5-4.9-9-9.9-13.5-14.8c1.4,1.1,2.7,2.2,4.1,3.3c-4.3-2.7-8.5-5.4-12.8-8.2c-0.9-0.6-1.9-1.2-2.3-2.2
			c-0.6-1.5,0.2-3.1,0.9-4.5c6-10.9,13.1-22.6,10.7-34.8c-2.6-13.5-16.6-24.3-14.5-37.9c8.2-3.1,16.7-6.2,25.4-5.2
			c3.8,0.5,7.5,1.8,11.3,1.9c11.9,0.4,21.1-9.7,31.1-16.2c3.1-2,6.6-3.7,10.2-3.4c4.7,0.4,8.4,4.1,11.9,7.4
			c22,20.3,54.5,28.6,83.6,21.2c-1.5,7.5,11.2,18.1,18,21.6s7.8,1,14.9,3.7c7.1,2.7,14.1,8.2,14.9,15.8c1.3,12.3-13,19.6-20.4,29.6
			c-5.9,7.9-7.4,18.3-8.1,28.2c-1.1,18.1,4.1,31.7,7.7,49.4"/>
	</g>
	<g id="Ellipse_1">
		<g>
			<path fill-rule="evenodd" fill="#0091F0" d="M395.8,116.4c-5.3,0-9.6-4.3-9.6-9.6s4.3-9.6,9.6-9.6s9.6,4.3,9.6,9.6
				S401.1,116.4,395.8,116.4z"/>
		</g>
		<g>
			<path fill="#0072BC" d="M395.8,99.6c4,0,7.2,3.2,7.2,7.2s-3.2,7.2-7.2,7.2s-7.2-3.2-7.2-7.2S391.8,99.6,395.8,99.6 M395.8,94.8
				c-6.6,0-12,5.4-12,12c0,6.6,5.4,12,12,12c6.6,0,12-5.4,12-12C407.8,100.2,402.4,94.8,395.8,94.8L395.8,94.8z"/>
		</g>
	</g>
	<g id="Ellipse_1_copy">
		<g>
			<path fill-rule="evenodd" fill="#0091F0" d="M422.2,260c-5.3,0-9.6-4.3-9.6-9.6c0-5.3,4.3-9.6,9.6-9.6s9.6,4.3,9.6,9.6
				C431.8,255.7,427.5,260,422.2,260z"/>
		</g>
		<g>
			<path fill="#0072BC" d="M422.2,243.2c4,0,7.2,3.2,7.2,7.2c0,4-3.2,7.2-7.2,7.2s-7.2-3.2-7.2-7.2
				C414.9,246.4,418.2,243.2,422.2,243.2 M422.2,238.4c-6.6,0-12,5.4-12,12c0,6.6,5.4,12,12,12s12-5.4,12-12
				C434.1,243.8,428.8,238.4,422.2,238.4L422.2,238.4z"/>
		</g>
	</g>
	<g id="Ellipse_1_copy_2">
		<g>
			<path fill-rule="evenodd" fill="#0091F0" d="M223.5,106.8c-5.3,0-9.6-4.3-9.6-9.6s4.3-9.6,9.6-9.6s9.6,4.3,9.6,9.6
				S228.8,106.8,223.5,106.8z"/>
		</g>
		<g>
			<path fill="#0072BC" d="M223.5,89.9c4,0,7.2,3.2,7.2,7.2c0,4-3.2,7.2-7.2,7.2c-4,0-7.2-3.2-7.2-7.2
				C216.2,93.2,219.5,89.9,223.5,89.9 M223.5,85.2c-6.6,0-12,5.4-12,12c0,6.6,5.4,12,12,12c6.6,0,12-5.4,12-12
				C235.5,90.5,230.1,85.2,223.5,85.2L223.5,85.2z"/>
		</g>
	</g>
	<g id="Ellipse_1_copy_3">
		<g>
			<path fill-rule="evenodd" fill="#0091F0" d="M240.2,195c-5.3,0-9.6-4.3-9.6-9.6s4.3-9.6,9.6-9.6s9.6,4.3,9.6,9.6
				S245.5,195,240.2,195z"/>
		</g>
		<g>
			<path fill="#0072BC" d="M240.2,178.2c4,0,7.2,3.2,7.2,7.2s-3.2,7.2-7.2,7.2c-4,0-7.2-3.2-7.2-7.2S236.2,178.2,240.2,178.2
				 M240.2,173.4c-6.6,0-12,5.4-12,12c0,6.6,5.4,12,12,12c6.6,0,12-5.4,12-12C252.2,178.8,246.8,173.4,240.2,173.4L240.2,173.4z"/>
		</g>
	</g>
	<g id="Ellipse_1_copy_4">
		<g>
			<path fill-rule="evenodd" fill="#0091F0" d="M340.1,392.7c-5.3,0-9.6-4.3-9.6-9.6s4.3-9.6,9.6-9.6s9.6,4.3,9.6,9.6
				S345.4,392.7,340.1,392.7z"/>
		</g>
		<g>
			<path fill="#0072BC" d="M340.1,375.8c4,0,7.2,3.2,7.2,7.2s-3.2,7.2-7.2,7.2s-7.2-3.2-7.2-7.2S336.1,375.8,340.1,375.8
				 M340.1,371.1c-6.6,0-12,5.4-12,12c0,6.6,5.4,12,12,12c6.6,0,12-5.4,12-12C352.1,376.5,346.7,371.1,340.1,371.1L340.1,371.1z"/>
		</g>
	</g>
	<g id="Ellipse_1_copy_5">
		<g>
			<path fill-rule="evenodd" fill="#0091F0" d="M444.4,462.1c-5.3,0-9.6-4.3-9.6-9.6s4.3-9.6,9.6-9.6s9.6,4.3,9.6,9.6
				S449.7,462.1,444.4,462.1z"/>
		</g>
		<g>
			<path fill="#0072BC" d="M444.4,445.2c4,0,7.2,3.2,7.2,7.2c0,4-3.2,7.2-7.2,7.2c-4,0-7.2-3.2-7.2-7.2
				C437.1,448.5,440.4,445.2,444.4,445.2 M444.4,440.5c-6.6,0-12,5.4-12,12c0,6.6,5.4,12,12,12s12-5.4,12-12
				C456.3,445.8,451,440.5,444.4,440.5L444.4,440.5z"/>
		</g>
	</g>
</g>
</svg>
