<?xml version="1.0" encoding="UTF-8" standalone="no"?><!DOCTYPE svg PUBLIC "-//W3C//DTD SVG 1.1//EN" "http://www.w3.org/Graphics/SVG/1.1/DTD/svg11.dtd"><svg width="100%" height="100%" viewBox="0 0 512 512" version="1.1" xmlns="http://www.w3.org/2000/svg" xmlns:xlink="http://www.w3.org/1999/xlink" xml:space="preserve" xmlns:serif="http://www.serif.com/" style="fill-rule:evenodd;clip-rule:evenodd;stroke-linejoin:round;stroke-miterlimit:1.41421;"><path d="M303.975,452l-288,0c-8.8,0 -16,-7.2 -16,-16l0,-40c0,-8.8 7.2,-16 16,-16l288,0c8.8,0 16,7.2 16,16l0,40c0,8.8 -7.2,16 -16,16Zm204.495,-223.4l-87.9,87.9c-4.7,4.7 -12.9,4.7 -17.6,0l-47.5,-47.5c-4.7,-4.7 -4.7,-12.3 0,-17l15.7,-15.7c4.7,-4.7 12.3,-4.7 17,0l22.7,22.1l63.7,-63.7c4.7,-4.7 12.3,-4.7 17,0l17,17c4.58,4.58 4.6,12.132 -0.1,16.9Zm-204.495,63.4l-288,0c-8.8,0 -16,-7.2 -16,-16l0,-40c0,-8.8 7.2,-16 16,-16l288,0c8.8,0 16,7.2 16,16l0,40c0,8.8 -7.2,16 -16,16Zm204.495,-223l-87.8,87.8c-4.7,4.7 -12.9,4.7 -17.6,0l-47.6,-47.4c-4.7,-4.7 -4.7,-12.3 0,-17l15.7,-15.7c4.7,-4.7 12.3,-4.7 17,0l22.7,22.1l63.7,-63.3c4.7,-4.7 12.3,-4.7 17,0l17,16.5c4.58,4.679 4.6,12.232 -0.1,17Zm-204.495,63l-288,0c-8.8,0 -16,-7.2 -16,-16l0,-40c0,-8.8 7.2,-16 16,-16l288,0c8.8,0 16,7.2 16,16l0,40c0,8.8 -7.2,16 -16,16Z"/></svg>