<?xml version="1.0" encoding="UTF-8" standalone="no"?><!DOCTYPE svg PUBLIC "-//W3C//DTD SVG 1.1//EN" "http://www.w3.org/Graphics/SVG/1.1/DTD/svg11.dtd"><svg width="100%" height="100%" viewBox="0 0 512 512" version="1.1" xmlns="http://www.w3.org/2000/svg" xmlns:xlink="http://www.w3.org/1999/xlink" xml:space="preserve" xmlns:serif="http://www.serif.com/" style="fill-rule:evenodd;clip-rule:evenodd;stroke-linejoin:round;stroke-miterlimit:1.41421;"><path d="M448,512l-448,0l0,-20c0,-6.627 5.373,-12 12,-12l20,0l0,-456c0,-13.255 10.744,-23.999 24,-24l336,0c13.256,0.001 24,10.745 24,24l0,183.777c-10.398,-0.205 -20.768,-0.449 -31.013,0.269c-22.579,1.584 -40.767,21.982 -41.05,43.687l0,28.14c-7.979,-0.014 -15.958,-0.007 -23.937,0.039l0,-11.912c0,-6.627 -5.373,-12 -12,-12l-40,0c-6.627,0 -12,5.373 -12,12l0,40c0,6.627 5.373,12 12,12l4.215,0c-0.217,1.974 -0.274,3.298 -0.274,3.298c-0.087,14.678 -0.725,29.571 0.068,43.108c1.336,22.77 21.587,41.244 43.718,41.535l28.142,0c-0.014,8.192 -0.006,16.382 0.042,24.573c0.02,2.88 -0.004,5.763 0.328,8.62l0.008,1.527c0,0 1.37,5.642 0.688,2.597l-0.352,-1.666c0,0 0.183,0.855 0.183,0.855c0,0 -0.291,-1.495 -0.519,-3.253l0,-2.549c0.065,2.721 0.131,3.407 0.585,6.091l0.328,1.496c4.249,17.41 19.454,30.819 36.704,33.276c2.482,0.353 5.426,0.43 5.426,0.43c9.571,0.056 19.141,0.075 28.71,0.053l0,0.009l20,0c6.627,0 12,5.373 12,12l0,20Zm-204,-128l-40,0c-6.627,0 -12,5.373 -12,12l0,84l64,0l0,-84c0,-6.627 -5.373,-12 -12,-12Zm185.52,63.82l-0.019,0.003l-0.108,0.015l-0.005,0.001c-0.046,0.006 -0.092,0.012 -0.138,0.018c-0.326,0.041 -0.43,0.061 -0.961,0.077c-0.065,0.003 -0.131,0.005 -0.197,0.006c-13.436,0.085 -26.873,0.085 -40.31,0c-5.524,-0.105 -10.317,-4.183 -11.535,-9.295l0,-0.001l-0.001,-0.004c-0.03,-0.125 -0.057,-0.25 -0.083,-0.377l-0.001,-0.008l-0.014,-0.069l-0.009,-0.046l-0.001,-0.006c-0.044,-0.233 -0.081,-0.467 -0.11,-0.702c-0.04,-0.283 -0.064,-0.485 -0.078,-0.913c-0.007,-0.141 -0.011,-0.282 -0.012,-0.423c-0.167,-20.212 -0.008,-40.087 -0.001,-60.155l-60,0c-6.488,-0.042 -11.881,-5.624 -11.999,-11.845c-0.085,-13.436 -0.085,-26.874 0,-40.31c0.103,-5.411 4.017,-10.12 8.982,-11.455l0.002,-0.001l0.002,0c0.116,-0.032 0.232,-0.061 0.349,-0.088l0.021,-0.005l0.019,-0.004c0.1,-0.024 0.201,-0.045 0.302,-0.066l0.008,-0.001l0.069,-0.014l0.047,-0.009l0.006,-0.001c0.232,-0.044 0.466,-0.081 0.701,-0.11c0.284,-0.04 0.485,-0.064 0.914,-0.079c0.14,-0.006 0.281,-0.01 0.422,-0.011c20.213,-0.168 40.087,-0.008 60.155,-0.001l0,-60c0.042,-6.536 5.63,-11.887 11.872,-11.998c8.159,-0.209 16.763,-0.032 25.225,-0.039c4.413,-0.002 8.826,0.004 13.239,0.028l0.564,0.003l0.046,0l1.209,0.007c5.565,0.106 10.386,4.241 11.561,9.405l0.001,0.005c0.02,0.089 0.039,0.178 0.057,0.267l0.002,0.008l0.013,0.069l0.009,0.046l0.001,0.006c0.044,0.233 0.081,0.467 0.111,0.702c0.039,0.283 0.063,0.485 0.078,0.913c0.006,0.141 0.01,0.282 0.011,0.423c0.168,20.184 0.01,40.03 0.001,60.155l60,0c6.489,0.042 11.881,5.624 11.999,11.845c0.085,13.436 0.085,26.874 0,40.31c-0.112,5.89 -4.739,10.947 -10.321,11.729c-0.491,0.068 -0.66,0.099 -1.523,0.115c-6.697,0.042 -13.394,0.057 -20.092,0.056l0,0.02c-11.702,0.002 -23.348,-0.053 -35.046,-0.07l-5.017,-0.005l0,60c-0.038,5.987 -4.792,11.041 -10.416,11.879l-0.001,0Zm-249.52,-191.82l-40,0c-6.627,0 -12,5.373 -12,12l0,40c0,6.627 5.373,12 12,12l40,0c6.627,0 12,-5.373 12,-12l0,-40c0,-6.627 -5.373,-12 -12,-12Zm0,-96l-40,0c-6.627,0 -12,5.373 -12,12l0,40c0,6.627 5.373,12 12,12l40,0c6.627,0 12,-5.373 12,-12l0,-40c0,-6.627 -5.373,-12 -12,-12Zm128,0l-40,0c-6.627,0 -12,5.373 -12,12l0,40c0,6.627 5.373,12 12,12l40,0c6.627,0 12,-5.373 12,-12l0,-40c0,-6.627 -5.373,-12 -12,-12Zm-128,-96l-40,0c-6.627,0 -12,5.373 -12,12l0,40c0,6.627 5.373,12 12,12l40,0c6.627,0 12,-5.373 12,-12l0,-40c0,-6.627 -5.373,-12 -12,-12Zm128,0l-40,0c-6.627,0 -12,5.373 -12,12l0,40c0,6.627 5.373,12 12,12l40,0c6.627,0 12,-5.373 12,-12l0,-40c0,-6.627 -5.373,-12 -12,-12Z"/></svg>