<?xml version="1.0" encoding="UTF-8" standalone="no"?><!DOCTYPE svg PUBLIC "-//W3C//DTD SVG 1.1//EN" "http://www.w3.org/Graphics/SVG/1.1/DTD/svg11.dtd"><svg width="100%" height="100%" viewBox="0 0 576 512" version="1.1" xmlns="http://www.w3.org/2000/svg" xmlns:xlink="http://www.w3.org/1999/xlink" xml:space="preserve" xmlns:serif="http://www.serif.com/" style="fill-rule:evenodd;clip-rule:evenodd;stroke-linejoin:round;stroke-miterlimit:1.41421;"><path d="M198.442,371.606c0,67.281 75.472,121.691 168.495,121.691c28.258,0 54.937,-5.032 78.339,-13.924c23.577,18.253 52.537,29.428 83.311,32.587c3.042,0.351 5.967,-1.638 6.728,-4.505c0.761,-2.925 -1.58,-4.739 -3.861,-6.904c-11.292,-10.765 -24.982,-19.189 -30.364,-55.345c21.529,-20.419 34.342,-45.927 34.342,-73.6c0,-67.222 -75.472,-121.691 -168.495,-121.691c-93.023,0 -168.495,54.469 -168.495,121.691Zm179.116,-249.915c0,67.281 -75.472,121.69 -168.495,121.69c-28.258,0 -54.937,-5.031 -78.339,-13.924c-23.577,18.254 -52.537,29.428 -83.311,32.587c-3.042,0.352 -5.967,-1.638 -6.728,-4.504c-0.761,-2.926 1.58,-4.739 3.861,-6.904c11.292,-10.765 24.982,-19.19 30.364,-55.346c-21.529,-20.418 -34.342,-45.926 -34.342,-73.599c0,-67.223 75.472,-121.691 168.495,-121.691c93.023,0 168.495,54.468 168.495,121.691Z"/></svg>