<?xml version="1.0" encoding="UTF-8" standalone="no"?><!DOCTYPE svg PUBLIC "-//W3C//DTD SVG 1.1//EN" "http://www.w3.org/Graphics/SVG/1.1/DTD/svg11.dtd"><svg width="100%" height="100%" viewBox="0 0 640 512" version="1.1" xmlns="http://www.w3.org/2000/svg" xmlns:xlink="http://www.w3.org/1999/xlink" xml:space="preserve" xmlns:serif="http://www.serif.com/" style="fill-rule:evenodd;clip-rule:evenodd;stroke-linejoin:round;stroke-miterlimit:1.41421;"><path d="M220,164c0,-55.229 44.772,-100 100,-100c55.228,0 100,44.771 100,100c0,55.229 -44.772,100 -100,100c-55.228,0 -100,-44.771 -100,-100Zm-172,44c0,-44.183 35.817,-80 80,-80c44.183,0 80,35.817 80,80c0,44.183 -35.817,80 -80,80c-44.183,0 -80,-35.817 -80,-80Zm384,0c0,-44.183 35.817,-80 80,-80c44.183,0 80,35.817 80,80c0,44.183 -35.817,80 -80,80c-44.183,0 -80,-35.817 -80,-80Zm-22,76c38.66,0 70,31.34 70,70l0,70c0,13.255 -10.745,24 -24,24l-272,0c-13.255,0 -24,-10.745 -24,-24l0,-70c0,-38.66 31.34,-70 70,-70l17.848,0c44.364,26.687 99.93,26.693 144.305,0l17.847,0m-282,70c0,-11.975 2.081,-23.472 5.889,-34.156c-21.93,1.152 -44.122,-4.121 -63.611,-15.844l-14.278,0c-30.928,0 -56,25.072 -56,56l0,32c0,13.255 10.745,24 24,24l104,0l0,-62Zm456,-50l-14.278,0c-19.495,11.727 -41.686,16.996 -63.611,15.844c3.906,10.964 5.898,22.517 5.889,34.156l0,62l104,0c13.255,0 24,-10.745 24,-24l0,-32c0,-30.928 -25.072,-56 -56,-56Z" style="fill-rule:nonzero;"/></svg>