<?xml version="1.0" encoding="utf-8"?>
<!-- Generator: Adobe Illustrator 18.1.1, SVG Export Plug-In . SVG Version: 6.00 Build 0)  -->
<!DOCTYPE svg PUBLIC "-//W3C//DTD SVG 1.1//EN" "http://www.w3.org/Graphics/SVG/1.1/DTD/svg11.dtd">
<svg version="1.1" id="Rectangle_1_1_" xmlns="http://www.w3.org/2000/svg" xmlns:xlink="http://www.w3.org/1999/xlink" x="0px"
	 y="0px" width="841.9px" height="595.3px" viewBox="0 0 841.9 595.3" enable-background="new 0 0 841.9 595.3"
	 xml:space="preserve">
<path fill="#FFFFFF" d="M520.2,0H321.7c-40.9,0-74.4,33.5-74.4,74.4v446.5c0,40.9,33.5,74.4,74.4,74.4h198.4
	c40.9,0,74.4-33.5,74.4-74.4V74.4C594.6,33.5,561.1,0,520.2,0z M378.8,47.1h84.3c3.7,0,7.4,3.7,7.4,7.4c0,3.7-3.7,7.4-7.4,7.4h-84.3
	c-3.7,0-7.4-3.7-7.4-7.4C371.3,50.8,375.1,47.1,378.8,47.1z M420.9,570.5c-16.1,0-28.5-12.4-28.5-28.5c0-16.1,12.4-28.5,28.5-28.5
	s28.5,12.4,28.5,28.5C449.5,558.1,437.1,570.5,420.9,570.5z M549.9,483.7H292c-3.7,0-7.4-3.7-7.4-7.4V119.1c0-3.7,3.7-7.4,7.4-7.4
	h256.7c5,0,8.7,3.7,8.7,7.4V475C557.4,479.9,553.6,483.7,549.9,483.7z"/>
</svg>
