<?xml version="1.0" encoding="utf-8"?>
<!-- Generator: Adobe Illustrator 19.2.0, SVG Export Plug-In . SVG Version: 6.00 Build 0)  -->
<svg version="1.0" id="Layer_1" xmlns="http://www.w3.org/2000/svg" xmlns:xlink="http://www.w3.org/1999/xlink" x="0px" y="0px"
	 viewBox="0 0 1115 1792" enable-background="new 0 0 1115 1792" xml:space="preserve">
<path d="M557.2,0C381.8,0,238.6,143.2,238.6,318.6v597.3c0,175.3,143.2,318.6,318.6,318.6s318.6-143.2,318.6-318.6V318.6
	C876.1,143.6,732.5,0,557.2,0z M1035.4,557.5c-43.7,0-79.6,36-79.6,79.6v318.6c0,0,36,358.4-398.2,358.4S159.3,955.7,159.3,955.7
	V637.2c0-43.7-36-79.6-79.6-79.6S0,593.5,0,637.2v318.6c0,0,0,442.2,438,509.7v207.1c0,67.8,51.7,119.5,119.5,119.5
	S677,1740.3,677,1672.5v-207.1c438-67.8,438-509.7,438-509.7V637.2C1115,593.5,1079.1,557.5,1035.4,557.5z"/>
</svg>
