<?xml version="1.0" encoding="utf-8"?>
<!-- Generator: Adobe Illustrator 19.2.0, SVG Export Plug-In . SVG Version: 6.00 Build 0)  -->
<svg version="1.0" id="Layer_1" xmlns="http://www.w3.org/2000/svg" xmlns:xlink="http://www.w3.org/1999/xlink" x="0px" y="0px"
	 viewBox="0 0 2431.7 1792" style="enable-background:new 0 0 2431.7 1792;" xml:space="preserve">
<path d="M313.3,518.4c-123.2,21.7-206,140-184.3,263.2l74,419.5c21.7,123.1,140,206,263.2,184.3c123.2-21.7,206-140,184.3-263.2
	l-74-419.5C555.1,579.7,436.4,496.7,313.3,518.4z M718.2,850.7c-30.7,5.4-51.4,35.1-46,65.8l39.5,223.8c0,0,69.7,247.3-235.3,301
	c-305,53.8-324.1-202.4-324.1-202.4l-39.4-223.7c-5.4-30.7-35.1-51.4-65.8-46s-51.5,35.1-46.1,65.8l39.5,223.8
	c0,0,54.8,310.6,370.8,303.7l25.6,145.5c8.4,47.6,51.1,77.5,98.7,69.1c47.6-8.4,77.5-51.2,69.1-98.8l-25.6-145.5
	c299.2-101.9,244.5-412.2,244.5-412.2L784,896.8C778.6,866.2,748.9,845.3,718.2,850.7z M1953.6,1579.1c-6.6-1.2-14.4,4.3-16.2,14.1
	l-13.3,75.6c-5.2,29.7-2.7,53.6-56,47.8l-489.4-32.2c-30.2-2-49-28.9-44.4-55.4l148.4-841.5c5.2-29.7,19.1-30.5,27.4-2l226.1,660.4
	c18.1,50.8,72,90.6,125.3,96.7l502.4,34.5c50.5,2.1,80.5-33.4,62.4-83.9l-250.2-695.5c-18.1-50.8-75.5-91.2-125.4-96.7l-507.2-45.4
	c-50.5-2.1-101.3,36.3-110,85.5L1279.1,1636c-9.3,52.5,27,96.3,77.5,98.4l509.6,32.2c50.5,2.1,96.1-6.8,103.6-49.5l21.5-121.7
	c1.7-9.8-6.9-18.2-13.6-19.4L1953.6,1579.1z M1291.2,611.5c21.9,25,31.2,68.8,31.2,134.3c0,50.1-6.3,84.4-15.6,106.3
	s-25,37.5-40.6,46.9c-15.6,9.6-43.9,12.6-84.4,12.6h-31c-9.3,0-15.6-9.3-15.6-15.6V589.9c0-9.3,9.3-15.6,15.6-15.6h34.2
	C1232,574.3,1269.5,586.8,1291.2,611.5z M862.5,1290c22.4-94.8,8.9-174.4,8.2-177.8l-39.4-223.7c-4.3-24.4-17.2-46.5-36.3-62.4
	c-18.9-15.6-42.6-24.3-67-24.3c-6,0-12.1,0.5-18.1,1.6c-23.8,4.2-45.1,16.3-60.8,34.5l-25.3-143.5c-4.8-27.3-13.6-53.4-26.2-77.8
	V99.4c0-46.9,40.6-87.4,87.4-87.4h763c46.9,0,56.2,12.6,56.2,31.2c0,18.6-9.6,31.2-59.5,31.2H779.1c-46.9,0-71.8,15.6-40.6,46.9
	c25,25,84.4,46.9,134.3,46.9h665.5c46.9,0,87.4,37.5,87.5,87.4v359.1l-78-7l-1.1-0.1l-1.1,0c-2-0.1-4-0.1-6-0.1c0,0,0,0,0,0
	c-14.6,0-29.3,2.2-43.4,6.5c-12.1-33-27.4-65.8-48.5-93c-21.9-28-50.1-49.9-84.4-65.5c-34.3-15.6-78.1-21.9-134.3-21.9H991.4
	c-25.2,0-43.9,18.9-43.9,43.9v527.8c0,25.2,18.9,43.9,43.9,43.9H1229c32.2,0,67.2-2.6,105-13.4l-43.9,254.3H862.5z"/>
</svg>
