<?xml version="1.0" encoding="UTF-8" standalone="no"?><!DOCTYPE svg PUBLIC "-//W3C//DTD SVG 1.1//EN" "http://www.w3.org/Graphics/SVG/1.1/DTD/svg11.dtd"><svg width="100%" height="100%" viewBox="0 0 965 783" version="1.1" xmlns="http://www.w3.org/2000/svg" xmlns:xlink="http://www.w3.org/1999/xlink" xml:space="preserve" xmlns:serif="http://www.serif.com/" style="fill-rule:evenodd;clip-rule:evenodd;stroke-linejoin:round;stroke-miterlimit:1.41421;"><path d="M869.591,783l-257.441,0l0,-238.7l257.441,238.7Zm-518.441,0l-257.482,0l257.482,-238.7l0,238.7Zm394.364,-261l218.531,202.6l0,58.4l-281.48,-261l62.949,0Zm-683.295,261l-62.959,0l281.463,-261l63.02,0l-281.524,261Zm497.731,-469.8l404.095,0l0,156.6l-404.095,0l0,313.2l-156.6,0l0,-313.2l-404.09,0l0,-156.6l404.09,0l0,-313.2l156.6,0l0,313.2Zm404.034,382.3l-187.026,-173.5l187.026,0l0,173.5Zm-777.669,-173.5l-187.055,173.5l0,-173.5l187.055,0Zm0,-261l-187.055,0l0,-173.5l187.055,173.5Zm777.73,0l-187.087,0l187.087,-173.5l0,173.5Zm-964.785,-261l0,58.4l218.565,202.6l62.959,0l-281.524,-261Zm683.305,261l-62.949,0l281.48,-261l62.949,0l-281.48,261Zm187.026,-261l-257.38,238.7l0,-238.7l257.38,0Zm-518.441,238.7l-257.482,-238.7l257.482,0l0,238.7Z"/></svg>