<?xml version="1.0" encoding="UTF-8" standalone="no"?><!DOCTYPE svg PUBLIC "-//W3C//DTD SVG 1.1//EN" "http://www.w3.org/Graphics/SVG/1.1/DTD/svg11.dtd"><svg width="100%" height="100%" viewBox="0 0 576 512" version="1.1" xmlns="http://www.w3.org/2000/svg" xmlns:xlink="http://www.w3.org/1999/xlink" xml:space="preserve" xmlns:serif="http://www.serif.com/" style="fill-rule:evenodd;clip-rule:evenodd;stroke-linejoin:round;stroke-miterlimit:1.41421;"><path d="M422.759,303.939c8.159,-0.209 16.763,-0.032 25.225,-0.038c4.413,-0.002 8.826,0.004 13.239,0.027l0.564,0.003l0.055,0l1.2,0.007c5.89,0.112 10.947,4.739 11.729,10.321c0.068,0.491 0.099,0.66 0.115,1.523c0.127,20.051 0.001,40.103 0.001,60.155l60,0c6.488,0.041 11.881,5.624 11.999,11.845c0.085,13.437 0.085,26.874 0,40.31c-0.112,5.89 -4.739,10.948 -10.321,11.729c-0.491,0.068 -0.66,0.099 -1.523,0.115c-20.051,0.127 -40.103,0.001 -60.155,0.001l0,60c-0.041,6.488 -5.624,11.881 -11.845,11.999c-13.436,0.085 -26.874,0.085 -40.31,0c-5.89,-0.112 -10.947,-4.739 -11.729,-10.321c-0.068,-0.491 -0.099,-0.66 -0.115,-1.523c-0.127,-20.051 -0.001,-40.103 -0.001,-60.155l-60,0c-6.489,-0.041 -11.881,-5.624 -11.999,-11.845c-0.085,-13.436 -0.085,-26.873 0,-40.31c0.105,-5.524 4.183,-10.317 9.295,-11.535l0.001,0l0.004,-0.001c0.125,-0.03 0.25,-0.057 0.377,-0.083l0.008,-0.001l0.069,-0.014l0.046,-0.009l0.006,-0.001c0.233,-0.044 0.467,-0.081 0.702,-0.11c0.283,-0.04 0.485,-0.064 0.913,-0.078c0.141,-0.007 0.282,-0.011 0.423,-0.012c20.213,-0.167 40.087,-0.008 60.155,-0.001l0,-60c0.041,-6.536 5.63,-11.887 11.872,-11.998Zm-115.926,98.84c-80.448,0.08 -160.895,-0.007 -241.342,-0.262c-20.062,-0.19 -36.228,-17.611 -36.406,-36.406c-0.078,-24.509 -0.001,-49.017 -0.001,-73.526c9.984,-0.031 19.701,-4.204 26.526,-11.362c8.758,-9.186 12.2,-23.091 8.728,-35.314c-4.349,-15.313 -19.5,-26.563 -35.254,-26.612l0,-73.289c0.065,-20.38 17.697,-36.584 36.644,-36.644c122.227,0 244.454,-0.386 366.68,0.001c20.062,0.19 36.228,17.611 36.407,36.406c0.077,24.508 0.001,49.017 0.001,73.526c-9.984,0.031 -19.702,4.204 -26.526,11.361c-8.759,9.187 -12.2,23.092 -8.729,35.315c0.586,2.061 1.367,4.049 2.32,5.946c-4.405,0.008 -8.807,0.017 -13.207,0.018c-9.991,0.13 -19.477,3.778 -27.035,9.776c0.036,-35.096 -0.001,-70.191 -0.112,-105.287c-0.094,-9.903 -8.734,-18.113 -18.204,-18.203c-85.582,-0.271 -171.165,-0.271 -256.747,0c-9.903,0.094 -18.113,8.733 -18.203,18.203c-0.168,53.01 -0.168,106.02 0,159.029c0.094,9.904 8.733,18.114 18.203,18.204c67.705,0.214 135.41,0.259 203.114,0.134c-6.415,5.069 -11.496,11.803 -14.25,19.506c-2.206,6.169 -2.55,13.987 -2.55,13.987c-0.03,5.163 -0.049,10.326 -0.057,15.493Zm64.264,-73.55l-244.295,0l0,-146.577l244.295,0l0,146.577Z"/></svg>