<?xml version="1.0" encoding="utf-8"?>
<!-- Generator: Adobe Illustrator 16.0.3, SVG Export Plug-In . SVG Version: 6.00 Build 0)  -->
<!DOCTYPE svg PUBLIC "-//W3C//DTD SVG 1.1//EN" "http://www.w3.org/Graphics/SVG/1.1/DTD/svg11.dtd">
<svg version="1.1" id="Layer_2" xmlns="http://www.w3.org/2000/svg" xmlns:xlink="http://www.w3.org/1999/xlink" x="0px" y="0px"
	 width="841.9px" height="595.301px" viewBox="0 0 841.9 595.301" enable-background="new 0 0 841.9 595.301" xml:space="preserve">
<g>
	<path fill="#FFFFFF" d="M514.003,536.065L398.194,71.584L289.933,251.623l-139.237,34.716l43.933,176.206l139.238-34.715
		L514.003,536.065z M503.432,144.8l-30.396,48.804c34.67,20.832,58.514,56.111,67.73,93.079
		c9.072,36.386,4.756,74.05-14.379,107.677l46.914,28.188c27.873-48.175,37.658-103.588,24.74-155.401
		C586.356,220.281,555.632,175.586,503.432,144.8z M572.669,41.791l-32.484,53.24c59.277,35.617,99.477,94.336,115.758,159.637
		c16.137,64.719,8.355,136.02-27.117,195.88l50.791,30.519c44.723-75.256,57.877-164.282,37.604-245.593
		c-19.039-76.362-66.58-146.339-144.285-193.028l-0.168-0.679L572.669,41.791z"/>
</g>
</svg>
